<svg width="60" height="60" viewBox="0 0 60 60" fill="none" xmlns="http://www.w3.org/2000/svg">
<path d="M30.9749 27.25C25.2999 25.775 23.4749 24.25 23.4749 21.875C23.4749 19.15 25.9999 17.25 30.2249 17.25C34.6749 17.25 36.3249 19.375 36.4749 22.5H41.9999C41.8249 18.2 39.1999 14.25 33.9749 12.975V7.5H26.4749V12.9C21.6249 13.95 17.7249 17.1 17.7249 21.925C17.7249 27.7 22.4999 30.575 29.4749 32.25C35.7249 33.75 36.9749 35.95 36.9749 38.275C36.9749 40 35.7499 42.75 30.2249 42.75C25.0749 42.75 23.0499 40.45 22.7749 37.5H17.2749C17.5749 42.975 21.6749 46.05 26.4749 47.075V52.5H33.9749V47.125C38.8499 46.2 42.7249 43.375 42.7249 38.25C42.7249 31.15 36.6499 28.725 30.9749 27.25Z" fill="black"/>
</svg>
