<?xml version="1.0" encoding="utf-8"?>
<!-- Generator: Adobe Illustrator 23.0.3, SVG Export Plug-In . SVG Version: 6.00 Build 0)  -->
<svg version="1.1" id="Capa_1" xmlns="http://www.w3.org/2000/svg" xmlns:xlink="http://www.w3.org/1999/xlink" x="0px" y="0px"
	 viewBox="0 0 20 20" style="enable-background:new 0 0 20 20;" xml:space="preserve">
<style type="text/css">
	.st0{fill:#FFFFFF;}
</style>
<path d="M10.2,0.5c0.1,0,0.2,0,0.3,0.1c0.4,0.1,0.9,0.3,1.3,0.5c0.4,0.2,0.8,0.4,1.2,0.6c0,0,0.1,0,0.1,0c0.3,0,0.5,0,0.8,0
	c0.4-0.1,0.8-0.2,1.1-0.4c0.2-0.1,0.4-0.1,0.6,0c0.1,0.1,0.2,0.2,0.3,0.3C16.2,2,16.6,2.4,17,2.7c0.3,0.2,0.6,0.4,0.8,0.7
	c0,0,0.1,0.1,0.1,0.2c0.1,0.1,0.1,0.2,0.1,0.3c-0.1,0.3-0.2,0.5-0.3,0.8c-0.2,0.5-0.4,1-0.6,1.6c0,0,0,0,0,0.1c0,0.3,0,0.6,0,0.9
	c0.1,0.4,0.2,0.8,0.3,1.2c0.2,0.6,0.4,1.1,0.6,1.7c0.2,0.4,0.3,0.9,0.3,1.3c0,0,0,0,0,0V13c0,0.1,0,0.3-0.1,0.4
	c-0.1,0.7-0.3,1.3-0.7,1.9c-0.5,0.8-1.2,1.4-2.1,1.8c-0.6,0.3-1.3,0.4-1.9,0.5c-0.3,0-0.7,0-1,0.1c-0.4,0.1-0.8,0.3-1.2,0.5
	c-0.6,0.3-1,0.8-1.4,1.3c0,0.1-0.1,0.1-0.1,0c-0.2-0.2-0.4-0.4-0.6-0.6c-0.5-0.4-1-0.8-1.6-1c-0.3-0.1-0.6-0.2-0.9-0.2
	c-0.7,0-1.5-0.1-2.2-0.4C3.9,17,3.3,16.6,2.8,16c-0.4-0.5-0.8-1.1-1-1.7c-0.1-0.4-0.2-0.8-0.3-1.1c0,0,0-0.1,0-0.1
	c0-0.5,0-1.1,0-1.6c0-0.3,0.1-0.5,0.1-0.8C1.8,10.2,2,9.8,2.1,9.5c0.2-0.6,0.5-1.3,0.6-1.9C2.8,7.3,2.8,7,2.8,6.8
	c0-0.3,0-0.5-0.1-0.7C2.5,5.5,2.3,4.9,2,4.3C2,4.2,1.9,4,1.9,3.9c0-0.1,0-0.2,0-0.3C2,3.5,2.2,3.3,2.4,3.2c0.3-0.3,0.7-0.6,1-0.9
	c0.3-0.2,0.5-0.5,0.7-0.8c0.1-0.1,0.1-0.2,0.2-0.2C4.5,1.2,4.7,1.1,5,1.2c0.2,0.1,0.4,0.2,0.6,0.3C6,1.6,6.4,1.7,6.7,1.6
	c0.2,0,0.3,0,0.5-0.1c0.5-0.3,1-0.5,1.6-0.7c0.3-0.1,0.6-0.2,1-0.3c0,0,0,0,0,0L10.2,0.5z"/>
<polygon class="st0" points="10,3.8 11.7,7.2 15.4,7.8 12.7,10.4 13.4,14.2 10,12.4 6.6,14.2 7.3,10.4 4.6,7.8 8.3,7.2 "/>
</svg>
