<?xml version="1.0" encoding="utf-8"?>
<!-- Generator: Adobe Illustrator 23.0.3, SVG Export Plug-In . SVG Version: 6.00 Build 0)  -->
<svg version="1.1" id="Capa_1" xmlns="http://www.w3.org/2000/svg" xmlns:xlink="http://www.w3.org/1999/xlink" x="0px" y="0px"
	 viewBox="0 0 323 101" style="enable-background:new 0 0 323 101;" xml:space="preserve">
<style type="text/css">
	.st0{fill:#FFFFFF;}
</style>
<g>
	<path class="st0" d="M49.6,22.9c-3.3,2-4.4,2.1-8,4.3c2.1-2.3,2.8-3.3,4.2-5.2c-3.3,0.2-8.2,0.6-11.7,1.3c3-1.6,9-3.4,12.2-3.8
		c-0.7-1-6.7-4.2-8.2-4.8c4.7,0.4,10.4,2.1,13.2,3.8c1.1-0.3,2.2-0.4,4.3-0.5c-0.5,0.9-0.5,1.4-2.5,2.7c0.6,1.5-0.8,9.6-1.9,11.8
		C51.2,29.1,50.9,24.8,49.6,22.9"/>
	<path class="st0" d="M25.2,52.2c-1.9-0.7-3.3-1.5-4.8-3c0.5-1.3,1-2.2,1.8-3.5c-1.6,0.2-2.7,0.4-4.1,0.7C17,44.5,16.5,42.6,16,40
		c-0.3,2.7-0.4,4.7,0,6.8c-1.2,0.3-2.1,0.6-3.1,1.1c1.4,0.9,2.6,1.5,4.2,2.3c0.9,1.8,1.7,3.1,3.2,4.5c-0.3-1.2-0.4-2.2-0.3-3.4
		C21.6,51.8,23.1,52.1,25.2,52.2"/>
	<path class="st0" d="M30.1,25L30.1,25c-0.6,0.8-1.3,2.2-1.5,2.9c4.9,0.7,8.9,3.2,8.9,3.2c-4.3-0.8-6.6-0.7-8.2-0.5
		c-1.6,0.2-1.9,0.3-1.9,0.3c-1.2,2.6-1.9,6.9-1.9,6.9c-0.8-1.9-1.9-5.7-1.9-5.7c-2.2,1.2-7.2,5.9-7.2,5.9c2.8-5.5,5.6-8,5.6-8
		c-1-1-3.5-1.5-5.3-1.5c1-0.4,3.4-0.9,5.3-0.9c1.9-0.1,3,0.1,3,0.1C26.7,26.3,29.3,25.2,30.1,25"/>
	<path class="st0" d="M35.4,48.7c-0.9,1.2-1.6,2.1-2.6,3.2c-1.7,0.5-3,0.6-4.6,0.6c1,0.5,2,0.8,3,1c-1,0.9-1.9,1.6-2.9,2.3
		c1.7-0.4,3.9-1.1,5.6-2.1c0.9,0,1.7,0,2.3-0.1c-0.2-0.5-0.2-0.9-0.4-1.5c1.6-1.2,2.7-2.3,4-3.6c-1.4,1-2.6,1.7-4.2,2.4
		C35.5,50.2,35.4,49.6,35.4,48.7"/>
	<path class="st0" d="M7.4,62.8h54.1V8.7H7.4V62.8z M60.3,61.6H8.6V9.8h51.8V61.6z"/>
	<path class="st0" d="M13.5,80.7c-0.1-1.2-0.4-2.3-2.1-2.3c-1,0-1.9,0.5-1.9,1.7c0,2.7,6.2,2.7,6.2,6.7c0,2.5-1.7,3.8-4.3,3.8
		c-1.8,0-3.4-0.8-4.4-1.9L8,87c0.9,1,2.2,1.6,3.4,1.6c1.2,0,2-0.5,2-1.6c0-2.4-6.2-2.6-6.2-6.7c0-2.5,1.9-3.7,4.1-3.7
		c3.1,0,4,2.1,4.1,3.9L13.5,80.7z"/>
	<path class="st0" d="M19.6,85.7c0.1,2.4,1.1,3,2.5,3c1.1,0,2.1-0.6,2.7-1l0.3,1.6c-0.9,0.6-1.9,1.1-3.4,1.1c-2.5,0-4.3-1.5-4.3-5.4
		c0-3.8,1.5-5.4,4.1-5.4c2.7,0,3.7,1.7,3.7,4.3v1.6H19.6z M23.2,84.1c0-1.7-0.5-2.5-1.7-2.5c-1.3,0-1.8,0.8-1.9,2.5H23.2z"/>
	<path class="st0" d="M35.6,81.9l-1.4-0.1c0.4,0.5,0.5,1.1,0.5,1.9c0,2.3-1.5,3.9-3.7,3.9c-0.4,0-0.7,0-1-0.1
		c-0.4,0.3-0.6,0.4-0.6,0.8c0,1.1,6.2-0.2,6.2,3.5c0,2.2-2.3,3.3-4.9,3.3c-2.5,0-4.2-0.9-4.2-2.6c0-1.1,0.7-1.9,1.8-2.4
		c-0.5-0.3-0.9-0.6-0.9-1.4c0-0.8,0.6-1.3,1.2-1.8c-0.9-0.7-1.4-1.7-1.4-3.1c0-2.4,1.5-3.9,3.8-3.9c0.5,0,1,0.1,1.5,0.3h3.2V81.9z
		 M28.4,92.3c0,0.9,1.1,1.2,2.3,1.2c1.3,0,2.7-0.5,2.7-1.4c0-1.3-1.7-1.2-3.3-1.4C29.3,91,28.4,91.5,28.4,92.3 M30.9,81.5
		c-1.1,0-1.8,0.6-1.8,2.2c0,1.6,0.7,2.2,1.8,2.2c1.1,0,1.8-0.6,1.8-2.2C32.7,82.1,32,81.5,30.9,81.5"/>
	<path class="st0" d="M39,80v7c0,1.3,0.8,1.7,1.7,1.7c0.9,0,1.7-0.4,1.7-1.7v-7h2.1v7c0,2.4-1.6,3.5-3.8,3.5c-2.2,0-3.8-1.1-3.8-3.5
		v-7H39z"/>
	<path class="st0" d="M49.3,80v1c0.8-0.9,1.7-1.3,2.6-1.3c1.5,0,1.8,1.4,1.8,2.9l-1.8,0.2c0-0.6-0.1-1-0.7-1c-0.6,0-1.2,0.5-1.8,1.1
		v7.3h-2.1V80H49.3z"/>
	<path class="st0" d="M62.9,85.2c0,3.5-1.5,5.3-4.2,5.3c-2.7,0-4.2-1.5-4.2-5.4c0-3.8,1.5-5.4,4.2-5.4
		C61.6,79.8,62.9,81.3,62.9,85.2 M56.6,85.1c0,2.8,0.7,3.6,2.1,3.6c1.4,0,2.1-0.8,2.1-3.6c0-2.9-0.7-3.7-2.1-3.7
		C57.3,81.5,56.6,82.3,56.6,85.1"/>
	<path class="st0" d="M69.7,83.1c-0.1-0.9-0.5-1.6-1.6-1.6c-0.8,0-1.4,0.3-1.4,1.1c0,1.9,4.8,1.8,4.8,4.9c0,1.9-1.3,3-3.5,3
		c-1.6,0-2.9-0.6-3.6-1.4l0.7-1.5c0.7,0.7,1.8,1.1,2.9,1.1c0.8,0,1.5-0.3,1.5-1.1c0-1.6-4.7-1.6-4.7-4.9c0-1.8,1.3-3,3.4-3
		c2.4,0,3.4,1.4,3.4,3L69.7,83.1z"/>
	<path class="st0" d="M81.1,90v4.2L79,94.7V80h1.9v0.9c0.8-0.6,1.7-1.2,3-1.2c1.7,0,3.4,1,3.4,5.3c0,4-1.8,5.5-4.2,5.5
		C82.5,90.5,81.8,90.3,81.1,90 M81.1,88.2c0.6,0.4,1.2,0.6,1.8,0.6c1.2,0,2.2-0.9,2.2-3.7c0-2.7-0.9-3.4-1.9-3.4
		c-0.8,0-1.4,0.3-2.1,0.7V88.2z"/>
	<path class="st0" d="M94.3,82.9c0-1-0.6-1.3-1.5-1.3c-0.9,0-1.7,0.5-1.7,1.6l-1.9-0.2c0.1-2.1,1.7-3.1,3.6-3.1
		c2.1,0,3.5,1.1,3.5,2.9V88c0,0.5,0.2,0.7,0.6,0.7c0.3,0,0.7-0.2,1-0.4l0.1,1.5c-0.4,0.4-1.1,0.7-1.8,0.7c-0.7,0-1.6-0.3-1.7-1.4
		c-0.8,1-1.9,1.4-2.9,1.4c-1.6,0-2.7-0.9-2.7-2.8c0-2.6,2.5-3.7,5.4-3.7V82.9z M94.3,85.6c-1.8-0.1-3.3,0.6-3.3,1.9
		c0,0.8,0.3,1.2,1.2,1.2c0.8,0,1.6-0.5,2.1-1.1V85.6z"/>
	<path class="st0" d="M101.4,80v1c0.8-0.9,1.7-1.3,2.6-1.3c1.5,0,1.8,1.4,1.8,2.9l-1.8,0.2c0-0.6-0.1-1-0.7-1
		c-0.6,0-1.2,0.5-1.8,1.1v7.3h-2.1V80H101.4z"/>
	<path class="st0" d="M112.2,82.9c0-1-0.6-1.3-1.5-1.3c-0.9,0-1.7,0.5-1.7,1.6l-1.9-0.2c0.1-2.1,1.7-3.1,3.6-3.1
		c2.1,0,3.5,1.1,3.5,2.9V88c0,0.5,0.2,0.7,0.6,0.7c0.3,0,0.7-0.2,1-0.4l0.1,1.5c-0.4,0.4-1.1,0.7-1.8,0.7c-0.7,0-1.6-0.3-1.7-1.4
		c-0.8,1-1.9,1.4-2.9,1.4c-1.6,0-2.7-0.9-2.7-2.8c0-2.6,2.5-3.7,5.4-3.7V82.9z M112.2,85.6c-1.8-0.1-3.3,0.6-3.3,1.9
		c0,0.8,0.3,1.2,1.2,1.2c0.8,0,1.6-0.5,2.1-1.1V85.6z"/>
	<path class="st0" d="M124.4,80v7c0,1.3,0.8,1.7,1.7,1.7c0.9,0,1.7-0.4,1.7-1.7v-7h2.1v7c0,2.4-1.6,3.5-3.8,3.5
		c-2.2,0-3.8-1.1-3.8-3.5v-7H124.4z"/>
	<path class="st0" d="M134.6,80.9c0.8-0.6,1.8-1.2,3.2-1.2c1.9,0,3,1,3,3.3v7.2h-2.1v-6.8c0-1.3-0.4-1.7-1.6-1.7
		c-0.8,0-1.6,0.3-2.3,0.8v7.8h-2.1V80h1.9V80.9z"/>
	<path class="st0" d="M150.6,80.9c0.8-0.6,1.8-1.2,3.1-1.2c1.2,0,1.9,0.4,2.4,1.2c1-0.7,2-1.2,3.3-1.2c1.8,0,2.9,1,2.9,3.3v7.2h-2.1
		v-6.9c0-1.3-0.5-1.6-1.5-1.6c-0.7,0-1.5,0.4-2.1,0.8c0,0.3,0.1,0.5,0.1,0.8v6.9h-2.1v-6.6c0-1.4-0.3-1.9-1.5-1.9
		c-0.7,0-1.4,0.3-2.1,0.8v7.8h-2.1V80h1.9V80.9z"/>
	<path class="st0" d="M166.9,80v7c0,1.3,0.8,1.7,1.7,1.7c0.9,0,1.7-0.4,1.7-1.7v-7h2.1v7c0,2.4-1.6,3.5-3.8,3.5
		c-2.2,0-3.8-1.1-3.8-3.5v-7H166.9z"/>
	<path class="st0" d="M177.1,80.9c0.8-0.6,1.8-1.2,3.2-1.2c1.9,0,3,1,3,3.3v7.2h-2.1v-6.8c0-1.3-0.4-1.7-1.6-1.7
		c-0.8,0-1.6,0.3-2.3,0.8v7.8h-2.1V80h1.9V80.9z"/>
	<path class="st0" d="M191.9,89c-0.8,0.8-1.7,1.5-2.9,1.5c-1.7,0-3.5-1.3-3.5-5.3c0-4,1.8-5.4,3.6-5.4c0.9,0,1.6,0.2,2.5,0.6v-4.2
		l2.1-0.4V88c0,0.5,0.2,0.7,0.6,0.7s0.7-0.2,1-0.4l0.1,1.5c-0.4,0.4-1.1,0.7-1.8,0.7C192.8,90.5,192,90.2,191.9,89 M191.6,82.1
		c-0.6-0.3-1.2-0.6-2-0.6c-1,0-1.9,0.6-1.9,3.5c0,2.5,0.8,3.5,1.8,3.5c0.9,0,1.7-0.6,2.2-1.2V82.1z"/>
	<path class="st0" d="M204.7,85.2c0,3.5-1.5,5.3-4.2,5.3c-2.7,0-4.2-1.5-4.2-5.4c0-3.8,1.5-5.4,4.2-5.4
		C203.3,79.8,204.7,81.3,204.7,85.2 M198.4,85.1c0,2.8,0.7,3.6,2.1,3.6c1.4,0,2.1-0.8,2.1-3.6c0-2.9-0.7-3.7-2.1-3.7
		C199.1,81.5,198.4,82.3,198.4,85.1"/>
	<path class="st0" d="M213.7,85.7c0.1,2.4,1.1,3,2.5,3c1.1,0,2.1-0.6,2.7-1l0.3,1.6c-0.9,0.6-1.9,1.1-3.4,1.1
		c-2.5,0-4.3-1.5-4.3-5.4c0-3.8,1.5-5.4,4.1-5.4c2.7,0,3.7,1.7,3.7,4.3v1.6H213.7z M217.3,84.1c0-1.7-0.5-2.5-1.7-2.5
		c-1.2,0-1.8,0.8-1.9,2.5H217.3z"/>
	<path class="st0" d="M223.5,80.9c0.8-0.6,1.8-1.2,3.2-1.2c1.9,0,3,1,3,3.3v7.2h-2.1v-6.8c0-1.3-0.4-1.7-1.6-1.7
		c-0.8,0-1.6,0.3-2.3,0.8v7.8h-2.1V80h1.9V80.9z"/>
	<path class="st0" d="M239.1,85.7c0.1,2.4,1.1,3,2.5,3c1.1,0,2.1-0.6,2.7-1l0.3,1.6c-0.9,0.6-1.9,1.1-3.4,1.1
		c-2.5,0-4.3-1.5-4.3-5.4c0-3.8,1.5-5.4,4.1-5.4c2.7,0,3.7,1.7,3.7,4.3v1.6H239.1z M242.8,84.1c0-1.7-0.5-2.5-1.7-2.5
		c-1.3,0-1.8,0.8-1.9,2.5H242.8z"/>
	<polygon class="st0" points="247.9,80 250.5,87.9 252.9,80 255,80 251.6,90.3 249.2,90.3 245.7,80 	"/>
	<path class="st0" d="M264.4,85.2c0,3.5-1.5,5.3-4.2,5.3c-2.7,0-4.2-1.5-4.2-5.4c0-3.8,1.5-5.4,4.2-5.4
		C263.1,79.8,264.4,81.3,264.4,85.2 M258.1,85.1c0,2.8,0.7,3.6,2.1,3.6s2.1-0.8,2.1-3.6c0-2.9-0.7-3.7-2.1-3.7
		S258.1,82.3,258.1,85.1"/>
	<path class="st0" d="M268.8,75.8v12.1c0,0.6,0.3,0.8,0.7,0.8c0.4,0,0.8-0.2,1.3-0.4l0.2,1.6c-0.8,0.4-1.4,0.6-2.1,0.6
		c-1.7,0-2.1-1.3-2.1-2.6V76.2L268.8,75.8z"/>
	<path class="st0" d="M274.2,80v7c0,1.3,0.8,1.7,1.7,1.7c0.9,0,1.7-0.4,1.7-1.7v-7h2.1v7c0,2.4-1.6,3.5-3.8,3.5
		c-2.2,0-3.8-1.1-3.8-3.5v-7H274.2z"/>
	<path class="st0" d="M287.6,83.5c-0.1-1-0.5-1.9-1.6-1.9c-1.3,0-1.9,0.7-1.9,3.6c0,2.9,0.9,3.6,2.4,3.6c1.2,0,2-0.5,2.6-0.9
		l0.4,1.6c-0.9,0.6-1.9,1.1-3.4,1.1c-2.7,0-4.2-1.7-4.2-5.4c0-3.6,1.3-5.4,4.1-5.4c2.5,0,3.4,1.5,3.4,3.5
		C288.8,83.3,288.2,83.4,287.6,83.5"/>
	<path class="st0" d="M293.8,78.7h-2.1v-2.3h2.1V78.7z M293.8,90.3h-2.1V80h2.1V90.3z"/>
	<path class="st0" d="M304.6,85.2c0,3.5-1.5,5.3-4.2,5.3c-2.7,0-4.2-1.5-4.2-5.4c0-3.8,1.5-5.4,4.2-5.4
		C303.3,79.8,304.6,81.3,304.6,85.2 M298.3,85.1c0,2.8,0.7,3.6,2.1,3.6c1.4,0,2.1-0.8,2.1-3.6c0-2.9-0.7-3.7-2.1-3.7
		C299,81.5,298.3,82.3,298.3,85.1 M303.4,75.8l-2.2,3h-1.8l1.9-3H303.4z"/>
	<path class="st0" d="M308.8,80.9c0.8-0.6,1.8-1.2,3.2-1.2c1.9,0,3,1,3,3.3v7.2h-2.1v-6.8c0-1.3-0.4-1.7-1.6-1.7
		c-0.8,0-1.6,0.3-2.3,0.8v7.8h-2.1V80h1.9V80.9z"/>
	<path class="st0" d="M75,16.1c0.1,1.9,0.2,6.6,0.2,8.3c0,1.6,0,6.9-0.3,9.2l0,0.2l8.3,0c4.1,0,8.4-1.3,8.4-4.9c0-2.3-1.6-4-4.7-4.9
		c2.3-0.6,3.8-2.2,3.8-4c0-2.9-3.4-4.1-6.6-4.1c0,0-9.2,0-9.2,0L75,16.1z M81.4,18c3.5,0,4.8,0.7,4.8,2.6c0,0.5-0.2,1-0.5,1.3
		c-0.7,0.8-2,1.2-3.6,1.1H82l-1,2.5h1c1.9-0.1,3.6,0.5,4.4,1.6c0.4,0.5,0.6,1,0.6,1.6c0,2-1.7,3-5.2,3c-0.6,0-1.5,0-2.1,0
		c-0.1-2.6-0.1-6.2-0.1-7.2c0-1.3,0.1-4,0.1-6.4C80.2,18,80.9,17.9,81.4,18"/>
	<path class="st0" d="M110.8,16h-4l0.2,4.5c0.1,2.2,0.1,4.5,0.3,6.8c-0.3-0.7-0.5-1-1.7-2.8c0-0.1-4.2-6.5-5.7-8.4l0,0h-4.7l0,0.2
		c0.1,1.9,0.2,6.6,0.2,8.3c0,1.6,0,6.9-0.3,9.2l0,0.2h4.2l0-0.2c-0.2-4.4-0.2-8.8-0.2-13v0c0.1,0.5,0.3,1,1,2
		c0.1,0.1,7.2,10.6,7.6,11.2l0,0.1h3.4l0-0.2c-0.2-2.3-0.3-7.6-0.3-9.2c0-1.7,0.1-6.5,0.2-8.3l0-0.2H110.8z"/>
	<path class="st0" d="M115.7,16.1c0.1,1.9,0.2,6.6,0.2,8.3c0,1.6,0,6.9-0.3,9.2l0,0.2h5l0-0.2c-0.2-1.6-0.2-4.8-0.3-7.2
		c0.2,0,0.9,0,0.9,0l0.7,0c6.6,0,9.7-1.8,9.7-5.4c0-4.2-4.5-5.1-8.2-5.2l-7.8,0L115.7,16.1z M121.8,18.1c2.3,0,4,0.4,4.7,1.4
		c0.4,0.4,0.5,1,0.5,1.6c0,2.6-2.9,3.1-5.3,3.1l-1,0c0,0-0.2,0-0.4-0.1c0-0.6,0-1.4,0-2.3c0-1.1,0-2.5,0.1-3.7
		C120.7,18.2,121.2,18.1,121.8,18.1"/>
	<path class="st0" d="M141.2,16.1c0.1,1.9,0.2,6.6,0.2,8.3c0,1.6,0,6.9-0.3,9.2l0,0.2h5l0-0.2c-0.2-1.6-0.2-4.8-0.3-7.2
		c0.2,0,0.9,0,0.9,0l0.7,0c6.5,0,9.7-1.8,9.7-5.4c0-4.2-4.5-5.1-8.2-5.2l-7.8,0L141.2,16.1z M147.3,18.1c2.3,0,4,0.4,4.8,1.4
		c0.4,0.4,0.5,1,0.5,1.6c0,2.6-2.9,3.1-5.3,3.1l-1,0c0,0-0.2,0-0.4-0.1c0-0.6,0-1.4,0-2.3c0-1.1,0-2.4,0.1-3.7
		C146.2,18.2,146.7,18.1,147.3,18.1"/>
	<path class="st0" d="M163.8,16L163.8,16l-0.1,0.1c-0.9,2.5-6.9,15.6-7.8,17.6l-0.1,0.2h4.3l0-0.1c0.4-1.2,0.8-2.6,1.4-4.1
		c0.2,0,3.5-0.1,3.5-0.1l2.9,0c0,0,0.5,0,0.6,0c0.8,1.9,1.3,3.4,1.6,4.1l0,0.1h4.9l-8-17.9h-0.1H163.8z M165,21.2
		c0.4,0.8,1.4,3.2,2.6,6.1c-0.2,0-0.4,0-0.4,0l-2.2,0c0,0-2.3,0-2.6,0C163.3,25,164.2,23,165,21.2"/>
	<path class="st0" d="M177.1,16.1c0.1,1.9,0.2,6.6,0.2,8.3c0,1.6,0,6.9-0.3,9.2l0,0.2h5l0-0.2c-0.2-2.3-0.3-7.6-0.3-9.2
		c0-1.2,0.1-4,0.1-6.3c0.4-0.1,1-0.1,1.3-0.1c2.3,0,4,0.4,4.8,1.4c0.4,0.4,0.5,1,0.5,1.6c0,2.1-1.9,3.1-3.7,3.2
		c-0.6,0-1.1-0.1-1.1-0.1l-0.3-0.1l0.2,0.3c1.7,2.6,4.4,7.1,5.5,9.2l0,0.1h5.3l-0.2-0.3c-0.2-0.3-3.7-5.4-5.2-7.6
		c0,0-0.1-0.1-0.1-0.1c2.7-0.8,4-2.4,4-4.7c0-4.1-4.5-5.1-8.2-5.2l-7.8,0L177.1,16.1z"/>
	<path class="st0" d="M201.5,15.9h-4.8l0,0.2c0.1,1.9,0.2,6.6,0.2,8.4c0,1.6,0,6.9-0.3,9.2l0,0.2h5l0-0.2c-0.2-2.3-0.3-7.6-0.3-9.2
		c0-1.7,0.1-6.5,0.2-8.4l0-0.2H201.5z"/>
	<path class="st0" d="M206.2,16.1c0.1,1.9,0.2,6.6,0.2,8.3c0,1.6,0,6.9-0.3,9.2l0,0.2l8.3,0c4.1,0,8.4-1.3,8.4-4.9
		c0-2.3-1.6-4-4.7-4.9c2.3-0.6,3.8-2.2,3.8-4c0-2.9-3.4-4.1-6.6-4.1l-9.2,0L206.2,16.1z M212.6,18L212.6,18c3.5,0,4.8,0.7,4.8,2.6
		c0,0.5-0.2,1-0.5,1.3c-0.7,0.8-2,1.2-3.6,1.1h-0.1l-1,2.5h1c1.9-0.1,3.6,0.5,4.4,1.6c0.4,0.5,0.6,1,0.6,1.6c0,2-1.7,3-5.1,3
		c-0.6,0-1.5,0-2.1,0c-0.1-2.6-0.1-6.2-0.1-7.2c0-1.3,0.1-4,0.1-6.4C211.3,18,212,17.9,212.6,18"/>
	<path class="st0" d="M235,15.9h-3.3l0,0.1c-1,2.7-7.3,16.4-7.8,17.6l-0.1,0.2h4.3l0-0.1c0.4-1.2,0.9-2.6,1.4-4.1
		c0.1,0,3.5-0.1,3.5-0.1l2.9,0c0,0,0.5,0,0.6,0c0.8,1.9,1.3,3.4,1.6,4.1l0,0.1h4.9L235,15.9L235,15.9z M233,21.2
		c0.4,0.8,1.4,3.2,2.6,6.1c-0.2,0-0.4,0-0.4,0l-2.2,0c0,0-2.3,0-2.6-0.1C231.3,25,232.2,23,233,21.2"/>
	<path class="st0" d="M244.4,20.6c0,3.1,3.2,4.4,6,5.6c2.2,0.9,4.4,1.8,4.4,3.3c0,0.5-0.1,0.8-0.3,1.1c-0.5,0.6-1.6,0.9-3.3,0.8
		c-1.6-0.1-3.5-0.6-5.6-1.6l-0.9-0.4l0,0.7v3.2l0.6,0.1l0.3,0.1c1,0.3,3,0.7,5,0.7c5.2,0,8.4-2.1,8.4-5.6c0-3.2-3.2-4.5-6.1-5.7
		c-2.1-0.8-4.3-1.7-4.3-3.1c0-0.4,0-1.6,2.7-1.6c2,0,4,0.8,5.1,1.3l1,0.4l0-0.7V16l-1-0.2c-1-0.2-2.7-0.5-4.5-0.5
		C247.5,15.3,244.4,17.4,244.4,20.6"/>
	<path class="st0" d="M87.5,43.2c-0.9-0.5-1.9-0.9-3.3-0.9c-4,0-5.4,3.2-5.4,5.9c0,3.8,2.3,5.7,5.4,5.7c1.9,0,3.4-0.9,4.7-2.1l0,3.3
		c-1.3,0.5-3,1-5.4,1c-5.6,0-9.1-3.5-9.1-8c0-4.7,3.7-8.1,9.9-8.1c1.4,0,2.8,0.2,4.2,0.6L87.5,43.2z"/>
	<path class="st0" d="M101.1,40.3c0.6,1.6,5.7,12.9,6.9,15.5h-4.3c-0.2-0.7-0.8-2-1.4-3.7c-0.9,0-1.8,0-3.1,0c-1.2,0-2.1,0-3.1,0
		c-0.5,1.3-0.9,2.5-1.2,3.7h-3.7c0.9-1.9,6.1-13.2,6.9-15.5H101.1z M101.4,50.2l-2.2-5.2c-0.7,1.5-1.5,3.3-2.3,5.2
		c0.7,0,1.6,0,2.3,0C99.9,50.2,100.7,50.2,101.4,50.2"/>
	<path class="st0" d="M117.4,40.3c3.3,0,7.1,0.9,7.1,4.5c0,2-1.2,3.4-3.5,4.1c0.3,0.7,4.1,6.4,4.7,6.9h-4.6c-1-1.9-3.3-5.8-5-8.3
		c0.3,0.1,0.7,0.1,1.2,0.1c1.4,0,3.3-1,3.3-2.8c0-2.2-2.7-2.6-4.1-2.6c-0.7,0-1.3,0-1.7,0.1c-0.1,1.9-0.1,4.3-0.1,5.4
		c0,1.4,0,6,0.2,8.1h-4.3c0.2-2.1,0.3-4.9,0.3-8.1c0-2.7,0-5.9-0.2-7.4H117.4z"/>
	<path class="st0" d="M134.6,40.3c6.5,0,9,3.4,9,7.7c0,4.4-2.4,7.8-9.3,7.8h-5.8c0.2-2.1,0.2-4.9,0.2-8.1c0-1.5,0-5.4-0.2-7.4H134.6
		z M132.8,42.3c-0.1,1-0.1,3.7-0.1,5.4c0,2.3,0,4,0.1,6.1c0.2,0,0.6,0.1,1.1,0.1c3.7,0,5.7-1.2,5.7-5.9c0-4.5-2-5.8-5.8-5.7
		L132.8,42.3z"/>
	<path class="st0" d="M151.6,40.3c-0.1,1.8-0.2,5.9-0.2,7.4c0,1.4,0,6,0.2,8.1h-4.3c0.2-2.1,0.2-6.8,0.2-8.1c0-1.5-0.1-5.6-0.2-7.4
		H151.6z"/>
	<path class="st0" d="M168.1,40.3v2.2c-1.2-0.1-4.3-0.2-5.3-0.2c-0.8,0-1.6,0-2.5,0.1c-0.1,1-0.1,2.2-0.1,3.2c0,0.5,0,1,0,1.4
		l5.4-0.1v2.4l-5.4-0.2c0,2,0,5,0.2,6.7h-4.3c0.3-2.1,0.3-6.8,0.3-8.1c0-1.5-0.1-5.6-0.2-7.4H168.1z"/>
</g>
</svg>
