<svg width="88" height="88" viewBox="0 0 88 88" fill="none" xmlns="http://www.w3.org/2000/svg">
<path d="M75.5359 36.7799C75.5359 36.7655 75.5502 36.7368 75.5646 36.7081C76.512 33.7081 77 30.7799 77 27.9809C77 18.622 69.378 11 60.0191 11C56.2297 11 53.1435 11.89 50.5742 13.7129C48.3062 15.3206 46.3397 17.7177 44.3589 21.2488L44 21.8947L43.6411 21.2488C41.6603 17.7177 39.6938 15.3206 37.4258 13.7129C34.8565 11.89 31.7703 11 27.9809 11C18.622 11 11 18.6077 11 27.9809C11 30.3923 11.3589 32.8756 12.0478 35.4019C13.756 41.6316 17.6746 48.4354 24.0335 56.2153C29.6459 63.0766 36.5933 70.0096 43.311 76.7273C43.4976 76.8995 43.7416 77 43.9856 77C44.2297 77 44.4737 76.8995 44.6746 76.7273C57.7081 63.6938 71.1866 50.2153 75.5215 36.8086L75.5359 36.7799ZM73.067 38C68.2871 50.3876 55.5407 63.1483 44.2871 74.4019L44 74.689L43.7129 74.4019C32.0287 62.7033 18.7799 49.4402 14.4306 36.622L14.244 36.0766H27.7512L35.6603 50.5742C35.689 50.6316 35.7464 50.7033 35.8182 50.7895C35.9904 50.9761 36.2201 51.0766 36.4498 51.0766H36.4928C36.823 51.0766 37.1244 50.9043 37.2823 50.6316L46.8134 35.6459L49.8565 31.5694L54.6794 43.6268C54.8086 43.9713 55.1244 44.201 55.4976 44.2297C55.8565 44.2584 56.2153 44.0861 56.4019 43.7703L60.2201 37.4258H73.2823L73.067 38ZM74 35.244L73.9139 35.5455H59.6746C59.3445 35.5455 59.0287 35.7321 58.8565 36.0191L55.756 41.1866L51.0191 29.3301C50.89 29.0144 50.6029 28.7847 50.2584 28.7416C49.9139 28.6986 49.5837 28.8278 49.3684 29.1148L45.2919 34.5407C45.2775 34.5694 45.2632 34.5837 45.2488 34.5981L45.2344 34.6124L36.5646 48.2488L29.1579 34.6699C28.9856 34.3541 28.6699 34.1675 28.311 34.1675H13.6986L13.6268 33.8517C13.1531 31.8708 12.9091 29.89 12.9091 27.9665C12.9091 19.6555 19.6699 12.8947 27.9809 12.8947C33.2632 12.8947 36.7368 14.5311 39.9665 18.9665C41.0431 20.445 42.0909 22.2392 43.1531 24.3923C43.2966 24.7081 43.6411 24.9091 44 24.9091C44.3589 24.9091 44.689 24.7081 44.8469 24.3923C49.1388 15.8086 52.9713 12.9091 60.0191 12.9091C68.3301 12.9091 75.0909 19.6699 75.0909 27.9809C75.0766 30.3206 74.7177 32.7608 74 35.244Z" fill="black" stroke="black"/>
</svg>
