<svg width="80" height="24" viewBox="0 0 80 24" fill="none" xmlns="http://www.w3.org/2000/svg">
<path d="M10.5618 19.1964C7.15818 19.18 4.83455 17.0527 4.83455 13.6818C4.83455 10.1964 7.17455 7.98727 10.5618 7.98727C11.7564 7.98727 12.7382 8.2 13.6055 8.56V10L13.5564 10.0164C12.7873 9.62364 11.8545 9.37818 10.7582 9.37818C8.09091 9.37818 6.42182 11.0145 6.42182 13.6164C6.42182 16.1527 7.99273 17.7891 10.7745 17.7891C11.8873 17.7891 12.6727 17.5927 13.5564 17.1673L13.6055 17.1836V18.5745C12.7709 18.9673 11.7564 19.1964 10.5618 19.1964ZM18.985 10.36C21.3414 10.36 22.7486 11.8491 22.765 14.4509C22.765 14.6964 22.765 14.9091 22.7486 15.1382H16.4814C16.645 16.9382 17.9541 17.8545 19.6395 17.8545C20.5232 17.8545 21.2923 17.6745 22.225 17.2327L22.2741 17.2491V18.5255C21.3086 19.0655 20.3432 19.2127 19.3614 19.2127C17.1032 19.2127 14.8941 17.9036 14.8941 14.7618C14.8941 12.1273 16.6941 10.36 18.985 10.36ZM18.985 11.6691C17.7577 11.6691 16.8086 12.4545 16.5468 13.8945H21.2432C21.0632 12.4873 20.2614 11.6691 18.985 11.6691ZM28.5657 10.3764C28.942 10.3764 29.2366 10.4255 29.4984 10.5236V11.9145L29.4493 11.9309C29.2857 11.8655 29.0075 11.7836 28.5657 11.7836C27.6002 11.7836 26.602 12.1927 26.3402 14.0255V19H24.7857V10.5564H26.0457L26.1929 11.6855C26.7166 10.7691 27.6493 10.3764 28.5657 10.3764ZM34.9289 10.3764C35.3053 10.3764 35.5998 10.4255 35.8617 10.5236V11.9145L35.8126 11.9309C35.6489 11.8655 35.3708 11.7836 34.9289 11.7836C33.9635 11.7836 32.9653 12.1927 32.7035 14.0255V19H31.1489V10.5564H32.4089L32.5562 11.6855C33.0798 10.7691 34.0126 10.3764 34.9289 10.3764ZM44.7861 17.4945L44.8352 17.5109V18.8364C44.5407 19 44.1479 19.0982 43.7061 19.0982C42.6752 19.0982 42.2825 18.5582 42.2007 17.8218C41.5134 18.6727 40.5643 19.1964 39.2225 19.1964C37.6516 19.1964 36.4734 18.2636 36.4734 16.7418C36.4734 14.7618 38.2407 14.0255 39.8607 14.0255C40.777 14.0255 41.5625 14.1727 42.0697 14.3527V14.0091C42.0697 12.3727 41.1207 11.6691 39.6316 11.6691C38.6988 11.6691 37.8152 11.8818 37.3079 12.2255L37.2588 12.2091V10.9655C37.7007 10.6873 38.6497 10.36 39.8934 10.36C42.3807 10.36 43.6079 11.6527 43.6079 13.9436V16.8727C43.6079 17.4455 43.8207 17.6745 44.2297 17.6745C44.4588 17.6745 44.6388 17.6255 44.7861 17.4945ZM39.517 17.92C40.597 17.92 41.5297 17.3964 42.0697 16.5127V15.5473C41.5952 15.3509 40.9079 15.2364 40.1716 15.2364C38.9934 15.2364 38.0279 15.6618 38.0279 16.6436C38.0279 17.5273 38.7316 17.92 39.517 17.92ZM50.2571 10.3764C50.6334 10.3764 50.928 10.4255 51.1898 10.5236V11.9145L51.1407 11.9309C50.9771 11.8655 50.6989 11.7836 50.2571 11.7836C49.2916 11.7836 48.2934 12.1927 48.0316 14.0255V19H46.4771V10.5564H47.7371L47.8843 11.6855C48.408 10.7691 49.3407 10.3764 50.2571 10.3764Z" fill="#0076A9"/>
<path d="M75 6.41L73.59 5L68 10.59L62.41 5L61 6.41L66.59 12L61 17.59L62.41 19L68 13.41L73.59 19L75 17.59L69.41 12L75 6.41Z" fill="#0076A9"/>
</svg>
