<svg width="98" height="61" viewBox="0 0 98 61" fill="none" xmlns="http://www.w3.org/2000/svg">
<path d="M98 48.5942H0V48.9635H98V48.5942Z" fill="white"/>
<path d="M1.99124 58.7078H5.17533V60.335H0V51.5543H1.99124V58.7078Z" fill="white"/>
<path d="M14.9139 51.5543H12.8753L9.54913 60.335H10.9724H11.1049H11.6161L12.2599 58.3636H15.5198L16.1635 60.335H16.6906H16.8073H18.2337L14.9139 51.5543ZM12.7206 56.9773L13.5096 54.5834C13.5695 54.4301 13.6326 54.2517 13.6989 54.0421C13.7652 53.8324 13.8283 53.6071 13.8914 53.3599C13.9577 53.6009 14.0271 53.8262 14.0965 54.0327C14.166 54.2392 14.2259 54.4207 14.2764 54.574L15.0654 56.9773H12.7206Z" fill="white"/>
<path d="M41.8761 51.5543H39.8375L36.5114 60.335H37.9536H38.0672H38.6005L39.2442 58.3635H42.4883L42.9964 59.8937C43.0027 59.9125 43.0153 59.9282 43.0248 59.9469L43.151 60.3318H43.6591H43.7979H45.2022L41.8761 51.5543ZM39.6829 56.9773L40.475 54.5834C40.5349 54.4301 40.598 54.2517 40.6643 54.0421C40.7306 53.8324 40.7968 53.6071 40.86 53.3599C40.9262 53.6008 40.9925 53.8261 41.0651 54.0327C41.1345 54.2392 41.1945 54.4207 41.2449 54.574L42.0339 56.9773H39.6829Z" fill="white"/>
<path d="M69.886 51.5543H67.8474L64.5213 60.335H65.9445H66.0771H66.5914L67.2352 58.3635H70.4982L71.1419 60.335H71.6658H71.7857H73.2121L69.886 51.5543ZM67.6959 56.9773L68.4848 54.5834C68.5448 54.4301 68.6048 54.2517 68.6742 54.0421C68.7405 53.8324 68.8036 53.6071 68.8667 53.3599C68.933 53.6008 69.0024 53.8261 69.0718 54.0327C69.1412 54.2392 69.2012 54.4207 69.2517 54.574L70.0406 56.9773H67.6959Z" fill="white"/>
<path d="M94.6676 51.5543H92.629L89.3029 60.335H90.7293H90.8618H91.3762L92.02 58.3635H95.283L95.9267 60.335H96.4537H96.5736H97.9968L94.6676 51.5543ZM92.4744 56.9773L93.2665 54.5834C93.3264 54.4301 93.3895 54.2517 93.4558 54.0421C93.5221 53.8324 93.5883 53.6071 93.6515 53.3599C93.7177 53.6008 93.784 53.8261 93.8566 54.0327C93.9229 54.2392 93.9828 54.4207 94.0365 54.574L94.8254 56.9773H92.4744Z" fill="white"/>
<path d="M31.1278 57.9067L30.8217 58.1727L30.8248 58.1758C30.8122 58.1852 30.7964 58.1915 30.7806 58.204C30.6639 58.3073 30.5471 58.3949 30.4303 58.4669C30.3136 58.5357 30.1937 58.592 30.0643 58.639C29.9349 58.6828 29.7992 58.7141 29.6477 58.7328C29.4994 58.7516 29.3322 58.761 29.1523 58.761C28.8367 58.761 28.5432 58.6984 28.2687 58.5732C27.9942 58.4481 27.7543 58.2697 27.546 58.0288C27.3409 57.7909 27.1768 57.4968 27.0569 57.1463C26.937 56.7958 26.877 56.3984 26.877 55.9478C26.877 55.516 26.937 55.128 27.0569 54.7837C27.1768 54.4364 27.3441 54.1454 27.5555 53.9013C27.7701 53.6603 28.0257 53.4726 28.3255 53.3412C28.6253 53.2097 28.9535 53.144 29.3164 53.144C29.5247 53.144 29.7077 53.1597 29.8623 53.1941C30.017 53.2254 30.1526 53.2661 30.2694 53.313C30.3862 53.3568 30.484 53.41 30.5692 53.4632C30.6512 53.5164 30.7301 53.5665 30.8027 53.6134C30.8248 53.6291 30.8469 53.6384 30.869 53.651H30.8658L31.2887 53.9858L31.6043 53.554L32.2764 52.634C32.1155 52.4587 31.9325 52.3023 31.721 52.1583C31.5128 52.0175 31.2855 51.8923 31.0362 51.7922C30.7869 51.6889 30.5219 51.6076 30.2379 51.5512C29.9538 51.4918 29.6477 51.4636 29.3259 51.4636C28.66 51.4636 28.0541 51.5763 27.505 51.7953C26.9528 52.0175 26.4826 52.3273 26.0881 52.7216C25.6937 53.1221 25.3876 53.5915 25.1635 54.1422C24.9426 54.6899 24.8322 55.2938 24.8322 55.9478C24.8322 56.5893 24.93 57.187 25.1225 57.7346C25.315 58.2822 25.5927 58.7547 25.9524 59.1584C26.3122 59.559 26.7508 59.8688 27.2683 60.0972C27.7859 60.3256 28.3697 60.4383 29.0229 60.4383C29.7329 60.4383 30.3483 60.3225 30.869 60.0847C31.3581 59.8625 31.7684 59.5371 32.106 59.1177L32.1818 59.0489L31.1278 57.9067Z" fill="white"/>
<path d="M58.5886 51.5543H58.1562H57.6387L57.4462 51.9643L55.2909 56.3045C55.212 56.461 55.1363 56.6237 55.0605 56.7895C54.9879 56.9554 54.9154 57.1275 54.8491 57.3027C54.7828 57.1306 54.7134 56.9616 54.6408 56.7958C54.5651 56.6299 54.4925 56.4735 54.4136 56.3202L52.2362 51.933L52.0563 51.5543H51.5419H51.1127H50.0209V60.335H51.7786V55.2844C51.7786 55.1686 51.7754 55.0434 51.766 54.9026C51.7565 54.7649 51.747 54.6241 51.7313 54.4833L54.0191 59.005C54.0223 59.0113 54.0255 59.0144 54.0286 59.0176L54.24 59.4369H54.7986H54.9027H55.4613L55.6759 59.0113C55.6759 59.0082 55.679 59.0082 55.679 59.005L56.0924 58.1852L56.2281 57.9192L57.9574 54.4895C57.9322 54.7743 57.9196 55.0403 57.9196 55.2844V60.335H59.6741V51.5543H58.5886Z" fill="white"/>
<path d="M83.2345 57.2808C83.1493 57.1369 83.0452 57.0148 82.9316 56.9116C82.8148 56.8114 82.6917 56.727 82.556 56.6612C82.8337 56.5517 83.083 56.414 83.2945 56.2451C83.5091 56.0761 83.6921 55.8852 83.8373 55.6693C83.9856 55.4534 84.096 55.2218 84.1718 54.9683C84.2475 54.7149 84.2854 54.4457 84.2854 54.161C84.2854 53.7855 84.2222 53.4413 84.096 53.1221C83.9698 52.806 83.7678 52.5306 83.4901 52.2991C83.2124 52.0644 82.8558 51.8829 82.4172 51.7515C81.9786 51.6232 81.4484 51.5543 80.8267 51.5543H78.0339V60.335H80.0252V57.0868H80.5301C80.6847 57.0868 80.8015 57.1119 80.8867 57.1588C80.9719 57.2057 81.0445 57.2871 81.1076 57.3997L81.8681 58.761L81.8807 58.786L82.5308 59.9501C82.5434 59.9751 82.5624 59.9939 82.5813 60.0158L82.7643 60.3381H83.2534H83.3923H85.0553L83.2345 57.2808ZM80.8267 55.6818H80.0252V53.0783H80.8267C81.3411 53.0783 81.7229 53.1878 81.9691 53.4037C82.2152 53.6196 82.3383 53.9232 82.3383 54.3081C82.3383 54.4989 82.3099 54.6804 82.2562 54.8463C82.2026 55.0121 82.1111 55.1592 81.9912 55.2844C81.8713 55.4095 81.7135 55.5066 81.521 55.5785C81.3285 55.6474 81.0981 55.6818 80.8267 55.6818Z" fill="white"/>
<path d="M18.8268 35.4451V27.7159C13.3044 26.6269 9.18626 22.3305 9.18626 17.8963C9.18626 13.7094 13.1529 9.31284 18.8268 8.24264V0.513428C7.02778 1.61805 0.00640869 9.87923 0.00640869 17.9433C0.00640869 26.4266 7.5106 34.3123 18.8268 35.4451Z" fill="white"/>
<path d="M98.0001 35.4451V27.7159C92.4777 26.6269 88.3595 22.3305 88.3595 17.8963C88.3595 13.7094 92.3262 9.31284 98.0001 8.24264V0.513428C86.201 1.61492 79.1796 9.87611 79.1796 17.9402C79.1764 26.4266 86.6838 34.3123 98.0001 35.4451Z" fill="white"/>
<path d="M53.2335 28.6704C53.8583 27.3874 54.1802 26.0136 54.1802 24.546C54.1802 22.5527 53.5238 20.7534 52.2079 19.1387C50.892 17.5272 49.2794 16.3599 47.3608 15.634C45.4421 14.908 42.419 14.1914 38.285 13.4779C35.8141 13.0555 34.2268 12.5579 33.5262 11.9821C32.8257 11.4095 32.4754 10.7085 32.4754 9.88243C32.4754 7.80461 34.353 6.76571 38.1051 6.76571C40.4214 6.76571 42.2012 7.37278 43.4635 8.56815H53.082C50.8099 3.14205 45.6977 0.432129 37.7454 0.432129C33.258 0.432129 29.7015 1.48668 27.0823 3.59579C24.4599 5.70802 23.1503 8.29903 23.1503 11.3719C23.1503 14.4104 24.2485 16.7198 26.4448 18.3001C28.6381 19.8803 32.3144 21.1258 37.474 22.0364C40.2415 22.5277 42.1097 23.0503 43.0785 23.6073C44.0473 24.1643 44.5333 24.9497 44.5333 25.9636C44.5333 26.9618 44 27.8161 42.9333 28.5358C42.8544 28.589 42.7535 28.6266 42.6683 28.6735C42.6683 28.6735 41.5953 29.4339 37.941 29.4339C34.2867 29.4339 33.2106 28.6735 33.2106 28.6735C32.1219 28.154 31.2604 27.4218 30.6388 26.4705H21.0423C21.2695 27.2528 21.5598 27.9851 21.9101 28.6735C21.9101 28.6735 26.063 35.5265 37.9095 35.5265C49.7591 35.5265 53.2335 28.6704 53.2335 28.6704Z" fill="white"/>
<path d="M66.3706 27.935V0.432129H57.3674V35.514H65.2724H66.3706H79.1479V27.935H66.3706Z" fill="white"/>
<path d="M9.02194 44.1255C9.02194 44.3947 8.97776 44.645 8.88625 44.8766C8.79473 45.105 8.66851 45.3053 8.50441 45.4742C8.34031 45.6432 8.1415 45.7715 7.91114 45.8654C7.68077 45.9593 7.42201 46.0093 7.14431 46.0093C6.86345 46.0093 6.60784 45.9624 6.37432 45.8654C6.1408 45.7715 5.94514 45.6432 5.77789 45.4742C5.6138 45.3053 5.48441 45.1081 5.3929 44.8766C5.30454 44.645 5.2572 44.3947 5.2572 44.1255C5.2572 43.8564 5.30454 43.6061 5.3929 43.3745C5.48441 43.1461 5.61064 42.9458 5.77789 42.7768C5.94199 42.6079 6.1408 42.4764 6.37432 42.3857C6.60784 42.2918 6.86345 42.2449 7.14431 42.2449C7.42516 42.2449 7.68077 42.2918 7.91114 42.3888C8.1415 42.4827 8.34031 42.6141 8.50441 42.78C8.66851 42.9458 8.79473 43.1461 8.88625 43.3745C8.97776 43.603 9.02194 43.8533 9.02194 44.1255ZM8.31507 44.1255C8.31507 43.9221 8.28667 43.7406 8.23302 43.5811C8.17937 43.4215 8.10364 43.2838 7.9995 43.1743C7.89852 43.0616 7.77544 42.9771 7.63028 42.9145C7.48512 42.8551 7.32102 42.8269 7.14115 42.8269C6.95812 42.8269 6.79718 42.8551 6.65202 42.9145C6.50686 42.974 6.38378 43.0616 6.2828 43.1743C6.18182 43.2869 6.10293 43.4215 6.04613 43.5811C5.99248 43.7406 5.96408 43.9221 5.96408 44.1255C5.96408 44.3258 5.99248 44.5073 6.04613 44.6669C6.09977 44.8265 6.17866 44.9611 6.2828 45.0737C6.38378 45.1864 6.50686 45.2708 6.65202 45.3303C6.79718 45.3898 6.96128 45.421 7.14115 45.421C7.32102 45.421 7.48512 45.3898 7.63028 45.3303C7.77544 45.2708 7.89852 45.1864 7.9995 45.0737C8.10048 44.9642 8.17622 44.8265 8.23302 44.6669C8.28982 44.5073 8.31507 44.3258 8.31507 44.1255Z" fill="white"/>
<path d="M12.0798 44.526V45.9623H11.3887V42.2823H12.5216C12.7741 42.2823 12.9918 42.3074 13.1717 42.3606C13.3516 42.4106 13.4999 42.4857 13.6167 42.5796C13.7303 42.6735 13.8155 42.783 13.8723 42.9145C13.9259 43.0459 13.9512 43.1898 13.9512 43.3432C13.9512 43.4683 13.9322 43.5841 13.8944 43.6936C13.8565 43.8063 13.806 43.9033 13.7366 43.994C13.6671 44.0848 13.5819 44.163 13.481 44.2319C13.38 44.2976 13.2632 44.3539 13.1338 44.3946C13.2222 44.4446 13.2948 44.5135 13.361 44.6074L14.292 45.9655H13.4999L12.6289 44.6512C12.6005 44.6074 12.569 44.5761 12.5342 44.5573C12.4995 44.5385 12.449 44.5291 12.3796 44.5291H12.0798V44.526ZM12.0798 44.0347H12.509C12.6415 44.0347 12.752 44.0191 12.8498 43.9846C12.9476 43.9534 13.0265 43.9064 13.0897 43.8501C13.1528 43.7938 13.2001 43.7249 13.2285 43.6467C13.2601 43.5685 13.2727 43.4808 13.2727 43.387C13.2727 43.2023 13.2096 43.0553 13.0865 42.9551C12.9634 42.855 12.7741 42.8049 12.5185 42.8049H12.0767V44.0347H12.0798Z" fill="white"/>
<path d="M24.0241 42.2823V42.8268H22.38V43.847H23.6738V44.3727H22.38V45.4147H24.0241V45.9623H21.6826V42.2823H24.0241Z" fill="white"/>
<path d="M29.7169 44.1255C29.7169 44.3946 29.6728 44.6418 29.5813 44.8671C29.4897 45.0924 29.3635 45.2864 29.1994 45.4491C29.0353 45.6119 28.8365 45.737 28.6061 45.8278C28.3758 45.9185 28.1202 45.9623 27.8362 45.9623H26.4193V42.2823H27.8362C28.117 42.2823 28.3726 42.3293 28.6061 42.4169C28.8365 42.5077 29.0353 42.636 29.1994 42.7955C29.3635 42.9583 29.4897 43.1523 29.5813 43.3776C29.6696 43.606 29.7169 43.8532 29.7169 44.1255ZM29.0101 44.1255C29.0101 43.9221 28.9848 43.7406 28.928 43.581C28.8744 43.4214 28.7955 43.2837 28.6945 43.1742C28.5935 43.0647 28.4704 42.9802 28.3253 42.9207C28.1801 42.8613 28.016 42.83 27.8362 42.83H27.1167V45.421H27.8362C28.0192 45.421 28.1801 45.3897 28.3253 45.3302C28.4704 45.2708 28.5935 45.1863 28.6945 45.0736C28.7955 44.9641 28.8744 44.8264 28.928 44.6668C28.9848 44.5072 29.0101 44.3257 29.0101 44.1255Z" fill="white"/>
<path d="M35.615 44.1255C35.615 44.3947 35.5708 44.645 35.4793 44.8766C35.3878 45.105 35.2615 45.3053 35.0974 45.4742C34.9333 45.6432 34.7345 45.7715 34.5042 45.8654C34.2738 45.9593 34.0182 46.0093 33.7373 46.0093C33.4565 46.0093 33.2009 45.9624 32.9673 45.8654C32.737 45.7715 32.5382 45.6432 32.3709 45.4742C32.2068 45.3053 32.0774 45.1081 31.9859 44.8766C31.8944 44.645 31.8502 44.3947 31.8502 44.1255C31.8502 43.8564 31.8944 43.6061 31.9859 43.3745C32.0774 43.1461 32.2037 42.9458 32.3709 42.7768C32.535 42.6079 32.7338 42.4764 32.9673 42.3857C33.2009 42.2918 33.4565 42.2449 33.7373 42.2449C34.0182 42.2449 34.2738 42.2918 34.5042 42.3888C34.7377 42.4827 34.9333 42.6141 35.0974 42.78C35.2615 42.9458 35.3878 43.1461 35.4793 43.3745C35.5708 43.603 35.615 43.8533 35.615 44.1255ZM34.9081 44.1255C34.9081 43.9221 34.8797 43.7406 34.8292 43.5811C34.7755 43.4215 34.6967 43.2838 34.5957 43.1743C34.4947 43.0616 34.3716 42.9771 34.2265 42.9145C34.0813 42.8551 33.9204 42.8269 33.7373 42.8269C33.5575 42.8269 33.3934 42.8551 33.2482 42.9145C33.103 42.974 32.98 43.0616 32.8758 43.1743C32.7717 43.2869 32.6959 43.4215 32.6391 43.5811C32.5855 43.7406 32.5571 43.9221 32.5571 44.1255C32.5571 44.3258 32.5855 44.5073 32.6391 44.6669C32.6928 44.8265 32.7717 44.9611 32.8758 45.0737C32.9768 45.1864 33.103 45.2708 33.2482 45.3303C33.3934 45.3898 33.5575 45.421 33.7373 45.421C33.9204 45.421 34.0845 45.3898 34.2265 45.3303C34.3716 45.2708 34.4947 45.1864 34.5957 45.0737C34.6967 44.9642 34.7724 44.8265 34.8292 44.6669C34.8797 44.5073 34.9081 44.3258 34.9081 44.1255Z" fill="white"/>
<path d="M46.379 45.9623H45.8457C45.7857 45.9623 45.6721 45.9623 45.6721 45.9623L45.3376 45.058H43.8008L43.4632 45.9623C43.4632 45.9623 43.3527 45.9623 43.2928 45.9623H42.7563L44.2142 42.2823H44.9211L46.379 45.9623ZM43.9744 44.573H45.1578L44.7065 43.3494C44.6876 43.2931 44.6623 43.2305 44.6371 43.1554C44.6118 43.0834 44.5897 43.0021 44.5645 42.9145C44.5392 43.0021 44.5172 43.0803 44.4951 43.1554C44.473 43.2305 44.4509 43.2962 44.4288 43.3525L43.9744 44.573Z" fill="white"/>
<path d="M54.6406 44.1255C54.6406 44.3946 54.5964 44.6418 54.5049 44.8671C54.4134 45.0924 54.2872 45.2864 54.1231 45.4491C53.959 45.6119 53.7602 45.737 53.5298 45.8278C53.2994 45.9185 53.0438 45.9623 52.763 45.9623H51.3461V42.2823H52.763C53.0438 42.2823 53.2994 42.3293 53.5298 42.4169C53.7602 42.5077 53.959 42.636 54.1231 42.7955C54.2872 42.9583 54.4134 43.1523 54.5049 43.3776C54.5964 43.606 54.6406 43.8532 54.6406 44.1255ZM53.9369 44.1255C53.9369 43.9221 53.9085 43.7406 53.8548 43.581C53.8012 43.4214 53.7223 43.2837 53.6213 43.1742C53.5203 43.0647 53.3973 42.9802 53.2521 42.9207C53.1069 42.8613 52.946 42.83 52.763 42.83H52.0435V45.421H52.763C52.946 45.421 53.1069 45.3897 53.2521 45.3302C53.3973 45.2708 53.5203 45.1863 53.6213 45.0736C53.7223 44.9641 53.8012 44.8264 53.8548 44.6668C53.9085 44.5072 53.9369 44.3257 53.9369 44.1255Z" fill="white"/>
<path d="M59.3205 42.2823V42.8268H57.6764V43.847H58.9703V44.3727H57.6764V45.4147H59.3205V45.9623H56.9822V42.2823H59.3205Z" fill="white"/>
<path d="M71.3974 42.2823V42.8268H69.7502V43.847H71.0471V44.3727H69.7502V45.4147H71.3974V45.9623H69.0559V42.2823H71.3974Z" fill="white"/>
<path d="M80.795 45.4118C80.9275 45.4118 81.0474 45.3898 81.1547 45.346C81.2589 45.3022 81.3504 45.2396 81.423 45.1614C81.4955 45.0801 81.5523 44.983 81.5902 44.8704C81.6281 44.7577 81.6502 44.6294 81.6502 44.4886V42.2856H82.3413V44.4886C82.3413 44.7108 82.3066 44.9111 82.234 45.0988C82.1645 45.2835 82.0604 45.443 81.9279 45.5776C81.7953 45.7122 81.6312 45.8186 81.4419 45.8937C81.2525 45.9688 81.038 46.0063 80.7981 46.0063C80.5583 46.0063 80.3469 45.9656 80.1575 45.8937C79.9682 45.8186 79.8072 45.7122 79.6715 45.5776C79.539 45.443 79.438 45.2835 79.3686 45.0988C79.296 44.9111 79.2613 44.7108 79.2613 44.4886V42.2856H79.9524V44.4855C79.9524 44.6263 79.9713 44.7546 80.0092 44.8673C80.0471 44.9799 80.1039 45.0769 80.1765 45.1583C80.2459 45.2396 80.3374 45.3022 80.4415 45.346C80.5425 45.3898 80.6624 45.4118 80.795 45.4118Z" fill="white"/>
<path d="M93.4334 44.1255C93.4334 44.3947 93.3892 44.645 93.2977 44.8766C93.2062 45.105 93.08 45.3053 92.9159 45.4742C92.7518 45.6432 92.553 45.7715 92.3226 45.8654C92.0923 45.9593 91.8367 46.0093 91.5558 46.0093C91.275 46.0093 91.0194 45.9624 90.7859 45.8654C90.5555 45.7715 90.3567 45.6432 90.1895 45.4742C90.0254 45.3053 89.896 45.1081 89.8076 44.8766C89.7161 44.645 89.6719 44.3947 89.6719 44.1255C89.6719 43.8564 89.7161 43.6061 89.8076 43.3745C89.896 43.1461 90.0254 42.9458 90.1895 42.7768C90.3535 42.6079 90.5523 42.4764 90.7859 42.3857C91.0162 42.2918 91.275 42.2449 91.5558 42.2449C91.8367 42.2449 92.0923 42.2918 92.3226 42.3888C92.553 42.4827 92.7518 42.6141 92.9159 42.78C93.08 42.9458 93.2062 43.1461 93.2977 43.3745C93.3861 43.603 93.4334 43.8533 93.4334 44.1255ZM92.7234 44.1255C92.7234 43.9221 92.6982 43.7406 92.6445 43.5811C92.5909 43.4215 92.512 43.2838 92.411 43.1743C92.31 43.0616 92.187 42.9771 92.0418 42.9145C91.8966 42.8551 91.7357 42.8269 91.5527 42.8269C91.3696 42.8269 91.2087 42.8551 91.0636 42.9145C90.9184 42.974 90.7953 43.0616 90.6912 43.1743C90.5902 43.2869 90.5113 43.4215 90.4577 43.5811C90.404 43.7406 90.3756 43.9221 90.3756 44.1255C90.3756 44.3258 90.404 44.5073 90.4577 44.6669C90.5113 44.8265 90.5902 44.961 90.6912 45.0737C90.7922 45.1864 90.9152 45.2708 91.0636 45.3303C91.2087 45.3898 91.3728 45.421 91.5527 45.421C91.7357 45.421 91.8966 45.3898 92.0418 45.3303C92.187 45.2708 92.31 45.1864 92.411 45.0737C92.512 44.9642 92.5877 44.8265 92.6445 44.6669C92.6982 44.5073 92.7234 44.3258 92.7234 44.1255Z" fill="white"/>
<path d="M2.66009 45.1457C2.60329 45.1957 2.54649 45.2396 2.48969 45.274C2.43288 45.3084 2.36977 45.3397 2.30666 45.3585C2.24354 45.3804 2.17096 45.396 2.09523 45.4085C2.01949 45.4179 1.93429 45.4242 1.83961 45.4242C1.68183 45.4242 1.53351 45.396 1.39782 45.3366C1.26212 45.2771 1.14221 45.1926 1.04122 45.0831C0.940243 44.9736 0.86135 44.8359 0.801392 44.6763C0.741434 44.5167 0.709877 44.3289 0.709877 44.1255C0.709877 43.9221 0.741434 43.7438 0.801392 43.5842C0.858195 43.4246 0.940243 43.2869 1.04754 43.1743C1.15167 43.0616 1.2779 42.9771 1.42622 42.9177C1.57138 42.8551 1.73548 42.8269 1.90904 42.8269C2.05736 42.8269 2.18043 42.8426 2.27826 42.8739C2.37293 42.9051 2.45497 42.9364 2.51809 42.974C2.5812 43.0084 2.63169 43.0428 2.67587 43.0741L2.82103 43.2056L3.17132 42.7236C3.02615 42.5797 2.84944 42.4639 2.64116 42.3763C2.43288 42.2887 2.19305 42.2449 1.91851 42.2449C1.63765 42.2449 1.37888 42.2887 1.14536 42.3826C0.911841 42.4764 0.709877 42.6047 0.545781 42.7706C0.37853 42.9364 0.24599 43.1336 0.154475 43.3651C0.0598047 43.5967 0.015625 43.847 0.015625 44.1255C0.015625 44.3978 0.056649 44.6481 0.138697 44.8797C0.220745 45.1113 0.340661 45.3115 0.498446 45.4742C0.653075 45.6401 0.842416 45.7715 1.06016 45.8623C1.28106 45.9561 1.5272 46.0031 1.8049 46.0031C2.111 46.0031 2.37608 45.953 2.59698 45.856C2.81788 45.759 3.00406 45.6151 3.15238 45.4304L2.79263 45.0299L2.66009 45.1457Z" fill="white"/>
<path d="M17.2394 44.5263V45.9626H16.5483V42.2826H17.6812C17.9337 42.2826 18.1514 42.3076 18.3313 42.3608C18.5112 42.4109 18.6595 42.486 18.7763 42.5799C18.8899 42.6737 18.9751 42.7833 19.0319 42.9147C19.0855 43.0461 19.1108 43.1901 19.1108 43.3434C19.1108 43.4686 19.0918 43.5844 19.054 43.6939C19.0161 43.8065 18.9656 43.9035 18.8962 43.9943C18.8267 44.085 18.7415 44.1633 18.6406 44.2321C18.5396 44.2978 18.4228 44.3541 18.2934 44.3948C18.3818 44.4449 18.4544 44.5137 18.5175 44.6076L19.4484 45.9657H18.6563L17.7885 44.6514C17.7601 44.6076 17.7286 44.5763 17.6907 44.5575C17.656 44.5388 17.6055 44.5294 17.5361 44.5294H17.2394V44.5263ZM17.2394 44.035H17.6718C17.8043 44.035 17.9148 44.0193 18.0126 43.9849C18.1104 43.9536 18.1893 43.9067 18.2493 43.8503C18.3124 43.794 18.3597 43.7252 18.3881 43.6469C18.4197 43.5687 18.4323 43.4811 18.4323 43.3872C18.4323 43.2026 18.3692 43.0555 18.2461 42.9554C18.123 42.8552 17.9337 42.8052 17.6781 42.8052H17.2363V44.035H17.2394Z" fill="white"/>
<path d="M38.6697 44.5293V45.9656H37.9786V42.2856H39.1115C39.3639 42.2856 39.5817 42.3107 39.7615 42.3639C39.9414 42.4139 40.0897 42.489 40.2065 42.5829C40.3201 42.6737 40.4053 42.7863 40.459 42.9178C40.5126 43.0492 40.541 43.1931 40.541 43.3465C40.541 43.4716 40.5221 43.5874 40.4874 43.6969C40.4495 43.8096 40.399 43.9066 40.3264 43.9973C40.257 44.0881 40.1718 44.1663 40.0708 44.2352C39.9698 44.3009 39.8531 44.3572 39.7237 44.3979C39.812 44.4479 39.8846 44.5168 39.9477 44.6107L40.8787 45.9688H40.0866L39.2156 44.6545C39.1872 44.6107 39.1556 44.5794 39.1178 44.5606C39.0831 44.5418 39.0326 44.5324 38.9632 44.5324H38.6697V44.5293ZM38.6697 44.0349H39.0988C39.2314 44.0349 39.3418 44.0192 39.4397 43.9848C39.5375 43.9535 39.6164 43.9066 39.6795 43.8503C39.7426 43.7939 39.7868 43.7251 39.8183 43.6469C39.8499 43.5686 39.8657 43.481 39.8657 43.3871C39.8657 43.2025 39.8026 43.0554 39.6795 42.9553C39.5564 42.8552 39.3671 42.8051 39.1115 42.8051H38.6697V44.0349Z" fill="white"/>
<path d="M85.5474 44.5293V45.9656H84.8563V42.2856H85.9892C86.2417 42.2856 86.4594 42.3107 86.6393 42.3639C86.8192 42.4139 86.9675 42.489 87.0842 42.5829C87.1978 42.6737 87.283 42.7863 87.3398 42.9178C87.3935 43.0492 87.4187 43.1931 87.4187 43.3465C87.4187 43.4716 87.3998 43.5874 87.3619 43.6969C87.3241 43.8096 87.2736 43.9066 87.2042 43.9973C87.1347 44.0881 87.0495 44.1663 86.9485 44.2352C86.8476 44.3009 86.7308 44.3572 86.6014 44.3979C86.6898 44.4479 86.7624 44.5168 86.8255 44.6107L87.7564 45.9688H86.9643L86.0965 44.6545C86.0681 44.6107 86.0366 44.5794 86.0018 44.5606C85.9671 44.5418 85.9135 44.5324 85.8472 44.5324H85.5474V44.5293ZM85.5474 44.0349H85.9766C86.1091 44.0349 86.2196 44.0192 86.3174 43.9848C86.4121 43.9535 86.4941 43.9066 86.5572 43.8503C86.6204 43.7939 86.6645 43.7251 86.6961 43.6469C86.7277 43.5686 86.7434 43.481 86.7434 43.3871C86.7434 43.2025 86.6803 43.0554 86.5572 42.9553C86.4342 42.8552 86.2448 42.8051 85.9892 42.8051H85.5474V44.0349Z" fill="white"/>
<path d="M75.626 44.1194V44.6357H76.235V45.3053C76.1309 45.3554 76.0204 45.393 75.9068 45.4211C75.7901 45.4462 75.6544 45.4618 75.4998 45.4618C75.323 45.4618 75.1589 45.4305 75.0106 45.371C74.8623 45.3116 74.7329 45.224 74.6256 45.1082C74.5183 44.9955 74.4331 44.8547 74.3732 44.6889C74.3132 44.523 74.2848 44.3353 74.2848 44.1225C74.2848 43.9253 74.3132 43.747 74.37 43.5874C74.4268 43.4278 74.5057 43.2901 74.6098 43.1775C74.714 43.0648 74.8402 42.9772 74.9885 42.9146C75.1369 42.852 75.3009 42.8207 75.4871 42.8207C75.6007 42.8207 75.6986 42.8301 75.7838 42.8426C75.8721 42.8583 75.9479 42.877 76.0173 42.9021C76.0867 42.924 76.1498 42.9553 76.2066 42.9834C76.2634 43.0179 76.3202 43.0492 76.377 43.0804L76.5632 43.2025L76.8599 42.7143C76.7052 42.5704 76.519 42.4546 76.2981 42.367C76.0772 42.2762 75.8153 42.2324 75.5092 42.2324C75.2157 42.2324 74.9475 42.2762 74.7077 42.3701C74.471 42.4609 74.269 42.5892 74.1018 42.755C73.9345 42.924 73.8051 43.1211 73.7136 43.3527C73.6221 43.5843 73.5779 43.8377 73.5779 44.1131C73.5779 44.3853 73.6253 44.6357 73.7168 44.8672C73.8083 45.0988 73.9408 45.2991 74.1049 45.4618C74.2722 45.6276 74.4678 45.7591 74.6951 45.8498C74.9223 45.9437 75.1716 45.9906 75.443 45.9906C75.5944 45.9906 75.7364 45.9812 75.869 45.9656C75.9984 45.95 76.1246 45.9249 76.2382 45.8936C76.3549 45.8623 76.4622 45.8217 76.5632 45.7716C76.6642 45.7215 76.762 45.6621 76.8567 45.5932V44.1037H75.626V44.1194Z" fill="white"/>
<path d="M66.6575 44.4229C66.607 44.3165 66.5439 44.2258 66.465 44.1507C66.383 44.0756 66.2914 44.0161 66.1905 43.9661C66.0895 43.9191 65.9822 43.8753 65.8781 43.8378C65.7708 43.8002 65.6666 43.7658 65.5625 43.7345C65.4583 43.7032 65.3668 43.6657 65.2879 43.625C65.209 43.5843 65.1428 43.5342 65.0923 43.4779C65.0418 43.4184 65.0197 43.3496 65.0197 43.262C65.0197 43.1931 65.0323 43.1306 65.0544 43.0742C65.0797 43.0179 65.1144 42.9678 65.1649 42.9272C65.2154 42.8865 65.2753 42.8552 65.3447 42.8333C65.4142 42.8114 65.4994 42.7989 65.594 42.7989C65.7013 42.7989 65.7929 42.8114 65.8717 42.8364C65.9475 42.8646 66.0169 42.8927 66.0737 42.924C66.1337 42.9584 66.1842 42.9866 66.2252 43.0117C66.2346 43.0179 66.241 43.0179 66.2504 43.0242L66.4082 43.1399L66.667 42.6236C66.5376 42.5016 66.3798 42.4077 66.1936 42.3389C66.0106 42.27 65.8086 42.2356 65.5877 42.2356C65.3952 42.2356 65.2217 42.2638 65.0702 42.3232C64.9187 42.3827 64.7925 42.4609 64.6884 42.561C64.5842 42.658 64.5053 42.7707 64.4517 42.899C64.398 43.0242 64.3728 43.1556 64.3728 43.2902C64.3728 43.4591 64.398 43.5999 64.4454 43.7157C64.4927 43.8284 64.559 43.9254 64.6379 44.0005C64.7199 44.0787 64.8114 44.1382 64.9124 44.1882C65.0165 44.2352 65.1207 44.2759 65.2248 44.3103C65.3321 44.3447 65.4363 44.376 65.5372 44.4073C65.6414 44.4355 65.7329 44.4699 65.8118 44.5106C65.8907 44.5544 65.9569 44.6044 66.0043 44.6639C66.0516 44.7265 66.0769 44.8016 66.0769 44.8986C66.0769 45.0707 66.0232 45.2021 65.9159 45.296C65.8086 45.3867 65.6572 45.4337 65.4583 45.4337C65.3321 45.4337 65.2217 45.4149 65.1302 45.3805C65.0386 45.3461 64.9597 45.3054 64.8903 45.2647C64.8241 45.2209 64.7641 45.1833 64.7168 45.1489C64.7104 45.1458 64.7041 45.1427 64.6978 45.1395L64.5243 45.0112L64.2213 45.5119C64.2939 45.587 64.3728 45.6527 64.4675 45.7122C64.559 45.7716 64.6568 45.8217 64.7641 45.8624C64.8682 45.9062 64.9787 45.9375 65.0954 45.9625C65.2122 45.9844 65.3258 45.9969 65.4457 45.9969C65.6508 45.9969 65.8339 45.9656 65.9917 45.9031C66.1526 45.8405 66.2851 45.756 66.3956 45.6496C66.506 45.5401 66.5881 45.4149 66.648 45.271C66.7048 45.127 66.7332 44.9705 66.7332 44.8016C66.7301 44.6576 66.7048 44.5293 66.6575 44.4229Z" fill="white"/>
<path d="M97.9273 44.4229C97.8768 44.3165 97.8136 44.2258 97.7348 44.1507C97.6527 44.0756 97.5644 44.0161 97.4602 43.9661C97.3592 43.9191 97.2519 43.8753 97.1446 43.8378C97.0374 43.8002 96.9332 43.7658 96.8291 43.7345C96.7249 43.7032 96.6334 43.6657 96.5545 43.625C96.4756 43.5843 96.4094 43.5342 96.362 43.4779C96.3115 43.4184 96.2895 43.3496 96.2895 43.262C96.2895 43.1931 96.3021 43.1306 96.3242 43.0742C96.3494 43.0179 96.3841 42.9678 96.4315 42.9272C96.482 42.8865 96.5388 42.8552 96.6113 42.8333C96.6808 42.8114 96.766 42.7989 96.8606 42.7989C96.9679 42.7989 97.0594 42.8114 97.1383 42.8364C97.2141 42.8646 97.2835 42.8927 97.3403 42.924C97.4003 42.9584 97.4507 42.9866 97.4918 43.0117C97.5012 43.0179 97.5075 43.0179 97.517 43.0242L97.6748 43.1399L97.9336 42.6236C97.8042 42.5016 97.6464 42.4077 97.4602 42.3389C97.2772 42.27 97.0752 42.2356 96.8543 42.2356C96.6587 42.2356 96.4883 42.2638 96.3368 42.3232C96.1853 42.3827 96.0591 42.4609 95.955 42.561C95.8508 42.658 95.7719 42.7707 95.7183 42.899C95.6646 43.0242 95.6394 43.1556 95.6394 43.2902C95.6394 43.4591 95.6646 43.5999 95.712 43.7157C95.7593 43.8284 95.8256 43.9254 95.9045 44.0005C95.9834 44.0787 96.078 44.1382 96.179 44.1882C96.2831 44.2352 96.3873 44.2759 96.4914 44.3103C96.5987 44.3447 96.7029 44.376 96.8038 44.4073C96.908 44.4355 96.9995 44.4699 97.0784 44.5106C97.1573 44.5544 97.2235 44.6044 97.2709 44.6639C97.3182 44.7265 97.3435 44.8016 97.3435 44.8986C97.3435 45.0707 97.2898 45.2021 97.1825 45.296C97.0752 45.3867 96.9238 45.4337 96.7249 45.4337C96.5987 45.4337 96.4883 45.4149 96.3968 45.3805C96.3052 45.3461 96.2263 45.3054 96.1569 45.2647C96.0906 45.2209 96.0307 45.1833 95.9834 45.1489C95.977 45.1458 95.9707 45.1427 95.9644 45.1395L95.7909 45.0112L95.4879 45.5119C95.5605 45.587 95.6394 45.6527 95.7341 45.7122C95.8256 45.7716 95.9234 45.8217 96.0275 45.8624C96.1317 45.9062 96.2421 45.9375 96.3589 45.9625C96.4725 45.9844 96.5892 45.9969 96.7092 45.9969C96.9143 45.9969 97.0973 45.9656 97.2551 45.9031C97.416 45.8405 97.5486 45.756 97.6622 45.6496C97.7726 45.5401 97.8547 45.4149 97.9115 45.271C97.9683 45.127 97.9967 44.9705 97.9967 44.8016C97.9998 44.6576 97.9746 44.5293 97.9273 44.4229Z" fill="white"/>
</svg>
