<svg width="60" height="60" viewBox="0 0 60 60" fill="none" xmlns="http://www.w3.org/2000/svg">
<path d="M32.225 27.75C27.775 26.275 25.625 25.35 25.625 23C25.625 20.45 28.4 19.525 30.15 19.525C33.425 19.525 34.625 22 34.9 22.875L38.85 21.2C38.475 20.075 36.8 16.4 32.5 15.6V12.5H27.5V15.65C21.3 17.05 21.275 22.8 21.275 23.05C21.275 28.725 26.9 30.325 29.65 31.325C33.6 32.725 35.35 34 35.35 36.4C35.35 39.225 32.725 40.425 30.4 40.425C25.85 40.425 24.55 35.75 24.4 35.2L20.25 36.875C21.825 42.35 25.95 43.825 27.5 44.275V47.5H32.5V44.4C33.5 44.175 39.75 42.925 39.75 36.35C39.75 32.875 38.225 29.825 32.225 27.75ZM7.5 52.5H2.5V37.5H17.5V42.5H11.3C15.325 48.525 22.2 52.5 30 52.5C42.425 52.5 52.5 42.425 52.5 30H57.5C57.5 45.2 45.2 57.5 30 57.5C20.7 57.5 12.475 52.875 7.5 45.825V52.5ZM2.5 30C2.5 14.8 14.8 2.5 30 2.5C39.3 2.5 47.525 7.125 52.5 14.175V7.5H57.5V22.5H42.5V17.5H48.7C44.675 11.475 37.8 7.5 30 7.5C17.575 7.5 7.5 17.575 7.5 30H2.5Z" fill="black"/>
</svg>
