<svg width="48" height="50" viewBox="0 0 48 50" fill="none" xmlns="http://www.w3.org/2000/svg">
<path d="M26.4649 0V4.96381C37.0751 6.30403 44.5916 16.2068 43.2865 27.1024C42.1747 36.1365 35.2624 43.2596 26.4649 44.3764V49.3402C39.7578 47.8511 49.3046 35.5905 47.8544 21.9648C46.5976 10.3992 37.7277 1.24095 26.4649 0ZM21.6312 0C16.8941 0.446743 12.4228 2.35781 8.74914 5.46019L12.2053 9.28232C14.9122 7.0486 18.175 5.6091 21.6312 5.11272V0.148914V0ZM5.34133 9.10858C2.29605 12.8811 0.459209 17.4726 0 22.3371H4.83378C5.29299 18.8128 6.64645 15.4623 8.79748 12.6577L5.34133 9.10858ZM0.0241689 27.3009C0.507547 32.1655 2.36855 36.757 5.3655 40.5295L8.79748 36.9804C6.67062 34.1758 5.29299 30.8252 4.85795 27.3009H0.0241689ZM12.1086 40.6288L8.74914 44.029C12.3986 47.1562 16.8941 49.1169 21.6312 49.6381V44.6743C18.1992 44.2275 14.9364 42.8128 12.2053 40.6288H12.1086ZM26.4649 27.3009V12.4095H21.6312V27.3009H26.4649ZM26.4649 37.2285V32.2647H21.6312V37.2285H26.4649Z" fill="#0092C6"/>
</svg>
