<?xml version="1.0" encoding="utf-8"?>
<!-- Generator: Adobe Illustrator 23.0.3, SVG Export Plug-In . SVG Version: 6.00 Build 0)  -->
<svg version="1.1" id="Capa_1" xmlns="http://www.w3.org/2000/svg" xmlns:xlink="http://www.w3.org/1999/xlink" x="0px" y="0px"
	 viewBox="0 0 500 500" style="enable-background:new 0 0 500 500;" xml:space="preserve">
<style type="text/css">
	.st0{fill:#FCB70D;}
	.st1{fill:#0093C9;}
	.st2{fill:#FFFFFF;}
	.st3{fill:#FFFFFF;stroke:#0093C9;stroke-width:2;stroke-miterlimit:10;}
	.st4{fill:#626262;}
	.st5{fill:#CDDBFD;}
</style>
<g id="Social_insurance">
	<path class="st0" d="M34.5,385.6c13.3,32.2,44.4,47.5,64.2,57.2c78.3,38.4,212.5,35.4,298-34.6c20-16.4,103.3-103.4,80.2-219.6
		C456.6,85.9,354.4,26.2,268.3,18.2C197,11.6,104,37.5,71.1,100.1c-20.7,39.4,4.2,51.9-12.6,141.2C43.9,318.6,18.3,346.2,34.5,385.6
		z"/>
	<g>
		<g>
			<path d="M456.7,261.8c-0.1,0-0.1,0-0.2,0c-0.4-0.1-0.7-0.5-0.6-1c6.8-28.9,6.3-60.2-1.6-90.4c-0.1-0.4,0.1-0.9,0.6-1
				c0.4-0.1,0.9,0.1,1,0.6c8,30.5,8.5,62,1.6,91.2C457.4,261.5,457,261.8,456.7,261.8z"/>
			<path d="M468.6,255.4c-0.1,0-0.1,0-0.2,0c-0.4-0.1-0.7-0.5-0.7-1c4.6-24.7,4.3-50.2-1-75.9c-0.1-0.4,0.2-0.9,0.6-1
				c0.4-0.1,0.9,0.2,1,0.6c5.3,25.9,5.7,51.7,1,76.6C469.3,255.2,469,255.4,468.6,255.4z"/>
		</g>
		<g>
			<path d="M322,51.4c-0.5,0-0.8-0.4-0.8-0.8v-4.2c0-0.5,0.4-0.8,0.8-0.8s0.8,0.4,0.8,0.8v4.2C322.8,51.1,322.4,51.4,322,51.4z"/>
			<path d="M322,61.3c-0.5,0-0.8-0.4-0.8-0.8v-4.2c0-0.5,0.4-0.8,0.8-0.8s0.8,0.4,0.8,0.8v4.2C322.8,60.9,322.4,61.3,322,61.3z"/>
			<path d="M319.2,54.2h-4.2c-0.5,0-0.8-0.4-0.8-0.8c0-0.5,0.4-0.8,0.8-0.8h4.2c0.5,0,0.8,0.4,0.8,0.8
				C320,53.9,319.6,54.2,319.2,54.2z"/>
			<path d="M329,54.2h-4.2c-0.5,0-0.8-0.4-0.8-0.8c0-0.5,0.4-0.8,0.8-0.8h4.2c0.5,0,0.8,0.4,0.8,0.8C329.8,53.9,329.5,54.2,329,54.2
				z"/>
		</g>
		<g>
			<path d="M69.1,272.6c-0.5,0-0.8-0.4-0.8-0.8v-4.2c0-0.5,0.4-0.8,0.8-0.8c0.5,0,0.8,0.4,0.8,0.8v4.2
				C69.9,272.2,69.5,272.6,69.1,272.6z"/>
			<path d="M69.1,282.4c-0.5,0-0.8-0.4-0.8-0.8v-4.2c0-0.5,0.4-0.8,0.8-0.8c0.5,0,0.8,0.4,0.8,0.8v4.2
				C69.9,282.1,69.5,282.4,69.1,282.4z"/>
			<path d="M66.3,275.4H62c-0.5,0-0.8-0.4-0.8-0.8c0-0.5,0.4-0.8,0.8-0.8h4.2c0.5,0,0.8,0.4,0.8,0.8C67.1,275,66.7,275.4,66.3,275.4
				z"/>
			<path d="M76.1,275.4h-4.2c-0.5,0-0.8-0.4-0.8-0.8c0-0.5,0.4-0.8,0.8-0.8h4.2c0.5,0,0.8,0.4,0.8,0.8
				C76.9,275,76.6,275.4,76.1,275.4z"/>
		</g>
		<g>
			<path d="M74.8,46.1c-0.5,0-0.8-0.4-0.8-0.8V41c0-0.5,0.4-0.8,0.8-0.8s0.8,0.4,0.8,0.8v4.2C75.6,45.7,75.2,46.1,74.8,46.1z"/>
			<path d="M74.8,55.9c-0.5,0-0.8-0.4-0.8-0.8v-4.2c0-0.5,0.4-0.8,0.8-0.8s0.8,0.4,0.8,0.8v4.2C75.6,55.5,75.2,55.9,74.8,55.9z"/>
			<path d="M72,48.9h-4.2c-0.5,0-0.8-0.4-0.8-0.8c0-0.5,0.4-0.8,0.8-0.8H72c0.5,0,0.8,0.4,0.8,0.8C72.8,48.5,72.4,48.9,72,48.9z"/>
			<path d="M81.8,48.9h-4.2c-0.5,0-0.8-0.4-0.8-0.8c0-0.5,0.4-0.8,0.8-0.8h4.2c0.5,0,0.8,0.4,0.8,0.8C82.7,48.5,82.3,48.9,81.8,48.9
				z"/>
		</g>
		<path d="M61.8,69.8c-0.4,0-0.9-0.1-1.3-0.2c-0.9-0.4-1.6-1.1-2-2c-0.8-1.9,0-4,1.9-4.9h0c0.9-0.4,1.9-0.4,2.8-0.1
			c0.9,0.4,1.6,1.1,2,2c0.8,1.9,0,4-1.9,4.9C62.8,69.7,62.3,69.8,61.8,69.8z M61.8,64.1c-0.3,0-0.5,0.1-0.8,0.2h0
			c-1,0.5-1.5,1.7-1,2.7c0.2,0.5,0.6,0.9,1.1,1.1c0.5,0.2,1,0.2,1.5,0c1-0.5,1.5-1.7,1-2.7c-0.2-0.5-0.6-0.9-1.1-1.1
			C62.3,64.1,62.1,64.1,61.8,64.1z M60.7,63.5L60.7,63.5L60.7,63.5z"/>
	</g>
	<g>
		<g>
			<g>
				<path class="st1" d="M352.5,66.3l17.1-9.1c13.9-7.4,26.7-16.6,38.2-27.3l0.6-5.3c0,0,5.9-0.1,7.2-0.2c1.6-0.1,3.3,0.4,4.6,1.6
					l0,0c13.7,12.4,29,22.7,45.6,30.6l11.7,5.6c2.7,1.3,3.8,3.7,3.2,7.3L468.9,133c-5.6,17.9-30.6,42.3-44.8,55
					c-2.6,2.3-5.8,3.5-9.1,3.6c-1.4,0-7.4,0.4-7.4,0.4s-1.4-2.5-3.2-4.1c-13.9-13.1-38.4-38.3-44.2-58.6l-10.6-56.2
					C348.9,70.4,350.1,67.6,352.5,66.3z"/>
				<path class="st2" d="M345.9,66.9l16.9-9c13.8-7.4,26.5-16.5,37.9-27.1l4.3-4c2.2-2.1,5.7-2.1,8,0l0,0
					c13.6,12.3,28.8,22.5,45.2,30.4l11.6,5.6c2.7,1.3,4.1,4.4,3.2,7.2L461.3,133c-5.6,17.7-30.7,42.2-44.7,54.8
					c-5.4,4.9-13.8,4.7-19.2-0.4c-13.8-13-38.1-38-43.8-58.1l-10.5-55.8C342.3,70.9,343.5,68.2,345.9,66.9z"/>
				<path class="st1" d="M356.9,74l14-7.5c11.4-6.1,21.9-13.6,31.4-22.4l3.5-3.3c1.8-1.7,4.7-1.7,6.6,0h0
					c11.2,10.2,23.8,18.6,37.5,25.2l9.6,4.6c2.2,1.1,3.4,3.6,2.6,6l-9.7,52.2c-4.6,14.7-25.4,34.9-37,45.4
					c-4.5,4.1-11.4,3.9-15.9-0.3c-11.4-10.7-31.6-31.5-36.3-48.1l-8.7-46.2C354,77.4,354.9,75.1,356.9,74z"/>
				<path d="M407.3,192.2c-3.8,0-7.5-1.4-10.5-4.1c-2.1-1.9-2.8-2.7-3.8-3.9c-0.8-0.9-1.8-2-3.7-4.1c-0.3-0.3-0.3-0.8,0-1.2
					c0.3-0.3,0.8-0.3,1.2,0c2,2.1,3,3.2,3.8,4.1c1,1.2,1.7,1.9,3.7,3.8c5.1,4.8,13,4.9,18.1,0.4c14.2-12.8,38.9-37,44.4-54.4
					l11.7-63c0,0,0-0.1,0-0.1c0.8-2.4-0.4-5.1-2.7-6.2l-11.6-5.6c-16.5-7.9-31.8-18.2-45.4-30.5c-2-1.8-5-1.8-6.9,0l-4.3,4
					C389.8,42,377,51.2,363.2,58.5l-16.9,9c-2.1,1.1-3.1,3.5-2.4,5.8c0,0,0,0,0,0.1l10.5,55.7c1.4,4.9,4,10.4,7.7,16.4
					c0.2,0.4,0.1,0.9-0.3,1.1c-0.4,0.2-0.9,0.1-1.1-0.3c-3.9-6.1-6.5-11.8-7.9-16.8c0,0,0,0,0-0.1l-10.5-55.7
					c-0.8-3,0.5-6.2,3.2-7.6l16.9-9c13.7-7.3,26.4-16.4,37.7-27l4.3-4c2.6-2.4,6.5-2.4,9.1,0c13.5,12.2,28.7,22.4,45,30.3l11.6,5.6
					c3,1.5,4.6,4.9,3.6,8.1l-11.7,63c0,0,0,0.1,0,0.1c-5.6,17.8-30.6,42.2-44.9,55.2C414.4,191,410.9,192.2,407.3,192.2z"/>
			</g>
		</g>
		<g>
			<g>
				
					<ellipse transform="matrix(0.7036 -0.7106 0.7106 0.7036 51.0039 320.9766)" class="st2" cx="410.3" cy="99.3" rx="21.6" ry="22"/>
				<path d="M410.8,122c-0.7,0-1.3,0-2-0.1c-12.5-1.1-21.9-12.1-21.1-24.5c0.4-6,3.1-11.5,7.7-15.4c4.6-3.9,10.4-5.8,16.5-5.3
					c12.5,1.1,21.9,12.1,21.1,24.5l0,0c-0.4,6-3.1,11.5-7.7,15.4C421.2,120.1,416.1,122,410.8,122z M409.8,78.3
					c-4.9,0-9.6,1.7-13.4,4.9c-4.2,3.6-6.7,8.7-7.1,14.2c-0.8,11.6,8,21.8,19.6,22.8c5.6,0.5,11-1.2,15.3-4.9
					c4.2-3.6,6.7-8.7,7.1-14.2c0.8-11.6-8-21.8-19.6-22.8C411.1,78.4,410.4,78.3,409.8,78.3z"/>
			</g>
			<path class="st1" d="M421.3,84.7c-3.6,7.1-7.5,18-11.5,30.2c-0.2,0.5-0.8,0.5-1,0.1l-10.4-20.2c-0.1-0.3,0.2-0.5,0.4-0.3l8.5,7.7
				l13.6-17.7C421.1,84.2,421.5,84.4,421.3,84.7z"/>
		</g>
	</g>
	<g>
		<g>
			<path class="st2" d="M146.9,149.9c-0.2-3.2,2-6.1,5.2-6.5c6.1-0.9,12.2-2.3,17-6.4c5.8-5,13.1-11.6,20.8-13.2
				c1.1-0.2,2.4-0.4,3.2,0.4c0.9,0.9,0.4,2.5-0.4,3.5c-1.7,2.1-4.6,3.8-5.8,6.3c-2.2,4.4,1.3,4.6,4.7,5.2
				c5.9,0.9,15.9,7.6,13.1,14.7c-1.6,4.2-7.8,8.6-16.7,7.3c-2.1-0.3-11.8-3-11.8-3c-2.2-0.4-19.5,5.2-19.5,5.2
				C147.4,166,147.5,158,146.9,149.9z"/>
			<path d="M153.4,164.7c-1.4,0-2.5-0.3-3.4-1c-3-2.1-3.4-7-3.7-12.2c0-0.5-0.1-1-0.1-1.5l0,0c-0.3-3.6,2.3-6.9,5.9-7.4
				c5.9-0.9,12-2.3,16.6-6.2l0.9-0.8c5.7-4.9,12.8-11,20.2-12.5c0.8-0.2,2.8-0.6,3.9,0.7c1.2,1.3,0.7,3.3-0.4,4.6
				c-0.7,0.8-1.5,1.6-2.3,2.3c-1.3,1.2-2.6,2.4-3.4,3.8c-0.4,0.8-0.8,1.9-0.5,2.5c0.4,0.9,2.3,1.1,4,1.4l0.5,0.1
				c4.3,0.7,10.5,4.2,13.1,8.7c1.4,2.4,1.6,4.8,0.7,7.1c-1.9,4.8-8.7,9.1-17.6,7.8c-2.1-0.3-11-2.8-11.9-3c-1.4-0.2-10.7,2.5-19,5.2
				C155.6,164.5,154.4,164.7,153.4,164.7z M147.7,149.8c0,0.5,0.1,1,0.1,1.6c0.3,4.8,0.7,9.3,3,10.9c1.2,0.9,3.1,0.9,5.5,0.2
				c2.9-0.9,17.6-5.6,19.8-5.2c0,0,0.1,0,0.1,0c0.1,0,9.7,2.7,11.7,3c8.1,1.2,14.2-2.6,15.9-6.8c0.7-1.8,0.5-3.7-0.6-5.7
				c-2.3-4-8-7.3-11.9-7.9l-0.5-0.1c-2.2-0.3-4.4-0.7-5.2-2.2c-0.5-1-0.4-2.3,0.4-4c0.9-1.7,2.3-3.1,3.7-4.3
				c0.8-0.7,1.6-1.4,2.2-2.2c0.6-0.7,1-1.9,0.5-2.4c-0.5-0.5-1.5-0.4-2.4-0.2c-7.1,1.5-14,7.4-19.5,12.2l-0.9,0.8
				c-4.9,4.2-11.2,5.6-17.4,6.6C149.5,144.6,147.5,147.1,147.7,149.8L147.7,149.8z"/>
		</g>
		<g>
			<path class="st1" d="M183.6,16.9c-0.1-1.1-1.1-1.9-2.4-1.9c-1.5,0-2.6,1.1-2.5,2.3L194,167.9c0.5,4.9-3.8,9.3-9.6,9.9l0,0
				c-5.8,0.6-10.9-2.9-11.4-7.8l-0.3-2.5c-0.1-1.1-1.3-1.9-2.6-1.8l0,0c-1.3,0.1-2.3,1.2-2.2,2.3l0.2,2.4
				c0.7,7.2,8.2,12.4,16.8,11.5l-0.3,0c8.5-0.9,14.8-7.4,14.1-14.6L183.6,16.9z"/>
			<g>
				<path class="st1" d="M322.7,88.3C300.3,45,243.7,18,180.6,24.4c-63.1,6.4-113.2,44.2-126.4,91.2l0.1,0
					c13.1-12.7,30.5-11.6,47.9-5l0.4,0.1v0c16.5-16,38.3-13.3,53.2-5.4l0.2,0l1.8,0.6c22-11.7,40.9-16.1,63.3-7.2h0l0,0
					c13.6-9.4,33.2-14.9,53.1-5.4l0.1,0l0.3-0.1c11.3-9.4,30.9-12.1,47.8-4.9L322.7,88.3z"/>
				<path d="M103.7,104.8c-0.1,0-0.1,0-0.2,0c-0.4-0.1-0.7-0.5-0.6-1c4.3-21.6,13.8-40.5,27.5-54.9c0.3-0.3,0.8-0.3,1.2,0
					c0.3,0.3,0.3,0.8,0,1.2c-13.5,14.1-22.8,32.9-27.1,54.1C104.4,104.5,104.1,104.8,103.7,104.8z"/>
				<path d="M134.9,46.4c-0.2,0-0.4-0.1-0.6-0.3c-0.3-0.3-0.3-0.8,0-1.2c3.6-3.4,7.5-6.4,11.5-9.1c0.4-0.2,0.9-0.1,1.1,0.2
					c0.2,0.4,0.1,0.9-0.2,1.1c-3.9,2.6-7.7,5.6-11.3,8.9C135.3,46.4,135.1,46.4,134.9,46.4z"/>
				<path d="M239.5,43.8c-0.2,0-0.4-0.1-0.5-0.2c-11.9-9.6-25.5-15.8-39.4-17.9c-0.4-0.1-0.8-0.5-0.7-0.9c0.1-0.4,0.5-0.7,0.9-0.7
					c14.2,2.2,28,8.5,40.1,18.3c0.4,0.3,0.4,0.8,0.1,1.1C240,43.7,239.7,43.8,239.5,43.8z"/>
				<path d="M267.5,78.6c-0.3,0-0.6-0.2-0.7-0.4c-6.2-11.8-14-22.1-23.2-30.5c-0.3-0.3-0.4-0.8-0.1-1.2c0.3-0.3,0.8-0.4,1.2-0.1
					c9.3,8.6,17.3,19,23.5,30.9c0.2,0.4,0.1,0.9-0.3,1.1C267.8,78.5,267.7,78.6,267.5,78.6z"/>
				<path d="M155.9,97.9C155.8,97.9,155.8,97.9,155.9,97.9c-0.5,0-0.8-0.4-0.8-0.8c0.3-16.3,2-31.1,4.9-43c0.1-0.4,0.6-0.7,1-0.6
					c0.4,0.1,0.7,0.5,0.6,1c-2.8,11.8-4.5,26.5-4.9,42.7C156.7,97.5,156.3,97.9,155.9,97.9z"/>
				<path d="M162.4,48.9c-0.1,0-0.2,0-0.2,0c-0.4-0.1-0.7-0.6-0.5-1c1.7-5.5,3.6-10.1,5.8-13.8c0.2-0.4,0.7-0.5,1.1-0.3
					c0.4,0.2,0.5,0.7,0.3,1.1c-2.1,3.6-4,8.1-5.6,13.5C163.1,48.7,162.7,48.9,162.4,48.9z"/>
				<path d="M205.1,48.7c-0.3,0-0.6-0.2-0.7-0.5c-2.3-4.8-4.8-9-7.3-12.3c-0.3-0.4-0.2-0.9,0.2-1.1c0.4-0.3,0.9-0.2,1.1,0.2
					c2.5,3.5,5,7.7,7.4,12.6c0.2,0.4,0,0.9-0.4,1.1C205.4,48.7,205.3,48.7,205.1,48.7z"/>
				<path d="M219.5,92c-0.4,0-0.7-0.3-0.8-0.6c-3.4-14.9-7.7-28.5-12.5-39.2c-0.2-0.4,0-0.9,0.4-1.1c0.4-0.2,0.9,0,1.1,0.4
					c4.8,10.8,9.2,24.5,12.6,39.5c0.1,0.4-0.2,0.9-0.6,1C219.6,92,219.5,92,219.5,92z"/>
			</g>
		</g>
		<g>
			<path class="st2" d="M189.3,156.1c3,0.5,7.7,0.1,12.9-3c5.5-3.2,6-12.2,3.3-15.7c-3.9-5-11.3-1.8-15.8,0.8
				c-3.6,2.1-7.2,6.5-7.3,9.7C182.2,152.8,183.8,155.2,189.3,156.1z"/>
			<path d="M200.1,159.8c-0.2,0-0.4-0.1-0.6-0.2c-0.3-0.3-0.3-0.8,0-1.2c2.6-2.8,3.1-3.4,3.2-3.4c5.1-6.4,5-13.6,2.3-17.1
				c-0.1-0.2-0.5-0.6-0.7-0.8c-2.8-2.6-7.5-2-14.1,1.8c-3.6,2.1-6.8,6.3-6.9,9c-0.2,4.7,1.4,6.6,6.3,7.4c2.7,0.5,6.3-0.1,9.6-1.5
				c0.4-0.2,0.9,0,1.1,0.4c0.2,0.4,0,0.9-0.4,1.1c-5.2,2.2-9.1,1.8-10.5,1.6c-5.7-1-7.8-3.5-7.6-9.1c0.2-3.7,4.1-8.3,7.8-10.3
				c7.3-4.2,12.6-4.7,16-1.6c0.1,0.1,0.6,0.6,0.9,0.9c3.1,4,3.4,12.1-2.3,19.1c-0.1,0.1-0.7,0.8-3.3,3.5
				C200.5,159.7,200.3,159.8,200.1,159.8z"/>
		</g>
		<path class="st3" d="M61.8,144.6c43.2,6.5,35.7,4.3,88.3-3.3c1.1-0.2,2.1,0.6,2.2,1.7l3.2,20.8c0.2,1.3-0.5,2.6-1.7,3.2
			c-44.9,21.5-49.2,22.2-91.1,34"/>
	</g>
	<g>
		<g>
			<g>
				<polygon class="st2" points="282.3,425.2 284.2,439 293.7,439.8 293.1,423.3 				"/>
				<path d="M293.7,440.6C293.6,440.6,293.6,440.6,293.7,440.6l-9.5-0.8c-0.4,0-0.7-0.3-0.7-0.7l-1.9-13.8c-0.1-0.4,0.2-0.8,0.7-0.9
					l10.8-1.9c0.2,0,0.5,0,0.7,0.2c0.2,0.1,0.3,0.4,0.3,0.6l0.6,16.4c0,0.2-0.1,0.5-0.3,0.6C294.1,440.5,293.9,440.6,293.7,440.6z
					 M285,438.2l7.8,0.6l-0.5-14.6l-9.1,1.6L285,438.2z"/>
			</g>
			<g>
				<g>
					<path class="st1" d="M294.1,464.4c-3.9,0.4-10.3,0.7-17.8-0.5c-2.5-0.4-4-2.8-3.4-5.2c1.8-6.7,5-19.4,10.1-25.2l1.1,3.2l1.8-3
						c0.2-0.4,0.7-0.7,1.1-0.7l2.6-0.1c0.8-0.1,1.5,0.5,1.6,1.2l0.5,2.8l3-3.9l0.8,10.8c0.2,3.4,0.7,6.9,1.3,10.3l1,5.7
						C298,462.1,296.3,464.2,294.1,464.4z"/>
					<path d="M287,465.6c-3.2,0-6.9-0.2-10.9-0.9c-1.4-0.2-2.7-1.1-3.4-2.3c-0.8-1.2-1-2.6-0.6-4l0.4-1.4c1.9-6.9,5-18.5,9.9-24
						c0.2-0.2,0.5-0.3,0.8-0.3c0.3,0.1,0.5,0.3,0.6,0.5l0.5,1.6l0.9-1.5c0.4-0.6,1-1,1.8-1.1l2.7-0.1c1.1-0.1,2.2,0.7,2.5,1.9l0.2,1
						l1.8-2.4c0.2-0.3,0.6-0.4,0.9-0.3c0.3,0.1,0.6,0.4,0.6,0.7l0.8,10.8c0.2,3.4,0.7,6.8,1.3,10.2l1,5.7c0,0,0,0,0,0.1
						c0.3,2.7-1.7,5.2-4.4,5.5l0,0C292.2,465.4,289.8,465.6,287,465.6z M294.1,464.4L294.1,464.4L294.1,464.4z M282.7,435.2
						c-4.1,5.6-6.9,15.9-8.6,22.3l-0.4,1.5c-0.3,0.9-0.1,1.9,0.4,2.7c0.5,0.8,1.4,1.4,2.3,1.5c7.3,1.2,13.6,0.9,17.6,0.5l0,0
						c1.8-0.2,3.1-1.8,3-3.7l-1-5.6c-0.6-3.4-1-6.9-1.3-10.3l-0.6-8.7l-1.6,2.1c-0.2,0.3-0.5,0.4-0.8,0.3c-0.3-0.1-0.6-0.3-0.6-0.6
						l-0.5-2.8c-0.1-0.3-0.4-0.6-0.7-0.5l-2.7,0.1c-0.2,0-0.4,0.1-0.5,0.3l-1.8,3c-0.2,0.3-0.5,0.4-0.8,0.4c-0.3,0-0.6-0.2-0.7-0.5
						L282.7,435.2z"/>
				</g>
				<path d="M284.5,461.1c-2.8,0-6-0.3-9.1-1.1c-0.4-0.1-0.7-0.6-0.6-1c0.1-0.4,0.6-0.7,1-0.6c9.1,2.3,18.7-0.1,18.8-0.1
					c0.4-0.1,0.9,0.2,1,0.6c0.1,0.4-0.2,0.9-0.6,1C294.7,460,290.2,461.1,284.5,461.1z"/>
				<path d="M281.4,450.7c-0.4,0-0.8-0.4-0.8-0.8c0-0.5,0.4-0.8,0.8-0.8l8.8,0c0,0,0,0,0,0c0.4,0,0.8,0.4,0.8,0.8
					c0,0.5-0.4,0.8-0.8,0.8L281.4,450.7C281.4,450.7,281.4,450.7,281.4,450.7z"/>
			</g>
			<g>
				<polygon class="st2" points="325.9,416.3 328.1,436.4 339.3,436 339.1,415.8 				"/>
				<path d="M328.1,437.2c-0.4,0-0.8-0.3-0.8-0.7l-2.1-20.2c0-0.2,0-0.5,0.2-0.6c0.1-0.2,0.4-0.3,0.6-0.3l13.2-0.5
					c0.2,0,0.4,0.1,0.6,0.2c0.2,0.2,0.3,0.4,0.3,0.6l0.2,20.2c0,0.4-0.3,0.8-0.8,0.8L328.1,437.2
					C328.1,437.2,328.1,437.2,328.1,437.2z M326.8,417l1.9,18.5l9.7-0.3l-0.2-18.6L326.8,417z"/>
			</g>
			<g>
				<g>
					<path class="st1" d="M325.5,448c0,1.9,1.4,3.5,3.3,3.9c6.5,1.3,21.3,4.1,25.4,4.6c5.4,0.6,13.3-1.6,14.8-4.5
						c1.9-3.8-6.8-10.5-11.3-13.1c-6.7-3.9-13.2-11.7-15.9-12c-2.6-0.3-7.3,7.5-7.3,7.5l-8.1-3.1C326.5,431.3,325.3,438.2,325.5,448
						z"/>
					<path d="M356.2,457.4c-0.7,0-1.4,0-2.1-0.1c-4.2-0.5-19.3-3.4-25.5-4.6c-2.2-0.4-3.9-2.4-3.9-4.7l0,0c-0.2-9.7,1-16.7,1-16.8
						c0-0.2,0.2-0.5,0.4-0.6c0.2-0.1,0.5-0.1,0.7-0.1l7.5,2.8c1.3-2.1,5-7.6,7.7-7.3c1.5,0.2,3.5,1.9,6.9,4.9c2.8,2.5,6,5.3,9.3,7.2
						c3.7,2.2,13.9,9.4,11.6,14.2C368.2,455.3,361.6,457.4,356.2,457.4z M326.3,447.9c0,1.5,1.1,2.8,2.6,3.1
						c6.2,1.2,21.2,4.1,25.4,4.6c5.3,0.6,12.7-1.6,13.9-4.1c1.4-2.9-5.6-8.9-10.9-12c-3.4-2-6.7-4.9-9.5-7.4c-2.4-2.1-4.9-4.4-6-4.5
						c-1.3-0.1-4.4,3.6-6.5,7.1c-0.2,0.3-0.6,0.5-1,0.3l-7.2-2.7C326.8,434.7,326.2,440.5,326.3,447.9L326.3,447.9z"/>
				</g>
				<path d="M356.3,452.4c-10.6,0-25.7-3.8-28.1-4.4c-0.4-0.1-0.7-0.6-0.6-1c0.1-0.4,0.6-0.7,1-0.6c8.8,2.3,32.4,7.2,36,2.4
					c0.3-0.4,0.8-0.4,1.1-0.2c0.4,0.3,0.4,0.8,0.2,1.1C364.5,451.7,360.8,452.4,356.3,452.4z"/>
				<path d="M343.9,441.9c-0.2,0-0.4-0.1-0.6-0.2c-0.3-0.3-0.3-0.8,0-1.2l5.6-5.4c0.3-0.3,0.8-0.3,1.2,0c0.3,0.3,0.3,0.8,0,1.2
					l-5.6,5.4C344.3,441.8,344.1,441.9,343.9,441.9z"/>
			</g>
			<path d="M275.6,266.5c0,0-2.6,82.9-3.7,104.8c-0.9,17.6,3.7,43.6,5.5,53.1c0.4,2.1,2.3,3.5,4.4,3.3l9.9-0.9
				c2.1-0.2,3.8-2,3.8-4.1c0-8.3-0.1-28.3,0.2-41.5c0.1-5.4,1.1-10.8,2.9-16c2.1-6.1,5-15.4,6-24.1c1.7-14.4,8.3-37.3,8.3-37.3
				s8.7,97.8,10.6,118.4c0.2,1.8,1.8,3.2,3.6,3.1c3.7-0.2,8.7,0.5,12.4-1c1.1-0.4,2-1.5,2.2-2.7c1.3-8,7.6-43.6,5.8-63.2
				c-2-22.4-3.6-96.6-3.6-96.6L275.6,266.5z"/>
		</g>
		<g>
			<path class="st2" d="M264.1,270.3c0,0,26.4,7.7,50.3,8.7c14.1,0.6,23.5-3.6,23.5-3.6l-13.4-108.8c0,0-0.7-8.5-15.7-12.5
				c-8-2.1-14.1,7.1-14.1,7.1L264.1,270.3z"/>
			<g>
				<path class="st1" d="M331.3,167.7c-6.7-9.6-17.4-12.5-30-13.2c-4.8-0.3-8.8,1.6-12.2,4.7c-6.4,2.5-15.9,6.9-19.2,12.4
					c-3,5.1-17.1,20.7-20.6,18.6c-10.2-6.1-30.1-0.2-19.6,15.1c10.6,15.4,29.4,10.4,40,6.6c-0.6,2.1-1.2,4.2-1.8,6.2
					c-3.3,10.3-6.3,69.5-6.3,69.5c4.5,3.1,15.4,9.6,15.4,9.6c9-41.6,5.1-44.9,7-71c1.5-21.9,5.2-26.1,8.5-49.8
					c0.5-3.6-0.2-8.9,3.2-16c1.2-2.6,23.9,5.9,25.6,8.2c7,9.7-1,38.7-0.6,51.8c0.7,19.4,3.3,39.6,4.3,44.3c2,9.9,1.3,27.5,1.3,27.5
					c8.7,0.4,14.2-2.6,18.1-6.2c2.6-2.4,3.6-6.1,2.7-9.6l-1.3-4.9c-1-3.8-1.5-7.8-1.5-11.7c0-2.4-0.1-5.5-0.4-9.2
					c-0.7-8.7-4-19.2-4-19.2s2.7,3.2,11.9,6.8c9.1,3.6,12.4-11.7,13.5-23.2C368.9,177.4,331.3,167.7,331.3,167.7z"/>
				<path d="M277.1,298c-0.1,0-0.3,0-0.4-0.1c-0.1-0.1-11.1-6.5-15.5-9.6c-0.2-0.2-0.4-0.4-0.3-0.7c0.1-2.4,3-59.5,6.3-69.7
					c0.5-1.4,0.9-3,1.4-4.6c-7.2,2.5-13.3,3.6-18.8,3.5c-8.9-0.2-15.9-3.9-20.7-10.9c-5.3-7.7-2.7-12.4-0.7-14.5
					c4.6-4.9,14.8-5.8,21.4-1.8c0.2,0.1,0.5,0.1,0.9,0c4.6-1.2,15.8-13.5,18.6-18.3c3.2-5.5,12.3-10,19.4-12.7
					c3.8-3.5,8.1-5.1,12.7-4.8c10.2,0.6,22.8,2.7,30.4,13.4c1.7,0.5,10.2,3.1,18.4,9.6c8.3,6.6,17.9,18.7,16,38.5
					c-0.8,8.9-3,20.1-8.4,23.5c-1.9,1.2-4,1.3-6.3,0.4c-5.1-2-8.2-3.8-10-5.2c1,3.7,2.8,10.7,3.3,16.8c0.2,3.1,0.4,6.2,0.4,9.2
					c0,3.9,0.5,7.8,1.5,11.5l1.3,4.9c1,3.8-0.1,7.7-2.9,10.4c-5,4.7-11.1,6.8-18.7,6.4c-0.4,0-0.8-0.4-0.8-0.8
					c0-0.2,0.7-17.6-1.2-27.3c-1-4.8-3.6-25.1-4.3-44.5c-0.2-4.5,0.7-10.8,1.5-17.5c1.7-13,3.6-27.7-0.8-33.8
					c-0.6-0.8-5.6-3.2-11.9-5.4c-7.8-2.7-11.6-3.2-12.3-2.9c-2.5,5.3-2.7,9.4-2.9,12.8c-0.1,1.1-0.1,2.1-0.2,3
					c-1.4,10.4-3,17.2-4.3,23.2c-1.8,7.7-3.3,14.4-4.1,26.6c-0.6,7.9-0.6,13.7-0.6,19.2c-0.1,12.3-0.1,22.9-6.4,51.9
					c-0.1,0.3-0.2,0.5-0.5,0.6C277.3,298,277.2,298,277.1,298z M262.5,287.2c3.8,2.6,11.4,7.1,14,8.7c6-28,6-38.4,6.1-50.4
					c0-5.6,0.1-11.3,0.6-19.3c0.9-12.3,2.4-19.1,4.2-26.9c1.3-5.9,2.9-12.7,4.3-23c0.1-0.8,0.2-1.8,0.2-2.8
					c0.2-3.3,0.4-7.9,3.1-13.4c0.3-0.5,0.8-0.8,1.7-0.9c4.9-0.4,23.6,6.6,25.3,9c4.8,6.7,2.9,21.7,1.1,35
					c-0.9,6.6-1.7,12.9-1.5,17.2c0.7,19.3,3.3,39.4,4.3,44.2c1.7,8.8,1.4,23.3,1.3,26.9c6.7,0.2,12.2-1.8,16.7-6
					c2.4-2.2,3.3-5.6,2.5-8.7l-1.3-4.9c-1-3.9-1.5-7.9-1.5-11.9c0-2.9-0.1-6-0.4-9.1c-0.7-8.5-4-19-4-19.1c-0.1-0.4,0-0.8,0.4-1
					c0.3-0.2,0.8-0.1,1,0.2c0,0,2.8,3.1,11.5,6.5c1.8,0.7,3.4,0.6,4.8-0.3c3.8-2.3,6.5-10.2,7.6-22.2c1.4-15.3-3.7-27.8-15.4-37.1
					c-8.7-6.9-18-9.4-18.1-9.4c-0.2,0-0.4-0.2-0.5-0.3c-5.7-8.1-14.4-12-29.3-12.9c-4.2-0.2-8.1,1.3-11.6,4.5
					c-0.1,0.1-0.2,0.1-0.3,0.2c-5.6,2.2-15.6,6.6-18.7,12.1c-2.7,4.6-14.4,17.7-19.6,19.1c-0.9,0.2-1.6,0.2-2.2-0.2
					c-5.9-3.5-15.3-2.8-19.4,1.5c-2.9,3.1-2.6,7.4,0.9,12.4c7.6,11,20.3,13.1,39,6.3c0.3-0.1,0.6,0,0.8,0.2c0.2,0.2,0.3,0.5,0.2,0.8
					c-0.6,2.3-1.2,4.4-1.8,6.2C265.5,227.9,262.7,281.7,262.5,287.2z"/>
			</g>
		</g>
		<g>
			<g>
				<path class="st2" d="M305.6,140.5l-3.2,12.1c-5.7,4.4-7.7,10.7-7.7,10.7c6.2,8.4,13,9,23.4,4.6l0,0c1.8-0.8,2.4-3,1.3-4.6
					c-1.3-1.7-2.5-4.1-2.5-6.8l3.7-22.6L305.6,140.5z"/>
				<path d="M307.2,171.4c-5.2,0-9.3-2.5-13.1-7.6c-0.2-0.2-0.2-0.5-0.1-0.7c0.1-0.3,2-6.5,7.7-11l3.1-11.8c0.1-0.2,0.2-0.4,0.5-0.5
					l14.9-6.5c0.3-0.1,0.6-0.1,0.8,0.1c0.2,0.2,0.4,0.5,0.3,0.8l-3.7,22.5c0,2.1,0.8,4.2,2.4,6.3c0.7,1,0.9,2.2,0.6,3.3
					c-0.3,1.2-1.1,2.1-2.2,2.5C314.1,170.5,310.4,171.4,307.2,171.4z M295.6,163.2c5.6,7.3,11.7,8.4,22.1,4c0.6-0.3,1.1-0.8,1.3-1.5
					c0.2-0.7,0-1.3-0.4-1.9c-1.8-2.4-2.7-4.8-2.7-7.3c0,0,0-0.1,0-0.1l3.5-21.1l-13.2,5.8l-3.1,11.7c0,0.2-0.2,0.3-0.3,0.4
					C298.2,156.8,296.1,161.7,295.6,163.2z M302.4,152.6L302.4,152.6L302.4,152.6z"/>
			</g>
			<g>
				<g>
					<path d="M298.5,109.4c4.6,0,0.5,5,17.1,0.8c6.8-1.7,3,6,4.8,5.6c6.6-1.5,8.8,0.7,10.3,1.9c1.7,1.4,3.2,4.6,2.7,7.4
						c-0.7,3.8-5.8,4.7-9,12.5c-2.2,5.5-1.9,9-4.2,9.7c-2.3,0.7-3.9-2.4-6.5-1.8c-3.4,0.8-3,6.5-6.3,8.7c-2.1,1.4-6.9,1.9-14.3-2.2
						c-1.2-0.7-1.8-2.1-1.3-3.4c0.6-1.7,1.3-3.8,2.1-5.7c4-9.3,7.5-11.3,6.4-13.8c-1.7-3.9-9-2.1-10-5.2
						C289.2,120.7,292.2,109.5,298.5,109.4z"/>
					<g>
						<path class="st2" d="M313,128.7L313,128.7c-0.7,1.1-1.3,2.3-1.8,3.5c-1,2.3-2.6,6.1-3.8,8.2c-1.4,2.6-9-0.3-11.4-1.3
							c-0.4-0.2-0.6-0.6-0.4-1l1-2.2l-1.9-0.6c-0.2-0.1-0.4-0.3-0.6-0.5c-0.4-0.5-0.3-1.1,0-1.6c1.8-2.4,4.9-6.2,6.6-11.1
							c0.2-0.5,0.6-0.9,1.1-0.9c1.8-0.2,6.1-0.1,10.1,2.9C313.5,125.2,313.9,127.2,313,128.7z"/>
						<path d="M304.8,142.2c-2.6,0-6.1-1.1-9.1-2.4c-0.4-0.2-0.7-0.5-0.8-0.9c-0.2-0.4-0.1-0.8,0.1-1.2l0.6-1.4l-1.1-0.4
							c-0.4-0.2-0.7-0.4-0.9-0.7c-0.5-0.8-0.5-1.8,0-2.6l0.5-0.7c1.8-2.3,4.5-5.9,6-10.2c0.3-0.8,1-1.4,1.9-1.4
							c1.8-0.1,6.4-0.1,10.7,3.1c1.8,1.3,2.2,3.7,1.1,5.6l0,0c-0.7,1.1-1.2,2.2-1.7,3.4c-0.9,2.2-2.7,6.1-3.8,8.2
							C307.6,141.8,306.4,142.2,304.8,142.2z M296.5,138.4c5.4,2.2,9.6,2.8,10.3,1.6c1.1-2.1,2.8-6,3.7-8.1c0.5-1.2,1.1-2.4,1.8-3.6
							c0.7-1.2,0.4-2.6-0.7-3.5c-3.8-2.9-7.9-2.9-9.5-2.7c-0.2,0-0.4,0.2-0.4,0.4c-1.6,4.6-4.4,8.3-6.3,10.7l-0.5,0.7
							c-0.1,0.2-0.1,0.4,0,0.6c0,0.1,0.1,0.1,0.2,0.2l2.7,0.8L296.5,138.4z"/>
					</g>
					<path class="st2" d="M313.6,137.4c4.6,2.1,6.7-2.1,5.9-4.9c-0.3-1.2-1.9-1.4-2.6-0.5l-3.5,4.5
						C313.1,136.9,313.2,137.3,313.6,137.4z"/>
				</g>
			</g>
		</g>
		<g>
			<g>
				<path d="M220.5,150.6c5.6-6.1,14-7.4,20.3-5.7c8,2.2,12,9.1,14.8,13.9c5,8.6,2.6,11.7,6.5,16.7c7,8.8,23.9,3,32.1,9.8
					c19.8,16.3,9,43.3-8.5,56c-11.7,8.5-27.6,3.6-32,2.2c-13.1-4.1-34.9-12-37-31c-1.4-12.8,11.6-23,4.6-33.6
					c-1.8-2.7-3.3-3.4-4.6-6.8C214.7,166.7,214.2,157.5,220.5,150.6z"/>
				<path d="M241.1,152.1c-3-2.4-1.1-9.6,0.8-13.5c0.7-1.4,3.9-7.9,8.2-7.7c4.3,0.3,8.5,7.5,7,13.3
					C255.1,151.5,244.6,155,241.1,152.1z"/>
			</g>
			<g>
				<g>
					<path class="st2" d="M200.7,227.5c0,0-5.6,25.8-7.2,37.7c-1.6,12,1.1,28,6.2,24.1c5.1-3.9,13.8-54.4,13.8-54.4L200.7,227.5z"/>
					<path d="M198.2,290.7c-0.5,0-1-0.2-1.3-0.4c-3.9-2.2-5.4-15.4-4.1-25.2c1.5-11.9,7.1-37.5,7.2-37.8c0.1-0.3,0.2-0.5,0.5-0.6
						c0.2-0.1,0.5-0.1,0.7,0l12.8,7.4c0.3,0.2,0.5,0.5,0.4,0.8c-0.9,5.2-9,51-14.1,55C199.5,290.5,198.8,290.7,198.2,290.7z
						 M201.3,228.7c-1.1,5-5.6,26.2-6.9,36.6c-1.3,9.8,0.4,22,3.3,23.6c0.3,0.2,0.8,0.3,1.5-0.3c3.5-2.7,9.9-33.2,13.4-53.4
						L201.3,228.7z"/>
				</g>
				<g>
					<path class="st1" d="M292.8,231.3c-1.5-5-3.3-11.1-4.9-15.5c-5.5-15-17-18.4-21.4-19.5c-0.7-0.2-8.6-1.2-8.6-1.2l0,0
						c-8.9-2.3-21.3-3.4-35.7,1.2c-0.5,0.1-0.9,0.3-1.3,0.5l0,0c-10.2,2.4-19.5,24.2-22,30.7c-0.4,1,0,2.2,1,2.8l7.1,4l-9.1,52.6
						c-0.7,5.6,0.7,20.4,6,22.4c5.5,2.1,20-5.3,31.8-5.3c12.7,0,28-0.1,33.1-2.3c0.2-0.1-0.5,8.5-0.4,8.4
						c6.6-3.1,11.4-18.7,10.7-25.9l-2.7-11.3c-2.2-9.1-3.5-18.5-4-27.8l10.8,4.4l5-2.9C292.5,243,294.4,236.9,292.8,231.3z"/>
					<path d="M268.1,311c-0.2,0-0.3,0-0.5-0.1c-0.5-0.3-0.5-0.3-0.2-5c0.1-0.9,0.1-2.1,0.2-2.9c-5.8,1.8-18.5,2-32.3,2
						c-5.6,0-12,1.7-17.6,3.3c-6.1,1.7-11.5,3.1-14.5,2c-6.2-2.3-7.1-18.5-6.5-23.3l9.1-52.1l-6.6-3.8c-1.3-0.8-1.9-2.4-1.3-3.8
						c2.6-6.7,12-28.6,22.5-31.2c0.5-0.2,0.9-0.4,1.3-0.5c12.2-3.9,24.3-4.3,36-1.3c0,0,0,0,0,0c0.8,0.1,8,1.1,8.7,1.2
						c10.7,2.6,18.1,9.3,22,20c1.3,3.7,3,8.9,5,15.6l0,0c1.7,6-0.3,12.3-5.2,16.2c0,0-0.1,0-0.1,0.1l-5,2.9
						c-0.2,0.1-0.5,0.1-0.7,0.1l-9.6-4c0.5,8.9,1.8,17.8,3.9,26.4l2.7,11.3c0,0,0,0.1,0,0.1c0.7,7.8-4.2,23.5-11.2,26.8
						C268.4,311,268.2,311,268.1,311z M220.8,197.6c-9.8,2.4-18.8,23.7-21.4,30.2c-0.3,0.7,0,1.4,0.6,1.8l7.1,4
						c0.3,0.2,0.5,0.5,0.4,0.8l-9.1,52.6c-0.6,5.5,0.8,19.7,5.5,21.5c2.6,1,7.9-0.5,13.5-2c5.7-1.6,12.2-3.3,18-3.3
						c11,0,27.6,0,32.8-2.3c0.3-0.1,0.6-0.1,0.8,0.1c0.4,0.3,0.4,0.3,0.1,4.9c-0.1,0.9-0.1,1.9-0.2,2.7c5.5-4.1,9.6-17.6,9.1-24.3
						l-2.7-11.3c-2.2-9.1-3.6-18.6-4-28c0-0.3,0.1-0.5,0.3-0.7c0.2-0.2,0.5-0.2,0.8-0.1l10.5,4.3l4.6-2.7c4.3-3.4,6.1-9.1,4.6-14.4
						c-1.9-6.6-3.6-11.8-4.9-15.5c-3.7-10.2-10.7-16.5-20.9-19c-0.5-0.1-5.4-0.8-8.4-1.2c-0.1,0-0.1,0-0.2,0
						c-11.5-3-23.4-2.6-35.3,1.2c-0.4,0.1-0.8,0.3-1.3,0.5C221,197.6,220.9,197.6,220.8,197.6z"/>
				</g>
			</g>
			<g>
				<g>
					<g>
						<path class="st2" d="M232.5,413.5l7.8,23.4c0,0-8.5-0.7-9.3-0.6c-0.8,0.2-10.8-21.3-10.8-21.3L232.5,413.5z"/>
						<path d="M240.3,437.6C240.3,437.6,240.3,437.6,240.3,437.6c-4.1-0.3-8.6-0.7-9.2-0.6c-0.8,0.2-1.1,0.2-6.6-11
							c-2.6-5.3-5.1-10.7-5.1-10.7c-0.1-0.2-0.1-0.5,0-0.7c0.1-0.2,0.4-0.4,0.6-0.4l12.3-1.5c0.4,0,0.7,0.2,0.9,0.6l7.8,23.4
							c0.1,0.3,0,0.5-0.1,0.8C240.8,437.5,240.6,437.6,240.3,437.6z M231.4,435.4c1.5,0,5.2,0.3,7.7,0.5l-7.2-21.5l-10.5,1.3
							c3.4,7.3,8.6,18.1,9.9,19.8C231.3,435.4,231.4,435.4,231.4,435.4z M230.9,435.5C230.8,435.5,230.8,435.5,230.9,435.5
							C230.8,435.5,230.8,435.5,230.9,435.5z"/>
					</g>
					<g>
						<g>
							<path class="st4" d="M238.5,431.7c0,0-11.8-4.8-13.9,1.2c-2.8,7.7-7.1,19.5-7.1,19.5c-0.7,2,0.7,4.2,2.8,4.4
								c4.3,0.3,10.7,0.6,13.7-0.4c4.7-1.7,12.5-16.6,12.5-16.6l-2.4-12.7C244.2,427.1,239.9,426.5,238.5,431.7z"/>
							<path d="M227.2,457.9c-2.4,0-4.8-0.1-7-0.3c-1.3-0.1-2.4-0.8-3.1-1.9c-0.7-1.1-0.9-2.4-0.4-3.6c0-0.1,4.4-11.8,7.1-19.5
								c0.5-1.4,1.4-2.3,2.8-2.9c3.6-1.6,9.3,0.1,11.4,0.9c1.8-4.9,6.2-4.4,6.3-4.4c0.3,0,0.6,0.3,0.7,0.7l2.4,12.7
								c0,0.2,0,0.4-0.1,0.5c-0.8,1.6-8.1,15.3-13,17C232.6,457.7,230,457.9,227.2,457.9z M230.2,430.7c-1.1,0-2.1,0.1-2.9,0.5
								c-0.9,0.4-1.5,1.1-1.9,2c-2.7,7.6-7.1,19.3-7.1,19.5c-0.3,0.7-0.2,1.5,0.3,2.2c0.4,0.7,1.1,1.1,1.9,1.1
								c6.4,0.5,11.2,0.4,13.4-0.4c3.5-1.2,9.7-11.7,12-15.9l-2.2-11.8c-1.1,0.1-3.3,0.6-4.2,4c-0.1,0.2-0.2,0.4-0.4,0.5
								c-0.2,0.1-0.5,0.1-0.7,0C238.2,432.4,233.8,430.7,230.2,430.7z"/>
						</g>
						<path d="M232.6,452.5h-12.1c-0.5,0-0.8-0.4-0.8-0.8c0-0.5,0.4-0.8,0.8-0.8h12.1c0.5,0,0.8,0.4,0.8,0.8
							C233.4,452.1,233,452.5,232.6,452.5z"/>
					</g>
				</g>
				<g>
					<g>
						<polygon class="st2" points="254.7,419.2 252,442.7 241.3,439.8 242.1,418.6 						"/>
						<path d="M252,443.5c-0.1,0-0.1,0-0.2,0l-10.7-2.9c-0.4-0.1-0.6-0.4-0.6-0.8l0.8-21.2c0-0.2,0.1-0.4,0.3-0.6
							c0.2-0.1,0.4-0.2,0.6-0.2l12.5,0.6c0.2,0,0.4,0.1,0.6,0.3c0.1,0.2,0.2,0.4,0.2,0.6l-2.7,23.5c0,0.2-0.2,0.5-0.4,0.6
							C252.3,443.5,252.2,443.5,252,443.5z M242.2,439.2l9.2,2.5l2.5-21.7l-10.8-0.5L242.2,439.2z"/>
					</g>
					<g>
						<g>
							<path class="st4" d="M253,460h-16.9c-2.3,0-4-2-3.7-4.3c0.6-3.8,2.4-10.2,7.9-18.9c0.6-1,1.7-1.5,2.8-1.5h5.1
								c0.9,0,1.6,0.7,1.7,1.6l0.4,3.7l1.6-1.6c0.6-0.6,1.7-0.4,2,0.4c1,3,2.8,9.4,2.9,16.8C256.8,458.3,255.1,460,253,460z"/>
							<path d="M253,460.8h-16.9c-1.3,0-2.6-0.6-3.5-1.6c-0.9-1-1.3-2.3-1.1-3.7c0.6-3.9,2.4-10.3,8-19.2c0.8-1.2,2.1-1.9,3.5-1.9
								h5.1c1.3,0,2.4,1,2.5,2.3l0.2,2l0.3-0.4c0.5-0.5,1.2-0.7,1.9-0.6c0.7,0.2,1.2,0.6,1.4,1.3c1,3.2,2.8,9.6,3,17
								c0,1.2-0.4,2.4-1.3,3.3C255.4,460.3,254.3,460.8,253,460.8z M243.1,436.1c-0.8,0-1.6,0.4-2.1,1.2c-5.5,8.6-7.3,14.9-7.8,18.6
								c-0.1,0.8,0.1,1.7,0.7,2.3c0.6,0.6,1.4,1,2.2,1H253c0.8,0,1.5-0.3,2.1-0.9c0.6-0.6,0.9-1.3,0.8-2.1
								c-0.1-7.2-1.9-13.4-2.9-16.5c-0.1-0.2-0.2-0.2-0.3-0.2c-0.1,0-0.2,0-0.3,0.1l-1.6,1.6c-0.2,0.2-0.6,0.3-0.9,0.2
								c-0.3-0.1-0.5-0.4-0.5-0.7l-0.4-3.7c0-0.5-0.4-0.8-0.9-0.8H243.1z"/>
						</g>
						<path d="M253.2,456.8h-17.1c-0.5,0-0.8-0.4-0.8-0.8c0-0.5,0.4-0.8,0.8-0.8h17.1c0.5,0,0.8,0.4,0.8,0.8
							C254,456.4,253.7,456.8,253.2,456.8z"/>
					</g>
				</g>
				<g>
					<path class="st2" d="M214.5,278.2c0.4-1.1,1.3-1.9,2.5-2.3c6.2-1.9,27.8-7.1,50,7.2c1,0.7,1.7,1.8,1.8,3
						c0.8,11.3,3.8,70.3-14.9,140.2l-12.6-0.9l-2.6-119.5c0,0-18.6,43.8-3.5,113.5l-13.1,2.4c0,0-19.1-25.2-22.6-63.6
						C196.6,324.2,211.1,286.4,214.5,278.2z"/>
					<path class="st5" d="M250.7,371.1c-0.4,0-0.8-0.3-0.8-0.8c0-0.5,0.3-0.8,0.8-0.9c10.5-0.5,11.7-15.1,11.7-15.3
						c0-0.5,0.4-0.8,0.9-0.8c0.5,0,0.8,0.4,0.8,0.9C264,354.4,262.6,370.6,250.7,371.1C250.7,371.1,250.7,371.1,250.7,371.1z"/>
					<path class="st5" d="M237.6,317.7C237.6,317.7,237.6,317.7,237.6,317.7c-0.5,0-0.8-0.4-0.8-0.8l0.3-11.3c0.1-2-0.9-3.8-2.5-5
						l-4.9-3.4c-0.4-0.3-0.5-0.8-0.2-1.1c0.3-0.4,0.8-0.5,1.1-0.2l4.9,3.4c2.1,1.5,3.3,3.8,3.2,6.4l-0.3,11.3
						C238.5,317.3,238.1,317.7,237.6,317.7z"/>
				</g>
			</g>
			<g>
				<path class="st2" d="M269.2,237.7c0,0,10,25.3,0,53.2c0,0-9.6,4.3-12.9,6.9c-3.3,2.6-3.7,9-3.7,9s4.8-3.9,8.7-3.8
					c3.9,0.1,9.7-2.1,9.8-6.5c0,0,17.2-19.6,17.6-34.7c0.5-16.8-0.7-28.4-2.1-32.8c-0.2-0.8-1-1.2-1.8-1.1
					C277.5,229.3,270.5,231.6,269.2,237.7z"/>
				<path d="M252.5,307.7c-0.1,0-0.3,0-0.4-0.1c-0.3-0.1-0.5-0.5-0.4-0.8c0-0.3,0.5-6.8,4-9.6c3-2.4,11.1-6,12.8-6.8
					c9.5-27.2-0.1-52.1-0.2-52.3c-0.1-0.1-0.1-0.3,0-0.5c1.5-6.9,9.4-9.2,16.2-10.4c1.2-0.2,2.4,0.5,2.7,1.7
					c1.3,4.1,2.6,15.2,2.1,33.1c-0.4,14.5-15.6,32.7-17.6,35c-0.4,4.7-6.3,7.1-10.6,7c0,0-0.1,0-0.1,0c-3.5,0-8,3.6-8,3.6
					C252.9,307.6,252.7,307.7,252.5,307.7z M270,237.7c1,2.7,9.4,27.1,0,53.6c-0.1,0.2-0.2,0.4-0.4,0.5c-0.1,0-9.6,4.3-12.8,6.8
					c-1.9,1.5-2.8,4.6-3.2,6.6c1.8-1.2,4.9-2.9,7.6-2.8c3.6,0.1,8.9-1.9,9-5.7c0-0.2,0.1-0.4,0.2-0.5c0.2-0.2,17-19.6,17.4-34.1
					c0.5-17.7-0.8-28.6-2-32.6c-0.1-0.4-0.5-0.6-0.9-0.5C278.7,229.9,271.4,231.9,270,237.7z M269.2,291L269.2,291L269.2,291z"/>
			</g>
			<g>
				<path class="st2" d="M243.9,166.6c-0.5,0.2-1,0-1.1-0.5c-0.6-2.4-2.9-6.2-5.9-7.2c-3.7-1.4-8.3-0.7-9.7,2.1
					c-1.2,2.5-0.5,4.1-3.8,7.1c-0.3,0.3-0.1,0.8,0.2,1.1l1.6,1.7c0.3,0.3,0.5,1.3,0.5,1.8c0,1.5-0.2,4.6,0.2,5
					c0.9,0.9,5.8,1.2,5.8,1.2l2.2,13.9c0.1,0.5-0.3,1-0.8,1.1l-4.8,1c0,0,3.1,5.7,14.8,6.4c7.5,0.4,17.1-4.5,17.1-4.5
					s-17.7-3.6-17.6-20.9c0-0.4,0.2-0.7,0.5-0.9c1.3-0.7,4.7-2.9,4.5-5.6C247.5,166.5,245.5,165.9,243.9,166.6z"/>
				<path d="M244.1,202.1c-0.3,0-0.7,0-1,0c-12.1-0.7-15.4-6.5-15.5-6.8c-0.1-0.2-0.1-0.5,0-0.7c0.1-0.2,0.3-0.4,0.6-0.5l4.8-1
					c0,0,0,0,0.1,0c0,0,0.1,0,0.1,0c0,0,0-0.1,0-0.1l-2.1-13.3c-1.8-0.1-4.8-0.5-5.7-1.4c-0.5-0.5-0.6-1.7-0.5-4.9
					c0-0.3,0-0.5,0-0.8c0-0.4-0.2-1-0.3-1.2l-1.6-1.7c-0.3-0.3-0.5-0.8-0.5-1.3c0-0.4,0.2-0.7,0.4-1c2.1-1.9,2.4-3.2,2.8-4.6
					c0.2-0.7,0.4-1.4,0.8-2.3c1.6-3.4,6.8-3.9,10.7-2.5c3.3,1.2,5.7,5.3,6.4,7.8l0.4,0.8l-0.3-0.7c1.1-0.5,2.3-0.4,3.2,0.1
					c0.7,0.4,1.6,1.4,1.8,3.4c0.2,2.9-3,5.2-4.9,6.3c-0.1,0-0.1,0.1-0.1,0.2c-0.2,16.5,16.2,20,16.9,20.1c0.3,0.1,0.6,0.3,0.6,0.7
					c0,0.3-0.1,0.7-0.4,0.8C260.3,197.7,251.6,202.1,244.1,202.1z M229.7,195.4c1.4,1.6,5.2,4.5,13.4,5c5.2,0.3,11.6-2.1,14.8-3.5
					c-4.9-1.7-16.2-7-16-21.1c0-0.7,0.4-1.3,1-1.6c1.3-0.7,4.2-2.7,4.1-4.8c-0.1-1-0.4-1.7-1-2.1c-0.5-0.3-1.1-0.3-1.7,0h0
					c-0.4,0.2-0.9,0.2-1.4,0c-0.4-0.2-0.8-0.6-0.9-1.1c-0.6-2.2-2.8-5.7-5.4-6.7c-3.2-1.2-7.5-0.8-8.6,1.7c-0.3,0.7-0.5,1.3-0.7,2
					c-0.4,1.5-0.9,3.1-3.1,5.2c0,0,0,0,0,0.1l1.6,1.7c0.6,0.6,0.8,1.9,0.7,2.4c0,0.2,0,0.5,0,0.8c0,0.9-0.1,3.1,0.1,3.7
					c0.5,0.4,2.9,0.8,5.2,0.9c0.4,0,0.7,0.3,0.8,0.7l2.2,13.9c0.1,0.5,0,1-0.3,1.3c-0.3,0.4-0.7,0.6-1.1,0.7L229.7,195.4z
					 M226.6,177.2L226.6,177.2L226.6,177.2z"/>
			</g>
		</g>
		<g>
			<path class="st2" d="M314.7,205.3c0,0-2.4-11.3-7.7-15.2c-4.7-3.5-3.7,2.4-1.7,5.6c0.4,0.6,0.7,1.2,0.8,1.7
				c0.5,1.3-1.1,2.5-2.2,1.6c-4.4-3.6-13.9-11-15.1-9.9c-1.2,1.1-0.1,4.2,3.2,7.6c0.8,0.8,1.1,1.9,1,3c-0.2,2.2-0.2,5.9,2.5,8.3
				c3.6,3,12.7,6.2,12.7,6.2s9.8,13.9,32.3,26.9c12.2,7,15.4-2.5,17.4-12c2.9-13.6-16.1-9.5-16.1-9.5S331.1,220.8,314.7,205.3z"/>
			<path d="M348,244.2c-2.2,0-4.8-0.8-7.8-2.5c-20.9-12-31.1-25.1-32.4-26.9c-1.5-0.5-9.4-3.4-12.7-6.3c-3-2.6-3.1-6.7-2.8-9
				c0.1-0.8-0.2-1.7-0.8-2.3c-2.5-2.6-4-5.2-3.9-7c0-0.7,0.3-1.3,0.8-1.7c0.7-0.6,1.9-1.6,16.2,9.9c0.3,0.3,0.6,0.1,0.7,0
				c0.1-0.1,0.3-0.3,0.2-0.7c-0.2-0.5-0.4-1-0.8-1.5c-1.4-2.3-2.6-6.1-1.1-7.5c0.9-0.8,2.2-0.5,4,0.8c5.1,3.8,7.6,13.7,8,15.5
				c15.4,14.4,25.8,13.9,26.4,13.8c0.9-0.2,10.9-2.1,15.3,2.3c1.9,1.9,2.5,4.7,1.7,8.2c-1.3,5.9-3,12.3-7.6,14.4
				C350.2,244,349.1,244.2,348,244.2z M289.3,189.7c-0.1,0.1-0.1,0.3-0.1,0.5c0,1,0.8,3.2,3.4,5.8c0.9,1,1.4,2.3,1.3,3.6
				c-0.2,1.9-0.2,5.5,2.3,7.6c3.4,2.9,12.4,6,12.5,6.1c0.2,0.1,0.3,0.2,0.4,0.3c0.1,0.1,10,13.9,32.1,26.6c3.9,2.3,7.1,2.9,9.5,1.8
				c3.7-1.7,5.4-7.3,6.7-13.2c0.6-2.9,0.2-5.2-1.3-6.7c-3.9-3.9-13.7-1.9-13.8-1.8c0,0,0,0-0.1,0c-0.5,0.1-11.4,1.2-27.9-14.4
				c-0.1-0.1-0.2-0.3-0.2-0.4c0-0.1-2.4-11-7.4-14.8c-1.3-1-1.8-0.9-1.9-0.9c-0.4,0.4-0.1,3.1,1.4,5.4c0.4,0.6,0.7,1.2,0.9,1.8
				c0.4,0.9,0,2-0.8,2.6c-0.8,0.6-1.9,0.6-2.7-0.1C294.1,192,290.2,189.8,289.3,189.7z"/>
		</g>
		<g>
			<path class="st2" d="M202.4,213.3c15.6,0.7,17.4-4.7,10.8-13.9c-0.4-0.5-1.1-0.6-1.6-0.2C205.6,204.6,203.1,207.2,202.4,213.3z"
				/>
			<path d="M205.1,214.2c-0.9,0-1.8,0-2.7-0.1c-0.2,0-0.4-0.1-0.6-0.3c-0.1-0.2-0.2-0.4-0.2-0.6c0.7-6.6,3.6-9.4,9.4-14.6
				c0.4-0.4,0.9-0.5,1.5-0.5c0.5,0.1,1,0.3,1.3,0.8c3.6,5,4.6,8.7,3.2,11.3C215.6,212.9,211.6,214.2,205.1,214.2z M203.3,212.5
				c6.9,0.2,11-0.8,12.2-3.1c1.1-2,0.1-5.2-3.1-9.6c-0.1-0.1-0.1-0.1-0.2-0.1c0,0-0.1,0-0.2,0.1C206.3,205,204.1,207.4,203.3,212.5z
				"/>
		</g>
	</g>
	<g>
		<g>
			<g>
				<g>
					<path class="st2" d="M203.9,423.1l6,7.8c1,1.6,0.6,3.7-0.9,4.5l-1.7,0.9c-1.4,0.7-3.2,0.1-4.1-1.5l-6.3-8.2L203.9,423.1z"/>
					<path d="M206,437.5c-1.4,0-2.7-0.8-3.5-2.1l-6.3-8.1c-0.1-0.2-0.2-0.4-0.2-0.7c0.1-0.2,0.2-0.4,0.4-0.5l7.1-3.6
						c0.4-0.2,0.8-0.1,1,0.2l6,7.8c0,0,0,0,0,0.1c0.6,1.1,0.8,2.3,0.5,3.4c-0.3,1-0.9,1.8-1.7,2.2l-1.7,0.9
						C207.1,437.3,206.5,437.5,206,437.5z M198,427l5.7,7.4c0,0,0,0.1,0.1,0.1c0.7,1.2,2,1.7,3,1.2l1.7-0.9c0.5-0.2,0.8-0.7,0.9-1.2
						c0.2-0.7,0.1-1.5-0.3-2.1l-5.5-7.2L198,427z"/>
				</g>
				<g>
					<path class="st4" d="M219,435.2c1,0.8,1.3,2.2,0.7,3.4c-2,4-6.6,13-8.1,15.5c-1.9,3.1-5.7,5.9-8.5,6c-2.9,0.1-2.8-7.9-2.3-11.4
						c0.7-5.1-0.8-11.9,0.2-13.4c0.6-0.9,2.9-1,4.7-0.9c1.4,0,2.7-0.9,3.1-2.2l0.7-2.2c0.2-0.5,0.8-0.8,1.3-0.5
						C212.2,430.3,215.3,432.3,219,435.2z"/>
					<path d="M203,460.8c-0.6,0-1.2-0.3-1.7-0.8c-2.1-2.3-1.6-9.3-1.3-11.5c0.3-2.5,0.2-5.3,0-7.9c-0.2-3.1-0.3-4.9,0.3-5.8
						c0.4-0.6,1.4-1.5,5.4-1.3c1,0.1,2-0.6,2.3-1.6l0.7-2.2c0.2-0.5,0.5-0.9,1-1.1c0.5-0.2,1-0.1,1.5,0.1c1.6,0.9,4.7,2.9,8.4,5.9
						l0,0c1.3,1,1.7,2.9,0.9,4.4c-1.9,3.8-6.6,13-8.1,15.5C210.1,458,206.2,460.7,203,460.8C203.1,460.8,203,460.8,203,460.8z
						 M204.8,435.1c-2.3,0-3.1,0.4-3.2,0.6c-0.3,0.5-0.2,2.8-0.1,4.9c0.2,2.6,0.4,5.6,0,8.2c-0.5,3.3-0.4,8.8,0.9,10.2
						c0.2,0.2,0.4,0.3,0.5,0.3c2.5-0.1,6-2.6,7.9-5.6c1.5-2.4,6.1-11.6,8.1-15.4c0.4-0.8,0.2-1.8-0.5-2.3l0,0
						c-3.6-2.9-6.7-4.9-8.2-5.8c0,0,0,0-0.1,0c0,0,0,0,0,0l-0.7,2.2c-0.5,1.7-2.1,2.9-3.9,2.8C205.3,435.1,205.1,435.1,204.8,435.1z
						"/>
				</g>
				<path d="M203.5,443.4c-0.4,0-0.8-0.3-0.8-0.7c0-0.4,0.3-0.9,0.7-0.9l4.1-0.4c0.4-0.1,0.9,0.3,0.9,0.7c0,0.4-0.3,0.9-0.7,0.9
					L203.5,443.4C203.6,443.4,203.5,443.4,203.5,443.4z"/>
			</g>
			<g>
				<g>
					<path class="st2" d="M164.9,439.5l0.6,6.4c0,1.8-1.3,3.3-3,3.2l-1.9-0.1c-1.6,0-2.8-1.4-2.8-3.1l-0.5-8.1L164.9,439.5z"/>
					<path d="M162.5,449.9c0,0-0.1,0-0.1,0l-1.9-0.1c-2-0.1-3.6-1.8-3.6-3.9l-0.5-8c0-0.3,0.1-0.5,0.3-0.7c0.2-0.2,0.5-0.2,0.7-0.2
						l7.6,1.6c0.4,0.1,0.6,0.4,0.6,0.7l0.6,6.4c0,1.2-0.4,2.3-1.2,3C164.4,449.5,163.5,449.9,162.5,449.9z M158.1,438.8l0.4,7
						c0,1.3,0.9,2.3,2,2.3l1.9,0.1c0.5,0,1-0.2,1.4-0.6c0.5-0.5,0.7-1.1,0.7-1.8l-0.5-5.7L158.1,438.8z"/>
				</g>
				<g>
					<path class="st4" d="M165.7,445.1c0.4-0.5,1.2-0.5,1.7,0c0.9,1,2.1,2.7,2.6,4.6c0.7,2.9,1.8,9.1-0.3,9.8
						c-1.5,0.5-17.4,0-25.3-0.3c-2.5-0.1-3.8-3-2.1-4.9c1.2-1.4,3.7-2.9,6.5-4.1c4.2-1.8,6.2-3.5,7.2-4.6c0.7-0.8,1.7-1,2.6-0.4
						l2.6,1.6c1.2,0.8,2.8,0.5,3.8-0.6L165.7,445.1z"/>
					<path d="M165,460.5c-3.5,0-9.7-0.1-20.6-0.5c-1.5-0.1-2.8-0.9-3.3-2.3c-0.6-1.3-0.3-2.9,0.6-3.9c1.3-1.4,3.7-3,6.8-4.3
						c4.2-1.8,6.1-3.4,6.9-4.4c0.9-1.1,2.5-1.3,3.6-0.6l2.6,1.6c0.9,0.6,2.1,0.4,2.7-0.4l0.8-1c0.4-0.4,0.9-0.7,1.4-0.7c0,0,0,0,0,0
						c0.6,0,1.1,0.2,1.4,0.7c1,1.1,2.3,2.9,2.7,4.9c2.2,9.7-0.1,10.5-0.8,10.7C169.7,460.3,169.2,460.5,165,460.5z M157.5,445.6
						c-0.3,0-0.7,0.2-0.9,0.4c-1.4,1.6-3.9,3.2-7.5,4.8c-2.8,1.2-5.1,2.7-6.2,3.9c-0.5,0.6-0.7,1.4-0.4,2.2c0.3,0.6,0.9,1.3,1.9,1.3
						c21.7,0.8,24.6,0.5,25,0.3c0.6-0.2,1.1-2.8-0.3-8.8c-0.4-1.7-1.7-3.4-2.4-4.2c-0.1-0.1-0.1-0.1-0.2-0.1c0,0-0.1,0-0.2,0.1
						l-0.8,1c-1.2,1.4-3.2,1.7-4.8,0.8l-2.6-1.6C157.9,445.7,157.7,445.6,157.5,445.6z"/>
				</g>
				<path d="M157.3,453.9c-0.2,0-0.3,0-0.5-0.1L153,451c-0.4-0.3-0.5-0.8-0.2-1.1c0.3-0.4,0.8-0.5,1.1-0.2l3.9,2.7
					c0.4,0.3,0.5,0.8,0.2,1.1C157.8,453.7,157.6,453.9,157.3,453.9z"/>
			</g>
			<g>
				<g>
					<path class="st1" d="M146.6,365.7c0,0,1.7,15.8,4.1,28.1c1.9,9.8,0.7,22.7,3.7,37c0.9,4.3,2.3,10.9,2.3,10.9l9,0.3
						c0.6-1.1,4.3-21.6,0.6-38.8c-2.2-10.2,3.9-24.4,2.4-33.6c-1.2-7.3-4.5-28.6-4.5-28.6l-16,0.1
						C148.2,341.1,146.4,353.1,146.6,365.7z"/>
					<path d="M165.7,442.9C165.7,442.9,165.7,442.9,165.7,442.9l-9-0.3c-0.4,0-0.7-0.2-0.8-0.6c0-0.1-1.6-7.4-2.3-11
						c-1.7-8-2-15.6-2.3-22.3c-0.3-5.3-0.5-10.4-1.3-14.7c-2.4-12.2-4.1-28-4.1-28.2c0,0,0,0,0-0.1c-0.2-12.6,1.6-24.6,1.6-24.7
						c0.1-0.4,0.4-0.7,0.8-0.7l16-0.1c0,0,0,0,0,0c0.4,0,0.7,0.3,0.8,0.7c0,0.2,3.3,21.3,4.5,28.6c0.7,4.5-0.2,9.9-1.3,15.7
						c-1.1,6.2-2.3,12.7-1.1,17.9c3.7,17.1,0.2,37.8-0.7,39.4C166.3,442.7,166,442.9,165.7,442.9z M157.3,441l7.8,0.2
						c0.9-3.3,3.8-22,0.4-37.8c-1.2-5.5,0-12.2,1.1-18.5c1-5.6,1.9-10.9,1.3-15.1c-1.1-6.5-3.8-24.2-4.3-27.9l-14.6,0.1
						c-0.4,2.7-1.7,13-1.5,23.7c0.1,0.8,1.7,16.1,4.1,28c0.9,4.4,1.1,9.5,1.4,14.9c0.3,6.7,0.7,14.2,2.3,22.1
						C155.9,434.2,157,439.2,157.3,441z"/>
				</g>
				<g>
					<path class="st1" d="M165.2,340.5c4-12.8,20.9-7.4,23.5,16c1,9.2,3.3,24.6,2.5,31.2c-0.3,2.5,0.4,5,1.9,7
						c10.6,14.3,9.9,15.8,13.2,29.9c0.1,0.2-4,5.7-6.6,6.3c-9.5-8.6-17.8-26.9-22.7-33.5c-4.9-6.6-12.4-45.2-12.4-45.2
						S162.8,348.3,165.2,340.5z"/>
					<path class="st1" d="M199.7,431.1l-0.1-0.1c-6.4-5.8-12.3-15.9-17-24.1c-2.3-3.9-4.2-7.3-5.8-9.4c-4.8-6.6-12.1-43.3-12.5-45.3
						c-0.2-0.4-1.8-4.3,0.6-11.8l0,0c1.5-4.7,4.8-7.3,8.9-6.9c6.1,0.6,13.5,8,15.2,22.9c0.2,1.7,0.4,3.7,0.7,5.7
						c1.1,9,2.5,20.1,1.8,25.5c-0.3,2.4,0.4,4.8,1.9,6.8c9.4,12.6,10,15.3,12.2,25.4c0.3,1.4,0.6,2.9,1,4.6c0,0.1,0,0.2-0.2,0.4
						c-0.7,1.1-4.2,5.6-6.6,6.2L199.7,431.1z M165.5,340.6c-2.4,7.6-0.6,11.4-0.6,11.5l0,0.1c0.1,0.4,7.6,38.6,12.4,45.1
						c1.6,2.2,3.6,5.6,5.8,9.5c4.6,8.1,10.4,18.1,16.7,23.8c2.3-0.7,5.9-5.3,6.2-6c-0.4-1.7-0.7-3.2-1-4.5
						c-2.2-10-2.8-12.7-12.1-25.2c-1.6-2.1-2.3-4.7-2-7.2c0.6-5.3-0.7-16.5-1.8-25.4c-0.3-2.1-0.5-4-0.7-5.7
						c-1.7-14.6-8.8-21.9-14.7-22.5C169.9,333.7,166.8,336.1,165.5,340.6L165.5,340.6z"/>
				</g>
				<path d="M199.3,431.8c-0.2,0-0.4-0.1-0.6-0.2c-6.4-5.9-12.2-16.2-16.8-24.4c-2.2-3.9-4.1-7.3-5.7-9.5c-2.2-3-5-12.4-8.4-27.8
					l-0.1-0.3c-0.3-1.2-0.9-4.5-3.6-6c-0.4-0.2-0.5-0.7-0.3-1.1c0.2-0.4,0.7-0.5,1.1-0.3c3.4,1.8,4.2,5.7,4.5,7.1l0.1,0.2
					c3.3,15,6.1,24.4,8.2,27.2c1.6,2.2,3.5,5.6,5.8,9.6c4.5,8,10,17.8,16.2,23.7c1.9-0.8,4.9-4.4,5.6-5.4c-0.4-1.6-0.7-3-0.9-4.3
					c-2.1-9.9-2.7-12.6-11.8-25.1c-1.6-2.3-2.3-5-2-7.6c0.7-5.3-0.6-16.4-1.5-25.3c-0.2-2.1-0.5-4-0.6-5.8
					c-1.5-14.4-8.3-21.5-14-22.1c-3.5-0.4-6.5,1.9-7.8,6.1l-0.1,0.3c-0.1,0.4-0.6,0.7-1,0.5c-0.4-0.1-0.7-0.6-0.5-1l0.1-0.3
					c1.6-5,5.2-7.7,9.5-7.2c6.3,0.7,13.9,8.3,15.4,23.6c0.2,1.7,0.4,3.7,0.6,5.7c1,9,2.3,20.2,1.5,25.7c-0.3,2.3,0.3,4.6,1.7,6.5
					c9.3,12.8,9.9,15.5,12,25.7c0.3,1.4,0.6,2.9,1,4.6c0,0.2,0.2,0.8-2.5,3.7c-1.9,2-3.5,3.2-4.7,3.5
					C199.4,431.8,199.3,431.8,199.3,431.8z"/>
			</g>
		</g>
		<path d="M172.8,303.3c3.5,0.4,7.1,0.4,10.6,0.1c6.8-0.7,20.7-4.3,18.3-13.8c-0.7-3.1-2.8-5.6-4.6-8.2c-6-8.7-7.5-18.3-11.2-27.9
			c-3.1-8-8.4-14.2-17.5-14.4c-8.3-0.3-13,4.1-16.6,11.1c-2.5,4.8-4.9,9.5-7.4,14.3c-5.7,11-6.6,20.7,4,28.9
			C155.3,298.8,163.9,302.2,172.8,303.3z"/>
		<g>
			<g>
				<path class="st2" d="M141.8,283.8c-8.3,1.5-12.1,1.5-19-1.7c0,0-7.6-4.2-6.9-6.4l2.2-19.3c0.4-2.9,0.1-5.9-0.7-8.7l-2.7-7.5
					c-0.5-1.3-2.3-0.9-2.3,0.4l0.1,3.9c0,0-1.3,0-1.8-0.2c-1.2-0.4-2.1-1.4-2.5-2.6c-0.5-1.4-1.3-3.6-1.6-4.2
					c-0.5-0.9-1.1-2.2-2.1-2.8l0,0c-1.1-0.6-2.4,0.3-2.2,1.5l0.6,4.2c0.5,3.1,1.9,5.9,4.1,8.1l4.3,4.3c0.8,0.8,1,2,0.6,3.1
					l-7.3,17.9c-1.7,4.1-2.1,8-1,10.6c5.6,13.3,40.2,21.7,40.2,21.7L141.8,283.8z"/>
				<path d="M143.8,306.8c-0.1,0-0.1,0-0.2,0c-1.4-0.3-35.1-8.6-40.8-22.1c-1.1-2.7-0.8-6.8,1-11.2l7.4-17.9
					c0.3-0.7,0.1-1.6-0.4-2.2l-4.3-4.3c-2.3-2.3-3.8-5.3-4.3-8.5l-0.6-4.2c-0.1-0.9,0.2-1.7,1-2.2c0.7-0.5,1.6-0.6,2.4-0.1
					c1.1,0.6,1.8,1.8,2.3,2.7c0.1,0.1,0.1,0.3,0.2,0.4c0.3,0.5,0.8,2,1.7,4.3c0.4,1,1.1,1.8,2,2.1c0.1,0,0.4,0.1,0.7,0.1l-0.1-3
					c0-1,0.6-1.8,1.6-2c1-0.2,1.9,0.3,2.3,1.3l2.7,7.5c0.9,3,1.1,6,0.7,9.1l-2.2,19.3c0,0.1,0,0.1,0,0.2c-0.3,0.8,2.9,3.4,6.5,5.4
					c6.6,3.1,10.3,3.1,18.5,1.7c0.2,0,0.5,0,0.6,0.2c0.2,0.1,0.3,0.3,0.3,0.6l2,22.2c0,0.3-0.1,0.5-0.3,0.7
					C144.2,306.7,144,306.8,143.8,306.8z M103.8,235.3c-0.2,0-0.3,0.1-0.4,0.1c-0.1,0.1-0.3,0.3-0.3,0.6l0.6,4.2
					c0.4,2.9,1.8,5.5,3.8,7.6l4.3,4.3c1,1,1.3,2.6,0.8,3.9l-7.3,17.9c-1.6,4-2,7.6-1,9.9c4.8,11.4,32.6,19.3,38.5,20.9l-1.8-20.1
					c-7.9,1.4-11.8,1.2-18.6-1.9c0,0,0,0-0.1,0c-2.4-1.4-8-4.7-7.3-7.3l2.2-19.2c0.4-2.8,0.1-5.7-0.7-8.4l-2.7-7.5
					c-0.1-0.3-0.3-0.3-0.4-0.2c-0.1,0-0.3,0.1-0.3,0.4l0.1,3.9c0,0.2-0.1,0.4-0.2,0.6c-0.2,0.2-0.4,0.2-0.6,0.3
					c-0.2,0-1.5,0-2.1-0.2c-1.4-0.5-2.5-1.7-3-3.1c-0.8-2.1-1.3-3.7-1.6-4.1c-0.1-0.1-0.1-0.3-0.2-0.4c-0.4-0.8-0.9-1.7-1.6-2
					C104,235.4,103.9,235.3,103.8,235.3z"/>
			</g>
			<g>
				<path class="st2" d="M134.4,283.3c-0.5,0.3-0.7,0.8-0.6,1.3l4,16c1.3,4.7,2,9.5,2.3,14.4l1.4,30.2c0,0,15.7,11.3,46.6,3.2
					l2.5-28.6c0.5-6,1.9-11.8,4-17.4l3.9-10.4c0.2-0.6,0-1.2-0.5-1.6c-2.2-1.6-8.4-5.8-14.8-7.8
					C172.2,279.5,144.6,277.9,134.4,283.3z"/>
				<path d="M166.6,352.2c-16.7,0-25.3-6-25.7-6.3c-0.2-0.1-0.3-0.4-0.3-0.6l-1.4-30.2c-0.2-4.8-1-9.6-2.2-14.2l-4-16.1
					c-0.2-0.9,0.2-1.8,1-2.3c10.9-5.7,38.9-3.7,49.3-0.5c6.5,2,12.7,6.2,15,7.9c0.8,0.6,1.1,1.6,0.8,2.6l-3.9,10.4
					c-2.1,5.5-3.4,11.3-3.9,17.2l-2.5,28.6c0,0.3-0.3,0.6-0.6,0.7C179.9,351.4,172.7,352.2,166.6,352.2z M142.2,344.8
					c2.4,1.5,17.7,10,45,3.1l2.5-28c0.5-6,1.9-11.9,4-17.6l3.9-10.4c0.1-0.2,0-0.5-0.2-0.6c-2.3-1.7-8.3-5.7-14.6-7.6
					c-11.2-3.4-38.3-4.7-48,0.4c0,0,0,0,0,0c-0.1,0.1-0.2,0.2-0.2,0.4l4,16c1.3,4.7,2.1,9.6,2.3,14.5L142.2,344.8z M134.4,283.3
					L134.4,283.3L134.4,283.3z"/>
			</g>
			<g>
				<path class="st2" d="M199.6,296.7c-0.6-1.1-1.2-2-2-2.8l-3.3,8.6c-1.3,3.5-2.3,7.1-3,10.7c-0.5,3.7-2.3,6.3-6.4,5.9
					c-5.2-0.5-12.9-1.5-16.6-7.9c-1.6-2.8-4.6-5.7-6.3-4.2c-1,0.9,0.8,2.5,1.5,3.7c0.4,0.7-0.1,1-0.9,0.9c-5.8-0.8-9.5-6.2-11.1-3.7
					c-0.5,0.8-0.3,3.1,0.6,4.7c2.8,5,9.6,7,13.7,8.2c7.7,2.2,18,13.8,29.6,12.5C204.3,332.3,204.8,306.3,199.6,296.7z"/>
				<path d="M193.7,334.2c-7,0-13.3-4.1-19-7.8c-3.3-2.1-6.4-4.1-9.1-4.9c-4.2-1.2-11.2-3.2-14.2-8.6c-1-1.8-1.3-4.4-0.6-5.5
					c1.3-2,3.4-0.7,5.4,0.6c1.7,1.1,3.9,2.4,6.4,2.8c-0.1-0.2-0.3-0.4-0.4-0.6c-0.8-1-2-2.6-0.6-3.8c0.6-0.5,1.3-0.7,2-0.6
					c2.1,0.3,4.3,2.9,5.5,5c3.3,5.7,9.9,7,16,7.5c3.2,0.3,5-1.4,5.5-5.2c0.7-3.7,1.7-7.4,3.1-10.9l3.3-8.6c0.1-0.3,0.3-0.5,0.6-0.5
					c0.3,0,0.6,0.1,0.8,0.3c0.8,0.9,1.5,1.9,2.1,3l0,0c4.3,7.9,4.6,25.8,0.5,33.4c-1.4,2.6-3.1,4.1-5.3,4.3
					C194.9,334.1,194.3,334.2,193.7,334.2z M152.7,308c-0.2,0-0.3,0.1-0.5,0.3c-0.3,0.4-0.2,2.4,0.6,3.9c2.7,4.7,9.3,6.7,13.2,7.8
					c2.9,0.8,6.1,2.9,9.5,5.1c5.9,3.8,12.7,8.2,19.8,7.4c1.5-0.2,2.9-1.3,4-3.4c3.8-7.3,3.6-24.3-0.5-31.9l0,0
					c-0.3-0.5-0.6-1.1-1-1.6l-2.7,7.3c-1.3,3.4-2.3,7-3,10.6c-0.9,5.9-4.5,6.9-7.3,6.6c-6.4-0.6-13.5-2-17.2-8.3
					c-1.3-2.2-3.2-4-4.3-4.2c-0.3,0-0.5,0-0.7,0.2c0,0,0,0,0,0c-0.1,0.3,0.6,1.2,0.9,1.5c0.3,0.4,0.6,0.8,0.8,1.1
					c0.4,0.8,0.2,1.3,0.1,1.5c-0.2,0.3-0.7,0.7-1.8,0.5c-2.9-0.4-5.3-1.9-7.1-3C153.9,308.4,153.1,308,152.7,308z M162.9,311.2
					L162.9,311.2L162.9,311.2z M163.2,310.8C163.2,310.8,163.2,310.8,163.2,310.8L163.2,310.8z"/>
			</g>
		</g>
		<g>
			<g>
				<path class="st2" d="M158.4,266.5l1.1,14.5l-4.8,1.2c-1.6,0.4-1.8,2.7-0.3,3.4c4.4,1.9,11.9,3.9,20.8,0.6
					c1.5-0.6,1.7-2.7,0.3-3.5l-3.5-2l-3.6-17L158.4,266.5z"/>
				<path d="M165.5,288.8c-4.6,0-8.5-1.2-11.4-2.4c-1-0.5-1.6-1.5-1.5-2.6c0.1-1.1,0.9-2,2-2.3l4.1-1.1l-1-13.8
					c0-0.4,0.2-0.7,0.6-0.8l10.1-2.8c0.2-0.1,0.4,0,0.6,0.1c0.2,0.1,0.3,0.3,0.4,0.5l3.5,16.6l3.2,1.8c0.9,0.5,1.5,1.5,1.4,2.6
					c-0.1,1.1-0.8,2-1.8,2.4C171.9,288.2,168.6,288.8,165.5,288.8z M159.3,267.1l1,13.8c0,0.4-0.2,0.8-0.6,0.9l-4.8,1.2
					c-0.6,0.2-0.7,0.7-0.7,0.9c0,0.2,0,0.7,0.6,1c4.5,2,11.7,3.7,20.2,0.5c0.4-0.2,0.7-0.5,0.7-1c0-0.4-0.2-0.8-0.6-1.1l-3.5-2
					c-0.2-0.1-0.3-0.3-0.4-0.5l-3.4-16.1L159.3,267.1z"/>
			</g>
			<g>
				<path class="st2" d="M171.6,265.8c0,0,4.5-0.2,5-3.8c0.8-5.5-3.7-4.4-3.7-4.4s0.5-4.7-5.7-4.4c-3.9,0.2-7.2,0.6-9.3,0.8
					c-1.5,0.2-2.7,1.3-3,2.8c-0.5,2.9-1.3,7.9-0.8,12c0.4,3.7,1.8,6.6,5.3,6.4C168.7,274.6,171.6,265.8,171.6,265.8L171.6,265.8z"/>
				<path d="M159,276c-2.3,0-5.1-1.3-5.8-7.1c-0.5-4,0.2-8.9,0.8-12.2c0.3-1.9,1.8-3.3,3.7-3.5c2.1-0.2,5.4-0.6,9.4-0.8
					c2.4-0.1,4.2,0.4,5.3,1.6c0.8,0.9,1.1,1.9,1.2,2.7c0.8,0,1.8,0.2,2.6,0.9c1,0.9,1.4,2.5,1.1,4.5c-0.4,3.1-3.3,4.2-5.2,4.5
					c-0.8,2-4.3,8.9-12.8,9.4C159.2,276,159.1,276,159,276z M167.8,254c-0.2,0-0.4,0-0.7,0c-3.9,0.2-7.2,0.6-9.3,0.8
					c-1.2,0.1-2.1,1-2.3,2.1c-0.5,2.7-1.3,7.7-0.8,11.7c0.7,5.9,3.5,5.7,4.4,5.7c8.8-0.5,11.6-8.7,11.6-8.8c0.1-0.3,0.4-0.5,0.7-0.6
					c0.2,0,3.8-0.2,4.2-3.1c0.1-1,0.2-2.4-0.6-3.1c-0.8-0.7-2.1-0.4-2.1-0.4c-0.3,0.1-0.5,0-0.7-0.2c-0.2-0.2-0.3-0.4-0.3-0.7
					c0,0,0.1-1.4-0.8-2.4C170.5,254.3,169.4,254,167.8,254z"/>
			</g>
		</g>
	</g>
</g>
</svg>
