<svg width="87" height="123" viewBox="0 0 87 123" fill="none" xmlns="http://www.w3.org/2000/svg">
<path d="M68.797 122.222H18.7258C16.6846 122.215 14.7208 121.44 13.225 120.052C11.7292 118.663 10.8109 116.762 10.6529 114.727L5.67067 46.4855C5.65395 46.2571 5.68238 46.0277 5.75433 45.8104C5.82628 45.593 5.94034 45.3919 6.08999 45.2186C6.23964 45.0454 6.42196 44.9032 6.62654 44.8004C6.83112 44.6976 7.05394 44.6361 7.2823 44.6193C7.51065 44.6026 7.74006 44.6311 7.95742 44.703C8.17479 44.775 8.37586 44.889 8.54914 45.0387C8.72243 45.1883 8.86454 45.3706 8.96737 45.5752C9.0702 45.7798 9.13172 46.0026 9.14844 46.231L14.1237 114.465C14.2122 115.624 14.7343 116.708 15.5859 117.499C16.4376 118.291 17.5562 118.732 18.7188 118.736H68.797C69.9595 118.732 71.0779 118.291 71.9292 117.499C72.7806 116.708 73.3023 115.624 73.3904 114.465L78.3639 46.231C78.3977 45.7686 78.6137 45.3386 78.9645 45.0356C79.1382 44.8855 79.3397 44.7712 79.5576 44.699C79.7755 44.6268 80.0055 44.5983 80.2344 44.615C80.4633 44.6317 80.6867 44.6933 80.8918 44.7964C81.0969 44.8994 81.2797 45.0419 81.4298 45.2156C81.5798 45.3893 81.6942 45.5908 81.7664 45.8087C81.8386 46.0266 81.8671 46.2566 81.8504 46.4855L76.87 114.72C76.7135 116.756 75.796 118.659 74.3 120.049C72.804 121.439 70.8393 122.215 68.797 122.222V122.222Z" fill="#F8BC26"/>
<path d="M81.3993 48.1013H6.11906C4.70087 48.0999 3.34114 47.5361 2.33817 46.5334C1.3352 45.5308 0.770889 44.1712 0.769043 42.753V34.9642C0.770889 33.5461 1.3352 32.1865 2.33817 31.1839C3.34114 30.1812 4.70087 29.6174 6.11906 29.616H81.3993C82.8173 29.6174 84.1769 30.1813 85.1796 31.184C86.1822 32.1867 86.7462 33.5462 86.7476 34.9642V42.753C86.7462 44.1711 86.1822 45.5306 85.1796 46.5333C84.1769 47.536 82.8173 48.0999 81.3993 48.1013ZM6.11906 33.1094C5.62526 33.1099 5.1518 33.3061 4.80247 33.6551C4.45314 34.0041 4.25645 34.4774 4.25553 34.9712V42.76C4.25691 43.2537 4.45375 43.7267 4.80298 44.0756C5.15221 44.4245 5.6254 44.6209 6.11906 44.6218H81.3993C81.8928 44.6209 82.3658 44.4244 82.7147 44.0755C83.0637 43.7265 83.2601 43.2535 83.2611 42.76V34.9642C83.2606 34.4706 83.0643 33.9973 82.7153 33.6483C82.3662 33.2992 81.8929 33.1029 81.3993 33.1025L6.11906 33.1094Z" fill="#F8BC26"/>
<path d="M80.1083 33.1025H7.41503C7.13687 33.1024 6.86277 33.0358 6.61563 32.9081C6.36849 32.7805 6.15548 32.5955 5.9944 32.3688C5.83332 32.142 5.72885 31.88 5.68971 31.6046C5.65057 31.3292 5.6779 31.0484 5.76941 30.7857L14.5466 5.57147C15.0945 4.00209 16.1164 2.64174 17.4712 1.6786C18.826 0.715453 20.4466 0.197124 22.1088 0.195312H65.4093C67.0718 0.196762 68.6928 0.714924 70.0479 1.67809C71.403 2.64126 72.4253 4.00181 72.9732 5.57147L81.7487 30.7857C81.84 31.048 81.8674 31.3283 81.8286 31.6033C81.7897 31.8783 81.6857 32.14 81.5252 32.3666C81.3647 32.5933 81.1524 32.7783 80.9059 32.9063C80.6595 33.0343 80.386 33.1016 80.1083 33.1025V33.1025ZM9.87475 29.616H77.6503L69.6802 6.71679C69.3701 5.83098 68.7927 5.06326 68.0277 4.51963C67.2627 3.97599 66.3478 3.68324 65.4093 3.6818H22.1088C21.1706 3.6836 20.2561 3.97652 19.4914 4.52013C18.7267 5.06374 18.1496 5.83126 17.8396 6.71679L9.87475 29.616Z" fill="#F8BC26"/>
<path d="M68.7771 33.1027H18.7461C18.4679 33.1026 18.1938 33.0359 17.9467 32.9083C17.6995 32.7806 17.4865 32.5957 17.3255 32.3689C17.1644 32.1422 17.0599 31.8801 17.0208 31.6047C16.9816 31.3293 17.009 31.0486 17.1005 30.7859L22.8776 14.1989C23.1509 13.4158 23.661 12.7371 24.3372 12.2567C25.0134 11.7763 25.8222 11.5181 26.6517 11.5178H60.8663C61.6958 11.5179 62.5048 11.776 63.181 12.2564C63.8573 12.7368 64.3673 13.4157 64.6404 14.1989L70.414 30.7859C70.5053 31.0479 70.5327 31.3279 70.4941 31.6026C70.4554 31.8773 70.3517 32.1388 70.1916 32.3654C70.0315 32.592 69.8196 32.7771 69.5736 32.9053C69.3276 33.0335 69.0546 33.1012 68.7771 33.1027ZM21.2128 29.6162H66.3157L61.3474 15.3442C61.3138 15.2431 61.2493 15.155 61.163 15.0924C61.0767 15.0299 60.9729 14.996 60.8663 14.9956H26.6517C26.5451 14.996 26.4413 15.0299 26.355 15.0924C26.2686 15.155 26.2041 15.2431 26.1706 15.3442L21.2128 29.6162Z" fill="#F8BC26"/>
<path d="M26.6698 88.8689C26.2712 88.8686 25.8848 88.7318 25.5749 88.4812C25.265 88.2306 25.0503 87.8814 24.9666 87.4917C24.0784 83.3842 24.5604 79.0987 26.3389 75.2912C28.1175 71.4836 31.0945 68.3636 34.8146 66.4087C38.5347 64.4537 42.7929 63.7715 46.9375 64.4663C51.0821 65.1612 54.8849 67.1949 57.764 70.2562C57.9229 70.4226 58.0474 70.6188 58.1301 70.8335C58.2129 71.0482 58.2523 71.2771 58.2461 71.5072C58.24 71.7372 58.1883 71.9637 58.0942 72.1736C58.0001 72.3836 57.8653 72.5728 57.6977 72.7304C57.53 72.888 57.3329 73.0109 57.1175 73.092C56.9022 73.173 56.6729 73.2106 56.443 73.2026C56.213 73.1946 55.9869 73.1412 55.7777 73.0454C55.5685 72.9496 55.3804 72.8134 55.2241 72.6445C53.758 71.0732 51.9828 69.8219 50.0101 68.9693C48.0373 68.1167 45.9096 67.6812 43.7605 67.6902C39.588 67.6948 35.5876 69.3544 32.6372 72.3048C29.6867 75.2553 28.0271 79.2556 28.0225 83.4282C28.0213 84.5478 28.1381 85.6645 28.3712 86.7596C28.4679 87.2112 28.3815 87.6829 28.1308 88.0708C27.8801 88.4588 27.4856 88.7314 27.0341 88.8288C26.9145 88.8556 26.7923 88.869 26.6698 88.8689V88.8689Z" fill="#F8BC26"/>
<path d="M43.7601 102.641C41.1371 102.636 38.5425 102.097 36.1348 101.056C33.7272 100.015 31.5569 98.494 29.7567 96.5863C29.5977 96.4199 29.4733 96.2238 29.3906 96.0091C29.3078 95.7944 29.2684 95.5654 29.2746 95.3354C29.2807 95.1054 29.3324 94.8789 29.4265 94.6689C29.5206 94.459 29.6554 94.2698 29.823 94.1121C29.9906 93.9545 30.1878 93.8316 30.4031 93.7506C30.6185 93.6696 30.8477 93.6319 31.0777 93.6399C31.3076 93.6479 31.5337 93.7014 31.7429 93.7971C31.9521 93.8929 32.1403 94.0292 32.2966 94.1981C33.7626 95.7696 35.5377 97.0212 37.5104 97.874C39.4832 98.7269 41.6109 99.1627 43.7601 99.1541C47.9327 99.1495 51.933 97.4899 54.8835 94.5395C57.8339 91.589 59.4935 87.5887 59.4981 83.4161C59.498 82.5577 59.4286 81.7008 59.2907 80.8535C59.2207 80.3991 59.3331 79.9354 59.6034 79.5634C59.8737 79.1915 60.28 78.9414 60.7338 78.8676C61.1876 78.7938 61.6522 78.9023 62.0265 79.1694C62.4007 79.4366 62.6542 79.8408 62.7318 80.294C62.8996 81.3262 62.9842 82.3703 62.9846 83.4161C62.9781 88.5128 60.9506 93.3988 57.3467 97.0027C53.7429 100.607 48.8568 102.634 43.7601 102.641V102.641Z" fill="#F8BC26"/>
<path d="M48.8748 74.6842C48.4437 74.6813 48.0289 74.5186 47.7107 74.2278C47.3925 73.9369 47.1933 73.5384 47.1517 73.1093C47.1101 72.6802 47.229 72.2508 47.4854 71.9042C47.7418 71.5576 48.1176 71.3184 48.5401 71.2326L54.4462 70.0681L53.2835 64.162C53.2011 63.7114 53.2995 63.2465 53.5573 62.8678C53.815 62.4891 54.2115 62.2271 54.661 62.1384C55.1104 62.0498 55.5767 62.1416 55.9589 62.394C56.3412 62.6465 56.6087 63.0393 56.7037 63.4874L58.2046 71.1036C58.249 71.3283 58.2487 71.5596 58.2037 71.7841C58.1586 72.0087 58.0698 72.2222 57.9422 72.4124C57.8147 72.6027 57.6509 72.7659 57.4602 72.8928C57.2695 73.0196 57.0557 73.1077 56.8309 73.1519L49.213 74.6511C49.1018 74.6741 48.9884 74.6852 48.8748 74.6842V74.6842Z" fill="#F8BC26"/>
<path d="M32.5183 104.757C32.1147 104.756 31.7238 104.616 31.4123 104.359C31.1007 104.103 30.8878 103.746 30.8099 103.35L29.309 95.7339C29.2193 95.2804 29.3135 94.8098 29.5708 94.4256C29.828 94.0415 30.2274 93.7753 30.6809 93.6856L38.2989 92.1864C38.5268 92.1333 38.763 92.1266 38.9935 92.1666C39.224 92.2067 39.4441 92.2927 39.6406 92.4197C39.8372 92.5466 40.0061 92.7118 40.1375 92.9054C40.2689 93.099 40.3599 93.3171 40.4052 93.5466C40.4505 93.7761 40.4491 94.0124 40.4012 94.2414C40.3532 94.4704 40.2596 94.6874 40.1261 94.8795C39.9925 95.0716 39.8216 95.2348 39.6236 95.3594C39.4256 95.484 39.2045 95.5675 38.9736 95.6049L33.0657 96.7694L34.2302 102.677C34.2757 102.902 34.2766 103.133 34.2327 103.358C34.1888 103.583 34.1011 103.797 33.9745 103.987C33.8479 104.178 33.6849 104.342 33.4949 104.47C33.3048 104.598 33.0915 104.687 32.867 104.733C32.7519 104.752 32.6351 104.761 32.5183 104.757V104.757Z" fill="#F8BC26"/>
</svg>
