<?xml version="1.0" encoding="utf-8"?>
<!-- Generator: Adobe Illustrator 23.0.3, SVG Export Plug-In . SVG Version: 6.00 Build 0)  -->
<svg version="1.1" id="Capa_1" xmlns="http://www.w3.org/2000/svg" xmlns:xlink="http://www.w3.org/1999/xlink" x="0px" y="0px"
	 viewBox="0 0 86 96" style="enable-background:new 0 0 86 96;" xml:space="preserve">
<style type="text/css">
	.st0{fill:#F7BE00;}
</style>
<path class="st0" d="M32,48h-6.5V29c0-0.8,0.3-1.6,0.8-2.2l4.2-5c1.4-1.7,1.9-4.1,1.1-6.2l-4-11.4C26.6,1.7,24.2,0,21.6,0h-5.4
	c-2.7,0-5,1.7-5.9,4.2l-4,11.4c-0.7,2.1-0.3,4.5,1.1,6.2l4.2,5c0.5,0.6,0.8,1.4,0.8,2.2v2.7c0,0.8,0.6,1.4,1.4,1.4
	c0.8,0,1.4-0.6,1.4-1.4V29c0-1.5-0.5-2.9-1.5-4.1l-4.2-5c-0.8-0.9-1-2.3-0.6-3.4l4-11.4c0.5-1.4,1.8-2.3,3.3-2.3h5.4
	c1.5,0,2.8,0.9,3.3,2.3l4,11.4c0.4,1.2,0.2,2.5-0.6,3.4l-4.2,5c-1,1.1-1.5,2.6-1.5,4.1V48h-7.5V37.3c0-0.8-0.6-1.4-1.4-1.4
	c-0.8,0-1.4,0.6-1.4,1.4V48H5.8c-2.8,0-5.2,2.3-5.2,5.2c0,2.7,2.1,4.9,4.7,5.1C4.7,61.4,3.6,68.2,3,74.9c-0.5,5.3,0.3,10.7,2.3,15.6
	l0.1,0.2c1.3,3.3,4.5,5.4,8,5.4h11.1c3.5,0,6.7-2.1,8-5.4l0.1-0.2c2-4.9,2.7-10.3,2.3-15.6c-0.6-6.7-1.8-13.5-2.3-16.5
	c2.6-0.2,4.7-2.5,4.7-5.1C37.1,50.3,34.8,48,32,48z M29.9,89.4l-0.1,0.2c-0.9,2.2-3,3.6-5.4,3.6H13.3c-2.4,0-4.5-1.4-5.4-3.6
	l-0.1-0.2C6.1,84.9,5.4,80,5.8,75.1c0.6-7,1.9-14,2.4-16.7h21.4c0.5,2.7,1.8,9.8,2.4,16.7C32.4,80,31.7,84.9,29.9,89.4z M32,55.6
	H5.8c-1.3,0-2.4-1.1-2.4-2.4c0-1.3,1.1-2.4,2.4-2.4H32c1.3,0,2.4,1.1,2.4,2.4C34.3,54.5,33.3,55.6,32,55.6z"/>
<path class="st0" d="M84.3,69.2c-0.7-0.7-1.5-1.3-2.5-2c-0.6-0.5-1.5-0.3-2,0.3c-0.5,0.6-0.3,1.5,0.3,2c0.8,0.6,1.6,1.2,2.2,1.8
	c0.1,0.1,0.1,0.2,0.1,0.3c0.2,2.7,0.3,12.2-4.3,20C78,91.8,77,92.7,74.5,93c0.4-3,1.1-9.1-0.3-13.4c-0.1-0.4-0.4-0.7-0.7-0.8
	c-0.2-0.1-3.9-1.9-7.7-1.9c-3.8,0-7.6,1.8-7.7,1.9c-0.3,0.2-0.6,0.5-0.7,0.8C55.8,84,56.4,90.1,56.9,93c-2.5-0.3-3.6-1.3-3.8-1.5
	c-4.6-7.8-4.4-17.3-4.3-20c0-0.1,0.1-0.2,0.1-0.3C52.9,67.6,59,65,59.1,65c0.5-0.2,0.9-0.7,0.9-1.3V32.2c0-0.6-0.3-1.1-0.9-1.3
	c-0.1,0-6.2-2.6-10.1-6.2c-0.1-0.1-0.1-0.2-0.1-0.3c-0.2-2.7-0.3-12.2,4.3-20c0.2-0.2,1.3-1.2,3.8-1.5c-0.4,3-1.1,9.1,0.3,13.4
	c0.1,0.4,0.4,0.7,0.7,0.8c0.2,0.1,3.9,1.9,7.7,1.9c3.8,0,7.6-1.8,7.7-1.9c0.3-0.2,0.6-0.5,0.7-0.8c1.4-4.3,0.8-10.4,0.3-13.4
	C77,3.2,78,4.2,78.3,4.4c4.6,7.8,4.4,17.3,4.3,20c0,0.1-0.1,0.2-0.1,0.3c-3.9,3.6-10.1,6.2-10.1,6.2c-0.5,0.2-0.9,0.7-0.9,1.3v31.5
	c0,0.6,0.3,1.1,0.9,1.3c0,0,1.4,0.6,3.3,1.6c0.7,0.4,1.5,0.1,1.9-0.6c0.4-0.7,0.1-1.5-0.6-1.9c-1.1-0.6-2.1-1.1-2.7-1.4V33.2
	c1.9-0.9,6.7-3.2,10.1-6.4c0.6-0.6,1-1.3,1-2.2c0.2-3,0.3-13.2-4.7-21.8c0,0-0.1-0.1-0.1-0.1C80.3,2.4,78.3,0,72.8,0
	c-0.4,0-0.8,0.2-1.1,0.5c-0.3,0.3-0.4,0.8-0.3,1.2c0,0.1,1.6,8,0.2,13.2c-1.1,0.4-3.6,1.4-6,1.4c-2.4,0-4.9-0.9-6-1.4
	c-1.4-5.1,0.2-13.1,0.2-13.2c0.1-0.4,0-0.8-0.3-1.2C59.4,0.2,59,0,58.5,0C53,0,51,2.4,50.8,2.7c0,0-0.1,0.1-0.1,0.1
	c-5.1,8.5-4.9,18.8-4.7,21.8c0.1,0.8,0.4,1.6,1,2.2c3.4,3.1,8.1,5.5,10.1,6.4v29.6c-1.9,0.9-6.7,3.2-10.1,6.4c-0.6,0.6-1,1.3-1,2.2
	c-0.2,3-0.3,13.2,4.7,21.8c0,0,0.1,0.1,0.1,0.1C51,93.5,53,96,58.5,96c0.4,0,0.8-0.2,1.1-0.5c0.3-0.3,0.4-0.8,0.3-1.2
	c0-0.1-1.6-8-0.2-13.2c1.1-0.4,3.6-1.4,6-1.4c2.4,0,4.9,0.9,6,1.4c1.4,5.1-0.2,13.1-0.2,13.2c-0.1,0.4,0,0.8,0.3,1.2
	c0.3,0.3,0.7,0.5,1.1,0.5c5.5,0,7.5-2.4,7.7-2.7c0,0,0.1-0.1,0.1-0.1c5.1-8.5,4.9-18.8,4.7-21.8C85.3,70.5,84.9,69.7,84.3,69.2z"/>
</svg>
