<?xml version="1.0" encoding="utf-8"?>
<!-- Generator: Adobe Illustrator 23.0.3, SVG Export Plug-In . SVG Version: 6.00 Build 0)  -->
<svg version="1.1" id="Capa_1" xmlns="http://www.w3.org/2000/svg" xmlns:xlink="http://www.w3.org/1999/xlink" x="0px" y="0px"
	 viewBox="0 0 116 106" style="enable-background:new 0 0 116 106;" xml:space="preserve">
<style type="text/css">
	.st0{fill:#F7BE00;}
</style>
<path class="st0" d="M66.9,58.7c-1.2,0-2.3,1-2.3,2.3c0,1.2,1,2.3,2.3,2.3c1.2,0,2.3-1,2.3-2.3C69.1,59.7,68.1,58.7,66.9,58.7z"/>
<path class="st0" d="M87,70.9c-2.1-2.1-7.3-7.8-11.3-17.1c-3-7.2-10-11.9-17.9-11.9C50,41.9,43,46.5,40,53.8
	c-5.1,11.7-12,17.8-12.1,17.9c0,0,0,0,0,0c-4.1,3.7-6.4,8.9-6.4,14.4c0,6.7,3.2,12.6,8.7,16.3c5.2,3.4,11.6,4.5,17.6,2.8
	c3-0.8,6.5-1.3,10.1-1.3c3.6,0,7.2,0.4,10.2,1.3c5.8,1.6,12.2,0.7,17.5-2.7c5.6-3.7,8.9-9.6,8.9-16.4C94.4,80.1,91.7,74.6,87,70.9z
	 M83,98.7c-4.1,2.7-9.1,3.5-13.8,2.2c-3.4-1-7.4-1.5-11.4-1.5c-4,0-7.9,0.5-11.3,1.4c-4.7,1.3-9.8,0.5-13.9-2.2
	c-4.3-2.8-6.7-7.3-6.7-12.5c0-4.2,1.8-8.2,4.9-11c0.5-0.4,7.8-7,13.3-19.5c0,0,0,0,0,0c2.3-5.5,7.7-9.1,13.7-9.1
	c6,0,11.4,3.6,13.7,9.1c0,0,0,0,0,0C76,65.7,81.7,72,83.9,74.2c0.1,0.1,0.1,0.1,0.2,0.2c3.6,2.8,5.7,7.1,5.7,11.7
	C89.9,91.3,87.4,95.8,83,98.7z"/>
<path class="st0" d="M73,67.7c-0.7-1-2.1-1.3-3.1-0.7c-1,0.7-1.3,2.1-0.7,3.1c3.4,5.3,6.7,8.8,8.3,10.4c0.9,0.9,2.3,0.9,3.2,0
	c0.9-0.9,0.9-2.3,0-3.2C79.2,75.9,76.2,72.7,73,67.7z"/>
<path class="st0" d="M50.5,30.8C52.7,27.1,53.6,22,53,17c-1.1-9.7-7.8-17.9-15.3-17c-3.4,0.4-6.4,2.6-8.5,6.2
	c-2.2,3.8-3.1,8.8-2.5,13.8C28.6,36,43.4,43.3,50.5,30.8z M33.1,8.6c1.2-2.2,3.2-4,5.7-4c4.4,0,8.9,6,9.7,13c0.5,4.1-0.2,8.1-1.9,11
	c-5.2,9.1-14.2,1.4-15.4-9C30.7,15.6,31.4,11.5,33.1,8.6z"/>
<path class="st0" d="M28.9,55.1c0.7-4-0.1-8.5-2.2-12.5c-2.1-4.1-5.3-7.3-8.9-9.1c-3.9-1.9-7.9-2-11.2-0.3c-3.3,1.7-5.6,5-6.3,9.3
	c-0.7,4,0.1,8.5,2.2,12.5c2.1,4.1,5.3,7.3,8.9,9.1c3.6,1.8,7.7,2.1,11.2,0.3C26,62.7,28.2,59.4,28.9,55.1z M20.5,60.4
	c-2,1.1-4.6,0.9-7.2-0.3c-2.8-1.4-5.3-3.9-6.9-7.1c-1.7-3.2-2.3-6.7-1.8-9.7c0.5-2.8,1.8-5,3.9-6c0,0,0,0,0,0
	c2.3-1.2,4.9-0.8,7.2,0.3c2.8,1.4,5.3,3.9,6.9,7.1c1.7,3.2,2.3,6.7,1.8,9.7C24,57.3,22.6,59.4,20.5,60.4z"/>
<path class="st0" d="M74.8,37.2c6.8,0,13.1-7.5,14.2-17C90.2,10,85.1,0,76.9,0c-6.8,0-13.1,7.5-14.2,17
	C61.5,27.3,66.6,37.2,74.8,37.2z M67.2,17.6c0.8-7.1,5.3-13,9.7-13c0.2,0,0.4,0,0.6,0c2.4,0.3,4.3,2.4,5.4,4.5
	c1.5,2.9,2.1,6.8,1.6,10.5c-0.9,7.3-5.7,13.6-10.3,13c0,0,0,0,0,0c-2.1-0.2-4-1.9-5.3-4.5C67.4,25.2,66.8,21.4,67.2,17.6z"/>
<path class="st0" d="M115.4,42.6c-1.4-8.8-9.4-13-17.5-9c-7.6,3.7-12.5,13.3-11.2,21.6c1.4,8.9,9.5,13,17.5,9
	C111.8,60.5,116.8,50.9,115.4,42.6z M102.3,60.1c-2.6,1.3-5.1,1.4-7.2,0.3v0c-2-1.1-3.4-3.2-3.9-6c-1-6.4,2.9-14,8.7-16.8
	c5.3-2.6,10.1-0.2,11,5.7C112,49.6,108.1,57.3,102.3,60.1z"/>
</svg>
