<svg width="133" height="98" viewBox="0 0 133 98" fill="none" xmlns="http://www.w3.org/2000/svg">
<path d="M126.35 0H6.65C2.97726 0 0 2.97726 0 6.65V77.5833C0 81.2561 2.97726 84.2333 6.65 84.2333H44.6259L38.7141 93.1H26.6C25.3758 93.1 24.3833 94.0925 24.3833 95.3167C24.3833 96.5408 25.3758 97.5333 26.6 97.5333H106.4C107.624 97.5333 108.617 96.5408 108.617 95.3167C108.617 94.0925 107.624 93.1 106.4 93.1H94.2859L88.3741 84.2333H126.35C130.023 84.2333 133 81.2561 133 77.5833V6.65C133 2.97726 130.023 0 126.35 0ZM88.9571 93.1H44.0429L49.9526 84.2333H83.0474L88.9571 93.1ZM128.567 77.5833C128.567 78.8075 127.574 79.8 126.35 79.8H6.65C5.42585 79.8 4.43333 78.8075 4.43333 77.5833V6.65C4.43333 5.42585 5.42585 4.43333 6.65 4.43333H126.35C127.574 4.43333 128.567 5.42585 128.567 6.65V77.5833Z" fill="#F8BC26"/>
</svg>
