<?xml version="1.0" encoding="utf-8"?>
<!-- Generator: Adobe Illustrator 23.0.3, SVG Export Plug-In . SVG Version: 6.00 Build 0)  -->
<svg version="1.1" id="Capa_1" xmlns="http://www.w3.org/2000/svg" xmlns:xlink="http://www.w3.org/1999/xlink" x="0px" y="0px"
	 viewBox="0 0 96 86" style="enable-background:new 0 0 96 86;" xml:space="preserve">
<style type="text/css">
	.st0{fill:#F7BE00;}
</style>
<path class="st0" d="M85.9,0.3H23.8c-5.4,0-9.8,4.3-9.8,9.5l-0.4,54H1.5c-0.9,0-1.5,0.8-1.5,1.6v7.4c0,7,5.6,12.7,12.4,13V86h52.3
	v-0.1c0.4,0,0.6,0.1,0.9,0.1h0c7.3,0,13.1-5.9,13.1-13.1V25.7h15.8c0.9,0,1.5-0.8,1.5-1.6V10.4C96,4.9,91.5,0.4,85.9,0.3L85.9,0.3z
	 M13.1,82.9L13.1,82.9c-5.5,0-10-4.5-10-10v-6h49.4v5.9c0,3.5,1.4,6.8,3.8,9.2c0.3,0.3,0.5,0.4,0.8,0.8H13.1z M75.6,72.9
	c0,5.5-4.4,10-10,10h0c-5.6,0-10-4.5-10-10v-7.4c0-0.9-0.7-1.6-1.6-1.6H16.7l0.4-54c0-3.6,3-6.5,6.7-6.5h54.7
	c-1.8,1.9-2.9,4.4-2.9,7.1V72.9z M92.9,10.5v12.2H78.7V10.5c0-3.8,3.2-7.1,7.1-7.1h0C89.8,3.5,92.9,6.6,92.9,10.5L92.9,10.5z"/>
<path class="st0" d="M36.5,38.2l8,5.4c0.5,0.4,1.2,0.4,1.7,0l8-5.4c2.8-1.9,4.8-5.8,4.8-9.1v-11c0-0.6-0.3-1.1-0.8-1.4L46,10.8
	c-0.4-0.2-0.9-0.2-1.4,0l-12.2,5.9c-0.5,0.3-0.8,0.8-0.8,1.4v11C31.7,32.4,33.7,36.3,36.5,38.2z M34.8,19l10.6-5.2L56,19.1v10
	c0,2.3-1.5,5.3-3.5,6.6l-7.1,4.8l-7.1-4.8c-1.9-1.3-3.5-4.2-3.5-6.6V19z"/>
<path class="st0" d="M42.7,31.4c0.3,0.3,0.7,0.5,1.1,0.5h0c0.4,0,0.8-0.2,1.1-0.5l6.2-6.1c0.6-0.6,0.6-1.6,0-2.2
	c-0.6-0.6-1.6-0.6-2.2,0l-5.1,5l-2-2c-0.6-0.6-1.6-0.6-2.2,0c-0.6,0.6-0.6,1.6,0,2.2L42.7,31.4z"/>
<path class="st0" d="M64.7,48H27.4c-0.9,0-1.6,0.7-1.6,1.5c0,0.8,0.7,1.5,1.6,1.5h37.3c0.9,0,1.6-0.7,1.6-1.5
	C66.3,48.7,65.6,48,64.7,48z"/>
<path class="st0" d="M64.7,55.1H27.4c-0.9,0-1.6,0.7-1.6,1.5c0,0.8,0.7,1.5,1.6,1.5h37.3c0.9,0,1.6-0.7,1.6-1.5
	C66.3,55.8,65.6,55.1,64.7,55.1z"/>
</svg>
