<svg width="104" height="113" viewBox="0 0 104 113" fill="none" xmlns="http://www.w3.org/2000/svg">
<path d="M2 38.5C9.43443 17.2453 29.6656 2 53.4574 2C73.1097 2 90.3326 12.4017 99.9208 28M5.5473 82.5C14.7799 99.4769 32.773 111 53.4574 111C74.1419 111 92.135 99.4769 101.368 82.5" stroke="#F8BC26" stroke-width="4" stroke-linecap="round"/>
<path d="M87.75 57.25H85.5V48.25C85.5 45.775 83.475 43.75 81 43.75H76.5V41.5C76.5 39.025 74.475 37 72 37H65.25C62.775 37 60.75 39.025 60.75 41.5V57.25H47.25V41.5C47.25 39.025 45.225 37 42.75 37H36C33.525 37 31.5 39.025 31.5 41.5V43.75H27C24.525 43.75 22.5 45.775 22.5 48.25V57.25H20.25C19.0125 57.25 18 58.2625 18 59.5C18 60.7375 19.0125 61.75 20.25 61.75H22.5V70.75C22.5 73.225 24.525 75.25 27 75.25H31.5V77.5C31.5 79.975 33.525 82 36 82H42.75C45.225 82 47.25 79.975 47.25 77.5V61.75H60.75V77.5C60.75 79.975 62.775 82 65.25 82H72C74.475 82 76.5 79.975 76.5 77.5V75.25H81C83.475 75.25 85.5 73.225 85.5 70.75V61.75H87.75C88.9875 61.75 90 60.7375 90 59.5C90 58.2625 88.9875 57.25 87.75 57.25ZM27 70.75V48.25H31.5V70.75H27ZM42.75 77.5H36V73V46.0563C36 46.0281 36 46.0281 36 46C36 45.9719 36 45.9719 36 45.9437V41.5H42.75V77.5ZM72 77.5H65.25V59.5281V59.5V59.4719V41.5H72V77.5ZM81 70.75H76.5V48.25H81V70.75Z" fill="black"/>
</svg>
