<svg width="99" height="99" viewBox="0 0 99 99" fill="none" xmlns="http://www.w3.org/2000/svg">
<path d="M76.6552 95.5202L66.2706 85.1343C65.9079 84.7718 65.4161 84.568 64.9033 84.568C64.9024 84.568 64.9014 84.568 64.9006 84.568L59.329 84.5759C59.3168 84.5759 59.3046 84.5759 59.2924 84.5759C56.2169 84.5759 53.1359 84.0103 50.2523 82.9312L53.5957 80.6892C54.9643 79.7715 55.8845 78.3741 56.1871 76.7543C56.4895 75.1344 56.1357 73.4989 55.1905 72.1489C54.0153 70.4705 52.1227 69.5594 50.1957 69.5594C50.1643 69.5594 50.133 69.5596 50.1015 69.5602L57.8028 61.8589C60.1392 59.5223 60.1392 55.7205 57.8028 53.3839C57.2343 52.8155 56.5717 52.3756 55.8501 52.0782C56.3849 51.169 56.6709 50.1305 56.6709 49.0479C56.6709 47.4472 56.0475 45.9421 54.9158 44.8102C53.7838 43.6783 52.2789 43.0549 50.6781 43.0549C49.5955 43.0549 48.5571 43.3411 47.6478 43.8759C47.3504 43.1543 46.9105 42.4916 46.342 41.923C45.2101 40.791 43.7052 40.1676 42.1043 40.1676C40.5035 40.1676 38.9986 40.791 37.8667 41.923L35.1014 44.6882C34.8073 44.0402 34.3972 43.4431 33.879 42.9248C32.7471 41.7928 31.2422 41.1696 29.6414 41.1696C28.0405 41.1696 26.5356 41.793 25.4037 42.9248L24.178 44.1505L19.1949 39.1954C17.7474 37.7479 17.7474 35.3926 19.1949 33.9451C20.551 32.5891 22.7034 32.5036 24.16 33.688L28.9859 38.514C29.3635 38.8917 29.8583 39.0804 30.3531 39.0804C30.8479 39.0804 31.3429 38.8915 31.7204 38.514C32.4754 37.759 32.4754 36.5346 31.7204 35.7795L23.3951 27.4543C21.9476 26.0066 21.9476 23.6513 23.3951 22.2038C24.8426 20.7561 27.1981 20.7563 28.6456 22.2038L43.232 36.8183C43.6096 37.1959 44.1045 37.3846 44.5993 37.3846C45.0941 37.3846 45.5891 37.1957 45.9665 36.8183C46.7216 36.0632 46.7216 34.8389 45.9665 34.0838L34.8795 22.9685C33.6951 21.5117 33.7808 19.3595 35.1366 18.0036C36.5843 16.5561 38.9398 16.5561 40.3871 18.0036L44.4492 22.0659C45.2045 22.8212 46.4288 22.8212 47.1837 22.0659C47.9388 21.3108 47.939 20.0865 47.1837 19.3314L43.1216 15.2691C40.1661 12.3138 35.3575 12.314 32.4021 15.2691C31.4255 16.2458 30.7739 17.4253 30.4426 18.673C29.1624 17.7492 27.6302 17.2493 26.0203 17.2493C23.9957 17.2493 22.0922 18.0379 20.6606 19.4693C18.0004 22.1295 17.7362 26.2908 19.8651 29.2512C18.6172 29.5822 17.4373 30.234 16.4604 31.2108C13.6714 34.0001 13.516 38.439 15.9912 41.4138C14.7709 41.7509 13.6186 42.3961 12.6613 43.3534C9.70621 46.3087 9.70621 51.1174 12.6613 54.0729L13.5243 54.9358C10.2613 58.8537 8.48804 63.742 8.49539 68.9041L8.50003 72.1069L0.566301 80.0412C-0.188767 80.7963 -0.188767 82.0207 0.566301 82.7759C0.943932 83.1534 1.43874 83.3423 1.93355 83.3423C2.42835 83.3423 2.92335 83.1534 3.30079 82.7759L11.802 74.2745C12.1653 73.9112 12.3692 73.4181 12.3684 72.9043L12.3626 68.8989C12.3556 64.0932 14.2237 59.5745 17.622 56.1763L27.2176 46.5804C27.2176 46.5804 27.2176 46.5802 27.2178 46.5802L28.1382 45.6598C28.5396 45.2582 29.0733 45.0372 29.6412 45.0372C30.2091 45.0372 30.7427 45.2582 31.1442 45.6598C31.5458 46.0612 31.7668 46.5949 31.7668 47.1628C31.7668 47.6503 31.6028 48.1122 31.3023 48.4873L28.7463 51.0433C27.9912 51.7984 27.9912 53.0228 28.7463 53.778C28.748 53.7798 28.75 53.7811 28.7515 53.7828C28.7533 53.7846 28.7546 53.7863 28.7564 53.7881C29.134 54.1655 29.6288 54.3544 30.1236 54.3544C30.6184 54.3544 31.1134 54.1655 31.4908 53.7881L40.6008 44.6578C41.0022 44.2562 41.5359 44.0352 42.1038 44.0352C42.6717 44.0352 43.2053 44.2564 43.6067 44.6578C44.3783 45.4293 44.4306 46.651 43.7655 47.4847L34.4866 56.784C33.7315 57.539 33.7315 58.7634 34.4866 59.5187C34.8642 59.8961 35.359 60.085 35.8538 60.085C36.3486 60.085 36.8436 59.8961 37.2211 59.5187L49.1743 47.5451C49.5757 47.1435 50.1094 46.9225 50.6773 46.9225C51.2452 46.9225 51.7789 47.1437 52.1803 47.5451C53.009 48.3738 53.009 49.7223 52.1803 50.551L40.2069 62.5041C39.4518 63.2592 39.4516 64.4835 40.2069 65.2388C40.9622 65.9937 42.1865 65.9939 42.9414 65.2388L52.2408 55.9599C53.0744 55.2945 54.296 55.3469 55.0675 56.1188C55.8963 56.9474 55.8963 58.2961 55.0675 59.1246L42.0129 72.1796C41.0933 73.0991 41.0082 74.509 41.8108 75.5323C42.6133 76.5556 44.0031 76.809 45.1153 76.1348L49.0593 73.7439C50.0535 73.1408 51.3548 73.4148 52.0217 74.3675C52.3661 74.8592 52.4949 75.4548 52.3847 76.0449C52.2745 76.6346 51.9394 77.1436 51.4411 77.4777L42.3167 83.5963C39.3476 85.5874 35.8902 86.6391 32.3157 86.6391C32.3074 86.6391 32.2987 86.6391 32.2904 86.6391L26.093 86.6302C26.0921 86.6302 26.0913 86.6302 26.0903 86.6302C25.5775 86.6302 25.0856 86.834 24.7231 87.1965L16.2216 95.6979C15.4666 96.453 15.4666 97.6774 16.2216 98.4326C16.5993 98.8101 17.0941 98.999 17.5889 98.999C18.0837 98.999 18.5787 98.8101 18.9561 98.4326L26.8901 90.4987L32.285 90.5064C32.2952 90.5064 32.3051 90.5064 32.3155 90.5064C36.6593 90.5064 40.8622 89.2279 44.4703 86.8084L46.4242 85.4982C50.4169 87.4249 54.8591 88.4437 59.2915 88.4437C59.3052 88.4437 59.3197 88.4437 59.3336 88.4437L64.1026 88.4369L73.9207 98.2549C74.2983 98.6324 74.7931 98.8213 75.2879 98.8213C75.7827 98.8213 76.2777 98.6324 76.6552 98.2549C77.4102 97.4998 77.4102 96.2755 76.6552 95.5202ZM20.178 48.1513C20.1778 48.1514 20.1778 48.1515 20.1776 48.1516L16.1932 52.136L15.396 51.3388C13.9485 49.8911 13.9485 47.5358 15.396 46.0883C16.752 44.7323 18.9045 44.6468 20.3611 45.8311L21.4296 46.8996L20.178 48.1513Z" fill="#666666"/>
<path d="M98.4335 73.7433C98.0738 73.3817 97.5749 73.1768 97.0664 73.1768C96.5579 73.1768 96.059 73.3817 95.6994 73.7433C95.3397 74.1029 95.1328 74.5999 95.1328 75.1104C95.1328 75.6189 95.3397 76.1178 95.6994 76.4772C96.059 76.8369 96.5579 77.0439 97.0664 77.0439C97.5749 77.0439 98.0738 76.8371 98.4335 76.4772C98.7931 76.1156 99 75.6189 99 75.1104C99 74.5997 98.7931 74.1029 98.4335 73.7433Z" fill="#666666"/>
<path d="M93.2339 68.5428L88.6153 63.9243L88.6265 56.1064C88.6349 50.1996 86.9006 44.4845 83.6108 39.5786L75.1001 26.8868C73.9376 25.1532 72.1674 23.9874 70.1157 23.6042C68.0637 23.2209 65.9923 23.6693 64.2826 24.8666C61.4812 26.8283 60.3673 30.3675 61.3578 33.505L56.3044 28.4513C55.5493 27.6964 54.325 27.6964 53.5697 28.4513C52.8147 29.2064 52.8147 30.4307 53.5697 31.186L64.4257 42.042C65.43 43.0463 66.9705 43.1393 68.0881 42.2624C69.2057 41.3857 69.4826 39.8676 68.7461 38.6528L65.4203 33.1668C64.3762 31.4443 64.8507 29.19 66.5006 28.0346C67.3522 27.4385 68.3845 27.2152 69.4057 27.406C70.4276 27.5969 71.3091 28.1775 71.888 29.0409L80.3987 41.7326C83.2587 45.9977 84.7665 50.9661 84.7592 56.1009L84.747 64.7213C84.7462 65.235 84.95 65.7281 85.3133 66.0914L90.4994 71.2775C90.8771 71.655 91.3719 71.8439 91.8667 71.8439C92.3615 71.8439 92.8565 71.655 93.2339 71.2775C93.989 70.5225 93.989 69.2981 93.2339 68.5428Z" fill="#666666"/>
<path d="M51.7587 23.9069C51.4009 23.5472 50.9021 23.3403 50.3935 23.3403C49.8831 23.3403 49.3861 23.5472 49.0245 23.9069C48.6649 24.2665 48.458 24.7654 48.458 25.2739C48.458 25.7844 48.6649 26.2813 49.0245 26.641C49.3861 27.0006 49.8831 27.2075 50.3935 27.2075C50.9021 27.2075 51.399 27.0006 51.7587 26.641C52.1202 26.2813 52.3271 25.7825 52.3271 25.2739C52.3271 24.7654 52.1202 24.2665 51.7587 23.9069Z" fill="#666666"/>
<path d="M69.7032 53.9127C70.4583 53.1576 70.4583 51.9332 69.7032 51.178C68.9481 50.4231 67.7238 50.4231 66.9685 51.178L66.1251 52.0214C62.5143 55.6324 62.5143 61.5078 66.1251 65.1186C66.5027 65.496 66.9975 65.685 67.4923 65.685C67.9871 65.685 68.4821 65.496 68.8596 65.1186C69.6146 64.3635 69.6148 63.1392 68.8596 62.3839C66.7566 60.2809 66.7566 56.8589 68.8596 54.7559L69.7032 53.9127Z" fill="#666666"/>
<path d="M92.2902 10.4414C91.061 10.4414 89.8594 10.7902 88.8205 11.4281C87.7816 10.7902 86.5801 10.4414 85.3509 10.4414C81.6511 10.4414 78.6411 13.5065 78.6411 17.2738C78.6411 19.4088 80.1762 21.973 83.3341 25.1131C85.4603 27.2273 87.5577 28.8365 87.6461 28.9039C87.9926 29.169 88.4065 29.3015 88.8205 29.3015C89.2345 29.3015 89.6483 29.169 89.995 28.9039C90.0833 28.8365 92.1807 27.2271 94.3069 25.1131C97.4648 21.9732 98.9999 19.4088 98.9999 17.2738C98.9999 13.5063 95.9899 10.4414 92.2902 10.4414ZM88.8199 24.8942C85.5885 22.2104 82.5083 18.786 82.5083 17.2738C82.5083 15.6387 83.7835 14.3086 85.3509 14.3086C86.1305 14.3086 86.8579 14.6317 87.3993 15.2187C87.7656 15.6155 88.2807 15.8412 88.8205 15.8412C89.3604 15.8412 89.8757 15.6155 90.2417 15.2187C90.7831 14.6319 91.5105 14.3086 92.2902 14.3086C93.8575 14.3086 95.1327 15.6387 95.1327 17.2738C95.1327 18.7822 92.0516 22.2075 88.8199 24.8942Z" fill="#666666"/>
<path d="M13.649 9.14842e-09C12.4199 9.14842e-09 11.2183 0.34882 10.1794 0.986713C9.14048 0.34882 7.93895 9.14842e-09 6.70976 9.14842e-09C3.01003 -0.00019335 0 3.06475 0 6.83216C0 8.96723 1.53508 11.5314 4.69303 14.6715C6.81921 16.7857 8.91677 18.3951 9.00494 18.4625C9.35144 18.7276 9.76542 18.8601 10.1794 18.8601C10.5934 18.8601 11.0072 18.7276 11.3539 18.4625C11.4422 18.3951 13.5396 16.7857 15.6658 14.6717C18.8237 11.5316 20.3588 8.96743 20.3588 6.83235C20.3588 3.06494 17.3488 9.14842e-09 13.649 9.14842e-09ZM10.1788 14.4526C6.94721 11.7688 3.86719 8.34462 3.86719 6.83216C3.86719 5.19711 5.14239 3.86699 6.70976 3.86699C7.48939 3.86699 8.21681 4.1901 8.75821 4.77714C9.12444 5.17391 9.63955 5.39956 10.1794 5.39956C10.7193 5.39956 11.2346 5.17391 11.6006 4.77714C12.142 4.19029 12.8694 3.86699 13.649 3.86699C15.2164 3.86699 16.4916 5.19711 16.4916 6.83216C16.4916 8.34036 13.4104 11.7659 10.1788 14.4526Z" fill="#666666"/>
</svg>
