<svg xmlns="http://www.w3.org/2000/svg" viewBox="0 0 73.49 73.49"><defs><style>.cls-1{fill:#3d3d3d;}.cls-2{fill:#0093c9;}</style></defs><title>Seguro-hogar</title><g id="Capa_2" data-name="Capa 2"><g id="Capa_1-2" data-name="Capa 1"><path class="cls-1" d="M37.16,73.49A36,36,0,0,1,8.05,58.89.66.66,0,0,1,8.18,58a.67.67,0,0,1,.93.13A35,35,0,0,0,67.87,20.35.66.66,0,0,1,69,19.72,36.33,36.33,0,0,1,37.16,73.49Z"/><path class="cls-2" d="M5.28,54.65a1.49,1.49,0,0,1-1.34-.83A36.64,36.64,0,0,1,0,37.16,37.16,37.16,0,0,1,65.84,13.53a1.5,1.5,0,1,1-2.31,1.9A34.17,34.17,0,0,0,3,37.16,33.82,33.82,0,0,0,6.61,52.48a1.49,1.49,0,0,1-1.33,2.17Z"/><path class="cls-1" d="M59.66,38.72a.66.66,0,0,1-.47-.19l-22-22-22,22a.66.66,0,0,1-.94,0,.68.68,0,0,1,0-.94l22.5-22.5a.68.68,0,0,1,.94,0l22.5,22.5a.66.66,0,0,1-.47,1.13Z"/><path class="cls-1" d="M50.66,29.72a.66.66,0,0,1-.66-.66V19.82H45.92v3.84a.66.66,0,0,1-1.32,0v-4.5a.67.67,0,0,1,.66-.66h5.4a.66.66,0,0,1,.66.66v9.9A.65.65,0,0,1,50.66,29.72Z"/><path class="cls-1" d="M54.26,59.42H20.06a.66.66,0,0,1-.66-.66V32.66a.66.66,0,1,1,1.32,0V58.1H53.6V32.66a.66.66,0,1,1,1.32,0v26.1A.65.65,0,0,1,54.26,59.42Z"/><path class="cls-1" d="M43.46,39.62h-3.6A.66.66,0,0,1,39.2,39V35.12H35.12V39a.65.65,0,0,1-.66.66h-3.6A.66.66,0,0,1,30.2,39v-4.5a4.26,4.26,0,0,1,4.26-4.26h5.4a4.26,4.26,0,0,1,4.26,4.26V39A.65.65,0,0,1,43.46,39.62ZM40.52,38.3H42.8V34.46a2.94,2.94,0,0,0-2.94-2.94h-5.4a2.94,2.94,0,0,0-2.94,2.94V38.3H33.8V34.46a.67.67,0,0,1,.66-.66h5.4a.66.66,0,0,1,.66.66Z"/><path class="cls-1" d="M45.26,54H29.06a2.46,2.46,0,0,1-2.46-2.46V40.76a2.46,2.46,0,0,1,2.46-2.46h16.2a2.46,2.46,0,0,1,2.46,2.46v10.8A2.46,2.46,0,0,1,45.26,54Zm-16.2-14.4a1.14,1.14,0,0,0-1.14,1.14v10.8a1.14,1.14,0,0,0,1.14,1.14h16.2a1.14,1.14,0,0,0,1.14-1.14V40.76a1.14,1.14,0,0,0-1.14-1.14Z"/><path class="cls-1" d="M47.06,49.52H27.26a.66.66,0,1,1,0-1.32h19.8a.66.66,0,0,1,0,1.32Z"/><path class="cls-1" d="M28.32,53.86a.66.66,0,0,1-.47-.19.67.67,0,0,1,0-.93l4.34-4.34a.66.66,0,0,1,.94,0,.65.65,0,0,1,0,.93l-4.34,4.34A.66.66,0,0,1,28.32,53.86Z"/><path class="cls-1" d="M32.82,53.86a.66.66,0,0,1-.47-.19.67.67,0,0,1,0-.93l4.34-4.34a.66.66,0,0,1,.94,0,.65.65,0,0,1,0,.93l-4.34,4.34A.66.66,0,0,1,32.82,53.86Z"/><path class="cls-1" d="M37.32,53.86a.66.66,0,0,1-.47-.19.67.67,0,0,1,0-.93l4.34-4.34a.66.66,0,0,1,.94,0,.65.65,0,0,1,0,.93l-4.34,4.34A.66.66,0,0,1,37.32,53.86Z"/><path class="cls-1" d="M41.82,53.86a.66.66,0,0,1-.47-.19.67.67,0,0,1,0-.93l4.34-4.34a.66.66,0,0,1,.94,0,.65.65,0,0,1,0,.93l-4.34,4.34A.66.66,0,0,1,41.82,53.86Z"/></g></g></svg>