<svg xmlns="http://www.w3.org/2000/svg" viewBox="0 0 81.65 81.65"><defs><style>.cls-1,.cls-2,.cls-3,.cls-4{fill:none;stroke-linecap:round;stroke-linejoin:round;}.cls-1,.cls-3,.cls-4{stroke:#3d3d3d;}.cls-1{stroke-width:1.47px;}.cls-2{stroke:#f7be00;stroke-width:3.33px;}.cls-3{stroke-width:1.39px;}.cls-4{stroke-width:3.78px;}</style></defs><title>icono-vida-joven</title><g id="Capa_2" data-name="Capa 2"><g id="Capa_1-2" data-name="Capa 1"><path class="cls-1" d="M76.06,22.26A39.63,39.63,0,0,1,9.53,65"/><path class="cls-2" d="M5.86,59.06a39.63,39.63,0,0,1,66-43"/><path class="cls-3" d="M46.37,66.45c-2,.11-4.23.18-6.54.18A104.17,104.17,0,0,1,19,64.68a2.16,2.16,0,0,1-1-3.76c2.76-2.32,6.7-4.2,12.18-5.13.93-.16,2.23-2.48,1.45-5.11"/><line class="cls-3" x1="34.98" y1="37.49" x2="35.17" y2="37.49"/><line class="cls-3" x1="44.45" y1="37.49" x2="44.63" y2="37.49"/><line class="cls-3" x1="32.73" y1="36.36" x2="37.34" y2="36.36"/><line class="cls-3" x1="46.95" y1="36.36" x2="42.34" y2="36.36"/><path class="cls-3" d="M51.13,41.47c1.86-1,2.27-4.24,2.27-5.88,0-1.08-.92-1.78-1.39-2.25.12-.61.79-.14.79-.14a10.85,10.85,0,0,0,1-3.23c.63-5.56-2.72-9.58-7.27-11.2-1.83-.65-9.42-2-12.25-4.7-1-1-.32,4.59-1.25,5-4.85,2.18-8.32,5.61-6.86,11.64.19.79.83.87,1.48,2.62-.46.47-1.39,1.17-1.39,2.25,0,1.64.42,4.95,2.28,5.88.17,3.59,3.19,9.21,3.19,9.21,3.28,3,5.62,4.26,6.85,4.26A3.68,3.68,0,0,1,40,54.63a3.73,3.73,0,0,1,1.27.23"/><path class="cls-3" d="M27,31.92c0-1.77,1.3-1.85,3.47-2.94s3.43-2.72,6.14-3a4.73,4.73,0,0,0-1.07,5.91c6-4.53,10,0,14.76-1.69a2.09,2.09,0,0,1,2.88,2.13"/><path class="cls-3" d="M41.81,60.24a13.08,13.08,0,0,1-1.91.15c-5.08,0-8.79-3.2-9.2-4.64"/><path class="cls-3" d="M41.72,47.71a5.2,5.2,0,0,1-1.89.28,5.29,5.29,0,0,1-1.9-.28"/><line class="cls-4" x1="55.91" y1="49.6" x2="55.91" y2="60.96"/><line class="cls-4" x1="50.23" y1="55.28" x2="61.59" y2="55.28"/><circle class="cls-3" cx="55.91" cy="55.28" r="11.35"/></g></g></svg>