<svg width="139" height="92" viewBox="0 0 139 92" fill="none" xmlns="http://www.w3.org/2000/svg">
<path d="M27.8793 36.0745C29.219 36.0745 30.305 34.9885 30.305 33.6488C30.305 32.3092 29.219 31.2231 27.8793 31.2231C26.5396 31.2231 25.4536 32.3092 25.4536 33.6488C25.4536 34.9885 26.5396 36.0745 27.8793 36.0745Z" fill="#FF007E"/>
<path d="M44.8564 36.0745C46.196 36.0745 47.2821 34.9885 47.2821 33.6488C47.2821 32.3092 46.196 31.2231 44.8564 31.2231C43.5167 31.2231 42.4307 32.3092 42.4307 33.6488C42.4307 34.9885 43.5167 36.0745 44.8564 36.0745Z" fill="#FF007E"/>
<path d="M42.1523 41.6979L40.2853 40.1514C39.2232 41.4329 37.833 42.1385 36.3684 42.1385C34.9038 42.1385 33.5136 41.4329 32.4514 40.1514L30.5845 41.6979C32.1158 43.5458 34.1696 44.5622 36.3684 44.5622C38.5671 44.5622 40.621 43.5439 42.1523 41.6979Z" fill="#FF007E"/>
<path d="M9.03343 63.8019C3.96273 64.6734 0.236467 68.9337 0 74.0349H2.42951C2.66407 70.1198 5.54172 66.8646 9.44725 66.1914L28.008 62.9591C28.6869 66.9656 32.1729 70.0283 36.3683 70.0283C40.5637 70.0283 44.0496 66.9656 44.7285 62.9591L58.005 65.2684C58.6668 65.9569 59.5936 66.3897 60.6214 66.3897H61.8343V74.033H64.26V65.1769C64.26 64.5075 63.7165 63.964 63.0471 63.964H60.6538C60.0817 63.964 59.5611 63.5826 59.4391 63.022C59.2675 62.2344 59.8682 61.5345 60.629 61.5383C61.0486 61.5403 61.4567 61.3553 61.6569 60.9872C62.1642 60.0604 61.5101 59.1222 60.6348 59.1126C60.1733 59.1069 59.7328 58.8819 59.5382 58.4643C59.1225 57.5699 59.7671 56.6927 60.6138 56.687C61.0276 56.685 61.5291 56.42 61.7027 56.0443C62.1203 55.148 61.4796 54.2708 60.6348 54.2613C60.1733 54.2555 59.7328 54.0305 59.5382 53.6129C59.1225 52.7185 59.7671 51.8413 60.6138 51.8356C61.0276 51.8336 61.5291 51.5686 61.7027 51.1929C62.1203 50.2966 61.4796 49.4194 60.6348 49.4099C60.1771 49.4041 59.7366 49.1829 59.5421 48.7691C59.1187 47.8709 59.769 46.9842 60.6214 46.9842H66.6857C67.355 46.9842 67.8985 46.4407 67.8985 45.7713V43.3456C67.8985 41.7647 68.913 40.4165 70.3242 39.9149V66.8093H72.7499V38.498C72.7499 37.823 72.1988 37.2833 71.5237 37.2852C68.1865 37.2928 65.4728 40.0103 65.4728 43.3494V44.5623H60.7034C58.8193 44.5623 57.1831 45.962 57.0019 47.8385C56.8971 48.9102 57.2613 49.9 57.9135 50.6265C57.3357 51.2711 56.9848 52.1197 56.9848 53.0522C56.9848 53.9847 57.3357 54.8334 57.9135 55.4779C57.3357 56.1225 56.9848 56.9711 56.9848 57.9036C56.9848 58.8361 57.3357 59.6847 57.9135 60.3293C57.3624 60.9453 57.0267 61.75 56.9962 62.633L44.8563 60.5219V56.1854C51.6376 53.3135 56.653 47.0967 57.8811 39.6232C60.7969 39.1846 63.0471 36.6864 63.0471 33.6505C63.0471 30.7232 60.9609 28.2727 58.1957 27.7102V26.3753C58.1957 12.8928 46.8663 4.5459 36.3664 4.5459C32.5314 4.5459 29.6633 5.50321 26.8886 6.4262C24.1788 7.33011 21.6177 8.18254 18.1775 8.18254C11.6288 8.18254 9.34045 6.11917 9.33283 6.11154C8.95524 5.73396 8.37361 5.64623 7.90258 5.89986C7.43155 6.15159 7.18174 6.68364 7.28662 7.20806C7.33239 7.42927 8.23058 11.7448 11.4591 14.7674C10.3378 14.8341 8.98766 14.7559 7.64514 14.3097C7.24658 14.1743 6.80797 14.2601 6.48378 14.529C6.1615 14.7979 6.00131 15.2155 6.06043 15.6313C6.11001 15.9802 7.29616 23.7589 13.8696 27.9142C11.4496 28.7113 9.68562 30.9673 9.68562 33.6505C9.68562 36.6864 11.9359 39.1846 14.8517 39.6232C16.0817 47.0967 21.0952 53.3135 27.8764 56.1854V60.5219L9.03343 63.8019ZM58.1976 36.0723V30.2312C59.605 30.7327 60.6233 32.0676 60.6233 33.6466C60.6233 35.2447 59.5821 36.5891 58.1461 37.0773C58.1614 36.7417 58.1976 36.4118 58.1976 36.0723ZM42.4325 61.5402C42.4325 65.0377 39.4557 67.8543 35.9011 67.5854C32.7202 67.3451 30.3059 64.6067 30.3059 61.4163V57.0264C32.2339 57.5851 34.2649 57.8998 36.3702 57.8998C38.4755 57.8998 40.5045 57.5851 42.4344 57.0264V61.5402H42.4325ZM12.1151 33.6485C12.1151 32.0696 13.1335 30.7366 14.5408 30.2331V36.0742C14.5408 36.4137 14.5752 36.7436 14.5923 37.0792C13.1563 36.591 12.1151 35.2447 12.1151 33.6485ZM8.90185 17.0806C12.0865 17.5344 14.7887 16.6534 14.9241 16.6095C15.4753 16.4265 15.8319 15.8677 15.7384 15.267C15.6793 14.878 15.418 14.5424 15.0672 14.3669C12.836 13.2437 11.4572 11.1994 10.6544 9.50599C12.3154 10.0933 14.7487 10.6082 18.1794 10.6082C22.0143 10.6082 24.8825 9.65092 27.6571 8.72794C30.367 7.82402 32.9281 6.9716 36.3683 6.9716C45.6992 6.9716 55.7719 14.3898 55.7719 26.3753V27.5423C46.994 26.8844 44.9078 19.1439 44.822 18.8045C44.6732 18.2114 44.1069 17.8224 43.4985 17.8949C42.8902 17.9692 42.4344 18.4841 42.4325 19.0963C42.4306 19.4586 42.341 27.2868 36.8298 28.6103C37.1787 27.2887 37.5735 25.4694 37.5811 23.9953C37.583 23.6273 37.44 23.2669 37.1597 23.0285C36.9289 22.834 36.6486 22.7367 36.3683 22.7367C36.1032 22.7367 35.84 22.8225 35.6245 22.9923C35.5216 23.0724 25.2124 30.9635 16.2953 26.503C11.6517 24.1784 9.67227 19.6112 8.90185 17.0806ZM16.9646 35.8645V29.4017C24.0739 31.9151 31.2919 28.5607 34.8522 26.4191C34.5147 28.082 34.0112 29.6057 34.0036 29.6286C33.8796 29.9986 33.9426 30.4047 34.1714 30.7213C34.4003 31.036 34.7664 31.2228 35.1554 31.2228C40.6571 31.2228 43.2563 27.1457 44.2861 23.2917C46.1206 26.1388 49.5914 29.5695 55.77 29.968V36.0723C55.77 46.9594 46.7576 55.7811 35.8019 55.4665C25.2753 55.1671 16.9646 46.3949 16.9646 35.8645Z" fill="#FF007E"/>
<path d="M92.2985 32.0375C93.1414 32.0375 93.8241 32.7202 93.8241 33.5631H96.8753C96.8753 31.0363 94.8252 28.9863 92.2985 28.9863C89.7717 28.9863 87.7217 31.0363 87.7217 33.5631H90.7729C90.7729 32.7202 91.4556 32.0375 92.2985 32.0375Z" fill="#FF007E"/>
<path d="M110.606 32.0375C111.448 32.0375 112.131 32.7202 112.131 33.5631H115.182C115.182 31.0363 113.132 28.9863 110.606 28.9863C108.079 28.9863 106.029 31.0363 106.029 33.5631H109.08C109.08 32.7202 109.763 32.0375 110.606 32.0375Z" fill="#FF007E"/>
<path d="M127.83 63.2512L127.387 63.1444V25.9351C127.387 11.6117 115.776 0 101.452 0C87.1287 0 75.5171 11.6117 75.5171 25.9351V63.1292L75.0594 63.2512C69.039 64.8588 64.8474 70.3071 64.8379 76.5391V90.0102C64.8379 90.853 65.5206 91.5357 66.3635 91.5357H136.541C137.384 91.5357 138.066 90.853 138.066 90.0102V76.5391C138.055 70.3033 133.856 64.8531 127.83 63.2512ZM109.08 58.3235V53.3959C115.484 50.7089 120.021 44.8716 121.041 38.0026C122.242 37.81 123.377 37.3161 124.336 36.5685V62.3358L109.08 58.3235ZM112.131 62.2748V67.1262H109.08C108.237 67.1262 107.555 67.8089 107.555 68.6518V72.0539L103.649 69.7197L109.462 61.573L112.131 62.2748ZM101.452 51.8703C92.1861 51.8645 84.6764 44.3548 84.6706 35.0887V25.035L90.5899 19.131C92.762 16.9436 96.042 16.2857 98.8892 17.4681L118.234 25.4317V35.0887C118.228 44.3548 110.716 51.8645 101.452 51.8703ZM121.285 34.7988V26.2097C121.922 26.4386 122.503 26.7971 122.994 27.2624C123.852 28.1263 124.334 29.2933 124.336 30.5119C124.327 32.4418 123.104 34.1581 121.285 34.7988ZM101.452 3.05119C113.491 3.03212 123.472 12.3669 124.26 24.379C123.062 23.5075 121.636 23.0041 120.156 22.9297L100.049 14.6457C99.5166 14.4226 98.9655 14.2491 98.401 14.127V9.15357H95.3498V13.8524C94.3067 13.9134 93.2788 14.1289 92.2986 14.4932V9.15357H89.2474V16.2629C88.9728 16.4917 88.6829 16.7053 88.4236 16.9646L82.4433 22.945C81.0721 23.0727 79.7601 23.5685 78.6445 24.379C79.4703 12.3859 89.4305 3.07217 101.452 3.05119ZM79.8955 27.2777C80.3856 26.8009 80.9749 26.4367 81.6194 26.2097V34.8141C79.2357 33.9712 77.9885 31.3548 78.8314 28.973C79.0564 28.336 79.4188 27.7582 79.8955 27.2777ZM78.5683 36.5685C79.5351 37.3046 80.6659 37.7966 81.8635 38.0026C82.8838 44.8716 87.4205 50.7089 93.8242 53.3959V58.3235L78.5683 62.3358V36.5685ZM93.8242 67.1262H90.773V62.2748L93.4428 61.573L99.2553 69.7197L95.3498 72.0539V68.6518C95.3498 67.8089 94.6652 67.1262 93.8242 67.1262ZM99.9266 88.4846H86.1962C82.8266 88.4846 80.0938 85.7518 80.0938 82.3822C80.0938 80.4618 80.9978 78.6521 82.5348 77.5003L80.7041 75.0593C76.667 78.08 75.8413 83.8029 78.8619 87.84C79.0278 88.0631 79.2052 88.2786 79.3921 88.4846H67.8891V76.5391C67.8967 71.6954 71.1577 67.4599 75.8374 66.2109L87.7218 63.0834V68.6518C87.7218 69.4947 88.4045 70.1774 89.2474 70.1774H92.2986V74.7542C92.2967 75.3053 92.5942 75.8145 93.0767 76.0815C93.3036 76.215 93.561 76.2836 93.8242 76.2798C94.0988 76.2798 94.3677 76.2054 94.6023 76.0662L99.9266 72.8777V88.4846ZM96.4482 60.5356C96.7171 60.2572 96.8697 59.8854 96.8754 59.4982V54.3722C99.8827 55.1045 103.022 55.1045 106.029 54.3722V59.4982C106.035 59.8854 106.187 60.2572 106.456 60.5356L101.452 67.5534L96.4482 60.5356ZM135.015 88.4846H123.512C126.89 84.7392 126.59 78.9648 122.845 75.5895C122.639 75.4026 122.423 75.2271 122.2 75.0593L120.37 77.5003C123.066 79.5217 123.611 83.3471 121.59 86.0436C120.438 87.5806 118.628 88.4846 116.708 88.4846H102.978V72.8777L108.302 76.0662C109.027 76.4953 109.963 76.2569 110.392 75.5322C110.531 75.2977 110.606 75.0288 110.606 74.7542V70.1774H113.657C114.5 70.1774 115.183 69.4947 115.183 68.6518V63.0834L127.052 66.2109C131.739 67.4523 135.006 71.6897 135.015 76.5391V88.4846Z" fill="#FF007E"/>
<path d="M101.452 47.2936C103.979 47.2936 106.029 45.2436 106.029 42.7168H102.978C102.978 43.5597 102.295 44.2424 101.452 44.2424C100.609 44.2424 99.9267 43.5597 99.9267 42.7168H96.8755C96.8755 45.2436 98.9236 47.2936 101.452 47.2936Z" fill="#FF007E"/>
</svg>
