<svg xmlns="http://www.w3.org/2000/svg" viewBox="0 0 81.65 81.65"><defs><style>.cls-1,.cls-2,.cls-3,.cls-4{fill:none;stroke-linecap:round;stroke-linejoin:round;}.cls-1,.cls-3,.cls-4{stroke:#3d3d3d;}.cls-1{stroke-width:1.47px;}.cls-2{stroke:#f7be00;stroke-width:3.33px;}.cls-3,.cls-4{stroke-width:1.25px;}.cls-4{fill-rule:evenodd;}</style></defs><title>icono-adulto-activo</title><g id="Capa_2" data-name="Capa 2"><g id="Capa_1-2" data-name="Capa 1"><path class="cls-1" d="M76.06,22.26A39.63,39.63,0,0,1,9.53,65"/><path class="cls-2" d="M5.86,59.06a39.63,39.63,0,0,1,66-43"/><path class="cls-3" d="M29.89,27.92a5.67,5.67,0,0,1-1.55.79,1.5,1.5,0,0,0-.54-.11,1.31,1.31,0,0,0-.51.11,3.65,3.65,0,0,1-1.69-.79L27,31.41,25.5,39l2.25,3L30,39,28.5,31.41Z"/><path class="cls-4" d="M50.3,36.26C48,40.9,46.1,48.52,45.31,52a1.8,1.8,0,0,0,1.49,2.17,57.61,57.61,0,0,0,8,.59,57.93,57.93,0,0,0,8-.59A1.8,1.8,0,0,0,64.25,52c-.81-3.46-2.7-10.94-5-15.73"/><path class="cls-4" d="M57,29.07v.62c6,0,8.57,9.6,9.39,13.63A1.93,1.93,0,0,1,65,45.55l-2.1.57"/><path class="cls-4" d="M41.82,42.27C43,37.92,47.06,29.7,52.63,29.7v-.63"/><line class="cls-3" x1="54.79" y1="54.77" x2="54.79" y2="67.34"/><path class="cls-4" d="M49.85,54.77a77.61,77.61,0,0,0,.45,9.95A2.83,2.83,0,0,0,53,67.34h3.6a2.81,2.81,0,0,0,2.69-2.62,88.87,88.87,0,0,0,.45-9.95"/><path class="cls-4" d="M21.47,35.63c-1,17.74.83,29.09.83,29.09A2.69,2.69,0,0,0,25,67.34h5.39a2.7,2.7,0,0,0,2.7-2.62,154.22,154.22,0,0,0,.82-29.09"/><path class="cls-4" d="M25.53,27.9c-6.39.47-9,3.12-9.21,6.43-.38,5.31,0,12.35,4.08,12.35h.7"/><path class="cls-4" d="M41.93,43.49a37.46,37.46,0,0,0-2.87-9.16c-1.47-3.07-2.76-6-9.21-6.43"/><line class="cls-3" x1="27.69" y1="50.27" x2="27.69" y2="67.34"/><path class="cls-4" d="M34,35.72c1.84,3,4.92,8.14,5.89,9.85a2.2,2.2,0,0,0,3.64.37c.91-.9,3.66-7.09,6.79-9.68"/><path class="cls-3" d="M22.3,64.65c-.05-1.19,5.39-1.24,5.39,0"/><path class="cls-3" d="M33.08,64.65c.05-1.19-5.39-1.24-5.4,0"/><path class="cls-3" d="M50.29,64.65c0-1.19,4.5-1.24,4.5,0"/><path class="cls-3" d="M59.28,64.65c0-1.19-4.5-1.24-4.5,0"/><line class="cls-3" x1="21.19" y1="44.88" x2="34.19" y2="44.88"/><path class="cls-3" d="M16.85,43.09a8.2,8.2,0,0,1,4.34,0"/><path class="cls-3" d="M38,42.3a4.93,4.93,0,0,1,3.42-1.37"/><path class="cls-4" d="M46.08,48.79a63.53,63.53,0,0,0,8.63.59,66.56,66.56,0,0,0,8.75-.59"/><path class="cls-4" d="M48.93,36.11a41.77,41.77,0,0,0,5.8.4,43.92,43.92,0,0,0,5.88-.4"/><path class="cls-3" d="M32.41,20.89a3.93,3.93,0,0,0,.36-1.16,3.74,3.74,0,0,0-2.62-4c-.66-.24-3.34-1.17-3.91.56-.2-.73-.61-.6-.95-.45-1.74.78-3,2-2.47,4.19.07.28.3.31.54.94-.17.17-.5.42-.5.81,0,.59.15,1.78.81,2.11a11.65,11.65,0,0,0,1,3.32,5.21,5.21,0,0,0,2.61,1.53,1.31,1.31,0,0,1,.51-.11,1.5,1.5,0,0,1,.54.11,6.72,6.72,0,0,0,2.47-1.53,11.75,11.75,0,0,0,1-3.32c.67-.36.82-1.52.82-2.11,0-.39-.33-.64-.5-.81C32.17,20.72,32.41,20.89,32.41,20.89Z"/><path class="cls-3" d="M23.12,20.43c-.06-1,1.27-2.7,1.75-2.67-.17.58,1.22,1,2.27,1.07,2.09.22,5.68,0,5.4,1.7"/><line class="cls-3" x1="26.26" y1="22.73" x2="26.34" y2="22.73"/><line class="cls-3" x1="29.2" y1="22.73" x2="29.28" y2="22.73"/><path class="cls-3" d="M57,29.07a13.14,13.14,0,0,0,2.77-.71,2.38,2.38,0,0,0,1.65-3.05c-.65-2-.13-3.58-.59-5.53a6,6,0,0,0-6.1-4.54c-3.15,0-5.65,1.87-6.17,4.54-.37,1.94.13,3.51-.49,5.45a2.42,2.42,0,0,0,1.61,3.06,15.79,15.79,0,0,0,3,.78"/><path class="cls-3" d="M58.72,21.29A2.47,2.47,0,0,1,58.58,24a6.09,6.09,0,0,1-1.21,3,3.47,3.47,0,0,1-2.7,1.41A3.17,3.17,0,0,1,52,27a5.83,5.83,0,0,1-1.21-3,2.41,2.41,0,0,1-.14-2.67,5.43,5.43,0,0,1-.29-1.1,6.46,6.46,0,0,0,7-1.38A6,6,0,0,0,58.72,21.29Z"/><line class="cls-3" x1="53.21" y1="22.73" x2="53.29" y2="22.73"/><line class="cls-3" x1="56.15" y1="22.73" x2="56.24" y2="22.73"/></g></g></svg>