<svg xmlns="http://www.w3.org/2000/svg" viewBox="0 0 81.65 81.65"><defs><style>.cls-1,.cls-2,.cls-3{fill:none;stroke-linecap:round;stroke-linejoin:round;}.cls-1,.cls-3{stroke:#3d3d3d;}.cls-1{stroke-width:1.47px;}.cls-2{stroke:#f7be00;stroke-width:3.33px;}.cls-3{stroke-width:1.45px;}</style></defs><title>icono-oncologico</title><g id="Capa_2" data-name="Capa 2"><g id="Capa_1-2" data-name="Capa 1"><path class="cls-1" d="M76.06,22.26A39.63,39.63,0,0,1,9.53,65"/><path class="cls-2" d="M5.86,59.06a39.63,39.63,0,0,1,66-43"/><path class="cls-3" d="M53.16,36.21a16.26,16.26,0,0,0,.9-1.54,15.14,15.14,0,0,0,1.25-3.42,13.67,13.67,0,0,0,.31-3.59l0-.46L55.45,26a13.38,13.38,0,0,0-.36-1.63,15.39,15.39,0,0,0-1.18-2.92,14.76,14.76,0,0,0-1.65-2.42,14,14,0,0,0-3.94-3.24,13,13,0,0,0-1.94-.89,13.9,13.9,0,0,0-1.72-.51,12.66,12.66,0,0,0-1.45-.25l-.4-.05h-.24v0h-.8l-.84,0v0h-.58l-.42,0h-.12l-.46.05c-.23,0-.47.06-.73.11L38,14.4a14.38,14.38,0,0,0-3.69,1.41,13.85,13.85,0,0,0-3.93,3.24,14.09,14.09,0,0,0-1.66,2.43,14.72,14.72,0,0,0-1.18,2.93A13.6,13.6,0,0,0,27.14,26l0,.25a.83.83,0,0,0,0,.13L27,27.68a13.71,13.71,0,0,0,.31,3.58,14.87,14.87,0,0,0,1.26,3.42c.31.59.6,1.09.88,1.52l5.21,8,5-6.65L35.53,32A9.69,9.69,0,0,1,35,31.2a7,7,0,0,1-.71-1.66,6.51,6.51,0,0,1-.23-1.62l.06-.94a5.06,5.06,0,0,1,.14-.81,7.67,7.67,0,0,1,.54-1.55,7.12,7.12,0,0,1,.81-1.31,7.46,7.46,0,0,1,2-1.8,7.72,7.72,0,0,1,1-.51c.23-.09.43-.17.63-.23l.3-.09a6.14,6.14,0,0,1,.72-.16l1.06-.11.6,0,.41.06c.24,0,.5.09.8.17A7.73,7.73,0,0,1,44,21a6.73,6.73,0,0,1,1,.51,7.46,7.46,0,0,1,2,1.8,7.21,7.21,0,0,1,.8,1.3,7.88,7.88,0,0,1,.54,1.52c.06.28.12.56.15.82l.05.91a6.42,6.42,0,0,1-.22,1.66,7.93,7.93,0,0,1-.7,1.66c-.19.32-.36.59-.55.85L23.75,63.24l7.43,5.31,18-26.39Z"/><polygon class="cls-3" points="48.03 48.7 43.08 55.98 51.39 68.55 58.83 63.24 48.03 48.7"/></g></g></svg>