<?xml version="1.0" encoding="utf-8"?>
<!-- Generator: Adobe Illustrator 23.0.3, SVG Export Plug-In . SVG Version: 6.00 Build 0)  -->
<svg version="1.1" id="Capa_1" xmlns="http://www.w3.org/2000/svg" xmlns:xlink="http://www.w3.org/1999/xlink" x="0px" y="0px"
	 viewBox="0 0 81.7 81.7" style="enable-background:new 0 0 81.7 81.7;" xml:space="preserve">
<style type="text/css">
	.st0{fill:#3D3D3D;}
	.st1{fill:#F7BE00;}
	.st2{fill:#3D3D3D;stroke:#3D3D3D;stroke-width:0.5;stroke-miterlimit:10;}
</style>
<g id="Capa_1-2">
	<g>
		<path class="st0" d="M41.4,81.7C29,81.7,16.8,76,8.9,65.4c-0.2-0.3-0.2-0.8,0.2-1c0.3-0.2,0.8-0.2,1,0.2
			c11.5,15.5,33,20.2,50,10.9c18.8-10.3,25.7-34,15.3-52.8c-0.2-0.4-0.1-0.8,0.3-1s0.8-0.1,1,0.3c10.7,19.4,3.6,44-15.9,54.7
			C54.7,80.1,48,81.7,41.4,81.7z"/>
	</g>
	<g>
		<path class="st1" d="M5.9,60.7c-0.6,0-1.2-0.3-1.5-0.9c-5-9.9-5.8-21-2.3-31.5s10.8-19,20.6-23.9C40-4.4,60.8,0,73.1,15
			c0.6,0.7,0.5,1.8-0.2,2.3c-0.7,0.6-1.8,0.5-2.3-0.2C59.2,3.3,40.1-0.7,24.2,7.3c-9.1,4.6-15.8,12.4-19,22c-3.2,9.7-2.4,20,2.1,29
			c0.4,0.8,0.1,1.8-0.7,2.2C6.4,60.7,6.1,60.7,5.9,60.7z"/>
	</g>
</g>
<g>
	<path class="st0" d="M44,37.2c0.3,0,0.6-0.3,0.6-0.6v-6c0-0.3-0.3-0.6-0.6-0.6h-6.3c-2.4,0-4.6,1.2-5.8,3.1l-2.1,3.2
		c-0.1,0.1-0.1,0.4,0,0.5c0.1,0.2,0.3,0.3,0.5,0.3L44,37.2L44,37.2z M32.9,33.7c1-1.6,2.9-2.5,4.8-2.5h5.7v4.9H31.3L32.9,33.7z"/>
	<path class="st0" d="M59.7,37.2c0.3,0,0.6-0.3,0.6-0.6c0-1.7-0.6-3.2-1.8-4.5c-1.3-1.4-3.2-2.1-5.2-2.1h-5.4
		c-0.3,0-0.6,0.3-0.6,0.6v6c0,0.3,0.3,0.6,0.6,0.6H59.7z M48.5,31.2h4.8c2.9,0,5.3,1.9,5.8,4.5l0.1,0.4H48.5V31.2z"/>
	<g>
		<path class="st2" d="M65.9,35.1h-0.8L65,34.8c-0.5-3.3-4.3-7.8-9.8-7.8H35.9c-5,0-9.4,8-10.3,9.7l-0.1,0.1h-5.2
			c-3.4,0-6.2,2.8-6.2,6.2v4.8c0,0.8,0.7,1.5,1.5,1.5h2.3v0.3c0.4,2.8,2.9,4.9,5.7,4.9c2.8,0,5.3-2.1,5.7-4.9v-0.3h17.2h2.3l0,0l0,0
			v0.3c0.4,2.8,2.9,4.9,5.7,4.9c2.8,0,5.3-2.1,5.7-4.9l0-0.3h0.9h2c0.8,0,1.5-0.7,1.5-1.5V43h0.8c1.1,0,1.9-0.8,1.9-1.9v-4
			C67.5,35.7,66.9,35.1,65.9,35.1z M23.7,53.4c-2.6,0-4.7-2.1-4.7-4.7c0-2.6,2.1-4.7,4.7-4.7s4.7,2.1,4.7,4.7
			C28.4,51.3,26.4,53.4,23.7,53.4z M54.6,53.4c-2.6,0-4.7-2.1-4.7-4.7S52,44,54.6,44s4.7,2.1,4.7,4.7S57.3,53.4,54.6,53.4z M63.9,48
			c0,0-0.2,0.2-0.3,0.3h-2.3h-0.9v-0.3C60,45.1,57.5,43,54.7,43c-2.8,0-5.3,2.1-5.7,4.9l0,0.3h-2.4H29.5v-0.3
			c-0.4-2.8-2.9-4.9-5.7-4.9c-2.8,0-5.3,2.1-5.7,4.9v0.3h-2.7v-5.1c0-2.7,2.3-5,5-5h5.4c0.2,0,0.4-0.1,0.5-0.3
			c1.3-2.7,5.5-9.6,9.6-9.6h19.2c5.7,0,8.8,5,8.8,7.6V48z M66.7,41c0,0.5-0.3,0.8-0.8,0.8h-0.8v-5.6h0.8c0.5,0,0.8,0.3,0.8,0.8V41z"
			/>
		<path class="st2" d="M23.7,46c-1.5,0-2.7,1.2-2.7,2.7s1.2,2.7,2.7,2.7s2.7-1.2,2.7-2.7S25.3,46,23.7,46z M23.7,51.1
			c-1.3,0-2.3-1-2.3-2.3s1-2.3,2.3-2.3s2.3,1,2.3,2.3C26.1,50,25,51.1,23.7,51.1z"/>
		<path class="st2" d="M54.6,46.1c-1.5,0-2.7,1.2-2.7,2.7s1.2,2.7,2.7,2.7s2.7-1.2,2.7-2.7S56.2,46.1,54.6,46.1z M54.6,51.2
			c-1.3,0-2.3-1-2.3-2.3s1-2.3,2.3-2.3c1.3,0,2.3,1,2.3,2.3C57,50.1,55.9,51.2,54.6,51.2z"/>
	</g>
</g>
</svg>
