<svg xmlns="http://www.w3.org/2000/svg" viewBox="0 0 81.65 81.65"><defs><style>.cls-1,.cls-2{fill:none;stroke-linecap:round;stroke-linejoin:round;}.cls-1{stroke:#3d3d3d;stroke-width:1.47px;}.cls-2{stroke:#f7be00;stroke-width:3.33px;}</style></defs><title>icono-vida-familiar-full</title><g id="Capa_2" data-name="Capa 2"><g id="Capa_1-2" data-name="Capa 1"><path class="cls-1" d="M76.06,22.26A39.63,39.63,0,0,1,9.53,65"/><path class="cls-2" d="M5.86,59.06a39.63,39.63,0,0,1,66-43"/><polyline class="cls-1" points="34.17 45.18 39.27 51.12 49.45 35.85"/><path class="cls-1" d="M41.81,23.74A32.29,32.29,0,0,0,58,29.93V43.59a19.24,19.24,0,0,1-7.52,15.19l-8.71,6.63L33.1,58.78a19.24,19.24,0,0,1-7.52-15.19V29.93a32.29,32.29,0,0,0,16.23-6.19"/><path class="cls-1" d="M61.85,26.3c-13.36,0-20-7.63-20-7.63s-6.68,7.63-20,7.63V43.59a22.89,22.89,0,0,0,9,18.22l11,8.4,11-8.4a22.89,22.89,0,0,0,9-18.22Z"/></g></g></svg>