<svg width="109" height="100" viewBox="0 0 109 100" fill="none" xmlns="http://www.w3.org/2000/svg">
<path d="M66.8509 29.9327C66.3548 28.1278 65.0153 26.6695 63.2841 26.0098C65.598 23.9605 67.0605 20.9707 67.0605 17.644V11.2573C67.0605 5.09435 62.0465 0.0805664 55.8838 0.0805664C49.7208 0.0805664 44.707 5.09435 44.707 11.2573V17.644C44.707 20.9707 46.1696 23.9605 48.4835 26.0098C46.7674 26.6638 45.4364 28.1023 44.9301 29.8853H41.2906C40.5936 27.4311 38.3337 25.6274 35.6592 25.6274H25.0146C22.3182 25.6274 20.043 27.4604 19.3662 29.9455C10.3299 30.6574 3.19336 38.2327 3.19336 47.4487V50.7038C1.33504 51.3629 0 53.1376 0 55.2192C0 56.101 0.714887 56.8159 1.59668 56.8159C2.47847 56.8159 3.19336 56.101 3.19336 55.2192C3.19336 54.3387 3.90952 53.6226 4.79004 53.6226C5.67055 53.6226 6.38672 54.3387 6.38672 55.2192V97.9038C6.38672 98.7856 7.10161 99.5005 7.9834 99.5005C8.86519 99.5005 9.58008 98.7856 9.58008 97.9038V55.2192C9.58008 53.1376 8.24504 51.3629 6.38672 50.7038V47.4487C6.38672 40.0648 11.9853 33.9666 19.1602 33.1695V71.9312C19.1602 72.8129 19.875 73.5278 20.7568 73.5278H21.9314L20.6529 95.6829C20.6114 96.4029 21.0576 97.0616 21.7421 97.2896L28.1288 99.4185C28.2964 99.4743 28.4665 99.5009 28.634 99.5009C29.3025 99.5009 29.9254 99.0777 30.1485 98.4088C30.4274 97.5721 29.9752 96.668 29.1386 96.3891L23.9114 94.6466L25.13 73.5278H27.1436C28.0253 73.5278 28.7402 72.8129 28.7402 71.9312V63.8322C29.2667 63.9075 29.7994 63.9478 30.3369 63.9478C30.8743 63.9478 31.4071 63.9075 31.9336 63.8322V71.9312C31.9336 72.8129 32.6485 73.5278 33.5303 73.5278H34.7048L33.4264 95.6829C33.3849 96.4029 33.8311 97.0616 34.5155 97.2896L40.9023 99.4185C41.0698 99.4743 41.2399 99.5009 41.4074 99.5009C42.0759 99.5009 42.6988 99.0777 42.9219 98.4088C43.2008 97.5721 42.7486 96.668 41.912 96.3891L36.6849 94.6466L37.9035 73.5278H39.917C40.7988 73.5278 41.5137 72.8129 41.5137 71.9312V33.0786H44.707V52.771C44.707 55.9633 46.0544 58.8452 48.208 60.8836L46.2 95.6829C46.1585 96.4029 46.6047 97.0616 47.2892 97.2896L53.6759 99.4185C53.8434 99.4743 54.0135 99.5009 54.1811 99.5009C54.8498 99.5009 55.4725 99.0777 55.6956 98.4088C55.9745 97.5721 55.5225 96.668 54.6856 96.3891L49.4585 94.6466L51.2873 62.9546C52.6904 63.5905 54.2458 63.9478 55.884 63.9478C57.6763 63.9478 59.3701 63.5213 60.8729 62.7681L58.9735 95.6829C58.932 96.4029 59.3782 97.0616 60.0624 97.2896L66.4491 99.4185C66.6167 99.4743 66.787 99.5009 66.9543 99.5009C67.623 99.5009 68.2457 99.0777 68.4688 98.4088C68.7477 97.5721 68.2957 96.668 67.4591 96.3891L62.2318 94.6466L64.2191 60.2064C65.9846 58.2293 67.0605 55.6239 67.0605 52.771V33.1544C75.9992 33.9642 83.0273 41.4959 83.0273 50.6421C83.0273 51.5239 83.742 52.2388 84.624 52.2388C85.506 52.2388 86.2207 51.5239 86.2207 50.6421C86.2207 39.6629 77.6519 30.6489 66.8509 29.9327ZM25.5469 70.3345H22.3535V31.4819C22.3535 30.0145 23.5472 28.8208 25.0146 28.8208H25.5469V70.3345ZM31.9336 60.5924C30.8834 60.8038 29.7902 60.8038 28.7402 60.5924V54.3677H31.9336V60.5924ZM31.9336 51.1743H28.7402V28.8208H31.9336V51.1743ZM38.3203 70.3345H35.127V28.8208H35.6592C37.0289 28.8208 38.1596 29.8612 38.3039 31.1933C38.2867 31.2869 38.2765 31.3832 38.2765 31.4819C38.2765 31.608 38.2926 31.7302 38.3203 31.8477V70.3345ZM47.9004 11.2573C47.9004 6.85517 51.4816 3.27393 55.8838 3.27393C60.2859 3.27393 63.8672 6.85517 63.8672 11.2573V11.7896H60.6442C59.4408 10.443 57.7176 9.66064 55.8838 9.66064C54.0497 9.66064 52.3268 10.443 51.1233 11.7896H47.9004V11.2573ZM47.9004 17.644V14.9829H51.901C52.4337 14.9829 52.9314 14.7172 53.2278 14.2744C53.8232 13.385 54.8159 12.854 55.8838 12.854C56.9514 12.854 57.9446 13.3852 58.54 14.2746C58.8366 14.7172 59.3341 14.9829 59.8668 14.9829H63.8672V17.644C63.8672 22.0462 60.2859 25.6274 55.8838 25.6274C51.4816 25.6274 47.9004 22.0462 47.9004 17.644ZM55.884 60.7544C52.0286 60.7544 48.8028 58.0073 48.0611 54.3677H63.7067C62.965 58.0073 59.7395 60.7544 55.884 60.7544ZM63.8672 51.1743H57.4805V46.3843C57.4805 45.5025 56.7658 44.7876 55.8838 44.7876C55.0018 44.7876 54.2871 45.5025 54.2871 46.3843V51.1743H47.9004V31.4819C47.9004 30.0145 49.0941 28.8208 50.5615 28.8208H54.2871V39.9976C54.2871 40.8794 55.0018 41.5942 55.8838 41.5942C56.7658 41.5942 57.4805 40.8794 57.4805 39.9976V28.8208H61.2061C62.6735 28.8208 63.8672 30.0145 63.8672 31.4819V51.1743Z" fill="#F8BC26"/>
<path d="M40.9018 7.61711C40.8908 7.57879 40.8776 7.54132 40.8635 7.50427C39.3179 3.18217 35.1836 0.0805664 30.3369 0.0805664C27.7256 0.0805664 25.3227 0.983222 23.418 2.48942C23.3511 2.53477 23.2877 2.58373 23.2293 2.63781C21.4015 4.14763 20.0626 6.22757 19.4816 8.60151C15.7639 8.71371 12.7734 11.7708 12.7734 15.5151C12.7734 19.3301 15.8774 22.4341 19.6924 22.4341C21.4174 22.4341 23.0567 21.7912 24.3127 20.6641C26.0527 21.7822 28.1194 22.4341 30.3369 22.4341C36.4999 22.4341 41.5137 17.4203 41.5137 11.2573C41.5137 9.98296 41.2963 8.75905 40.9018 7.61711ZM30.3369 3.27393C32.9431 3.27393 35.2613 4.52955 36.7194 6.46729H30.3369C28.716 6.46729 27.2323 5.64574 26.3573 4.34093C27.5297 3.66373 28.8884 3.27393 30.3369 3.27393ZM19.6924 19.2407C17.6382 19.2407 15.9668 17.5693 15.9668 15.5151C15.9668 13.637 17.3653 12.0831 19.1746 11.8298C19.3043 14.3858 20.2987 16.7156 21.8675 18.538C21.2418 18.9882 20.4841 19.2407 19.6924 19.2407ZM30.3369 19.2407C25.9348 19.2407 22.3535 15.6595 22.3535 11.2573C22.3535 9.46266 22.9492 7.80445 23.9528 6.46963C25.4345 8.43929 27.7848 9.66064 30.3369 9.66064H38.1596C38.2647 10.1767 38.3203 10.7106 38.3203 11.2573C38.3203 15.6595 34.7391 19.2407 30.3369 19.2407Z" fill="#F8BC26"/>
<path d="M84.624 58.6255C85.5058 58.6255 86.2207 57.9106 86.2207 57.0288C86.2207 56.147 85.5058 55.4321 84.624 55.4321C83.7422 55.4321 83.0273 56.147 83.0273 57.0288C83.0273 57.9106 83.7422 58.6255 84.624 58.6255Z" fill="#F8BC26"/>
<path d="M107.403 77.147H89.4141V66.6089C89.4141 63.9676 87.2651 61.8188 84.624 61.8188C82.5426 61.8188 80.7677 63.1539 80.1086 65.0122H78.2373C77.3553 65.0122 76.6406 65.7271 76.6406 66.6089C76.6406 67.4907 77.3553 68.2056 78.2373 68.2056H79.834V85.1304C79.834 88.9858 82.5811 92.2113 86.2207 92.953V97.9038C86.2207 98.7856 86.9354 99.5005 87.8174 99.5005C88.6994 99.5005 89.4141 98.7856 89.4141 97.9038V93.1138H92.6074V97.9038C92.6074 98.7856 93.3221 99.5005 94.2041 99.5005C95.0861 99.5005 95.8008 98.7856 95.8008 97.9038V93.1138H100.591C103.232 93.1138 105.381 90.9651 105.381 88.3237V80.3403H107.403C108.285 80.3403 109 79.6254 109 78.7437C109 77.8619 108.285 77.147 107.403 77.147ZM102.188 88.3237C102.188 89.2042 101.471 89.9204 100.591 89.9204H87.8174C85.1763 89.9204 83.0273 87.7717 83.0273 85.1304V66.6089C83.0273 65.7284 83.7435 65.0122 84.624 65.0122C85.5045 65.0122 86.2207 65.7284 86.2207 66.6089V81.937C86.2207 84.5783 88.3696 86.7271 91.0107 86.7271H97.3975C98.2795 86.7271 98.9941 86.0122 98.9941 85.1304C98.9941 84.2486 98.2795 83.5337 97.3975 83.5337H91.0107C90.1302 83.5337 89.4141 82.8175 89.4141 81.937V80.3403H102.188V88.3237Z" fill="#F8BC26"/>
</svg>
