<svg width="295" height="71" viewBox="0 0 295 71" fill="none" xmlns="http://www.w3.org/2000/svg">
<path d="M9.61538 61.4011C10.228 61.4011 10.726 60.9007 10.726 60.2835C10.726 59.6675 10.228 59.166 9.61538 59.166C9.00408 59.166 8.50598 59.6675 8.50598 60.2835C8.50598 60.9007 9.00408 61.4011 9.61538 61.4011Z" fill="#009FE3"/>
<path d="M95.5287 70.16C96.1424 70.16 96.6393 69.6597 96.6393 69.0425C96.6393 68.4254 96.1424 67.9238 95.5287 67.9238C94.9174 67.9238 94.4204 68.4254 94.4204 69.0425C94.4204 69.6597 94.9174 70.16 95.5287 70.16Z" fill="#69246F"/>
<path d="M42.9742 63.3889V63.3854C42.9718 62.1385 42.5385 61.0879 41.7537 60.3784L41.6983 60.3298L41.6856 60.3183H41.6833C40.9448 59.6827 39.944 59.3487 38.7594 59.3383C38.7548 59.3371 38.7444 59.3359 38.7328 59.3359C38.7213 59.3359 38.7108 59.3371 38.7004 59.3383H38.6912C38.6554 59.3383 38.6311 59.3394 38.6138 59.3394C38.5999 59.3394 38.578 59.3383 38.5514 59.3383H38.534C38.5248 59.3383 38.5132 59.3359 38.4994 59.3359H38.4948H38.489C38.482 59.3359 38.4739 59.3359 38.4659 59.3383C37.2824 59.351 36.2862 59.6838 35.5501 60.3183H35.5466L35.4796 60.3784C34.6972 61.0845 34.2638 62.1315 34.258 63.3704V63.3716L34.2569 63.3773L34.2511 69.7925C34.2511 69.8769 34.2869 69.9612 34.3516 70.0213C34.4152 70.0826 34.5054 70.1172 34.5955 70.1172H35.7373C35.8263 70.1172 35.9153 70.0826 35.98 70.0213C36.0447 69.9612 36.0805 69.8769 36.0805 69.7925L36.0829 63.5934C36.0898 62.6851 36.3221 62.0414 36.7416 61.6161C37.1484 61.2035 37.7678 60.9712 38.6207 60.955C39.4655 60.9712 40.085 61.2035 40.4918 61.6161C40.9101 62.0414 41.1424 62.6851 41.1493 63.5946L41.1482 69.7925C41.1482 69.8769 41.1852 69.9612 41.2487 70.0213C41.3134 70.0826 41.4024 70.1172 41.4926 70.1172H42.6355C42.7257 70.1172 42.8147 70.0826 42.8782 70.0213C42.9441 69.9612 42.9799 69.8769 42.9799 69.7925L42.9742 63.3889Z" fill="#D6006D"/>
<path d="M82.7845 63.3889V63.3854C82.7822 62.1385 82.3488 61.0879 81.563 60.3784L81.5087 60.3298L81.4959 60.3183H81.4936C80.7552 59.6827 79.7543 59.3487 78.5686 59.3383C78.5652 59.3371 78.5548 59.3359 78.5432 59.3359C78.5316 59.3359 78.5212 59.3371 78.5108 59.3383H78.5016C78.4657 59.3383 78.4415 59.3394 78.4242 59.3394C78.4103 59.3394 78.3883 59.3383 78.3617 59.3383H78.3444C78.3352 59.3383 78.3236 59.3359 78.3097 59.3359H78.3051H78.2993C78.2924 59.3359 78.2843 59.3359 78.2762 59.3383C77.0928 59.351 76.0966 59.6838 75.3605 60.3183H75.357L75.29 60.3784C74.5076 61.0845 74.0742 62.1315 74.0684 63.3704V63.3716V63.3773L74.0615 69.7925C74.0615 69.8769 74.0973 69.9612 74.162 70.0213C74.2267 70.0826 74.3146 70.1172 74.4059 70.1172H75.5477C75.6366 70.1172 75.7257 70.0826 75.7904 70.0213C75.8551 69.9612 75.8909 69.8769 75.8909 69.7925L75.8932 63.5934C75.9002 62.6851 76.1324 62.0414 76.552 61.6161C76.9576 61.2035 77.5782 60.9712 78.4311 60.955C79.2759 60.9712 79.8953 61.2035 80.3021 61.6161C80.7205 62.0414 80.9528 62.6851 80.9597 63.5946L80.9585 69.7925C80.9585 69.8769 80.9955 69.9612 81.0591 70.0213C81.1238 70.0826 81.2128 70.1172 81.3029 70.1172H82.4459C82.536 70.1172 82.6251 70.0826 82.6886 70.0213C82.7545 69.9612 82.7903 69.8769 82.7903 69.7925L82.7845 63.3889Z" fill="#D6006D"/>
<path d="M61.7754 60.432C61.7696 60.4239 61.7626 60.417 61.7546 60.4089C61.1051 59.8102 60.065 59.4381 58.8608 59.4369C58.8434 59.4347 58.8191 59.4347 58.7949 59.4347C57.8045 59.4347 56.8268 59.6415 55.9774 60.3684V59.7317H55.9785V56.4981C55.9785 56.4126 55.9427 56.3293 55.878 56.2692C55.8144 56.2091 55.7254 56.1733 55.6341 56.1733H54.5096C54.4195 56.1733 54.3317 56.2091 54.2658 56.2692C54.2011 56.3293 54.1664 56.4126 54.1664 56.4981V59.7317V66.5941V69.8091C54.1664 69.8935 54.2022 69.9779 54.2658 70.0368C54.3305 70.0981 54.4195 70.1327 54.5096 70.1327H55.6352C55.7254 70.1327 55.8132 70.0981 55.878 70.0368C55.9438 69.9779 55.9785 69.8935 55.9785 69.8091V69.1435C56.7297 69.9837 57.8068 70.2726 58.7949 70.2714H58.8654C60.0661 70.2691 61.1062 69.897 61.7546 69.2984C62.9669 68.1508 63.2442 66.3918 63.2477 64.7565C63.2442 63.1305 62.9669 61.575 61.7754 60.432ZM61.4379 64.7565V64.7797V64.7808V64.8051C61.4344 65.8267 61.3258 66.8252 60.9375 67.5394C60.5561 68.2259 59.9425 68.6847 58.7486 68.7043C58.7417 68.7032 58.729 68.7032 58.7047 68.7043H58.6851C57.4843 68.6916 56.8626 68.2317 56.4777 67.5382C56.0871 66.8217 55.9774 65.8151 55.9774 64.7866V64.7253C55.9774 63.7026 56.0871 62.8843 56.4777 62.169C56.8626 61.4756 57.4843 61.0156 58.6851 61.0041H58.6932H58.7128H58.7313C59.9321 61.0156 60.5527 61.4756 60.9387 62.1713C61.3281 62.8843 61.4379 63.7026 61.4379 64.7253V64.7565Z" fill="#D6006D"/>
<path d="M32.9792 62.9134V62.9064C32.9792 61.8178 32.6174 60.8851 31.8593 60.2622C31.0943 59.6347 29.9987 59.34 28.5853 59.3389H28.5356H28.5159C27.0332 59.3342 25.8567 59.6578 24.9599 60.6112L24.9565 60.609L24.9044 60.6691C24.8374 60.7442 24.7716 60.8216 24.708 60.9025C24.708 60.9025 24.7068 60.9048 24.7057 60.9059L24.6144 61.0146C24.5589 61.0793 24.5323 61.166 24.5439 61.255C24.5543 61.3439 24.5982 61.4283 24.6664 61.4873L24.7184 61.5312C24.7381 61.5555 24.76 61.5774 24.7843 61.5982L24.9854 61.7623L25.5181 62.2234C25.5863 62.2835 25.6764 62.3159 25.7643 62.3113C25.8509 62.3078 25.933 62.2685 25.9862 62.2026L26.3294 61.7958H26.3282C26.542 61.5647 26.7616 61.4006 27.0263 61.2839C27.4007 61.1197 27.8803 61.0435 28.5737 61.0365H28.583L28.6061 61.0354C29.5919 61.0389 30.2055 61.2376 30.558 61.5473C30.9082 61.8502 31.0862 62.309 31.0885 63.022C31.0885 63.0266 31.0885 63.0393 31.0897 63.0555V63.727H28.1611C26.9789 63.7304 25.9908 63.9974 25.2777 64.5544C24.5693 65.0976 24.1741 65.9355 24.1741 66.9109V66.9478C24.1764 67.7603 24.4815 68.5577 25.0362 69.1124C25.7862 69.8509 26.7848 70.1201 28.2941 70.1201H28.3102H29.0753C30.4575 70.1201 31.4479 69.7792 32.087 69.0904C32.7237 68.4028 32.9792 67.4066 32.9792 66.1678V62.9319V62.9134ZM31.0897 66.2197C31.0873 67.0784 30.899 67.5523 30.647 67.7741C30.038 68.3346 29.2856 68.419 28.368 68.4213H28.3576H28.3403C27.4562 68.4225 26.876 68.2688 26.5467 68.0307C26.2335 67.8042 26.0729 67.4817 26.0647 66.9247V66.8993C26.0705 66.348 26.2381 66.0036 26.5548 65.761C26.8853 65.509 27.4435 65.3449 28.2767 65.3449H28.2848H31.0897V66.2197Z" fill="#D6006D"/>
<path d="M72.8012 62.9277V62.9196C72.8024 61.8333 72.4395 60.9018 71.6814 60.2789C70.9186 59.6514 69.8207 59.3567 68.4096 59.3555H68.3577H68.3391C66.8564 59.3521 65.6788 59.6745 64.7831 60.6279L64.7797 60.6245L64.7277 60.6857C64.6606 60.7597 64.5948 60.8371 64.53 60.9192C64.53 60.9192 64.5289 60.9203 64.5289 60.9215L64.4376 61.0301C64.3821 61.0948 64.3555 61.1827 64.3671 61.2705C64.3763 61.3583 64.4203 61.4438 64.4896 61.5028L64.5405 61.5478C64.5613 61.571 64.5832 61.5929 64.6075 61.6137L64.8074 61.779L65.3402 62.2401C65.4095 62.2991 65.4996 62.3302 65.5863 62.3268C65.673 62.3233 65.7539 62.2829 65.8094 62.2182L66.1515 61.8113C66.3653 61.5802 66.5849 61.4161 66.8495 61.2994C67.2239 61.1353 67.7035 61.059 68.3969 61.0532L68.405 61.0521H68.4293C69.4151 61.0532 70.0287 61.2543 70.3801 61.5629C70.7302 61.8657 70.9082 62.3245 70.9117 63.0364C70.9117 63.041 70.9117 63.0549 70.9129 63.0699V63.7425H67.9832C66.8021 63.7448 65.814 64.0118 65.0998 64.5676C64.3925 65.1108 63.9973 65.9487 63.9961 66.9241L63.9973 66.9611C63.9984 67.7735 64.3036 68.5698 64.8583 69.1233C65.6083 69.8618 66.608 70.1299 68.1161 70.1299H68.1335H68.8973C70.2795 70.1311 71.2711 69.7901 71.909 69.1014C72.547 68.4137 72.8024 67.4187 72.8024 66.1821V62.9462L72.8012 62.9277ZM65.888 66.9368V66.9114C65.8937 66.3601 66.0613 66.0169 66.3768 65.7742C66.7073 65.5211 67.2655 65.3581 68.0999 65.3581H68.1069H70.9129V66.233C70.9105 67.0905 70.7222 67.5632 70.4702 67.785C69.8612 68.3467 69.1088 68.4299 68.1901 68.4322H68.1797H68.1635C67.2794 68.4334 66.6993 68.2808 66.3699 68.0416C66.0567 67.8162 65.8949 67.4927 65.888 66.9368Z" fill="#D6006D"/>
<path d="M15.3812 59.3765H13.4524L13.4501 57.4211L13.4489 56.4746C13.4489 56.3047 13.301 56.166 13.1173 56.166H11.957C11.8703 56.166 11.7836 56.1996 11.7224 56.2562C11.66 56.314 11.6241 56.3937 11.6241 56.4746V58.2185H11.6253V67.3854C11.6253 68.1296 11.8402 68.8011 12.3118 69.3084C12.7613 69.7996 13.4894 70.107 14.3307 70.107H14.333H14.8924V70.0989H15.3812C15.4656 70.0989 15.5488 70.063 15.6077 69.9972C15.669 69.9336 15.7025 69.8446 15.7025 69.7533V68.6196C15.7025 68.5295 15.669 68.4393 15.6077 68.3746C15.5488 68.3087 15.4656 68.2729 15.3812 68.2729H14.4844C14.303 68.266 14.1574 68.2452 14.0302 68.2001C13.9493 68.1712 13.8996 68.14 13.8522 68.1111C13.8014 68.0753 13.7737 68.058 13.7228 68.0048C13.5506 67.8245 13.4547 67.5379 13.4524 67.1126V61.2037H15.3812C15.4656 61.2037 15.5488 61.1655 15.6077 61.1019C15.669 61.0372 15.7025 60.9471 15.7025 60.8558V59.7232C15.7025 59.6331 15.669 59.5429 15.6077 59.4782C15.5488 59.4123 15.4656 59.3765 15.3812 59.3765Z" fill="#D6006D"/>
<path d="M23.7006 60.7151L23.5943 60.5961C23.5896 60.5823 23.5815 60.5696 23.5677 60.5557L23.5041 60.4898L23.4151 60.3973L23.3412 60.3165L23.3389 60.3188C22.6824 59.6277 21.8654 59.3376 20.9952 59.3364C20.9778 59.3364 20.957 59.3364 20.9281 59.3376C20.3098 59.3376 19.5806 59.6149 19.1437 60.1408L18.841 60.4991V60.35V59.6993C18.841 59.6138 18.8051 59.5306 18.7404 59.4705C18.6769 59.4104 18.5879 59.3746 18.4977 59.3746H17.3733C17.282 59.3746 17.1941 59.4104 17.1294 59.4705C17.0647 59.5306 17.0289 59.6138 17.0289 59.6993V60.35V69.7965C17.0289 69.882 17.0647 69.9652 17.1294 70.0253C17.193 70.0854 17.282 70.1212 17.3733 70.1212H17.5663C17.572 70.1212 17.5801 70.1224 17.5859 70.1224H18.2943C18.3001 70.1224 18.307 70.1212 18.3128 70.1212H18.4977C18.5879 70.1212 18.6757 70.0854 18.7404 70.0253C18.8063 69.9652 18.841 69.882 18.841 69.7965V69.6219C18.841 69.6197 18.8421 69.6173 18.8421 69.615V63.6251C18.8421 63.6171 18.841 63.609 18.841 63.602V63.1166C18.8756 62.5596 19.0525 62.0592 19.3425 61.694C19.6522 61.3057 20.1076 61.0526 20.7213 61.0515C21.046 61.0515 21.2598 61.0896 21.4436 61.167C21.6227 61.2445 21.8041 61.3785 22.0433 61.6247L22.0977 61.679L22.3415 61.9517C22.3993 62.0164 22.4837 62.0546 22.5715 62.0557C22.6605 62.0569 22.7506 62.0222 22.8177 61.961L23.6613 61.1936C23.7283 61.1312 23.7711 61.0457 23.7792 60.9555C23.7873 60.8666 23.7572 60.7799 23.7006 60.7151Z" fill="#D6006D"/>
<path d="M52.0402 64.5972C52.0355 64.5937 52.0309 64.5914 52.0275 64.588H52.0252C51.3687 64.1291 50.5366 63.9697 49.641 63.8934L47.9629 63.7524C47.2638 63.6935 46.8315 63.5478 46.5796 63.3502C46.3669 63.1873 46.2352 62.9249 46.2306 62.5228V62.5135H46.2294L46.2306 62.4916C46.2352 62.0154 46.4201 61.6687 46.7483 61.433C47.1008 61.1799 47.6625 61.0181 48.4587 61.0181H48.4657H48.4668C49.4827 61.0192 50.3228 61.2561 51.0232 61.7069L51.022 61.708L51.4473 62.0073C51.5155 62.0547 51.6022 62.072 51.6854 62.0524C51.7709 62.0351 51.8483 61.9819 51.898 61.9091L52.5256 60.995C52.5764 60.921 52.5972 60.8297 52.5857 60.743C52.5787 60.6957 52.5614 60.6517 52.5348 60.6124C52.5117 60.5685 52.4782 60.5281 52.4354 60.498L52.3626 60.446C51.3618 59.733 49.9669 59.3319 48.4622 59.3296C47.2568 59.3296 46.2294 59.6197 45.484 60.1744C44.7444 60.7199 44.3087 61.5451 44.3087 62.4835V62.4962V62.5031V62.5274C44.3087 63.3572 44.615 64.091 45.2298 64.5914C45.8504 65.0988 46.7229 65.3692 47.8231 65.4582L49.5485 65.598C50.1819 65.6558 50.5759 65.7956 50.8094 65.991C51.0116 66.1551 51.1422 66.4162 51.1434 66.8335V66.8566V66.86C51.1387 67.3847 50.9273 67.7476 50.532 67.9984C50.109 68.2676 49.4191 68.4318 48.4622 68.4318H48.4553C48.4518 68.4318 48.446 68.4318 48.4379 68.4329H48.4287C47.1655 68.4271 46.2664 68.1428 45.5684 67.5661L45.2044 67.2576C45.1385 67.2021 45.0518 67.1755 44.9651 67.1882C44.8773 67.1986 44.7941 67.246 44.7363 67.3154L44.014 68.189C43.9551 68.2584 43.925 68.3508 43.9297 68.4398C43.9343 68.5276 43.9747 68.6097 44.0394 68.6652L44.3827 68.9553L44.3815 68.9564C44.3873 68.9622 44.3954 68.9668 44.4012 68.9714L44.4462 69.0084L44.4497 69.005C45.5106 69.7735 46.8339 70.141 48.4553 70.141H48.4841C49.8213 70.1398 50.9492 69.8498 51.772 69.2823C52.5845 68.7207 53.0699 67.8574 53.0687 66.86V66.8103C53.0699 65.8049 52.6804 65.0456 52.0402 64.5972Z" fill="#D6006D"/>
<path d="M93.4577 69.6686L92.05 67.682L89.2302 63.5644L91.4225 61.2368L92.6984 59.8882L92.7758 59.8015C92.9226 59.6524 92.8509 59.4987 92.7874 59.4398C92.7226 59.3797 92.6337 59.3438 92.5435 59.3438H91.077C90.9915 59.3438 90.8782 59.4109 90.8135 59.4675C90.8123 59.4675 90.8146 59.4675 90.8135 59.4675L85.8938 64.7154V60.3296V56.4604C85.8938 56.3749 85.8556 56.2906 85.7932 56.2316C85.7285 56.1704 85.6383 56.1357 85.5482 56.1357H84.4237C84.3336 56.1357 84.2458 56.1704 84.1811 56.2316C84.1152 56.2906 84.0793 56.3749 84.0793 56.4604V60.3296V69.7946C84.0793 69.8801 84.1163 69.9645 84.1799 70.0246C84.2446 70.0847 84.3336 70.1205 84.4249 70.1205H85.5494C85.6383 70.1205 85.7273 70.0847 85.7932 70.0246C85.8579 69.9645 85.8938 69.8801 85.8938 69.7946V67.1031L88.0248 64.7929L89.4602 66.9401H89.4532L91.4699 69.9541C91.5173 70.02 91.5912 70.1263 91.7611 70.1263H93.2254C93.3155 70.1263 93.4057 70.0917 93.4692 70.0304C93.5328 69.9715 93.5755 69.8166 93.4577 69.6686Z" fill="#D6006D"/>
<path d="M80.8608 56.2378H81.0596L81.3543 57.1069L81.6501 56.2378H81.8466V57.2664H81.7148V56.6573C81.7148 56.6365 81.7148 56.6042 81.7148 56.5533C81.7148 56.5048 81.7183 56.4551 81.7183 56.3985L81.4236 57.2664H81.2849L80.9903 56.3985V56.4297V56.5429C80.9926 56.5984 80.9926 56.6354 80.9926 56.6573V57.2664H80.8608V56.2378Z" fill="#D6006D"/>
<path d="M82.4421 56.2378H82.9113C82.9887 56.2378 83.0535 56.2494 83.1008 56.2725C83.1968 56.3141 83.243 56.395 83.243 56.514C83.243 56.5753 83.2337 56.6261 83.2072 56.6654C83.1794 56.7035 83.1436 56.7382 83.0974 56.7613C83.1378 56.7787 83.1713 56.7983 83.191 56.8249C83.2095 56.8515 83.221 56.8966 83.221 56.9555L83.2291 57.0918C83.2291 57.1323 83.2337 57.1612 83.2372 57.1809C83.2476 57.212 83.2615 57.2328 83.2834 57.241V57.2663H83.1124C83.1078 57.256 83.1066 57.2456 83.1008 57.2328C83.0974 57.2178 83.0962 57.1913 83.0951 57.1508L83.087 56.9786C83.0812 56.9104 83.0592 56.8653 83.013 56.8434C82.9887 56.8307 82.9448 56.8249 82.8905 56.8249H82.5808V57.2663H82.4421V56.2378ZM82.8963 56.7082C82.9587 56.7082 83.0095 56.6966 83.0477 56.6689C83.0823 56.6458 83.1031 56.5984 83.1031 56.5267C83.1031 56.4551 83.0777 56.4042 83.0246 56.3777C82.9957 56.3638 82.9587 56.3568 82.9136 56.3568H82.5808V56.7082H82.8963Z" fill="#D6006D"/>
<path d="M82.1498 57.2617C82.1105 57.2617 82.0828 57.2317 82.0828 57.1866C82.0828 57.1416 82.1105 57.1104 82.1533 57.1104C82.1949 57.1104 82.2238 57.1416 82.2238 57.1866C82.2238 57.2317 82.1949 57.2617 82.1498 57.2617Z" fill="#D6006D"/>
<path d="M83.5583 57.2617C83.5167 57.2617 83.4866 57.2317 83.4866 57.1866C83.4866 57.1416 83.5167 57.1104 83.5594 57.1104C83.6033 57.1104 83.6299 57.1416 83.6299 57.1866C83.6299 57.2317 83.6033 57.2617 83.5583 57.2617Z" fill="#D6006D"/>
<path d="M117.413 13.8276C117.394 13.8045 117.374 13.7791 117.348 13.756C115.235 11.8075 111.858 10.601 107.944 10.5975C107.892 10.5906 107.811 10.5906 107.735 10.5906C104.516 10.5883 101.342 11.2609 98.5829 13.6231L98.5794 13.6254V11.5521H98.5852V1.0528C98.5852 0.7766 98.4673 0.5039 98.2593 0.3109C98.0524 0.1144 97.7635 0 97.4676 0H93.8134C93.5233 0 93.2356 0.1144 93.0241 0.3109C92.8149 0.5039 92.6982 0.7766 92.6982 1.0528V11.5521H92.7005V33.8416H92.6982V44.2832C92.6982 44.5605 92.8184 44.8333 93.0241 45.0251C93.2344 45.2227 93.5233 45.336 93.8169 45.336H97.4688C97.7635 45.336 98.0513 45.2227 98.2593 45.0251C98.4719 44.8333 98.5875 44.5605 98.5875 44.2832V42.1244C101.025 44.8506 104.524 45.7902 107.735 45.789H107.96C111.864 45.7763 115.241 44.5698 117.348 42.6248C121.284 38.8977 122.183 33.1852 122.196 27.8749C122.185 22.5935 121.284 17.5408 117.413 13.8276ZM116.317 27.8737V27.9465V27.9546V28.0321C116.306 31.35 115.955 34.5928 114.693 36.9123C113.452 39.145 111.457 40.6359 107.584 40.6948C107.559 40.6913 107.517 40.6913 107.44 40.6948H107.375C103.476 40.6567 101.456 39.1624 100.209 36.9088C98.9354 34.5801 98.5794 31.3107 98.5794 27.972V27.7709C98.5829 24.4541 98.9354 21.7914 100.209 19.4731C101.456 17.2195 103.476 15.7241 107.375 15.6883H107.402H107.465H107.526C111.427 15.7241 113.44 17.2161 114.698 19.4777C115.961 21.7914 116.317 24.4541 116.317 27.7709V27.8737Z" fill="#6B1A6B"/>
<path d="M151.076 42.5258C154.945 38.8138 155.848 33.76 155.857 28.4786C155.844 23.1694 154.945 17.4557 151.009 13.7298C148.903 11.7837 145.526 10.5771 141.621 10.5645H141.396C138.185 10.5633 134.687 11.5028 132.249 14.2303V12.0703C132.249 11.7929 132.133 11.5214 131.92 11.3283C131.712 11.1307 131.425 11.0175 131.13 11.0175H127.479C127.185 11.0175 126.896 11.1307 126.686 11.3283C126.48 11.5214 126.359 11.7929 126.359 12.0703V22.513H126.362V44.8014H126.359V55.3007C126.359 55.5769 126.476 55.8496 126.686 56.0426C126.897 56.2402 127.185 56.3535 127.475 56.3535H131.129C131.425 56.3535 131.714 56.2402 131.92 56.0426C132.129 55.8496 132.246 55.5769 132.246 55.3007V44.8014H132.241V42.7292L132.244 42.7315C135.003 45.0926 138.178 45.764 141.396 45.7629C141.472 45.7629 141.553 45.7629 141.605 45.7559C145.519 45.7525 148.897 44.5471 151.009 42.5986C151.035 42.5744 151.055 42.5501 151.076 42.5258ZM149.978 28.5837C149.978 31.9005 149.622 34.562 148.359 36.8757C147.101 39.1374 145.088 40.6305 141.187 40.6663H141.127H141.063H141.036C137.137 40.6305 135.117 39.1339 133.87 36.8803C132.597 34.562 132.244 31.9005 132.241 28.5837V28.3827C132.241 25.0439 132.597 21.7745 133.87 19.4447C135.117 17.1922 137.137 15.6979 141.036 15.6587H141.101C141.18 15.6621 141.22 15.6621 141.246 15.6587C145.119 15.7176 147.114 17.2084 148.354 19.4412C149.616 21.7618 149.969 25.0035 149.978 28.3214V28.3988V28.4069V28.4809V28.5837Z" fill="#6B1A6B"/>
<path d="M203.505 48.5237C203.184 49.3939 202.607 50.7992 202.222 51.6428C202.222 51.6428 201.528 53.1729 200.543 54.1599C199.642 55.0602 198.613 55.6819 197.453 56.0252C196.296 56.3684 195.536 56.4216 195.536 56.4216C194.609 56.4863 193.258 56.5406 192.533 56.5406C191.807 56.5406 191.213 55.7802 191.213 54.8533V52.3732C191.213 51.4452 191.591 50.6859 192.05 50.6859C192.511 50.6859 193.643 50.6073 194.565 50.5126C194.565 50.5126 195.268 50.4386 195.91 49.9451C196.555 49.4505 196.88 48.7398 196.88 48.7398C197.267 47.8973 197.837 46.4908 198.146 45.6148L198.821 43.708C199.131 42.8331 199.123 41.4047 198.805 40.5333L188.577 12.581C188.258 11.7096 188.758 10.9966 189.686 10.9966H193.259C194.187 10.9966 195.19 11.7154 195.488 12.5949L202.187 32.3639C202.486 33.2433 202.967 33.241 203.258 32.3604L209.79 12.5995C210.081 11.7177 211.08 10.9966 212.008 10.9966H215.643C216.572 10.9966 217.068 11.7085 216.748 12.5798L203.505 48.5237Z" fill="#6B1A6B"/>
<path d="M186.761 22.3821V22.3578C186.762 18.8688 185.601 15.8768 183.165 13.8775C180.713 11.8643 177.192 10.919 172.662 10.9166H172.498H172.436C167.676 10.9039 163.899 11.9394 161.023 14.9973L161.01 14.9881L160.845 15.1857C160.63 15.4238 160.417 15.6723 160.209 15.9346C160.209 15.9369 160.207 15.9404 160.206 15.9427L159.912 16.2917C159.736 16.4997 159.649 16.7805 159.685 17.0637C159.716 17.3457 159.859 17.6184 160.08 17.8091L160.245 17.9524C160.309 18.0275 160.379 18.0992 160.458 18.1627L161.1 18.692L162.813 20.1713C163.032 20.362 163.32 20.466 163.6 20.451C163.88 20.4406 164.139 20.3123 164.317 20.1031L165.415 18.7995V18.7972C166.1 18.0564 166.805 17.5271 167.654 17.155C168.855 16.6303 170.396 16.383 172.622 16.3622L172.649 16.361L172.723 16.3587C175.891 16.3668 177.86 17.0105 178.988 17.9998C180.114 18.9729 180.685 20.4452 180.693 22.7311C180.693 22.7461 180.693 22.7866 180.698 22.8386V24.9951H171.296C167.502 25.0043 164.329 25.8595 162.041 27.645C159.768 29.3913 158.499 32.0771 158.498 35.2078L158.499 35.3257C158.505 37.934 159.485 40.4915 161.267 42.2667C163.673 44.6381 166.879 45.4991 171.721 45.4991H171.775H174.23C178.665 45.5037 181.848 44.407 183.897 42.1985C185.943 39.9923 186.762 36.7957 186.762 32.8259V22.441L186.761 22.3821ZM164.567 35.2494V35.1697C164.586 33.4003 165.126 32.2943 166.14 31.5166C167.202 30.7076 168.99 30.1841 171.668 30.1841H171.691H180.698V32.99C180.689 35.7429 180.085 37.2637 179.277 37.9733C177.323 39.7739 174.905 40.0443 171.958 40.0512H171.926H171.872C169.034 40.0535 167.171 39.5635 166.115 38.7961C165.109 38.0716 164.593 37.0349 164.567 35.2494Z" fill="#6B1A6B"/>
<path d="M54.9515 11.063C53.9807 11.063 52.9718 11.8269 52.7071 12.7584L46.3197 35.286C46.055 36.2209 45.5905 36.229 45.2877 35.3079L37.8578 12.7376C37.5562 11.8165 36.515 11.063 35.5453 11.063H34.2128C33.2432 11.063 32.2031 11.8165 31.9027 12.7387L24.5329 35.3079C24.2313 36.229 23.7667 36.2221 23.4997 35.2883L17.0557 12.7596C16.7887 11.8269 15.7763 11.063 14.8067 11.063H12.0921C11.1236 11.063 10.57 11.82 10.8624 12.7445L20.7192 43.831C21.0127 44.7544 22.0447 45.5126 23.0155 45.5126H24.8796C25.7452 45.5126 26.6778 44.8411 26.9529 44.0206L34.3203 22.0304C34.6289 21.1116 35.1351 21.1116 35.4459 22.0292L42.8111 43.8414C43.1219 44.7591 44.169 45.5126 45.1375 45.5126H46.9414C47.8406 45.5126 48.7951 44.8111 49.0656 43.9547L58.8981 12.7457C59.1893 11.82 58.6346 11.063 57.6661 11.063H54.9515V11.063Z" fill="#6B1A6B"/>
<path d="M66.2301 25.2134C66.3525 23.0697 66.5074 22.1105 67.1627 20.5006C68.3669 17.6472 71.1267 15.8756 74.3649 15.8756C77.6019 15.8756 80.3605 17.6461 81.5659 20.4948C82.2223 22.1105 82.3771 23.0697 82.4985 25.2134H66.2301ZM88.5219 27.2C88.5219 16.9758 83.0971 10.623 74.3649 10.623C65.5008 10.623 60.2078 17.1734 60.2078 28.1419C60.2078 39.4375 65.547 45.6597 75.2385 45.6597C81.2585 45.6597 84.4886 43.6407 87.7487 40.3817L88.1821 39.9495L84.0205 36.2964L83.6403 36.6766C80.9846 39.3324 78.82 40.2742 75.3737 40.2742C69.6335 40.2742 66.3826 36.6257 66.2069 29.9933H88.5219V27.2Z" fill="#6B1A6B"/>
<path d="M3.50173 18.1971C5.43631 18.1971 7.00803 16.6173 7.00803 14.6689C7.00803 12.7216 5.43631 11.1406 3.50173 11.1406C1.57174 11.1406 0 12.7216 0 14.6689C1e-07 16.6173 1.57174 18.1971 3.50173 18.1971Z" fill="#D6006D"/>
<path d="M216.57 45.4913C218.506 45.4913 220.076 43.9116 220.076 41.9654C220.076 40.0158 218.506 38.4336 216.57 38.4336C214.639 38.4336 213.071 40.0158 213.071 41.9654C213.071 43.9116 214.639 45.4913 216.57 45.4913Z" fill="#D6006D"/>
<path d="M236.452 14.8576H232.57V20.6799H236.452C238.333 20.6799 239.528 19.5161 239.528 17.7838C239.528 16.0514 238.333 14.8576 236.452 14.8576ZM236.661 24.4127H232.57V32.4146H228.42V11.1548H236.661C241.05 11.1548 243.678 14.17 243.678 17.7838C243.678 21.3964 241.05 24.4127 236.661 24.4127Z" fill="#D6006D"/>
<path d="M246.086 32.4152V11.1553H250.236V28.7124H259.881V32.4152H246.086Z" fill="#D6006D"/>
<path d="M268.774 32.5938C264.415 32.5938 260.952 29.6376 260.952 25.1293V11.1548H265.103V24.9802C265.103 27.4279 266.536 28.891 268.774 28.891C271.014 28.891 272.478 27.4279 272.478 24.9802V11.1548H276.598V25.1293C276.598 29.6376 273.135 32.5938 268.774 32.5938Z" fill="#D6006D"/>
<path d="M287.128 32.6315C283.908 32.6315 281.462 31.9462 279.375 29.829L282.059 27.1455C283.4 28.4872 285.219 28.9345 287.186 28.9345C289.632 28.9345 290.945 28.0099 290.945 26.3111C290.945 25.5645 290.735 24.9393 290.288 24.521C289.871 24.1338 289.394 23.9246 288.409 23.7755L285.845 23.4185C284.027 23.1492 282.685 22.5829 281.73 21.6583C280.717 20.6448 280.21 19.273 280.21 17.484C280.21 13.6969 283.012 11.0435 287.605 11.0435C290.526 11.0435 292.643 11.7589 294.463 13.5178L291.839 16.1123C290.497 14.8306 288.886 14.6515 287.486 14.6515C285.278 14.6515 284.206 15.8742 284.206 17.335C284.206 17.8724 284.384 18.4387 284.832 18.8558C285.25 19.2442 285.935 19.5712 286.799 19.6902L289.304 20.0485C291.243 20.3166 292.466 20.854 293.36 21.6884C294.493 22.762 295 24.3129 295 26.1909C295 30.3063 291.57 32.6315 287.128 32.6315Z" fill="#D6006D"/>
</svg>
