<svg width="140" height="31" viewBox="0 0 140 31" fill="none" xmlns="http://www.w3.org/2000/svg">
<g clip-path="url(#clip0_691_4250)">
<path d="M19.1788 14.7059H11.9666V21.9952H7.20992V14.7059H0V10.0429H7.25174V2.71484H11.9688V10.0429H19.181L19.1788 14.7059Z" fill="#FBC000"/>
<path d="M30.6655 15.9106C30.2165 15.9106 29.7487 15.8918 29.281 15.8542V19.6709H26.2698V7.20635C27.5233 7.13112 28.57 7.05589 30.2726 7.0747C33.4148 7.09351 35.6027 8.22192 35.6214 11.324C35.6401 14.5012 33.4896 15.9106 30.6655 15.9106ZM32.5772 11.4932C32.5772 10.3272 31.7353 9.68775 30.4861 9.68775C29.9622 9.68775 29.588 9.68775 29.2887 9.70656V13.3164C29.6816 13.354 30.0184 13.3728 30.2792 13.3728C31.7309 13.3728 32.5772 12.8462 32.5772 11.4932Z" fill="#0090D7"/>
<path d="M47.3668 19.5957L47.3294 19.6709H44.0749L41.625 15.6108H40.5399V19.6709H37.5298V7.20636C38.8945 7.11232 39.9236 7.07471 41.4919 7.07471C44.2598 7.07471 46.822 7.99624 46.822 11.2487C46.822 13.3352 45.8678 14.5576 44.5768 15.1595L47.3668 19.5957ZM40.5432 13.3164H41.6438C42.8962 13.3164 43.7756 12.6526 43.7756 11.512C43.7756 10.2951 43.0052 9.68776 41.7736 9.68776C41.362 9.67927 40.9502 9.69183 40.5399 9.72537L40.5432 13.3164Z" fill="#0090D7"/>
<path d="M48.5632 13.4293C48.5632 9.36921 51.3686 6.92432 55.0908 6.92432C58.4751 6.92432 61.636 9.10592 61.636 13.4293C61.636 17.4717 58.8119 19.8966 55.0908 19.8966C51.7054 19.8966 48.5632 17.7538 48.5632 13.4293ZM58.4751 13.4293C58.4751 11.0983 57.1478 9.68782 55.0908 9.68782C53.0338 9.68782 51.7274 11.0983 51.7274 13.4293C51.7274 15.7414 53.036 17.1519 55.0941 17.1519C57.1522 17.1519 58.4751 15.7414 58.4751 13.4293Z" fill="#0090D7"/>
<path d="M72.9322 9.95653H69.21V19.6764H66.1449V9.95653H62.2742V7.2063H72.9344L72.9322 9.95653Z" fill="#0090D7"/>
<path d="M82.863 17.1706V19.6708H74.6196V7.2063H82.699V9.70651H77.6495V12.0585H82.3435V14.5023H77.6495V17.1717L82.863 17.1706Z" fill="#0090D7"/>
<path d="M84.3398 13.5796C84.3398 9.40671 87.0517 6.9242 90.9433 6.9242C92.0346 6.91487 93.1204 7.07954 94.1603 7.41208V10.2707L94.1042 10.3083C93.252 9.89768 92.3187 9.68554 91.3737 9.68771C88.8676 9.68771 87.4831 11.0418 87.4831 13.4292C87.4831 15.7789 88.8863 17.133 91.4452 17.133C92.3534 17.1537 93.255 16.9739 94.0866 16.6064L94.1614 16.6629V19.4286C93.3382 19.7107 92.1419 19.8987 91.0006 19.8987C87.1826 19.8965 84.3398 17.5656 84.3398 13.5796Z" fill="#0090D7"/>
<path d="M95.5615 13.5796C95.5615 9.40671 98.2734 6.9242 102.165 6.9242C103.256 6.91487 104.342 7.07954 105.382 7.41208V10.2707L105.326 10.3083C104.474 9.89768 103.54 9.68554 102.595 9.68771C100.089 9.68771 98.7048 11.0418 98.7048 13.4292C98.7048 15.7789 100.108 17.133 102.667 17.133C103.575 17.1537 104.477 16.9739 105.308 16.6064L105.383 16.6629V19.4286C104.56 19.7107 103.362 19.8987 102.222 19.8987C98.4043 19.8965 95.5615 17.5656 95.5615 13.5796Z" fill="#0090D7"/>
<path d="M107.662 7.2063H110.711V19.6708H107.662V7.2063Z" fill="#0090D7"/>
<path d="M112.92 13.4292C112.92 9.3691 115.725 6.9242 119.446 6.9242C122.832 6.9242 125.993 9.1058 125.993 13.4292C125.993 17.4716 123.169 19.8965 119.446 19.8965C116.06 19.8965 112.92 17.7537 112.92 13.4292ZM122.832 13.4292C122.832 11.0982 121.504 9.68771 119.446 9.68771C117.388 9.68771 116.081 11.0982 116.081 13.4292C116.081 15.7413 117.389 17.1518 119.446 17.1518C121.503 17.1518 122.825 15.7413 122.825 13.4292H122.832ZM116.959 5.08223L120.811 2.60083L122.157 4.85655L122.009 5.15746L117.542 6.52705L116.959 5.08223Z" fill="#0090D7"/>
<path d="M128.178 7.2063H129.506L136.127 13.8993H136.183V7.2063H139.1V19.6708H137.773L131.133 12.8462H131.079V19.6708H128.18L128.178 7.2063Z" fill="#0090D7"/>
</g>
<defs>
<clipPath id="clip0_691_4250">
<rect width="139.102" height="30.3322" fill="white"/>
</clipPath>
</defs>
</svg>
