<svg width="88" height="88" viewBox="0 0 88 88" fill="none" xmlns="http://www.w3.org/2000/svg">
<path fill-rule="evenodd" clip-rule="evenodd" d="M36.9477 11C34.7067 11 32.5575 11.8865 30.9729 13.4644C29.3883 15.0422 28.4981 17.1823 28.4981 19.4138V25.0504H15.7826C11.116 25.0504 7.33301 28.8174 7.33301 33.4643V68.5862C7.33301 73.233 11.116 77 15.7826 77H72.2167C76.8833 77 80.6663 73.233 80.6663 68.5862V33.4643C80.6663 28.8174 76.8833 25.0504 72.2167 25.0504H59.5059V19.4138C59.5059 17.1823 58.6156 15.0422 57.031 13.4644C55.4464 11.8865 53.2972 11 51.0562 11H36.9477ZM56.7152 25.0504V19.4138C56.7152 17.9193 56.1189 16.4861 55.0577 15.4293C53.9964 14.3726 52.5571 13.7789 51.0562 13.7789H36.9477C35.4469 13.7789 34.0075 14.3726 32.9463 15.4293C31.885 16.4861 31.2888 17.9193 31.2888 19.4138V25.0504H56.7152ZM31.2888 27.8293H56.7152V74.2211H31.2888V27.8293ZM28.4981 27.8293H15.7826C12.6573 27.8293 10.1237 30.3522 10.1237 33.4643V68.5862C10.1237 71.6983 12.6573 74.2211 15.7826 74.2211H28.4981V27.8293ZM59.5059 74.2211V27.8293H72.2167C75.3421 27.8293 77.8756 30.3522 77.8756 33.4643V68.5862C77.8756 71.6983 75.3421 74.2211 72.2167 74.2211H59.5059Z" fill="black"/>
</svg>
