<?xml version="1.0" encoding="utf-8"?>
<!-- Generator: Adobe Illustrator 23.0.3, SVG Export Plug-In . SVG Version: 6.00 Build 0)  -->
<svg version="1.1" id="Capa_1" xmlns="http://www.w3.org/2000/svg" xmlns:xlink="http://www.w3.org/1999/xlink" x="0px" y="0px"
	 viewBox="0 0 397 161" style="enable-background:new 0 0 397 161;" xml:space="preserve">
<style type="text/css">
	.st0{fill:#44789A;}
	.st1{fill:#5291C7;}
	.st2{fill:#FFFFFF;}
</style>
<g>
	<path class="st0" d="M379.5,5h-5.3v12.6v12.6h5.3c7,0,12.6-5.6,12.6-12.6C392.1,10.6,386.4,5,379.5,5z"/>
	<path class="st1" d="M379.5,30.2h-5.3H70.3c-16.6,0-32.5,6.6-44.2,18.3c-24.4,24.4-24.4,63.9,0,88.3c11.7,11.7,27.6,18.3,44.2,18.3
		h308.8c7.2,0,13-5.8,13-13v-93V30.2V17.6C392.1,24.6,386.4,30.2,379.5,30.2z"/>
</g>
<g>
	<path class="st2" d="M78.5,121.2V68.3h14l11,19.4c3.1,5.6,6.3,12.2,8.6,18.1h0.2c-0.8-7-1-14.1-1-22.1V68.3h11v52.9h-12.6
		l-11.3-20.4c-3.1-5.7-6.6-12.5-9.2-18.7L89,82.2c0.3,7,0.5,14.4,0.5,23.1v15.9H78.5z"/>
	<path class="st2" d="M144.6,68.3v30.4c0,9.1,3.5,13.7,9.6,13.7c6.3,0,9.7-4.4,9.7-13.7V68.3h11.9V98c0,16.3-8.2,24.1-22.1,24.1
		c-13.3,0-21.2-7.4-21.2-24.2V68.3H144.6z"/>
	<path class="st2" d="M217.6,98.8h-19.5v12.6h21.7v9.8h-33.7V68.3h32.6v9.8h-20.6v11h19.5V98.8z"/>
	<path class="st2" d="M241.1,121.2l-17-52.9h13.1l6.4,22.4c1.8,6.3,3.5,12.3,4.7,18.9h0.2c1.3-6.4,3-12.6,4.8-18.7l6.7-22.6h12.7
		l-17.8,52.9H241.1z"/>
	<path class="st2" d="M326.3,94.2c0,17.3-10.5,27.9-26,27.9c-15.7,0-24.9-11.8-24.9-26.9c0-15.9,10.1-27.7,25.7-27.7
		C317.5,67.4,326.3,79.6,326.3,94.2z M288.1,94.9c0,10.4,4.9,17.7,12.9,17.7c8.1,0,12.7-7.7,12.7-18c0-9.5-4.6-17.7-12.8-17.7
		C292.8,76.9,288.1,84.6,288.1,94.9z"/>
</g>
</svg>
