<svg width="48" height="48" viewBox="0 0 48 48" fill="none" xmlns="http://www.w3.org/2000/svg">
<circle cx="24" cy="24" r="24" fill="#326295"/>
<path d="M18.3846 27.18C18.4446 29.68 16.4446 31.3 13.6446 31.3C11.6846 31.3 10.6446 30.92 9.72461 30.4V28.6L9.76461 28.58C10.6046 29.24 11.8246 29.72 13.4046 29.72C15.1846 29.72 16.5846 28.82 16.5846 27.14C16.5846 25.58 15.3846 24.9 12.8646 24.88L11.8246 24.86V23.26H12.8646C14.7646 23.26 16.0046 22.56 16.0046 21.16C16.0046 19.9 15.0446 19.1 13.3646 19.1C12.0046 19.1 10.8446 19.46 10.1046 20L10.0846 19.98V18.4C10.9246 17.92 12.0246 17.48 13.6246 17.48C15.9846 17.48 17.8246 18.6 17.8246 20.88C17.8246 22.22 17.1446 23.2 16.1046 23.82C17.4646 24.3 18.3446 25.3 18.3846 27.18ZM19.9549 33.38L26.2149 16.04H27.9149L21.6549 33.38H19.9549ZM38.2147 27.18C38.2747 29.68 36.2747 31.3 33.4747 31.3C31.5147 31.3 30.4747 30.92 29.5547 30.4V28.6L29.5947 28.58C30.4347 29.24 31.6547 29.72 33.2347 29.72C35.0147 29.72 36.4147 28.82 36.4147 27.14C36.4147 25.58 35.2147 24.9 32.6947 24.88L31.6547 24.86V23.26H32.6947C34.5947 23.26 35.8347 22.56 35.8347 21.16C35.8347 19.9 34.8747 19.1 33.1947 19.1C31.8347 19.1 30.6747 19.46 29.9347 20L29.9147 19.98V18.4C30.7547 17.92 31.8547 17.48 33.4547 17.48C35.8147 17.48 37.6547 18.6 37.6547 20.88C37.6547 22.22 36.9747 23.2 35.9347 23.82C37.2947 24.3 38.1747 25.3 38.2147 27.18Z" fill="white"/>
</svg>
