<svg width="48" height="48" viewBox="0 0 48 48" fill="none" xmlns="http://www.w3.org/2000/svg">
<circle cx="24" cy="24" r="24" fill="#326295"/>
<path d="M18.3094 27.18C18.3694 29.68 16.3694 31.3 13.5694 31.3C11.6094 31.3 10.5694 30.92 9.64941 30.4V28.6L9.68941 28.58C10.5294 29.24 11.7494 29.72 13.3294 29.72C15.1094 29.72 16.5094 28.82 16.5094 27.14C16.5094 25.58 15.3094 24.9 12.7894 24.88L11.7494 24.86V23.26H12.7894C14.6894 23.26 15.9294 22.56 15.9294 21.16C15.9294 19.9 14.9694 19.1 13.2894 19.1C11.9294 19.1 10.7694 19.46 10.0294 20L10.0094 19.98V18.4C10.8494 17.92 11.9494 17.48 13.5494 17.48C15.9094 17.48 17.7494 18.6 17.7494 20.88C17.7494 22.22 17.0694 23.2 16.0294 23.82C17.3894 24.3 18.2694 25.3 18.3094 27.18ZM19.8797 33.38L26.1397 16.04H27.8397L21.5797 33.38H19.8797ZM33.6395 31.3C31.8795 31.3 30.8995 31.04 29.6395 30.48V28.66H29.6795C31.1395 29.4 32.2195 29.62 33.4595 29.62C35.3395 29.62 36.4795 28.68 36.4795 26.9C36.4795 25.46 35.4995 24.3 33.3795 24.3C32.2595 24.3 31.1795 24.4 29.9195 24.76L29.8795 24.72L30.3395 17.74H37.7795V19.36H31.9395L31.7195 22.82C32.2395 22.7 32.8995 22.64 33.6395 22.64C36.6395 22.64 38.4195 24.14 38.4195 26.76C38.4195 30.02 35.9595 31.3 33.6395 31.3Z" fill="white"/>
</svg>
