<svg width="48" height="48" viewBox="0 0 48 48" fill="none" xmlns="http://www.w3.org/2000/svg">
<circle cx="24" cy="24" r="24" fill="#326295"/>
<path d="M9.36828 31C9.32828 28.9 10.8483 26.94 13.2483 24.98C15.3483 23.26 16.1683 22.4 16.1683 21.26C16.1683 19.96 15.2683 19.16 13.4483 19.16C11.6083 19.16 10.2483 20.02 9.70828 20.54L9.66828 20.52L9.64828 18.88C10.5883 18.02 11.9683 17.5 13.6883 17.5C16.0683 17.5 18.0283 18.76 18.0283 21.12C18.0283 22.98 17.0083 24.04 14.7483 25.98C12.9283 27.42 11.8083 28.64 11.6883 29.34H18.4083V31H9.36828ZM20.0409 33.38L26.3009 16.04H28.0009L21.7409 33.38H20.0409ZM33.8006 31.3C32.0406 31.3 31.0606 31.04 29.8006 30.48V28.66H29.8406C31.3006 29.4 32.3806 29.62 33.6206 29.62C35.5006 29.62 36.6406 28.68 36.6406 26.9C36.6406 25.46 35.6606 24.3 33.5406 24.3C32.4206 24.3 31.3406 24.4 30.0806 24.76L30.0406 24.72L30.5006 17.74H37.9406V19.36H32.1006L31.8806 22.82C32.4006 22.7 33.0606 22.64 33.8006 22.64C36.8006 22.64 38.5806 24.14 38.5806 26.76C38.5806 30.02 36.1206 31.3 33.8006 31.3Z" fill="white"/>
</svg>
