<svg width="48" height="48" viewBox="0 0 48 48" fill="none" xmlns="http://www.w3.org/2000/svg">
<circle cx="24" cy="24" r="24" fill="#326295"/>
<path d="M13.9504 31V20.34L10.7104 21.78H10.6104V19.9L15.4304 17.56H15.8104V31H13.9504ZM18.4188 33.38L24.6788 16.04H26.3788L20.1188 33.38H18.4188ZM32.1786 31.3C30.4186 31.3 29.4386 31.04 28.1786 30.48V28.66H28.2186C29.6786 29.4 30.7586 29.62 31.9986 29.62C33.8786 29.62 35.0186 28.68 35.0186 26.9C35.0186 25.46 34.0386 24.3 31.9186 24.3C30.7986 24.3 29.7186 24.4 28.4586 24.76L28.4186 24.72L28.8786 17.74H36.3186V19.36H30.4786L30.2586 22.82C30.7786 22.7 31.4386 22.64 32.1786 22.64C35.1786 22.64 36.9586 24.14 36.9586 26.76C36.9586 30.02 34.4986 31.3 32.1786 31.3Z" fill="white"/>
</svg>
