<svg width="48" height="48" viewBox="0 0 48 48" fill="none" xmlns="http://www.w3.org/2000/svg">
<circle cx="24" cy="24" r="24" fill="#326295"/>
<path d="M14.0255 31V20.34L10.7855 21.78H10.6855V19.9L15.5055 17.56H15.8855V31H14.0255ZM18.494 33.38L24.754 16.04H26.454L20.194 33.38H18.494ZM36.7537 27.18C36.8137 29.68 34.8137 31.3 32.0137 31.3C30.0538 31.3 29.0137 30.92 28.0938 30.4V28.6L28.1337 28.58C28.9738 29.24 30.1937 29.72 31.7738 29.72C33.5537 29.72 34.9538 28.82 34.9538 27.14C34.9538 25.58 33.7538 24.9 31.2337 24.88L30.1937 24.86V23.26H31.2337C33.1338 23.26 34.3738 22.56 34.3738 21.16C34.3738 19.9 33.4137 19.1 31.7338 19.1C30.3738 19.1 29.2137 19.46 28.4737 20L28.4538 19.98V18.4C29.2938 17.92 30.3938 17.48 31.9937 17.48C34.3538 17.48 36.1937 18.6 36.1937 20.88C36.1937 22.22 35.5137 23.2 34.4738 23.82C35.8338 24.3 36.7138 25.3 36.7537 27.18Z" fill="white"/>
</svg>
