<svg width="48" height="48" viewBox="0 0 48 48" fill="none" xmlns="http://www.w3.org/2000/svg">
<circle cx="24" cy="24" r="24" fill="#326295"/>
<path d="M13.745 31.3C11.985 31.3 11.005 31.04 9.74496 30.48V28.66H9.78496C11.245 29.4 12.325 29.62 13.565 29.62C15.445 29.62 16.585 28.68 16.585 26.9C16.585 25.46 15.605 24.3 13.485 24.3C12.365 24.3 11.285 24.4 10.025 24.76L9.98496 24.72L10.445 17.74H17.885V19.36H12.045L11.825 22.82C12.345 22.7 13.005 22.64 13.745 22.64C16.745 22.64 18.525 24.14 18.525 26.76C18.525 30.02 16.065 31.3 13.745 31.3ZM19.9442 33.38L26.2042 16.04H27.9042L21.6442 33.38H19.9442ZM33.7039 31.3C31.9439 31.3 30.9639 31.04 29.7039 30.48V28.66H29.7439C31.2039 29.4 32.2839 29.62 33.5239 29.62C35.4039 29.62 36.5439 28.68 36.5439 26.9C36.5439 25.46 35.5639 24.3 33.4439 24.3C32.3239 24.3 31.2439 24.4 29.9839 24.76L29.9439 24.72L30.4039 17.74H37.8439V19.36H32.0039L31.7839 22.82C32.3039 22.7 32.9639 22.64 33.7039 22.64C36.7039 22.64 38.4839 24.14 38.4839 26.76C38.4839 30.02 36.0239 31.3 33.7039 31.3Z" fill="white"/>
</svg>
