<svg width="48" height="48" viewBox="0 0 48 48" fill="none" xmlns="http://www.w3.org/2000/svg">
<circle cx="24" cy="24" r="24" fill="#326295"/>
<path d="M9.44348 31C9.40348 28.9 10.9235 26.94 13.3235 24.98C15.4235 23.26 16.2435 22.4 16.2435 21.26C16.2435 19.96 15.3435 19.16 13.5235 19.16C11.6835 19.16 10.3235 20.02 9.78348 20.54L9.74348 20.52L9.72348 18.88C10.6635 18.02 12.0435 17.5 13.7635 17.5C16.1435 17.5 18.1035 18.76 18.1035 21.12C18.1035 22.98 17.0835 24.04 14.8235 25.98C13.0035 27.42 11.8835 28.64 11.7635 29.34H18.4835V31H9.44348ZM20.1161 33.38L26.3761 16.04H28.0761L21.8161 33.38H20.1161ZM38.3758 27.18C38.4358 29.68 36.4358 31.3 33.6358 31.3C31.6758 31.3 30.6358 30.92 29.7158 30.4V28.6L29.7558 28.58C30.5958 29.24 31.8158 29.72 33.3958 29.72C35.1758 29.72 36.5758 28.82 36.5758 27.14C36.5758 25.58 35.3758 24.9 32.8558 24.88L31.8158 24.86V23.26H32.8558C34.7558 23.26 35.9958 22.56 35.9958 21.16C35.9958 19.9 35.0358 19.1 33.3558 19.1C31.9958 19.1 30.8358 19.46 30.0958 20L30.0758 19.98V18.4C30.9158 17.92 32.0158 17.48 33.6158 17.48C35.9758 17.48 37.8158 18.6 37.8158 20.88C37.8158 22.22 37.1358 23.2 36.0958 23.82C37.4558 24.3 38.3358 25.3 38.3758 27.18Z" fill="white"/>
</svg>
