<svg width="48" height="48" viewBox="0 0 48 48" fill="none" xmlns="http://www.w3.org/2000/svg">
<circle cx="24" cy="24" r="24" fill="#326295"/>
<path d="M19.4391 26.7427V28.3464H17.32V31H15.6782V28.3464H9.05365V27.5827L15.9264 18.2091H17.32V26.7427H19.4391ZM11.44 26.7427H15.6782V20.92L11.44 26.7427ZM20.7233 33.2718L26.6987 16.72H28.3214L22.346 33.2718H20.7233ZM33.8576 31.2864C32.1776 31.2864 31.2421 31.0382 30.0394 30.5036V28.7664H30.0776C31.4712 29.4727 32.5021 29.6827 33.6858 29.6827C35.4803 29.6827 36.5685 28.7855 36.5685 27.0864C36.5685 25.7118 35.633 24.6045 33.6094 24.6045C32.5403 24.6045 31.5094 24.7 30.3067 25.0436L30.2685 25.0055L30.7076 18.3427H37.8094V19.8891H32.2349L32.0249 23.1918C32.5212 23.0773 33.1512 23.02 33.8576 23.02C36.7212 23.02 38.4203 24.4518 38.4203 26.9527C38.4203 30.0645 36.0721 31.2864 33.8576 31.2864Z" fill="white"/>
</svg>
