<svg width="335" height="260" viewBox="0 0 335 260" fill="none" xmlns="http://www.w3.org/2000/svg">
<path d="M167.33 0C74.92 0 0 74.92 0 167.33V259.1H334.67V167.33C334.67 74.92 259.75 0 167.33 0Z" fill="#D6EFFF"/>
<path d="M55.5298 126C56.6698 126 57.7498 126.27 58.7098 126.75C59.4798 120.21 65.0198 115.14 71.7698 115.14C77.5498 115.14 82.4398 118.87 84.2098 124.04C84.6098 123.98 85.0098 123.95 85.4298 123.95C90.2598 123.95 94.1798 127.87 94.1798 132.7H48.3398C48.6098 128.95 51.7198 126 55.5298 126Z" fill="white"/>
<path d="M246.38 93.6901C245.24 93.6901 244.16 93.9601 243.2 94.4401C242.43 87.9001 236.89 82.8301 230.14 82.8301C224.36 82.8301 219.47 86.5601 217.7 91.7301C217.3 91.6701 216.9 91.6401 216.48 91.6401C211.65 91.6401 207.73 95.5601 207.73 100.39H253.57C253.3 96.6501 250.19 93.6901 246.38 93.6901Z" fill="white"/>
<path d="M35.9302 116.95H28.2002V181.96H35.9302V116.95Z" fill="#C2C2C2"/>
<path d="M34.7107 116.95H31.4707V181.96H34.7107V116.95Z" fill="#D1D1D1"/>
<path opacity="0.1" d="M28.2002 132.84L28.5302 133.17C30.4802 135.12 33.6502 135.12 35.6102 133.17L35.9402 132.84V116.94H28.2002V132.84Z" fill="black"/>
<path d="M28.5304 129.92L5.01035 106.4C3.06035 104.45 3.06035 101.28 5.01035 99.3199L28.5304 75.7999C30.4804 73.8499 33.6504 73.8499 35.6104 75.7999L59.1304 99.3199C61.0804 101.27 61.0804 104.44 59.1304 106.4L35.6104 129.92C33.6504 131.87 30.4804 131.87 28.5304 129.92Z" fill="#FFD800"/>
<path d="M29.1602 125.07L9.86016 105.76C8.26016 104.16 8.26016 101.55 9.86016 99.9499L29.1702 80.6399C30.7702 79.0399 33.3802 79.0399 34.9802 80.6399L54.2902 99.9499C55.8902 101.55 55.8902 104.16 54.2902 105.76L34.9802 125.07C33.3702 126.68 30.7702 126.68 29.1602 125.07Z" stroke="#424242" stroke-miterlimit="10"/>
<path d="M35.1606 106.64H29.0206L28.2906 93.0598C28.1706 90.8798 29.9106 89.0498 32.0906 89.0498C34.2706 89.0498 36.0106 90.8798 35.8906 93.0598L35.1606 106.64ZM28.1406 113.15C28.1406 112.02 28.4706 111.14 29.1406 110.52C29.8106 109.89 30.7806 109.58 32.0606 109.58C33.3206 109.58 34.2806 109.89 34.9306 110.52C35.5806 111.15 35.9106 112.02 35.9106 113.15C35.9106 114.27 35.5706 115.14 34.9006 115.76C34.2206 116.39 33.2806 116.7 32.0606 116.7C30.8306 116.7 29.8706 116.39 29.1806 115.76C28.4906 115.14 28.1406 114.27 28.1406 113.15Z" fill="#424242"/>
<path d="M45.055 176.951C46.2229 169.783 41.3587 163.025 34.1905 161.858C27.0224 160.69 20.2648 165.554 19.0969 172.722C17.9291 179.89 22.7933 186.648 29.9615 187.816C37.1296 188.984 43.8872 184.119 45.055 176.951Z" fill="#00AC65"/>
<path d="M18.4102 188C23.2426 188 27.1602 184.082 27.1602 179.25C27.1602 174.418 23.2426 170.5 18.4102 170.5C13.5777 170.5 9.66016 174.418 9.66016 179.25C9.66016 184.082 13.5777 188 18.4102 188Z" fill="#00AC65"/>
<path d="M51.0801 188C55.9126 188 59.8301 184.082 59.8301 179.25C59.8301 174.418 55.9126 170.5 51.0801 170.5C46.2476 170.5 42.3301 174.418 42.3301 179.25C42.3301 184.082 46.2476 188 51.0801 188Z" fill="#00AC65"/>
<path d="M62.3301 188C65.6438 188 68.3301 185.314 68.3301 182C68.3301 178.686 65.6438 176 62.3301 176C59.0164 176 56.3301 178.686 56.3301 182C56.3301 185.314 59.0164 188 62.3301 188Z" fill="#00AC65"/>
<path d="M90.3492 92.05H117.079V81.5H90.3492C89.4392 81.5 88.6992 82.24 88.6992 83.15V90.4C88.7092 91.31 89.4392 92.05 90.3492 92.05Z" fill="#B9845A"/>
<path d="M115.519 92.05H144.269C145.179 92.05 145.919 91.31 145.919 90.4V83.15C145.919 82.24 145.179 81.5 144.269 81.5H115.519C114.539 81.5 113.749 82.29 113.749 83.27V90.27C113.749 91.25 114.539 92.05 115.519 92.05Z" fill="#A76531"/>
<path opacity="0.2" d="M88.6982 87.3369H145.908V86.3369H88.6982V87.3369Z" fill="black"/>
<path d="M117.548 81.5049H144.668V70.9549H117.548V81.5049Z" fill="#D1D1D1"/>
<path d="M117.55 70.9502H95.8799V81.5002H117.55V70.9502Z" fill="#C2C2C2"/>
<path d="M141.29 70.9502H143.23H144.67V72.3902V74.3302H143.23V72.3902H141.29V70.9502Z" fill="#C2C2C2"/>
<path d="M144.67 78.1304V80.0604V81.5004H143.23H141.29V80.0604H143.23V78.1304H144.67Z" fill="#C2C2C2"/>
<path d="M114.17 70.9502H116.11H117.55V72.3902V74.3302H116.11V72.3902H114.17V70.9502Z" fill="#888888"/>
<path d="M117.55 78.1304V80.0604V81.5004H116.11H114.17V80.0604H116.11V78.1304H117.55Z" fill="#888888"/>
<path d="M120.97 70.9502H119.03H117.59V72.3902V74.3302H119.03V72.3902H120.97V70.9502Z" fill="#C2C2C2"/>
<path d="M117.59 78.1304V80.0604V81.5004H119.03H120.97V80.0604H119.03V78.1304H117.59Z" fill="#C2C2C2"/>
<path d="M99.2599 70.9502H97.3199H95.8799V72.3902V74.3302H97.3199V72.3902H99.2599V70.9502Z" fill="#888888"/>
<path d="M95.8799 78.1304V80.0604V81.5004H97.3199H99.2599V80.0604H97.3199V78.1304H95.8799Z" fill="#888888"/>
<path opacity="0.2" d="M95.8819 76.7861H144.672V75.7861H95.8819V76.7861Z" fill="black"/>
<path d="M91.4102 93.8302L103.16 70.9502" stroke="#424242" stroke-miterlimit="10" stroke-linecap="round"/>
<path d="M99.1094 93.8302L110.859 70.9502" stroke="#424242" stroke-miterlimit="10" stroke-linecap="round"/>
<path d="M148.33 146.84H135.36C125.66 146.84 117.8 154.7 117.8 164.4C117.8 174.1 125.66 181.96 135.36 181.96H148.33C158.03 181.96 165.89 174.1 165.89 164.4C165.89 154.7 158.02 146.84 148.33 146.84Z" fill="#292929"/>
<path d="M208.82 146.84H195.85C186.15 146.84 178.29 154.7 178.29 164.4C178.29 174.1 186.15 181.96 195.85 181.96H208.82C218.52 181.96 226.38 174.1 226.38 164.4C226.38 154.7 218.52 146.84 208.82 146.84Z" fill="#292929"/>
<path d="M112.14 146.84H99.1698V152.57C96.3198 155.69 94.5898 159.84 94.5898 164.4C94.5898 168.96 96.3298 173.11 99.1698 176.23V181.96H112.14C121.84 181.96 129.7 174.1 129.7 164.4C129.7 154.7 121.84 146.84 112.14 146.84Z" fill="#323232"/>
<path d="M172.63 146.84H159.66V152.57C156.81 155.69 155.08 159.84 155.08 164.4C155.08 168.96 156.82 173.11 159.66 176.23V181.96H172.63C182.33 181.96 190.19 174.1 190.19 164.4C190.19 154.7 182.33 146.84 172.63 146.84Z" fill="#323232"/>
<path d="M230.99 172.03H117.46V132.04L123.12 98.4198C123.74 94.7398 126.92 92.0498 130.65 92.0498H206.11C209.53 92.0498 212.67 93.9498 214.25 96.9898L232.52 132.04L230.99 172.03Z" fill="#85CEFF"/>
<path d="M214.25 96.98C212.67 93.95 209.53 92.04 206.11 92.04H144.67V134.69H184.14L190.45 136.18C199.59 138.33 206.96 145.06 209.94 153.96L211.78 159.47L213.17 153.96C215.42 145.06 220.99 138.33 227.89 136.18L232.42 134.69L232.52 132.03L214.25 96.98Z" fill="#D1D1D1"/>
<path d="M182.71 172.03H86.5799L69.1699 163.3V132.04L74.8299 98.4198C75.4499 94.7398 78.6299 92.0498 82.3599 92.0498H157.82C161.24 92.0498 164.38 93.9498 165.96 96.9898L184.23 132.04L182.71 172.03Z" fill="#5CBEFF"/>
<path d="M157.83 92.0498H82.3599C78.6299 92.0498 75.4399 94.7398 74.8299 98.4198L69.1699 132.04V134.7H184.14L184.24 132.04L165.97 96.9898C164.39 93.9498 161.25 92.0498 157.83 92.0498Z" fill="white"/>
<path d="M179.49 132.04L162.42 99.5301C161.64 98.0501 160.1 97.1201 158.42 97.1201H131.3V132.04H179.49Z" fill="#1A5780"/>
<path d="M74.29 132.04L79.47 100.33C79.77 98.4801 81.37 97.1201 83.24 97.1201H123.74V132.04H74.29Z" fill="#1A5780"/>
<path d="M75.4297 125.1H114.35C116.69 125.1 118.72 123.46 119.2 121.17L122.84 104.06C123.22 102.3 121.87 100.64 120.07 100.64H79.4197L75.4297 125.1Z" fill="#053F64"/>
<path d="M119.899 132.04H123.749V108.52L119.899 132.04Z" fill="#053F64"/>
<path d="M120.84 116.24H105.18V132.04H123.75V117.43C122.99 116.69 121.97 116.24 120.84 116.24Z" fill="#032338"/>
<path d="M109.36 132.04H101V120.42C101 118.11 102.87 116.24 105.18 116.24C107.49 116.24 109.36 118.11 109.36 120.42V132.04Z" fill="#042F4B"/>
<path d="M101.52 132.04H81.6797V116.24H97.3397C99.6497 116.24 101.52 118.11 101.52 120.42V132.04Z" fill="#032338"/>
<path d="M85.86 132.04H77.5V120.42C77.5 118.11 79.37 116.24 81.68 116.24C83.99 116.24 85.86 118.11 85.86 120.42V132.04Z" fill="#042F4B"/>
<path d="M188.169 132.04L171.159 99.3001C170.639 98.3101 171.369 97.1201 172.489 97.1201H209.459C210.459 97.1201 211.369 97.6801 211.819 98.5701L228.649 132.04H188.169Z" fill="#1A5780"/>
<path d="M204.04 97.1201H176.92V110.37L188.18 132.04H225.11L208.04 99.5301C207.25 98.0501 205.71 97.1201 204.04 97.1201Z" fill="#053F64"/>
<path d="M183.76 116.24H179.97L187.94 131.59V120.42C187.94 118.11 186.07 116.24 183.76 116.24Z" fill="#032338"/>
<path d="M225.81 126.4H205.17C203.35 126.4 201.61 125.68 200.33 124.39C199.05 123.11 197.3 122.38 195.49 122.38H183.42L188.18 132.03H228.65L225.81 126.4Z" fill="#042F4B"/>
<path d="M162.42 99.5301C161.64 98.0501 160.1 97.1201 158.42 97.1201H131.3V132.04H169.35V112.74L162.42 99.5301Z" fill="#053F64"/>
<path d="M174.68 122.87C171.38 122.87 168.33 124.61 166.64 127.45L163.92 132.04H179.5L174.68 122.87Z" fill="#042F4B"/>
<path d="M201.15 146.84C201.15 150.19 198.73 152.91 195.74 152.91C192.75 152.91 190.33 150.19 190.33 146.84C190.33 143.49 192.75 140.77 195.74 140.77C198.72 140.77 201.15 143.49 201.15 146.84Z" fill="#D1D1D1"/>
<path d="M199.67 146.84C199.67 149.28 197.91 151.26 195.73 151.26C193.55 151.26 191.79 149.28 191.79 146.84C191.79 144.4 193.55 142.42 195.73 142.42C197.91 142.42 199.67 144.4 199.67 146.84Z" fill="white"/>
<path d="M230.12 146.84C230.12 150.19 227.7 152.91 224.71 152.91C221.72 152.91 219.3 150.19 219.3 146.84C219.3 143.49 221.72 140.77 224.71 140.77C227.69 140.77 230.12 143.49 230.12 146.84Z" fill="#D1D1D1"/>
<path d="M228.64 146.84C228.64 149.28 226.88 151.26 224.7 151.26C222.52 151.26 220.76 149.28 220.76 146.84C220.76 144.4 222.52 142.42 224.7 142.42C226.88 142.42 228.64 144.4 228.64 146.84Z" fill="white"/>
<path d="M235.77 165.4H182.71V172.03H235.77V165.4Z" fill="#C2C2C2"/>
<path d="M75.8197 157.76H66.6797V164.39H75.8197V157.76Z" fill="#888888"/>
<path d="M182.709 165.4H174.989V172.03H182.709V165.4Z" fill="#888888"/>
<path d="M166.314 180.664C175.29 176.992 179.591 166.738 175.919 157.762C172.247 148.785 161.994 144.485 153.017 148.156C144.041 151.828 139.74 162.082 143.412 171.058C147.084 180.035 157.337 184.335 166.314 180.664Z" fill="#424242"/>
<path d="M169.056 166.628C170.287 161.437 167.077 156.231 161.886 155C156.695 153.769 151.489 156.98 150.258 162.171C149.027 167.362 152.237 172.568 157.428 173.798C162.619 175.029 167.825 171.819 169.056 166.628Z" fill="#C2C2C2"/>
<path d="M159.66 172.45C164.106 172.45 167.71 168.846 167.71 164.4C167.71 159.954 164.106 156.35 159.66 156.35C155.214 156.35 151.61 159.954 151.61 164.4C151.61 168.846 155.214 172.45 159.66 172.45Z" fill="#888888"/>
<path d="M165.32 164.4C165.32 167.12 163.11 169.33 160.39 169.33C157.67 169.33 155.46 167.12 155.46 164.4C155.46 161.68 157.67 159.47 160.39 159.47C163.11 159.47 165.32 161.68 165.32 164.4Z" fill="#656565"/>
<path d="M164.589 164.4C164.589 167.12 162.38 169.33 159.66 169.33C156.94 169.33 154.729 167.12 154.729 164.4C154.729 161.68 156.94 159.47 159.66 159.47C162.38 159.47 164.589 161.68 164.589 164.4Z" fill="#C2C2C2"/>
<path d="M153.22 164.4C153.22 160.23 156.4 156.8 160.46 156.39C160.2 156.36 159.93 156.35 159.66 156.35C155.22 156.35 151.61 159.95 151.61 164.4C151.61 168.84 155.21 172.45 159.66 172.45C159.93 172.45 160.2 172.44 160.46 172.41C156.4 172 153.22 168.57 153.22 164.4Z" fill="#656565"/>
<path d="M116.289 168.315C118.453 158.862 112.543 149.444 103.089 147.28C93.6357 145.117 84.218 151.026 82.0544 160.48C79.8907 169.934 85.8005 179.352 95.2542 181.515C104.708 183.679 114.126 177.769 116.289 168.315Z" fill="#424242"/>
<path d="M108.564 166.623C109.795 161.432 106.584 156.226 101.393 154.995C96.2024 153.764 90.9965 156.975 89.7657 162.166C88.5349 167.357 91.7453 172.563 96.9363 173.794C102.127 175.024 107.333 171.814 108.564 166.623Z" fill="#C2C2C2"/>
<path d="M99.1701 172.45C103.616 172.45 107.22 168.845 107.22 164.4C107.22 159.954 103.616 156.35 99.1701 156.35C94.7242 156.35 91.1201 159.954 91.1201 164.4C91.1201 168.845 94.7242 172.45 99.1701 172.45Z" fill="#888888"/>
<path d="M92.7301 164.4C92.7301 160.23 95.9101 156.8 99.9701 156.39C99.7101 156.36 99.4401 156.35 99.1701 156.35C94.7301 156.35 91.1201 159.95 91.1201 164.4C91.1201 168.84 94.7201 172.45 99.1701 172.45C99.4401 172.45 99.7101 172.44 99.9701 172.41C95.9001 172 92.7301 168.57 92.7301 164.4Z" fill="#656565"/>
<path d="M104.82 164.4C104.82 167.12 102.61 169.33 99.89 169.33C97.17 169.33 94.96 167.12 94.96 164.4C94.96 161.68 97.17 159.47 99.89 159.47C102.62 159.47 104.82 161.68 104.82 164.4Z" fill="#656565"/>
<path d="M104.089 164.4C104.089 167.12 101.879 169.33 99.1595 169.33C96.4395 169.33 94.2295 167.12 94.2295 164.4C94.2295 161.68 96.4395 159.47 99.1595 159.47C101.889 159.47 104.089 161.68 104.089 164.4Z" fill="#C2C2C2"/>
<path d="M194.55 158.72C194.55 160.36 193.22 161.7 191.57 161.7C189.92 161.7 188.59 160.37 188.59 158.72C188.59 157.08 189.92 155.74 191.57 155.74C193.22 155.74 194.55 157.07 194.55 158.72Z" fill="#E9662C"/>
<path d="M230.649 158.72C230.649 160.36 229.319 161.7 227.679 161.7C226.039 161.7 224.699 160.37 224.699 158.72C224.699 157.08 226.029 155.74 227.679 155.74C229.319 155.74 230.649 157.07 230.649 158.72Z" fill="#E9662C"/>
<path opacity="0.1" d="M85.93 97.1201L78.84 104.2L74.29 132.04H82.16L117.08 97.1201H85.93Z" fill="white"/>
<path opacity="0.1" d="M123.75 123.8V100.64L92.3398 132.04H115.51L123.75 123.8Z" fill="white"/>
<path opacity="0.1" d="M150.43 97.1201H131.31V116.24L150.43 97.1201Z" fill="white"/>
<path opacity="0.1" d="M212.58 100.09L212.47 99.8801L211.81 98.5701C211.36 97.6801 210.45 97.1201 209.45 97.1201H183.96L174.79 106.29L178.98 114.36L185.59 127.07L212.58 100.09Z" fill="white"/>
<path opacity="0.1" d="M223.9 122.59L216.04 106.96L190.96 132.04H214.45L223.9 122.59Z" fill="white"/>
<path d="M155.329 132.04H135.489V116.24H151.149C153.459 116.24 155.329 118.11 155.329 120.42V132.04Z" fill="#032338"/>
<path d="M139.67 132.04H131.31V120.42C131.31 118.11 133.18 116.24 135.49 116.24C137.8 116.24 139.67 118.11 139.67 120.42V132.04Z" fill="#042F4B"/>
<path d="M168.1 116.24V132.04H179.49L171.2 116.24H168.1Z" fill="#032338"/>
<path d="M172.28 132.04H163.92V120.42C163.92 118.11 165.79 116.24 168.1 116.24C170.41 116.24 172.28 118.11 172.28 120.42V132.04Z" fill="#042F4B"/>
<path opacity="0.1" d="M162.42 99.5302C161.74 98.2302 160.48 97.3602 159.05 97.1602L131.3 124.91V132.04H155.32L171.16 116.2L162.42 99.5302Z" fill="white"/>
<path opacity="0.1" d="M174.68 122.87L165.51 132.04H179.49L174.68 122.87Z" fill="white"/>
<path d="M216.16 181.95H0V198.66H216.16V181.95Z" fill="#A4C639"/>
<path d="M314.66 181.95H216.16V198.66H314.66V181.95Z" fill="#00AC65"/>
<path d="M303.16 181.95H227.66V198.66H303.16V181.95Z" fill="#424242"/>
<path d="M314.66 198.67H216.16V259.1H314.66V198.67Z" fill="#7D4C25"/>
<path d="M216.16 198.67H0V259.1H216.16V198.67Z" fill="#A76531"/>
<path opacity="0.1" d="M229.58 242.54C227.51 242.54 225.83 240.86 225.83 238.79V212.54C225.83 210.47 227.51 208.79 229.58 208.79C231.65 208.79 233.33 210.47 233.33 212.54V238.79C233.33 240.86 231.65 242.54 229.58 242.54Z" fill="black"/>
<path opacity="0.1" d="M284.46 225.67C283.19 225.67 282.17 224.64 282.17 223.38V207.42C282.17 206.15 283.2 205.13 284.46 205.13C285.73 205.13 286.75 206.16 286.75 207.42V223.38C286.75 224.64 285.72 225.67 284.46 225.67Z" fill="black"/>
<path opacity="0.1" d="M249.42 257.55C248.15 257.55 247.13 256.52 247.13 255.26V233.74C247.13 232.47 248.16 231.45 249.42 231.45C250.69 231.45 251.71 232.48 251.71 233.74V255.26C251.71 256.53 250.68 257.55 249.42 257.55Z" fill="black"/>
<path opacity="0.1" d="M54.4599 234.05C53.1899 234.05 52.1699 233.02 52.1699 231.76V210.24C52.1699 208.97 53.1999 207.95 54.4599 207.95C55.7299 207.95 56.7499 208.98 56.7499 210.24V231.76C56.7499 233.03 55.7199 234.05 54.4599 234.05Z" fill="black"/>
<path opacity="0.1" d="M145.57 247.56C143.86 247.56 142.48 246.18 142.48 244.47V217.96C142.48 216.25 143.86 214.87 145.57 214.87C147.28 214.87 148.66 216.25 148.66 217.96V244.47C148.67 246.18 147.28 247.56 145.57 247.56Z" fill="black"/>
<path opacity="0.1" d="M87.0097 252.75C85.7397 252.75 84.7197 251.72 84.7197 250.46V214.7C84.7197 213.43 85.7497 212.41 87.0097 212.41C88.2797 212.41 89.2997 213.44 89.2997 214.7V250.46C89.2997 251.72 88.2697 252.75 87.0097 252.75Z" fill="black"/>
<path opacity="0.1" d="M17.1699 249.97C15.0999 249.97 13.4199 248.29 13.4199 246.22V218.93C13.4199 216.86 15.0999 215.18 17.1699 215.18C19.2399 215.18 20.9199 216.86 20.9199 218.93V246.22C20.9199 248.3 19.2399 249.97 17.1699 249.97Z" fill="black"/>
<path opacity="0.1" d="M174.77 243.06C172.7 243.06 171.02 241.38 171.02 239.31V212.02C171.02 209.95 172.7 208.27 174.77 208.27C176.84 208.27 178.52 209.95 178.52 212.02V239.31C178.52 241.38 176.85 243.06 174.77 243.06Z" fill="black"/>
<path opacity="0.1" d="M126.99 212.49C126.99 215.34 124.68 217.66 121.82 217.66C118.97 217.66 116.65 215.35 116.65 212.49C116.65 209.63 118.96 207.32 121.82 207.32C124.68 207.32 126.99 209.63 126.99 212.49Z" fill="black"/>
<path opacity="0.1" d="M131.97 239C131.97 240.33 130.89 241.41 129.56 241.41C128.23 241.41 127.15 240.33 127.15 239C127.15 237.67 128.23 236.59 129.56 236.59C130.89 236.59 131.97 237.67 131.97 239Z" fill="black"/>
<path opacity="0.1" d="M187.21 249.97C187.21 251.3 186.13 252.38 184.8 252.38C183.47 252.38 182.39 251.3 182.39 249.97C182.39 248.64 183.47 247.56 184.8 247.56C186.12 247.56 187.21 248.64 187.21 249.97Z" fill="black"/>
<path opacity="0.1" d="M68.3299 214.9C69.6609 214.9 70.7399 213.821 70.7399 212.49C70.7399 211.159 69.6609 210.08 68.3299 210.08C66.9989 210.08 65.9199 211.159 65.9199 212.49C65.9199 213.821 66.9989 214.9 68.3299 214.9Z" fill="black"/>
<path opacity="0.1" d="M44.5801 230.17C45.8227 230.17 46.8301 229.163 46.8301 227.92C46.8301 226.677 45.8227 225.67 44.5801 225.67C43.3374 225.67 42.3301 226.677 42.3301 227.92C42.3301 229.163 43.3374 230.17 44.5801 230.17Z" fill="black"/>
<path opacity="0.1" d="M73.5096 255.7C75.1388 255.7 76.4596 254.379 76.4596 252.75C76.4596 251.121 75.1388 249.8 73.5096 249.8C71.8803 249.8 70.5596 251.121 70.5596 252.75C70.5596 254.379 71.8803 255.7 73.5096 255.7Z" fill="black"/>
<path opacity="0.1" d="M198.78 219C198.78 220.56 197.51 221.83 195.95 221.83C194.39 221.83 193.12 220.56 193.12 219C193.12 217.44 194.39 216.17 195.95 216.17C197.51 216.17 198.78 217.44 198.78 219Z" fill="black"/>
<path opacity="0.1" d="M110.49 232.58C110.49 233.5 109.74 234.25 108.82 234.25C107.9 234.25 107.15 233.5 107.15 232.58C107.15 231.66 107.9 230.91 108.82 230.91C109.74 230.91 110.49 231.66 110.49 232.58Z" fill="black"/>
<path opacity="0.1" d="M163 207.32C163 208.24 162.25 208.99 161.33 208.99C160.41 208.99 159.66 208.24 159.66 207.32C159.66 206.4 160.41 205.65 161.33 205.65C162.25 205.65 163 206.4 163 207.32Z" fill="black"/>
<path opacity="0.1" d="M15.0802 206.79C15.0802 207.71 14.3302 208.46 13.4102 208.46C12.4902 208.46 11.7402 207.71 11.7402 206.79C11.7402 205.87 12.4902 205.12 13.4102 205.12C14.3402 205.13 15.0802 205.87 15.0802 206.79Z" fill="black"/>
<path opacity="0.1" d="M165.28 251.05C165.28 253.23 163.51 255 161.33 255C159.15 255 157.38 253.23 157.38 251.05C157.38 248.87 159.15 247.1 161.33 247.1C163.51 247.1 165.28 248.87 165.28 251.05Z" fill="black"/>
<path opacity="0.1" d="M270.76 216.7C270.76 219.07 268.84 221 266.46 221C264.09 221 262.16 219.08 262.16 216.7C262.16 214.33 264.08 212.4 266.46 212.4C268.84 212.41 270.76 214.33 270.76 216.7Z" fill="black"/>
<path opacity="0.1" d="M309.59 235.79C309.59 237.56 308.15 239 306.38 239C304.61 239 303.17 237.56 303.17 235.79C303.17 234.02 304.61 232.58 306.38 232.58C308.15 232.58 309.59 234.02 309.59 235.79Z" fill="black"/>
<path opacity="0.1" d="M233.52 253.75C233.52 254.87 232.61 255.78 231.49 255.78C230.37 255.78 229.46 254.87 229.46 253.75C229.46 252.63 230.37 251.72 231.49 251.72C232.61 251.73 233.52 252.63 233.52 253.75Z" fill="black"/>
<path opacity="0.1" d="M244.83 213.29C244.83 214.35 243.97 215.2 242.92 215.2C241.87 215.2 241.01 214.34 241.01 213.29C241.01 212.24 241.87 211.38 242.92 211.38C243.97 211.38 244.83 212.24 244.83 213.29Z" fill="black"/>
<path opacity="0.1" d="M280.52 232.58C280.52 233.64 279.66 234.49 278.61 234.49C277.55 234.49 276.7 233.63 276.7 232.58C276.7 231.52 277.56 230.67 278.61 230.67C279.67 230.66 280.52 231.52 280.52 232.58Z" fill="black"/>
<path opacity="0.1" d="M27.4401 254.08C29.71 254.08 31.5501 252.24 31.5501 249.97C31.5501 247.7 29.71 245.86 27.4401 245.86C25.1702 245.86 23.3301 247.7 23.3301 249.97C23.3301 252.24 25.1702 254.08 27.4401 254.08Z" fill="black"/>
<path d="M307.85 212.49C307.85 214.82 305.96 216.71 303.63 216.71C301.3 216.71 299.41 214.82 299.41 212.49C299.41 210.16 301.3 208.27 303.63 208.27C305.96 208.27 307.85 210.16 307.85 212.49Z" fill="#A76531"/>
<path d="M288.96 249.49C288.96 253.24 285.92 256.29 282.16 256.29C278.41 256.29 275.36 253.25 275.36 249.49C275.36 245.74 278.4 242.69 282.16 242.69C285.92 242.69 288.96 245.74 288.96 249.49Z" fill="#A76531"/>
<path d="M331.09 235.79C331.09 237.56 329.65 239 327.88 239C326.11 239 324.67 237.56 324.67 235.79C324.67 234.02 326.11 232.58 327.88 232.58C329.65 232.58 331.09 234.02 331.09 235.79Z" fill="#A76531"/>
<path d="M285.03 198.67C285.03 200.44 283.59 201.88 281.82 201.88C280.05 201.88 278.61 200.44 278.61 198.67C278.61 196.9 280.05 195.46 281.82 195.46C283.59 195.46 285.03 196.89 285.03 198.67Z" fill="#292929"/>
<path d="M290.34 189.64C291.042 189.64 291.61 189.071 291.61 188.37C291.61 187.669 291.042 187.1 290.34 187.1C289.639 187.1 289.07 187.669 289.07 188.37C289.07 189.071 289.639 189.64 290.34 189.64Z" fill="#292929"/>
<path d="M290.62 209.82C290.62 210.68 289.92 211.37 289.07 211.37C288.22 211.37 287.52 210.67 287.52 209.82C287.52 208.97 288.22 208.27 289.07 208.27C289.92 208.27 290.62 208.97 290.62 209.82Z" fill="#292929"/>
<path d="M269.67 239C269.67 240.77 268.23 242.21 266.46 242.21C264.69 242.21 263.25 240.77 263.25 239C263.25 237.23 264.69 235.79 266.46 235.79C268.24 235.79 269.67 237.23 269.67 239Z" fill="#A76531"/>
<path d="M277.01 153.55H268.5V167.56H277.01V153.55Z" fill="#FFAD91"/>
<path d="M277.01 167.55H268.5V173.54H277.01V167.55Z" fill="white"/>
<path d="M280.88 180.33H267.83V173.54H277.28C279.27 173.54 280.88 175.15 280.88 177.14V180.33Z" fill="#B5292A"/>
<path d="M274.09 180.33H280.88V176.94C280.88 175.07 279.36 173.55 277.49 173.55C275.62 173.55 274.1 175.07 274.1 176.94V180.33H274.09Z" fill="white"/>
<path d="M280.88 180.33H267.83V181.96H280.88V180.33Z" fill="#C7C7C7"/>
<path d="M270.97 177.55C270.97 178.57 270.42 179.39 269.73 179.39C269.05 179.39 268.49 178.56 268.49 177.55C268.49 176.53 269.04 175.71 269.73 175.71C270.42 175.7 270.97 176.53 270.97 177.55Z" fill="white"/>
<path d="M278.041 134.91H258.521V153.55H278.041V134.91Z" fill="#2C97DE"/>
<path d="M271.981 134.91H258.521V153.55H271.981V134.91Z" fill="#33AEFF"/>
<path d="M288.94 121.07L272.97 119.4L273.75 112.83L289.73 114.49L288.94 121.07Z" fill="#E69C83"/>
<path d="M285.98 100.2L291.7 116.64C292.32 118.36 291.42 120.26 289.7 120.87C287.98 121.49 286.08 120.59 285.47 118.87L279.75 102.43L285.98 100.2Z" fill="#FFAD91"/>
<path d="M285.271 98.1197L286.721 102.17L278.831 105L276.601 98.7797L282.321 96.7297C283.521 96.2897 284.841 96.9197 285.271 98.1197Z" fill="#FFAD91"/>
<path d="M278.54 139.95H258.36L258.38 123.25L256.62 117.03C256.62 113.2 259.73 110.09 263.56 110.09H272.66C276.18 110.09 279.04 112.95 279.04 116.47V120.58L278.19 124.21L278.54 139.95Z" fill="#B5292A"/>
<path d="M270.941 114.6H269.381C267.381 114.6 265.771 112.98 265.771 110.99V102.86H274.561V110.99C274.551 112.99 272.931 114.6 270.941 114.6Z" fill="#E69C83"/>
<path d="M282.061 102.86L273.561 100.63L276.131 90.8198L280.571 91.9798C282.811 92.5698 284.151 94.8598 283.571 97.1098L282.061 102.86Z" fill="#4D352C"/>
<path d="M262.7 100.32L277.19 104.12L279.63 94.81C280.15 92.84 278.97 90.83 277 90.32L273.75 89.47C269.51 88.36 265.16 90.9 264.05 95.14L262.7 100.32Z" fill="#4D352C"/>
<path d="M280.821 101.37L279.881 101.12L278.771 105.34L279.711 105.59C280.871 105.9 282.071 105.2 282.371 104.03C282.681 102.86 281.991 101.67 280.821 101.37Z" fill="#E69C83"/>
<path d="M265.33 94.6999L275.64 97.3999C277.35 97.8499 279.1 96.8299 279.54 95.1199L266.14 91.6099L265.33 94.6999Z" fill="#4D352C"/>
<path d="M279.54 95.1297C279.09 96.8297 277.35 97.8497 275.64 97.3997L265.77 94.7197L263.9 100.56C262.69 105.18 265.45 109.91 270.07 111.12L272.57 111.77C275.74 112.6 278.99 110.7 279.82 107.53L281.96 99.3797C282.45 97.5497 281.37 95.6597 279.54 95.1297Z" fill="#FFAD91"/>
<path d="M263.76 101.4L264.7 101.65L265.81 97.4299L264.87 97.1799C263.71 96.8699 262.51 97.5699 262.21 98.7399C261.9 99.9099 262.6 101.1 263.76 101.4Z" fill="#FFAD91"/>
<path d="M263.76 101.25C262.97 105.65 265.68 109.98 270.07 111.13L272.57 111.78C275.74 112.61 278.99 110.71 279.82 107.54L280.33 105.59L263.76 101.25Z" fill="#4D352C"/>
<path d="M263.911 100.57C263.831 100.89 263.771 101.21 263.721 101.54L265.911 102.11L267.831 94.7799L265.581 94.1899L263.911 100.57Z" fill="#4D352C"/>
<path d="M272.18 99.3499C272.02 99.9499 271.4 100.32 270.8 100.16C270.2 100 269.83 99.3799 269.99 98.7799C270.15 98.1799 270.77 97.8099 271.37 97.9699C271.98 98.1299 272.34 98.7499 272.18 99.3499Z" fill="#4D352C"/>
<path d="M279.13 101.17C278.97 101.77 278.35 102.14 277.75 101.98C277.15 101.82 276.79 101.2 276.94 100.6C277.1 99.9998 277.72 99.6298 278.32 99.7898C278.93 99.9498 279.29 100.57 279.13 101.17Z" fill="#4D352C"/>
<path d="M276.718 100.284L274.31 99.6528L273.242 103.725L275.651 104.356L276.718 100.284Z" fill="#E69C83"/>
<path d="M270.16 96.0498C270.16 96.0498 272.84 96.7898 274.22 97.1098" stroke="#271B16" stroke-width="0.775" stroke-miterlimit="10" stroke-linecap="round"/>
<path d="M278.13 97.4899C278.13 97.4899 280.98 96.4299 281.24 97.7399" stroke="#271B16" stroke-width="0.775" stroke-miterlimit="10" stroke-linecap="round"/>
<path d="M273.26 106.76C273.26 106.76 271.05 105.01 268.86 105.61" stroke="#271B16" stroke-width="0.775" stroke-miterlimit="10" stroke-linecap="round"/>
<path d="M261.89 118.22L253.27 125.37C251.58 126.77 249.25 126.74 248.09 125.3C246.95 123.89 247.37 121.66 249.02 120.29L257.64 113.14C259.33 111.74 261.66 111.77 262.82 113.21C263.96 114.62 263.55 116.85 261.89 118.22Z" fill="#FFAD91"/>
<path d="M253.951 122.57L258.741 131.82C259.681 133.63 259.091 135.79 257.441 136.62C255.821 137.43 253.791 136.66 252.871 134.88L248.081 125.63C247.141 123.82 247.731 121.66 249.381 120.83C251.001 120.02 253.031 120.8 253.951 122.57Z" fill="#FFAD91"/>
<path d="M253.49 133.54L257.24 129.93C257.71 129.48 258.46 129.49 258.91 129.96L261.47 132.62C262.47 133.66 262.44 135.32 261.4 136.32L259.33 138.31C258.29 139.31 256.63 139.28 255.63 138.24L253.44 135.96C252.78 135.28 252.81 134.2 253.49 133.54Z" fill="#FFAD91"/>
<path d="M261.891 136.61L259.831 134.63C259.321 134.14 259.301 133.32 259.801 132.81C260.291 132.3 261.111 132.28 261.621 132.78L263.681 134.76C264.191 135.25 264.211 136.07 263.711 136.58C263.221 137.09 262.401 137.11 261.891 136.61Z" fill="#FFAD91"/>
<path d="M260.61 138.89L258.55 136.91C258.04 136.42 258.02 135.6 258.52 135.09C259.01 134.58 259.83 134.56 260.34 135.06L262.4 137.04C262.91 137.53 262.93 138.35 262.43 138.86C261.94 139.37 261.12 139.39 260.61 138.89Z" fill="#FFAD91"/>
<path d="M267.21 153.55H258.7V167.56H267.21V153.55Z" fill="#FFAD91"/>
<path d="M267.21 167.55H258.7V173.54H267.21V167.55Z" fill="white"/>
<path d="M271.08 180.33H258.03V173.54H267.48C269.47 173.54 271.08 175.15 271.08 177.14V180.33Z" fill="#B5292A"/>
<path d="M264.29 180.33H271.08V176.94C271.08 175.07 269.56 173.55 267.69 173.55C265.82 173.55 264.3 175.07 264.3 176.94V180.33H264.29Z" fill="white"/>
<path d="M271.08 180.33H258.03V181.96H271.08V180.33Z" fill="#D1D1D1"/>
<path d="M261.17 177.55C261.17 178.57 260.62 179.39 259.93 179.39C259.25 179.39 258.69 178.56 258.69 177.55C258.69 176.53 259.24 175.71 259.93 175.71C260.62 175.7 261.17 176.53 261.17 177.55Z" fill="white"/>
<path opacity="0.1" d="M137.05 259.1V256.02C137.05 253.95 135.37 252.27 133.3 252.27C131.23 252.27 129.55 253.95 129.55 256.02V259.1H137.05Z" fill="black"/>
<path opacity="0.1" d="M200.53 259.1V251.78C200.53 250.51 199.5 249.49 198.24 249.49C196.98 249.49 195.95 250.52 195.95 251.78V259.1H200.53Z" fill="black"/>
<path opacity="0.1" d="M60.5 259.1V246.81C60.5 244.74 58.82 243.06 56.75 243.06C54.68 243.06 53 244.74 53 246.81V259.1H60.5Z" fill="black"/>
<path opacity="0.1" d="M112.67 259.1V249.4C112.67 247.33 110.99 245.65 108.92 245.65C106.85 245.65 105.17 247.33 105.17 249.4V259.1H112.67Z" fill="black"/>
<path opacity="0.1" d="M273.75 259.1V251.75C273.75 249.68 272.07 248 270 248C267.93 248 266.25 249.68 266.25 251.75V259.1H273.75Z" fill="black"/>
<path opacity="0.1" d="M303.17 259.1V246.75C303.17 244.68 301.49 243 299.42 243C297.35 243 295.67 244.68 295.67 246.75V259.1H303.17Z" fill="black"/>
<path d="M245.45 40.0499C246.59 40.0499 247.67 40.3199 248.63 40.7999C249.4 34.2599 254.94 29.1899 261.69 29.1899C267.47 29.1899 272.36 32.9199 274.13 38.0899C274.53 38.0299 274.93 37.9999 275.35 37.9999C280.18 37.9999 284.1 41.9199 284.1 46.7499H238.26C238.53 43.0099 241.64 40.0499 245.45 40.0499Z" fill="white"/>
<path d="M89.2298 53.61C88.0898 53.61 87.0098 53.88 86.0498 54.36C85.2898 47.82 79.7398 42.75 72.9998 42.75C67.2198 42.75 62.3298 46.48 60.5598 51.65C60.1598 51.59 59.7598 51.56 59.3398 51.56C54.5098 51.56 50.5898 55.48 50.5898 60.31H96.4298C96.1598 56.57 93.0398 53.61 89.2298 53.61Z" fill="white"/>
</svg>
