<?xml version="1.0" encoding="utf-8"?>
<!-- Generator: Adobe Illustrator 23.0.3, SVG Export Plug-In . SVG Version: 6.00 Build 0)  -->
<svg version="1.1" id="Layer_1" xmlns="http://www.w3.org/2000/svg" xmlns:xlink="http://www.w3.org/1999/xlink" x="0px" y="0px"
	 viewBox="0 0 1026.6 1109.9" style="enable-background:new 0 0 1026.6 1109.9;" xml:space="preserve">
<style type="text/css">
	.st0{fill:none;}
	.st1{fill:#FCB70D;}
	.st2{fill:#E2B897;}
	.st3{fill:#F8BD8C;}
	.st4{fill:#31185E;}
	.st5{fill:#2A1656;}
	.st6{fill:#1D1647;}
	.st7{fill:#EAB186;}
	.st8{fill:#1A1A1A;}
	.st9{fill:#FCFCFC;}
	.st10{fill:#666B6D;}
	.st11{fill:#0B0635;}
	.st12{fill:#8D48F9;}
	.st13{fill:#FF7C90;}
	.st14{fill:#DC4070;}
</style>
<g>
	<path class="st0" d="M267.2,132.7c0.8-1.9,1.6-3.7,2.4-5.5C268.7,128.5,267.9,130.4,267.2,132.7z"/>
	<path class="st1" d="M572.9,963.3c0.2,0,0.4,0,0.7,0c-5.5,0-10.7-0.2-15.3-0.6l0,0.4l0,0.1l2.2,28.8c0,0,0,0,0,0l0.9,12.5l4.3,57.7
		c3.8-16.6,9.1-36.5,15.3-57.7c0.8-2.9,1.7-5.8,2.5-8.7l0,0l-0.2-0.2C573.2,987.4,572.9,963.3,572.9,963.3z"/>
	<polygon class="st1" points="593.6,962.2 593.5,962.7 593.6,962.2 593.6,962.2 	"/>
	<path class="st1" d="M176.8,886.6c-5.6-7.5,0.7-18.8,0.7-39.6c0-12.4-2.2-37-3.2-65.1c-21.1-23.5-34.8-77.2-35.5-79.9
		c-0.3-1.1,0.4-2.1,1.4-2.4c-22.5-80-33.3-183.5-26-201.1c8.6-20.9,12.8-48.2,39.7-71.6c0.9-1.6,4-3.9,8.7-6.8
		c9.4-6.7,21-12.9,35.6-18.5c0.1-0.1,0.3-0.1,0.4-0.2l2-1.2c0,0,0.1,0,0.2,0.1c17.1-8.1,36.2-16.6,52.2-23.5l-0.1-0.1l22.1-23.3
		h30.4l-1.6-43.3l-0.2-5.2l0-0.8c-17.6-15.2-31.8-38.7-39-66.8c-7.3-0.1-15.3-6-19.9-15.3c-4.3-8.8-4.2-18.3-0.4-24.2
		c-2.4-1.5-4.3-3.8-5-5.7c-101.5,63.1-184.7,160.1-210,287.6c-42.6,214.4,81.2,383.3,146.5,451.5L176.8,886.6L176.8,886.6z"/>
	<path class="st1" d="M900,975.5c0,0-1.4-7.4,1.1-12.3c0,0-5.6-5.7-4.9-14c0,0-0.6-1-1.4-2.6c-0.7,0.3-2.1,0.9-3,1.4
		c-1.2,0.7-1.3,4.7-0.9,7.1c0.5,2.4,1,10.1,0.3,14.5c-0.8,4.4-4.1,7.4-9.1,7.2c0,0,0,0,0,0c0,0,0,0,0,0c0.3,1.9,0.7,3.7,1,5.5
		c2.3,0.4,6.2,1.8,6.2,1.8S894.6,978.2,900,975.5z"/>
	<path class="st1" d="M854.7,825.3c-0.5,0.3-0.9,0.6-1.4,0.9c0.4,1.6,0.7,3.4,1.1,5.3c0-0.3,0-0.6,0-1
		C854.6,828.9,854.6,827.1,854.7,825.3z"/>
	<path class="st1" d="M885.2,994.2c0.1,0.3,0.1,0.7,0.2,1c0.7-0.1,1.4-0.2,2.1-0.3L885.2,994.2z"/>
	<path class="st1" d="M940.9,594.3c-36.7-194.4,17.5-221.7-27.5-307.5C841.8,150.4,639.1,94.1,483.9,108.5
		c-19.2,1.8-38.7,4.7-58.4,8.9c0.3,15.2,0.8,31.9,0.3,38.2c-0.7,8.9-5.7,9.9-8.2,9.9c0,0.2,0.1,0.4,0.1,0.6c1.7-0.5,3.5-0.7,5.2-0.5
		c9.2,1.1,15.5,12.5,14,25.5c-1.3,11-7.6,19.6-15.1,21.4c1.5,29.9-5.4,57.3-18.4,77.3l3.7,18.8l4.9,24.6l28.7-8.2l24.6,26.5
		l-1.6,1.2L588,398c0,0,0,0.1,0,0.2c6,2.9,11.1,7.6,15.7,13.9c-2-25.7-0.6-51.7,2.3-77.8c4-35.3,5.3-92.5,31.9-119.2
		c15.3-15.3,84.8-37.4,97-12.9c0.4,0.8,0.7,1.6,1.1,2.3l0.8-0.3c0,0,24.8-9.2,47.2,2.3c23.8,12.2,36,24.4,41.4,126.7
		c4.9,91.6,4.9,142.2,5.3,157.5l16.2,2.8c0-0.2,0-0.3,0-0.3s58.4-4.2,78.9,77.7c20.6,81.9,18.4,112.6,17.3,164.7
		c-1.1,52.1,59.7,155.1,4.5,221.4c0,0-6.7-3.3-17.3-7.9c1.5,4.6,2.4,8.1,2,11.5c0,0-6.3,24.6-12.8,30c-6.7,5.6-21.5,15.3-25.8,15.6
		c-1.5,0.1-3.9,0-6.4-0.2c0,0,0,0,0,0c0.5,2.9,1.1,5.8,1.6,8.6c38.7-21.6,82.2-53.4,104-106.1C1028.4,822.8,972.7,762.5,940.9,594.3
		z"/>
	<path class="st1" d="M561.5,1083.1h-37.1c48.9,5,97.6,4.8,144,0H567.2H561.5z"/>
	<path class="st2" d="M377.5,1033.4c-0.5-17.4-1.2-37.7-2.1-53.8L377.5,1033.4z"/>
	<path class="st2" d="M565.7,1062.4l-4.3-57.7l-0.9-12.5c0,0,0,0,0,0l-2.2-28.8l0-0.1l0-0.4c-13.5-1-22.7-2.8-22.7-2.8
		c-7.5-30.6-10.8-52.9-11.6-71.6c-30.6,4.6-75.6,10.8-86.3,8.8c-16.5-3.1-91.6-7.9-128.3-4.2c-24.8,2.5-62.9,4.9-91.2,4l0,0
		l91.9,31.6c0.3-1,1.4-1.6,2.5-1.3c2.2,0.7,54.3,16.1,62.8,21.6c1.3,0.9,3,1.9,4.9,49.5c1,23,1.5,46,1.5,46.2c0,1.1-0.8,2-2,2
		c0,0,0,0,0,0c-0.8,0-1.5-0.5-1.8-1.2l0.3,6.6c47.6,15.9,97,26.1,146.2,31.1h37.1C562.5,1077,563.9,1070,565.7,1062.4z"/>
	<path class="st2" d="M178.6,933.9c-0.9-0.9-1.8-1.8-2.7-2.8"/>
	<path class="st2" d="M180.2,889.7L180.2,889.7c-1.4-1-2.6-2-3.4-3.2l0,0l-0.8,44.6c0.9,0.9,1.8,1.9,2.7,2.8L180.2,889.7z"/>
	<path class="st2" d="M180.2,889.7L180.2,889.7l-1.6,44.2c10.6,10.9,19.5,19,25.6,24c51.5,42.1,111.1,73.1,174,94.1l-0.3-6.6
		c-0.1-0.2-0.2-0.5-0.2-0.8c-0.1-3.5-0.2-7.3-0.3-11.2l-2.1-53.8c-0.8-14.3-1.7-25.2-2.6-27.7c-7.3-4.3-43.2-15.5-61.4-20.9
		c-1.1-0.3-1.7-1.4-1.4-2.5c0,0,0-0.1,0-0.1l-91.9-31.6l0,0c-13.6-0.4-25-1.7-31.6-4C183.9,891.8,181.8,890.8,180.2,889.7z"/>
	<path class="st3" d="M303.6,303.9l0,0.8c0.4,0.1,0.8,0.1,1.2,0.2C304.4,304.6,304,304.3,303.6,303.9z"/>
	<path class="st3" d="M382.4,333c-26.9,9.7-60.6-10.5-78.6-23l1.6,43.3h36.1l70.4-20.2l-4.9-24.6C402.5,319,394.6,328.7,382.4,333z"
		/>
	<path class="st4" d="M258.8,638.2c0.1,1.3,0.2,2.4,0.2,3.3l0.3-0.1L258.8,638.2z"/>
	<path class="st4" d="M251.8,643.1l3.3-0.8c-0.4-5.7-1.6-20.7-3-37.5C252.2,617,252.1,629.7,251.8,643.1z"/>
	<path class="st4" d="M153.8,426.8c2.7-2.3,5.5-4.6,8.7-6.8C157.8,422.9,154.7,425.2,153.8,426.8z"/>
	<path class="st4" d="M198.5,401.4c-0.1,0.1-0.3,0.1-0.4,0.2c0.1,0,0.2-0.1,0.2-0.1L198.5,401.4z"/>
	<path class="st4" d="M180.4,883.9l0-1.2l324-14.8l19.6-0.9c1.5-25.7,7.3-48.2,11.6-85.2c-0.2,1-1,1.6-2,1.6c-0.1,0-0.2,0-0.3,0
		l-100.8-15.6c-1.1-0.2-1.8-1.2-1.7-2.3c0,0,0,0,0-0.1c-25.7-4.8-51.1-9.9-73.9-14.7c-24.3,9.2-49.4,18.2-72.7,25.7
		c-0.2,0.4-0.6,0.7-1,0.9c-1.5,0.6-22.8,8.1-46.2,12.9c-16,3.9-29.4,6.1-38.7,5.9c-5.2-0.1-10.2-2.4-15-6.3
		c-3.2-1.9-6.3-4.5-9.2-7.8c0.9,28.2,3.2,52.7,3.2,65.1c0,20.8-6.3,32.1-0.7,39.6l0.1-3.9L180.4,883.9z"/>
	<path class="st4" d="M351.4,382.6l-11.4,38l-87-43.9c-16,7-35.1,15.5-52.2,23.5c3.1,1.4,37.8,20.1,48.3,140.1
		c0.9,0.1,1.6,0.9,1.7,1.8c0.2,2.6,3.8,45.6,6.3,75l1.1,0.4l31.4,11.7l1.3-5.4l24.7,3.3c8.7-2.1,16.6-4,22.2-5.1
		c0.8-0.2,1.5,0.2,2,0.8l117.5-27l2.4,9.7l8.5-4.5l44.9-16.8l6.1-37.9c0.2-1.1,1.2-1.8,2.3-1.7L540,411.7c0,0,23.6-21.6,43.9-15.2
		c1.4,0.4,2.7,1,4,1.6c0-0.1,0-0.2,0-0.2l-124.3-45.3l-96.8,68.2L351.4,382.6z"/>
	<path class="st4" d="M524.1,866.9l-19.6,0.9l-324,14.8l0,1.2l37.8,13c28.4,0.9,66.5-1.6,91.2-4c36.7-3.7,111.8,1.1,128.3,4.2
		c10.7,2,55.7-4.2,86.3-8.8C523.6,880.7,523.7,873.7,524.1,866.9z"/>
	<path class="st4" d="M176.8,882.6l-0.1,3.9c0.8,1.1,2,2.2,3.4,3.1l0.2-5.8L176.8,882.6z"/>
	<path class="st4" d="M180.2,889.7c1.7,1.1,3.8,2.1,6.4,3.1c6.5,2.4,17.9,3.6,31.6,4l-37.8-13L180.2,889.7z"/>
	<path class="st5" d="M305.7,359.2l-0.1-2.8h-29.3l-16.6,17.5c17.2-7.4,29.5-12.6,29.5-12.6L305.7,359.2z"/>
	<polygon class="st5" points="327.7,356.4 305.6,356.4 305.7,359.2 	"/>
	<path class="st5" d="M305.7,359.2l-16.4,2.1c0,0-12.3,5.1-29.5,12.6l-1.9,2l80.3,40.5l10.5-35l-42,4.9L305.7,359.2z"/>
	<polygon class="st5" points="327.7,356.4 305.7,359.2 306.7,386.3 348.6,381.4 349.6,378.2 340.8,356.4 	"/>
	<path class="st6" d="M275.7,354.9h29.9l-0.1-1.5H275l-22.1,23.3l0.1,0.1c1.1-0.5,2.1-0.9,3.2-1.4L275.7,354.9z"/>
	<polygon class="st6" points="339.4,354.9 340.1,354.8 339.8,353.9 341.6,353.4 305.5,353.4 305.5,354.9 	"/>
	<path class="st6" d="M351.4,382.6l-0.6-1.5l-0.5,0.1l-11.2,37.3l-83.7-42.3l0.8-0.9c-1,0.5-2.1,0.9-3.2,1.4l87,43.9L351.4,382.6z"
		/>
	<polygon class="st6" points="350.3,381.2 350.8,381.1 350.5,380.4 	"/>
	<polygon class="st6" points="340.1,354.8 339.4,354.9 340.2,354.9 	"/>
	<path class="st6" d="M276.3,356.4h29.3l-0.1-1.5h-29.9l-19.5,20.5c1.2-0.5,2.4-1,3.5-1.5L276.3,356.4z"/>
	<polygon class="st6" points="327.7,356.4 339.4,354.9 305.5,354.9 305.6,356.4 	"/>
	<path class="st6" d="M338.2,416.4l-80.3-40.5l1.9-2c-1.2,0.5-2.3,1-3.5,1.5l-0.8,0.9l83.7,42.3l11.2-37.3l-1.6,0.2L338.2,416.4z"/>
	<polygon class="st6" points="349.6,378.2 348.6,381.4 350.3,381.2 350.5,380.4 	"/>
	<polygon class="st6" points="340.8,356.4 340.2,354.9 339.4,354.9 327.7,356.4 	"/>
	<polygon class="st5" points="435.8,342.5 460.2,351.4 460.7,351 439.7,328.4 412.6,336.1 414.4,345.3 	"/>
	<polygon class="st5" points="412.6,336.1 353.6,353.1 414.4,345.3 	"/>
	<polygon class="st5" points="414.4,345.3 419.9,373 353.9,380.8 368.1,416.2 460.2,351.4 435.8,342.5 	"/>
	<polygon class="st5" points="360.1,353.4 352.8,378 353.9,380.8 419.9,373 414.4,345.3 353.6,353.1 352.5,353.4 	"/>
	<polygon class="st5" points="344,356.4 351,373.6 356.1,356.4 	"/>
	<polygon class="st5" points="352.5,353.4 347.2,354.9 358.1,354.9 351.9,375.8 352.8,378 360.1,353.4 	"/>
	<polygon class="st5" points="344,356.4 356.1,356.4 351,373.6 351.9,375.8 358.1,354.9 347.2,354.9 343.8,355.9 	"/>
	<polygon class="st6" points="440.2,326.7 463,351.3 461.9,352 463.6,352.6 465.3,351.5 440.6,325 412,333.2 412.3,334.7 	"/>
	<polygon class="st6" points="347,353.4 412.3,334.7 412,333.2 341.6,353.4 	"/>
	<polygon class="st6" points="367.5,418.5 352.3,380.9 351.9,381 351.4,382.6 366.8,420.8 463.6,352.6 461.9,352 	"/>
	<polygon class="st6" points="351.9,381 352.3,380.9 352.1,380.3 	"/>
	<polygon class="st6" points="342.4,356.4 340.8,356.4 349.6,378.2 350.3,375.9 	"/>
	<polygon class="st6" points="340.1,354.8 343.7,354.3 347,353.4 341.6,353.4 339.8,353.9 	"/>
	<polygon class="st6" points="351.4,382.6 351.9,381 350.8,381.1 	"/>
	<polygon class="st6" points="351.2,378.1 350.5,380.4 350.8,381.1 351.9,381 352.1,380.3 	"/>
	<polygon class="st6" points="341.8,354.9 343.7,354.3 340.1,354.8 340.2,354.9 	"/>
	<polygon class="st6" points="349.6,378.2 350.5,380.4 351.2,378.1 350.3,375.9 	"/>
	<polygon class="st6" points="341.8,354.9 340.2,354.9 340.8,356.4 342.4,356.4 	"/>
	<polygon class="st6" points="439.7,328.4 460.7,351 460.2,351.4 461.9,352 463,351.3 440.2,326.7 412.3,334.7 412.6,336.1 	"/>
	<polygon class="st6" points="353.6,353.1 412.6,336.1 412.3,334.7 347,353.4 351.1,353.4 	"/>
	<polygon class="st6" points="368.1,416.2 353.9,380.8 352.3,380.9 367.5,418.5 461.9,352 460.2,351.4 	"/>
	<polygon class="st6" points="352.8,378 352.1,380.3 352.3,380.9 353.9,380.8 	"/>
	<polygon class="st6" points="353.6,353.1 351.1,353.4 352.5,353.4 	"/>
	<polygon class="st6" points="342.4,356.4 350.3,375.9 351,373.6 344,356.4 	"/>
	<polygon class="st6" points="351.1,353.4 347,353.4 343.7,354.3 	"/>
	<polygon class="st6" points="351.2,378.1 352.1,380.3 352.8,378 351.9,375.8 	"/>
	<polygon class="st6" points="347.2,354.9 352.5,353.4 351.1,353.4 343.7,354.3 341.8,354.9 	"/>
	<polygon class="st6" points="351,373.6 350.3,375.9 351.2,378.1 351.9,375.8 	"/>
	<polygon class="st6" points="344,356.4 343.8,355.9 347.2,354.9 341.8,354.9 342.4,356.4 	"/>
	<path class="st4" d="M200.6,400.2l-2,1.2c0.8-0.4,1.5-0.7,2.3-1.1C200.7,400.2,200.6,400.2,200.6,400.2z"/>
	<path class="st4" d="M142.7,701c0.2,0.6,12.8,50.2,31.4,74.5c-0.8-32.9,0.3-69.7,8.9-97.1c16.5-53.1-47.7-208.9-47.7-208.9
		s14.7-31.2,18.3-42.2c0-0.1,0.1-0.3,0.2-0.4c-26.9,23.4-31,50.7-39.7,71.6c-7.2,17.6,3.6,121.1,26,201.1c0,0,0,0,0.1,0
		C141.3,699.2,142.4,699.9,142.7,701z"/>
	<path class="st4" d="M162.5,420c8.1-5,21.1-11.5,35.6-18.5C183.5,407.1,171.9,413.4,162.5,420z"/>
	<path class="st4" d="M338.5,626.1c-3.2,0.6-7.3,1.5-11.9,2.6l137.3,18.5l-6.5-40.3l2.1-1.1l-2.4-9.7l-117.5,27
		c0.2,0.2,0.3,0.5,0.4,0.8C340.2,624.9,339.5,625.9,338.5,626.1z"/>
	<path class="st4" d="M135.3,469.4c0,0,64.1,155.8,47.7,208.9c-8.5,27.5-9.7,64.2-8.9,97.1c4.7,6.1,9.8,10.7,15.1,12.4
		c27,8.8,92.1-14.2,92.8-14.5c1-0.4,2.2,0.2,2.6,1.2c0.2,0.6,0.1,1.2-0.2,1.7c23.3-7.6,48.4-16.6,72.7-25.7
		c-52.4-11.1-91.6-20.6-91.6-20.6l21.9-91.6c-16.1,4.2-29.4,7.7-29.6,7.8c-0.2,0-0.3,0.1-0.5,0.1c-0.4,0-0.8-0.1-1.2-0.4
		c-0.5-0.4-0.8-0.9-0.8-1.5c0-0.4-0.1-1.1-0.1-2.1l-3.3,0.8c0.3-13.5,0.4-26.2,0.3-38.2c-2.4-28.4-5.2-61.8-5.2-62.3
		c-0.1-1.1,0.7-2.1,1.8-2.2c0.2,0,0.3,0,0.5,0c-10.5-120.1-45.3-138.7-48.3-140.1c-0.8,0.4-1.5,0.7-2.3,1.1l-0.2,0.1
		c-0.1,0-0.2,0.1-0.2,0.1c-14.6,6.9-27.5,13.5-35.6,18.5c-3.1,2.2-6,4.5-8.7,6.8c-0.1,0.2-0.2,0.3-0.2,0.4
		C149.9,438.3,135.3,469.4,135.3,469.4z"/>
	<path class="st4" d="M187.9,791.7c-1.5-0.5-3-1.2-4.5-2.1c4.8,3.9,9.8,6.2,15,6.3c9.2,0.3,22.6-2,38.7-5.9
		c-10.9,2.2-22.3,3.8-32.3,3.8C198.5,793.9,192.7,793.3,187.9,791.7z"/>
	<path class="st4" d="M259.4,641.7l-0.1-0.3l-0.3,0.1c0,0.1,0,0.2,0,0.3C259.2,641.8,259.3,641.8,259.4,641.7z"/>
	<path class="st3" d="M502.2,652.4c-0.1-0.2-0.1-0.5,0-0.8l10.8-67.1L468,601.3l-8.5,4.5l10.2,42.2L502.2,652.4z"/>
	<path class="st3" d="M506.6,649.5l-0.4,2.7c0,0.2-0.1,0.5-0.2,0.6l0.2,0L506.6,649.5z"/>
	<polygon class="st3" points="463.9,647.2 469.8,648 459.5,605.8 457.4,606.9 	"/>
	<path class="st3" d="M259.3,641.4l9.2-2.1c5.5-1.4,12.4-3.3,19.9-5.2l1.1-4.7l-31.4-11.7l-1.1-0.4c0.7,8.6,1.3,16,1.7,21
		L259.3,641.4z"/>
	<path class="st3" d="M268.6,639.3l-9.2,2.1l0.1,0.3C261.4,641.2,264.6,640.3,268.6,639.3z"/>
	<path class="st4" d="M625.3,498.9c-3.1-8.6-6.3-17.3-9.4-26.4c-6.9-20-10.6-40.1-12.2-60.5c-4.7-6.3-9.8-11-15.7-13.9
		c-0.9,4.8-17.8,98-23.7,157.5C583.5,518.9,609.9,504.4,625.3,498.9z"/>
	<path class="st4" d="M315.5,627.3l-24.7-3.3l-1.3,5.4l7,2.6C303,630.4,309.4,628.7,315.5,627.3z"/>
	<path class="st4" d="M540,411.7L521.2,545c0,0,0,0,0,0c1.1,0.2,1.8,1.2,1.7,2.3l-5.7,35.6l3.7-1.4l-13.1,79.9l-34.4,1.7l8.9,37
		c0,0-59.5,25.8-125.3,50.6c22.8,4.8,48.2,10,73.9,14.7c0.2-1.1,1.2-1.8,2.3-1.6L534,779.4c1.1,0.2,1.8,1.1,1.7,2.2
		c2.9-25.6,5.1-58.1,4.6-103.6c-0.6-56.4,9.7-95.4,23.9-122.4c5.9-59.5,22.8-152.7,23.7-157.5c-1.3-0.6-2.6-1.2-4-1.6
		C563.6,390.1,540,411.7,540,411.7z"/>
	<path class="st4" d="M463.9,647.2l-137.3-18.5c-11.5,2.7-26.3,6.4-39.1,9.8l-21.9,91.6c0,0,39.1,9.5,91.6,20.6
		c65.8-24.8,125.3-50.6,125.3-50.6l-8.9-37l-6.9,0.3L463.9,647.2z M423.4,718l-60.9,30.5c-0.3,0.1-0.6,0.2-0.9,0.2
		c-0.7,0-1.4-0.4-1.8-1.1c-0.5-1-0.1-2.2,0.9-2.7l60.9-30.5c1-0.5,2.2-0.1,2.7,0.9C424.8,716.3,424.4,717.5,423.4,718z"/>
	<path class="st4" d="M506.1,652.9l-0.2,0c-0.3,0.6-1,1-1.7,1c-0.1,0-0.2,0-0.3,0c-0.8-0.1-1.4-0.7-1.6-1.5l-32.4-4.4l3.7,15.1
		l34.4-1.7l13.1-79.9l-3.7,1.4l-10.7,66.6L506.1,652.9z"/>
	<polygon class="st4" points="463.9,647.2 466.5,663.5 473.4,663.1 469.8,648 	"/>
	<path class="st4" d="M296.6,632l-7-2.6l-1.1,4.7C291.1,633.4,293.8,632.7,296.6,632z"/>
	<path class="st7" d="M357.5,321.8c-18.5,2.8-36.9-3.7-52.6-16.8c-0.4-0.1-0.8-0.1-1.2-0.2l0.2,5.2c18,12.5,51.6,32.7,78.6,23
		c12.2-4.4,20.1-14,24.6-24.4l-3.7-18.8C392,307.3,376.2,319,357.5,321.8z"/>
	<path class="st3" d="M271.3,173.6c-1.2-2.2-0.5-4.9,1.5-6.3c6.1-4,12.4-5.9,18.7-7.4c4-1,8-1.7,12-2.3c31.7-14.5,64.3-26,96.8-34.4
		c-4.4-8.4-9.6-16.6-15.1-21.4c-14.9-13-36.1-11.2-46.6-9.3c-10.3,1.8-23.3,13.7-34.8,7.6c-1.4,1.7-3.2,3.3-5.7,4.6
		c-7.5,3.8-20.5,12.8-28.1,22c-0.1,0.1-0.2,0.3-0.4,0.5c-0.8,1.8-1.6,3.6-2.4,5.5c-3.5,11.5-4.8,33.7-5.2,46
		C265,177,268.1,175.3,271.3,173.6z"/>
	<path class="st3" d="M412.9,152.6c0,0-5.1-15-12.5-29.3c-32.5,8.4-65.1,19.9-96.8,34.4c2.3-0.3,4.6-0.6,6.9-0.8
		c2.9-0.3,5.5,1.9,5.8,4.8c0.3,2.9-1.9,5.5-4.8,5.8c0,0-0.1,0-0.1,0l-0.2,0c-5.7,0.4-11.7,1.1-17.4,2.3c-5.7,1.2-11.3,2.9-15.6,5.5
		l-0.2,0.1c-2.2,1.4-5.2,0.7-6.6-1.5c0-0.1-0.1-0.1-0.1-0.2c-3.1,1.7-6.2,3.4-9.3,5.1c-0.2,5.4-0.2,8.9-0.2,8.9s-0.5,2.4-2,5.1
		c5.9,1.9,11.7,7.1,15.3,14.5c5.7,11.8,3.6,24.7-4.7,28.7c-0.4,0.2-0.7,0.3-1.1,0.5c10.1,24.4,25.8,43.8,43.9,54.8
		c-1-12.6-2-32.5,1-39.5v-0.6l1.3-1.5c2.4-2.1,4.6-3.6,6.9-4.8c7.2-4.2,16.2-6.6,25.8-7c5.3-0.2,10.6-0.1,15.6,0.5l1.2,0.2
		c1.4,0.2,2.8,0.3,4.2,0.6c3.6,0.8,8,2.3,11,7.3c3,5.2,4.3,10.8,5.6,16.3c0.3,1.4,0.7,2.8,1,4.2c1.5,6.1,2.3,11.4,2.3,16.5
		c16.6-16,27.5-41.3,30.1-70.6c-0.6,0-1.2,0-1.7-0.1c-9.2-1.1-15.5-12.5-14-25.5c1.2-10.5,7.1-18.9,14.2-21.2c0-0.2-0.1-0.4-0.1-0.6
		c-0.8,0-1.4-0.2-1.4-0.2L412.9,152.6z M300.5,199.4c-3.8,0.6-7.5-2.7-8.2-7.2c-0.7-4.6,1.9-8.7,5.7-9.3c3.8-0.6,7.5,2.7,8.2,7.2
		C306.9,194.7,304.3,198.8,300.5,199.4z M343.1,217.8l-7.9,4.2c-0.1,0.1-0.3,0.1-0.5,0.1c-0.4,0-0.7-0.2-0.9-0.5
		c-0.3-0.5-0.1-1.1,0.4-1.4l7.9-4.2c2.5-1.3,3.9-3.7,3.6-6.2l-4-27.8c-0.1-0.5,0.3-1.1,0.8-1.1c0.5-0.1,1.1,0.3,1.1,0.8l4,27.8
		C348.2,212.9,346.4,216.1,343.1,217.8z M377.1,190.4c-3.9,0.3-7.3-3.1-7.7-7.7c-0.4-4.6,2.5-8.6,6.3-8.9c3.9-0.3,7.3,3.1,7.7,7.7
		C383.8,186.1,380.9,190.1,377.1,190.4z M399.7,158.9c-0.8,2.5-3.5,3.8-6,3l-0.2-0.1c-4.7-1.6-10.6-2-16.4-1.8
		c-5.8,0.1-11.8,0.8-17.5,1.7l-0.2,0c0,0-0.1,0-0.1,0c-2.9,0.4-5.6-1.6-6-4.6c-0.4-2.9,1.6-5.6,4.6-6c6.5-0.9,12.7-1.3,19.2-1.3
		c6.4,0.1,13,0.5,19.9,3C399.2,153.8,400.5,156.4,399.7,158.9z"/>
	<path class="st3" d="M355.5,263.6c0.6,5.1,2.3,14.2,2.7,15.2c1.4,3.7,5.1,5.8,8.8,6.7c2.3,0.6,4.7,0.8,7.1,0.9l7.7-0.9
		c0.2-5.1-0.5-10.6-2.1-16.9c-0.4-1.4-0.7-2.9-1-4.3c-1-4.5-2-8.8-4-12.7C370.4,257,363.7,261.4,355.5,263.6z"/>
	<path class="st3" d="M343,285.6c3.3-4.6,1.8-11.5,1.4-16.7c-0.1-0.8,0-2.3-0.1-3.7c-10,0.1-18.8-3.4-24-9.1
		c-1.3,5.2-1,21.3,0.3,36.7l14.1-1.7C337.9,290,341,288.3,343,285.6z"/>
	<path class="st3" d="M339.5,246.1l8.3-1C344.9,245.3,342.2,245.6,339.5,246.1z"/>
	<path class="st3" d="M330.2,292.3c1.5-0.3,3-0.7,4.5-1.2l-14.1,1.7c0,0.4,0.1,0.8,0.1,1.1C324.1,293.7,328.4,292.7,330.2,292.3z"/>
	<path class="st3" d="M378.9,286.4c0.3,0,1.4-0.1,2.8-0.3c0-0.2,0-0.3,0-0.5l-7.7,0.9C375.7,286.5,377.3,286.5,378.9,286.4z"/>
	<path class="st8" d="M390.5,284.5l5.5-0.6l6-0.7l1.3,6.7c13-20,20-47.5,18.4-77.3c-0.6,0.1-1.1,0.2-1.7,0.3
		C417.4,242.3,406.8,267.9,390.5,284.5z"/>
	<path class="st8" d="M309.5,294c-18.7-11.5-34.2-31.7-43.3-56.9c-0.5,0.1-1,0.1-1.5,0.1c7.2,28.1,21.4,51.6,39,66.8l-0.3-9.2
		L309.5,294z"/>
	<path class="st8" d="M389.1,286c0,1-0.1,1.9-0.2,2.9c2.6-1.6,5-3.3,7.1-5l-5.5,0.6C390,285,389.6,285.5,389.1,286z"/>
	<path class="st8" d="M309,305.4c6.6,0.5,15,0.7,25-0.2c-0.8-0.6-1.9-1.4-3.3-2.3c-4.1-0.9-8.1-2.3-12.1-4l-4.8,0.5
		c-0.1-0.8-0.2-1.8-0.3-3c-1.4-0.7-2.7-1.5-4-2.3l-6.2,0.7l0.3,9.2c0.4,0.3,0.8,0.7,1.2,1C306.1,305.1,307.5,305.3,309,305.4z"/>
	<path class="st8" d="M381.5,293c2.4-1.2,4.6-2.4,6.6-3.7l-2.5-0.3C384.3,290.4,382.9,291.7,381.5,293z"/>
	<path class="st8" d="M396,283.9c-2.1,1.7-4.5,3.3-7.1,5c0,0.2,0,0.4,0,0.6l-0.7-0.1c-2.1,1.3-4.3,2.5-6.6,3.7
		c-4.3,3.9-8.7,7.5-13.2,11.2c0,0-32.4,2.7-33.3,1.8c-0.1-0.1-0.5-0.4-1.1-0.8c-10,0.9-18.4,0.8-25,0.2c-1.5-0.1-2.9-0.3-4.1-0.4
		c15.7,13.1,34.1,19.6,52.6,16.8c18.7-2.8,34.6-14.5,45.9-31.9l-1.3-6.7L396,283.9z"/>
	<path class="st8" d="M309.5,294l3.8-0.4c-0.1-0.8-0.1-1.6-0.2-2.4c-18.1-11-33.8-30.3-43.9-54.8c-1,0.4-2,0.6-3,0.7
		C275.3,262.3,290.8,282.6,309.5,294z"/>
	<path class="st8" d="M389.1,284.7l0.2,0c0.1-0.1,0.2-0.1,0.2-0.2c0,0.1,0,0.1,0,0.2l1.1-0.1c16.3-16.6,26.9-42.2,29.6-71.7
		c-0.3,0-0.6,0-0.9,0.1c-2.6,29.2-13.5,54.6-30.1,70.6C389.1,283.8,389.1,284.3,389.1,284.7z"/>
	<path class="st8" d="M389.3,284.7l-0.2,0c0,0,0,0,0,0.1C389.2,284.7,389.2,284.7,389.3,284.7z"/>
	<path class="st8" d="M309.5,294c1.3,0.8,2.7,1.6,4,2.3c-0.1-0.8-0.2-1.8-0.3-2.8L309.5,294z"/>
	<path class="st8" d="M321.1,298.6l-2.5,0.3c3.9,1.7,7.9,3.1,12.1,4c-3-2.1-6.9-4.7-9.8-6.7C321,296.9,321,297.8,321.1,298.6z"/>
	<path class="st8" d="M389.1,285.4c0,0.2,0,0.4,0,0.5c0.5-0.5,1-0.9,1.4-1.4l-1.1,0.1C389.3,284.9,389.2,285.2,389.1,285.4z"/>
	<path class="st8" d="M306,85.9c8-4.4,16.6-7.1,25.8-7.9c28.7-2.3,54.2,15.7,70.4,44.7c7.8-2,15.5-3.8,23.2-5.4
		c-0.3-13.8-0.5-26.2,0.3-28.6c1.5-4.9,0.9-9.8-4.6-15.3c-5.5-5.5-12.5-14.1-10.4-17.7c2.1-3.7,11.3-13.1,2.4-21.4
		c-8.9-8.2-51.6-13.4-59.6-6.1c-7.8,7.2-36.3-19.5-59.8,15.9l3.9-2.4C297.8,41.8,303.5,72,306,85.9z"/>
	<path class="st8" d="M417.5,165.5c2.5,0,7.5-1,8.2-9.9c0.5-6.3,0-23-0.3-38.2c-7.7,1.6-15.5,3.4-23.2,5.4
		C409.2,135.2,414.4,149.7,417.5,165.5z"/>
	<path class="st8" d="M303.8,100.1c11.4,6.1,24.4-5.8,34.8-7.6c10.5-1.8,31.7-3.6,46.6,9.3c5.5,4.8,10.7,13,15.1,21.4
		c0.6-0.2,1.3-0.3,1.9-0.5c-16.2-29.1-41.7-47-70.4-44.7c-9.2,0.7-17.9,3.5-25.8,7.9c0.7,4,1.2,6.7,1.2,6.9
		C307.2,93.4,306.5,96.8,303.8,100.1z"/>
	<path class="st8" d="M400.3,123.3c7.5,14.3,12.5,29.3,12.5,29.3l3.3,12.7c0,0,0.6,0.1,1.4,0.2c-3.1-15.8-8.3-30.2-15.3-42.7
		C401.6,122.9,401,123.1,400.3,123.3z"/>
	<path class="st8" d="M244.4,197.8c1.3-2,3-3.5,5.1-4.6c2.4-1.2,5.2-1.5,7.9-1c-0.2-3.6-0.2-7.2-0.1-10.8c-6,3.4-12,7-17.9,10.7
		C240.1,194,242,196.2,244.4,197.8z"/>
	<path class="st8" d="M298.1,104.7c2.5-1.3,4.4-3,5.7-4.6c-0.2-0.1-0.3-0.2-0.5-0.3c-2.4-1.4-4.2-4.4-5.7-8.4
		c-11.5,8.6-21.1,21-28,35.8c0.1-0.2,0.2-0.3,0.4-0.5C277.6,117.5,290.6,108.5,298.1,104.7z"/>
	<path class="st8" d="M267.2,132.7c-5.9,14.5-9.4,31-9.9,48.6c1.5-0.9,3.1-1.8,4.7-2.6C262.4,166.4,263.7,144.2,267.2,132.7z"/>
	<path class="st8" d="M261.7,187.6c0,0,0-3.5,0.2-8.9c-1.6,0.9-3.1,1.7-4.7,2.6c-0.1,3.6-0.1,7.2,0.1,10.8c0.8,0.1,1.6,0.3,2.3,0.6
		C261.3,190,261.7,187.6,261.7,187.6z"/>
	<path class="st8" d="M297.6,91.4c2.7-2,5.5-3.9,8.4-5.5c-2.6-13.9-8.3-44.1-8.3-44.1l-3.9,2.4c-0.5,0.8-1.1,1.6-1.6,2.5
		C292.3,46.7,291.9,76,297.6,91.4z"/>
	<path class="st8" d="M303.3,99.8c0.2,0.1,0.3,0.2,0.5,0.3c2.7-3.3,3.4-6.7,3.4-7.3c0-0.2-0.5-2.9-1.2-6.9c-2.9,1.6-5.7,3.4-8.4,5.5
		C299.1,95.4,300.9,98.4,303.3,99.8z"/>
	<path class="st3" d="M257.7,197.7c-0.1-0.7-0.1-1.4-0.1-2c-1.1,1.2-2.5,2.3-4.3,3.1c-3.1,1.4-6.3,0.6-8.9-1
		c-3.8,5.9-3.9,15.3,0.4,24.2c4.5,9.3,12.6,15.2,19.9,15.3c-1.4-5.3-2.5-10.7-3.3-16.3C259.6,213.4,258.4,205.7,257.7,197.7z"/>
	<path class="st3" d="M257.7,197.7c0.6,8,1.9,15.7,3.6,23.1c0-0.1,0-0.2,0-0.3c-0.9-6-1.4-11.9-1.7-17.8c2,12,5.3,23.3,9.6,33.7
		c0.4-0.1,0.7-0.3,1.1-0.5c8.3-4.1,10.5-16.9,4.7-28.7c-3.6-7.4-9.4-12.6-15.3-14.5c-0.6,1-1.3,2-2.1,3
		C257.6,196.4,257.7,197.1,257.7,197.7z"/>
	<path class="st3" d="M261.3,220.9c0.8,5.6,1.9,11,3.3,16.3c0.5,0,1,0,1.5-0.1C264.3,231.9,262.7,226.5,261.3,220.9z"/>
	<path class="st3" d="M261.3,220.5c0,0.1,0,0.2,0,0.3c1.3,5.6,2.9,11,4.8,16.3c1-0.1,2.1-0.3,3-0.7c-4.3-10.4-7.6-21.7-9.6-33.7
		C259.9,208.6,260.4,214.5,261.3,220.5z"/>
	<path class="st3" d="M253.3,198.8c1.7-0.8,3.2-1.9,4.3-3.1c-0.1-1.2-0.1-2.4-0.2-3.5c-2.8-0.5-5.5-0.2-7.9,1
		c-2.1,1-3.8,2.6-5.1,4.6C247,199.4,250.2,200.2,253.3,198.8z"/>
	<path class="st3" d="M259.7,192.7c-0.8-0.2-1.6-0.4-2.3-0.6c0.1,1.2,0.1,2.3,0.2,3.5C258.5,194.7,259.2,193.7,259.7,192.7z"/>
	<path class="st3" d="M420.7,200.5c0.5,4,0.9,8,1.1,12c7.5-1.8,13.8-10.4,15.1-21.4c1.5-13-4.8-24.5-14-25.5c-1.8-0.2-3.5,0-5.2,0.5
		c1.2,6.1,2,12.3,2.5,18.7C420.6,190.1,420.8,195.4,420.7,200.5z"/>
	<path class="st3" d="M403.5,187.2c-1.5,13,4.8,24.5,14,25.5c0.6,0.1,1.2,0.1,1.7,0.1c0.5-6.2,0.7-12.5,0.5-18.9
		c0.2,1,0.4,2.1,0.5,3.1c0.2,1.2,0.3,2.4,0.5,3.5c0.1-5.2-0.1-10.4-0.5-15.8c-0.5-6.4-1.4-12.6-2.5-18.7
		C410.6,168.4,404.7,176.7,403.5,187.2z"/>
	<path class="st3" d="M420.1,212.8c0.6-0.1,1.1-0.2,1.7-0.3c-0.2-4-0.6-7.9-1.1-12C420.6,204.7,420.4,208.8,420.1,212.8z"/>
	<path class="st3" d="M420.7,200.5c-0.1-1.2-0.3-2.3-0.5-3.5c-0.1-1-0.3-2.1-0.5-3.1c0.2,6.4,0,12.8-0.5,18.9c0.3,0,0.6,0,0.9-0.1
		C420.4,208.8,420.6,204.7,420.7,200.5z"/>
	<path class="st8" d="M272.8,167.4c-2.1,1.4-2.7,4.1-1.5,6.3c10.6-5.7,21.4-11,32.2-16c-4,0.6-8,1.3-12,2.3
		C285.2,161.5,278.9,163.3,272.8,167.4z"/>
	<path class="st8" d="M271.4,173.9c1.4,2.2,4.3,2.9,6.6,1.5l0.2-0.1c4.2-2.6,9.9-4.3,15.6-5.5c5.7-1.2,11.7-1.9,17.4-2.3l0.2,0
		c0,0,0.1,0,0.1,0c2.9-0.3,5.1-2.9,4.8-5.8c-0.3-2.9-2.9-5.1-5.8-4.8c-2.3,0.2-4.6,0.5-6.9,0.8c-10.9,5-21.6,10.3-32.2,16
		C271.3,173.7,271.3,173.8,271.4,173.9z"/>
	<path class="st8" d="M298.1,182.9c-3.8,0.6-6.4,4.7-5.7,9.3c0.7,4.6,4.3,7.8,8.2,7.2c3.8-0.6,6.4-4.7,5.7-9.3
		C305.6,185.6,301.9,182.4,298.1,182.9z"/>
	<path class="st8" d="M396.8,152.9c-6.9-2.5-13.4-2.9-19.9-3c-6.5,0-12.7,0.4-19.2,1.3c-2.9,0.4-5,3.1-4.6,6c0.4,2.9,3.1,5,6,4.6
		c0,0,0.1,0,0.1,0l0.2,0c5.6-0.9,11.7-1.6,17.5-1.7c5.8-0.1,11.7,0.2,16.4,1.8l0.2,0.1c2.5,0.8,5.2-0.5,6-3
		C400.5,156.4,399.2,153.8,396.8,152.9z"/>
	<path class="st8" d="M375.7,173.8c-3.9,0.3-6.7,4.3-6.3,8.9c0.4,4.6,3.8,8,7.7,7.7c3.9-0.3,6.7-4.3,6.3-8.9
		C383,176.9,379.6,173.5,375.7,173.8z"/>
	<path class="st8" d="M367,285.6c-3.7-0.9-7.4-3-8.8-6.7c-0.4-1-2.2-10.1-2.7-15.2c-1,0.3-2,0.5-3.1,0.7c-2.8,0.5-5.5,0.8-8.1,0.8
		c0.1,1.4,0.1,2.9,0.1,3.7c0.4,5.2,1.9,12.1-1.4,16.7c-2,2.7-5.1,4.4-8.3,5.5l39.4-4.6C371.6,286.4,369.2,286.1,367,285.6z"/>
	<path class="st8" d="M381.7,286.1c-1.4,0.1-2.5,0.2-2.8,0.3c-1.6,0.1-3.2,0.2-4.9,0.1l-39.4,4.6c-1.5,0.5-3,0.9-4.5,1.2
		c-1.8,0.4-6.1,1.4-9.5,1.6c0,0.5,0.1,1,0.1,1.4c11,5.1,22.8,7.1,34.5,5.3c10.1-1.5,19.3-5.6,27.5-11.8l-1.3-0.1
		C381.7,287.8,381.7,287,381.7,286.1z"/>
	<path class="st8" d="M330.7,302.8c1.3,0.9,2.5,1.7,3.3,2.3c2.3-0.2,4.6-0.5,7-0.8C337.5,304.1,334,303.6,330.7,302.8z"/>
	<path class="st8" d="M385.6,289.1c-2.3,1.9-4.6,3.7-7.1,5.3c1-0.5,2-0.9,2.9-1.4C382.9,291.7,384.3,290.4,385.6,289.1L385.6,289.1z
		"/>
	<path class="st8" d="M349.7,304.3c-2.9,0.2-5.9,0.3-8.8,0.1c-2.4,0.3-4.8,0.6-7,0.8c0.6,0.4,1,0.7,1.1,0.8
		c0.9,0.9,33.3-1.8,33.3-1.8c4.4-3.6,8.9-7.3,13.2-11.2c-1,0.5-1.9,0.9-2.9,1.4C369.9,300,360.3,303.4,349.7,304.3z"/>
	<path class="st8" d="M389.4,284.5c0,0.1-0.1,0.1-0.2,0.2l0.1,0C389.4,284.6,389.4,284.5,389.4,284.5z"/>
	<path class="st8" d="M360.8,300.5c6.7-1.7,12.6-3.8,17.7-6.1c2.5-1.6,4.8-3.4,7.1-5.3l-2.8-0.3c-8.2,6.2-17.4,10.3-27.5,11.8
		c-11.8,1.7-23.5-0.3-34.5-5.3c0,0.3,0.1,0.5,0.1,0.8c2.9,2,6.8,4.7,9.8,6.7c3.4,0.8,6.8,1.3,10.3,1.5
		C347.1,303.5,353.7,302.3,360.8,300.5z"/>
	<path class="st8" d="M389.1,285.4c0.1-0.2,0.2-0.5,0.3-0.7l-0.1,0c0,0-0.1,0.1-0.2,0.1C389.1,285,389.1,285.2,389.1,285.4z"/>
	<path class="st8" d="M341,304.4c2.9,0.2,5.8,0.2,8.8-0.1c10.5-0.8,20.2-4.3,28.8-9.9c-5.2,2.3-11,4.5-17.7,6.1
		C353.7,302.3,347.1,303.5,341,304.4z"/>
	<path class="st9" d="M344.2,265.1c-0.1-1.3-0.4-2.5-0.9-3.1c0,0,12.1-1.8,12.2-1.8c-0.3,0-0.3,1.4,0,3.4c8.2-2.2,15-6.6,19.2-11.9
		c-0.3-0.5-0.5-1-0.8-1.6c-1.2-2.1-2.9-3.1-6.2-3.8c-1.2-0.3-2.4-0.4-3.5-0.5l-1.3-0.2c-4.6-0.5-9.5-0.7-14.4-0.5
		c-0.2,0-0.4,0-0.6,0l-8.3,1c-5,1-9.6,2.7-13.6,5c-1.8,1-3.5,2.1-5.1,3.5l-0.1,0.1c-0.2,0.3-0.4,0.7-0.5,1.3
		C325.4,261.8,334.3,265.2,344.2,265.1z"/>
	<path class="st9" d="M355.5,263.6c-0.2-2-0.3-3.4,0-3.4c-0.1,0-12.2,1.8-12.2,1.8c0.6,0.6,0.8,1.8,0.9,3.1c2.6,0,5.4-0.3,8.1-0.8
		C353.4,264.1,354.4,263.9,355.5,263.6z"/>
	<path class="st8" d="M320.6,292.7c-1.3-15.4-1.7-31.5-0.3-36.7c-1-1.1-1.8-2.2-2.5-3.4c0-0.1,0.1-0.3,0.3-0.4c1.9-1.6,3.9-3,6-4.2
		l15.4-1.8c2.7-0.5,5.4-0.9,8.3-1l20.6-2.5c3.4,0.7,6.5,2.1,8.6,5.6c-0.7,1.2-1.4,2.3-2.3,3.4c1.9,3.9,2.9,8.2,4,12.7
		c0.3,1.5,0.7,2.9,1,4.3c1.6,6.3,2.2,11.8,2.1,16.9l5.8-0.7c0.5-0.5,1.1-1,1.6-1.5c-0.1-5.1-0.8-10.5-2.3-16.5
		c-0.4-1.4-0.7-2.8-1-4.2c-1.3-5.4-2.6-11.1-5.6-16.3c-2.9-5-7.4-6.6-11-7.3c-1.4-0.3-2.8-0.5-4.2-0.6l-1.2-0.2
		c-5-0.6-10.3-0.8-15.6-0.5c-9.7,0.3-18.6,2.8-25.8,7c-2.3,1.3-4.4,2.8-6.9,4.8l-1.3,1.5v0.6c-3.1,7-2,26.9-1,39.5
		c1.2,0.7,2.3,1.4,3.5,2L320.6,292.7z"/>
	<path class="st8" d="M320.7,293.9c0-0.4-0.1-0.8-0.1-1.1l-4,0.5c0.2,0.1,0.3,0.2,0.5,0.3C317.9,293.8,319.2,293.9,320.7,293.9z"/>
	<path class="st8" d="M387,285.4c0.2-0.2,0.4-0.3,0.5-0.5l-5.8,0.7c0,0.2,0,0.3,0,0.5C383.4,285.9,385.4,285.7,387,285.4z"/>
	<path class="st8" d="M385.8,288.9c-0.1,0.1-0.1,0.1-0.2,0.2l2.5,0.3c0.3-0.2,0.5-0.3,0.8-0.5c0.1-1,0.1-1.9,0.2-2.9
		C388,287,386.9,288,385.8,288.9z"/>
	<path class="st8" d="M313.8,299.3l4.8-0.5c-1.7-0.8-3.4-1.6-5.1-2.5C313.6,297.5,313.7,298.5,313.8,299.3z"/>
	<path class="st8" d="M388.9,289.4c0-0.2,0-0.4,0-0.6c-0.3,0.2-0.5,0.3-0.8,0.5L388.9,289.4z"/>
	<path class="st8" d="M316.6,293.2c-1.2-0.6-2.4-1.3-3.5-2c0.1,0.8,0.1,1.6,0.2,2.4L316.6,293.2z"/>
	<path class="st8" d="M389.1,284.7c0-0.4,0-0.9,0-1.3c-0.5,0.5-1,1-1.6,1.5L389.1,284.7z"/>
	<path class="st8" d="M385.8,288.9c1.1-0.9,2.2-1.9,3.2-2.9c0-0.2,0-0.4,0-0.5c-0.2,0.4-0.6,0.8-0.9,1.2
		C387.4,287.4,386.6,288.1,385.8,288.9z"/>
	<path class="st8" d="M389.1,284.8C389.1,284.7,389.1,284.7,389.1,284.8l-1.6,0.1c-0.2,0.2-0.3,0.3-0.5,0.5
		C388,285.2,388.7,285,389.1,284.8z"/>
	<path class="st8" d="M320.9,296.1c-2.4-1.7-4.2-2.8-4.2-2.9c0.1,0.1,0.3,0.1,0.4,0.2c-0.2-0.1-0.3-0.2-0.5-0.3l-3.3,0.4
		c0.1,1,0.2,1.9,0.3,2.8c1.7,0.9,3.4,1.7,5.1,2.5l2.5-0.3C321,297.8,321,296.9,320.9,296.1z"/>
	<path class="st8" d="M381.7,286.1c0,0.9-0.1,1.7-0.2,2.6l1.3,0.1c1.4-1.1,2.8-2.2,4.2-3.4C385.4,285.7,383.4,285.9,381.7,286.1z"/>
	<path class="st8" d="M317.1,293.5c1.2,0.6,2.5,1.3,3.7,1.8c0-0.5-0.1-0.9-0.1-1.4C319.2,293.9,317.9,293.8,317.1,293.5z"/>
	<path class="st8" d="M385.7,289.1c0.1-0.1,0.1-0.1,0.2-0.2C385.8,289,385.7,289,385.7,289.1L385.7,289.1z"/>
	<path class="st8" d="M316.7,293.3c0,0,1.8,1.2,4.2,2.9c0-0.3-0.1-0.5-0.1-0.8c-1.2-0.6-2.5-1.2-3.7-1.8
		C317,293.4,316.8,293.3,316.7,293.3z"/>
	<path class="st8" d="M387,285.4c-1.4,1.2-2.7,2.3-4.2,3.4l2.8,0.3c0.1-0.1,0.1-0.1,0.2-0.2c0.8-0.8,1.5-1.5,2.3-2.3
		c0.3-0.4,0.7-0.7,0.9-1.2c0-0.2,0-0.4,0-0.6C388.7,285,388,285.2,387,285.4z"/>
	<path class="st8" d="M362.8,245.6l1.3,0.2c1.2,0.1,2.4,0.3,3.5,0.5c3.2,0.7,5,1.8,6.2,3.8c0.3,0.5,0.6,1,0.8,1.6
		c0.9-1.1,1.7-2.2,2.3-3.4c-2.1-3.5-5.1-4.8-8.6-5.6l-20.6,2.5c0.2,0,0.4,0,0.6,0C353.4,244.9,358.2,245.1,362.8,245.6z"/>
	<path class="st8" d="M320.8,254.6c1.7-1.4,3.3-2.5,5.1-3.5c4-2.3,8.6-4,13.6-5l-15.4,1.8c-2.1,1.2-4.1,2.6-6,4.2
		c-0.1,0.1-0.3,0.3-0.3,0.4c0.7,1.2,1.5,2.4,2.5,3.4C320.4,255.5,320.6,255,320.8,254.6L320.8,254.6z"/>
	<path class="st8" d="M343.7,181.9c-0.1-0.5-0.6-0.9-1.1-0.8c-0.5,0.1-0.9,0.6-0.8,1.1l4,27.8c0.3,2.4-1,4.8-3.6,6.2l-7.9,4.2
		c-0.5,0.3-0.7,0.9-0.4,1.4c0.2,0.3,0.5,0.5,0.9,0.5c0.2,0,0.3,0,0.5-0.1l7.9-4.2c3.3-1.7,5.1-5,4.6-8.2L343.7,181.9z"/>
	<path class="st10" d="M312.1,929.1l62.1,21.3l1.1,29.1c0.9,16.1,1.6,36.4,2.1,53.8l0.5,12c0.3,0.7,1,1.2,1.8,1.2c0,0,0,0,0,0
		c1.1,0,2-0.9,2-2c0-0.2-0.6-23.3-1.5-46.2c-2-47.5-3.6-48.6-4.9-49.5c-8.5-5.5-60.6-21-62.8-21.6c-1-0.3-2.1,0.3-2.5,1.3l1.9,0.6
		C312,929.1,312,929.1,312.1,929.1z"/>
	<path class="st10" d="M377.8,1044.6c0,0.3,0.1,0.5,0.2,0.8l-0.5-12C377.6,1037.3,377.7,1041,377.8,1044.6z"/>
	<path class="st10" d="M311.4,931c18.3,5.4,54.2,16.6,61.4,20.9c0.9,2.4,1.8,13.3,2.6,27.7l-1.1-29.1l-62.1-21.3c-0.1,0-0.2,0-0.2,0
		l-1.9-0.6c0,0,0,0.1,0,0.1C309.7,929.6,310.3,930.7,311.4,931z"/>
	<path class="st6" d="M255.1,642.4l3.9-0.9c-0.1-0.9-0.2-2-0.2-3.3l-0.7-4.3l-2.9-17.4l1.9,0.7c-2.4-29.4-6-72.3-6.3-75
		c-0.1-0.9-0.8-1.7-1.7-1.8c1.7,18.9,2.7,40.3,2.9,64.5C253.5,621.7,254.7,636.7,255.1,642.4z"/>
	<path class="st6" d="M339.7,623c-0.4-0.6-1.2-0.9-2-0.8c-5.5,1.1-13.4,2.9-22.2,5.1l3.5,0.5L339.7,623z"/>
	<path class="st6" d="M259.8,644.4l-0.4-2.6c-0.1,0-0.2,0.1-0.3,0.1c0-0.1,0-0.2,0-0.3l-3.9,0.9c0.1,1,0.1,1.7,0.1,2.1
		c0,0.6,0.3,1.2,0.8,1.5c0.3,0.3,0.8,0.4,1.2,0.4c0.2,0,0.3,0,0.5-0.1c0.3-0.1,13.5-3.6,29.6-7.8l0.1-0.5L259.8,644.4z"/>
	<path class="st6" d="M326.5,628.7c4.6-1.1,8.7-2,11.9-2.6c1.1-0.2,1.8-1.3,1.6-2.3c-0.1-0.3-0.2-0.6-0.4-0.8l-20.7,4.7L326.5,628.7
		z"/>
	<path class="st6" d="M246.9,542.6c0,0.6,2.9,33.9,5.2,62.3c-0.2-24.2-1.3-45.6-2.9-64.5c-0.1,0-0.3,0-0.5,0
		C247.6,540.5,246.8,541.5,246.9,542.6z"/>
	<path class="st6" d="M258.1,633.9l0.7,4.3c-0.4-4.9-1-12.4-1.7-21l-1.9-0.7L258.1,633.9z"/>
	<path class="st6" d="M288.5,634.1c-7.5,1.9-14.4,3.8-19.9,5.2l19.7-4.5L288.5,634.1z"/>
	<path class="st6" d="M259.8,644.4l27.7-6.4l0.8-3.2l-19.7,4.5c-4,1-7.1,1.9-9.2,2.4L259.8,644.4z"/>
	<path class="st6" d="M298,632.5l21-4.8l-3.5-0.5c-6.1,1.5-12.6,3.1-18.9,4.7L298,632.5z"/>
	<path class="st6" d="M319,627.7l-21,4.8l5,1.9l-15.5,3.6l-0.1,0.5c12.9-3.3,27.6-7.1,39.1-9.8L319,627.7z"/>
	<path class="st6" d="M298,632.5l-1.4-0.5c-2.8,0.7-5.5,1.4-8.1,2.1l-0.2,0.7L298,632.5z"/>
	<polygon class="st6" points="287.5,638 303.1,634.4 298,632.5 288.3,634.8 	"/>
	<path class="st6" d="M140.2,699.5c-1,0.3-1.7,1.4-1.4,2.4c0.7,2.7,14.4,56.5,35.5,79.9c0-0.7,0-1.4-0.1-2.1
		C161.1,762.5,149.6,733.1,140.2,699.5z"/>
	<path class="st6" d="M183.4,789.7c-3.2-2.6-6.2-5.9-9.2-9.9c0,0.7,0,1.4,0.1,2.1C177.2,785.1,180.2,787.8,183.4,789.7z"/>
	<path class="st6" d="M283.3,777.2c0.5-0.2,0.8-0.5,1-0.9c-17.1,5.5-33.1,10.3-47.2,13.7C260.4,785.3,281.7,777.8,283.3,777.2z"/>
	<path class="st6" d="M174.1,775.5c-18.6-24.4-31.2-73.9-31.4-74.5c-0.3-1.1-1.4-1.7-2.4-1.5c0,0,0,0-0.1,0
		c9.4,33.6,20.9,63,34,80.3C174.1,778.4,174.1,776.9,174.1,775.5z"/>
	<path class="st6" d="M284.5,774.7c-0.4-1-1.5-1.6-2.6-1.2c-0.7,0.2-65.7,23.3-92.8,14.5c-5.4-1.8-10.4-6.3-15.1-12.4
		c0,1.4,0.1,2.9,0.1,4.3c3,4,6.1,7.3,9.2,9.9c1.5,0.9,3,1.6,4.5,2.1c4.8,1.6,10.6,2.2,16.9,2.2c10,0,21.4-1.6,32.3-3.8
		c14.1-3.4,30.1-8.2,47.2-13.7C284.6,775.9,284.7,775.3,284.5,774.7z"/>
	<path class="st6" d="M421.6,714.4l-60.9,30.5c-1,0.5-1.4,1.7-0.9,2.7c0.4,0.7,1.1,1.1,1.8,1.1c0.3,0,0.6-0.1,0.9-0.2l60.9-30.5
		c1-0.5,1.4-1.7,0.9-2.7C423.8,714.3,422.6,713.9,421.6,714.4z"/>
	<path class="st6" d="M521.2,545c-1.1-0.2-2.1,0.6-2.3,1.7l-6.1,37.9l2.9-1.1L521.2,545z"/>
	<path class="st6" d="M502.2,652.4l3.7,0.5c0.1-0.2,0.2-0.4,0.2-0.6l0.4-2.7l9.3-66.1l-2.9,1.1l-10.8,67.1
		C502.1,651.8,502.1,652.1,502.2,652.4z"/>
	<path class="st6" d="M517.2,582.9l5.7-35.6c0.2-1.1-0.6-2.1-1.7-2.3c0,0,0,0,0,0l-5.4,38.4L517.2,582.9z"/>
	<path class="st6" d="M503.8,653.9c0.1,0,0.2,0,0.3,0c0.7,0,1.4-0.4,1.7-1l-3.7-0.5C502.4,653.1,503,653.7,503.8,653.9z"/>
	<polygon class="st6" points="506.6,649.5 517.2,582.9 515.8,583.4 	"/>
	<path class="st6" d="M432.6,767.7l100.8,15.6c0.1,0,0.2,0,0.3,0c1,0,1.8-0.7,2-1.6c0,0,0-0.1,0-0.1c-31.7-3.5-68.6-9.5-104.8-16.2
		c0,0,0,0,0,0.1C430.7,766.5,431.5,767.5,432.6,767.7z"/>
	<path class="st6" d="M535.7,781.6c0.1-1.1-0.6-2-1.7-2.2l-100.8-15.6c-1.1-0.2-2.1,0.6-2.3,1.6C467,772.1,503.9,778.1,535.7,781.6
		C535.7,781.6,535.7,781.6,535.7,781.6z"/>
	<path class="st11" d="M674.4,467.4c1-6.6,6.3-11.4,12.6-11.4h6.8l1.6-40.6c-0.3-0.4-0.5-0.7-0.8-1.1
		c-16.3-10.8-29.2-29.6-35.4-52.5c-0.2,3.6-0.3,7.1-0.2,10.5c1.6,45.6,10.9,86.1,9.4,126l1.2-0.1L674.4,467.4z"/>
	<path class="st11" d="M730.5,240.8C730.5,240.8,730.5,240.8,730.5,240.8L730.5,240.8l50.3-5.7l21.3,80.2l-6.8,3.7c0,0,0,0.1,0,0.1
		c1.4-0.5,2.8-0.8,4.2-0.8c7.5,0,12.7,6.9,12.7,17.4c0,10.5-9.1,20.7-16.6,20.7c-0.5,0-1,0-1.5-0.1c-4.4,22.9-15.5,42.3-30.5,54.5
		l1,16.3l0,0.1c0,0,0,0,0,0l1.7,28.8h14.5c6.1,0,11.3,4.5,12.5,10.8l4.9,24.8l29.1-1.5l3.4,0.6c-0.4-15.3-0.4-65.9-5.3-157.5
		c-5.5-102.4-17.6-114.6-41.4-126.7c-22.4-11.4-47.2-2.3-47.2-2.3l-0.8,0.3C742.9,219.9,738.8,231.3,730.5,240.8z"/>
	<path class="st12" d="M634.6,835.9h-2.5c-1.1,0-2-0.9-2-2c0-0.1,0-0.3,0-0.4c-25.1-5.5-35-23.5-37.6-48.8
		c-8.6,0.3-18.7,0.1-29.9-0.7c2.1,36-9.6,99.6-9.6,99.6s-0.3,0-0.8,0.1l5.9,78.9c4.7,0.3,9.8,0.6,15.3,0.6c4.5-0.1,19.9-1,20-1
		c0,0,0,0,0,0l0,0C608.8,913.1,625.2,863.7,634.6,835.9z"/>
	<path class="st12" d="M523.9,888.2c0.8,18.8,4.1,41,11.6,71.6c0,0,9.2,1.9,22.7,2.8l-5.9-78.9C549.4,884.3,538.2,886.1,523.9,888.2
		z"/>
	<path class="st12" d="M535.7,781.7C535.7,781.7,535.7,781.7,535.7,781.7c-4.3,37.1-10.1,59.5-11.6,85.3l26.9-1.2l1.4,18l0,0
		c0.5-0.1,0.8-0.1,0.8-0.1s11.7-63.6,9.6-99.6C554.3,783.5,545.2,782.7,535.7,781.7C535.7,781.6,535.7,781.7,535.7,781.7z"/>
	<path class="st12" d="M552.3,883.8l-1.4-18l-26.9,1.2c-0.4,6.8-0.5,13.8-0.2,21.3C538.2,886.1,549.4,884.3,552.3,883.8L552.3,883.8
		z"/>
	<path class="st12" d="M563,599.6c6.2,31.2-0.7,36.7-0.1,49.5c0.7,12.8-4.3,95.3-0.7,130.1c0.2,1.6,0.3,3.2,0.4,4.9
		c11.2,0.7,21.3,1,29.9,0.7c-4.8-46.2,14.8-116.3,10.9-177.1c-3.8-59.4,12.5-86.8,25.2-99c-1.1-3.2-2.2-6.5-3.4-9.8
		c-15.4,5.5-41.8,20-61.1,56.7C562.2,575.7,561.5,591.9,563,599.6z"/>
	<path class="st12" d="M562.7,784c-0.1-1.7-0.2-3.3-0.4-4.9c-3.7-34.8,1.3-117.3,0.7-130.1c-0.7-12.8,6.3-18.3,0.1-49.5
		c-1.5-7.7-0.8-23.9,1.2-43.9c-14.2,27-24.5,66-23.9,122.4c0.5,45.4-1.7,78-4.6,103.6c0,0,0,0,0,0
		C545.2,782.7,554.3,783.5,562.7,784z"/>
	<path class="st12" d="M535.7,781.6C535.7,781.6,535.7,781.6,535.7,781.6c0,0,0,0.1,0,0.1C535.7,781.7,535.7,781.7,535.7,781.6
		C535.7,781.7,535.7,781.6,535.7,781.6z"/>
	<path class="st12" d="M535.7,781.6C535.7,781.6,535.7,781.6,535.7,781.6C535.7,781.6,535.7,781.6,535.7,781.6
		C535.7,781.6,535.7,781.6,535.7,781.6z"/>
	<path class="st13" d="M887.4,1006c-5.1-0.4-10.7-1.1-10.7-1.1s-2.8-0.1-4.8-1.3c0,0-2,0-0.5-4.1c1.4-3.9,5.2-3.3,14-4.2
		c-0.1-0.3-0.1-0.7-0.2-1l-11.2-3.7c0,0-1.7-2.4,0.2-5.4c1.9-3.1,6.3-3,8.4-2.7c0.1,0,0.3,0,0.4,0.1c-0.3-1.8-0.7-3.7-1-5.5
		c0,0,0,0,0,0c-5-0.2-5.1-5.1-6.1-9.4c-1-4.3-0.6-8.4-0.2-16.2c0.3-7.8-1.7-11.7-3.2-19.1c-0.3-1.4-0.5-2.7-0.6-3.9
		c-4.7-1.3-9.5-2.4-14.2-3.4c0,0-7.5-8.2-3.3-93.3c-0.4-1.9-0.8-3.7-1.1-5.3c-5.2,3.2-11.4,5.1-17.9,5.2l-81.3,1
		c0.4,0.4,0.7,0.9,0.7,1.5c0,1.1-0.9,2-2,2H640.7l1.3,110c-13.9,9.9-31.5,14.5-48.4,16.3l-0.1,0.4l-10,33.2l0,0l0,0
		c-0.9,2.9-1.7,5.9-2.5,8.7c-6.1,21.3-11.5,41.2-15.3,57.7l1.5,20.7h101.2c68.6-7.1,132.3-24.2,184.6-49.9
		c10.8-5.3,23.1-11.3,35.9-18.5C888.5,1011.8,887.9,1009,887.4,1006C887.4,1006,887.4,1006,887.4,1006z"/>
	<path class="st13" d="M567.2,1083.1l-1.5-20.7c-1.8,7.7-3.2,14.6-4.2,20.7H567.2z"/>
	<path class="st13" d="M593.6,962.2L593.6,962.2c16.9-1.8,34.5-6.4,48.4-16.3l-1.3-110h-6C625.2,863.7,608.8,913.1,593.6,962.2z"/>
	<path class="st12" d="M668.4,500.3c-1.2,25-6.8,49.9-21.4,75.6c4.3,59.2,4.3,127.2-7.4,168.5l0.9,74.4c1.2-3.5,1.9-5.4,1.9-5.4H847
		c1.4-14.1,2.3-27,1-39.8c-0.8-7.4-1.7-14.7-2.6-21.9c-2-15.9-4-32.3-4.4-48.9c0-1.1,0.8-2,1.9-2.1c1.1-0.1,2,0.8,2.1,1.9
		c0.4,16.5,2.3,32,4.4,48.5c0.9,7.2,1.8,14.6,2.6,22c1.4,13.6,0.4,27.3-1.2,42.3c0.6,2.3,1.4,6,2.5,10.7v0c0,0,0,0,0,0
		c0.5-0.3,0.9-0.6,1.4-0.9c3.5-88.7-7.3-322.4-7.7-331.8l-16.2-2.8c0,1.8,0.1,3.1,0.2,4C831.3,500.5,724,500.6,668.4,500.3z"/>
	<path class="st12" d="M638,608.4l1.6,136c11.6-41.3,11.7-109.3,7.4-168.5c-2.7,4.7-5.7,9.5-9,14.2V608.4z"/>
	<path class="st12" d="M638,545.6v36.3C640,569.2,639.7,557.2,638,545.6z"/>
	<path class="st12" d="M798.3,491.6l0.5,2.4l-129.1,5l0.1-0.8l-1.2,0.1c0,0.7-0.1,1.4-0.1,2.1c55.6,0.3,162.9,0.1,162.5-5.8
		c-0.1-0.8-0.1-2.2-0.2-4l-3.4-0.6L798.3,491.6z"/>
	<path class="st12" d="M623.6,775.8c0,6.6,0.4,10.9,0.5,10.9c0.1,1.1-0.7,2.1-1.8,2.2c-0.1,0-0.1,0-0.2,0c-1,0-1.9-0.8-2-1.8
		c0-0.3-0.3-3.4-0.5-8.2c-1.6,1.1-3.3,1.9-5.1,2.5c-5.4,1.8-12.9,2.8-21.9,3.2c2.6,25.3,12.5,43.4,37.6,48.8c0.2-0.9,1-1.6,2-1.6
		h3.9c1.9-5.5,3.4-10,4.5-13.1v0c0,0,0,0,0,0l-0.9-74.4C635.7,758.4,630.4,769.3,623.6,775.8z"/>
	<path class="st12" d="M638,590.1c-0.7,1.1-1.5,2.1-2.2,3.2c1-3.9,1.7-7.7,2.2-11.4v-36.3c-1.8-12.6-5.2-24.7-9.4-37
		c-12.7,12.2-29,39.5-25.2,99c3.9,60.8-15.7,130.9-10.9,177.1c9.1-0.4,16.5-1.4,21.9-3.2c1.8-0.6,3.5-1.4,5.1-2.5
		c-0.2-7.6,0.1-19.6,2.8-31.9c2.2-10.3,0.7-16.2-1.6-25.2c-2.1-8-4.6-17.9-5.7-34.7c-2.3-36.2,11.2-56.6,11.8-57.5
		c0.6-0.9,1.9-1.2,2.8-0.5c0.9,0.6,1.2,1.9,0.5,2.8c-0.2,0.3-13.3,20.3-11.1,55c1,16.4,3.5,26.2,5.5,34c2.4,9.2,4.1,15.8,1.6,27.1
		c-2.2,10.3-2.8,20.5-2.7,27.9c6.8-6.5,12.1-17.4,16-31.4l-1.6-136V590.1z"/>
	<path class="st12" d="M853.3,826.2c-1-4.8-1.9-8.4-2.5-10.7c-0.1,0.8-0.2,1.7-0.3,2.5c-0.1,1-1,1.8-2,1.8c-0.1,0-0.1,0-0.2,0
		c-1.1-0.1-1.9-1.1-1.8-2.2c0.1-1.4,0.3-2.8,0.4-4.2H642.4c0,0-0.7,1.9-1.9,5.4l0.2,13.1h112.1c0.5,0,0.9,0.2,1.3,0.5l81.3-1
		C841.9,831.3,848.1,829.4,853.3,826.2C853.3,826.2,853.3,826.2,853.3,826.2L853.3,826.2z"/>
	<path class="st12" d="M640.5,818.8c-1.1,3.2-2.6,7.6-4.5,13.1h4.6L640.5,818.8C640.5,818.8,640.5,818.8,640.5,818.8L640.5,818.8z"
		/>
	<path class="st3" d="M763.8,414.5l0.8,12.7l-1-16.3c-1.6,1.3-3.3,2.6-5.1,3.7L763.8,414.5z"/>
	<path class="st3" d="M741.9,446.1c-18.7,2.1-37-18.7-46-30.2c-0.1-0.2-0.3-0.4-0.4-0.6l-1.6,40.6h72.5l-1.7-28.8
		C760.4,436.1,752.8,444.9,741.9,446.1z"/>
	<path class="st12" d="M693.4,467.6l0.5-11.5H687c-6.3,0-11.6,4.8-12.6,11.4l-4.7,30.8l128.6-6.6l-4.9-24.8
		c-1.2-6.3-6.5-10.8-12.5-10.8h-14.5l0.6,9.3L693.4,467.6z"/>
	<polygon class="st12" points="669.6,498.9 798.7,493.9 798.3,491.6 669.7,498.2 	"/>
	<polygon class="st12" points="693.4,467.6 766.9,465.3 766.3,456 693.8,456 	"/>
	<path class="st7" d="M694.7,414.3c0.2,0.4,0.5,0.7,0.8,1.1l0-0.6C695.2,414.7,694.9,414.5,694.7,414.3z"/>
	<polygon class="st7" points="764.6,427.3 764.6,427.1 764.6,427.3 	"/>
	<path class="st7" d="M758.6,414.6c-9,6-19.1,9.5-29.9,9.8c-11.9,0.4-23.1-3.1-33.2-9.5l0,0.6c0.1,0.2,0.3,0.4,0.4,0.6
		c9,11.5,27.3,32.3,46,30.2c10.9-1.2,18.6-10,22.7-18.9l0-0.1l-0.8-12.7L758.6,414.6z"/>
	<path class="st3" d="M795.3,319.2c0,0,0-0.1,0-0.1l-0.9,0.5C794.8,319.4,795,319.3,795.3,319.2z"/>
	<path class="st3" d="M694.7,414.3c-1.1-1.6-1.7-2.9-2.5-3.9c0.8,0.5,1.9,1.2,3.4,1.9l0.3-8h67.4l0.4,6.4
		c15-12.2,26.1-31.6,30.5-54.5c-6.8-1-12.2-9.1-12.2-18.9c0-6.8,4.2-12.8,9.2-16.1l0,0c0,0-5.8-43.1-32.9-56.2
		c-19.1-9.2-27.7-24.3-27.7-24.3c0,0,0,0,0,0c-11.2,12.9-30.2,22.4-40.1,34.1c-4.9,5.8-9.4,13.1-13.4,21.2c5-0.9,11.1-1.1,18.3,0.1
		c3,0.5,5,3.3,4.5,6.3c-0.5,3-3.3,5-6.3,4.5c-10.6-1.7-18.2,0.4-22.1,2c-6.7,17.2-11,36.3-12,52.7
		C665.5,384.7,678.4,403.5,694.7,414.3z M755.5,329c-3.4,0-6.1-3.4-6.1-7.7c0-4.2,2.7-7.7,6.1-7.7c3.4,0,6.1,3.4,6.1,7.7
		C761.6,325.5,758.8,329,755.5,329z M738.3,292.5c0.6-0.3,14.1-6.7,33.7-0.3c2.9,0.9,4.4,4,3.5,6.9c-0.8,2.3-2.9,3.8-5.2,3.8
		c-0.6,0-1.1-0.1-1.7-0.3c-15.1-5-25.1-0.5-25.5-0.3c-2.7,1.3-6,0.1-7.3-2.6C734.5,297.1,735.6,293.9,738.3,292.5z M719.1,333.4
		c0-0.5,0.4-0.9,0.9-0.9c0.5,0,0.9,0.4,0.9,0.9v19.7h4.6c0.5,0,0.9,0.4,0.9,0.9c0,0.5-0.4,0.9-0.9,0.9H720c-0.5,0-0.9-0.4-0.9-0.9
		V333.4z M749.2,377.5c-1.5,8.1-9.6,15.1-20.3,16.6c-12.2,1.8-23.3-4.4-25.4-13.8L749.2,377.5z M678.5,329c0-4.2,2.7-7.7,6.1-7.7
		c3.4,0,6.1,3.4,6.1,7.7c0,4.2-2.7,7.7-6.1,7.7C681.3,336.6,678.5,333.2,678.5,329z"/>
	<path class="st3" d="M695.9,404.4l-0.3,8c1.3,0.7,2.9,1.4,4.9,2.2c7.2,2.7,18.3,5.5,33,5.5c10.7,0,18.8-2.6,24.7-5.5l0.4,0
		c1.7-1.2,3.4-2.4,5.1-3.7l-0.4-6.4H695.9z"/>
	<path class="st3" d="M695.6,412.4c-1.5-0.8-2.5-1.5-3.4-1.9c0.7,1,1.4,2.3,2.5,3.9c0.3,0.2,0.5,0.3,0.8,0.5L695.6,412.4z"/>
	<path class="st3" d="M728.6,424.4c10.8-0.3,21-3.8,29.9-9.8l-0.4,0c-5.9,3-14,5.5-24.7,5.5c-14.7,0-25.8-2.8-33-5.5
		c-2-0.8-3.6-1.5-4.9-2.2l-0.1,2.4C705.5,421.3,716.8,424.7,728.6,424.4z"/>
	<path class="st3" d="M794.2,356.3c0.5,0.1,1,0.1,1.5,0.1c7.5,0,16.6-10.1,16.6-20.7c0-10.5-5.2-17.4-12.7-17.4
		c-1.3,0-2.7,0.3-4.2,0.8c0.4,3.6,0.7,7.3,0.9,11.1C796.5,339.3,795.8,348,794.2,356.3z"/>
	<path class="st3" d="M791.2,321.3c-5,3.4-9.2,9.3-9.2,16.1c0,9.8,5.3,17.9,12.2,18.9c1.6-8.3,2.3-17.1,2-26.1
		c-0.1-3.8-0.4-7.4-0.9-11.1c-0.3,0.1-0.6,0.2-0.9,0.3L791.2,321.3z"/>
	<path d="M743.1,302.4c0.4-0.2,10.4-4.7,25.5,0.3c0.6,0.2,1.1,0.3,1.7,0.3c2.3,0,4.5-1.5,5.2-3.8c0.9-2.9-0.6-6-3.5-6.9
		c-19.6-6.4-33.1,0-33.7,0.3c-2.7,1.3-3.8,4.6-2.5,7.3C737.1,302.5,740.3,303.7,743.1,302.4z"/>
	<path d="M693.5,307.1c3,0.5,5.8-1.5,6.3-4.5c0.5-3-1.5-5.8-4.5-6.3c-7.1-1.2-13.3-0.9-18.3-0.1c-2,4.1-3.9,8.5-5.6,12.9
		C675.3,307.5,682.9,305.4,693.5,307.1z"/>
	<path d="M720,354.9h5.5c0.5,0,0.9-0.4,0.9-0.9c0-0.5-0.4-0.9-0.9-0.9h-4.6v-19.7c0-0.5-0.4-0.9-0.9-0.9c-0.5,0-0.9,0.4-0.9,0.9V354
		C719.1,354.5,719.5,354.9,720,354.9z"/>
	<ellipse cx="684.6" cy="329" rx="6.1" ry="7.7"/>
	<path d="M755.5,313.7c-3.4,0-6.1,3.4-6.1,7.7c0,4.2,2.7,7.7,6.1,7.7c3.4,0,6.1-3.4,6.1-7.7C761.6,317.1,758.8,313.7,755.5,313.7z"
		/>
	<path class="st9" d="M728.9,394.1c10.6-1.5,18.8-8.5,20.3-16.6l-45.6,2.8C705.6,389.7,716.7,395.9,728.9,394.1z"/>
	<path class="st11" d="M641.1,500.1c-1,0-1.9,0-2.6,0c0.1,0.4,0.1,0.8,0.2,1.2C639.6,500.8,640.4,500.4,641.1,500.1z"/>
	<path class="st11" d="M635.9,485.9V245.4l100.1-41c-0.3-0.8-0.7-1.5-1.1-2.3c-12.2-24.4-81.7-2.4-97,12.9
		c-26.6,26.7-27.9,83.8-31.9,119.2c-3,26.2-4.4,52.1-2.3,77.8c9.2,12.3,16.7,30.3,26.1,51.1C631.7,467.4,633.8,475.3,635.9,485.9z"
		/>
	<path class="st11" d="M625.3,498.9c4.7-1.7,8.4-2.6,10.6-3v-10c-2.1-10.6-4.2-18.5-6.1-22.8c-9.4-20.8-16.9-38.9-26.1-51.1
		c1.6,20.4,5.4,40.5,12.2,60.5C619,481.6,622.3,490.3,625.3,498.9z"/>
	<path class="st11" d="M638,501.6c0.2-0.1,0.4-0.2,0.6-0.3c-0.1-0.4-0.1-0.8-0.2-1.2c-0.1,0-0.3,0-0.4,0V501.6z"/>
	<path class="st11" d="M635.9,485.9c0.6,3,1.2,6.3,1.8,9.7c0.2,0,0.4,0,0.4,0v2.2c0.1,0.8,0.3,1.6,0.4,2.3c0.7,0,1.6,0,2.6,0
		c1-0.4,1.5-0.6,1.5-0.6l25.9-1.3c1.5-39.9-7.8-80.4-9.4-126c-0.1-3.3,0-6.8,0.2-10.5c-2.3-8.5-3.7-17.7-4-27.1
		c-1.6-50.8,28.7-92.9,67.6-94.1c2.6-0.1,5.1,0,7.6,0.3c8.3-9.5,12.4-20.9,5.5-36.4l-100.1,41V485.9z"/>
	<path class="st11" d="M635.9,485.9v10c0.8-0.2,1.4-0.3,1.8-0.3C637.1,492.2,636.5,489,635.9,485.9z"/>
	<path class="st11" d="M638.4,500.1c-0.1-0.8-0.3-1.6-0.4-2.3v2.3C638.2,500.1,638.3,500.1,638.4,500.1z"/>
	<path class="st11" d="M638,501.6v-1.5c-1.4,0-2.1,0-2.1,0v-4.2c-2.2,0.4-5.9,1.3-10.6,3c1.2,3.3,2.3,6.5,3.4,9.8
		C632.3,505.2,635.6,503,638,501.6z"/>
	<path class="st11" d="M638,495.6c0,0-0.1,0-0.4,0c0.1,0.7,0.2,1.4,0.4,2.1V495.6z"/>
	<path class="st11" d="M638,500.1v-2.3c-0.1-0.7-0.2-1.4-0.4-2.1c-0.4,0-1,0.1-1.8,0.3v4.2C635.9,500.1,636.6,500.1,638,500.1z"/>
	<path class="st11" d="M647,575.9c14.6-25.7,20.2-50.5,21.4-75.6c-12.1-0.1-21.8-0.2-27.3-0.2c-0.6,0.3-1.5,0.7-2.4,1.2
		C641.9,521.7,644.9,547.8,647,575.9z"/>
	<path class="st11" d="M638,501.6v44c1.7,11.6,1.9,23.6,0,36.3v8.2c3.3-4.8,6.3-9.5,9-14.2c-2.1-28.1-5.1-54.3-8.4-74.6
		C638.4,501.4,638.2,501.5,638,501.6z"/>
	<path class="st11" d="M668.5,498.2l-25.9,1.3c0,0-0.5,0.2-1.5,0.6c5.5,0.1,15.2,0.1,27.3,0.2C668.4,499.6,668.5,498.9,668.5,498.2z
		"/>
	<path class="st11" d="M638,501.6c-2.5,1.4-5.8,3.6-9.4,7c4.1,12.3,7.6,24.4,9.4,37V501.6z"/>
	<path class="st11" d="M638,590.1v-8.2c-0.6,3.7-1.3,7.5-2.2,11.4C636.6,592.3,637.3,591.2,638,590.1z"/>
	<path class="st11" d="M668.2,310.7c-0.9,0.6-2,0.9-3.1,0.9c-1.8,0-3.5-0.8-4.5-2.4c-1.7-2.5-1.1-5.9,1.4-7.6
		c0.3-0.2,5.7-3.9,15-5.4c4-8.1,8.5-15.4,13.4-21.2c9.9-11.7,28.9-21.2,40.1-34.1c-2.5-0.3-5.1-0.4-7.6-0.3
		c-38.9,1.2-69.2,43.4-67.6,94.1c0.3,9.5,1.7,18.6,4,27.1c1-16.4,5.4-35.5,12-52.7C669.4,309.9,668.4,310.6,668.2,310.7z"/>
	<path class="st11" d="M660.6,309.2c1.1,1.6,2.8,2.4,4.5,2.4c1.1,0,2.1-0.3,3.1-0.9c0.1-0.1,1.2-0.8,3.1-1.6
		c1.7-4.5,3.6-8.8,5.6-12.9c-9.3,1.6-14.6,5.2-15,5.4C659.6,303.4,658.9,306.8,660.6,309.2z"/>
	<path class="st11" d="M795.3,319l6.8-3.7l-21.3-80.2l-50.3,5.7l0,0C763.1,244.4,790.1,276.9,795.3,319z"/>
	<path class="st11" d="M758.2,265.1c27.1,13.1,32.9,56.2,32.9,56.2l0,0c1.1-0.7,2.2-1.3,3.3-1.8l0.9-0.5
		c-5.3-42.1-32.2-74.7-64.8-78.2C730.5,240.9,739.1,255.9,758.2,265.1z"/>
	<path class="st11" d="M791.2,321.3l3.3-1.8C793.3,320,792.2,320.6,791.2,321.3z"/>
	<path class="st3" d="M882.1,976.9C882.1,976.9,882.1,976.9,882.1,976.9c5,0.2,8.4-2.8,9.1-7.2c0.8-4.4,0.2-12-0.3-14.5
		c-0.5-2.4-0.4-6.4,0.9-7.1c0.9-0.5,2.3-1.1,3-1.4c0.8,1.6,1.4,2.6,1.4,2.6c-0.6,8.4,4.9,14,4.9,14c-2.5,4.8-1.1,12.3-1.1,12.3
		c-5.4,2.7-10.7,8.8-10.7,8.8s-3.9-1.5-6.2-1.8c0,0,0,0,0,0c0.7,4,1.5,7.9,2.2,11.8c0,0,0,0,0,0l2.3,0.8c-0.7,0.1-1.4,0.2-2.1,0.3
		c0,0,0,0,0,0c0.7,3.6,1.3,7.2,2,10.8c2.5,0.2,4.9,0.3,6.4,0.2c4.3-0.3,19.2-10.1,25.8-15.6c6.5-5.4,12.8-30,12.8-30
		c0.3-3.4-0.5-6.9-2-11.5c-14.2-6.1-35.4-14.6-57.3-20.5C876.1,944.6,879.1,961,882.1,976.9z"/>
	<path class="st3" d="M885.4,995.2c-8.8,1-12.6,0.4-14,4.2c-1.5,4.2,0.5,4.1,0.5,4.1c2.1,1.1,4.8,1.3,4.8,1.3s5.6,0.7,10.7,1.1
		C886.8,1002.5,886.1,998.9,885.4,995.2C885.4,995.2,885.4,995.2,885.4,995.2z"/>
	<path class="st3" d="M883.1,982.4C883.1,982.4,883.1,982.4,883.1,982.4c-0.1,0-0.3,0-0.4-0.1c-2.2-0.2-6.6-0.3-8.4,2.7
		c-1.9,3.1-0.2,5.4-0.2,5.4l11.2,3.7c0,0,0,0,0,0C884.5,990.4,883.8,986.4,883.1,982.4z"/>
	<path class="st3" d="M871.9,928.2c0.2,1.2,0.4,2.6,0.6,3.9c1.5,7.4,3.5,11.3,3.2,19.1c-0.3,7.8-0.8,11.9,0.2,16.2
		c1,4.3,1.1,9.2,6.1,9.4c-2.9-15.9-6-32.3-8.9-48.3C872.7,928.4,872.3,928.3,871.9,928.2z"/>
	<path class="st12" d="M869.9,796.4c0,12-6,22.6-15.2,28.9c-0.1,1.8-0.2,3.6-0.2,5.3c0,0.3,0,0.6,0,1c0,0,0,0,0,0
		c4.1,19.8,10.4,52.8,17.1,88.6c0,0,0,0,0,0c0,0,0,0,0,0c0-0.9,0.1-1.4,0.1-1.4c0.7-6.2,3.1-13.6,3.8-15.5
		c-0.7-4.5-0.7-8.6,0.8-11.7c2.5-5.6-5.7-46.4-5.7-46.4l41.7,4.7l-3.9,46.2c0,0,13.1,27.3,17.4,39.6c1.9,5.4,3.6,9.7,4.8,13.4
		c10.6,4.6,17.3,7.9,17.3,7.9c55.2-66.3-5.6-169.3-4.5-221.4c1.1-52.1,3.2-82.8-17.3-164.7C905.3,489,847,493.2,847,493.2
		s0,0.1,0,0.3l23,4V796.4z"/>
	<path class="st12" d="M871.6,920.2C871.5,920.2,871.5,920.2,871.6,920.2C871.6,920.2,871.6,920.2,871.6,920.2
		c-6.7-35.8-13-68.9-17.1-88.7c0,0,0,0,0,0c-4.2,85.1,3.3,93.3,3.3,93.3c4.7,1,9.5,2.1,14.2,3.4
		C871.5,924.7,871.5,921.8,871.6,920.2z"/>
	<path class="st12" d="M854.7,825.3c9.2-6.3,15.2-16.9,15.2-28.9v-299l-23-4C847.4,502.9,858.3,736.6,854.7,825.3z"/>
	<path class="st12" d="M908.3,896.1l3.9-46.2l-41.7-4.7c0,0,8.3,40.8,5.7,46.4c-1.4,3.1-1.5,7.3-0.8,11.7c-0.7,1.9-3.1,9.4-3.8,15.5
		c0,0,0,0.5-0.1,1.4c0.5,2.8,1,5.5,1.6,8.3l0,0c21.9,5.9,43.2,14.4,57.3,20.5c-1.2-3.6-2.9-7.9-4.8-13.4
		C921.3,923.4,908.3,896.1,908.3,896.1z"/>
	<path class="st12" d="M873.1,928.6c-0.5-2.8-1-5.6-1.6-8.3c-0.1,1.6-0.1,4.5,0.4,8C872.3,928.3,872.7,928.4,873.1,928.6
		L873.1,928.6z"/>
	<path class="st7" d="M593.6,962.2c-6.9,0.7-13.7,1-20,1c-0.3,0-0.5,0-0.7,0c0,0,0.2,24.2,10.4,32.4l0.2,0.2l0-0.2
		c3.2-10.8,6.5-21.8,9.9-32.9l0-0.1L593.6,962.2C593.6,962.2,593.6,962.2,593.6,962.2z"/>
	<path class="st7" d="M593.6,962.2c-0.1,0-15.6,1-20,1C579.9,963.3,586.7,963,593.6,962.2z"/>
	<path class="st7" d="M583.5,995.7l0,0.2l0,0l10-33.2l0,0.1C590,973.9,586.7,984.9,583.5,995.7z"/>
	<path class="st6" d="M622.1,789c0.1,0,0.1,0,0.2,0c1.1-0.1,1.9-1.1,1.8-2.2c0-0.1-0.4-4.4-0.5-10.9c-1.3,1.2-2.6,2.3-4,3.2
		c0.1,4.8,0.4,7.9,0.5,8.2C620.2,788.2,621,789,622.1,789z"/>
	<path class="st6" d="M626.3,747.9c2.4-11.2,0.7-17.9-1.6-27.1c-2-7.8-4.5-17.5-5.5-34c-2.2-34.7,10.9-54.7,11.1-55
		c0.6-0.9,0.4-2.2-0.5-2.8c-0.9-0.6-2.2-0.4-2.8,0.5c-0.6,0.9-14,21.3-11.8,57.5c1,16.8,3.6,26.7,5.7,34.7c2.3,9,3.8,14.9,1.6,25.2
		c-2.7,12.3-3,24.3-2.8,31.9c1.4-0.9,2.7-2,4-3.2C623.6,768.5,624.1,758.2,626.3,747.9z"/>
	<path class="st6" d="M850.8,815.5c1.5-15,2.6-28.7,1.2-42.3c-0.8-7.4-1.7-14.8-2.6-22c-2-16.5-4-32.1-4.4-48.5c0-1.1-1-2-2.1-1.9
		c-1.1,0-2,0.9-1.9,2.1c0.4,16.7,2.4,33.1,4.4,48.9c0.9,7.1,1.8,14.5,2.6,21.9c1.3,12.8,0.4,25.7-1,39.8h3.2
		C850.4,813.9,850.6,814.6,850.8,815.5z"/>
	<path class="st6" d="M848.4,819.8c0.1,0,0.1,0,0.2,0c1,0,1.9-0.8,2-1.8c0.1-0.8,0.2-1.7,0.3-2.5c-0.2-0.9-0.4-1.6-0.6-2.1H847
		c-0.1,1.4-0.3,2.8-0.4,4.2C846.5,818.7,847.3,819.7,848.4,819.8z"/>
	<path class="st14" d="M630.2,833.5c0,0.1,0,0.3,0,0.4c0,1.1,0.9,2,2,2h2.5c0.2-0.7,0.5-1.3,0.7-2c0,0,0,0,0,0c0,0,0,0,0,0l-3.2,0
		C631.5,833.8,630.8,833.7,630.2,833.5z"/>
	<path class="st14" d="M640.7,835.9h112.1c1.1,0,2-0.9,2-2c0-0.6-0.3-1.1-0.7-1.5l-113.4,1.4L640.7,835.9z"/>
	<path class="st14" d="M635.3,833.9C635.3,833.9,635.3,833.9,635.3,833.9C635.3,833.9,635.3,833.9,635.3,833.9
		c-0.2,0.7-0.5,1.4-0.7,2h6l0-2.1L635.3,833.9z"/>
	<path class="st14" d="M632.1,831.9c-1,0-1.8,0.7-2,1.6c0.6,0.1,1.3,0.3,2,0.4l3.2,0c0.2-0.7,0.4-1.3,0.7-2H632.1z"/>
	<path class="st14" d="M640.6,831.9l0,1.9l113.4-1.4c-0.3-0.3-0.8-0.5-1.3-0.5H640.6z"/>
	<path class="st14" d="M635.3,833.9l5.3-0.1l0-1.9H636C635.8,832.6,635.6,833.2,635.3,833.9z"/>
</g>
<path class="st0" d="M993,908.6c-29,70.1-96.7,103.4-139.9,124.6c-170.5,83.7-462.7,77-648.9-75.3c-43.6-35.6-225-225.2-174.8-478.3
	c44.4-223.7,267-353.7,454.4-371.1c155.3-14.4,357.9,41.9,429.5,178.3c45,85.8-9.2,113.1,27.5,307.5
	C972.7,762.5,1028.4,822.8,993,908.6z"/>
<path class="st3" d="M420.2,184.8c4.9,62.5-24.6,115.9-70.5,119.5c-45.9,3.6-87.1-44.1-92-106.5c-4.9-62.5,28.2-116.1,74.1-119.7
	C377.7,74.4,415.2,122.3,420.2,184.8z"/>
<path class="st8" d="M357.5,321.8c-43.9,6.5-86.9-38.9-96.2-101.2c-0.9-6-1.4-11.9-1.7-17.8c10.3,60.6,52.6,104.2,95.7,97.9
	c39.6-5.9,66.3-51.9,64.4-106.7c0.2,1,0.4,2.1,0.5,3.1C429.5,259.4,401.4,315.3,357.5,321.8z"/>
<path class="st8" d="M425.8,88.8c1.5-4.9,0.9-9.8-4.6-15.3c-5.5-5.5-12.5-14.1-10.4-17.7c2.1-3.7,11.3-13.1,2.4-21.4
	c-8.9-8.2-51.6-13.4-59.6-6.1c-7.8,7.2-36.3-19.5-59.8,15.9l-9.7,6c0,0-41.7,4.6-42.6,41.2c0,0-5,8.2-15.1,21.5
	c-10.1,13.3,1.8,35.7,4.6,49c2.7,13.3,8.4,24.3,8.1,28.3c0,0.5,0.1,1.1,0.3,1.8c5.9-3.7,11.9-7.2,17.9-10.7
	c0.5-17.6,4-34.2,9.9-48.6c0.7-2.3,1.5-4.2,2.4-5.5c6.9-14.8,16.5-27.2,28-35.8c0,0,0,0,0,0c1.5,4,3.3,7.1,5.7,8.4
	c11.6,6.7,24.8-5.5,35.3-7.3c10.5-1.8,31.7-3.6,46.6,9.3c14.9,13,27.7,50.8,27.7,50.8l3.3,12.7c0,0,8.7,2.2,9.6-9.7
	C426.7,143.7,424.2,93.7,425.8,88.8z M293.1,45.3c-0.3,0.5-0.6,0.9-0.9,1.4c0,0,0,0,0,0.1c0-0.1,0-0.1,0-0.1
	C292.6,46.2,292.8,45.7,293.1,45.3z M293.6,72.4C293.6,72.3,293.6,72.3,293.6,72.4C293.6,72.3,293.6,72.3,293.6,72.4z M293.1,66.8
	C293.1,66.8,293.1,66.8,293.1,66.8C293.1,66.8,293.1,66.8,293.1,66.8z M292.8,63.3C292.8,63.3,292.8,63.2,292.8,63.3
	C292.8,63.2,292.8,63.3,292.8,63.3z M292.6,59.9C292.6,59.9,292.6,59.9,292.6,59.9C292.6,59.9,292.6,59.9,292.6,59.9z M292.5,58.3
	C292.5,58.3,292.5,58.3,292.5,58.3C292.5,58.3,292.5,58.3,292.5,58.3z M292.4,55.3C292.4,55.3,292.4,55.3,292.4,55.3
	C292.4,55.3,292.4,55.3,292.4,55.3z M292.3,52.7C292.3,52.7,292.3,52.7,292.3,52.7C292.3,52.7,292.3,52.7,292.3,52.7z M292.3,51.5
	C292.3,51.5,292.3,51.5,292.3,51.5C292.3,51.5,292.3,51.5,292.3,51.5z M292.3,49.5c0,0,0-0.1,0-0.1
	C292.3,49.5,292.3,49.5,292.3,49.5z M292.3,47.4C292.3,47.4,292.3,47.4,292.3,47.4C292.3,47.4,292.3,47.4,292.3,47.4z M292.3,47
	C292.3,47,292.3,47,292.3,47C292.3,47,292.3,47,292.3,47z M292.3,48C292.3,48,292.3,48,292.3,48C292.3,48,292.3,48,292.3,48z
	 M297.1,89.9C297.1,89.9,297.1,89.9,297.1,89.9C297.1,89.9,297.1,89.9,297.1,89.9z M294.1,76C294.1,76,294.1,76.1,294.1,76
	C294.1,76.1,294.1,76,294.1,76z M294.7,79.7C294.7,79.7,294.7,79.7,294.7,79.7C294.7,79.7,294.7,79.7,294.7,79.7z M295,81.5
	C295,81.5,295,81.6,295,81.5C295,81.6,295,81.5,295,81.5z M295.7,85c0,0,0,0.1,0,0.1C295.8,85.1,295.7,85,295.7,85z M296.6,88.3
	c0,0,0,0.1,0,0.1C296.6,88.4,296.6,88.3,296.6,88.3z"/>
<path class="st3" d="M275,207.2c5.7,11.8,3.6,24.7-4.7,28.7c-8.3,4.1-19.8-2.2-25.5-14c-5.7-11.8-3.6-24.7,4.7-28.7
	C257.8,189.1,269.3,195.4,275,207.2z"/>
<path class="st3" d="M436.9,191.1c-1.5,13-10.2,22.8-19.4,21.7c-9.2-1.1-15.5-12.5-14-25.5c1.5-13,10.2-22.8,19.4-21.7
	C432.1,166.6,438.4,178,436.9,191.1z"/>
<path class="st8" d="M311.1,167.5c-5.7,0.4-11.7,1.1-17.4,2.3c-5.7,1.2-11.3,2.9-15.6,5.5l-0.2,0.1c-2.2,1.4-5.2,0.7-6.6-1.5
	c-1.4-2.2-0.7-5.1,1.4-6.5c6.1-4,12.4-5.9,18.7-7.4c6.3-1.5,12.4-2.5,18.9-3.1c2.9-0.3,5.5,1.9,5.8,4.8c0.3,2.9-1.9,5.5-4.8,5.8
	c0,0-0.1,0-0.1,0L311.1,167.5z"/>
<path class="st8" d="M306.2,190.1c0.7,4.6-1.9,8.7-5.7,9.3c-3.8,0.6-7.5-2.7-8.2-7.2c-0.7-4.6,1.9-8.7,5.7-9.3
	C301.9,182.4,305.6,185.6,306.2,190.1z"/>
<path class="st8" d="M359.5,161.7c5.6-0.9,11.7-1.6,17.5-1.7c5.8-0.1,11.7,0.2,16.4,1.8l0.2,0.1c2.5,0.8,5.2-0.5,6-3
	c0.8-2.5-0.5-5.1-2.9-6c-6.9-2.5-13.4-2.9-19.9-3c-6.5,0-12.7,0.4-19.2,1.3c-2.9,0.4-5,3.1-4.6,6c0.4,2.9,3.1,5,6,4.6
	c0,0,0.1,0,0.1,0L359.5,161.7z"/>
<path class="st8" d="M369.4,182.7c0.4,4.6,3.8,8,7.7,7.7c3.9-0.3,6.7-4.3,6.3-8.9c-0.4-4.6-3.8-8-7.7-7.7
	C371.8,174.1,369,178.1,369.4,182.7z"/>
<path class="st8" d="M316.7,293.3c2.4,1.6,10.8-0.4,13.5-1c4.6-1,9.9-2.7,12.8-6.7c3.3-4.6,1.8-11.5,1.4-16.7
	c-0.1-1.5,0.1-5.6-1.1-6.8c0,0,12.1-1.8,12.2-1.8c-1.1,0.2,2.2,17.2,2.7,18.6c1.4,3.7,5.1,5.8,8.8,6.7c3.8,1,8,1.1,12,0.8
	c1-0.1,10.4-0.9,10.5-1.9c-0.1,0.8-0.7,1.5-1.3,2.1c-6.2,6.3-13,12-19.8,17.6c0,0-32.4,2.7-33.3,1.8
	C334.1,305.1,316.7,293.3,316.7,293.3z"/>
<path class="st9" d="M377,248.3c-4.3,7.6-13.3,13.9-24.6,16.1c-15.1,2.9-29.2-2.2-34.6-11.7c0-0.1,0.1-0.3,0.3-0.4
	c1.9-1.6,3.9-3,6-4.2l44.4-5.3C371.9,243.4,375,244.8,377,248.3z"/>
<g>
	<path class="st8" d="M313.8,299.3c-1-9.2-3.6-38.8,0.3-47.6v-0.6l1.3-1.5c2.4-2.1,4.6-3.6,6.9-4.8c7.2-4.2,16.2-6.6,25.8-7
		c5.3-0.2,10.6-0.1,15.6,0.5l1.2,0.2c1.4,0.2,2.8,0.3,4.2,0.6c3.6,0.8,8,2.3,11,7.3c3,5.2,4.3,10.8,5.6,16.3c0.3,1.4,0.7,2.8,1,4.2
		c2.1,8.5,2.8,15.6,2.1,22.5l-7.3-0.7c0.6-6,0-12.4-1.9-20c-0.4-1.4-0.7-2.9-1-4.3c-1.2-5.1-2.3-10-4.8-14.2
		c-1.2-2.1-2.9-3.1-6.2-3.8c-1.2-0.3-2.4-0.4-3.5-0.5l-1.3-0.2c-4.6-0.5-9.5-0.7-14.4-0.5c-8.5,0.3-16.3,2.4-22.5,6
		c-1.8,1-3.5,2.1-5.1,3.5l-0.1,0.1c-2.1,3.3-1.5,25.3,0.4,43.8L313.8,299.3z"/>
</g>
<g>
	<path class="st8" d="M334.8,222.1c-0.4,0-0.7-0.2-0.9-0.5c-0.3-0.5-0.1-1.1,0.4-1.4l7.9-4.2c2.5-1.3,3.9-3.7,3.6-6.2l-4-27.8
		c-0.1-0.5,0.3-1.1,0.8-1.1c0.5-0.1,1.1,0.3,1.1,0.8l4,27.8c0.5,3.2-1.3,6.5-4.6,8.2l-7.9,4.2C335.1,222.1,334.9,222.1,334.8,222.1z
		"/>
</g>
</svg>
