<?xml version="1.0" encoding="utf-8"?>
<!-- Generator: Adobe Illustrator 23.0.3, SVG Export Plug-In . SVG Version: 6.00 Build 0)  -->
<svg version="1.1" id="Layer_1" xmlns="http://www.w3.org/2000/svg" xmlns:xlink="http://www.w3.org/1999/xlink" x="0px" y="0px"
	 viewBox="0 0 1026.6 1109.9" style="enable-background:new 0 0 1026.6 1109.9;" xml:space="preserve">
<style type="text/css">
	.st0{fill:#FCB70D;}
	.st1{clip-path:url(#SVGID_2_);}
	.st2{fill:#E2B897;}
	.st3{fill:#F8BD8C;}
	.st4{fill:#31185E;}
	.st5{fill:#2A1656;}
	.st6{fill:#1D1647;}
	.st7{fill:#EAB186;}
	.st8{fill:#1A1A1A;}
	.st9{fill:#FCFCFC;}
	.st10{fill:#666B6D;}
	.st11{fill:#0B0635;}
	.st12{fill:#8D48F9;}
	.st13{fill:#FF7C90;}
	.st14{fill:#DC4070;}
</style>
<path class="st0" d="M993,908.6c-29,70.1-96.7,103.4-139.9,124.6c-170.5,83.7-462.7,77-648.9-75.3c-43.6-35.6-225-225.2-174.8-478.3
	c44.4-223.7,267-353.7,454.4-371.1c155.3-14.4,357.9,41.9,429.5,178.3c45,85.8-9.2,113.1,27.5,307.5
	C972.7,762.5,1028.4,822.8,993,908.6z"/>
<g>
	<defs>
		<path id="SVGID_1_" d="M993,908.6c-29,70.1-96.7,103.4-139.9,124.6c-170.5,83.7-462.7,77-648.9-75.3
			c-43.6-35.6-225-225.2-174.8-478.3c44.4-223.7,267-353.7,454.4-371.1c155.3-14.4,357.9,41.9,429.5,178.3
			c45,85.8-9.2,113.1,27.5,307.5C972.7,762.5,1028.4,822.8,993,908.6z"/>
	</defs>
	<clipPath id="SVGID_2_">
		<use xlink:href="#SVGID_1_"  style="overflow:visible;"/>
	</clipPath>
	<g class="st1">
		<g>
			<path class="st2" d="M567.2,1083.1h-394l7-193.3l0.2-5.8l0-1.2l324-14.8l46.5-2.1l1.4,18l5.9,79.4l0,0.1l2.2,28.8c0,0,0,0,0,0
				l0.9,12.5L567.2,1083.1z"/>
			<path class="st2" d="M379.4,1083.1H173.1l3.7-196.5l0.1-3.9l3.5,1.2l37.8,13l93.8,32.2c0,0,0,0,0.2,0l62.1,21.3L379.4,1083.1z"/>
			<polygon class="st3" points="419.9,373 306.7,386.3 303.9,310 303.7,304.8 303.3,294.8 396,283.9 402,283.2 407.1,308.6 			"/>
			<path class="st4" d="M289.2,361.3c0,0-132,55-135.6,66c-3.7,11-18.3,42.2-18.3,42.2s64.1,155.8,47.7,208.9
				c-16.5,53.2-5.5,141.1-5.5,168.6c0,27.5-11,38.5,9.2,45.8c20.2,7.3,86.1,3.7,122.8,0c36.7-3.7,111.8,1.1,128.3,4.2
				c16.5,3.1,115.5-13.4,115.5-13.4s12.8-69.6,9.2-104.5c-3.7-34.8,1.3-117.3,0.7-130.1c-0.7-12.8,6.3-18.3,0.1-49.5
				C556.8,568.4,588,398,588,398l-152.1-55.4L289.2,361.3z"/>
			<g>
				<polygon class="st5" points="358.1,354.9 339.1,418.5 255.4,376.3 275.7,354.9 				"/>
				<path class="st6" d="M340,420.7l-87.1-44l22.1-23.3h85.1L340,420.7z M257.8,375.8l80.3,40.5l17.9-60h-79.8L257.8,375.8z"/>
			</g>
			<g>
				<polygon class="st5" points="341.8,354.9 367.5,418.5 463,351.3 440.2,326.7 				"/>
				<path class="st6" d="M366.8,420.8l-27-66.9L440.6,325l24.6,26.5L366.8,420.8z M343.8,355.9l24.3,60.3l92.6-65.2l-21-22.7
					L343.8,355.9z"/>
			</g>
			<g>
				<path class="st4" d="M200.6,400.2c0,0,56.4,21.8,51.2,242.9L457.2,596l25.2,104.1c0,0-225.4,97.5-283.9,95.9
					c-58.5-1.6-96.4-268.3-84.3-297.5c12-29.3,15.4-70.9,84.2-97L200.6,400.2z"/>
			</g>
			<polygon class="st3" points="468,601.3 521,581.5 507.8,661.4 466.5,663.5 457.4,606.9 468,601.3 			"/>
			<polygon class="st3" points="303.1,634.4 259.8,644.4 258.1,633.9 255.2,616.5 258.2,617.6 303.1,634.4 			"/>
			<path class="st4" d="M540,411.7l-33.9,241.2l-215.2-28.9l-25.4,106.1c0,0,291.5,70.7,349.1,51.5c57.6-19.3,30.5-284.6,15.3-318.3
				c-15.3-33.8-25.6-60.2-45.9-66.6C563.6,390.1,540,411.7,540,411.7L540,411.7z"/>
			<path class="st7" d="M407.1,308.6c-4.5,10.4-12.4,20-24.6,24.4c-26.9,9.7-60.6-10.5-78.6-23l-0.2-5.2c1.6,0.2,3.3,0.5,5.3,0.6
				c11.9,1,29.6,0.7,51.8-4.9c15.9-4,27.3-10.4,35.2-16.6l6-0.7L407.1,308.6z"/>
			<path class="st3" d="M420.2,184.8c4.9,62.5-24.6,115.9-70.5,119.5c-45.9,3.6-87.1-44.1-92-106.5c-4.9-62.5,28.2-116.1,74.1-119.7
				C377.7,74.4,415.2,122.3,420.2,184.8z"/>
			<path class="st8" d="M357.5,321.8c-43.9,6.5-86.9-38.9-96.2-101.2c-0.9-6-1.4-11.9-1.7-17.8c10.3,60.6,52.6,104.2,95.7,97.9
				c39.6-5.9,66.3-51.9,64.4-106.7c0.2,1,0.4,2.1,0.5,3.1C429.5,259.4,401.4,315.3,357.5,321.8z"/>
			<path class="st8" d="M292.3,46.7c0,0-0.5,46.4,11,53.1c11.6,6.7,24.8-5.5,35.3-7.3c10.5-1.8,31.7-3.6,46.6,9.3
				c14.9,13,27.7,50.8,27.7,50.8l3.3,12.7c0,0,8.7,2.2,9.6-9.7c0.9-11.9-1.5-61.9,0-66.7c1.5-4.9,0.9-9.8-4.6-15.3
				c-5.5-5.5-12.5-14.1-10.4-17.7c2.1-3.7,11.3-13.1,2.4-21.4c-8.9-8.2-51.6-13.4-59.6-6.1C345.7,35.7,316.1,7.6,292.3,46.7z"/>
			<path class="st8" d="M284.2,50.2c0,0-41.7,4.6-42.6,41.2c0,0-5,8.2-15.1,21.5c-10.1,13.3,1.8,35.7,4.6,49
				c2.7,13.3,8.4,24.3,8.1,28.3c-0.3,4,7.3,11.6,14.2,8.6c6.9-3.1,8.4-11.2,8.4-11.2s0.6-51.7,8.2-60.9c7.6-9.2,20.6-18.2,28.1-22
				c7.5-3.8,9.2-11,9.2-11.9c0-0.9-9.5-51-9.5-51L284.2,50.2z"/>
			<path class="st3" d="M275,207.2c5.7,11.8,3.6,24.7-4.7,28.7c-8.3,4.1-19.8-2.2-25.5-14c-5.7-11.8-3.6-24.7,4.7-28.7
				C257.8,189.1,269.3,195.4,275,207.2z"/>
			<path class="st3" d="M436.9,191.1c-1.5,13-10.2,22.8-19.4,21.7c-9.2-1.1-15.5-12.5-14-25.5c1.5-13,10.2-22.8,19.4-21.7
				C432.1,166.6,438.4,178,436.9,191.1z"/>
			<path class="st8" d="M311.1,167.5c-5.7,0.4-11.7,1.1-17.4,2.3c-5.7,1.2-11.3,2.9-15.6,5.5l-0.2,0.1c-2.2,1.4-5.2,0.7-6.6-1.5
				c-1.4-2.2-0.7-5.1,1.4-6.5c6.1-4,12.4-5.9,18.7-7.4c6.3-1.5,12.4-2.5,18.9-3.1c2.9-0.3,5.5,1.9,5.8,4.8c0.3,2.9-1.9,5.5-4.8,5.8
				c0,0-0.1,0-0.1,0L311.1,167.5z"/>
			<path class="st8" d="M306.2,190.1c0.7,4.6-1.9,8.7-5.7,9.3c-3.8,0.6-7.5-2.7-8.2-7.2c-0.7-4.6,1.9-8.7,5.7-9.3
				C301.9,182.4,305.6,185.6,306.2,190.1z"/>
			<path class="st8" d="M359.5,161.7c5.6-0.9,11.7-1.6,17.5-1.7c5.8-0.1,11.7,0.2,16.4,1.8l0.2,0.1c2.5,0.8,5.2-0.5,6-3
				c0.8-2.5-0.5-5.1-2.9-6c-6.9-2.5-13.4-2.9-19.9-3c-6.5,0-12.7,0.4-19.2,1.3c-2.9,0.4-5,3.1-4.6,6c0.4,2.9,3.1,5,6,4.6
				c0,0,0.1,0,0.1,0L359.5,161.7z"/>
			<path class="st8" d="M369.4,182.7c0.4,4.6,3.8,8,7.7,7.7c3.9-0.3,6.7-4.3,6.3-8.9c-0.4-4.6-3.8-8-7.7-7.7
				C371.8,174.1,369,178.1,369.4,182.7z"/>
			<path class="st8" d="M316.7,293.3c2.4,1.6,10.8-0.4,13.5-1c4.6-1,9.9-2.7,12.8-6.7c3.3-4.6,1.8-11.5,1.4-16.7
				c-0.1-1.5,0.1-5.6-1.1-6.8c0,0,12.1-1.8,12.2-1.8c-1.1,0.2,2.2,17.2,2.7,18.6c1.4,3.7,5.1,5.8,8.8,6.7c3.8,1,8,1.1,12,0.8
				c1-0.1,10.4-0.9,10.5-1.9c-0.1,0.8-0.7,1.5-1.3,2.1c-6.2,6.3-13,12-19.8,17.6c0,0-32.4,2.7-33.3,1.8
				C334.1,305.1,316.7,293.3,316.7,293.3z"/>
			<path class="st9" d="M377,248.3c-4.3,7.6-13.3,13.9-24.6,16.1c-15.1,2.9-29.2-2.2-34.6-11.7c0-0.1,0.1-0.3,0.3-0.4
				c1.9-1.6,3.9-3,6-4.2l44.4-5.3C371.9,243.4,375,244.8,377,248.3z"/>
			<g>
				<path class="st8" d="M313.8,299.3c-1-9.2-3.6-38.8,0.3-47.6v-0.6l1.3-1.5c2.4-2.1,4.6-3.6,6.9-4.8c7.2-4.2,16.2-6.6,25.8-7
					c5.3-0.2,10.6-0.1,15.6,0.5l1.2,0.2c1.4,0.2,2.8,0.3,4.2,0.6c3.6,0.8,8,2.3,11,7.3c3,5.2,4.3,10.8,5.6,16.3
					c0.3,1.4,0.7,2.8,1,4.2c2.1,8.5,2.8,15.6,2.1,22.5l-7.3-0.7c0.6-6,0-12.4-1.9-20c-0.4-1.4-0.7-2.9-1-4.3
					c-1.2-5.1-2.3-10-4.8-14.2c-1.2-2.1-2.9-3.1-6.2-3.8c-1.2-0.3-2.4-0.4-3.5-0.5l-1.3-0.2c-4.6-0.5-9.5-0.7-14.4-0.5
					c-8.5,0.3-16.3,2.4-22.5,6c-1.8,1-3.5,2.1-5.1,3.5l-0.1,0.1c-2.1,3.3-1.5,25.3,0.4,43.8L313.8,299.3z"/>
			</g>
			<g>
				<path class="st8" d="M334.8,222.1c-0.4,0-0.7-0.2-0.9-0.5c-0.3-0.5-0.1-1.1,0.4-1.4l7.9-4.2c2.5-1.3,3.9-3.7,3.6-6.2l-4-27.8
					c-0.1-0.5,0.3-1.1,0.8-1.1c0.5-0.1,1.1,0.3,1.1,0.8l4,27.8c0.5,3.2-1.3,6.5-4.6,8.2l-7.9,4.2
					C335.1,222.1,334.9,222.1,334.8,222.1z"/>
			</g>
			<g>
				<path class="st10" d="M379.8,1046.5c-1.1,0-2-0.9-2-2c-0.8-33.1-2.8-86.9-5-92.7c-7.3-4.3-43.2-15.5-61.4-20.9
					c-1.1-0.3-1.7-1.4-1.4-2.5c0.3-1.1,1.4-1.7,2.5-1.4c2.2,0.7,54.3,16.1,62.8,21.6c1.3,0.9,3,1.9,4.9,49.5c1,23,1.5,46,1.5,46.2
					C381.8,1045.6,380.9,1046.5,379.8,1046.5C379.8,1046.5,379.8,1046.5,379.8,1046.5z M372.7,951.7L372.7,951.7L372.7,951.7z"/>
			</g>
			<g>
				<path class="st6" d="M257.2,646.4c-0.4,0-0.8-0.1-1.2-0.4c-0.5-0.4-0.8-0.9-0.8-1.5c-0.3-6-8.3-100.9-8.4-101.9
					c-0.1-1.1,0.7-2.1,1.8-2.2c1.1-0.1,2.1,0.7,2.2,1.8c0.3,3.6,7.1,83.6,8.2,99.6c11.2-3,59.4-15.8,78.6-19.6
					c1.1-0.2,2.1,0.5,2.4,1.6c0.2,1.1-0.5,2.1-1.6,2.3c-21.6,4.3-80.1,20-80.7,20.2C257.6,646.4,257.4,646.4,257.2,646.4z"/>
			</g>
			<g>
				<path class="st6" d="M204.8,793.9c-6.3,0-12.1-0.7-16.9-2.2c-28.7-9.4-48.3-86.5-49.1-89.8c-0.3-1.1,0.4-2.2,1.5-2.4
					c1.1-0.3,2.2,0.4,2.4,1.5c0.2,0.8,19.9,78.2,46.5,87c27,8.8,92.1-14.2,92.8-14.5c1-0.4,2.2,0.2,2.6,1.2c0.4,1-0.2,2.2-1.2,2.6
					C281,778.1,236.2,793.9,204.8,793.9z"/>
			</g>
			<g>
				<path class="st6" d="M361.6,748.7c-0.7,0-1.4-0.4-1.8-1.1c-0.5-1-0.1-2.2,0.9-2.7l60.9-30.5c1-0.5,2.2-0.1,2.7,0.9
					c0.5,1,0.1,2.2-0.9,2.7l-60.9,30.5C362.2,748.6,361.9,748.7,361.6,748.7z"/>
			</g>
			<g>
				<path class="st6" d="M504.1,653.9c-0.1,0-0.2,0-0.3,0c-1.1-0.2-1.8-1.2-1.7-2.3L519,546.6c0.2-1.1,1.2-1.8,2.3-1.7
					c1.1,0.2,1.8,1.2,1.7,2.3l-16.8,104.9C506,653.2,505.1,653.9,504.1,653.9z"/>
			</g>
			<g>
				<path class="st6" d="M533.7,783.4c-0.1,0-0.2,0-0.3,0l-100.8-15.6c-1.1-0.2-1.8-1.2-1.7-2.3c0.2-1.1,1.2-1.8,2.3-1.7L534,779.4
					c1.1,0.2,1.8,1.2,1.7,2.3C535.5,782.7,534.7,783.4,533.7,783.4z"/>
			</g>
		</g>
		<g>
			<g>
				<g>
					<path class="st11" d="M736.8,204.1c0,0,24.8-9.2,47.2,2.3c23.8,12.2,36,24.4,41.4,126.7c5.5,102.4,4.9,153.6,5.5,161.5
						c0.6,7.9-195,5.5-195,5.5V245.4L736.8,204.1z"/>
				</g>
				<g>
					<path class="st12" d="M638,495.6c0,0-99.6,10.8-97.7,182.5c1.9,171.6-34.7,159.6-4.8,281.8c0,0,67.7,13.7,106.4-14L638,608.4
						V495.6L638,495.6z"/>
				</g>
				<g>
					<path class="st13" d="M880.8,1084.2l0.1-1.2H561.5c3.2-19.1,10.5-47.3,19.5-78.4c0.8-2.9,1.7-5.8,2.5-8.7l0-0.2
						c3.2-10.8,6.5-21.8,9.9-32.9l0.2-0.5c15.5-50.4,32.4-101,41.7-128.3c0,0,0,0,0,0c2.2-6.4,3.9-11.5,5.2-15.1v0
						c1.2-3.5,1.9-5.4,1.9-5.4h207.8c0.6,1.7,1.7,6.2,3.1,12.8v0c0.4,1.6,0.7,3.4,1.1,5.3c4.1,19.8,10.4,52.8,17.1,88.6c0,0,0,0,0,0
						c0.5,2.8,1,5.5,1.6,8.4c3,16.1,6,32.5,8.9,48.3c0.3,1.9,0.7,3.7,1,5.5c0.7,4,1.5,7.9,2.2,11.8c0.1,0.3,0.1,0.7,0.2,1
						c0.7,3.6,1.3,7.2,2,10.8c0.6,3.4,1.2,6.7,1.8,10c6.4,35.4,11.3,62.4,12.1,67c0.1,0.5,0.1,0.7,0.1,0.7L880.8,1084.2z"/>
				</g>
				<g>
					<path class="st12" d="M642.6,499.6c0,0-45.2,13.1-39.1,108c6.1,94.9-45.1,212.6,28.6,226.3l203.2-2.5
						c19.2-0.2,34.6-15.8,34.6-35v-299l-42.6-7.4L642.6,499.6L642.6,499.6z"/>
				</g>
				<g>
					<polygon class="st3" points="766.9,465.3 693.4,467.6 695.9,404.4 763.2,404.4 					"/>
				</g>
				<g>
					<path class="st12" d="M687,456h93.9c6.1,0,11.3,4.5,12.5,10.8l5.3,27.1l-129.1,5l4.8-31.5C675.4,460.8,680.7,456,687,456z"/>
				</g>
				<g>
					<path class="st7" d="M764.6,427.3c-4.2,8.9-11.8,17.7-22.7,18.9c-18.7,2.1-37-18.7-46-30.2c-1.8-2.3-2.7-4.2-3.7-5.5
						c1.5,0.9,3.9,2.5,8.3,4.1c7.2,2.7,18.3,5.5,33,5.5c10.7,0,18.8-2.6,24.7-5.5l5.7-0.1L764.6,427.3z"/>
				</g>
				<g>
					<g>
						<path class="st3" d="M796.2,330.2c1.6,50.8-28.7,92.9-67.6,94.1c-38.9,1.2-71.7-38.9-73.3-89.7c-1.6-50.8,28.7-92.9,67.6-94.1
							C761.8,239.3,794.6,279.5,796.2,330.2z"/>
					</g>
				</g>
				<g>
					<path class="st3" d="M812.3,335.8c0,10.5-9.1,20.7-16.6,20.7c-7.5,0-13.6-8.5-13.6-19s10-19,17.5-19
						C807,318.4,812.3,325.3,812.3,335.8z"/>
				</g>
				<g>
					<g>
						<path d="M770.3,303c-0.6,0-1.1-0.1-1.7-0.3c-15.1-5-25.1-0.5-25.5-0.3c-2.7,1.3-6,0.1-7.3-2.6c-1.3-2.7-0.2-6,2.5-7.3
							c0.6-0.3,14.1-6.7,33.7-0.3c2.9,0.9,4.4,4,3.5,6.9C774.7,301.5,772.6,303,770.3,303z"/>
					</g>
				</g>
				<g>
					<g>
						<path d="M665.2,311.6c-1.8,0-3.5-0.8-4.5-2.4c-1.7-2.5-1.1-5.9,1.4-7.6c0.5-0.4,12.9-8.8,33.2-5.4c3,0.5,5,3.3,4.5,6.3
							c-0.5,3-3.3,5-6.3,4.5c-15.7-2.6-24.9,3.4-25.2,3.6C667.3,311.3,666.2,311.6,665.2,311.6z"/>
					</g>
				</g>
				<g>
					<g>
						<path d="M725.5,354.9H720c-0.5,0-0.9-0.4-0.9-0.9v-20.6c0-0.5,0.4-0.9,0.9-0.9c0.5,0,0.9,0.4,0.9,0.9v19.7h4.6
							c0.5,0,0.9,0.4,0.9,0.9C726.4,354.5,726,354.9,725.5,354.9z"/>
					</g>
				</g>
				<g>
					<path d="M690.7,329c0,4.2-2.7,7.7-6.1,7.7c-3.4,0-6.1-3.4-6.1-7.7c0-4.2,2.7-7.7,6.1-7.7C688,321.3,690.7,324.7,690.7,329z"/>
				</g>
				<g>
					<path d="M761.6,321.3c0,4.2-2.7,7.7-6.1,7.7c-3.4,0-6.1-3.4-6.1-7.7c0-4.2,2.7-7.7,6.1-7.7
						C758.8,313.7,761.6,317.1,761.6,321.3z"/>
				</g>
				<g>
					<path class="st9" d="M703.6,380.3c2.1,9.4,13.1,15.5,25.4,13.8c10.6-1.5,18.8-8.5,20.3-16.6L703.6,380.3z"/>
				</g>
				<g>
					<path class="st11" d="M734.9,202.1c19.1,38.4-27,52.1-44.5,72.9c-19.1,22.7-32.3,67.5-31.3,97.3
						c2.8,81.4,30.3,146.6-23.3,221.1c11.1-45.2-5.8-79.8-19.9-120.8c-15.5-45.1-15.2-91.4-9.9-138.3c4-35.3,5.3-92.5,31.9-119.2
						C653.2,199.7,722.7,177.7,734.9,202.1z"/>
				</g>
				<g>
					<path class="st11" d="M730.5,240.8c0,0,8.6,15,27.7,24.3c27.1,13.1,32.9,56.2,32.9,56.2l11-6l-21.3-80.2L730.5,240.8z"/>
				</g>
				<g>
					<path class="st3" d="M887.5,995l-13.5-4.4c0,0-1.7-2.4,0.2-5.4c1.9-3.1,6.3-3,8.4-2.7c2.2,0.2,6.6,1.9,6.6,1.9
						s5.3-6.1,10.7-8.8c0,0-1.4-7.4,1.1-12.3c0,0-5.6-5.7-4.9-14c0,0-0.6-1-1.4-2.6c-0.7,0.3-2.1,0.9-3,1.4
						c-1.2,0.7-1.3,4.7-0.9,7.1c0.5,2.4,1,10.1,0.3,14.5c-0.8,4.4-4.1,7.4-9.1,7.2c-5-0.2-5.2-5.1-6.1-9.4c-1-4.3-0.6-8.4-0.2-16.2
						c0.3-7.8-1.7-11.7-3.2-19.1c-1.5-7.4-0.9-13.3-0.9-13.3c0.7-6.2,3.1-13.6,3.8-15.5c-0.7-4.5-0.7-8.6,0.8-11.7
						c2.5-5.6-5.7-46.4-5.7-46.4l41.7,4.7l-3.9,46.2c0,0,13.1,27.3,17.4,39.6c4.3,12.3,7.5,18.8,6.9,24.9c0,0-6.3,24.6-12.8,30
						c-6.7,5.6-21.5,15.3-25.8,15.6c-4.7,0.4-17.1-1.3-17.1-1.3s-2.8-0.1-4.8-1.3c0,0-2,0-0.5-4.1C873,995.3,877.3,996.4,887.5,995z
						"/>
				</g>
				<g>
					<path class="st12" d="M847,493.2c0,0,58.4-4.2,78.9,77.7c20.6,81.9,18.4,112.6,17.3,164.7c-1.1,52.1,59.7,155.1,4.5,221.4
						c0,0-46.7-23.3-90-32.1c0,0-7.6-8.3-3.2-94.3C858.8,744.5,847,493.2,847,493.2L847,493.2z"/>
				</g>
				<g>
					<path class="st7" d="M593.6,962.2c0,0-17.3,1.1-20.7,1c0,0,0.2,24.2,10.4,32.4l0.2,0.2L593.6,962.2z"/>
				</g>
			</g>
			<g>
				<path class="st6" d="M622.1,789c-1,0-1.9-0.8-2-1.8c-0.1-0.8-2-20,2.4-40.1c2.2-10.3,0.7-16.2-1.6-25.2
					c-2.1-8-4.6-17.9-5.7-34.7c-2.3-36.2,11.2-56.6,11.8-57.5c0.6-0.9,1.9-1.2,2.8-0.5c0.9,0.6,1.2,1.9,0.5,2.8
					c-0.2,0.3-13.3,20.3-11.1,55c1,16.4,3.5,26.2,5.5,34c2.4,9.2,4.1,15.8,1.6,27.1c-4.2,19.5-2.3,38.7-2.3,38.9
					c0.1,1.1-0.7,2.1-1.8,2.2C622.2,789,622.1,789,622.1,789z"/>
			</g>
			<g>
				<path class="st6" d="M848.6,819.8c-0.1,0-0.1,0-0.2,0c-1.1-0.1-1.9-1.1-1.8-2.2c1.6-15.8,2.9-30,1.4-44
					c-0.8-7.4-1.7-14.7-2.6-21.9c-2-15.9-4-32.3-4.4-48.9c0-1.1,0.8-2,1.9-2.1c1.1-0.1,2,0.8,2.1,1.9c0.4,16.5,2.3,32,4.4,48.5
					c0.9,7.2,1.8,14.6,2.6,22c1.5,14.4,0.2,28.8-1.4,44.8C850.5,819,849.6,819.8,848.6,819.8z"/>
			</g>
			<g>
				<path class="st14" d="M752.8,835.9H632.1c-1.1,0-2-0.9-2-2s0.9-2,2-2h120.6c1.1,0,2,0.9,2,2S753.9,835.9,752.8,835.9z"/>
			</g>
		</g>
	</g>
</g>
<path class="st3" d="M420.2,184.8c4.9,62.5-24.6,115.9-70.5,119.5c-45.9,3.6-87.1-44.1-92-106.5c-4.9-62.5,28.2-116.1,74.1-119.7
	C377.7,74.4,415.2,122.3,420.2,184.8z"/>
<path class="st8" d="M357.5,321.8c-43.9,6.5-86.9-38.9-96.2-101.2c-0.9-6-1.4-11.9-1.7-17.8c10.3,60.6,52.6,104.2,95.7,97.9
	c39.6-5.9,66.3-51.9,64.4-106.7c0.2,1,0.4,2.1,0.5,3.1C429.5,259.4,401.4,315.3,357.5,321.8z"/>
<path class="st8" d="M292.3,46.7c0,0-0.5,46.4,11,53.1c11.6,6.7,24.8-5.5,35.3-7.3c10.5-1.8,31.7-3.6,46.6,9.3
	c14.9,13,27.7,50.8,27.7,50.8l3.3,12.7c0,0,8.7,2.2,9.6-9.7c0.9-11.9-1.5-61.9,0-66.7c1.5-4.9,0.9-9.8-4.6-15.3
	c-5.5-5.5-12.5-14.1-10.4-17.7c2.1-3.7,11.3-13.1,2.4-21.4c-8.9-8.2-51.6-13.4-59.6-6.1C345.7,35.7,316.1,7.6,292.3,46.7z"/>
<path class="st8" d="M284.2,50.2c0,0-41.7,4.6-42.6,41.2c0,0-5,8.2-15.1,21.5c-10.1,13.3,1.8,35.7,4.6,49
	c2.7,13.3,8.4,24.3,8.1,28.3c-0.3,4,7.3,11.6,14.2,8.6c6.9-3.1,8.4-11.2,8.4-11.2s0.6-51.7,8.2-60.9c7.6-9.2,20.6-18.2,28.1-22
	c7.5-3.8,9.2-11,9.2-11.9c0-0.9-9.5-51-9.5-51L284.2,50.2z"/>
<path class="st3" d="M275,207.2c5.7,11.8,3.6,24.7-4.7,28.7c-8.3,4.1-19.8-2.2-25.5-14c-5.7-11.8-3.6-24.7,4.7-28.7
	C257.8,189.1,269.3,195.4,275,207.2z"/>
<path class="st3" d="M436.9,191.1c-1.5,13-10.2,22.8-19.4,21.7c-9.2-1.1-15.5-12.5-14-25.5c1.5-13,10.2-22.8,19.4-21.7
	C432.1,166.6,438.4,178,436.9,191.1z"/>
<path class="st8" d="M311.1,167.5c-5.7,0.4-11.7,1.1-17.4,2.3c-5.7,1.2-11.3,2.9-15.6,5.5l-0.2,0.1c-2.2,1.4-5.2,0.7-6.6-1.5
	c-1.4-2.2-0.7-5.1,1.4-6.5c6.1-4,12.4-5.9,18.7-7.4c6.3-1.5,12.4-2.5,18.9-3.1c2.9-0.3,5.5,1.9,5.8,4.8c0.3,2.9-1.9,5.5-4.8,5.8
	c0,0-0.1,0-0.1,0L311.1,167.5z"/>
<path class="st8" d="M306.2,190.1c0.7,4.6-1.9,8.7-5.7,9.3c-3.8,0.6-7.5-2.7-8.2-7.2c-0.7-4.6,1.9-8.7,5.7-9.3
	C301.9,182.4,305.6,185.6,306.2,190.1z"/>
<path class="st8" d="M359.5,161.7c5.6-0.9,11.7-1.6,17.5-1.7c5.8-0.1,11.7,0.2,16.4,1.8l0.2,0.1c2.5,0.8,5.2-0.5,6-3
	c0.8-2.5-0.5-5.1-2.9-6c-6.9-2.5-13.4-2.9-19.9-3c-6.5,0-12.7,0.4-19.2,1.3c-2.9,0.4-5,3.1-4.6,6c0.4,2.9,3.1,5,6,4.6
	c0,0,0.1,0,0.1,0L359.5,161.7z"/>
<path class="st8" d="M369.4,182.7c0.4,4.6,3.8,8,7.7,7.7c3.9-0.3,6.7-4.3,6.3-8.9c-0.4-4.6-3.8-8-7.7-7.7
	C371.8,174.1,369,178.1,369.4,182.7z"/>
<path class="st8" d="M316.7,293.3c2.4,1.6,10.8-0.4,13.5-1c4.6-1,9.9-2.7,12.8-6.7c3.3-4.6,1.8-11.5,1.4-16.7
	c-0.1-1.5,0.1-5.6-1.1-6.8c0,0,12.1-1.8,12.2-1.8c-1.1,0.2,2.2,17.2,2.7,18.6c1.4,3.7,5.1,5.8,8.8,6.7c3.8,1,8,1.1,12,0.8
	c1-0.1,10.4-0.9,10.5-1.9c-0.1,0.8-0.7,1.5-1.3,2.1c-6.2,6.3-13,12-19.8,17.6c0,0-32.4,2.7-33.3,1.8
	C334.1,305.1,316.7,293.3,316.7,293.3z"/>
<path class="st9" d="M377,248.3c-4.3,7.6-13.3,13.9-24.6,16.1c-15.1,2.9-29.2-2.2-34.6-11.7c0-0.1,0.1-0.3,0.3-0.4
	c1.9-1.6,3.9-3,6-4.2l44.4-5.3C371.9,243.4,375,244.8,377,248.3z"/>
<g>
	<path class="st8" d="M313.8,299.3c-1-9.2-3.6-38.8,0.3-47.6v-0.6l1.3-1.5c2.4-2.1,4.6-3.6,6.9-4.8c7.2-4.2,16.2-6.6,25.8-7
		c5.3-0.2,10.6-0.1,15.6,0.5l1.2,0.2c1.4,0.2,2.8,0.3,4.2,0.6c3.6,0.8,8,2.3,11,7.3c3,5.2,4.3,10.8,5.6,16.3c0.3,1.4,0.7,2.8,1,4.2
		c2.1,8.5,2.8,15.6,2.1,22.5l-7.3-0.7c0.6-6,0-12.4-1.9-20c-0.4-1.4-0.7-2.9-1-4.3c-1.2-5.1-2.3-10-4.8-14.2
		c-1.2-2.1-2.9-3.1-6.2-3.8c-1.2-0.3-2.4-0.4-3.5-0.5l-1.3-0.2c-4.6-0.5-9.5-0.7-14.4-0.5c-8.5,0.3-16.3,2.4-22.5,6
		c-1.8,1-3.5,2.1-5.1,3.5l-0.1,0.1c-2.1,3.3-1.5,25.3,0.4,43.8L313.8,299.3z"/>
</g>
<g>
	<path class="st8" d="M334.8,222.1c-0.4,0-0.7-0.2-0.9-0.5c-0.3-0.5-0.1-1.1,0.4-1.4l7.9-4.2c2.5-1.3,3.9-3.7,3.6-6.2l-4-27.8
		c-0.1-0.5,0.3-1.1,0.8-1.1c0.5-0.1,1.1,0.3,1.1,0.8l4,27.8c0.5,3.2-1.3,6.5-4.6,8.2l-7.9,4.2C335.1,222.1,334.9,222.1,334.8,222.1z
		"/>
</g>
</svg>
