<svg width="88" height="88" viewBox="0 0 88 88" fill="none" xmlns="http://www.w3.org/2000/svg">
<path d="M79.75 18.1895C79.75 16.7891 79.3627 15.6867 78.588 14.912C77.8133 14.1373 76.7109 13.75 75.3254 13.75C70.9901 13.75 64.0031 17.6234 61.396 20.2305L54.0365 27.59L20.1292 21.5862L19.6823 21.5415C18.9821 21.5415 18.3266 21.8097 17.835 22.3013L14.5277 25.6235C13.9317 26.2045 13.6487 27.0537 13.7828 27.888C13.9168 28.7073 14.4383 29.4224 15.1981 29.8098L40.4944 42.458L30.9599 54.6741L21.768 53.0503L21.3359 53.0056C20.6357 53.0056 19.9653 53.2737 19.4886 53.7654L17.0007 56.2533C16.4197 56.8343 16.1515 57.6686 16.2558 58.5028C16.3899 59.3222 16.8964 60.0224 17.5966 60.3949L24.4943 64.1044L23.1237 66.8605C22.6171 67.8586 22.8257 69.0802 23.6302 69.8847C24.4198 70.6594 25.6861 70.8531 26.6395 70.3614L29.3956 68.9909L33.1052 75.8885C33.4925 76.6036 34.2076 77.1101 35.0419 77.2293L35.3994 77.2591C36.0996 77.2591 36.7551 76.991 37.2467 76.4993L39.7198 74.0263C40.3306 73.4304 40.5987 72.5663 40.4497 71.7171L38.8259 62.5401L51.0271 53.0056L63.6753 78.3168C64.0478 79.0617 64.7629 79.5832 65.4631 79.6874L66.0292 79.7619C66.7145 79.7619 67.37 79.4938 67.8765 79.0021L71.1838 75.6948C71.7797 75.0989 72.0479 74.2349 71.9138 73.4006L65.9249 39.4933L73.2844 32.1338C75.8915 29.5118 79.75 22.5099 79.75 18.1895ZM62.0962 38.2568L68.3234 73.5049L66.3122 75.531L52.2935 47.5083L34.9674 61.0504L36.8743 71.8512L35.6527 73.0728L30.8854 64.2683L27.6079 65.907L29.2466 62.6295L20.4272 57.8771L21.6488 56.6555L32.4496 58.5624L45.9917 41.2363L17.9839 27.2325L20.01 25.2064L55.2581 31.4336L63.9286 22.7631C66.2377 20.4391 72.3011 17.3255 75.3254 17.3255C75.8766 17.3255 76.0703 17.4446 76.0703 17.4446C77.0386 18.7258 73.925 26.4429 70.7667 29.6012L62.0962 38.2568Z" fill="black"/>
</svg>
