<svg xmlns="http://www.w3.org/2000/svg" xmlns:xlink="http://www.w3.org/1999/xlink" viewBox="0 0 303.5 85.13"><defs><linearGradient id="Degradado_sin_nombre" x1="-15.5" y1="116.34" x2="-14.5" y2="116.34" gradientTransform="matrix(0 56.27 56.27 0 -6519.75 870.96)" gradientUnits="userSpaceOnUse"><stop offset="0" stop-color="#43774f"/><stop offset=".6" stop-color="#9fc8ad"/><stop offset="1" stop-color="#549462"/></linearGradient><linearGradient id="Degradado_sin_nombre_2" x1="-15.5" y1="116.34" x2="-14.5" y2="116.34" gradientTransform="matrix(0 63.24 63.24 0 -7329.83 966.95)" gradientUnits="userSpaceOnUse"><stop offset="0" stop-color="#549462"/><stop offset=".3" stop-color="#9fc8ad"/><stop offset=".55" stop-color="#549462"/><stop offset=".84" stop-color="#43774f"/><stop offset=".89" stop-color="#488057"/><stop offset=".98" stop-color="#56986e"/><stop offset="1" stop-color="#599d73"/></linearGradient><linearGradient id="Degradado_sin_nombre_6" x1="-15.5" y1="116.34" x2="-14.5" y2="116.34" gradientTransform="matrix(0 -40.92 -40.92 0 4797.86 -587.81)" gradientUnits="userSpaceOnUse"><stop offset="0" stop-color="#5ea77e"/><stop offset="1" stop-color="#549462"/></linearGradient><linearGradient id="Degradado_sin_nombre_6-2" x1="-15.5" y1="116.34" x2="-14.5" y2="116.34" gradientTransform="matrix(0 -40.93 -40.93 0 4773.88 -587.99)" xlink:href="#Degradado_sin_nombre_6"/><linearGradient id="Degradado_sin_nombre_6-3" x1="-15.5" y1="116.34" x2="-14.5" y2="116.34" gradientTransform="matrix(0 -40.91 -40.91 0 4778.89 -587.62)" xlink:href="#Degradado_sin_nombre_6"/><linearGradient id="Degradado_sin_nombre_6-4" x1="-15.5" y1="116.34" x2="-14.5" y2="116.34" gradientTransform="matrix(0 -40.92 -40.92 0 4787.24 -587.81)" xlink:href="#Degradado_sin_nombre_6"/><clipPath id="clip-path"><path class="cls-1" d="M.39 0H53.7v53.31H.39z"/></clipPath><clipPath id="clip-path-2"><path class="cls-1" d="M4.55.94c-1 0-1.71.87-1.87 2.09 0 0-1.33 7-1.33 21.86a200.46 200.46 0 001.33 24.59c.13 1.18.84 2.1 1.87 2.1H50.7a1.94 1.94 0 001.87-2.1s-.52-11.39-.52-22.48.52-24 .52-24A2 2 0 0050.7.94z"/></clipPath><clipPath id="clip-path-3"><path class="cls-1" d="M30.47 6.29c1.45.61 7.3 3.77 8 4.78a49.21 49.21 0 00-11.83 3.4l-.18.37A81.37 81.37 0 0138 13.51a36.22 36.22 0 01-3.93 4.72l-.17.4c3.57-2.15 4.58-2.3 7.88-4.23 1.24 1.84 1.54 6.08 1.59 9.45 1.07-2.14 2.37-10.18 1.83-11.63 2.19-1.5 2.49-2.71 2.49-2.71a20.31 20.31 0 00-4.2.55 38.28 38.28 0 00-12.85-4.14z"/></clipPath><clipPath id="clip-path-4"><path class="cls-1" d="M8.63 31.27a22.3 22.3 0 000 6.73 22.92 22.92 0 00-2.91.72l-.17.36a36.38 36.38 0 004.1 2.25 13.92 13.92 0 003.12 4.42l.17-.37a8 8 0 01-.46-3 19.54 19.54 0 005.24.84l.17-.38A14 14 0 0113 40.29a14 14 0 011.79-3.44l.17-.37c-1.5.22-2.87.78-4.17 1-1-1.8-1.42-4.27-1.94-6.62z"/></clipPath><clipPath id="clip-path-5"><path class="cls-1" d="M17.56 19a28.79 28.79 0 00-3-.05 29.24 29.24 0 00-5.07.55l-.16.37c1.81.08 4.3.56 5.25 1.52a28.45 28.45 0 00-5.48 7.97s5-4.65 7.1-5.8c0 0 1.12 3.74 1.9 5.61l.17-.37a31.36 31.36 0 011.67-6.47 6.23 6.23 0 011.91-.33 29.17 29.17 0 018.09.52l.17-.36a29 29 0 00-8.95-2.79h.13a19.72 19.72 0 011.27-2.91 14.75 14.75 0 00-5 2.6"/></clipPath><clipPath id="clip-path-6"><path class="cls-1" d="M27.93 42c-.06-.73-.11-1.35-.15-2.16A45.58 45.58 0 0125.24 43a11.84 11.84 0 01-3.2.26h-1.18l-.17.37a11.24 11.24 0 002.95 1 23 23 0 01-2.71 1.85l-.17.37a21.32 21.32 0 005.49-2.07 9.91 9.91 0 002.22-.13l.18-.37c-.11-.38-.44-.61-.54-1.13A38.64 38.64 0 0032 39.6l.18-.38A32.77 32.77 0 0127.93 42"/></clipPath><style>.cls-1{fill:none}</style></defs><g id="Capa_2" data-name="Capa 2"><g id="Capa_1-2" data-name="Capa 1"><g clip-path="url(#clip-path)"><path fill="url(#Degradado_sin_nombre)" d="M.39 0H53.7v53.31H.39z"/></g><g clip-path="url(#clip-path-2)"><path fill="url(#Degradado_sin_nombre_2)" d="M1.35.94h51.24v50.64H1.35z"/></g><g clip-path="url(#clip-path-3)"><path fill="url(#Degradado_sin_nombre_6)" d="M26.48 5.92h21.21v17.93H26.48z"/></g><g clip-path="url(#clip-path-4)"><path fill="url(#Degradado_sin_nombre_6-2)" d="M5.53 30.89h12.33v14.86H5.53z"/></g><g clip-path="url(#clip-path-5)"><path fill="url(#Degradado_sin_nombre_6-3)" d="M9.1 16.44h21.01v12.91H9.1z"/></g><g clip-path="url(#clip-path-6)"><path fill="url(#Degradado_sin_nombre_6-4)" d="M20.69 39.22h11.52v7.64H20.69z"/></g><path d="M42 14c-3.29 1.93-4.3 2.1-7.88 4.24a36.41 36.41 0 004.1-5.12 81.4 81.4 0 00-11.52 1.33 45.84 45.84 0 0112-3.78c-.73-1-6.58-4.16-8-4.77 4.63.36 10.29 2.09 13 3.76a22.12 22.12 0 014.21-.53 5.59 5.59 0 01-2.51 2.7c.55 1.46-.76 9.49-1.83 11.62 0-3.36-.34-7.6-1.59-9.45M17.87 42.84a12.88 12.88 0 01-4.75-2.92 14.73 14.73 0 011.79-3.44c-1.54.23-2.67.4-4 .65a20.54 20.54 0 01-2.11-6.24 22.7 22.7 0 000 6.74 20.11 20.11 0 00-3.1 1.08A37.27 37.27 0 009.8 41a13.87 13.87 0 003.12 4.41 8.09 8.09 0 01-.28-3.41 19.41 19.41 0 005.23.83m4.92-26.71A11.07 11.07 0 0021.33 19a24.28 24.28 0 018.78 3.16 28.38 28.38 0 00-8.11-.54 6.51 6.51 0 00-1.91.33 34.16 34.16 0 00-1.83 6.85c-.78-1.87-1.9-5.62-1.9-5.62C14.23 24.33 9.29 29 9.29 29a28.22 28.22 0 015.47-7.92c-.95-1-3.44-1.44-5.26-1.52a20.11 20.11 0 015.24-.92 25.64 25.64 0 013 .05 15.05 15.05 0 015.06-2.55M28 39.47a39.07 39.07 0 01-2.56 3.15 15.64 15.64 0 01-4.54.63 11 11 0 002.95 1 20.1 20.1 0 01-2.88 2.22 21 21 0 005.49-2.06 10.57 10.57 0 002.23-.14 12.38 12.38 0 01-.37-1.51 36.64 36.64 0 003.93-3.56 26.34 26.34 0 01-4.11 2.4c-.14-.7-.14-1.32-.14-2.13" fill="#fff"/><path d="M6.36 71c-.13-1.14-.42-2.26-2.07-2.26-1 0-1.9.5-1.9 1.64 0 2.7 6.1 2.68 6.1 6.55 0 2.47-1.71 3.71-4.2 3.71A5.69 5.69 0 010 78.75l1-1.56a4.57 4.57 0 003.37 1.56c1.17 0 2-.46 2-1.58C6.38 74.76.3 74.64.3 70.54c0-2.51 1.88-3.69 4-3.69a3.73 3.73 0 014 3.84zm6.08 4.92c.09 2.33 1 3 2.47 3a4.51 4.51 0 002.64-1l.32 1.62a5.93 5.93 0 01-3.38 1.1c-2.51 0-4.22-1.5-4.22-5.29s1.5-5.3 4.09-5.3S18 71.77 18 74.3v1.62zM16 74.3c0-1.71-.5-2.51-1.69-2.51s-1.77.74-1.86 2.51zm12.14-2.13l-1.39-.07a2.8 2.8 0 01.5 1.84 3.57 3.57 0 01-3.69 3.84 3 3 0 01-1-.12c-.38.27-.63.44-.63.78 0 1.07 6.12-.19 6.12 3.44 0 2.19-2.3 3.25-4.79 3.25s-4.16-.91-4.16-2.53a2.76 2.76 0 011.73-2.39 1.48 1.48 0 01-.83-1.42A2.28 2.28 0 0121.21 77a3.71 3.71 0 01-1.37-3.1 3.56 3.56 0 013.74-3.84 4.31 4.31 0 011.45.25h3.11zm-7.06 10.21c0 .91 1.08 1.14 2.26 1.14S26 83 26 82.13c0-1.24-1.7-1.22-3.26-1.43-.82.38-1.67 1-1.67 1.68m2.48-10.64c-1.1 0-1.78.62-1.78 2.18s.68 2.19 1.78 2.19 1.79-.63 1.79-2.19-.68-2.18-1.79-2.18m8.03-1.43v6.92a1.52 1.52 0 001.71 1.69A1.52 1.52 0 0035 77.23v-6.92h2.07v6.86c0 2.36-1.6 3.48-3.78 3.48s-3.78-1.12-3.78-3.48v-6.86zm10.08 0v1a3.41 3.41 0 012.56-1.24c1.5 0 1.79 1.37 1.79 2.85l-1.77.21c0-.61-.07-1-.64-1a2.8 2.8 0 00-1.73 1.06v7.21H39.8V70.31zm13.43 5.09c0 3.5-1.45 5.25-4.16 5.25s-4.18-1.52-4.18-5.28 1.46-5.31 4.18-5.31 4.16 1.53 4.16 5.34m-6.21 0c0 2.73.68 3.55 2 3.55s2-.82 2-3.52-.66-3.61-2-3.61-2 .8-2 3.58m12.87-2.05c-.07-.89-.47-1.56-1.56-1.56-.79 0-1.4.35-1.4 1.11 0 1.91 4.71 1.74 4.71 4.8 0 1.83-1.29 3-3.46 3a5.09 5.09 0 01-3.55-1.33l.68-1.52A4.15 4.15 0 0060 78.92c.79 0 1.46-.3 1.46-1.1 0-1.6-4.66-1.58-4.66-4.79 0-1.79 1.28-3 3.39-3 2.33 0 3.3 1.35 3.3 3zM73 80.17v4.14l-2 .46V70.31h1.86v.91a4.59 4.59 0 013-1.16c1.71 0 3.37 1 3.37 5.19 0 3.92-1.79 5.4-4.13 5.4a5 5 0 01-2-.48m0-1.82a3.31 3.31 0 001.79.57C76 78.92 77 78 77 75.25s-.93-3.32-1.9-3.32a3.55 3.55 0 00-2 .7zm12.96-5.23c0-1-.63-1.33-1.48-1.33a1.5 1.5 0 00-1.64 1.56l-1.82-.19c.06-2 1.69-3.1 3.59-3.1 2.09 0 3.42 1.07 3.42 2.87v5.27c0 .47.22.68.55.68a1.7 1.7 0 001-.4L89.8 80a2.5 2.5 0 01-1.75.67 1.53 1.53 0 01-1.69-1.41 3.7 3.7 0 01-2.9 1.41 2.5 2.5 0 01-2.7-2.74c0-2.58 2.47-3.65 5.3-3.63zm0 2.72c-1.77-.06-3.25.59-3.25 1.88 0 .78.34 1.2 1.14 1.2a3.06 3.06 0 002.11-1.12zM93 70.31v1a3.43 3.43 0 012.57-1.24c1.5 0 1.78 1.37 1.78 2.85l-1.76.21c0-.61-.08-1-.65-1a2.8 2.8 0 00-1.73 1.06v7.21h-2.03V70.31zm10.62 2.81c0-1-.62-1.33-1.48-1.33a1.5 1.5 0 00-1.63 1.56l-1.83-.19c.06-2 1.69-3.1 3.59-3.1 2.09 0 3.42 1.07 3.42 2.87v5.27c0 .47.23.68.55.68a1.68 1.68 0 001-.4l.13 1.5a2.49 2.49 0 01-1.74.67 1.52 1.52 0 01-1.69-1.41 3.72 3.72 0 01-2.94 1.41 2.5 2.5 0 01-2.7-2.74c0-2.58 2.47-3.65 5.3-3.63zm0 2.72c-1.76-.06-3.25.59-3.25 1.88 0 .78.35 1.2 1.14 1.2a3.06 3.06 0 002.11-1.12zm12.04-5.53v6.92a1.71 1.71 0 003.42 0v-6.92h2.07v6.86c0 2.36-1.6 3.48-3.78 3.48s-3.78-1.12-3.78-3.48v-6.86zm10.08.91a5.14 5.14 0 013.14-1.16c1.82 0 3 1 3 3.22v7.12h-2.07v-6.71c0-1.23-.42-1.67-1.58-1.67a4.36 4.36 0 00-2.24.74v7.64h-2.07V70.31h1.86zm15.8 0a5 5 0 013-1.16 2.5 2.5 0 012.36 1.18 5.85 5.85 0 013.22-1.18c1.81 0 2.83 1 2.83 3.22v7.12h-2.07v-6.76c0-1.26-.49-1.62-1.52-1.62a4.36 4.36 0 00-2.09.74 5.27 5.27 0 01.06.82v6.82h-2.03v-6.48c0-1.42-.26-1.9-1.52-1.9a4 4 0 00-2 .74v7.64h-2.07V70.31h1.86zm16.03-.91v6.92a1.71 1.71 0 003.42 0v-6.92h2.07v6.86c0 2.36-1.6 3.48-3.78 3.48s-3.78-1.12-3.78-3.48v-6.86zm10.08.91a5.14 5.14 0 013.14-1.16c1.82 0 3 1 3 3.22v7.12h-2.07v-6.71c0-1.23-.42-1.67-1.58-1.67a4.36 4.36 0 00-2.24.74v7.64h-2.07V70.31h1.86zm14.53 7.98a3.8 3.8 0 01-2.91 1.45c-1.63 0-3.45-1.26-3.45-5.27s1.72-5.32 3.59-5.32a5.41 5.41 0 012.45.63v-4.16l2.07-.38v12c0 .47.22.68.55.68a1.65 1.65 0 001-.4l.14 1.5a2.52 2.52 0 01-1.75.67 1.5 1.5 0 01-1.67-1.45m-.32-6.84a4.17 4.17 0 00-2-.57c-1 0-1.86.63-1.86 3.5 0 2.47.84 3.46 1.75 3.46a2.89 2.89 0 002.13-1.14zm12.91 3.09c0 3.5-1.45 5.25-4.16 5.25s-4.18-1.52-4.18-5.28 1.46-5.31 4.18-5.31 4.16 1.53 4.16 5.34m-6.21 0c0 2.73.68 3.55 2 3.55s2-.82 2-3.52-.66-3.61-2-3.61-2 .8-2 3.58m15.06.52c.09 2.33 1 3 2.47 3a4.48 4.48 0 002.63-1l.33 1.62a5.93 5.93 0 01-3.38 1.1c-2.51 0-4.22-1.5-4.22-5.29s1.5-5.3 4.08-5.3 3.65 1.71 3.65 4.24v1.62zm3.57-1.62c0-1.71-.5-2.51-1.7-2.51s-1.76.74-1.86 2.51zm6.13-3.08a5.13 5.13 0 013.13-1.16c1.83 0 3 1 3 3.22v7.12h-2.07v-6.71c0-1.23-.42-1.67-1.58-1.67a4.33 4.33 0 00-2.24.74v7.64h-2.07V70.31h1.86zm15.42 4.7c.09 2.33 1 3 2.47 3a4.51 4.51 0 002.64-1l.32 1.62a5.93 5.93 0 01-3.38 1.1c-2.51 0-4.22-1.5-4.22-5.29s1.5-5.3 4.09-5.3 3.64 1.71 3.64 4.24v1.62zm3.57-1.62c0-1.71-.5-2.51-1.69-2.51s-1.77.74-1.86 2.51zm5.09-3.99l2.52 7.81 2.41-7.81h2.08l-3.37 10.09h-2.41l-3.44-10.09h2.21zm16.23 5.09c0 3.5-1.44 5.25-4.16 5.25s-4.17-1.52-4.17-5.28 1.46-5.31 4.17-5.31 4.16 1.53 4.16 5.34m-6.21 0c0 2.73.69 3.55 2.05 3.55s2-.82 2-3.52-.67-3.61-2-3.61-2.05.8-2.05 3.58M258 66.15v11.93a.66.66 0 00.71.76 2.49 2.49 0 001.23-.4l.21 1.6a4.22 4.22 0 01-2.11.61c-1.69 0-2.11-1.24-2.11-2.57V66.53zm5.34 4.16v6.92a1.71 1.71 0 003.42 0v-6.92h2.06v6.86c0 2.36-1.59 3.48-3.77 3.48s-3.78-1.12-3.78-3.48v-6.86zm13.14 3.4c-.06-1-.48-1.92-1.62-1.92s-1.82.73-1.82 3.58.86 3.55 2.36 3.55a4.19 4.19 0 002.54-.91l.4 1.54a5.66 5.66 0 01-3.36 1.1c-2.62 0-4.1-1.65-4.1-5.3s1.27-5.28 4.06-5.28c2.43 0 3.36 1.5 3.4 3.45l-1.86.19m6.17-4.71h-2.07v-2.28h2.07zm0 11.44h-2.07V70.31h2.07zm10.62-5.04c0 3.5-1.45 5.25-4.16 5.25s-4.18-1.52-4.18-5.28 1.46-5.31 4.18-5.31 4.16 1.53 4.16 5.34m-6.22 0c0 2.73.69 3.55 2.06 3.55s2-.82 2-3.52-.67-3.61-2-3.61-2.06.8-2.06 3.58m5-9.22l-2.21 3h-1.76l1.86-3zm5.36 5.04a5.08 5.08 0 013.13-1.16c1.82 0 3 1 3 3.22v7.12h-2.07v-6.71c0-1.23-.42-1.67-1.58-1.67a4.36 4.36 0 00-2.24.74v7.64h-2.07V70.31h1.87zM67 7.36c.14 1.86.23 6.51.23 8.22s0 6.8-.25 9.07v.18h8.19c4 0 8.26-1.27 8.26-4.84 0-2.24-1.62-3.9-4.65-4.8 2.22-.6 3.73-2.14 3.73-3.92 0-2.9-3.34-4-6.47-4.08H67zm6.32 1.8c3.42 0 4.69.71 4.69 2.58a2 2 0 01-.46 1.3A4.31 4.31 0 0174 14.15h-.08l-1 2.48h1a5.37 5.37 0 014.38 1.57 2.4 2.4 0 01.59 1.59c0 2-1.71 3-5.08 3h-2.07c-.12-2.58-.12-6.1-.12-7.14 0-1.23 0-4 .13-6.32a9.27 9.27 0 011.61-.1m28.94-2.04h-4l.17 4.43c.07 2.21.14 4.47.29 6.66a13.77 13.77 0 00-1.68-2.79c0-.07-4.16-6.45-5.6-8.26h-4.64v.16c.13 1.86.23 6.51.23 8.22 0 1.56 0 6.81-.26 9.07v.19h4.11v-.18c-.24-4.32-.24-8.66-.24-12.86a6.07 6.07 0 001 1.93c.07.11 7.13 10.43 7.49 11.05v.07h3.31v-.19c-.25-2.27-.26-7.51-.26-9.07 0-1.71.1-6.36.23-8.22v-.21zm4.78.16c.13 1.87.23 6.51.23 8.22 0 1.56 0 6.8-.26 9.07v.18h4.89v-.18c-.17-1.62-.23-4.72-.25-7.11h1.59c6.46 0 9.59-1.73 9.59-5.31 0-4.09-4.4-5-8.08-5.11h-7.69zm6 2c2.29 0 3.91.44 4.68 1.39a2.52 2.52 0 01.53 1.61c0 2.55-2.85 3.09-5.25 3.09h-1l-.39-.06v-2.23c0-1.13 0-2.42.06-3.65a10.2 10.2 0 011.36-.12m19.13-2.03c.14 1.87.23 6.51.23 8.22 0 1.56 0 6.8-.26 9.07v.18h4.91v-.18c-.16-1.62-.23-4.72-.25-7.11h1.59c6.45 0 9.6-1.73 9.6-5.31 0-4.09-4.4-5-8.09-5.11h-7.69zm6 2c2.29 0 3.91.44 4.69 1.39a2.57 2.57 0 01.52 1.61c0 2.55-2.85 3.09-5.25 3.09h-1l-.38-.06v-2.24c0-1.13 0-2.41.06-3.64a10.36 10.36 0 011.36-.12m16.33-2.19h-.09v.1c-.91 2.5-6.77 15.33-7.68 17.3l-.12.24h4.2v-.1c.37-1.2.84-2.57 1.39-4.05l3.47-.05h3.49c.76 1.9 1.32 3.34 1.57 4.06v.09h4.87l-7.82-17.59h-3.28zm1.19 5.2c.39.82 1.4 3.19 2.53 6h-5.11c.91-2.24 1.81-4.26 2.58-6m11.88-5.04c.12 1.86.23 6.51.23 8.22 0 1.56 0 6.81-.27 9.07v.19h4.91v-.19c-.25-2.27-.26-7.51-.26-9.07 0-1.22.05-4 .14-6.16.4-.05.95-.09 1.32-.1 2.29-.05 3.91.44 4.68 1.39a2.47 2.47 0 01.53 1.6c0 2-1.91 3.06-3.69 3.16a5.18 5.18 0 01-1-.05l-.33-.06.21.31c1.72 2.55 4.33 7 5.43 9.1v.07h5.25l-.16-.26c-.18-.29-3.62-5.34-5.08-7.5l-.1-.13c2.67-.81 4-2.33 4-4.64 0-4.09-4.4-5-8.09-5.11h-7.69zm24.07-.18H187v.17c.13 1.87.23 6.52.23 8.23 0 1.55 0 6.79-.26 9.06v.18h4.9v-.18c-.24-2.27-.26-7.51-.26-9.06 0-1.71.1-6.36.23-8.23v-.17zm4.58.19c.14 1.86.23 6.51.23 8.22s0 6.8-.26 9.07v.18h8.18c4 0 8.27-1.27 8.27-4.84 0-2.24-1.62-3.9-4.65-4.8 2.22-.6 3.73-2.14 3.73-3.92 0-2.9-3.33-4-6.47-4.08h-9zm6.32 1.8c3.42 0 4.69.71 4.69 2.58a2 2 0 01-.46 1.3 4.31 4.31 0 01-3.57 1.11h-.09l-.93 2.48h.95a5.37 5.37 0 014.35 1.57 2.45 2.45 0 01.59 1.59c0 2-1.71 3-5.07 3h-2.08c-.12-2.58-.12-6.1-.12-7.14 0-1.24 0-4 .14-6.32a9.08 9.08 0 011.6-.1m22.13-2.06h-3.3v.1c-1 2.66-7.17 16.19-7.68 17.31l-.12.23h4.21v-.1c.36-1.2.84-2.57 1.39-4.05l3.47-.05h3.49c.76 1.91 1.32 3.34 1.56 4.06v.09h4.87l-7.82-17.59zm-2 5.2c.4.83 1.39 3.19 2.54 6h-2.54l-2.57-.05c.9-2.24 1.8-4.25 2.57-6m11.3-.57c0 3.1 3.12 4.36 5.87 5.48 2.14.86 4.34 1.76 4.34 3.23a1.61 1.61 0 01-.34 1.08c-.51.61-1.56.87-3.22.79a15.06 15.06 0 01-5.51-1.56l-.86-.39v3.85l.55.12.34.07a21.68 21.68 0 005 .72c5.16 0 8.25-2.06 8.25-5.48 0-3.18-3.19-4.45-6-5.57-2.07-.83-4.22-1.69-4.22-3 0-.4 0-1.58 2.66-1.58a13.56 13.56 0 015 1.24l1 .42V7.26l-1-.18a23.33 23.33 0 00-4.39-.52c-4.47 0-7.47 2.09-7.47 5.19M79.31 34.05a6.28 6.28 0 00-3.26-.92c-4 0-5.34 3.14-5.34 5.83 0 3.73 2.29 5.61 5.37 5.61a6.86 6.86 0 004.64-2v3.23a13.74 13.74 0 01-5.35 1c-5.54 0-9-3.45-9-7.84 0-4.62 3.66-8 9.71-8a17.05 17.05 0 014.12.55zm13.38-2.84c.59 1.57 5.61 12.75 6.79 15.28h-4.21c-.24-.7-.75-2-1.4-3.6h-6c-.49 1.28-.88 2.46-1.23 3.6h-3.7c.87-1.9 6-13 6.81-15.28zm.37 9.67l-2.18-5.17c-.7 1.48-1.46 3.23-2.27 5.17h4.45m15.74-9.67c3.21 0 7 .9 7 4.43 0 2-1.15 3.32-3.45 4a82.08 82.08 0 004.65 6.85h-4.56c-1-1.9-3.27-5.74-4.93-8.23a5.24 5.24 0 001.18.11c1.33 0 3.2-1 3.2-2.73 0-2.2-2.66-2.6-4-2.6a15.27 15.27 0 00-1.66.09c-.09 1.9-.13 4.28-.13 5.35 0 1.35 0 5.87.24 8h-4.25c.21-2.12.26-4.85.26-8 0-2.66 0-5.85-.22-7.27zm16.97 0c6.44 0 8.9 3.38 8.9 7.62s-2.4 7.66-9.14 7.66h-5.67c.21-2.05.21-4.87.21-8 0-1.48 0-5.3-.21-7.29zM124 33.13c-.09 1-.11 3.6-.11 5.37 0 2.23 0 4 .09 6a10.44 10.44 0 001.09.06c3.69 0 5.61-1.16 5.61-5.85 0-4.47-2-5.74-5.7-5.65zm18.52-1.92c-.13 1.77-.22 5.78-.22 7.29 0 1.33 0 5.87.22 8h-4.24c.22-2.12.24-6.66.24-8s-.09-5.52-.19-7.29zm16.19 0v2.21c-1.2-.07-4.19-.16-5.19-.16-.74 0-1.57 0-2.42.07-.07.94-.09 2.12-.09 3.14v1.33l5.33-.08v2.37l-5.34-.21c0 1.94 0 4.95.24 6.61H147c.27-2.12.27-6.66.27-8s-.11-5.52-.25-7.29z" fill="#030508"/></g></g></svg>