<svg xmlns="http://www.w3.org/2000/svg" viewBox="0 0 20 20"><path d="M10.2.5c.1 0 .2 0 .3.1.4.1.9.3 1.3.5l1.2.6h.9c.4-.1.8-.2 1.1-.4.2-.1.4-.1.6 0l.3.3c.3.4.7.8 1.1 1.1.3.2.6.4.8.7 0 0 .1.1.1.2.1.1.1.2.1.3-.1.3-.2.5-.3.8-.2.5-.4 1-.6 1.6v1l.3 1.2c.2.6.4 1.1.6 1.7.2.4.3.9.3 1.3V13c0 .1 0 .3-.1.4-.1.7-.3 1.3-.7 1.9-.5.8-1.2 1.4-2.1 1.8-.6.3-1.3.4-1.9.5-.3 0-.7 0-1 .1-.4.1-.8.3-1.2.5-.6.3-1 .8-1.4 1.3 0 .1-.1.1-.1 0l-.6-.6c-.5-.4-1-.8-1.6-1-.3-.1-.6-.2-.9-.2-.7 0-1.5-.1-2.2-.4-.6-.3-1.2-.7-1.7-1.3-.4-.5-.8-1.1-1-1.7-.1-.4-.2-.8-.3-1.1v-1.7c0-.3.1-.5.1-.8.2-.5.4-.9.5-1.2.2-.6.5-1.3.6-1.9.1-.3.1-.6.1-.8 0-.3 0-.5-.1-.7-.2-.6-.4-1.2-.7-1.8 0-.1-.1-.3-.1-.4v-.3c.1-.1.3-.3.5-.4.3-.3.7-.6 1-.9.3-.2.5-.5.7-.8.1-.1.1-.2.2-.2.2-.1.4-.2.7-.1l.6.3c.4.1.8.2 1.1.1.2 0 .3 0 .5-.1.5-.3 1-.5 1.6-.7.3-.1.6-.2 1-.3h.4z"/><path fill="#fff" d="M10 3.8l1.7 3.4 3.7.6-2.7 2.6.7 3.8-3.4-1.8-3.4 1.8.7-3.8-2.7-2.6 3.7-.6z"/></svg>