<svg width="88" height="88" fill="none" xmlns="http://www.w3.org/2000/svg"><path d="M75.536 36.78a.24.24 0 01.029-.072c.947-3 1.435-5.928 1.435-8.727C77 18.622 69.378 11 60.02 11c-3.79 0-6.877.89-9.446 2.713-2.268 1.608-4.234 4.005-6.215 7.536l-.359.646-.359-.646c-1.98-3.531-3.947-5.928-6.215-7.536C34.856 11.89 31.77 11 27.98 11 18.622 11 11 18.608 11 27.98c0 2.412.359 4.896 1.048 7.422 1.708 6.23 5.627 13.033 11.986 20.813 5.612 6.862 12.56 13.795 19.277 20.512.187.172.43.273.675.273.244 0 .488-.1.689-.273C57.708 63.694 71.187 50.215 75.522 36.81l.014-.03zM73.067 38c-4.78 12.388-17.526 25.148-28.78 36.402l-.287.287-.287-.287C32.029 62.703 18.78 49.44 14.43 36.622l-.187-.545H27.75l7.91 14.497c.028.058.085.13.157.215a.864.864 0 00.632.288h.043a.91.91 0 00.79-.445l9.53-14.986 3.043-4.077 4.823 12.058a.94.94 0 00.819.603.963.963 0 00.904-.46l3.818-6.344h13.062l-.215.574zM74 35.244l-.086.301h-14.24a.97.97 0 00-.818.474l-3.1 5.168-4.737-11.857a.953.953 0 00-.76-.588.943.943 0 00-.89.373l-4.077 5.426c-.014.028-.029.043-.043.057l-.015.014-8.67 13.637-7.406-13.58a.95.95 0 00-.847-.502H13.699l-.072-.315a25.373 25.373 0 01-.718-5.885c0-8.311 6.76-15.072 15.072-15.072 5.282 0 8.756 1.636 11.986 6.072 1.076 1.478 2.124 3.272 3.186 5.425.144.316.488.517.847.517a.947.947 0 00.847-.517C49.139 15.81 52.97 12.91 60.019 12.91c8.311 0 15.072 6.76 15.072 15.072-.014 2.34-.373 4.78-1.091 7.263z" fill="#000" stroke="#000"/></svg>