<svg version="1.1" id="Capa_1" xmlns="http://www.w3.org/2000/svg" x="0" y="0" viewBox="0 0 181.5 111.8" xml:space="preserve"><style>.st0{fill:#302e2b}.st1{fill:#c12a21}.st2{fill:#456091}</style><path class="st0" d="M8.6 88.2h167.8v.6H8.6zm3.4 17.5h5.5v2.8H8.6V93.3H12v12.4zm22.2-12.4h-3.5L25 108.5h3.5l1.1-3.4h5.6l1.1 3.4h3.5l-5.6-15.2zm-3.8 9.4l1.4-4.1.3-.9.3-1.2c.1.4.2.8.3 1.1.1.4.2.6.3.9l1.4 4.2h-4zm49.9-9.4h-3.5l-5.7 15.2h3.6l1.1-3.4h5.6l.9 2.6c0 .1.1.1.1.1l.2.6h3.5l-5.8-15.1zm-3.7 9.4l1.4-4.1.3-.9.3-1.2c.1.4.2.8.3 1.1.1.4.2.6.3.9l1.4 4.2h-4zm51.7-9.4h-3.5l-5.7 15.2h3.5l1.1-3.4h5.6l1.1 3.4h3.5l-5.6-15.2zm-3.7 9.4l1.4-4.1.3-.9.3-1.2c.1.4.2.8.3 1.1.1.4.2.6.3.9l1.4 4.2h-4zm46.2-9.4h-3.5l-5.7 15.2h3.5l1.1-3.4h5.6l1.1 3.4h3.5l-5.6-15.2zm-3.8 9.4l1.4-4.1.3-.9.3-1.2c.1.4.2.8.3 1.1.1.4.2.6.3.9l1.4 4.2h-4zm-105.1 1.6l-.5.4-.1.1c-.2.2-.4.3-.6.4l-.6.3c-.2.1-.4.1-.7.2s-.5.1-.9.1c-.5 0-1-.1-1.5-.3s-.9-.5-1.2-.9c-.4-.4-.6-.9-.8-1.5-.2-.6-.3-1.3-.3-2.1s.1-1.4.3-2 .5-1.1.9-1.5c.4-.4.8-.8 1.3-1s1.1-.3 1.7-.3c.4 0 .6.1.9.1.3.1.5.1.7.2.2.1.4.2.5.3.2.1.3.2.4.3.1 0 .1.1.1.1l.7.6.5-.8 1.1-1.6c-.3-.3-.6-.6-1-.8-.4-.3-.8-.4-1.2-.6-.4-.2-.9-.3-1.4-.4s-1-.2-1.6-.2c-1.1 0-2.2.2-3.1.6-.9.4-1.7.9-2.4 1.6-.7.7-1.2 1.5-1.6 2.4-.4 1-.5 2-.5 3.1s.2 2.2.5 3.1c.3 1 .8 1.8 1.4 2.4.6.7 1.4 1.2 2.3 1.6.9.4 1.9.6 3 .6 1.2 0 2.3-.2 3.2-.6.9-.4 1.6-.9 2.1-1.7l.1-.1-1.7-2.1zm47.1-11h-1.7l-.3.7-3.7 7.5c-.1.3-.3.5-.4.9-.1.3-.3.6-.4.9-.1-.3-.2-.6-.4-.9-.1-.3-.3-.5-.4-.8L98.1 94l-.3-.6h-3.6v15.2h3v-9.3c0-.2-.1-.5-.1-.7l3.9 7.8.4.7h2.2l.4-.8.7-1.4.2-.4 3-5.9c-.1.5-.1 1-.1 1.4v8.7h3V93.3H109zm42.2 9.9c-.2-.3-.3-.5-.5-.6-.2-.2-.4-.3-.6-.4.5-.2.9-.4 1.2-.7.4-.3.7-.6.9-1 .3-.4.4-.8.6-1.2.1-.4.2-.9.2-1.4 0-.6-.1-1.2-.3-1.8s-.5-1-1-1.4c-.5-.4-1.1-.7-1.8-.9-.8-.2-1.7-.3-2.7-.3h-4.8v15.2h3.4V103h.9c.3 0 .5.1.6.1.2.1.3.2.4.4l1.3 2.3v.1l1.1 2c0 .1.1.1.1.1l.3.5h3.9l-3.2-5.3zm-4.2-2.7h-1.4V96h1.4c.9 0 1.5.2 1.9.5.4.4.6.9.6 1.6 0 .3-.1.6-.2.9-.1.3-.3.5-.4.8-.2.2-.5.4-.8.5-.2.1-.6.2-1.1.2z"/><path class="st1" d="M40.9 65.5V52.1c-9.5-1.9-16.5-9.3-16.5-17 0-7.2 6.8-14.8 16.5-16.6V5.2C20.7 7.1 8.6 21.3 8.6 35.3c0 14.6 12.9 28.2 32.3 30.2z"/><path class="st2" d="M176.4 65.5V52.1c-9.5-1.9-16.5-9.3-16.5-17 0-7.2 6.8-14.8 16.5-16.6V5.2c-20.2 1.9-32.2 16.2-32.2 30.1 0 14.6 12.9 28.2 32.2 30.2z"/><path class="st1" d="M99.8 53.8c1.1-2.2 1.6-4.6 1.6-7.1 0-3.5-1.1-6.5-3.4-9.4-2.3-2.8-5-4.8-8.3-6.1-3.3-1.2-8.5-2.5-15.6-3.7-4.2-.7-7-1.6-8.2-2.6-1.2-1-1.8-2.2-1.8-3.6 0-3.6 3.2-5.4 9.6-5.4 3.9 0 7 1 9.2 3.1h16.5C95.6 9.7 86.8 5 73.2 5 65.6 5 59.5 6.8 55 10.5s-6.7 8.2-6.7 13.5c0 5.2 1.9 9.2 5.6 11.9 3.8 2.7 10.1 4.9 18.9 6.4 4.8.9 7.9 1.7 9.6 2.7 1.7 1 2.5 2.3 2.5 4.1 0 1.7-.9 3.2-2.8 4.4-.1.1-.3.2-.4.2 0 0-1.8 1.3-8.1 1.3s-8.1-1.3-8.1-1.3c-1.9-.9-3.4-2.2-4.4-3.8H44.7c.4 1.4.9 2.6 1.5 3.8 0 0 7.1 11.8 27.4 11.8 20.2.2 26.2-11.7 26.2-11.7z"/><path class="st2" d="M122.3 52.5V5h-15.4v60.6h37.3V52.5z"/><path class="st0" d="M24.1 80.5c0 .5-.1.9-.2 1.3-.2.4-.4.8-.6 1-.3.3-.6.5-1 .7-.4.2-.8.3-1.3.3s-.9-.1-1.3-.3c-.4-.2-.8-.4-1-.7-.3-.3-.5-.6-.6-1-.2-.4-.2-.8-.2-1.3s.1-.9.2-1.3c.2-.4.4-.8.6-1 .3-.3.6-.5 1-.7.4-.2.8-.3 1.3-.3s.9.1 1.3.3c.4.2.8.4 1 .7.3.3.5.6.6 1 .1.4.2.8.2 1.3zm-1.3 0c0-.3-.1-.6-.2-.9-.1-.3-.2-.5-.4-.7-.2-.2-.4-.3-.6-.4-.3-.1-.5-.2-.9-.2-.3 0-.6.1-.9.2-.3.1-.5.3-.6.4-.2.2-.3.4-.4.7-.1.3-.2.6-.2.9 0 .3.1.6.2.9.1.3.2.5.4.7.2.2.4.3.6.4.3.1.5.2.9.2.3 0 .6-.1.9-.2.3-.1.4-.3.6-.4.2-.2.3-.4.4-.7.2-.2.2-.6.2-.9zm6.5.7v2.5h-1.2v-6.4H30c.4 0 .8.1 1.1.1.3.1.5.2.8.4.2.2.3.4.4.6.1.2.2.5.2.8 0 .2-.1.4-.1.6-.1.2-.2.4-.3.5-.1.2-.3.3-.4.4l-.6.3c.2.1.3.2.4.4l1.6 2.3h-1.4l-1.5-2.3-.2-.2c-.1-.1-.2-.1-.3-.1h-.4zm0-.8h.8c.2 0 .4-.1.6-.1.2-.1.3-.1.4-.2s.2-.2.2-.3c.1-.2.1-.3.1-.4 0-.3-.1-.6-.3-.8s-.5-.3-1-.3h-.8v2.1zm20.4-3.1v.9h-2.8V80h2.2v1h-2.2v1.8h2.8v.9h-4v-6.4h4zm9.8 3.2c0 .5-.1.9-.2 1.3-.2.4-.4.7-.6 1-.3.3-.6.5-1 .6-.4.2-.8.2-1.3.2H54v-6.4h2.4c.5 0 .9.1 1.3.2.4.2.8.4 1 .6.3.3.5.6.6 1 .1.6.2 1 .2 1.5zm-1.2 0c0-.3-.1-.6-.2-.9-.1-.3-.2-.5-.4-.7-.2-.2-.4-.3-.6-.4-.3-.1-.5-.2-.9-.2H55v4.5h1.2c.3 0 .6-.1.9-.2.3-.1.4-.3.6-.4.2-.2.3-.4.4-.7.1-.3.2-.7.2-1zm11.3 0c0 .5-.1.9-.2 1.3-.2.4-.4.8-.6 1-.3.3-.6.5-1 .7-.4.2-.8.3-1.3.3s-.9-.1-1.3-.3c-.4-.2-.8-.4-1-.7-.3-.3-.5-.6-.6-1-.2-.4-.2-.8-.2-1.3s.1-.9.2-1.3.4-.8.6-1c.3-.3.6-.5 1-.7.4-.2.8-.3 1.3-.3s.9.1 1.3.3c.4.2.8.4 1 .7.3.3.5.6.6 1 .1.4.2.8.2 1.3zm-1.2 0c0-.3-.1-.6-.2-.9-.1-.3-.2-.5-.4-.7-.2-.2-.4-.3-.6-.4-.3-.1-.5-.2-.9-.2-.3 0-.6.1-.8.2-.3.1-.5.3-.6.4-.2.2-.3.4-.4.7-.1.3-.2.6-.2.9 0 .3.1.6.2.9.1.3.2.5.4.7.2.2.4.3.6.4.3.1.5.2.8.2.3 0 .6-.1.9-.2.3-.1.4-.3.6-.4.2-.2.3-.4.4-.7.1-.2.2-.6.2-.9zm19.7 3.2h-1.2l-.6-1.6h-2.6l-.7 1.6h-1.2l2.5-6.4h1.2l2.6 6.4zm-4.2-2.4H86l-.8-2.1c-.1-.1-.1-.2-.1-.3s-.1-.3-.1-.5c-.1.2-.1.3-.1.4-.1.1-.1.2-.1.3l-.9 2.2zm18.3-.8c0 .5-.1.9-.2 1.3-.2.4-.4.7-.6 1-.3.3-.6.5-1 .6-.4.2-.8.2-1.3.2h-2.4v-6.4H99c.5 0 .9.1 1.3.2.4.2.8.4 1 .6.3.3.5.6.6 1 .2.6.3 1 .3 1.5zm-1.2 0c0-.3-.1-.6-.2-.9-.1-.3-.2-.5-.4-.7s-.4-.3-.6-.4c-.3-.1-.5-.2-.9-.2h-1.2v4.5h1.2c.3 0 .6-.1.9-.2.3-.1.4-.3.6-.4.2-.2.3-.4.4-.7.1-.3.2-.7.2-1zm9.2-3.2v.9h-2.8V80h2.2v1h-2.2v1.8h2.8v.9h-4v-6.4h4zm20.7 0v.9h-2.8V80h2.2v1h-2.2v1.8h2.8v.9h-4v-6.4h4zm16.1 5.4c.2 0 .4-.1.6-.1.2-.1.3-.2.4-.3.1-.2.2-.3.3-.5.1-.2.1-.4.1-.6v-3.8h1.2v3.8c0 .4-.1.7-.2 1-.1.3-.3.6-.5.8-.2.2-.5.4-.8.5-.3.1-.7.2-1.1.2-.4 0-.8-.1-1.1-.2-.3-.1-.6-.3-.8-.5-.2-.2-.4-.5-.5-.8-.1-.3-.2-.6-.2-1v-3.8h1.2v3.8c0 .3.1.5.1.6.1.2.2.4.3.5.1.2.3.3.4.3.2.1.4.1.6.1zm21.7-2.2c0 .5-.1.9-.2 1.3-.2.4-.4.8-.6 1-.3.3-.6.5-1 .7-.4.2-.8.3-1.3.3s-.9-.1-1.3-.3c-.4-.2-.8-.4-1-.7-.3-.3-.5-.6-.6-1-.2-.4-.2-.8-.2-1.3s.1-.9.2-1.3.4-.8.6-1c.3-.3.6-.5 1-.7.4-.2.8-.3 1.3-.3s.9.1 1.3.3c.4.2.8.4 1 .7.3.3.5.6.6 1 .1.4.2.8.2 1.3zm-1.3 0c0-.3-.1-.6-.2-.9-.1-.3-.2-.5-.4-.7-.2-.2-.4-.3-.6-.4-.3-.1-.5-.2-.9-.2-.3 0-.6.1-.9.2-.3.1-.5.3-.6.4-.2.2-.3.4-.4.7-.1.3-.2.6-.2.9 0 .3.1.6.2.9.1.3.2.5.4.7.2.2.4.3.6.4.3.1.5.2.9.2.3 0 .6-.1.9-.2.3-.1.4-.3.6-.4.2-.2.3-.4.4-.7.2-.2.2-.6.2-.9zM13.1 82.2c-.1.1-.2.2-.3.2-.1.1-.2.1-.3.2-.1.1-.2.1-.4.1h-.4c-.3 0-.5-.1-.8-.2-.2-.1-.4-.3-.6-.4-.2-.2-.3-.4-.4-.7-.1-.3-.2-.6-.2-1 0-.3.1-.6.2-.9.1-.3.2-.5.4-.7.2-.2.4-.3.6-.4.3-.1.5-.2.8-.2.3 0 .5 0 .6.1.2.1.3.1.4.2.1.1.2.1.3.2l.3.2.6-.8c-.3-.3-.5-.4-.9-.6-.4-.2-.8-.2-1.2-.2s-.9.1-1.4.2c-.4.2-.8.4-1 .6-.3.3-.5.6-.6 1-.2.4-.2.8-.2 1.3s.1.9.2 1.3c.2.4.3.8.6 1 .3.3.6.5 1 .6.4.2.8.3 1.3.3s1-.1 1.4-.3c.4-.2.7-.4 1-.8l-.6-.7-.4.4zm25-1v2.5h-1.2v-6.4h1.9c.4 0 .8.1 1.1.1.3.1.5.2.8.4.2.2.3.4.4.6.1.2.2.5.2.8 0 .2-.1.4-.1.6-.1.2-.2.4-.3.5-.1.2-.3.3-.4.4l-.6.3c.2.1.3.2.4.4l1.6 2.3h-1.4L39 81.4l-.2-.2c-.1-.1-.2-.1-.3-.1h-.4zm0-.8h.8c.2 0 .4-.1.6-.1.2-.1.3-.1.4-.2s.2-.2.2-.3c.1-.2.1-.3.1-.4 0-.3-.1-.6-.3-.8-.2-.2-.5-.3-1-.3h-.8v2.1zm36.7.8v2.5h-1.2v-6.4h1.9c.4 0 .8.1 1.1.1.3.1.5.2.8.4.2.2.3.4.4.6.1.2.2.5.2.8 0 .2-.1.4-.1.6-.1.2-.2.4-.3.5-.1.2-.3.3-.4.4l-.6.3c.2.1.3.2.4.4l1.6 2.3h-1.4l-1.5-2.3-.2-.2c-.1-.1-.2-.1-.3-.1h-.4zm0-.8h.8c.2 0 .4-.1.6-.1.2-.1.3-.1.4-.2.1-.1.2-.2.2-.3.1-.2.1-.3.1-.4 0-.3-.1-.6-.3-.8-.2-.2-.5-.3-1-.3h-.8v2.1zm80.4.8v2.5H154v-6.4h1.9c.4 0 .8.1 1.1.1.3.1.5.2.8.4.2.2.3.4.4.6.1.2.2.5.2.8 0 .2-.1.4-.1.6-.1.2-.2.4-.3.5-.1.2-.3.3-.4.4l-.6.3c.2.1.3.2.4.4l1.6 2.3h-1.4l-1.5-2.3-.2-.2c-.1-.1-.2-.1-.3-.1h-.4zm0-.8h.8c.2 0 .4-.1.6-.1.2-.1.3-.1.4-.2s.2-.2.2-.3c.1-.2.1-.3.1-.4 0-.3-.1-.6-.3-.8-.2-.2-.5-.3-1-.3h-.8v2.1zm-17.1.1v.9h1v1.1c-.2.1-.4.2-.5.2-.2.1-.4.1-.7.1-.3 0-.6-.1-.8-.2-.3-.1-.5-.3-.6-.4-.2-.2-.3-.4-.4-.7-.1-.3-.2-.6-.2-1 0-.3.1-.6.2-.9.1-.3.2-.5.4-.7.2-.2.4-.3.6-.4.3-.1.5-.2.9-.2.2 0 .4 0 .5.1.2.1.3.1.4.1s.2.1.3.2c.1.1.2.1.3.2l.3.2.5-.9c-.3-.3-.6-.4-1-.6-.4-.2-.8-.2-1.4-.2-.5 0-1 .1-1.4.2-.4.2-.8.4-1 .6s-.5.6-.6 1c-.2.4-.2.8-.2 1.3s.1.9.2 1.3c.2.4.4.8.6 1 .3.3.6.5 1 .6.4.2.8.3 1.3.3.3 0 .5 0 .8-.1.2 0 .4-.1.6-.1.2-.1.4-.1.5-.2s.3-.2.5-.3v-2.6l-2.1.1zm-15.3.5c-.1-.2-.2-.3-.3-.5-.2-.1-.3-.2-.5-.3-.2-.1-.4-.2-.5-.2-.2-.1-.4-.1-.5-.2s-.3-.1-.5-.2-.3-.2-.3-.3c-.1-.1-.1-.2-.1-.4 0-.1 0-.2.1-.3.1-.1.1-.2.2-.3.1-.1.2-.1.3-.2.1-.1.3-.1.4-.1s.3 0 .5.1c.1.1.3.1.3.2.1.1.2.1.3.2h.1l.3.2.4-.9c-.2-.2-.5-.4-.8-.5-.3-.1-.6-.2-1-.2-.3 0-.6.1-.9.2-.3.1-.5.2-.6.4-.2.2-.3.4-.4.6-.1.2-.2.4-.2.6 0 .3.1.5.1.8.1.2.2.4.3.5.2.1.3.2.5.3.2.1.4.2.5.2.2.1.4.1.5.2.2.1.3.1.5.2s.3.2.3.3c.1.1.1.2.1.4 0 .3-.1.5-.3.7-.2.2-.4.2-.8.2-.2 0-.4-.1-.5-.1-.2-.1-.3-.1-.4-.2-.1-.1-.2-.2-.3-.2h-.1l-.5-.2-.5.9c.1.1.3.2.4.3.2.1.3.2.5.3.2.1.4.1.5.2.2.1.4.1.6.1.4 0 .6-.1.9-.2.3-.1.5-.3.7-.4.2-.2.3-.4.4-.6.1-.3.2-.5.2-.8.2-.4.2-.6.1-.8zm53.5 0c-.1-.2-.2-.3-.3-.5-.2-.1-.3-.2-.5-.3-.2-.1-.4-.2-.5-.2-.2-.1-.4-.1-.5-.2s-.3-.1-.5-.2-.3-.2-.3-.3c-.1-.1-.1-.2-.1-.4 0-.1 0-.2.1-.3.1-.1.1-.2.2-.3.1-.1.2-.1.3-.2.1-.1.3-.1.4-.1s.3 0 .5.1c.1.1.3.1.3.2.1.1.2.1.3.2h.1l.3.2.4-.9c-.2-.2-.5-.4-.8-.5-.3-.1-.6-.2-1-.2-.3 0-.6.1-.9.2-.3.1-.5.2-.6.4-.2.2-.3.4-.4.6-.1.2-.2.4-.2.6 0 .3.1.5.1.8.1.2.2.4.3.5.2.1.3.2.5.3.2.1.4.2.5.2.2.1.4.1.5.2s.3.1.5.2.3.2.3.3c.1.1.1.2.1.4 0 .3-.1.5-.3.7-.2.2-.4.2-.8.2-.2 0-.4-.1-.5-.1-.2-.1-.3-.1-.4-.2-.1-.1-.2-.2-.3-.2h-.1l-.3-.2-.5.9c.1.1.3.2.4.3.2.1.3.2.5.3.2.1.4.1.5.2.2.1.4.1.6.1.4 0 .6-.1.9-.2.3-.1.5-.3.7-.4.2-.2.3-.4.4-.6.1-.3.2-.5.2-.8 0-.4 0-.6-.1-.8z"/></svg>