<svg width="98" height="61" fill="none" xmlns="http://www.w3.org/2000/svg"><path d="M98 48.594H0v.37h98v-.37zM1.991 58.708h3.184v1.627H0v-8.78h1.991v7.153zm12.923-7.154h-2.039L9.55 60.335h2.067l.644-1.971h3.26l.643 1.971h2.071l-3.32-8.78zm-2.193 5.423l.789-2.394c.06-.153.123-.331.189-.54.066-.21.13-.436.192-.683.067.24.136.466.206.673l.18.541.788 2.403h-2.344zm29.155-5.423h-2.038l-3.327 8.781H38.6l.644-1.971h3.244l.508 1.53c.007.019.02.034.029.053l.126.385h2.051l-3.326-8.778zm-2.193 5.423l.792-2.394a9.07 9.07 0 00.19-.54c.066-.21.132-.436.195-.683.066.24.133.466.205.673a48 48 0 01.18.541l.789 2.403h-2.351zm30.203-5.423h-2.039l-3.326 8.781h2.07l.644-1.971h3.263l.644 1.971h2.07l-3.326-8.78zm-2.19 5.423l.789-2.394c.06-.153.12-.331.19-.54.066-.21.129-.436.192-.683.066.24.135.466.205.673a48 48 0 01.18.541l.789 2.403h-2.345zm26.972-5.423h-2.039l-3.326 8.781h2.073l.644-1.971h3.263l.644 1.971h2.07l-3.33-8.78zm-2.194 5.423l.792-2.394a9.07 9.07 0 00.19-.54c.066-.21.132-.436.195-.683.067.24.133.466.206.673.066.206.126.388.18.541l.788 2.403h-2.35zm-61.346.93l-.306.266.003.003c-.013.01-.029.015-.044.028a2.55 2.55 0 01-.35.263 2.174 2.174 0 01-.367.172c-.13.044-.265.075-.416.094a3.986 3.986 0 01-.496.028 2.1 2.1 0 01-1.606-.732 2.648 2.648 0 01-.49-.883 3.708 3.708 0 01-.179-1.198c0-.432.06-.82.18-1.164a2.65 2.65 0 01.498-.883c.215-.24.47-.428.77-.56.3-.131.628-.197.991-.197a2.553 2.553 0 01.953.169c.117.044.215.097.3.15l.234.15c.022.016.044.025.066.038h-.003l.423.335.315-.432.672-.92a3.154 3.154 0 00-.555-.476 3.646 3.646 0 00-.685-.366 4.47 4.47 0 00-1.71-.329 4.87 4.87 0 00-1.821.332 4.189 4.189 0 00-1.417.927c-.394.4-.7.87-.925 1.42a4.792 4.792 0 00-.33 1.806c0 .641.097 1.239.29 1.787.192.547.47 1.02.83 1.423.36.401.798.71 1.315.94.518.228 1.102.34 1.755.34.71 0 1.325-.116 1.846-.353.49-.223.9-.548 1.237-.967l.076-.07-1.054-1.141zm27.461-6.353h-.95l-.193.41-2.155 4.34a10.963 10.963 0 00-.442.998 12.178 12.178 0 00-.208-.506 11.131 11.131 0 00-.227-.476l-2.178-4.387-.18-.379h-2.035v8.781h1.758v-5.05c0-.116-.004-.242-.013-.382-.01-.138-.019-.279-.035-.42l2.288 4.522c.003.006.007.01.01.013l.211.419h1.221l.215-.426c0-.003.003-.003.003-.006l.413-.82.136-.266 1.73-3.43a8.784 8.784 0 00-.038.795v5.051h1.754v-8.78H58.59zm24.645 5.726a1.6 1.6 0 00-.678-.619c.278-.11.527-.247.739-.416a2.54 2.54 0 00.877-1.277 2.79 2.79 0 00.113-.807c0-.376-.063-.72-.189-1.039a2.054 2.054 0 00-.606-.823c-.278-.235-.634-.416-1.073-.547-.438-.129-.969-.198-1.59-.198h-2.793v8.781h1.991v-3.248h.505a.74.74 0 01.357.072.595.595 0 01.22.24l.761 1.362.013.025.65 1.164c.012.025.031.044.05.066l.183.322h2.291l-1.82-3.057zm-2.407-1.598h-.802v-2.604h.802c.514 0 .896.11 1.142.326.246.216.37.52.37.904 0 .19-.03.372-.083.538a1.139 1.139 0 01-.265.438 1.24 1.24 0 01-.47.294 2.063 2.063 0 01-.694.104zm-62-20.237v-7.73c-5.523-1.088-9.64-5.384-9.64-9.819 0-4.187 3.966-8.583 9.64-9.653V.513C7.027 1.618.007 9.88.007 17.943c0 8.484 7.504 16.37 18.82 17.502zm79.173 0v-7.73c-5.522-1.088-9.64-5.384-9.64-9.819 0-4.187 3.966-8.583 9.64-9.653V.513C86.201 1.615 79.18 9.876 79.18 17.94c-.004 8.487 7.504 16.372 18.82 17.505zM53.233 28.67a9.3 9.3 0 00.947-4.124c0-1.993-.656-3.793-1.972-5.407-1.316-1.612-2.929-2.78-4.847-3.505-1.919-.726-4.942-1.443-9.076-2.156-2.47-.422-4.058-.92-4.759-1.496-.7-.572-1.05-1.273-1.05-2.1 0-2.077 1.877-3.116 5.63-3.116 2.315 0 4.095.607 5.358 1.802h9.618C50.81 3.142 45.698.432 37.745.432c-4.487 0-8.043 1.055-10.663 3.164-2.622 2.112-3.932 4.703-3.932 7.776 0 3.038 1.099 5.348 3.295 6.928 2.193 1.58 5.87 2.826 11.029 3.736 2.768.492 4.636 1.014 5.605 1.571.968.557 1.454 1.343 1.454 2.357 0 .998-.533 1.852-1.6 2.572-.079.053-.18.09-.265.137 0 0-1.073.76-4.727.76-3.654 0-4.73-.76-4.73-.76-1.09-.519-1.95-1.251-2.572-2.202h-9.597c.227.782.518 1.514.868 2.203 0 0 4.153 6.852 16 6.852 11.85 0 15.324-6.856 15.324-6.856zm13.137-.735V.432h-9.003v35.082h21.781v-7.579H66.37zM9.022 44.126c0 .269-.044.519-.136.75a1.816 1.816 0 01-.382.598 1.716 1.716 0 01-.593.391c-.23.094-.489.144-.767.144-.28 0-.536-.047-.77-.144a1.729 1.729 0 01-.596-.39 1.792 1.792 0 01-.385-.598 2.09 2.09 0 01-.136-.752c0-.269.048-.519.136-.75.091-.229.218-.43.385-.598.164-.17.363-.3.596-.391.234-.094.49-.141.77-.141.281 0 .537.047.767.144.23.094.43.225.593.391.165.166.29.366.382.594a2 2 0 01.136.752zm-.707 0c0-.204-.028-.385-.082-.545a1.08 1.08 0 00-.234-.407 1.036 1.036 0 00-.369-.26 1.285 1.285 0 00-.489-.087 1.28 1.28 0 00-.489.087.998.998 0 00-.37.26c-.1.113-.18.248-.236.407-.054.16-.082.341-.082.544 0 .2.028.382.082.542.054.16.133.294.237.407a.99.99 0 00.369.256c.145.06.31.091.49.091.179 0 .343-.031.488-.09a.99.99 0 00.37-.257 1.17 1.17 0 00.233-.407 1.61 1.61 0 00.082-.541zm3.765.4v1.436h-.691v-3.68h1.133c.252 0 .47.025.65.079.18.05.328.125.445.219a.883.883 0 01.255.334c.054.132.08.276.08.43a1.062 1.062 0 01-.471.888 1.418 1.418 0 01-.347.163.7.7 0 01.227.212l.931 1.358H13.5l-.871-1.314a.27.27 0 00-.095-.094.33.33 0 00-.154-.028h-.3v-.003zm0-.491h.429c.133 0 .243-.016.34-.05a.655.655 0 00.24-.135.5.5 0 00.14-.203.69.69 0 00.044-.26.53.53 0 00-.187-.432c-.123-.1-.312-.15-.568-.15h-.441v1.23h.003zm11.944-1.753v.545H22.38v1.02h1.294v.526H22.38v1.042h1.644v.547h-2.341v-3.68h2.341zm5.693 1.844c0 .269-.044.516-.136.741-.091.225-.218.42-.382.582a1.731 1.731 0 01-.593.379c-.23.09-.486.134-.77.134H26.42v-3.68h1.417c.281 0 .537.047.77.135.23.09.43.219.593.378.164.163.29.357.382.583.089.228.136.475.136.748zm-.707 0a1.62 1.62 0 00-.082-.545 1.022 1.022 0 00-.603-.66 1.272 1.272 0 00-.489-.091h-.72v2.591h.72c.183 0 .344-.031.49-.09a.99.99 0 00.369-.257c.1-.11.18-.248.233-.407a1.61 1.61 0 00.082-.541zm6.605 0c0 .269-.044.519-.136.75a1.816 1.816 0 01-.382.598 1.716 1.716 0 01-.593.391c-.23.094-.486.144-.767.144-.28 0-.536-.047-.77-.144a1.76 1.76 0 01-.596-.39 1.792 1.792 0 01-.385-.598 2.025 2.025 0 01-.136-.752c0-.269.044-.519.136-.75.091-.229.218-.43.385-.598.164-.17.363-.3.596-.391.234-.094.49-.141.77-.141.281 0 .537.047.767.144a1.713 1.713 0 01.975.985 2 2 0 01.136.752zm-.707 0c0-.204-.028-.385-.079-.545a1.123 1.123 0 00-.233-.407 1.036 1.036 0 00-.37-.26 1.274 1.274 0 00-.489-.087c-.18 0-.344.028-.489.087-.145.06-.268.148-.372.26a1.17 1.17 0 00-.237.407c-.053.16-.082.341-.082.544 0 .2.029.382.082.542.054.16.133.294.237.407.1.112.227.197.372.256.145.06.31.091.49.091.182 0 .346-.031.489-.09a.991.991 0 00.369-.257 1.17 1.17 0 00.233-.407c.05-.16.08-.341.08-.541zm11.471 1.836h-.707l-.334-.904H43.8l-.338.904h-.706l1.458-3.68h.707l1.458 3.68zm-2.405-1.389h1.184l-.452-1.224c-.018-.056-.044-.118-.069-.194-.025-.072-.047-.153-.072-.24l-.07.24a2.375 2.375 0 01-.066.197l-.455 1.221zm10.666-.447c0 .269-.044.516-.135.741-.092.225-.218.42-.382.582a1.731 1.731 0 01-.593.379 2.09 2.09 0 01-.767.134h-1.417v-3.68h1.417c.28 0 .536.047.767.135.23.09.429.219.593.378.164.163.29.357.382.583.091.228.136.475.136.748zm-.703 0c0-.204-.029-.385-.082-.545a1.022 1.022 0 00-.603-.66 1.273 1.273 0 00-.489-.091h-.72v2.591h.72c.183 0 .344-.031.49-.09a.99.99 0 00.368-.257c.101-.11.18-.248.234-.407.053-.16.082-.341.082-.541zm5.383-1.844v.545h-1.644v1.02h1.294v.526h-1.294v1.042h1.645v.547h-2.339v-3.68h2.339zm12.077 0v.545H69.75v1.02h1.297v.526H69.75v1.042h1.647v.547h-2.341v-3.68h2.341zm9.398 3.13a.944.944 0 00.36-.066.773.773 0 00.268-.185.832.832 0 00.167-.29 1.2 1.2 0 00.06-.382v-2.203h.691v2.203c0 .222-.034.422-.107.61a1.36 1.36 0 01-.792.795c-.19.075-.404.112-.644.112s-.451-.04-.64-.112a1.43 1.43 0 01-.487-.316 1.35 1.35 0 01-.302-.48 1.665 1.665 0 01-.108-.61v-2.202h.691v2.2c0 .14.02.269.057.381a.82.82 0 00.168.291c.069.082.16.144.264.188a.89.89 0 00.354.066zm12.638-1.286c0 .269-.044.519-.135.75a1.816 1.816 0 01-.382.598 1.715 1.715 0 01-.593.391c-.23.094-.486.144-.767.144s-.537-.047-.77-.144a1.758 1.758 0 01-.597-.39 1.738 1.738 0 01-.381-.598 2.025 2.025 0 01-.136-.752c0-.269.044-.519.136-.75.088-.229.217-.43.381-.598.165-.17.363-.3.597-.391.23-.094.489-.141.77-.141.28 0 .536.047.767.144.23.094.429.225.593.391.164.166.29.366.382.594.088.229.135.48.135.752zm-.71 0c0-.204-.025-.385-.079-.545a1.122 1.122 0 00-.233-.407 1.035 1.035 0 00-.37-.26 1.274 1.274 0 00-.488-.087c-.183 0-.344.028-.49.087a1.051 1.051 0 00-.605.667c-.054.16-.082.341-.082.544 0 .2.028.382.082.542.053.16.132.294.233.407a.977.977 0 00.373.256c.145.06.309.091.489.091.183 0 .344-.031.489-.09a.99.99 0 00.369-.257 1.17 1.17 0 00.233-.407c.054-.16.08-.341.08-.541zM2.66 45.146a1.24 1.24 0 01-.17.128.81.81 0 01-.183.084 1.306 1.306 0 01-.212.05 2.07 2.07 0 01-.255.016 1.06 1.06 0 01-.798-.341 1.233 1.233 0 01-.24-.407 1.576 1.576 0 01-.092-.55c0-.204.031-.382.091-.542.057-.16.14-.297.247-.41.104-.112.23-.197.378-.256.145-.063.31-.091.483-.091.148 0 .271.016.37.047a1.243 1.243 0 01.397.2l.145.132.35-.482a1.654 1.654 0 00-.53-.348 1.848 1.848 0 00-.722-.131c-.281 0-.54.044-.774.138a1.748 1.748 0 00-.6.388 1.72 1.72 0 00-.39.594 1.979 1.979 0 00-.14.76c0 .273.042.523.124.755.082.231.202.431.36.594.154.166.343.298.561.388.221.094.467.141.745.141.306 0 .571-.05.792-.147.22-.097.407-.24.555-.426l-.36-.4-.132.116zm14.58-.62v1.437h-.692v-3.68h1.133c.253 0 .47.025.65.078.18.05.329.125.445.219a.883.883 0 01.256.335c.053.131.079.275.079.428a1.062 1.062 0 01-.47.89 1.418 1.418 0 01-.348.162c.089.05.161.119.224.213l.931 1.358h-.792l-.867-1.315a.253.253 0 00-.098-.094.332.332 0 00-.155-.028h-.297v-.003zm0-.491h.432c.132 0 .243-.016.34-.05a.616.616 0 00.237-.135.5.5 0 00.14-.203.69.69 0 00.043-.26.53.53 0 00-.186-.432c-.123-.1-.312-.15-.568-.15h-.442v1.23h.003zm21.43.495v1.436h-.691v-3.68h1.133c.252 0 .47.025.65.078.18.05.328.125.444.219.114.09.2.203.253.335a1.149 1.149 0 01.028.78.953.953 0 01-.16.3c-.07.09-.155.168-.256.237a1.417 1.417 0 01-.347.163c.088.05.16.119.224.213l.93 1.358h-.791l-.871-1.315a.253.253 0 00-.098-.093.33.33 0 00-.155-.029h-.293v-.003zm0-.495h.429c.132 0 .243-.016.34-.05a.656.656 0 00.24-.135.534.534 0 00.14-.203.692.692 0 00.047-.26.53.53 0 00-.187-.432c-.123-.1-.312-.15-.568-.15h-.441v1.23zm46.877.495v1.436h-.69v-3.68h1.132c.253 0 .47.025.65.078.18.05.329.125.445.219a.86.86 0 01.256.335c.053.131.079.275.079.428a1.06 1.06 0 01-.47.89 1.45 1.45 0 01-.348.162.66.66 0 01.225.213l.93 1.358h-.792l-.867-1.315a.27.27 0 00-.095-.093.34.34 0 00-.155-.029h-.3v-.003zm0-.495h.43c.132 0 .243-.016.34-.05a.682.682 0 00.24-.135.534.534 0 00.14-.203.692.692 0 00.046-.26.53.53 0 00-.186-.432c-.123-.1-.312-.15-.568-.15h-.442v1.23zm-9.921.085v.516h.609v.67a1.7 1.7 0 01-.328.115c-.117.025-.253.04-.407.04-.177 0-.341-.03-.49-.09a1.052 1.052 0 01-.384-.263 1.186 1.186 0 01-.253-.42 1.656 1.656 0 01-.088-.566c0-.197.028-.375.085-.535a1.08 1.08 0 01.618-.673 1.28 1.28 0 01.5-.093c.113 0 .21.01.296.022.088.015.164.034.233.06.07.021.133.052.19.08.056.035.113.066.17.097l.186.123.297-.489a1.772 1.772 0 00-.562-.347 2.067 2.067 0 00-.789-.135c-.293 0-.561.044-.801.138-.237.09-.439.22-.606.385a1.752 1.752 0 00-.388.598 2.051 2.051 0 00-.136.76c0 .272.047.523.139.754a1.725 1.725 0 00.978.983c.227.094.477.14.748.14.151 0 .293-.009.426-.024.13-.016.256-.041.37-.072a1.809 1.809 0 00.618-.301v-1.49h-1.231v.016zm-8.969.303a.905.905 0 00-.192-.272 1.168 1.168 0 00-.275-.185 3.817 3.817 0 00-.312-.128 7.363 7.363 0 00-.316-.104 1.609 1.609 0 01-.274-.109.68.68 0 01-.196-.147.315.315 0 01-.072-.216.51.51 0 01.034-.188.387.387 0 01.11-.147.57.57 0 01.18-.094.841.841 0 01.25-.034c.107 0 .199.012.278.037.076.029.145.057.202.088l.151.088c.01.006.016.006.025.012l.158.116.259-.516a1.372 1.372 0 00-.473-.285 1.707 1.707 0 00-.606-.103c-.193 0-.366.028-.518.087-.151.06-.277.138-.382.238a.984.984 0 00-.316.73c0 .168.026.309.073.425.048.112.114.21.193.285.082.078.173.137.274.187.104.047.209.088.313.122.107.035.211.066.312.097.104.029.196.063.275.104a.637.637 0 01.192.153.373.373 0 01.073.235.499.499 0 01-.161.397c-.107.09-.259.138-.458.138a.936.936 0 01-.328-.053 1.543 1.543 0 01-.24-.116c-.066-.044-.126-.082-.173-.116a1.118 1.118 0 01-.02-.01l-.173-.128-.303.5a1.55 1.55 0 00.543.35 1.849 1.849 0 00.682.136c.205 0 .388-.031.546-.094.16-.063.293-.147.404-.253a1.141 1.141 0 00.337-.848.987.987 0 00-.076-.38zm31.27 0a.907.907 0 00-.467-.457 3.465 3.465 0 00-.315-.128 7.314 7.314 0 00-.316-.104 1.609 1.609 0 01-.274-.109.625.625 0 01-.193-.147.315.315 0 01-.072-.216.411.411 0 01.142-.335.515.515 0 01.18-.094.841.841 0 01.249-.034c.107 0 .198.012.277.037.076.029.145.057.202.088l.152.088c.01.006.015.006.025.012l.158.116.259-.516a1.372 1.372 0 00-.474-.285 1.707 1.707 0 00-.606-.103c-.195 0-.366.028-.517.087-.152.06-.278.138-.382.238a.984.984 0 00-.316.73c0 .168.026.309.073.425.047.112.114.21.192.285.08.078.174.137.275.187.104.047.208.088.312.122.108.035.212.066.313.097.104.029.195.063.274.104a.637.637 0 01.193.153.373.373 0 01.073.235.499.499 0 01-.161.397c-.108.09-.26.138-.458.138a.936.936 0 01-.328-.053 1.543 1.543 0 01-.24-.116c-.066-.044-.126-.082-.174-.116a1.118 1.118 0 01-.019-.01l-.173-.128-.303.5c.073.076.151.142.246.201a1.85 1.85 0 00.975.285c.205 0 .388-.031.546-.094.161-.063.294-.147.407-.253.11-.11.193-.235.25-.379.056-.144.085-.3.085-.47a.885.885 0 00-.07-.378z" fill="#fff"/></svg>