<svg width="60" height="60" fill="none" xmlns="http://www.w3.org/2000/svg"><path d="M32.225 27.75c-4.45-1.475-6.6-2.4-6.6-4.75 0-2.55 2.775-3.475 4.525-3.475 3.275 0 4.475 2.475 4.75 3.35l3.95-1.675c-.375-1.125-2.05-4.8-6.35-5.6v-3.1h-5v3.15c-6.2 1.4-6.225 7.15-6.225 7.4 0 5.675 5.625 7.275 8.375 8.275 3.95 1.4 5.7 2.675 5.7 5.075 0 2.825-2.625 4.025-4.95 4.025-4.55 0-5.85-4.675-6-5.225l-4.15 1.675c1.575 5.475 5.7 6.95 7.25 7.4V47.5h5v-3.1c1-.225 7.25-1.475 7.25-8.05 0-3.475-1.525-6.525-7.525-8.6zM7.5 52.5h-5v-15h15v5h-6.2c4.025 6.025 10.9 10 18.7 10 12.425 0 22.5-10.075 22.5-22.5h5c0 15.2-12.3 27.5-27.5 27.5-9.3 0-17.525-4.625-22.5-11.675V52.5zM2.5 30C2.5 14.8 14.8 2.5 30 2.5c9.3 0 17.525 4.625 22.5 11.675V7.5h5v15h-15v-5h6.2c-4.025-6.025-10.9-10-18.7-10C17.575 7.5 7.5 17.575 7.5 30h-5z" fill="#000"/></svg>