<svg width="48" height="50" fill="none" xmlns="http://www.w3.org/2000/svg"><path d="M26.465 0v4.964c10.61 1.34 18.127 11.243 16.821 22.138-1.111 9.034-8.024 16.158-16.821 17.274v4.964c13.293-1.489 22.84-13.75 21.39-27.375C46.597 10.399 37.727 1.24 26.464 0zM21.63 0c-4.736.447-9.207 2.358-12.88 5.46l3.456 3.822a19.071 19.071 0 019.426-4.17V0zM5.341 9.109C2.296 12.88.46 17.473 0 22.337h4.834c.459-3.524 1.812-6.875 3.963-9.68L5.341 9.11zM.024 27.3a25.276 25.276 0 005.341 13.23l3.432-3.55a20.148 20.148 0 01-3.94-9.68H.025zM12.11 40.629l-3.36 3.4a23.835 23.835 0 0012.882 5.61v-4.965c-3.432-.447-6.695-1.861-9.426-4.045h-.096zM26.465 27.3V12.41H21.63V27.3h4.834zm0 9.927v-4.963H21.63v4.963h4.834z" fill="#0092C6"/></svg>