<svg version="1.1" id="Capa_1" xmlns="http://www.w3.org/2000/svg" x="0" y="0" viewBox="0 0 500 500" xml:space="preserve"><style>.st1{fill:#0093c9}.st2{fill:#fff}.st4{fill:#626262}</style><g id="Social_insurance"><path d="M34.5 385.6c13.3 32.2 44.4 47.5 64.2 57.2 78.3 38.4 212.5 35.4 298-34.6 20-16.4 103.3-103.4 80.2-219.6C456.6 85.9 354.4 26.2 268.3 18.2 197 11.6 104 37.5 71.1 100.1c-20.7 39.4 4.2 51.9-12.6 141.2-14.6 77.3-40.2 104.9-24 144.3z" fill="#fcb70d"/><path d="M456.7 261.8h-.2c-.4-.1-.7-.5-.6-1 6.8-28.9 6.3-60.2-1.6-90.4-.1-.4.1-.9.6-1 .4-.1.9.1 1 .6 8 30.5 8.5 62 1.6 91.2-.1.3-.5.6-.8.6zm11.9-6.4h-.2c-.4-.1-.7-.5-.7-1 4.6-24.7 4.3-50.2-1-75.9-.1-.4.2-.9.6-1 .4-.1.9.2 1 .6 5.3 25.9 5.7 51.7 1 76.6 0 .5-.3.7-.7.7zM322 51.4c-.5 0-.8-.4-.8-.8v-4.2c0-.5.4-.8.8-.8s.8.4.8.8v4.2c0 .5-.4.8-.8.8zm0 9.9c-.5 0-.8-.4-.8-.8v-4.2c0-.5.4-.8.8-.8s.8.4.8.8v4.2c0 .4-.4.8-.8.8zm-2.8-7.1H315c-.5 0-.8-.4-.8-.8 0-.5.4-.8.8-.8h4.2c.5 0 .8.4.8.8 0 .5-.4.8-.8.8zm9.8 0h-4.2c-.5 0-.8-.4-.8-.8 0-.5.4-.8.8-.8h4.2c.5 0 .8.4.8.8 0 .5-.3.8-.8.8zM69.1 272.6c-.5 0-.8-.4-.8-.8v-4.2c0-.5.4-.8.8-.8.5 0 .8.4.8.8v4.2c0 .4-.4.8-.8.8zm0 9.8c-.5 0-.8-.4-.8-.8v-4.2c0-.5.4-.8.8-.8.5 0 .8.4.8.8v4.2c0 .5-.4.8-.8.8zm-2.8-7H62c-.5 0-.8-.4-.8-.8 0-.5.4-.8.8-.8h4.2c.5 0 .8.4.8.8.1.4-.3.8-.7.8zm9.8 0h-4.2c-.5 0-.8-.4-.8-.8 0-.5.4-.8.8-.8h4.2c.5 0 .8.4.8.8s-.3.8-.8.8zM74.8 46.1c-.5 0-.8-.4-.8-.8V41c0-.5.4-.8.8-.8s.8.4.8.8v4.2c0 .5-.4.9-.8.9zm0 9.8c-.5 0-.8-.4-.8-.8v-4.2c0-.5.4-.8.8-.8s.8.4.8.8v4.2c0 .4-.4.8-.8.8zm-2.8-7h-4.2c-.5 0-.8-.4-.8-.8 0-.5.4-.8.8-.8H72c.5 0 .8.4.8.8s-.4.8-.8.8zm9.8 0h-4.2c-.5 0-.8-.4-.8-.8 0-.5.4-.8.8-.8h4.2c.5 0 .8.4.8.8.1.4-.3.8-.8.8zm-20 20.9c-.4 0-.9-.1-1.3-.2-.9-.4-1.6-1.1-2-2-.8-1.9 0-4 1.9-4.9.9-.4 1.9-.4 2.8-.1.9.4 1.6 1.1 2 2 .8 1.9 0 4-1.9 4.9-.5.2-1 .3-1.5.3zm0-5.7c-.3 0-.5.1-.8.2-1 .5-1.5 1.7-1 2.7.2.5.6.9 1.1 1.1.5.2 1 .2 1.5 0 1-.5 1.5-1.7 1-2.7-.2-.5-.6-.9-1.1-1.1-.2-.2-.4-.2-.7-.2zm-1.1-.6z"/><path class="st1" d="M352.5 66.3l17.1-9.1c13.9-7.4 26.7-16.6 38.2-27.3l.6-5.3s5.9-.1 7.2-.2c1.6-.1 3.3.4 4.6 1.6 13.7 12.4 29 22.7 45.6 30.6l11.7 5.6c2.7 1.3 3.8 3.7 3.2 7.3L468.9 133c-5.6 17.9-30.6 42.3-44.8 55-2.6 2.3-5.8 3.5-9.1 3.6-1.4 0-7.4.4-7.4.4s-1.4-2.5-3.2-4.1c-13.9-13.1-38.4-38.3-44.2-58.6l-10.6-56.2c-.7-2.7.5-5.5 2.9-6.8z"/><path class="st2" d="M345.9 66.9l16.9-9c13.8-7.4 26.5-16.5 37.9-27.1l4.3-4c2.2-2.1 5.7-2.1 8 0 13.6 12.3 28.8 22.5 45.2 30.4l11.6 5.6c2.7 1.3 4.1 4.4 3.2 7.2l-11.7 63c-5.6 17.7-30.7 42.2-44.7 54.8-5.4 4.9-13.8 4.7-19.2-.4-13.8-13-38.1-38-43.8-58.1l-10.5-55.8c-.8-2.6.4-5.3 2.8-6.6z"/><path class="st1" d="M356.9 74l14-7.5c11.4-6.1 21.9-13.6 31.4-22.4l3.5-3.3c1.8-1.7 4.7-1.7 6.6 0C423.6 51 436.2 59.4 449.9 66l9.6 4.6c2.2 1.1 3.4 3.6 2.6 6l-9.7 52.2c-4.6 14.7-25.4 34.9-37 45.4-4.5 4.1-11.4 3.9-15.9-.3-11.4-10.7-31.6-31.5-36.3-48.1l-8.7-46.2c-.5-2.2.4-4.5 2.4-5.6z"/><path d="M407.3 192.2c-3.8 0-7.5-1.4-10.5-4.1-2.1-1.9-2.8-2.7-3.8-3.9-.8-.9-1.8-2-3.7-4.1-.3-.3-.3-.8 0-1.2.3-.3.8-.3 1.2 0 2 2.1 3 3.2 3.8 4.1 1 1.2 1.7 1.9 3.7 3.8 5.1 4.8 13 4.9 18.1.4 14.2-12.8 38.9-37 44.4-54.4l11.7-63v-.1c.8-2.4-.4-5.1-2.7-6.2l-11.6-5.6c-16.5-7.9-31.8-18.2-45.4-30.5-2-1.8-5-1.8-6.9 0l-4.3 4C389.8 42 377 51.2 363.2 58.5l-16.9 9c-2.1 1.1-3.1 3.5-2.4 5.8v.1l10.5 55.7c1.4 4.9 4 10.4 7.7 16.4.2.4.1.9-.3 1.1-.4.2-.9.1-1.1-.3-3.9-6.1-6.5-11.8-7.9-16.8v-.1l-10.5-55.7c-.8-3 .5-6.2 3.2-7.6l16.9-9c13.7-7.3 26.4-16.4 37.7-27l4.3-4c2.6-2.4 6.5-2.4 9.1 0 13.5 12.2 28.7 22.4 45 30.3l11.6 5.6c3 1.5 4.6 4.9 3.6 8.1l-11.7 63v.1c-5.6 17.8-30.6 42.2-44.9 55.2-2.7 2.6-6.2 3.8-9.8 3.8z"/><ellipse transform="rotate(-45.283 410.259 99.348)" class="st2" cx="410.3" cy="99.3" rx="21.6" ry="22"/><path d="M410.8 122c-.7 0-1.3 0-2-.1-12.5-1.1-21.9-12.1-21.1-24.5.4-6 3.1-11.5 7.7-15.4 4.6-3.9 10.4-5.8 16.5-5.3 12.5 1.1 21.9 12.1 21.1 24.5-.4 6-3.1 11.5-7.7 15.4-4.1 3.5-9.2 5.4-14.5 5.4zm-1-43.7c-4.9 0-9.6 1.7-13.4 4.9-4.2 3.6-6.7 8.7-7.1 14.2-.8 11.6 8 21.8 19.6 22.8 5.6.5 11-1.2 15.3-4.9 4.2-3.6 6.7-8.7 7.1-14.2.8-11.6-8-21.8-19.6-22.8-.6.1-1.3 0-1.9 0z"/><path class="st1" d="M421.3 84.7c-3.6 7.1-7.5 18-11.5 30.2-.2.5-.8.5-1 .1l-10.4-20.2c-.1-.3.2-.5.4-.3l8.5 7.7 13.6-17.7c.2-.3.6-.1.4.2z"/><path class="st2" d="M146.9 149.9c-.2-3.2 2-6.1 5.2-6.5 6.1-.9 12.2-2.3 17-6.4 5.8-5 13.1-11.6 20.8-13.2 1.1-.2 2.4-.4 3.2.4.9.9.4 2.5-.4 3.5-1.7 2.1-4.6 3.8-5.8 6.3-2.2 4.4 1.3 4.6 4.7 5.2 5.9.9 15.9 7.6 13.1 14.7-1.6 4.2-7.8 8.6-16.7 7.3-2.1-.3-11.8-3-11.8-3-2.2-.4-19.5 5.2-19.5 5.2-9.3 2.6-9.2-5.4-9.8-13.5z"/><path d="M153.4 164.7c-1.4 0-2.5-.3-3.4-1-3-2.1-3.4-7-3.7-12.2 0-.5-.1-1-.1-1.5-.3-3.6 2.3-6.9 5.9-7.4 5.9-.9 12-2.3 16.6-6.2l.9-.8c5.7-4.9 12.8-11 20.2-12.5.8-.2 2.8-.6 3.9.7 1.2 1.3.7 3.3-.4 4.6-.7.8-1.5 1.6-2.3 2.3-1.3 1.2-2.6 2.4-3.4 3.8-.4.8-.8 1.9-.5 2.5.4.9 2.3 1.1 4 1.4l.5.1c4.3.7 10.5 4.2 13.1 8.7 1.4 2.4 1.6 4.8.7 7.1-1.9 4.8-8.7 9.1-17.6 7.8-2.1-.3-11-2.8-11.9-3-1.4-.2-10.7 2.5-19 5.2-1.3.2-2.5.4-3.5.4zm-5.7-14.9c0 .5.1 1 .1 1.6.3 4.8.7 9.3 3 10.9 1.2.9 3.1.9 5.5.2 2.9-.9 17.6-5.6 19.8-5.2h.1c.1 0 9.7 2.7 11.7 3 8.1 1.2 14.2-2.6 15.9-6.8.7-1.8.5-3.7-.6-5.7-2.3-4-8-7.3-11.9-7.9l-.5-.1c-2.2-.3-4.4-.7-5.2-2.2-.5-1-.4-2.3.4-4 .9-1.7 2.3-3.1 3.7-4.3.8-.7 1.6-1.4 2.2-2.2.6-.7 1-1.9.5-2.4s-1.5-.4-2.4-.2c-7.1 1.5-14 7.4-19.5 12.2l-.9.8c-4.9 4.2-11.2 5.6-17.4 6.6-2.7.5-4.7 3-4.5 5.7z"/><path class="st1" d="M183.6 16.9c-.1-1.1-1.1-1.9-2.4-1.9-1.5 0-2.6 1.1-2.5 2.3L194 167.9c.5 4.9-3.8 9.3-9.6 9.9-5.8.6-10.9-2.9-11.4-7.8l-.3-2.5c-.1-1.1-1.3-1.9-2.6-1.8-1.3.1-2.3 1.2-2.2 2.3l.2 2.4c.7 7.2 8.2 12.4 16.8 11.5h-.3c8.5-.9 14.8-7.4 14.1-14.6L183.6 16.9z"/><path class="st1" d="M322.7 88.3C300.3 45 243.7 18 180.6 24.4c-63.1 6.4-113.2 44.2-126.4 91.2h.1c13.1-12.7 30.5-11.6 47.9-5l.4.1c16.5-16 38.3-13.3 53.2-5.4h.2l1.8.6c22-11.7 40.9-16.1 63.3-7.2 13.6-9.4 33.2-14.9 53.1-5.4h.1l.3-.1c11.3-9.4 30.9-12.1 47.8-4.9h.3z"/><path d="M103.7 104.8h-.2c-.4-.1-.7-.5-.6-1 4.3-21.6 13.8-40.5 27.5-54.9.3-.3.8-.3 1.2 0 .3.3.3.8 0 1.2-13.5 14.1-22.8 32.9-27.1 54.1-.1.3-.4.6-.8.6zm31.2-58.4c-.2 0-.4-.1-.6-.3-.3-.3-.3-.8 0-1.2 3.6-3.4 7.5-6.4 11.5-9.1.4-.2.9-.1 1.1.2.2.4.1.9-.2 1.1-3.9 2.6-7.7 5.6-11.3 8.9-.1.4-.3.4-.5.4zm104.6-2.6c-.2 0-.4-.1-.5-.2-11.9-9.6-25.5-15.8-39.4-17.9-.4-.1-.8-.5-.7-.9.1-.4.5-.7.9-.7 14.2 2.2 28 8.5 40.1 18.3.4.3.4.8.1 1.1 0 .2-.3.3-.5.3zm28 34.8c-.3 0-.6-.2-.7-.4-6.2-11.8-14-22.1-23.2-30.5-.3-.3-.4-.8-.1-1.2.3-.3.8-.4 1.2-.1 9.3 8.6 17.3 19 23.5 30.9.2.4.1.9-.3 1.1-.1.1-.2.2-.4.2zM155.9 97.9c-.1 0-.1 0 0 0-.5 0-.8-.4-.8-.8.3-16.3 2-31.1 4.9-43 .1-.4.6-.7 1-.6.4.1.7.5.6 1-2.8 11.8-4.5 26.5-4.9 42.7 0 .3-.4.7-.8.7zm6.5-49h-.2c-.4-.1-.7-.6-.5-1 1.7-5.5 3.6-10.1 5.8-13.8.2-.4.7-.5 1.1-.3.4.2.5.7.3 1.1-2.1 3.6-4 8.1-5.6 13.5-.2.3-.6.5-.9.5zm42.7-.2c-.3 0-.6-.2-.7-.5-2.3-4.8-4.8-9-7.3-12.3-.3-.4-.2-.9.2-1.1.4-.3.9-.2 1.1.2 2.5 3.5 5 7.7 7.4 12.6.2.4 0 .9-.4 1.1h-.3zM219.5 92c-.4 0-.7-.3-.8-.6-3.4-14.9-7.7-28.5-12.5-39.2-.2-.4 0-.9.4-1.1.4-.2.9 0 1.1.4 4.8 10.8 9.2 24.5 12.6 39.5.1.4-.2.9-.6 1h-.2z"/><path class="st2" d="M189.3 156.1c3 .5 7.7.1 12.9-3 5.5-3.2 6-12.2 3.3-15.7-3.9-5-11.3-1.8-15.8.8-3.6 2.1-7.2 6.5-7.3 9.7-.2 4.9 1.4 7.3 6.9 8.2z"/><path d="M200.1 159.8c-.2 0-.4-.1-.6-.2-.3-.3-.3-.8 0-1.2 2.6-2.8 3.1-3.4 3.2-3.4 5.1-6.4 5-13.6 2.3-17.1-.1-.2-.5-.6-.7-.8-2.8-2.6-7.5-2-14.1 1.8-3.6 2.1-6.8 6.3-6.9 9-.2 4.7 1.4 6.6 6.3 7.4 2.7.5 6.3-.1 9.6-1.5.4-.2.9 0 1.1.4.2.4 0 .9-.4 1.1-5.2 2.2-9.1 1.8-10.5 1.6-5.7-1-7.8-3.5-7.6-9.1.2-3.7 4.1-8.3 7.8-10.3 7.3-4.2 12.6-4.7 16-1.6l.9.9c3.1 4 3.4 12.1-2.3 19.1-.1.1-.7.8-3.3 3.5-.4.3-.6.4-.8.4z"/><path d="M61.8 144.6c43.2 6.5 35.7 4.3 88.3-3.3 1.1-.2 2.1.6 2.2 1.7l3.2 20.8c.2 1.3-.5 2.6-1.7 3.2-44.9 21.5-49.2 22.2-91.1 34" fill="#fff" stroke="#0093c9" stroke-width="2" stroke-miterlimit="10"/><path class="st2" d="M282.3 425.2l1.9 13.8 9.5.8-.6-16.5z"/><path d="M293.7 440.6c-.1 0-.1 0 0 0l-9.5-.8c-.4 0-.7-.3-.7-.7l-1.9-13.8c-.1-.4.2-.8.7-.9l10.8-1.9c.2 0 .5 0 .7.2.2.1.3.4.3.6l.6 16.4c0 .2-.1.5-.3.6-.3.2-.5.3-.7.3zm-8.7-2.4l7.8.6-.5-14.6-9.1 1.6 1.8 12.4z"/><path class="st1" d="M294.1 464.4c-3.9.4-10.3.7-17.8-.5-2.5-.4-4-2.8-3.4-5.2 1.8-6.7 5-19.4 10.1-25.2l1.1 3.2 1.8-3c.2-.4.7-.7 1.1-.7l2.6-.1c.8-.1 1.5.5 1.6 1.2l.5 2.8 3-3.9.8 10.8c.2 3.4.7 6.9 1.3 10.3l1 5.7c.2 2.3-1.5 4.4-3.7 4.6z"/><path d="M287 465.6c-3.2 0-6.9-.2-10.9-.9-1.4-.2-2.7-1.1-3.4-2.3-.8-1.2-1-2.6-.6-4l.4-1.4c1.9-6.9 5-18.5 9.9-24 .2-.2.5-.3.8-.3.3.1.5.3.6.5l.5 1.6.9-1.5c.4-.6 1-1 1.8-1.1l2.7-.1c1.1-.1 2.2.7 2.5 1.9l.2 1 1.8-2.4c.2-.3.6-.4.9-.3.3.1.6.4.6.7l.8 10.8c.2 3.4.7 6.8 1.3 10.2l1 5.7v.1c.3 2.7-1.7 5.2-4.4 5.5-2.2.1-4.6.3-7.4.3zm7.1-1.2zm-11.4-29.2c-4.1 5.6-6.9 15.9-8.6 22.3l-.4 1.5c-.3.9-.1 1.9.4 2.7.5.8 1.4 1.4 2.3 1.5 7.3 1.2 13.6.9 17.6.5 1.8-.2 3.1-1.8 3-3.7l-1-5.6c-.6-3.4-1-6.9-1.3-10.3l-.6-8.7-1.6 2.1c-.2.3-.5.4-.8.3-.3-.1-.6-.3-.6-.6l-.5-2.8c-.1-.3-.4-.6-.7-.5l-2.7.1c-.2 0-.4.1-.5.3l-1.8 3c-.2.3-.5.4-.8.4-.3 0-.6-.2-.7-.5l-.7-2z"/><path d="M284.5 461.1c-2.8 0-6-.3-9.1-1.1-.4-.1-.7-.6-.6-1 .1-.4.6-.7 1-.6 9.1 2.3 18.7-.1 18.8-.1.4-.1.9.2 1 .6.1.4-.2.9-.6 1-.3.1-4.8 1.2-10.5 1.2zm-3.1-10.4c-.4 0-.8-.4-.8-.8 0-.5.4-.8.8-.8h8.8c.4 0 .8.4.8.8 0 .5-.4.8-.8.8h-8.8z"/><path class="st2" d="M325.9 416.3l2.2 20.1 11.2-.4-.2-20.2z"/><path d="M328.1 437.2c-.4 0-.8-.3-.8-.7l-2.1-20.2c0-.2 0-.5.2-.6.1-.2.4-.3.6-.3l13.2-.5c.2 0 .4.1.6.2.2.2.3.4.3.6l.2 20.2c0 .4-.3.8-.8.8l-11.4.5zm-1.3-20.2l1.9 18.5 9.7-.3-.2-18.6-11.4.4z"/><path class="st1" d="M325.5 448c0 1.9 1.4 3.5 3.3 3.9 6.5 1.3 21.3 4.1 25.4 4.6 5.4.6 13.3-1.6 14.8-4.5 1.9-3.8-6.8-10.5-11.3-13.1-6.7-3.9-13.2-11.7-15.9-12-2.6-.3-7.3 7.5-7.3 7.5l-8.1-3.1c.1 0-1.1 6.9-.9 16.7z"/><path d="M356.2 457.4c-.7 0-1.4 0-2.1-.1-4.2-.5-19.3-3.4-25.5-4.6-2.2-.4-3.9-2.4-3.9-4.7-.2-9.7 1-16.7 1-16.8 0-.2.2-.5.4-.6.2-.1.5-.1.7-.1l7.5 2.8c1.3-2.1 5-7.6 7.7-7.3 1.5.2 3.5 1.9 6.9 4.9 2.8 2.5 6 5.3 9.3 7.2 3.7 2.2 13.9 9.4 11.6 14.2-1.6 3-8.2 5.1-13.6 5.1zm-29.9-9.5c0 1.5 1.1 2.8 2.6 3.1 6.2 1.2 21.2 4.1 25.4 4.6 5.3.6 12.7-1.6 13.9-4.1 1.4-2.9-5.6-8.9-10.9-12-3.4-2-6.7-4.9-9.5-7.4-2.4-2.1-4.9-4.4-6-4.5-1.3-.1-4.4 3.6-6.5 7.1-.2.3-.6.5-1 .3l-7.2-2.7c-.3 2.4-.9 8.2-.8 15.6z"/><path d="M356.3 452.4c-10.6 0-25.7-3.8-28.1-4.4-.4-.1-.7-.6-.6-1 .1-.4.6-.7 1-.6 8.8 2.3 32.4 7.2 36 2.4.3-.4.8-.4 1.1-.2.4.3.4.8.2 1.1-1.4 2-5.1 2.7-9.6 2.7zm-12.4-10.5c-.2 0-.4-.1-.6-.2-.3-.3-.3-.8 0-1.2l5.6-5.4c.3-.3.8-.3 1.2 0 .3.3.3.8 0 1.2l-5.6 5.4c-.2.1-.4.2-.6.2zm-68.3-175.4s-2.6 82.9-3.7 104.8c-.9 17.6 3.7 43.6 5.5 53.1.4 2.1 2.3 3.5 4.4 3.3l9.9-.9c2.1-.2 3.8-2 3.8-4.1 0-8.3-.1-28.3.2-41.5.1-5.4 1.1-10.8 2.9-16 2.1-6.1 5-15.4 6-24.1 1.7-14.4 8.3-37.3 8.3-37.3s8.7 97.8 10.6 118.4c.2 1.8 1.8 3.2 3.6 3.1 3.7-.2 8.7.5 12.4-1 1.1-.4 2-1.5 2.2-2.7 1.3-8 7.6-43.6 5.8-63.2-2-22.4-3.6-96.6-3.6-96.6l-68.3 4.7z"/><path class="st2" d="M264.1 270.3s26.4 7.7 50.3 8.7c14.1.6 23.5-3.6 23.5-3.6l-13.4-108.8s-.7-8.5-15.7-12.5c-8-2.1-14.1 7.1-14.1 7.1l-30.6 109.1z"/><path class="st1" d="M331.3 167.7c-6.7-9.6-17.4-12.5-30-13.2-4.8-.3-8.8 1.6-12.2 4.7-6.4 2.5-15.9 6.9-19.2 12.4-3 5.1-17.1 20.7-20.6 18.6-10.2-6.1-30.1-.2-19.6 15.1 10.6 15.4 29.4 10.4 40 6.6-.6 2.1-1.2 4.2-1.8 6.2-3.3 10.3-6.3 69.5-6.3 69.5 4.5 3.1 15.4 9.6 15.4 9.6 9-41.6 5.1-44.9 7-71 1.5-21.9 5.2-26.1 8.5-49.8.5-3.6-.2-8.9 3.2-16 1.2-2.6 23.9 5.9 25.6 8.2 7 9.7-1 38.7-.6 51.8.7 19.4 3.3 39.6 4.3 44.3 2 9.9 1.3 27.5 1.3 27.5 8.7.4 14.2-2.6 18.1-6.2 2.6-2.4 3.6-6.1 2.7-9.6l-1.3-4.9c-1-3.8-1.5-7.8-1.5-11.7 0-2.4-.1-5.5-.4-9.2-.7-8.7-4-19.2-4-19.2s2.7 3.2 11.9 6.8c9.1 3.6 12.4-11.7 13.5-23.2 3.6-37.6-34-47.3-34-47.3z"/><path d="M277.1 298c-.1 0-.3 0-.4-.1-.1-.1-11.1-6.5-15.5-9.6-.2-.2-.4-.4-.3-.7.1-2.4 3-59.5 6.3-69.7.5-1.4.9-3 1.4-4.6-7.2 2.5-13.3 3.6-18.8 3.5-8.9-.2-15.9-3.9-20.7-10.9-5.3-7.7-2.7-12.4-.7-14.5 4.6-4.9 14.8-5.8 21.4-1.8.2.1.5.1.9 0 4.6-1.2 15.8-13.5 18.6-18.3 3.2-5.5 12.3-10 19.4-12.7 3.8-3.5 8.1-5.1 12.7-4.8 10.2.6 22.8 2.7 30.4 13.4 1.7.5 10.2 3.1 18.4 9.6 8.3 6.6 17.9 18.7 16 38.5-.8 8.9-3 20.1-8.4 23.5-1.9 1.2-4 1.3-6.3.4-5.1-2-8.2-3.8-10-5.2 1 3.7 2.8 10.7 3.3 16.8.2 3.1.4 6.2.4 9.2 0 3.9.5 7.8 1.5 11.5l1.3 4.9c1 3.8-.1 7.7-2.9 10.4-5 4.7-11.1 6.8-18.7 6.4-.4 0-.8-.4-.8-.8 0-.2.7-17.6-1.2-27.3-1-4.8-3.6-25.1-4.3-44.5-.2-4.5.7-10.8 1.5-17.5 1.7-13 3.6-27.7-.8-33.8-.6-.8-5.6-3.2-11.9-5.4-7.8-2.7-11.6-3.2-12.3-2.9-2.5 5.3-2.7 9.4-2.9 12.8-.1 1.1-.1 2.1-.2 3-1.4 10.4-3 17.2-4.3 23.2-1.8 7.7-3.3 14.4-4.1 26.6-.6 7.9-.6 13.7-.6 19.2-.1 12.3-.1 22.9-6.4 51.9-.1.3-.2.5-.5.6-.3-.3-.4-.3-.5-.3zm-14.6-10.8c3.8 2.6 11.4 7.1 14 8.7 6-28 6-38.4 6.1-50.4 0-5.6.1-11.3.6-19.3.9-12.3 2.4-19.1 4.2-26.9 1.3-5.9 2.9-12.7 4.3-23 .1-.8.2-1.8.2-2.8.2-3.3.4-7.9 3.1-13.4.3-.5.8-.8 1.7-.9 4.9-.4 23.6 6.6 25.3 9 4.8 6.7 2.9 21.7 1.1 35-.9 6.6-1.7 12.9-1.5 17.2.7 19.3 3.3 39.4 4.3 44.2 1.7 8.8 1.4 23.3 1.3 26.9 6.7.2 12.2-1.8 16.7-6 2.4-2.2 3.3-5.6 2.5-8.7l-1.3-4.9c-1-3.9-1.5-7.9-1.5-11.9 0-2.9-.1-6-.4-9.1-.7-8.5-4-19-4-19.1-.1-.4 0-.8.4-1 .3-.2.8-.1 1 .2 0 0 2.8 3.1 11.5 6.5 1.8.7 3.4.6 4.8-.3 3.8-2.3 6.5-10.2 7.6-22.2 1.4-15.3-3.7-27.8-15.4-37.1-8.7-6.9-18-9.4-18.1-9.4-.2 0-.4-.2-.5-.3-5.7-8.1-14.4-12-29.3-12.9-4.2-.2-8.1 1.3-11.6 4.5-.1.1-.2.1-.3.2-5.6 2.2-15.6 6.6-18.7 12.1-2.7 4.6-14.4 17.7-19.6 19.1-.9.2-1.6.2-2.2-.2-5.9-3.5-15.3-2.8-19.4 1.5-2.9 3.1-2.6 7.4.9 12.4 7.6 11 20.3 13.1 39 6.3.3-.1.6 0 .8.2.2.2.3.5.2.8-.6 2.3-1.2 4.4-1.8 6.2-3 9.5-5.8 63.3-6 68.8z"/><path class="st2" d="M305.6 140.5l-3.2 12.1c-5.7 4.4-7.7 10.7-7.7 10.7 6.2 8.4 13 9 23.4 4.6 1.8-.8 2.4-3 1.3-4.6-1.3-1.7-2.5-4.1-2.5-6.8l3.7-22.6-15 6.6z"/><path d="M307.2 171.4c-5.2 0-9.3-2.5-13.1-7.6-.2-.2-.2-.5-.1-.7.1-.3 2-6.5 7.7-11l3.1-11.8c.1-.2.2-.4.5-.5l14.9-6.5c.3-.1.6-.1.8.1.2.2.4.5.3.8l-3.7 22.5c0 2.1.8 4.2 2.4 6.3.7 1 .9 2.2.6 3.3-.3 1.2-1.1 2.1-2.2 2.5-4.3 1.7-8 2.6-11.2 2.6zm-11.6-8.2c5.6 7.3 11.7 8.4 22.1 4 .6-.3 1.1-.8 1.3-1.5.2-.7 0-1.3-.4-1.9-1.8-2.4-2.7-4.8-2.7-7.3v-.1l3.5-21.1-13.2 5.8-3.1 11.7c0 .2-.2.3-.3.4-4.6 3.6-6.7 8.5-7.2 10zm6.8-10.6z"/><path d="M298.5 109.4c4.6 0 .5 5 17.1.8 6.8-1.7 3 6 4.8 5.6 6.6-1.5 8.8.7 10.3 1.9 1.7 1.4 3.2 4.6 2.7 7.4-.7 3.8-5.8 4.7-9 12.5-2.2 5.5-1.9 9-4.2 9.7-2.3.7-3.9-2.4-6.5-1.8-3.4.8-3 6.5-6.3 8.7-2.1 1.4-6.9 1.9-14.3-2.2-1.2-.7-1.8-2.1-1.3-3.4.6-1.7 1.3-3.8 2.1-5.7 4-9.3 7.5-11.3 6.4-13.8-1.7-3.9-9-2.1-10-5.2-1.1-3.2 1.9-14.4 8.2-14.5z"/><path class="st2" d="M313 128.7c-.7 1.1-1.3 2.3-1.8 3.5-1 2.3-2.6 6.1-3.8 8.2-1.4 2.6-9-.3-11.4-1.3-.4-.2-.6-.6-.4-1l1-2.2-1.9-.6c-.2-.1-.4-.3-.6-.5-.4-.5-.3-1.1 0-1.6 1.8-2.4 4.9-6.2 6.6-11.1.2-.5.6-.9 1.1-.9 1.8-.2 6.1-.1 10.1 2.9 1.6 1.1 2 3.1 1.1 4.6z"/><path d="M304.8 142.2c-2.6 0-6.1-1.1-9.1-2.4-.4-.2-.7-.5-.8-.9-.2-.4-.1-.8.1-1.2l.6-1.4-1.1-.4c-.4-.2-.7-.4-.9-.7-.5-.8-.5-1.8 0-2.6l.5-.7c1.8-2.3 4.5-5.9 6-10.2.3-.8 1-1.4 1.9-1.4 1.8-.1 6.4-.1 10.7 3.1 1.8 1.3 2.2 3.7 1.1 5.6-.7 1.1-1.2 2.2-1.7 3.4-.9 2.2-2.7 6.1-3.8 8.2-.7 1.2-1.9 1.6-3.5 1.6zm-8.3-3.8c5.4 2.2 9.6 2.8 10.3 1.6 1.1-2.1 2.8-6 3.7-8.1.5-1.2 1.1-2.4 1.8-3.6.7-1.2.4-2.6-.7-3.5-3.8-2.9-7.9-2.9-9.5-2.7-.2 0-.4.2-.4.4-1.6 4.6-4.4 8.3-6.3 10.7l-.5.7c-.1.2-.1.4 0 .6 0 .1.1.1.2.2l2.7.8-1.3 2.9z"/><path class="st2" d="M313.6 137.4c4.6 2.1 6.7-2.1 5.9-4.9-.3-1.2-1.9-1.4-2.6-.5l-3.5 4.5c-.3.4-.2.8.2.9z"/><path d="M220.5 150.6c5.6-6.1 14-7.4 20.3-5.7 8 2.2 12 9.1 14.8 13.9 5 8.6 2.6 11.7 6.5 16.7 7 8.8 23.9 3 32.1 9.8 19.8 16.3 9 43.3-8.5 56-11.7 8.5-27.6 3.6-32 2.2-13.1-4.1-34.9-12-37-31-1.4-12.8 11.6-23 4.6-33.6-1.8-2.7-3.3-3.4-4.6-6.8-2-5.4-2.5-14.6 3.8-21.5z"/><path d="M241.1 152.1c-3-2.4-1.1-9.6.8-13.5.7-1.4 3.9-7.9 8.2-7.7 4.3.3 8.5 7.5 7 13.3-2 7.3-12.5 10.8-16 7.9z"/><path class="st2" d="M200.7 227.5s-5.6 25.8-7.2 37.7c-1.6 12 1.1 28 6.2 24.1 5.1-3.9 13.8-54.4 13.8-54.4l-12.8-7.4z"/><path d="M198.2 290.7c-.5 0-1-.2-1.3-.4-3.9-2.2-5.4-15.4-4.1-25.2 1.5-11.9 7.1-37.5 7.2-37.8.1-.3.2-.5.5-.6.2-.1.5-.1.7 0l12.8 7.4c.3.2.5.5.4.8-.9 5.2-9 51-14.1 55-.8.6-1.5.8-2.1.8zm3.1-62c-1.1 5-5.6 26.2-6.9 36.6-1.3 9.8.4 22 3.3 23.6.3.2.8.3 1.5-.3 3.5-2.7 9.9-33.2 13.4-53.4l-11.3-6.5z"/><path class="st1" d="M292.8 231.3c-1.5-5-3.3-11.1-4.9-15.5-5.5-15-17-18.4-21.4-19.5-.7-.2-8.6-1.2-8.6-1.2-8.9-2.3-21.3-3.4-35.7 1.2-.5.1-.9.3-1.3.5-10.2 2.4-19.5 24.2-22 30.7-.4 1 0 2.2 1 2.8l7.1 4-9.1 52.6c-.7 5.6.7 20.4 6 22.4 5.5 2.1 20-5.3 31.8-5.3 12.7 0 28-.1 33.1-2.3.2-.1-.5 8.5-.4 8.4 6.6-3.1 11.4-18.7 10.7-25.9l-2.7-11.3c-2.2-9.1-3.5-18.5-4-27.8l10.8 4.4 5-2.9c4.3-3.6 6.2-9.7 4.6-15.3z"/><path d="M268.1 311c-.2 0-.3 0-.5-.1-.5-.3-.5-.3-.2-5 .1-.9.1-2.1.2-2.9-5.8 1.8-18.5 2-32.3 2-5.6 0-12 1.7-17.6 3.3-6.1 1.7-11.5 3.1-14.5 2-6.2-2.3-7.1-18.5-6.5-23.3l9.1-52.1-6.6-3.8c-1.3-.8-1.9-2.4-1.3-3.8 2.6-6.7 12-28.6 22.5-31.2.5-.2.9-.4 1.3-.5 12.2-3.9 24.3-4.3 36-1.3.8.1 8 1.1 8.7 1.2 10.7 2.6 18.1 9.3 22 20 1.3 3.7 3 8.9 5 15.6 1.7 6-.3 12.3-5.2 16.2 0 0-.1 0-.1.1l-5 2.9c-.2.1-.5.1-.7.1l-9.6-4c.5 8.9 1.8 17.8 3.9 26.4l2.7 11.3v.1c.7 7.8-4.2 23.5-11.2 26.8h-.1zm-47.3-113.4c-9.8 2.4-18.8 23.7-21.4 30.2-.3.7 0 1.4.6 1.8l7.1 4c.3.2.5.5.4.8l-9.1 52.6c-.6 5.5.8 19.7 5.5 21.5 2.6 1 7.9-.5 13.5-2 5.7-1.6 12.2-3.3 18-3.3 11 0 27.6 0 32.8-2.3.3-.1.6-.1.8.1.4.3.4.3.1 4.9-.1.9-.1 1.9-.2 2.7 5.5-4.1 9.6-17.6 9.1-24.3l-2.7-11.3c-2.2-9.1-3.6-18.6-4-28 0-.3.1-.5.3-.7.2-.2.5-.2.8-.1l10.5 4.3 4.6-2.7c4.3-3.4 6.1-9.1 4.6-14.4-1.9-6.6-3.6-11.8-4.9-15.5-3.7-10.2-10.7-16.5-20.9-19-.5-.1-5.4-.8-8.4-1.2h-.2c-11.5-3-23.4-2.6-35.3 1.2-.4.1-.8.3-1.3.5-.1.2-.2.2-.3.2z"/><path class="st2" d="M232.5 413.5l7.8 23.4s-8.5-.7-9.3-.6c-.8.2-10.8-21.3-10.8-21.3l12.3-1.5z"/><path d="M240.3 437.6c-4.1-.3-8.6-.7-9.2-.6-.8.2-1.1.2-6.6-11-2.6-5.3-5.1-10.7-5.1-10.7-.1-.2-.1-.5 0-.7.1-.2.4-.4.6-.4l12.3-1.5c.4 0 .7.2.9.6l7.8 23.4c.1.3 0 .5-.1.8-.1 0-.3.1-.6.1zm-8.9-2.2c1.5 0 5.2.3 7.7.5l-7.2-21.5-10.5 1.3c3.4 7.3 8.6 18.1 9.9 19.8 0-.1.1-.1.1-.1zm-.5.1c-.1 0-.1 0 0 0-.1 0-.1 0 0 0z"/><path class="st4" d="M238.5 431.7s-11.8-4.8-13.9 1.2c-2.8 7.7-7.1 19.5-7.1 19.5-.7 2 .7 4.2 2.8 4.4 4.3.3 10.7.6 13.7-.4 4.7-1.7 12.5-16.6 12.5-16.6l-2.4-12.7c.1 0-4.2-.6-5.6 4.6z"/><path d="M227.2 457.9c-2.4 0-4.8-.1-7-.3-1.3-.1-2.4-.8-3.1-1.9-.7-1.1-.9-2.4-.4-3.6 0-.1 4.4-11.8 7.1-19.5.5-1.4 1.4-2.3 2.8-2.9 3.6-1.6 9.3.1 11.4.9 1.8-4.9 6.2-4.4 6.3-4.4.3 0 .6.3.7.7l2.4 12.7c0 .2 0 .4-.1.5-.8 1.6-8.1 15.3-13 17-1.7.6-4.3.8-7.1.8zm3-27.2c-1.1 0-2.1.1-2.9.5-.9.4-1.5 1.1-1.9 2-2.7 7.6-7.1 19.3-7.1 19.5-.3.7-.2 1.5.3 2.2.4.7 1.1 1.1 1.9 1.1 6.4.5 11.2.4 13.4-.4 3.5-1.2 9.7-11.7 12-15.9l-2.2-11.8c-1.1.1-3.3.6-4.2 4-.1.2-.2.4-.4.5-.2.1-.5.1-.7 0-.2 0-4.6-1.7-8.2-1.7z"/><path d="M232.6 452.5h-12.1c-.5 0-.8-.4-.8-.8 0-.5.4-.8.8-.8h12.1c.5 0 .8.4.8.8s-.4.8-.8.8z"/><path class="st2" d="M254.7 419.2l-2.7 23.5-10.7-2.9.8-21.2z"/><path d="M252 443.5h-.2l-10.7-2.9c-.4-.1-.6-.4-.6-.8l.8-21.2c0-.2.1-.4.3-.6.2-.1.4-.2.6-.2l12.5.6c.2 0 .4.1.6.3.1.2.2.4.2.6l-2.7 23.5c0 .2-.2.5-.4.6-.1.1-.2.1-.4.1zm-9.8-4.3l9.2 2.5 2.5-21.7-10.8-.5-.9 19.7z"/><path class="st4" d="M253 460h-16.9c-2.3 0-4-2-3.7-4.3.6-3.8 2.4-10.2 7.9-18.9.6-1 1.7-1.5 2.8-1.5h5.1c.9 0 1.6.7 1.7 1.6l.4 3.7 1.6-1.6c.6-.6 1.7-.4 2 .4 1 3 2.8 9.4 2.9 16.8 0 2.1-1.7 3.8-3.8 3.8z"/><path d="M253 460.8h-16.9c-1.3 0-2.6-.6-3.5-1.6-.9-1-1.3-2.3-1.1-3.7.6-3.9 2.4-10.3 8-19.2.8-1.2 2.1-1.9 3.5-1.9h5.1c1.3 0 2.4 1 2.5 2.3l.2 2 .3-.4c.5-.5 1.2-.7 1.9-.6.7.2 1.2.6 1.4 1.3 1 3.2 2.8 9.6 3 17 0 1.2-.4 2.4-1.3 3.3-.7 1-1.8 1.5-3.1 1.5zm-9.9-24.7c-.8 0-1.6.4-2.1 1.2-5.5 8.6-7.3 14.9-7.8 18.6-.1.8.1 1.7.7 2.3.6.6 1.4 1 2.2 1H253c.8 0 1.5-.3 2.1-.9.6-.6.9-1.3.8-2.1-.1-7.2-1.9-13.4-2.9-16.5-.1-.2-.2-.2-.3-.2-.1 0-.2 0-.3.1l-1.6 1.6c-.2.2-.6.3-.9.2-.3-.1-.5-.4-.5-.7l-.4-3.7c0-.5-.4-.8-.9-.8h-5z"/><path d="M253.2 456.8h-17.1c-.5 0-.8-.4-.8-.8 0-.5.4-.8.8-.8h17.1c.5 0 .8.4.8.8s-.3.8-.8.8z"/><path class="st2" d="M214.5 278.2c.4-1.1 1.3-1.9 2.5-2.3 6.2-1.9 27.8-7.1 50 7.2 1 .7 1.7 1.8 1.8 3 .8 11.3 3.8 70.3-14.9 140.2l-12.6-.9-2.6-119.5s-18.6 43.8-3.5 113.5l-13.1 2.4s-19.1-25.2-22.6-63.6c-2.9-34 11.6-71.8 15-80z"/><path d="M250.7 371.1c-.4 0-.8-.3-.8-.8s.3-.8.8-.9c10.5-.5 11.7-15.1 11.7-15.3 0-.5.4-.8.9-.8s.8.4.8.9c-.1.2-1.5 16.4-13.4 16.9zm-13.1-53.4c-.5 0-.8-.4-.8-.8l.3-11.3c.1-2-.9-3.8-2.5-5l-4.9-3.4c-.4-.3-.5-.8-.2-1.1.3-.4.8-.5 1.1-.2l4.9 3.4c2.1 1.5 3.3 3.8 3.2 6.4l-.3 11.3c.1.3-.3.7-.8.7z" fill="#cddbfd"/><path class="st2" d="M269.2 237.7s10 25.3 0 53.2c0 0-9.6 4.3-12.9 6.9-3.3 2.6-3.7 9-3.7 9s4.8-3.9 8.7-3.8c3.9.1 9.7-2.1 9.8-6.5 0 0 17.2-19.6 17.6-34.7.5-16.8-.7-28.4-2.1-32.8-.2-.8-1-1.2-1.8-1.1-7.3 1.4-14.3 3.7-15.6 9.8z"/><path d="M252.5 307.7c-.1 0-.3 0-.4-.1-.3-.1-.5-.5-.4-.8 0-.3.5-6.8 4-9.6 3-2.4 11.1-6 12.8-6.8 9.5-27.2-.1-52.1-.2-52.3-.1-.1-.1-.3 0-.5 1.5-6.9 9.4-9.2 16.2-10.4 1.2-.2 2.4.5 2.7 1.7 1.3 4.1 2.6 15.2 2.1 33.1-.4 14.5-15.6 32.7-17.6 35-.4 4.7-6.3 7.1-10.6 7h-.1c-3.5 0-8 3.6-8 3.6-.1 0-.3.1-.5.1zm17.5-70c1 2.7 9.4 27.1 0 53.6-.1.2-.2.4-.4.5-.1 0-9.6 4.3-12.8 6.8-1.9 1.5-2.8 4.6-3.2 6.6 1.8-1.2 4.9-2.9 7.6-2.8 3.6.1 8.9-1.9 9-5.7 0-.2.1-.4.2-.5.2-.2 17-19.6 17.4-34.1.5-17.7-.8-28.6-2-32.6-.1-.4-.5-.6-.9-.5-6.2.9-13.5 2.9-14.9 8.7zm-.8 53.3z"/><path class="st2" d="M243.9 166.6c-.5.2-1 0-1.1-.5-.6-2.4-2.9-6.2-5.9-7.2-3.7-1.4-8.3-.7-9.7 2.1-1.2 2.5-.5 4.1-3.8 7.1-.3.3-.1.8.2 1.1l1.6 1.7c.3.3.5 1.3.5 1.8 0 1.5-.2 4.6.2 5 .9.9 5.8 1.2 5.8 1.2l2.2 13.9c.1.5-.3 1-.8 1.1l-4.8 1s3.1 5.7 14.8 6.4c7.5.4 17.1-4.5 17.1-4.5s-17.7-3.6-17.6-20.9c0-.4.2-.7.5-.9 1.3-.7 4.7-2.9 4.5-5.6-.1-2.9-2.1-3.5-3.7-2.8z"/><path d="M244.1 202.1h-1c-12.1-.7-15.4-6.5-15.5-6.8-.1-.2-.1-.5 0-.7.1-.2.3-.4.6-.5l4.8-1h.2v-.1l-2.1-13.3c-1.8-.1-4.8-.5-5.7-1.4-.5-.5-.6-1.7-.5-4.9v-.8c0-.4-.2-1-.3-1.2l-1.6-1.7c-.3-.3-.5-.8-.5-1.3 0-.4.2-.7.4-1 2.1-1.9 2.4-3.2 2.8-4.6.2-.7.4-1.4.8-2.3 1.6-3.4 6.8-3.9 10.7-2.5 3.3 1.2 5.7 5.3 6.4 7.8l.4.8-.3-.7c1.1-.5 2.3-.4 3.2.1.7.4 1.6 1.4 1.8 3.4.2 2.9-3 5.2-4.9 6.3-.1 0-.1.1-.1.2-.2 16.5 16.2 20 16.9 20.1.3.1.6.3.6.7 0 .3-.1.7-.4.8-.5.2-9.2 4.6-16.7 4.6zm-14.4-6.7c1.4 1.6 5.2 4.5 13.4 5 5.2.3 11.6-2.1 14.8-3.5-4.9-1.7-16.2-7-16-21.1 0-.7.4-1.3 1-1.6 1.3-.7 4.2-2.7 4.1-4.8-.1-1-.4-1.7-1-2.1-.5-.3-1.1-.3-1.7 0-.4.2-.9.2-1.4 0-.4-.2-.8-.6-.9-1.1-.6-2.2-2.8-5.7-5.4-6.7-3.2-1.2-7.5-.8-8.6 1.7-.3.7-.5 1.3-.7 2-.4 1.5-.9 3.1-3.1 5.2v.1l1.6 1.7c.6.6.8 1.9.7 2.4v.8c0 .9-.1 3.1.1 3.7.5.4 2.9.8 5.2.9.4 0 .7.3.8.7l2.2 13.9c.1.5 0 1-.3 1.3-.3.4-.7.6-1.1.7l-3.7.8zm-3.1-18.2z"/><path class="st2" d="M314.7 205.3s-2.4-11.3-7.7-15.2c-4.7-3.5-3.7 2.4-1.7 5.6.4.6.7 1.2.8 1.7.5 1.3-1.1 2.5-2.2 1.6-4.4-3.6-13.9-11-15.1-9.9-1.2 1.1-.1 4.2 3.2 7.6.8.8 1.1 1.9 1 3-.2 2.2-.2 5.9 2.5 8.3 3.6 3 12.7 6.2 12.7 6.2s9.8 13.9 32.3 26.9c12.2 7 15.4-2.5 17.4-12 2.9-13.6-16.1-9.5-16.1-9.5s-10.7 1.2-27.1-14.3z"/><path d="M348 244.2c-2.2 0-4.8-.8-7.8-2.5-20.9-12-31.1-25.1-32.4-26.9-1.5-.5-9.4-3.4-12.7-6.3-3-2.6-3.1-6.7-2.8-9 .1-.8-.2-1.7-.8-2.3-2.5-2.6-4-5.2-3.9-7 0-.7.3-1.3.8-1.7.7-.6 1.9-1.6 16.2 9.9.3.3.6.1.7 0 .1-.1.3-.3.2-.7-.2-.5-.4-1-.8-1.5-1.4-2.3-2.6-6.1-1.1-7.5.9-.8 2.2-.5 4 .8 5.1 3.8 7.6 13.7 8 15.5 15.4 14.4 25.8 13.9 26.4 13.8.9-.2 10.9-2.1 15.3 2.3 1.9 1.9 2.5 4.7 1.7 8.2-1.3 5.9-3 12.3-7.6 14.4-1.2.3-2.3.5-3.4.5zm-58.7-54.5c-.1.1-.1.3-.1.5 0 1 .8 3.2 3.4 5.8.9 1 1.4 2.3 1.3 3.6-.2 1.9-.2 5.5 2.3 7.6 3.4 2.9 12.4 6 12.5 6.1.2.1.3.2.4.3.1.1 10 13.9 32.1 26.6 3.9 2.3 7.1 2.9 9.5 1.8 3.7-1.7 5.4-7.3 6.7-13.2.6-2.9.2-5.2-1.3-6.7-3.9-3.9-13.7-1.9-13.8-1.8h-.1c-.5.1-11.4 1.2-27.9-14.4-.1-.1-.2-.3-.2-.4 0-.1-2.4-11-7.4-14.8-1.3-1-1.8-.9-1.9-.9-.4.4-.1 3.1 1.4 5.4.4.6.7 1.2.9 1.8.4.9 0 2-.8 2.6-.8.6-1.9.6-2.7-.1-9.5-7.5-13.4-9.7-14.3-9.8z"/><path class="st2" d="M202.4 213.3c15.6.7 17.4-4.7 10.8-13.9-.4-.5-1.1-.6-1.6-.2-6 5.4-8.5 8-9.2 14.1z"/><path d="M205.1 214.2c-.9 0-1.8 0-2.7-.1-.2 0-.4-.1-.6-.3-.1-.2-.2-.4-.2-.6.7-6.6 3.6-9.4 9.4-14.6.4-.4.9-.5 1.5-.5.5.1 1 .3 1.3.8 3.6 5 4.6 8.7 3.2 11.3-1.4 2.7-5.4 4-11.9 4zm-1.8-1.7c6.9.2 11-.8 12.2-3.1 1.1-2 .1-5.2-3.1-9.6-.1-.1-.1-.1-.2-.1 0 0-.1 0-.2.1-5.7 5.2-7.9 7.6-8.7 12.7z"/><path class="st2" d="M203.9 423.1l6 7.8c1 1.6.6 3.7-.9 4.5l-1.7.9c-1.4.7-3.2.1-4.1-1.5l-6.3-8.2 7-3.5z"/><path d="M206 437.5c-1.4 0-2.7-.8-3.5-2.1l-6.3-8.1c-.1-.2-.2-.4-.2-.7.1-.2.2-.4.4-.5l7.1-3.6c.4-.2.8-.1 1 .2l6 7.8v.1c.6 1.1.8 2.3.5 3.4-.3 1-.9 1.8-1.7 2.2l-1.7.9c-.5.2-1.1.4-1.6.4zm-8-10.5l5.7 7.4s0 .1.1.1c.7 1.2 2 1.7 3 1.2l1.7-.9c.5-.2.8-.7.9-1.2.2-.7.1-1.5-.3-2.1l-5.5-7.2-5.6 2.7z"/><path class="st4" d="M219 435.2c1 .8 1.3 2.2.7 3.4-2 4-6.6 13-8.1 15.5-1.9 3.1-5.7 5.9-8.5 6-2.9.1-2.8-7.9-2.3-11.4.7-5.1-.8-11.9.2-13.4.6-.9 2.9-1 4.7-.9 1.4 0 2.7-.9 3.1-2.2l.7-2.2c.2-.5.8-.8 1.3-.5 1.4.8 4.5 2.8 8.2 5.7z"/><path d="M203 460.8c-.6 0-1.2-.3-1.7-.8-2.1-2.3-1.6-9.3-1.3-11.5.3-2.5.2-5.3 0-7.9-.2-3.1-.3-4.9.3-5.8.4-.6 1.4-1.5 5.4-1.3 1 .1 2-.6 2.3-1.6l.7-2.2c.2-.5.5-.9 1-1.1.5-.2 1-.1 1.5.1 1.6.9 4.7 2.9 8.4 5.9 1.3 1 1.7 2.9.9 4.4-1.9 3.8-6.6 13-8.1 15.5-2.3 3.5-6.2 6.2-9.4 6.3.1 0 0 0 0 0zm1.8-25.7c-2.3 0-3.1.4-3.2.6-.3.5-.2 2.8-.1 4.9.2 2.6.4 5.6 0 8.2-.5 3.3-.4 8.8.9 10.2.2.2.4.3.5.3 2.5-.1 6-2.6 7.9-5.6 1.5-2.4 6.1-11.6 8.1-15.4.4-.8.2-1.8-.5-2.3-3.6-2.9-6.7-4.9-8.2-5.8h-.1l-.7 2.2c-.5 1.7-2.1 2.9-3.9 2.8-.2-.1-.4-.1-.7-.1z"/><path d="M203.5 443.4c-.4 0-.8-.3-.8-.7 0-.4.3-.9.7-.9l4.1-.4c.4-.1.9.3.9.7 0 .4-.3.9-.7.9l-4.2.4c.1 0 0 0 0 0z"/><path class="st2" d="M164.9 439.5l.6 6.4c0 1.8-1.3 3.3-3 3.2l-1.9-.1c-1.6 0-2.8-1.4-2.8-3.1l-.5-8.1 7.6 1.7z"/><path d="M162.5 449.9h-.1l-1.9-.1c-2-.1-3.6-1.8-3.6-3.9l-.5-8c0-.3.1-.5.3-.7.2-.2.5-.2.7-.2l7.6 1.6c.4.1.6.4.6.7l.6 6.4c0 1.2-.4 2.3-1.2 3-.6.8-1.5 1.2-2.5 1.2zm-4.4-11.1l.4 7c0 1.3.9 2.3 2 2.3l1.9.1c.5 0 1-.2 1.4-.6.5-.5.7-1.1.7-1.8l-.5-5.7-5.9-1.3z"/><path class="st4" d="M165.7 445.1c.4-.5 1.2-.5 1.7 0 .9 1 2.1 2.7 2.6 4.6.7 2.9 1.8 9.1-.3 9.8-1.5.5-17.4 0-25.3-.3-2.5-.1-3.8-3-2.1-4.9 1.2-1.4 3.7-2.9 6.5-4.1 4.2-1.8 6.2-3.5 7.2-4.6.7-.8 1.7-1 2.6-.4l2.6 1.6c1.2.8 2.8.5 3.8-.6l.7-1.1z"/><path d="M165 460.5c-3.5 0-9.7-.1-20.6-.5-1.5-.1-2.8-.9-3.3-2.3-.6-1.3-.3-2.9.6-3.9 1.3-1.4 3.7-3 6.8-4.3 4.2-1.8 6.1-3.4 6.9-4.4.9-1.1 2.5-1.3 3.6-.6l2.6 1.6c.9.6 2.1.4 2.7-.4l.8-1c.4-.4.9-.7 1.4-.7.6 0 1.1.2 1.4.7 1 1.1 2.3 2.9 2.7 4.9 2.2 9.7-.1 10.5-.8 10.7-.1 0-.6.2-4.8.2zm-7.5-14.9c-.3 0-.7.2-.9.4-1.4 1.6-3.9 3.2-7.5 4.8-2.8 1.2-5.1 2.7-6.2 3.9-.5.6-.7 1.4-.4 2.2.3.6.9 1.3 1.9 1.3 21.7.8 24.6.5 25 .3.6-.2 1.1-2.8-.3-8.8-.4-1.7-1.7-3.4-2.4-4.2-.1-.1-.1-.1-.2-.1 0 0-.1 0-.2.1l-.8 1c-1.2 1.4-3.2 1.7-4.8.8l-2.6-1.6c-.2 0-.4-.1-.6-.1z"/><path d="M157.3 453.9c-.2 0-.3 0-.5-.1L153 451c-.4-.3-.5-.8-.2-1.1.3-.4.8-.5 1.1-.2l3.9 2.7c.4.3.5.8.2 1.1-.2.2-.4.4-.7.4z"/><path class="st1" d="M146.6 365.7s1.7 15.8 4.1 28.1c1.9 9.8.7 22.7 3.7 37 .9 4.3 2.3 10.9 2.3 10.9l9 .3c.6-1.1 4.3-21.6.6-38.8-2.2-10.2 3.9-24.4 2.4-33.6-1.2-7.3-4.5-28.6-4.5-28.6l-16 .1s-1.8 12-1.6 24.6z"/><path d="M165.7 442.9l-9-.3c-.4 0-.7-.2-.8-.6 0-.1-1.6-7.4-2.3-11-1.7-8-2-15.6-2.3-22.3-.3-5.3-.5-10.4-1.3-14.7-2.4-12.2-4.1-28-4.1-28.2v-.1c-.2-12.6 1.6-24.6 1.6-24.7.1-.4.4-.7.8-.7l16-.1c.4 0 .7.3.8.7 0 .2 3.3 21.3 4.5 28.6.7 4.5-.2 9.9-1.3 15.7-1.1 6.2-2.3 12.7-1.1 17.9 3.7 17.1.2 37.8-.7 39.4-.2.2-.5.4-.8.4zm-8.4-1.9l7.8.2c.9-3.3 3.8-22 .4-37.8-1.2-5.5 0-12.2 1.1-18.5 1-5.6 1.9-10.9 1.3-15.1-1.1-6.5-3.8-24.2-4.3-27.9l-14.6.1c-.4 2.7-1.7 13-1.5 23.7.1.8 1.7 16.1 4.1 28 .9 4.4 1.1 9.5 1.4 14.9.3 6.7.7 14.2 2.3 22.1.6 3.5 1.7 8.5 2 10.3z"/><path class="st1" d="M165.2 340.5c4-12.8 20.9-7.4 23.5 16 1 9.2 3.3 24.6 2.5 31.2-.3 2.5.4 5 1.9 7 10.6 14.3 9.9 15.8 13.2 29.9.1.2-4 5.7-6.6 6.3-9.5-8.6-17.8-26.9-22.7-33.5-4.9-6.6-12.4-45.2-12.4-45.2s-1.8-3.9.6-11.7z"/><path class="st1" d="M199.7 431.1l-.1-.1c-6.4-5.8-12.3-15.9-17-24.1-2.3-3.9-4.2-7.3-5.8-9.4-4.8-6.6-12.1-43.3-12.5-45.3-.2-.4-1.8-4.3.6-11.8 1.5-4.7 4.8-7.3 8.9-6.9 6.1.6 13.5 8 15.2 22.9.2 1.7.4 3.7.7 5.7 1.1 9 2.5 20.1 1.8 25.5-.3 2.4.4 4.8 1.9 6.8 9.4 12.6 10 15.3 12.2 25.4.3 1.4.6 2.9 1 4.6 0 .1 0 .2-.2.4-.7 1.1-4.2 5.6-6.6 6.2l-.1.1zm-34.2-90.5c-2.4 7.6-.6 11.4-.6 11.5v.1c.1.4 7.6 38.6 12.4 45.1 1.6 2.2 3.6 5.6 5.8 9.5 4.6 8.1 10.4 18.1 16.7 23.8 2.3-.7 5.9-5.3 6.2-6-.4-1.7-.7-3.2-1-4.5-2.2-10-2.8-12.7-12.1-25.2-1.6-2.1-2.3-4.7-2-7.2.6-5.3-.7-16.5-1.8-25.4-.3-2.1-.5-4-.7-5.7-1.7-14.6-8.8-21.9-14.7-22.5-3.8-.4-6.9 2-8.2 6.5z"/><path d="M199.3 431.8c-.2 0-.4-.1-.6-.2-6.4-5.9-12.2-16.2-16.8-24.4-2.2-3.9-4.1-7.3-5.7-9.5-2.2-3-5-12.4-8.4-27.8l-.1-.3c-.3-1.2-.9-4.5-3.6-6-.4-.2-.5-.7-.3-1.1.2-.4.7-.5 1.1-.3 3.4 1.8 4.2 5.7 4.5 7.1l.1.2c3.3 15 6.1 24.4 8.2 27.2 1.6 2.2 3.5 5.6 5.8 9.6 4.5 8 10 17.8 16.2 23.7 1.9-.8 4.9-4.4 5.6-5.4-.4-1.6-.7-3-.9-4.3-2.1-9.9-2.7-12.6-11.8-25.1-1.6-2.3-2.3-5-2-7.6.7-5.3-.6-16.4-1.5-25.3-.2-2.1-.5-4-.6-5.8-1.5-14.4-8.3-21.5-14-22.1-3.5-.4-6.5 1.9-7.8 6.1l-.1.3c-.1.4-.6.7-1 .5-.4-.1-.7-.6-.5-1l.1-.3c1.6-5 5.2-7.7 9.5-7.2 6.3.7 13.9 8.3 15.4 23.6.2 1.7.4 3.7.6 5.7 1 9 2.3 20.2 1.5 25.7-.3 2.3.3 4.6 1.7 6.5 9.3 12.8 9.9 15.5 12 25.7.3 1.4.6 2.9 1 4.6 0 .2.2.8-2.5 3.7-1.9 2-3.5 3.2-4.7 3.5h-.4zm-26.5-128.5c3.5.4 7.1.4 10.6.1 6.8-.7 20.7-4.3 18.3-13.8-.7-3.1-2.8-5.6-4.6-8.2-6-8.7-7.5-18.3-11.2-27.9-3.1-8-8.4-14.2-17.5-14.4-8.3-.3-13 4.1-16.6 11.1-2.5 4.8-4.9 9.5-7.4 14.3-5.7 11-6.6 20.7 4 28.9 6.9 5.4 15.5 8.8 24.4 9.9z"/><path class="st2" d="M141.8 283.8c-8.3 1.5-12.1 1.5-19-1.7 0 0-7.6-4.2-6.9-6.4l2.2-19.3c.4-2.9.1-5.9-.7-8.7l-2.7-7.5c-.5-1.3-2.3-.9-2.3.4l.1 3.9s-1.3 0-1.8-.2c-1.2-.4-2.1-1.4-2.5-2.6-.5-1.4-1.3-3.6-1.6-4.2-.5-.9-1.1-2.2-2.1-2.8-1.1-.6-2.4.3-2.2 1.5l.6 4.2c.5 3.1 1.9 5.9 4.1 8.1l4.3 4.3c.8.8 1 2 .6 3.1l-7.3 17.9c-1.7 4.1-2.1 8-1 10.6 5.6 13.3 40.2 21.7 40.2 21.7l-2-22.3z"/><path d="M143.8 306.8h-.2c-1.4-.3-35.1-8.6-40.8-22.1-1.1-2.7-.8-6.8 1-11.2l7.4-17.9c.3-.7.1-1.6-.4-2.2l-4.3-4.3c-2.3-2.3-3.8-5.3-4.3-8.5l-.6-4.2c-.1-.9.2-1.7 1-2.2.7-.5 1.6-.6 2.4-.1 1.1.6 1.8 1.8 2.3 2.7.1.1.1.3.2.4.3.5.8 2 1.7 4.3.4 1 1.1 1.8 2 2.1.1 0 .4.1.7.1l-.1-3c0-1 .6-1.8 1.6-2 1-.2 1.9.3 2.3 1.3l2.7 7.5c.9 3 1.1 6 .7 9.1l-2.2 19.3v.2c-.3.8 2.9 3.4 6.5 5.4 6.6 3.1 10.3 3.1 18.5 1.7.2 0 .5 0 .6.2.2.1.3.3.3.6l2 22.2c0 .3-.1.5-.3.7-.3-.2-.5-.1-.7-.1zm-40-71.5c-.2 0-.3.1-.4.1-.1.1-.3.3-.3.6l.6 4.2c.4 2.9 1.8 5.5 3.8 7.6l4.3 4.3c1 1 1.3 2.6.8 3.9l-7.3 17.9c-1.6 4-2 7.6-1 9.9 4.8 11.4 32.6 19.3 38.5 20.9l-1.8-20.1c-7.9 1.4-11.8 1.2-18.6-1.9h-.1c-2.4-1.4-8-4.7-7.3-7.3l2.2-19.2c.4-2.8.1-5.7-.7-8.4l-2.7-7.5c-.1-.3-.3-.3-.4-.2-.1 0-.3.1-.3.4l.1 3.9c0 .2-.1.4-.2.6-.2.2-.4.2-.6.3-.2 0-1.5 0-2.1-.2-1.4-.5-2.5-1.7-3-3.1-.8-2.1-1.3-3.7-1.6-4.1-.1-.1-.1-.3-.2-.4-.4-.8-.9-1.7-1.6-2 .1-.1 0-.2-.1-.2z"/><path class="st2" d="M134.4 283.3c-.5.3-.7.8-.6 1.3l4 16c1.3 4.7 2 9.5 2.3 14.4l1.4 30.2s15.7 11.3 46.6 3.2l2.5-28.6c.5-6 1.9-11.8 4-17.4l3.9-10.4c.2-.6 0-1.2-.5-1.6-2.2-1.6-8.4-5.8-14.8-7.8-11-3.1-38.6-4.7-48.8.7z"/><path d="M166.6 352.2c-16.7 0-25.3-6-25.7-6.3-.2-.1-.3-.4-.3-.6l-1.4-30.2c-.2-4.8-1-9.6-2.2-14.2l-4-16.1c-.2-.9.2-1.8 1-2.3 10.9-5.7 38.9-3.7 49.3-.5 6.5 2 12.7 6.2 15 7.9.8.6 1.1 1.6.8 2.6l-3.9 10.4c-2.1 5.5-3.4 11.3-3.9 17.2l-2.5 28.6c0 .3-.3.6-.6.7-8.3 2-15.5 2.8-21.6 2.8zm-24.4-7.4c2.4 1.5 17.7 10 45 3.1l2.5-28c.5-6 1.9-11.9 4-17.6l3.9-10.4c.1-.2 0-.5-.2-.6-2.3-1.7-8.3-5.7-14.6-7.6-11.2-3.4-38.3-4.7-48 .4-.1.1-.2.2-.2.4l4 16c1.3 4.7 2.1 9.6 2.3 14.5l1.3 29.8zm-7.8-61.5z"/><path class="st2" d="M199.6 296.7c-.6-1.1-1.2-2-2-2.8l-3.3 8.6c-1.3 3.5-2.3 7.1-3 10.7-.5 3.7-2.3 6.3-6.4 5.9-5.2-.5-12.9-1.5-16.6-7.9-1.6-2.8-4.6-5.7-6.3-4.2-1 .9.8 2.5 1.5 3.7.4.7-.1 1-.9.9-5.8-.8-9.5-6.2-11.1-3.7-.5.8-.3 3.1.6 4.7 2.8 5 9.6 7 13.7 8.2 7.7 2.2 18 13.8 29.6 12.5 8.9-1 9.4-27 4.2-36.6z"/><path d="M193.7 334.2c-7 0-13.3-4.1-19-7.8-3.3-2.1-6.4-4.1-9.1-4.9-4.2-1.2-11.2-3.2-14.2-8.6-1-1.8-1.3-4.4-.6-5.5 1.3-2 3.4-.7 5.4.6 1.7 1.1 3.9 2.4 6.4 2.8-.1-.2-.3-.4-.4-.6-.8-1-2-2.6-.6-3.8.6-.5 1.3-.7 2-.6 2.1.3 4.3 2.9 5.5 5 3.3 5.7 9.9 7 16 7.5 3.2.3 5-1.4 5.5-5.2.7-3.7 1.7-7.4 3.1-10.9l3.3-8.6c.1-.3.3-.5.6-.5s.6.1.8.3c.8.9 1.5 1.9 2.1 3 4.3 7.9 4.6 25.8.5 33.4-1.4 2.6-3.1 4.1-5.3 4.3-.8 0-1.4.1-2 .1zm-41-26.2c-.2 0-.3.1-.5.3-.3.4-.2 2.4.6 3.9 2.7 4.7 9.3 6.7 13.2 7.8 2.9.8 6.1 2.9 9.5 5.1 5.9 3.8 12.7 8.2 19.8 7.4 1.5-.2 2.9-1.3 4-3.4 3.8-7.3 3.6-24.3-.5-31.9-.3-.5-.6-1.1-1-1.6l-2.7 7.3c-1.3 3.4-2.3 7-3 10.6-.9 5.9-4.5 6.9-7.3 6.6-6.4-.6-13.5-2-17.2-8.3-1.3-2.2-3.2-4-4.3-4.2-.3 0-.5 0-.7.2-.1.3.6 1.2.9 1.5.3.4.6.8.8 1.1.4.8.2 1.3.1 1.5-.2.3-.7.7-1.8.5-2.9-.4-5.3-1.9-7.1-3-1.6-1-2.4-1.4-2.8-1.4zm10.2 3.2zm.3-.4z"/><path class="st2" d="M158.4 266.5l1.1 14.5-4.8 1.2c-1.6.4-1.8 2.7-.3 3.4 4.4 1.9 11.9 3.9 20.8.6 1.5-.6 1.7-2.7.3-3.5l-3.5-2-3.6-17-10 2.8z"/><path d="M165.5 288.8c-4.6 0-8.5-1.2-11.4-2.4-1-.5-1.6-1.5-1.5-2.6.1-1.1.9-2 2-2.3l4.1-1.1-1-13.8c0-.4.2-.7.6-.8l10.1-2.8c.2-.1.4 0 .6.1.2.1.3.3.4.5l3.5 16.6 3.2 1.8c.9.5 1.5 1.5 1.4 2.6-.1 1.1-.8 2-1.8 2.4-3.8 1.2-7.1 1.8-10.2 1.8zm-6.2-21.7l1 13.8c0 .4-.2.8-.6.9l-4.8 1.2c-.6.2-.7.7-.7.9 0 .2 0 .7.6 1 4.5 2 11.7 3.7 20.2.5.4-.2.7-.5.7-1 0-.4-.2-.8-.6-1.1l-3.5-2c-.2-.1-.3-.3-.4-.5l-3.4-16.1-8.5 2.4z"/><path class="st2" d="M171.6 265.8s4.5-.2 5-3.8c.8-5.5-3.7-4.4-3.7-4.4s.5-4.7-5.7-4.4c-3.9.2-7.2.6-9.3.8-1.5.2-2.7 1.3-3 2.8-.5 2.9-1.3 7.9-.8 12 .4 3.7 1.8 6.6 5.3 6.4 9.3-.6 12.2-9.4 12.2-9.4z"/><path d="M159 276c-2.3 0-5.1-1.3-5.8-7.1-.5-4 .2-8.9.8-12.2.3-1.9 1.8-3.3 3.7-3.5 2.1-.2 5.4-.6 9.4-.8 2.4-.1 4.2.4 5.3 1.6.8.9 1.1 1.9 1.2 2.7.8 0 1.8.2 2.6.9 1 .9 1.4 2.5 1.1 4.5-.4 3.1-3.3 4.2-5.2 4.5-.8 2-4.3 8.9-12.8 9.4h-.3zm8.8-22h-.7c-3.9.2-7.2.6-9.3.8-1.2.1-2.1 1-2.3 2.1-.5 2.7-1.3 7.7-.8 11.7.7 5.9 3.5 5.7 4.4 5.7 8.8-.5 11.6-8.7 11.6-8.8.1-.3.4-.5.7-.6.2 0 3.8-.2 4.2-3.1.1-1 .2-2.4-.6-3.1-.8-.7-2.1-.4-2.1-.4-.3.1-.5 0-.7-.2-.2-.2-.3-.4-.3-.7 0 0 .1-1.4-.8-2.4-.6-.7-1.7-1-3.3-1z"/></g></svg>