<svg version="1.1" id="Capa_1" xmlns="http://www.w3.org/2000/svg" x="0" y="0" viewBox="0 0 96 86" xml:space="preserve"><style>.st0{fill:#f7be00}</style><path class="st0" d="M85.9.3H23.8C18.4.3 14 4.6 14 9.8l-.4 54H1.5c-.9 0-1.5.8-1.5 1.6v7.4c0 7 5.6 12.7 12.4 13v.2h52.3v-.1c.4 0 .6.1.9.1 7.3 0 13.1-5.9 13.1-13.1V25.7h15.8c.9 0 1.5-.8 1.5-1.6V10.4C96 4.9 91.5.4 85.9.3zM13.1 82.9c-5.5 0-10-4.5-10-10v-6h49.4v5.9c0 3.5 1.4 6.8 3.8 9.2.3.3.5.4.8.8h-44zm62.5-10c0 5.5-4.4 10-10 10s-10-4.5-10-10v-7.4c0-.9-.7-1.6-1.6-1.6H16.7l.4-54c0-3.6 3-6.5 6.7-6.5h54.7c-1.8 1.9-2.9 4.4-2.9 7.1v62.4zm17.3-62.4v12.2H78.7V10.5c0-3.8 3.2-7.1 7.1-7.1 4 .1 7.1 3.2 7.1 7.1z"/><path class="st0" d="M36.5 38.2l8 5.4c.5.4 1.2.4 1.7 0l8-5.4c2.8-1.9 4.8-5.8 4.8-9.1v-11c0-.6-.3-1.1-.8-1.4L46 10.8c-.4-.2-.9-.2-1.4 0l-12.2 5.9c-.5.3-.8.8-.8 1.4v11c.1 3.3 2.1 7.2 4.9 9.1zM34.8 19l10.6-5.2L56 19.1v10c0 2.3-1.5 5.3-3.5 6.6l-7.1 4.8-7.1-4.8c-1.9-1.3-3.5-4.2-3.5-6.6V19z"/><path class="st0" d="M42.7 31.4c.3.3.7.5 1.1.5.4 0 .8-.2 1.1-.5l6.2-6.1c.6-.6.6-1.6 0-2.2-.6-.6-1.6-.6-2.2 0l-5.1 5-2-2c-.6-.6-1.6-.6-2.2 0-.6.6-.6 1.6 0 2.2l3.1 3.1zm22 16.6H27.4c-.9 0-1.6.7-1.6 1.5s.7 1.5 1.6 1.5h37.3c.9 0 1.6-.7 1.6-1.5s-.7-1.5-1.6-1.5zm0 7.1H27.4c-.9 0-1.6.7-1.6 1.5s.7 1.5 1.6 1.5h37.3c.9 0 1.6-.7 1.6-1.5s-.7-1.5-1.6-1.5z"/></svg>