<svg width="133" height="98" fill="none" xmlns="http://www.w3.org/2000/svg"><path d="M126.35 0H6.65A6.65 6.65 0 000 6.65v70.933a6.65 6.65 0 006.65 6.65h37.976L38.714 93.1H26.6a2.217 2.217 0 000 4.433h79.8a2.217 2.217 0 000-4.433H94.286l-5.912-8.867h37.976a6.65 6.65 0 006.65-6.65V6.65A6.65 6.65 0 00126.35 0zM88.957 93.1H44.043l5.91-8.867h33.094l5.91 8.867zm39.61-15.517a2.217 2.217 0 01-2.217 2.217H6.65a2.217 2.217 0 01-2.217-2.217V6.65c0-1.224.993-2.217 2.217-2.217h119.7c1.224 0 2.217.993 2.217 2.217v70.933z" fill="#F8BC26"/></svg>