<svg version="1.1" id="Capa_1" xmlns="http://www.w3.org/2000/svg" x="0" y="0" viewBox="0 0 116 106" xml:space="preserve"><style>.st0{fill:#f7be00}</style><path class="st0" d="M66.9 58.7c-1.2 0-2.3 1-2.3 2.3 0 1.2 1 2.3 2.3 2.3 1.2 0 2.3-1 2.3-2.3-.1-1.3-1.1-2.3-2.3-2.3z"/><path class="st0" d="M87 70.9c-2.1-2.1-7.3-7.8-11.3-17.1-3-7.2-10-11.9-17.9-11.9C50 41.9 43 46.5 40 53.8c-5.1 11.7-12 17.8-12.1 17.9-4.1 3.7-6.4 8.9-6.4 14.4 0 6.7 3.2 12.6 8.7 16.3 5.2 3.4 11.6 4.5 17.6 2.8 3-.8 6.5-1.3 10.1-1.3 3.6 0 7.2.4 10.2 1.3 5.8 1.6 12.2.7 17.5-2.7 5.6-3.7 8.9-9.6 8.9-16.4-.1-6-2.8-11.5-7.5-15.2zm-4 27.8c-4.1 2.7-9.1 3.5-13.8 2.2-3.4-1-7.4-1.5-11.4-1.5s-7.9.5-11.3 1.4c-4.7 1.3-9.8.5-13.9-2.2-4.3-2.8-6.7-7.3-6.7-12.5 0-4.2 1.8-8.2 4.9-11 .5-.4 7.8-7 13.3-19.5 2.3-5.5 7.7-9.1 13.7-9.1 6 0 11.4 3.6 13.7 9.1C76 65.7 81.7 72 83.9 74.2l.2.2c3.6 2.8 5.7 7.1 5.7 11.7.1 5.2-2.4 9.7-6.8 12.6z"/><path class="st0" d="M73 67.7c-.7-1-2.1-1.3-3.1-.7-1 .7-1.3 2.1-.7 3.1 3.4 5.3 6.7 8.8 8.3 10.4.9.9 2.3.9 3.2 0 .9-.9.9-2.3 0-3.2-1.5-1.4-4.5-4.6-7.7-9.6zM50.5 30.8C52.7 27.1 53.6 22 53 17 51.9 7.3 45.2-.9 37.7 0c-3.4.4-6.4 2.6-8.5 6.2C27 10 26.1 15 26.7 20c1.9 16 16.7 23.3 23.8 10.8zM33.1 8.6c1.2-2.2 3.2-4 5.7-4 4.4 0 8.9 6 9.7 13 .5 4.1-.2 8.1-1.9 11-5.2 9.1-14.2 1.4-15.4-9-.5-4 .2-8.1 1.9-11zm-4.2 46.5c.7-4-.1-8.5-2.2-12.5-2.1-4.1-5.3-7.3-8.9-9.1-3.9-1.9-7.9-2-11.2-.3-3.3 1.7-5.6 5-6.3 9.3-.7 4 .1 8.5 2.2 12.5 2.1 4.1 5.3 7.3 8.9 9.1 3.6 1.8 7.7 2.1 11.2.3 3.4-1.7 5.6-5 6.3-9.3zm-8.4 5.3c-2 1.1-4.6.9-7.2-.3-2.8-1.4-5.3-3.9-6.9-7.1-1.7-3.2-2.3-6.7-1.8-9.7.5-2.8 1.8-5 3.9-6 2.3-1.2 4.9-.8 7.2.3 2.8 1.4 5.3 3.9 6.9 7.1 1.7 3.2 2.3 6.7 1.8 9.7-.4 2.9-1.8 5-3.9 6zm54.3-23.2c6.8 0 13.1-7.5 14.2-17C90.2 10 85.1 0 76.9 0c-6.8 0-13.1 7.5-14.2 17-1.2 10.3 3.9 20.2 12.1 20.2zm-7.6-19.6c.8-7.1 5.3-13 9.7-13h.6c2.4.3 4.3 2.4 5.4 4.5 1.5 2.9 2.1 6.8 1.6 10.5-.9 7.3-5.7 13.6-10.3 13-2.1-.2-4-1.9-5.3-4.5-1.5-2.9-2.1-6.7-1.7-10.5zm48.2 25c-1.4-8.8-9.4-13-17.5-9-7.6 3.7-12.5 13.3-11.2 21.6 1.4 8.9 9.5 13 17.5 9 7.6-3.7 12.6-13.3 11.2-21.6zm-13.1 17.5c-2.6 1.3-5.1 1.4-7.2.3-2-1.1-3.4-3.2-3.9-6-1-6.4 2.9-14 8.7-16.8 5.3-2.6 10.1-.2 11 5.7 1.1 6.3-2.8 14-8.6 16.8z"/></svg>