<svg xmlns="http://www.w3.org/2000/svg" viewBox="0 0 86 96"><path d="M32 48h-6.5V29c0-.8.3-1.6.8-2.2l4.2-5c1.4-1.7 1.9-4.1 1.1-6.2l-4-11.4c-1-2.5-3.4-4.2-6-4.2h-5.4c-2.7 0-5 1.7-5.9 4.2l-4 11.4c-.7 2.1-.3 4.5 1.1 6.2l4.2 5c.5.6.8 1.4.8 2.2v2.7c0 .8.6 1.4 1.4 1.4.8 0 1.4-.6 1.4-1.4V29c0-1.5-.5-2.9-1.5-4.1l-4.2-5c-.8-.9-1-2.3-.6-3.4l4-11.4c.5-1.4 1.8-2.3 3.3-2.3h5.4c1.5 0 2.8.9 3.3 2.3l4 11.4c.4 1.2.2 2.5-.6 3.4l-4.2 5c-1 1.1-1.5 2.6-1.5 4.1v19h-7.5V37.3c0-.8-.6-1.4-1.4-1.4-.8 0-1.4.6-1.4 1.4V48H5.8C3 48 .6 50.3.6 53.2c0 2.7 2.1 4.9 4.7 5.1-.6 3.1-1.7 9.9-2.3 16.6-.5 5.3.3 10.7 2.3 15.6l.1.2c1.3 3.3 4.5 5.4 8 5.4h11.1c3.5 0 6.7-2.1 8-5.4l.1-.2c2-4.9 2.7-10.3 2.3-15.6-.6-6.7-1.8-13.5-2.3-16.5 2.6-.2 4.7-2.5 4.7-5.1-.2-3-2.5-5.3-5.3-5.3zm-2.1 41.4l-.1.2c-.9 2.2-3 3.6-5.4 3.6H13.3c-2.4 0-4.5-1.4-5.4-3.6l-.1-.2c-1.7-4.5-2.4-9.4-2-14.3.6-7 1.9-14 2.4-16.7h21.4c.5 2.7 1.8 9.8 2.4 16.7.4 4.9-.3 9.8-2.1 14.3zM32 55.6H5.8c-1.3 0-2.4-1.1-2.4-2.4 0-1.3 1.1-2.4 2.4-2.4H32c1.3 0 2.4 1.1 2.4 2.4-.1 1.3-1.1 2.4-2.4 2.4zm52.3 13.6c-.7-.7-1.5-1.3-2.5-2-.6-.5-1.5-.3-2 .3s-.3 1.5.3 2c.8.6 1.6 1.2 2.2 1.8.1.1.1.2.1.3.2 2.7.3 12.2-4.3 20-.1.2-1.1 1.1-3.6 1.4.4-3 1.1-9.1-.3-13.4-.1-.4-.4-.7-.7-.8-.2-.1-3.9-1.9-7.7-1.9-3.8 0-7.6 1.8-7.7 1.9-.3.2-.6.5-.7.8-1.6 4.4-1 10.5-.5 13.4-2.5-.3-3.6-1.3-3.8-1.5-4.6-7.8-4.4-17.3-4.3-20 0-.1.1-.2.1-.3 4-3.6 10.1-6.2 10.2-6.2.5-.2.9-.7.9-1.3V32.2c0-.6-.3-1.1-.9-1.3-.1 0-6.2-2.6-10.1-6.2-.1-.1-.1-.2-.1-.3-.2-2.7-.3-12.2 4.3-20 .2-.2 1.3-1.2 3.8-1.5-.4 3-1.1 9.1.3 13.4.1.4.4.7.7.8.2.1 3.9 1.9 7.7 1.9 3.8 0 7.6-1.8 7.7-1.9.3-.2.6-.5.7-.8 1.4-4.3.8-10.4.3-13.4 2.6.3 3.6 1.3 3.9 1.5 4.6 7.8 4.4 17.3 4.3 20 0 .1-.1.2-.1.3-3.9 3.6-10.1 6.2-10.1 6.2-.5.2-.9.7-.9 1.3v31.5c0 .6.3 1.1.9 1.3 0 0 1.4.6 3.3 1.6.7.4 1.5.1 1.9-.6.4-.7.1-1.5-.6-1.9-1.1-.6-2.1-1.1-2.7-1.4V33.2c1.9-.9 6.7-3.2 10.1-6.4.6-.6 1-1.3 1-2.2.2-3 .3-13.2-4.7-21.8l-.1-.1c-.3-.3-2.3-2.7-7.8-2.7-.4 0-.8.2-1.1.5-.3.3-.4.8-.3 1.2 0 .1 1.6 8 .2 13.2-1.1.4-3.6 1.4-6 1.4s-4.9-.9-6-1.4c-1.4-5.1.2-13.1.2-13.2.1-.4 0-.8-.3-1.2-.1-.3-.5-.5-1-.5C53 0 51 2.4 50.8 2.7l-.1.1c-5.1 8.5-4.9 18.8-4.7 21.8.1.8.4 1.6 1 2.2 3.4 3.1 8.1 5.5 10.1 6.4v29.6c-1.9.9-6.7 3.2-10.1 6.4-.6.6-1 1.3-1 2.2-.2 3-.3 13.2 4.7 21.8l.1.1c.2.2 2.2 2.7 7.7 2.7.4 0 .8-.2 1.1-.5.3-.3.4-.8.3-1.2 0-.1-1.6-8-.2-13.2 1.1-.4 3.6-1.4 6-1.4s4.9.9 6 1.4c1.4 5.1-.2 13.1-.2 13.2-.1.4 0 .8.3 1.2.3.3.7.5 1.1.5 5.5 0 7.5-2.4 7.7-2.7l.1-.1c5.1-8.5 4.9-18.8 4.7-21.8-.1-.9-.5-1.7-1.1-2.2z" fill="#f7be00"/></svg>