<svg width="65" height="65" fill="none" xmlns="http://www.w3.org/2000/svg"><path d="M60.45 29.372l-1.684-6.733c.46-.098.806-.506.806-.995V20.56a4.28 4.28 0 00-4.275-4.275h-7.666v-2.24c0-1.16-.944-2.103-2.104-2.103H6.446c-1.16 0-2.104.944-2.104 2.104V32.5a1.018 1.018 0 102.036 0V14.045c0-.038.03-.068.068-.068h39.081c.038 0 .068.03.068.068V32.5a1.018 1.018 0 002.035 0v-1.154h12.012a3.33 3.33 0 013.162 2.307H59.64c-.562 0-1.018.456-1.018 1.018v2.171a3.192 3.192 0 003.189 3.19h1.153v4.477h-2.66c-.875-2.524-3.275-4.342-6.092-4.342a6.456 6.456 0 00-6.092 4.342h-.49v-7.667a1.018 1.018 0 00-2.035 0v7.667H24.479a6.456 6.456 0 00-6.092-4.342 6.455 6.455 0 00-6.091 4.342h-5.85a.068.068 0 01-.068-.068v-2.239h4.41a1.018 1.018 0 000-2.035h-9.77a1.018 1.018 0 000 2.035h3.324v2.24c0 1.16.944 2.103 2.104 2.103h5.497l-.001.067a6.453 6.453 0 006.445 6.446 6.453 6.453 0 006.446-6.446l-.002-.067h22.937l-.002.067a6.453 6.453 0 006.446 6.446 6.453 6.453 0 006.445-6.446l-.001-.067h3.326c.562 0 1.018-.456 1.018-1.018V34.67a5.368 5.368 0 00-4.55-5.299zM47.63 18.32h7.667a2.242 2.242 0 012.24 2.24v.067H47.63V18.32zm0 10.992v-6.65h9.044l1.662 6.65H47.63zM18.387 51.023a4.415 4.415 0 01-4.41-4.41 4.415 4.415 0 014.41-4.41 4.415 4.415 0 014.41 4.41 4.415 4.415 0 01-4.41 4.41zm35.825 0a4.415 4.415 0 01-4.41-4.41 4.415 4.415 0 014.41-4.41 4.415 4.415 0 014.41 4.41 4.415 4.415 0 01-4.41 4.41zm8.753-13.027H61.81a1.155 1.155 0 01-1.153-1.154V35.69h2.306v2.307z" fill="#000"/><path d="M18.387 44.51c-1.16 0-2.104.943-2.104 2.103 0 1.16.944 2.104 2.104 2.104 1.16 0 2.103-.944 2.103-2.104 0-1.16-.944-2.103-2.103-2.103zm35.825 0c-1.16 0-2.104.943-2.104 2.103 0 1.16.944 2.104 2.104 2.104 1.16 0 2.103-.944 2.103-2.104 0-1.16-.943-2.103-2.103-2.103zM42.27 40.167H27.073a1.018 1.018 0 100 2.036h15.199a1.018 1.018 0 000-2.036zm-26.053-4.343H3.19a1.018 1.018 0 000 2.036h13.027a1.018 1.018 0 000-2.036zM35.392 22.01a1.018 1.018 0 00-1.44 0l-9.05 9.05-4.709-4.708a1.018 1.018 0 00-1.439 1.44l5.428 5.428a1.014 1.014 0 001.44 0l9.77-9.77a1.018 1.018 0 000-1.44z" fill="#000"/></svg>