<svg width="139" height="92" fill="none" xmlns="http://www.w3.org/2000/svg"><path d="M27.88 36.075a2.426 2.426 0 100-4.852 2.426 2.426 0 000 4.852zm16.976 0a2.426 2.426 0 100-4.852 2.426 2.426 0 000 4.852zm-2.704 5.623l-1.867-1.547c-1.062 1.282-2.452 1.987-3.917 1.987-1.464 0-2.854-.705-3.917-1.987l-1.867 1.547c1.532 1.848 3.586 2.864 5.784 2.864 2.2 0 4.253-1.018 5.784-2.864z" fill="#FF007E"/><path d="M9.033 63.802A10.873 10.873 0 000 74.035h2.43a8.457 8.457 0 017.017-7.844l18.561-3.232c.679 4.007 4.165 7.07 8.36 7.07 4.196 0 7.682-3.063 8.36-7.07l13.277 2.31a3.62 3.62 0 002.616 1.12h1.213v7.644h2.426v-8.856c0-.67-.544-1.213-1.213-1.213h-2.393c-.572 0-1.093-.381-1.215-.942a1.215 1.215 0 011.19-1.484c.42.002.828-.183 1.028-.55.507-.928-.147-1.866-1.022-1.875-.462-.006-.902-.231-1.097-.649-.415-.894.23-1.771 1.076-1.777.414-.002.915-.267 1.089-.643.417-.896-.223-1.773-1.068-1.783-.462-.006-.902-.23-1.097-.648-.415-.895.23-1.772 1.076-1.777.414-.002.915-.267 1.089-.643.417-.896-.223-1.774-1.068-1.783-.458-.006-.898-.227-1.093-.64-.423-.9.227-1.786 1.08-1.786h6.064c.669 0 1.212-.543 1.212-1.213v-2.425a3.647 3.647 0 012.426-3.431v26.894h2.426V38.498c0-.675-.551-1.215-1.226-1.213a6.072 6.072 0 00-6.051 6.064v1.213h-4.77c-1.884 0-3.52 1.4-3.701 3.277a3.622 3.622 0 00.911 2.788 3.62 3.62 0 00-.928 2.425c0 .933.35 1.781.928 2.426a3.62 3.62 0 00-.928 2.426c0 .932.35 1.78.928 2.425a3.627 3.627 0 00-.917 2.304l-12.14-2.111v-4.337a21.877 21.877 0 0013.025-16.562c2.916-.438 5.166-2.937 5.166-5.972a6.072 6.072 0 00-4.851-5.94v-1.336c0-13.482-11.33-21.83-21.83-21.83-3.835 0-6.703.958-9.477 1.881-2.71.904-5.271 1.757-8.712 1.757-6.548 0-8.837-2.064-8.844-2.071a1.212 1.212 0 00-2.046 1.096c.045.221.944 4.537 4.172 7.56-1.121.066-2.471-.012-3.814-.458a1.214 1.214 0 00-1.585 1.322c.05.348 1.236 8.127 7.81 12.282-2.42.797-4.184 3.053-4.184 5.736 0 3.036 2.25 5.535 5.166 5.973a21.881 21.881 0 0013.024 16.562v4.337l-18.843 3.28zm49.165-27.73v-5.84a3.632 3.632 0 012.425 3.415c0 1.598-1.04 2.942-2.477 3.43.015-.335.052-.665.052-1.005zM42.432 61.54a6.069 6.069 0 01-6.53 6.045c-3.182-.24-5.596-2.978-5.596-6.169v-4.39c1.928.56 3.959.874 6.064.874s4.135-.315 6.064-.874v4.514h-.002zM12.115 33.648c0-1.578 1.018-2.911 2.426-3.415v5.841c0 .34.034.67.051 1.005-1.436-.488-2.477-1.834-2.477-3.43zM8.902 17.081c3.184.453 5.887-.428 6.022-.471.551-.183.908-.742.814-1.343a1.23 1.23 0 00-.67-.9c-2.232-1.123-3.61-3.168-4.414-4.861 1.661.587 4.095 1.102 7.525 1.102 3.835 0 6.704-.957 9.478-1.88 2.71-.904 5.271-1.756 8.711-1.756 9.331 0 19.404 7.418 19.404 19.403v1.167c-8.778-.658-10.864-8.398-10.95-8.738a1.213 1.213 0 00-2.39.292c-.001.363-.091 8.19-5.602 9.514.349-1.321.744-3.14.751-4.615a1.252 1.252 0 00-.421-.966 1.225 1.225 0 00-.792-.292 1.2 1.2 0 00-.744.255c-.102.08-10.412 7.971-19.329 3.511-4.643-2.325-6.623-6.892-7.393-9.422zm8.063 18.784v-6.463c7.109 2.513 14.327-.841 17.887-2.983a31.447 31.447 0 01-.848 3.21 1.209 1.209 0 001.151 1.594c5.502 0 8.101-4.077 9.131-7.931 1.835 2.847 5.305 6.277 11.484 6.676v6.104c0 10.887-9.012 19.71-19.968 19.395-10.527-.3-18.837-9.072-18.837-19.602zm75.334-3.827c.842 0 1.525.682 1.525 1.525h3.051a4.578 4.578 0 00-9.153 0h3.05c0-.843.684-1.526 1.526-1.526zm18.307 0c.842 0 1.525.682 1.525 1.525h3.051a4.578 4.578 0 00-4.576-4.577 4.578 4.578 0 00-4.577 4.577h3.051c0-.843.683-1.526 1.526-1.526z" fill="#FF007E"/><path d="M127.83 63.251l-.443-.107V25.935C127.387 11.612 115.776 0 101.452 0 87.129 0 75.517 11.612 75.517 25.935V63.13l-.458.122A13.775 13.775 0 0064.838 76.54v13.47c0 .843.683 1.526 1.526 1.526h70.177c.843 0 1.525-.683 1.525-1.526V76.54a13.775 13.775 0 00-10.236-13.29zm-18.75-4.927v-4.928a19.86 19.86 0 0011.961-15.393 7.223 7.223 0 003.295-1.434v25.767l-15.256-4.012zm3.051 3.95v4.852h-3.051c-.843 0-1.525.683-1.525 1.526v3.402l-3.906-2.334 5.813-8.147 2.669.702zM101.452 51.87c-9.266-.005-16.776-7.515-16.781-16.781V25.035l5.919-5.904a7.593 7.593 0 018.3-1.663l19.344 7.964v9.657c-.006 9.266-7.518 16.776-16.782 16.781zm19.833-17.07v-8.59a4.885 4.885 0 011.709 1.053 4.62 4.62 0 011.342 3.25 4.57 4.57 0 01-3.051 4.287zM101.452 3.05c12.039-.019 22.02 9.316 22.808 21.328a7.627 7.627 0 00-4.104-1.45l-20.107-8.283a9.408 9.408 0 00-1.648-.519V9.154H95.35v4.698a10.519 10.519 0 00-3.051.641v-5.34h-3.052v7.11c-.274.229-.564.442-.823.702l-5.98 5.98a7.675 7.675 0 00-3.8 1.434C79.47 12.386 89.43 3.072 101.452 3.051zM79.896 27.278a4.723 4.723 0 011.723-1.068v8.604a4.576 4.576 0 01-1.724-7.536zm-1.328 9.29a7.554 7.554 0 003.296 1.435 19.86 19.86 0 0011.96 15.393v4.928l-15.256 4.012V36.569zm15.256 30.558h-3.051v-4.851l2.67-.702 5.812 8.147-3.905 2.334v-3.402c0-.843-.685-1.526-1.526-1.526zm6.103 21.359h-13.73A6.103 6.103 0 0182.534 77.5l-1.83-2.44c-4.038 3.02-4.864 8.743-1.843 12.78.166.223.343.439.53.645H67.89V76.539a10.71 10.71 0 017.948-10.328l11.885-3.128v5.569c0 .843.683 1.525 1.525 1.525H92.3v4.577a1.51 1.51 0 00.778 1.328c.227.133.484.202.747.198.275 0 .544-.075.778-.214l5.325-3.188v15.607zm-3.479-27.95c.27-.278.422-.65.427-1.037v-5.126c3.008.733 6.147.733 9.154 0v5.126c.006.387.158.76.427 1.038l-5.004 7.017-5.004-7.017zm38.567 27.95h-11.503a9.13 9.13 0 00-1.312-13.426l-1.83 2.441a6.103 6.103 0 01-3.662 10.985h-13.73V72.878l5.324 3.188a1.526 1.526 0 002.304-1.312v-4.577h3.051c.843 0 1.526-.682 1.526-1.525v-5.569l11.869 3.128a10.704 10.704 0 017.963 10.328v11.946z" fill="#FF007E"/><path d="M101.452 47.294a4.578 4.578 0 004.577-4.577h-3.051a1.525 1.525 0 11-3.051 0h-3.052a4.577 4.577 0 004.577 4.577z" fill="#FF007E"/></svg>