<svg xmlns="http://www.w3.org/2000/svg" viewBox="0 0 73.49 73.49"><defs><style>.cls-1{fill:#3d3d3d}</style></defs><g id="Capa_2" data-name="Capa 2"><g id="Capa_1-2" data-name="Capa 1"><path class="cls-1" d="M37.16 73.49a36 36 0 01-29.11-14.6.66.66 0 01.13-.89.67.67 0 01.93.13 35 35 0 0058.76-37.78.66.66 0 011.13-.63 36.33 36.33 0 01-31.84 53.77z"/><path d="M5.28 54.65a1.49 1.49 0 01-1.34-.83A36.64 36.64 0 010 37.16a37.16 37.16 0 0165.84-23.63 1.5 1.5 0 11-2.31 1.9A34.17 34.17 0 003 37.16a33.82 33.82 0 003.61 15.32 1.49 1.49 0 01-1.33 2.17z" fill="#0093c9"/><path class="cls-1" d="M59.66 38.72a.66.66 0 01-.47-.19l-22-22-22 22a.66.66 0 01-.94 0 .68.68 0 010-.94l22.5-22.5a.68.68 0 01.94 0l22.5 22.5a.66.66 0 01-.47 1.13z"/><path class="cls-1" d="M50.66 29.72a.66.66 0 01-.66-.66v-9.24h-4.08v3.84a.66.66 0 01-1.32 0v-4.5a.67.67 0 01.66-.66h5.4a.66.66 0 01.66.66v9.9a.65.65 0 01-.66.66zm3.6 29.7h-34.2a.66.66 0 01-.66-.66v-26.1a.66.66 0 111.32 0V58.1H53.6V32.66a.66.66 0 111.32 0v26.1a.65.65 0 01-.66.66z"/><path class="cls-1" d="M43.46 39.62h-3.6a.66.66 0 01-.66-.62v-3.88h-4.08V39a.65.65 0 01-.66.66h-3.6a.66.66 0 01-.66-.66v-4.5a4.26 4.26 0 014.26-4.26h5.4a4.26 4.26 0 014.26 4.26V39a.65.65 0 01-.66.62zm-2.94-1.32h2.28v-3.84a2.94 2.94 0 00-2.94-2.94h-5.4a2.94 2.94 0 00-2.94 2.94v3.84h2.28v-3.84a.67.67 0 01.66-.66h5.4a.66.66 0 01.66.66z"/><path class="cls-1" d="M45.26 54h-16.2a2.46 2.46 0 01-2.46-2.46V40.76a2.46 2.46 0 012.46-2.46h16.2a2.46 2.46 0 012.46 2.46v10.8A2.46 2.46 0 0145.26 54zm-16.2-14.4a1.14 1.14 0 00-1.14 1.14v10.8a1.14 1.14 0 001.14 1.14h16.2a1.14 1.14 0 001.14-1.14V40.76a1.14 1.14 0 00-1.14-1.14z"/><path class="cls-1" d="M47.06 49.52h-19.8a.66.66 0 110-1.32h19.8a.66.66 0 010 1.32z"/><path class="cls-1" d="M28.32 53.86a.66.66 0 01-.47-.19.67.67 0 010-.93l4.34-4.34a.66.66 0 01.94 0 .65.65 0 010 .93l-4.34 4.34a.66.66 0 01-.47.19zm4.5 0a.66.66 0 01-.47-.19.67.67 0 010-.93l4.34-4.34a.66.66 0 01.94 0 .65.65 0 010 .93l-4.34 4.34a.66.66 0 01-.47.19zm4.5 0a.66.66 0 01-.47-.19.67.67 0 010-.93l4.34-4.34a.66.66 0 01.94 0 .65.65 0 010 .93l-4.34 4.34a.66.66 0 01-.47.19zm4.5 0a.66.66 0 01-.47-.19.67.67 0 010-.93l4.34-4.34a.66.66 0 01.94 0 .65.65 0 010 .93l-4.34 4.34a.66.66 0 01-.47.19z"/></g></g></svg>