<svg width="99" height="99" fill="none" xmlns="http://www.w3.org/2000/svg"><path d="M76.655 95.52L66.271 85.134a1.934 1.934 0 00-1.368-.566h-.002l-5.572.008h-.037c-3.075 0-6.156-.566-9.04-1.645l3.344-2.242a6.036 6.036 0 002.591-3.935 6.037 6.037 0 00-.996-4.605 6.09 6.09 0 00-5.09-2.589l7.702-7.701a6 6 0 00-1.953-9.78 5.96 5.96 0 00.82-3.031c0-1.6-.623-3.106-1.754-4.238a5.954 5.954 0 00-4.238-1.755 5.956 5.956 0 00-3.03.82 5.984 5.984 0 00-1.306-1.952 5.953 5.953 0 00-4.238-1.755c-1.6 0-3.105.623-4.237 1.755L35.1 44.688a5.995 5.995 0 00-1.222-1.763 5.953 5.953 0 00-4.238-1.755c-1.6 0-3.105.623-4.237 1.755l-1.226 1.226-4.983-4.956a3.717 3.717 0 010-5.25 3.718 3.718 0 014.965-.257l4.826 4.826c.377.378.872.566 1.367.566s.99-.188 1.367-.566a1.934 1.934 0 000-2.735l-8.325-8.325a3.717 3.717 0 010-5.25 3.717 3.717 0 015.25 0l14.587 14.614c.378.378.873.567 1.367.567a1.934 1.934 0 001.367-3.3L34.88 22.967a3.718 3.718 0 01.258-4.964 3.717 3.717 0 015.25 0l4.062 4.062a1.933 1.933 0 102.735-2.735l-4.062-4.062c-2.956-2.955-7.764-2.955-10.72 0a7.533 7.533 0 00-1.96 3.404 7.522 7.522 0 00-4.422-1.424 7.531 7.531 0 00-5.36 2.22c-2.66 2.66-2.924 6.822-.795 9.782a7.53 7.53 0 00-3.405 1.96c-2.789 2.79-2.944 7.228-.469 10.203a7.53 7.53 0 00-3.33 1.94c-2.955 2.955-2.955 7.763 0 10.719l.863.863c-3.263 3.918-5.036 8.806-5.029 13.968l.005 3.203L.566 80.04a1.934 1.934 0 002.735 2.735l8.501-8.501c.363-.364.567-.857.566-1.37l-.005-4.006a17.836 17.836 0 015.259-12.723l9.596-9.596.92-.92a2.11 2.11 0 011.503-.623 2.11 2.11 0 011.503.623c.402.401.623.935.623 1.503 0 .487-.164.95-.465 1.324l-2.556 2.556a1.934 1.934 0 000 2.735l.006.005.004.005c.378.378.873.566 1.368.566.494 0 .99-.188 1.367-.566l9.11-9.13a2.11 2.11 0 011.503-.623 2.128 2.128 0 011.662 3.45l-9.28 9.299a1.934 1.934 0 002.735 2.735l11.953-11.974a2.11 2.11 0 011.503-.623 2.128 2.128 0 011.503 3.629L40.207 62.504a1.934 1.934 0 002.734 2.735l9.3-9.28a2.127 2.127 0 012.827.16 2.128 2.128 0 010 3.006L42.013 72.18a2.503 2.503 0 00-.202 3.352 2.503 2.503 0 003.304.603l3.944-2.391a2.22 2.22 0 012.963.624 2.2 2.2 0 01.363 1.677 2.198 2.198 0 01-.944 1.433l-9.124 6.118a17.894 17.894 0 01-10.001 3.043h-.026l-6.197-.009h-.003c-.512 0-1.004.204-1.367.567l-8.501 8.5a1.934 1.934 0 002.734 2.736l7.934-7.934 5.395.007h.03a21.75 21.75 0 0012.155-3.698l1.954-1.31a29.76 29.76 0 0012.867 2.946h.043l4.769-.007 9.818 9.818c.377.377.872.566 1.367.566s.99-.189 1.367-.566a1.934 1.934 0 000-2.735zM20.178 48.151l-3.985 3.985-.797-.797a3.717 3.717 0 010-5.25 3.718 3.718 0 014.965-.258L21.43 46.9l-1.252 1.251zm78.255 25.592a1.94 1.94 0 00-1.367-.566 1.94 1.94 0 00-1.367.566c-.36.36-.566.857-.566 1.367 0 .509.207 1.008.566 1.367.36.36.859.567 1.367.567.509 0 1.008-.207 1.367-.567.36-.361.567-.858.567-1.367 0-.51-.207-1.007-.567-1.367zm-5.199-5.2l-4.619-4.619.011-7.818a29.497 29.497 0 00-5.015-16.527L75.1 26.887a7.647 7.647 0 00-4.985-3.283 7.645 7.645 0 00-5.833 1.263c-2.802 1.961-3.916 5.5-2.925 8.638l-5.054-5.054a1.934 1.934 0 00-2.734 2.735l10.856 10.856a2.734 2.734 0 003.662.22 2.734 2.734 0 00.658-3.61l-3.326-5.485a3.847 3.847 0 011.08-5.132 3.81 3.81 0 012.906-.629 3.808 3.808 0 012.482 1.635l8.51 12.692A25.644 25.644 0 0184.76 56.1l-.012 8.62c0 .514.203 1.007.566 1.37l5.186 5.187c.378.377.873.566 1.368.566a1.934 1.934 0 001.367-3.301z" fill="#666"/><path d="M51.759 23.907a1.94 1.94 0 00-1.365-.567c-.51 0-1.008.207-1.37.567-.36.36-.566.858-.566 1.367 0 .51.207 1.007.567 1.367.361.36.858.567 1.369.567a1.942 1.942 0 001.934-1.934c0-.509-.208-1.007-.57-1.367zm17.944 30.006a1.934 1.934 0 00-2.734-2.735l-.844.843c-3.61 3.611-3.61 9.487 0 13.098.378.377.873.566 1.367.566a1.934 1.934 0 001.367-3.301 5.4 5.4 0 010-7.628l.844-.843zM92.29 10.441c-1.229 0-2.43.35-3.47.987a6.64 6.64 0 00-3.47-.987c-3.699 0-6.709 3.066-6.709 6.833 0 2.135 1.535 4.699 4.693 7.84a49.23 49.23 0 004.312 3.79 1.93 1.93 0 002.349 0 49.292 49.292 0 004.312-3.79c3.158-3.14 4.693-5.705 4.693-7.84 0-3.768-3.01-6.833-6.71-6.833zm-3.47 14.453c-3.231-2.684-6.312-6.108-6.312-7.62 0-1.635 1.276-2.965 2.843-2.965.78 0 1.507.323 2.048.91a1.934 1.934 0 002.843 0 2.764 2.764 0 012.048-.91c1.567 0 2.843 1.33 2.843 2.965 0 1.508-3.081 4.933-6.313 7.62zM13.649 0c-1.23 0-2.43.349-3.47.987A6.641 6.641 0 006.71 0C3.01 0 0 3.065 0 6.832c0 2.135 1.535 4.7 4.693 7.84a49.293 49.293 0 004.312 3.79 1.93 1.93 0 002.349 0 49.292 49.292 0 004.312-3.79c3.158-3.14 4.693-5.705 4.693-7.84 0-3.767-3.01-6.832-6.71-6.832zm-3.47 14.453c-3.232-2.684-6.312-6.108-6.312-7.62 0-1.636 1.275-2.966 2.843-2.966.78 0 1.507.323 2.048.91a1.934 1.934 0 002.843 0 2.764 2.764 0 012.048-.91c1.567 0 2.843 1.33 2.843 2.965 0 1.508-3.082 4.934-6.313 7.62z" fill="#666"/></svg>