<svg xmlns="http://www.w3.org/2000/svg" viewBox="0 0 73.65 73.65"><defs><style>.cls-3,.cls-4{fill:none;stroke-linecap:round;stroke-linejoin:round;stroke:#3d3d3d;stroke-width:1.08px}.cls-3{fill-rule:evenodd}</style></defs><g id="Capa_2" data-name="Capa 2"><g id="Capa_1-2" data-name="Capa 1"><path d="M68.62 20.2A35.67 35.67 0 018.75 58.66" stroke-width="1.32" stroke="#3d3d3d" fill="none" stroke-linecap="round" stroke-linejoin="round"/><path d="M5.44 53.32a35.67 35.67 0 0159.41-38.67" stroke="#f7be00" stroke-width="3.33" fill="none" stroke-linecap="round" stroke-linejoin="round"/><path class="cls-3" d="M41.6 32.63a55.3 55.3 0 00-3.41 10.78 1.22 1.22 0 001 1.48 39 39 0 005.46.4 39.52 39.52 0 005.46-.4 1.24 1.24 0 001-1.5 62.84 62.84 0 00-3.4-10.76"/><path class="cls-3" d="M37.09 37.2c.51-2.67 2-9.06 6.11-9.06v-.44c-2.14 0-2-1.85-2-3.31a3.45 3.45 0 116.89 0c0 1.46.36 3.31-2 3.31v.43c4.1 0 5.86 6.57 6.42 9.33"/><path class="cls-4" d="M44.67 45.29v8.61"/><path class="cls-3" d="M40.89 45.29a47.05 47.05 0 00.34 6.81 2.09 2.09 0 002.07 1.8h2.75a2.06 2.06 0 002.06-1.8 54.93 54.93 0 00.35-6.81m7.44-4.97a65.92 65.92 0 00.73 12.76 1 1 0 001.08.87h2.17a1 1 0 001.12-.87 43.41 43.41 0 00.33-9.74"/><path class="cls-4" d="M58.8 47.04v6.91"/><path class="cls-3" d="M64.15 46.14a30.6 30.6 0 00-.42-3.49c-.19-1.29-1.22-2.52-3.87-2.7v-.26a2.65 2.65 0 001.35-2.36 2.41 2.41 0 10-4.81 0 2.65 2.65 0 001.35 2.36V40c-2.62.18-3.59.29-4.31-.27s-.77-2.29-1-2.84M18.5 48.21c0 2.81-.09 4.87-.09 4.87a1 1 0 01-1.08.87h-3a1 1 0 01-1.09-.87 37.83 37.83 0 010-4.87"/><path class="cls-4" d="M15.76 48.21v5.74"/><path class="cls-3" d="M25.67 33v19a1.89 1.89 0 001.89 1.89h3.79a1.9 1.9 0 001.9-1.89V33"/><path class="cls-4" d="M29.46 41.97v11.79"/><path class="cls-3" d="M10.51 43.91a13.94 13.94 0 011.07-2 3.82 3.82 0 013.12-2v-.26a2.65 2.65 0 01-1.35-2.36 2.52 2.52 0 012.4-2.62 2.52 2.52 0 012.41 2.62 2.65 2.65 0 01-1.35 2.36V40c2.62.18 3.19 0 3.91-.56a3.22 3.22 0 001.13-2.59v-4.67c0-2.24 1.45-3.94 5.71-4.24v-.41c-1.08-.58-1.45-1.79-1.45-3.2a3.41 3.41 0 013.26-3.55h.12a3.41 3.41 0 013.26 3.55c0 1.41-.37 2.62-1.46 3.2v.41c4.26.3 5.72 2 5.72 4.24v5.42"/><path class="cls-3" d="M13.94 42.63a24.64 24.64 0 00-2.49 5.58H20a24.43 24.43 0 00-2.37-5.66"/></g></g></svg>