<svg width="109" height="100" fill="none" xmlns="http://www.w3.org/2000/svg"><path d="M66.85 29.933a5.88 5.88 0 00-3.566-3.923 11.15 11.15 0 003.777-8.366v-6.387C67.06 5.094 62.046.081 55.884.081c-6.163 0-11.177 5.013-11.177 11.176v6.387a11.15 11.15 0 003.776 8.366 5.88 5.88 0 00-3.553 3.875h-3.64a5.864 5.864 0 00-5.63-4.258H25.014a5.864 5.864 0 00-5.649 4.319c-9.036.711-16.173 8.287-16.173 17.503v3.255A4.798 4.798 0 000 55.219a1.597 1.597 0 003.193 0c0-.88.717-1.596 1.597-1.596s1.597.716 1.597 1.596v42.685a1.597 1.597 0 003.193 0V55.219a4.798 4.798 0 00-3.193-4.515v-3.255c0-7.384 5.598-13.482 12.773-14.28v38.762c0 .882.715 1.597 1.597 1.597h1.174l-1.278 22.155a1.597 1.597 0 001.09 1.607l6.386 2.128a1.596 1.596 0 101.01-3.029l-5.228-1.742 1.219-21.12h2.014c.881 0 1.596-.714 1.596-1.596v-8.099c.527.075 1.06.116 1.597.116.537 0 1.07-.04 1.597-.116v8.1c0 .88.714 1.596 1.596 1.596h1.175l-1.279 22.155a1.597 1.597 0 001.09 1.607l6.386 2.128a1.595 1.595 0 002.02-1.01 1.597 1.597 0 00-1.01-2.019l-5.227-1.742 1.218-21.12h2.014c.882 0 1.597-.714 1.597-1.596V33.08h3.193v19.69c0 3.192 1.347 6.074 3.501 8.113l-2.008 34.8a1.597 1.597 0 001.09 1.607l6.386 2.128a1.595 1.595 0 101.01-3.029l-5.227-1.742 1.828-31.692c1.403.636 2.959.993 4.597.993 1.792 0 3.486-.427 4.989-1.18l-1.9 32.915a1.597 1.597 0 001.09 1.607l6.386 2.128a1.597 1.597 0 101.01-3.029l-5.227-1.742 1.987-34.44a11.13 11.13 0 002.842-7.436V33.154c8.938.81 15.966 8.342 15.966 17.488a1.597 1.597 0 103.194 0c0-10.98-8.57-19.993-19.37-20.71zM25.548 70.335h-3.194V31.482a2.664 2.664 0 012.662-2.661h.532v41.514zm6.387-9.743a8.12 8.12 0 01-3.194 0v-6.224h3.194v6.224zm0-9.418H28.74V28.821h3.194v22.353zm6.386 19.16h-3.193V28.822h.532c1.37 0 2.5 1.04 2.645 2.372a1.591 1.591 0 00.016.654v38.488zm9.58-59.077c0-4.402 3.582-7.983 7.984-7.983s7.983 3.581 7.983 7.983v.533h-3.223a6.376 6.376 0 00-4.76-2.13 6.376 6.376 0 00-4.76 2.13H47.9v-.533zm0 6.387v-2.661h4.001c.533 0 1.03-.266 1.327-.709a3.191 3.191 0 015.312 0c.297.443.794.709 1.327.709h4v2.661c0 4.402-3.581 7.983-7.983 7.983-4.402 0-7.984-3.58-7.984-7.983zm7.984 43.11c-3.855 0-7.081-2.747-7.823-6.386h15.646c-.742 3.64-3.968 6.386-7.823 6.386zm7.983-9.58h-6.386v-4.79a1.597 1.597 0 10-3.194 0v4.79H47.9V31.482a2.664 2.664 0 012.662-2.661h3.725v11.177a1.597 1.597 0 103.194 0V28.82h3.725a2.664 2.664 0 012.661 2.66v19.693z" fill="#F8BC26"/><path d="M40.902 7.617a1.416 1.416 0 00-.038-.113C39.318 3.182 35.184.081 30.337.081c-2.611 0-5.014.902-6.919 2.408a1.72 1.72 0 00-.189.149 11.196 11.196 0 00-3.747 5.964c-3.718.112-6.709 3.169-6.709 6.913a6.927 6.927 0 006.92 6.92 6.916 6.916 0 004.62-1.77 11.108 11.108 0 006.024 1.77c6.163 0 11.177-5.015 11.177-11.178a11.14 11.14 0 00-.612-3.64zM30.337 3.274a7.976 7.976 0 016.382 3.193h-6.382a4.799 4.799 0 01-3.98-2.126 7.932 7.932 0 013.98-1.067zM19.692 19.24a3.73 3.73 0 01-3.725-3.726 3.728 3.728 0 013.208-3.685 11.126 11.126 0 002.692 6.708 3.722 3.722 0 01-2.175.703zm10.645 0c-4.402 0-7.983-3.582-7.983-7.984 0-1.794.595-3.453 1.599-4.787a7.999 7.999 0 006.384 3.19h7.823c.105.517.16 1.05.16 1.597 0 4.402-3.58 7.984-7.983 7.984zm54.287 39.386a1.597 1.597 0 100-3.194 1.597 1.597 0 000 3.194zm22.779 18.521H89.414V66.609a4.796 4.796 0 00-4.79-4.79 4.798 4.798 0 00-4.515 3.193h-1.872a1.597 1.597 0 100 3.194h1.597V85.13c0 3.856 2.747 7.081 6.387 7.823v4.95a1.597 1.597 0 103.193 0v-4.79h3.193v4.79a1.597 1.597 0 103.194 0v-4.79h4.79a4.796 4.796 0 004.79-4.79V80.34h2.022a1.597 1.597 0 100-3.193zm-5.215 11.177c0 .88-.717 1.596-1.597 1.596H87.817a4.796 4.796 0 01-4.79-4.79V66.61c0-.88.716-1.597 1.597-1.597.88 0 1.597.716 1.597 1.597v15.328a4.796 4.796 0 004.79 4.79h6.386a1.597 1.597 0 100-3.193h-6.386a1.6 1.6 0 01-1.597-1.597V80.34h12.774v7.984z" fill="#F8BC26"/></svg>