<svg version="1.1" id="Capa_1" xmlns="http://www.w3.org/2000/svg" x="0" y="0" viewBox="0 0 81.7 81.7" xml:space="preserve"><style>.st0,.st2{fill:#3d3d3d}.st2{stroke:#3d3d3d;stroke-width:.5;stroke-miterlimit:10}</style><g id="Capa_1-2"><path class="st0" d="M41.4 81.7C29 81.7 16.8 76 8.9 65.4c-.2-.3-.2-.8.2-1 .3-.2.8-.2 1 .2 11.5 15.5 33 20.2 50 10.9 18.8-10.3 25.7-34 15.3-52.8-.2-.4-.1-.8.3-1s.8-.1 1 .3c10.7 19.4 3.6 44-15.9 54.7-6.1 3.4-12.8 5-19.4 5z"/><path d="M5.9 60.7c-.6 0-1.2-.3-1.5-.9-5-9.9-5.8-21-2.3-31.5s10.8-19 20.6-23.9C40-4.4 60.8 0 73.1 15c.6.7.5 1.8-.2 2.3-.7.6-1.8.5-2.3-.2C59.2 3.3 40.1-.7 24.2 7.3c-9.1 4.6-15.8 12.4-19 22-3.2 9.7-2.4 20 2.1 29 .4.8.1 1.8-.7 2.2-.2.2-.5.2-.7.2z" fill="#f7be00"/></g><path class="st0" d="M44 37.2c.3 0 .6-.3.6-.6v-6c0-.3-.3-.6-.6-.6h-6.3c-2.4 0-4.6 1.2-5.8 3.1l-2.1 3.2c-.1.1-.1.4 0 .5.1.2.3.3.5.3l13.7.1zm-11.1-3.5c1-1.6 2.9-2.5 4.8-2.5h5.7v4.9H31.3l1.6-2.4zm26.8 3.5c.3 0 .6-.3.6-.6 0-1.7-.6-3.2-1.8-4.5-1.3-1.4-3.2-2.1-5.2-2.1h-5.4c-.3 0-.6.3-.6.6v6c0 .3.3.6.6.6h11.8zm-11.2-6h4.8c2.9 0 5.3 1.9 5.8 4.5l.1.4H48.5v-4.9z"/><path class="st2" d="M65.9 35.1h-.8l-.1-.3c-.5-3.3-4.3-7.8-9.8-7.8H35.9c-5 0-9.4 8-10.3 9.7l-.1.1h-5.2c-3.4 0-6.2 2.8-6.2 6.2v4.8c0 .8.7 1.5 1.5 1.5h2.3v.3c.4 2.8 2.9 4.9 5.7 4.9 2.8 0 5.3-2.1 5.7-4.9v-.3h19.5v.3c.4 2.8 2.9 4.9 5.7 4.9 2.8 0 5.3-2.1 5.7-4.9v-.3h2.9c.8 0 1.5-.7 1.5-1.5V43h.8c1.1 0 1.9-.8 1.9-1.9v-4c.2-1.4-.4-2-1.4-2zM23.7 53.4c-2.6 0-4.7-2.1-4.7-4.7s2.1-4.7 4.7-4.7 4.7 2.1 4.7 4.7-2 4.7-4.7 4.7zm30.9 0c-2.6 0-4.7-2.1-4.7-4.7S52 44 54.6 44s4.7 2.1 4.7 4.7-2 4.7-4.7 4.7zm9.3-5.4l-.3.3h-3.2V48c-.4-2.9-2.9-5-5.7-5-2.8 0-5.3 2.1-5.7 4.9v.3H29.5v-.3c-.4-2.8-2.9-4.9-5.7-4.9-2.8 0-5.3 2.1-5.7 4.9v.3h-2.7v-5.1c0-2.7 2.3-5 5-5h5.4c.2 0 .4-.1.5-.3 1.3-2.7 5.5-9.6 9.6-9.6h19.2c5.7 0 8.8 5 8.8 7.6V48zm2.8-7c0 .5-.3.8-.8.8h-.8v-5.6h.8c.5 0 .8.3.8.8v4z"/><path class="st2" d="M23.7 46c-1.5 0-2.7 1.2-2.7 2.7s1.2 2.7 2.7 2.7 2.7-1.2 2.7-2.7-1.1-2.7-2.7-2.7zm0 5.1c-1.3 0-2.3-1-2.3-2.3s1-2.3 2.3-2.3 2.3 1 2.3 2.3c.1 1.2-1 2.3-2.3 2.3zm30.9-5c-1.5 0-2.7 1.2-2.7 2.7s1.2 2.7 2.7 2.7 2.7-1.2 2.7-2.7-1.1-2.7-2.7-2.7zm0 5.1c-1.3 0-2.3-1-2.3-2.3s1-2.3 2.3-2.3c1.3 0 2.3 1 2.3 2.3.1 1.2-1 2.3-2.3 2.3z"/></svg>