<svg xmlns="http://www.w3.org/2000/svg" viewBox="0 0 81.65 81.65"><defs><style>.cls-3{fill:none;stroke-linecap:round;stroke-linejoin:round;stroke:#3d3d3d;stroke-width:1.39px}</style></defs><g id="Capa_2" data-name="Capa 2"><g id="Capa_1-2" data-name="Capa 1"><path d="M76.06 22.26A39.63 39.63 0 019.53 65" stroke-width="1.47" stroke="#3d3d3d" fill="none" stroke-linecap="round" stroke-linejoin="round"/><path d="M5.86 59.06a39.63 39.63 0 0166-43" stroke="#f7be00" stroke-width="3.33" fill="none" stroke-linecap="round" stroke-linejoin="round"/><path class="cls-3" d="M46.37 66.45c-2 .11-4.23.18-6.54.18A104.17 104.17 0 0119 64.68a2.16 2.16 0 01-1-3.76c2.76-2.32 6.7-4.2 12.18-5.13.93-.16 2.23-2.48 1.45-5.11m3.35-13.19h.19m9.28 0h.18m-11.9-1.13h4.61m9.61 0h-4.61m8.79 5.11c1.86-1 2.27-4.24 2.27-5.88 0-1.08-.92-1.78-1.39-2.25.12-.61.79-.14.79-.14a10.85 10.85 0 001-3.23c.63-5.56-2.72-9.58-7.27-11.2-1.83-.65-9.42-2-12.25-4.7-1-1-.32 4.59-1.25 5-4.85 2.18-8.32 5.61-6.86 11.64.19.79.83.87 1.48 2.62-.46.47-1.39 1.17-1.39 2.25 0 1.64.42 4.95 2.28 5.88.17 3.59 3.19 9.21 3.19 9.21 3.28 3 5.62 4.26 6.85 4.26a3.68 3.68 0 011.42-.3 3.73 3.73 0 011.27.23"/><path class="cls-3" d="M27 31.92c0-1.77 1.3-1.85 3.47-2.94s3.43-2.72 6.14-3a4.73 4.73 0 00-1.07 5.91c6-4.53 10 0 14.76-1.69a2.09 2.09 0 012.88 2.13M41.81 60.24a13.08 13.08 0 01-1.91.15c-5.08 0-8.79-3.2-9.2-4.64m11.02-8.04a5.2 5.2 0 01-1.89.28 5.29 5.29 0 01-1.9-.28"/><path d="M55.91 49.6v11.36m-5.68-5.68h11.36" stroke-width="3.78" fill="none" stroke-linecap="round" stroke-linejoin="round" stroke="#3d3d3d"/><circle class="cls-3" cx="55.91" cy="55.28" r="11.35"/></g></g></svg>