<svg xmlns="http://www.w3.org/2000/svg" viewBox="0 0 81.65 81.65"><g data-name="Capa 2"><g data-name="Capa 1" fill="none" stroke-linecap="round" stroke-linejoin="round"><path d="M76.06 22.26A39.63 39.63 0 019.53 65" stroke-width="1.47" stroke="#3d3d3d"/><path d="M5.86 59.06a39.63 39.63 0 0166-43" stroke="#f7be00" stroke-width="3.33"/><path d="M53.16 36.21a16.26 16.26 0 00.9-1.54 15.14 15.14 0 001.25-3.42 13.67 13.67 0 00.31-3.59v-.46l-.17-1.2a13.38 13.38 0 00-.36-1.63 15.39 15.39 0 00-1.18-2.92 14.76 14.76 0 00-1.65-2.42 14 14 0 00-3.94-3.24 13 13 0 00-1.94-.89 13.9 13.9 0 00-1.72-.51 12.66 12.66 0 00-1.45-.25l-.4-.05h-3l-.46.05c-.23 0-.47.06-.73.11l-.62.15a14.38 14.38 0 00-3.69 1.41 13.85 13.85 0 00-3.93 3.24 14.09 14.09 0 00-1.66 2.43 14.72 14.72 0 00-1.18 2.93 13.6 13.6 0 00-.4 1.59v.25a.83.83 0 000 .13l-.14 1.3a13.71 13.71 0 00.31 3.58 14.87 14.87 0 001.26 3.42c.31.59.6 1.09.88 1.52l5.21 8 5-6.65L35.53 32a9.69 9.69 0 01-.53-.8 7 7 0 01-.71-1.66 6.51 6.51 0 01-.23-1.62l.06-.94a5.06 5.06 0 01.14-.81 7.67 7.67 0 01.54-1.55 7.12 7.12 0 01.81-1.31 7.46 7.46 0 012-1.8 7.72 7.72 0 011-.51c.23-.09.43-.17.63-.23l.3-.09a6.14 6.14 0 01.72-.16l1.06-.11h.6l.41.06c.24 0 .5.09.8.17A7.73 7.73 0 0144 21a6.73 6.73 0 011 .51 7.46 7.46 0 012 1.8 7.21 7.21 0 01.8 1.3 7.88 7.88 0 01.54 1.52c.06.28.12.56.15.82l.05.91a6.42 6.42 0 01-.22 1.66 7.93 7.93 0 01-.7 1.66c-.19.32-.36.59-.55.85L23.75 63.24l7.43 5.31 18-26.39zM48.03 48.7l-4.95 7.28 8.31 12.57 7.44-5.31-10.8-14.54z" stroke="#3d3d3d" stroke-width="1.45"/></g></g></svg>