<svg xmlns="http://www.w3.org/2000/svg" viewBox="0 0 81.65 81.65"><defs><style>.cls-3{fill:none;stroke-linecap:round;stroke-linejoin:round;stroke:#3d3d3d;stroke-width:1.32px;fill-rule:evenodd}</style></defs><g id="Capa_2" data-name="Capa 2"><g id="Capa_1-2" data-name="Capa 1"><path d="M76.06 22.26A39.63 39.63 0 019.53 65" stroke-width="1.47" stroke="#3d3d3d" fill="none" stroke-linecap="round" stroke-linejoin="round"/><path d="M5.86 59.06a39.63 39.63 0 0166-43" stroke="#f7be00" stroke-width="3.33" fill="none" stroke-linecap="round" stroke-linejoin="round"/><path class="cls-3" d="M42.08 25.39c5.57-10.9 18.23-5.7 17.68 4-.58 10.15-14.83 13.65-17.68 21.33-2.85-7.87-16.92-11-17.69-21.33-.72-9.69 12.72-14.94 17.69-4z"/><path class="cls-3" d="M48.13 32.84h-3.88V29a1 1 0 00-1-1h-2.39a1 1 0 00-1 1v3.87H36a1 1 0 00-1 1v2.42a1 1 0 001 1h3.87v3.88a1 1 0 001 1h2.42a1 1 0 001-1V37.2h3.88a1 1 0 001-1v-2.39a1 1 0 00-1.04-.97zm-4.06 26.71a31.74 31.74 0 014.93-.16 32.47 32.47 0 015-5.37c1.45-1.25 3.64 0 2.19 1.91-1.7 2.22-5.34 7.39-5.95 7.74s-9.77 3-12.21 3c-1.22 0-4.88-1.73-6.1-2.44H30m0-8.6c2 .18 3.14-1.32 6.18-1.6 3.69-.33 4.75.79 5.87 1.19a5.9 5.9 0 002.34-.15c4.18-1.58 5.75-.39 5.75 1.22A2.17 2.17 0 0149 58.22a7.83 7.83 0 01-4 1.28 19.42 19.42 0 00-3.25.35 5.85 5.85 0 01-2.65 1.43"/><path class="cls-3" d="M49.75 55.1a14.14 14.14 0 013.22-3c1.84-1.32 3.51-.36 2.8 1.27m-8.34.91a10.8 10.8 0 013-3c1.55-1 2.41-.41 2.72.52M28.81 68.55h-3.87a1.22 1.22 0 01-1.21-1 72 72 0 01-1-13A1.22 1.22 0 0124 53.29h4.85A1.22 1.22 0 0130 54.51v12.82a1.22 1.22 0 01-1.19 1.22z"/><path stroke-width="1.32" stroke="#3d3d3d" fill="none" stroke-linecap="round" stroke-linejoin="round" d="M26.97 65.5h0"/></g></g></svg>