<svg xmlns="http://www.w3.org/2000/svg" viewBox="0 0 81.65 81.65"><defs><style>.cls-3,.cls-4{fill:none;stroke-linecap:round;stroke-linejoin:round;stroke:#3d3d3d;stroke-width:1.25px}.cls-4{fill-rule:evenodd}</style></defs><g id="Capa_2" data-name="Capa 2"><g id="Capa_1-2" data-name="Capa 1"><path d="M76.06 22.26A39.63 39.63 0 019.53 65" stroke-width="1.47" stroke="#3d3d3d" fill="none" stroke-linecap="round" stroke-linejoin="round"/><path d="M5.86 59.06a39.63 39.63 0 0166-43" stroke="#f7be00" stroke-width="3.33" fill="none" stroke-linecap="round" stroke-linejoin="round"/><path class="cls-3" d="M29.89 27.92a5.67 5.67 0 01-1.55.79 1.5 1.5 0 00-.54-.11 1.31 1.31 0 00-.51.11 3.65 3.65 0 01-1.69-.79l1.4 3.49L25.5 39l2.25 3L30 39l-1.5-7.59z"/><path class="cls-4" d="M50.3 36.26C48 40.9 46.1 48.52 45.31 52a1.8 1.8 0 001.49 2.17 57.61 57.61 0 008 .59 57.93 57.93 0 008-.59A1.8 1.8 0 0064.25 52c-.81-3.46-2.7-10.94-5-15.73"/><path class="cls-4" d="M57 29.07v.62c6 0 8.57 9.6 9.39 13.63A1.93 1.93 0 0165 45.55l-2.1.57m-21.08-3.85C43 37.92 47.06 29.7 52.63 29.7v-.63"/><path class="cls-3" d="M54.79 54.77v12.57"/><path class="cls-4" d="M49.85 54.77a77.61 77.61 0 00.45 9.95 2.83 2.83 0 002.7 2.62h3.6a2.81 2.81 0 002.69-2.62 88.87 88.87 0 00.45-9.95M21.47 35.63c-1 17.74.83 29.09.83 29.09a2.69 2.69 0 002.7 2.62h5.39a2.7 2.7 0 002.7-2.62 154.22 154.22 0 00.82-29.09"/><path class="cls-4" d="M25.53 27.9c-6.39.47-9 3.12-9.21 6.43-.38 5.31 0 12.35 4.08 12.35h.7m20.83-3.19a37.46 37.46 0 00-2.87-9.16c-1.47-3.07-2.76-6-9.21-6.43"/><path class="cls-3" d="M27.69 50.27v17.07"/><path class="cls-4" d="M34 35.72c1.84 3 4.92 8.14 5.89 9.85a2.2 2.2 0 003.64.37c.91-.9 3.66-7.09 6.79-9.68"/><path class="cls-3" d="M22.3 64.65c-.05-1.19 5.39-1.24 5.39 0m5.39 0c.05-1.19-5.39-1.24-5.4 0m22.61 0c0-1.19 4.5-1.24 4.5 0m4.49 0c0-1.19-4.5-1.24-4.5 0M21.19 44.88h13m-17.34-1.79a8.2 8.2 0 014.34 0M38 42.3a4.93 4.93 0 013.42-1.37"/><path class="cls-4" d="M46.08 48.79a63.53 63.53 0 008.63.59 66.56 66.56 0 008.75-.59M48.93 36.11a41.77 41.77 0 005.8.4 43.92 43.92 0 005.88-.4"/><path class="cls-3" d="M32.41 20.89a3.93 3.93 0 00.36-1.16 3.74 3.74 0 00-2.62-4c-.66-.24-3.34-1.17-3.91.56-.2-.73-.61-.6-.95-.45-1.74.78-3 2-2.47 4.19.07.28.3.31.54.94-.17.17-.5.42-.5.81 0 .59.15 1.78.81 2.11a11.65 11.65 0 001 3.32 5.21 5.21 0 002.61 1.53 1.31 1.31 0 01.51-.11 1.5 1.5 0 01.54.11 6.72 6.72 0 002.47-1.53 11.75 11.75 0 001-3.32c.67-.36.82-1.52.82-2.11 0-.39-.33-.64-.5-.81.05-.25.29-.08.29-.08z"/><path class="cls-3" d="M23.12 20.43c-.06-1 1.27-2.7 1.75-2.67-.17.58 1.22 1 2.27 1.07 2.09.22 5.68 0 5.4 1.7m-6.28 2.2h.08m2.86 0h.08M57 29.07a13.14 13.14 0 002.77-.71 2.38 2.38 0 001.65-3.05c-.65-2-.13-3.58-.59-5.53a6 6 0 00-6.1-4.54c-3.15 0-5.65 1.87-6.17 4.54-.37 1.94.13 3.51-.49 5.45a2.42 2.42 0 001.61 3.06 15.79 15.79 0 003 .78"/><path class="cls-3" d="M58.72 21.29a2.47 2.47 0 01-.14 2.71 6.09 6.09 0 01-1.21 3 3.47 3.47 0 01-2.7 1.41A3.17 3.17 0 0152 27a5.83 5.83 0 01-1.21-3 2.41 2.41 0 01-.14-2.67 5.43 5.43 0 01-.29-1.1 6.46 6.46 0 007-1.38 6 6 0 001.36 2.44zm-5.51 1.44h.08m2.86 0h.09"/></g></g></svg>