<svg width="104" height="113" fill="none" xmlns="http://www.w3.org/2000/svg"><path d="M2 38.5C9.434 17.245 29.666 2 53.457 2 73.11 2 90.333 12.402 99.921 28M5.547 82.5C14.78 99.477 32.773 111 53.457 111c20.685 0 38.678-11.523 47.911-28.5" stroke="#F8BC26" stroke-width="4" stroke-linecap="round"/><path d="M87.75 57.25H85.5v-9c0-2.475-2.025-4.5-4.5-4.5h-4.5V41.5c0-2.475-2.025-4.5-4.5-4.5h-6.75a4.513 4.513 0 00-4.5 4.5v15.75h-13.5V41.5c0-2.475-2.025-4.5-4.5-4.5H36a4.513 4.513 0 00-4.5 4.5v2.25H27a4.513 4.513 0 00-4.5 4.5v9h-2.25A2.257 2.257 0 0018 59.5a2.257 2.257 0 002.25 2.25h2.25v9c0 2.475 2.025 4.5 4.5 4.5h4.5v2.25c0 2.475 2.025 4.5 4.5 4.5h6.75c2.475 0 4.5-2.025 4.5-4.5V61.75h13.5V77.5c0 2.475 2.025 4.5 4.5 4.5H72c2.475 0 4.5-2.025 4.5-4.5v-2.25H81c2.475 0 4.5-2.025 4.5-4.5v-9h2.25A2.257 2.257 0 0090 59.5a2.257 2.257 0 00-2.25-2.25zM27 70.75v-22.5h4.5v22.5H27zm15.75 6.75H36v-36h6.75v36zm29.25 0h-6.75v-36H72v36zm9-6.75h-4.5v-22.5H81v22.5z" fill="#000"/></svg>