<svg width="295" height="71" fill="none" xmlns="http://www.w3.org/2000/svg"><path d="M9.615 61.401c.613 0 1.111-.5 1.111-1.118 0-.616-.498-1.117-1.11-1.117-.612 0-1.11.502-1.11 1.117 0 .618.498 1.118 1.11 1.118z" fill="#009FE3"/><path d="M95.529 70.16c.613 0 1.11-.5 1.11-1.117 0-.618-.497-1.12-1.11-1.12-.612 0-1.109.502-1.109 1.12 0 .617.497 1.117 1.109 1.117z" fill="#69246F"/><path d="M42.974 63.389v-.004c-.002-1.246-.435-2.297-1.22-3.007l-.056-.048-.012-.012h-.003c-.738-.635-1.739-.97-2.924-.98a.126.126 0 00-.026-.002.275.275 0 00-.033.002h-.009l-.077.001h-.08c-.01 0-.02-.003-.035-.003h-.01c-.007 0-.015 0-.023.002-1.184.013-2.18.346-2.916.98h-.003l-.067.06c-.783.706-1.216 1.754-1.222 2.992v.002l-.001.005-.006 6.416c0 .084.036.168.1.228a.356.356 0 00.245.096h1.141a.357.357 0 00.243-.096c.065-.06.1-.144.1-.228l.003-6.2c.007-.908.24-1.552.659-1.977.406-.413 1.026-.645 1.879-.661.844.016 1.464.248 1.87.661.42.425.651 1.07.658 1.979v6.198a.32.32 0 00.1.228.357.357 0 00.244.096h1.142a.35.35 0 00.243-.096.311.311 0 00.102-.228l-.006-6.404zm39.81 0v-.004c-.002-1.246-.435-2.297-1.221-3.007l-.054-.048-.013-.012h-.002c-.739-.635-1.74-.97-2.925-.98a.105.105 0 00-.026-.002.274.274 0 00-.032.002h-.01l-.077.001h-.08c-.009 0-.02-.003-.034-.003h-.011c-.007 0-.015 0-.023.002-1.183.013-2.18.346-2.915.98h-.004l-.067.06c-.782.706-1.216 1.754-1.222 2.992v.007l-.007 6.416c0 .084.036.168.101.228a.355.355 0 00.244.096h1.142a.357.357 0 00.242-.096c.065-.06.1-.144.1-.228l.003-6.2c.007-.908.24-1.552.659-1.977.406-.413 1.026-.645 1.88-.661.844.016 1.463.248 1.87.661.418.425.65 1.07.658 1.979l-.001 6.198a.32.32 0 00.1.228.357.357 0 00.244.096h1.143a.35.35 0 00.243-.096.311.311 0 00.101-.228l-.006-6.404zm-21.009-2.957c-.005-.008-.012-.015-.02-.023-.65-.599-1.69-.97-2.894-.972-.018-.002-.042-.002-.066-.002-.99 0-1.968.206-2.818.933v-.636h.002v-3.234a.313.313 0 00-.101-.229.359.359 0 00-.244-.096H54.51a.365.365 0 00-.244.096.312.312 0 00-.1.23v13.31c0 .085.036.169.1.228a.357.357 0 00.244.096h1.125c.09 0 .178-.035.243-.096a.306.306 0 00.1-.228v-.665c.752.84 1.829 1.129 2.817 1.127h.07c1.201-.002 2.241-.374 2.89-.973 1.212-1.147 1.49-2.906 1.493-4.541-.004-1.627-.281-3.182-1.473-4.325zm-.337 4.325v.048c-.004 1.022-.112 2.02-.5 2.734-.382.687-.995 1.146-2.19 1.165a.267.267 0 00-.043 0h-.02c-1.2-.012-1.822-.472-2.207-1.166-.39-.716-.5-1.723-.5-2.751v-.062c0-1.022.11-1.84.5-2.556.385-.693 1.006-1.153 2.207-1.165h.046c1.201.012 1.822.472 2.208 1.167.39.713.499 1.532.499 2.554v.032zM32.98 62.913v-.007c0-1.088-.363-2.02-1.12-2.644-.766-.627-1.861-.922-3.275-.923h-.07c-1.482-.005-2.658.319-3.555 1.272l-.004-.002-.052.06a4.896 4.896 0 00-.196.234l-.002.003-.092.109a.307.307 0 00-.07.24c.01.089.054.173.122.232l.052.044c.02.025.042.046.066.067l.201.164.533.461a.35.35 0 00.246.088.301.301 0 00.222-.108l.343-.407c.213-.231.433-.395.697-.512.375-.164.854-.24 1.548-.248h.032c.986.003 1.6.202 1.952.511.35.303.528.762.53 1.475l.002.034v.671h-2.93c-1.182.003-2.17.27-2.883.827-.709.544-1.104 1.382-1.104 2.357v.037c.002.812.308 1.61.862 2.164.75.739 1.749 1.008 3.258 1.008h.781c1.383 0 2.373-.34 3.012-1.03.637-.687.892-1.683.892-2.922v-3.255zm-1.89 3.307c-.003.858-.191 1.332-.443 1.554-.609.56-1.361.645-2.279.647h-.028c-.884.001-1.464-.152-1.793-.39-.314-.227-.474-.55-.482-1.106v-.026c.005-.551.173-.895.49-1.138.33-.252.889-.416 1.722-.416h2.813v.875zm41.711-3.292v-.008c.001-1.087-.362-2.018-1.12-2.641-.762-.628-1.86-.922-3.271-.924h-.071c-1.483-.003-2.66.32-3.556 1.273l-.003-.004-.052.062a4.465 4.465 0 00-.198.233l-.001.003-.091.108a.308.308 0 00-.07.24.35.35 0 00.122.233l.05.045a.836.836 0 00.067.066l.2.165.533.461c.07.06.16.09.246.087a.312.312 0 00.223-.109l.343-.407c.213-.23.433-.395.698-.512.374-.164.854-.24 1.547-.246h.032c.986 0 1.6.201 1.951.51.35.303.528.761.532 1.473v.706h-2.929c-1.18.003-2.169.27-2.883.826-.707.543-1.103 1.38-1.104 2.356l.001.037c.001.813.307 1.609.861 2.162.75.739 1.75 1.007 3.258 1.007h.781c1.382.001 2.374-.34 3.012-1.029.638-.687.893-1.682.893-2.919v-3.254zm-6.913 4.009v-.026c.006-.55.173-.894.489-1.137.33-.253.889-.416 1.723-.416h2.813v.875c-.002.858-.19 1.33-.443 1.552-.609.562-1.361.645-2.28.647h-.027c-.884.001-1.464-.151-1.793-.39-.313-.226-.475-.55-.482-1.105zm-50.507-7.56h-1.929l-.002-1.956-.001-.946c0-.17-.148-.309-.332-.309h-1.16a.351.351 0 00-.235.09.3.3 0 00-.098.219v1.743h.001v9.167c0 .745.215 1.416.687 1.923.45.492 1.177.799 2.019.799h.562v-.008h.488a.305.305 0 00.227-.102.352.352 0 00.095-.244V68.62a.36.36 0 00-.095-.245.304.304 0 00-.227-.102h-.897a1.523 1.523 0 01-.454-.073c-.08-.029-.13-.06-.178-.089-.05-.036-.078-.053-.13-.106-.171-.18-.267-.467-.27-.892v-5.91h1.93a.313.313 0 00.226-.101.36.36 0 00.095-.246v-1.133a.36.36 0 00-.095-.245.304.304 0 00-.227-.102zm8.319 1.338l-.106-.119a.104.104 0 00-.026-.04l-.064-.066-.089-.093-.074-.08-.002.002c-.657-.691-1.474-.981-2.344-.983-.017 0-.038 0-.067.002-.618 0-1.347.277-1.784.803l-.303.358V59.7a.313.313 0 00-.1-.23.358.358 0 00-.243-.095h-1.125a.36.36 0 00-.244.096.313.313 0 00-.1.228v10.097c0 .086.036.17.1.23s.153.095.244.095h.193l.02.001h.912a.36.36 0 00.242-.097.308.308 0 00.101-.229v-.174l.001-.007v-5.99l-.001-.023v-.485c.035-.557.211-1.058.502-1.423.31-.388.765-.641 1.378-.643.325 0 .539.039.723.116.179.078.36.212.6.458l.054.054.244.273a.315.315 0 00.23.104.363.363 0 00.246-.095l.843-.767a.374.374 0 00.118-.239.322.322 0 00-.078-.24zm28.34 3.882c-.005-.003-.01-.006-.012-.009h-.003c-.656-.459-1.488-.618-2.384-.695l-1.678-.14c-.7-.06-1.132-.205-1.383-.403-.213-.163-.345-.425-.35-.827v-.031c.005-.477.19-.823.518-1.059.353-.253.915-.415 1.71-.415h.008c1.017.001 1.857.238 2.557.689l-.001.001.425.3a.298.298 0 00.238.044.344.344 0 00.213-.143l.628-.914a.364.364 0 00.06-.252.313.313 0 00-.051-.13.324.324 0 00-.1-.115l-.072-.052c-1.001-.713-2.396-1.114-3.9-1.116-1.206 0-2.234.29-2.979.844a2.83 2.83 0 00-1.175 2.31v.043c0 .83.306 1.564.92 2.064.621.508 1.494.778 2.594.867l1.725.14c.634.058 1.028.198 1.261.393.203.164.333.425.334.843v.026c-.004.525-.216.888-.611 1.138-.423.27-1.113.434-2.07.434h-.007a.12.12 0 00-.017 0h-.01c-1.262-.005-2.162-.29-2.86-.866l-.364-.308a.304.304 0 00-.239-.07.358.358 0 00-.229.127l-.722.874a.363.363 0 00-.084.25.32.32 0 00.11.226l.343.29-.002.001c.006.006.014.01.02.015l.045.037.004-.003c1.06.769 2.384 1.136 4.005 1.136h.03c1.336-.001 2.464-.291 3.287-.859.813-.561 1.298-1.425 1.297-2.422v-.05c0-1.005-.389-1.764-1.029-2.213zm41.418 5.072l-1.408-1.987-2.82-4.118 2.192-2.327 1.276-1.349.078-.087c.147-.149.075-.302.011-.361a.363.363 0 00-.244-.096h-1.466c-.085 0-.199.067-.263.123-.002 0 0 0 0 0l-4.92 5.248V56.46a.32.32 0 00-.1-.228.36.36 0 00-.246-.096h-1.124a.355.355 0 00-.243.096.308.308 0 00-.102.228v13.335c0 .085.037.17.1.23a.37.37 0 00.246.096h1.124a.368.368 0 00.244-.096c.065-.06.1-.145.1-.23v-2.692l2.132-2.31 1.435 2.147h-.007l2.017 3.014c.047.066.121.172.291.172h1.464c.09 0 .18-.034.244-.096.064-.058.107-.213-.011-.361zM80.86 56.238h.2l.294.869.296-.87h.197v1.03h-.132v-.714c0-.048.003-.098.003-.154l-.294.867h-.14l-.294-.867v.143c.003.055.003.092.003.114v.61h-.132v-1.03zm1.582 0h.47a.44.44 0 01.189.035c.096.041.142.122.142.241 0 .061-.01.112-.036.151a.307.307 0 01-.11.096c.04.018.074.037.094.064a.23.23 0 01.03.13l.008.137c0 .04.005.07.008.089.01.031.025.052.046.06v.025h-.17c-.005-.01-.006-.02-.012-.033a.526.526 0 01-.006-.082l-.008-.172c-.006-.069-.028-.114-.074-.136a.295.295 0 00-.123-.018h-.31v.441h-.138v-1.028zm.454.47a.253.253 0 00.152-.04c.034-.022.055-.07.055-.141 0-.072-.025-.123-.078-.15a.256.256 0 00-.111-.02h-.333v.351h.315zm-.746.554c-.04 0-.067-.03-.067-.075s.028-.077.07-.077c.042 0 .07.032.07.077s-.028.075-.073.075zm1.408 0c-.041 0-.071-.03-.071-.075s.03-.077.072-.077c.044 0 .07.032.07.077s-.026.075-.07.075z" fill="#D6006D"/><path d="M117.413 13.828c-.019-.023-.039-.049-.065-.072-2.113-1.949-5.49-3.155-9.404-3.159-.052-.006-.133-.006-.209-.006-3.219-.003-6.393.67-9.152 3.032l-.004.002v-2.073h.006v-10.5a1.02 1.02 0 00-.326-.741A1.16 1.16 0 0097.468 0h-3.655c-.29 0-.577.114-.789.31-.21.194-.326.467-.326.743v10.5h.003v22.289h-.003v10.441c0 .277.12.55.326.742.21.198.5.311.793.311h3.652c.294 0 .582-.113.79-.31a1 1 0 00.329-.743v-2.159c2.437 2.727 5.936 3.666 9.147 3.665h.225c3.904-.013 7.281-1.22 9.388-3.164 3.936-3.727 4.835-9.44 4.848-14.75-.011-5.282-.912-10.334-4.783-14.047zm-1.096 14.046v.158c-.011 3.318-.362 6.56-1.624 8.88-1.241 2.233-3.236 3.724-7.109 3.783a.917.917 0 00-.144 0h-.065c-3.899-.038-5.919-1.533-7.166-3.786-1.274-2.329-1.63-5.598-1.63-8.937v-.201c.004-3.317.356-5.98 1.63-8.298 1.247-2.253 3.267-3.749 7.166-3.785h.151c3.901.036 5.914 1.528 7.172 3.79 1.263 2.313 1.619 4.976 1.619 8.293v.103zm34.759 14.652c3.869-3.712 4.772-8.766 4.781-14.047-.013-5.31-.912-11.023-4.848-14.75-2.106-1.945-5.483-3.152-9.388-3.164h-.225c-3.211-.002-6.709.938-9.147 3.665v-2.16c0-.277-.116-.549-.329-.742a1.154 1.154 0 00-.79-.31h-3.651c-.294 0-.583.113-.793.31a1.027 1.027 0 00-.327.742v10.443h.003v22.288h-.003v10.5c0 .276.117.549.327.742.211.197.499.31.789.31h3.654c.296 0 .585-.113.791-.31.209-.193.326-.466.326-.742V44.8h-.005v-2.07l.003.002c2.759 2.362 5.934 3.033 9.152 3.032.076 0 .157 0 .209-.007 3.914-.004 7.292-1.209 9.404-3.157.026-.025.046-.049.067-.073zm-1.098-13.942c0 3.317-.356 5.978-1.619 8.292-1.258 2.261-3.271 3.755-7.172 3.79h-.151c-3.899-.035-5.919-1.532-7.166-3.786-1.273-2.318-1.626-4.98-1.629-8.296v-.201c0-3.34.356-6.608 1.629-8.938 1.247-2.253 3.267-3.747 7.166-3.786h.065a.955.955 0 00.145 0c3.873.059 5.868 1.55 7.108 3.782 1.262 2.32 1.615 5.563 1.624 8.88v.263zm53.527 19.94a54.72 54.72 0 01-1.283 3.119s-.694 1.53-1.679 2.517c-.901.9-1.93 1.522-3.09 1.865-1.157.343-1.917.397-1.917.397a53.68 53.68 0 01-3.003.119c-.726 0-1.32-.76-1.32-1.688v-2.48c0-.928.378-1.687.837-1.687.461 0 1.593-.079 2.515-.173 0 0 .703-.074 1.345-.568.645-.495.97-1.205.97-1.205.387-.843.957-2.25 1.266-3.125l.675-1.907c.31-.875.302-2.303-.016-3.175l-10.228-27.952c-.319-.871.181-1.584 1.109-1.584h3.573c.928 0 1.931.718 2.229 1.598l6.699 19.769c.299.88.78.877 1.071-.004l6.532-19.76c.291-.882 1.29-1.603 2.218-1.603h3.635c.929 0 1.425.712 1.105 1.583l-13.243 35.944zm-16.744-26.142v-.024c.001-3.49-1.16-6.481-3.596-8.48-2.452-2.014-5.973-2.959-10.503-2.961h-.226c-4.76-.013-8.537 1.022-11.413 4.08l-.013-.009-.165.198c-.215.238-.428.486-.636.749l-.003.008-.294.349a1.003 1.003 0 00-.227.772c.031.282.174.554.395.745l.165.143c.064.075.134.147.213.21l.642.53 1.713 1.48c.219.19.507.294.787.279a.99.99 0 00.717-.348l1.098-1.304v-.002c.685-.74 1.39-1.27 2.239-1.642 1.201-.525 2.742-.772 4.968-.793l.027-.001.074-.002c3.168.008 5.137.651 6.265 1.64 1.126.974 1.697 2.446 1.705 4.732 0 .015 0 .056.005.108v2.156h-9.402c-3.794.01-6.967.864-9.255 2.65-2.273 1.746-3.542 4.432-3.543 7.563l.001.118c.006 2.608.986 5.166 2.768 6.94 2.406 2.372 5.612 3.233 10.454 3.233h2.509c4.435.005 7.618-1.092 9.667-3.3 2.046-2.207 2.865-5.403 2.865-9.373V22.44l-.001-.059zM164.567 35.25v-.08c.019-1.769.559-2.875 1.573-3.652 1.062-.81 2.85-1.333 5.528-1.333h9.03v2.806c-.009 2.753-.613 4.274-1.421 4.983-1.954 1.8-4.372 2.071-7.319 2.078h-.086c-2.838.002-4.701-.488-5.757-1.255-1.006-.724-1.522-1.761-1.548-3.547zM54.952 11.063c-.971 0-1.98.764-2.245 1.695L46.32 35.286c-.265.935-.73.943-1.032.022l-7.43-22.57c-.302-.921-1.343-1.675-2.313-1.675h-1.332c-.97 0-2.01.753-2.31 1.676l-7.37 22.569c-.302.921-.766.914-1.033-.02L17.056 12.76c-.267-.933-1.28-1.697-2.25-1.697h-2.714c-.968 0-1.522.757-1.23 1.681l9.857 31.087c.294.923 1.326 1.682 2.296 1.682h1.865c.865 0 1.798-.672 2.073-1.492l7.367-21.99c.309-.92.815-.92 1.126-.002l7.365 21.812c.31.918 1.358 1.672 2.327 1.672h1.803c.9 0 1.854-.702 2.125-1.558l9.832-31.21c.291-.925-.263-1.682-1.232-1.682h-2.714zm11.278 14.15c.123-2.143.277-3.103.933-4.712 1.204-2.854 3.964-4.625 7.202-4.625 3.237 0 5.996 1.77 7.2 4.619.657 1.615.812 2.575.934 4.718H66.23zM88.522 27.2c0-10.224-5.425-16.577-14.157-16.577-8.864 0-14.157 6.55-14.157 17.519 0 11.296 5.339 17.518 15.03 17.518 6.02 0 9.25-2.02 12.51-5.278l.434-.432-4.162-3.654-.38.38c-2.655 2.656-4.82 3.598-8.266 3.598-5.74 0-8.991-3.648-9.167-10.28h22.315V27.2z" fill="#6B1A6B"/><path d="M3.502 18.197c1.934 0 3.506-1.58 3.506-3.528 0-1.947-1.572-3.528-3.506-3.528C1.572 11.14 0 12.72 0 14.669s1.572 3.528 3.502 3.528zM216.57 45.491c1.936 0 3.506-1.58 3.506-3.526 0-1.95-1.57-3.531-3.506-3.531-1.931 0-3.499 1.582-3.499 3.531 0 1.947 1.568 3.526 3.499 3.526zm19.882-30.633h-3.882v5.822h3.882c1.881 0 3.076-1.164 3.076-2.896 0-1.733-1.195-2.926-3.076-2.926zm.209 9.555h-4.091v8.002h-4.15v-21.26h8.241c4.389 0 7.017 3.015 7.017 6.629 0 3.612-2.628 6.629-7.017 6.629zm9.425 8.002v-21.26h4.15v17.557h9.645v3.703h-13.795zm22.688.179c-4.359 0-7.822-2.956-7.822-7.465V11.155h4.151V24.98c0 2.448 1.433 3.911 3.671 3.911 2.24 0 3.704-1.463 3.704-3.91V11.154h4.12v13.974c0 4.509-3.463 7.465-7.824 7.465zm18.354.038c-3.22 0-5.666-.686-7.753-2.803l2.684-2.684c1.341 1.342 3.16 1.79 5.127 1.79 2.446 0 3.759-.925 3.759-2.624 0-.747-.21-1.372-.657-1.79-.417-.387-.894-.596-1.879-.745l-2.564-.357c-1.818-.27-3.16-.836-4.115-1.76-1.013-1.014-1.52-2.386-1.52-4.175 0-3.787 2.802-6.44 7.395-6.44 2.921 0 5.038.715 6.858 2.474l-2.624 2.594c-1.342-1.281-2.953-1.46-4.353-1.46-2.208 0-3.28 1.222-3.28 2.683 0 .537.178 1.104.626 1.52.418.39 1.103.716 1.967.835l2.505.358c1.939.269 3.162.806 4.056 1.64 1.133 1.074 1.64 2.625 1.64 4.503 0 4.115-3.43 6.44-7.872 6.44z" fill="#D6006D"/></svg>