<svg width="140" height="31" fill="none" xmlns="http://www.w3.org/2000/svg"><g clip-path="url(#clip0_691_4250)"><path d="M19.179 14.706h-7.212v7.29H7.21v-7.29H0v-4.663h7.252V2.715h4.717v7.328h7.212l-.002 4.663z" fill="#FBC000"/><path d="M30.666 15.91c-.45 0-.917-.018-1.385-.056v3.817H26.27V7.206c1.253-.075 2.3-.15 4.003-.131 3.142.019 5.33 1.147 5.348 4.249.02 3.177-2.131 4.587-4.956 4.587zm1.911-4.417c0-1.166-.842-1.805-2.09-1.805-.525 0-.899 0-1.198.019v3.61c.393.037.73.056.99.056 1.452 0 2.298-.527 2.298-1.88zm14.79 8.103l-.038.075h-3.254l-2.45-4.06H40.54v4.06h-3.01V7.206a51.94 51.94 0 013.962-.131c2.768 0 5.33.921 5.33 4.174 0 2.086-.954 3.309-2.245 3.91l2.79 4.437zm-6.824-6.28h1.1c1.253 0 2.133-.663 2.133-1.804 0-1.217-.77-1.824-2.002-1.824-.412-.009-.824.004-1.234.037l.003 3.591zm8.02.114c0-4.06 2.806-6.506 6.528-6.506 3.384 0 6.545 2.182 6.545 6.505 0 4.043-2.824 6.468-6.545 6.468-3.386 0-6.528-2.143-6.528-6.468zm9.912 0c0-2.332-1.327-3.742-3.384-3.742s-3.364 1.41-3.364 3.741c0 2.312 1.309 3.723 3.367 3.723s3.381-1.41 3.381-3.723zm14.457-3.473H69.21v9.72h-3.065v-9.72h-3.87v-2.75h10.66l-.003 2.75zm9.931 7.213v2.5H74.62V7.207h8.079v2.5h-5.05v2.353h4.695v2.443H77.65v2.67l5.213-.001zm1.477-3.59c0-4.173 2.712-6.656 6.603-6.656 1.092-.01 2.177.156 3.217.488v2.859l-.056.037a6.257 6.257 0 00-2.73-.62c-2.506 0-3.89 1.354-3.89 3.741 0 2.35 1.402 3.704 3.961 3.704.908.02 1.81-.16 2.642-.527l.074.057v2.766c-.823.282-2.02.47-3.16.47-3.818-.003-6.661-2.333-6.661-6.32zm11.221 0c0-4.173 2.712-6.656 6.604-6.656 1.091-.01 2.177.156 3.217.488v2.859l-.056.037a6.258 6.258 0 00-2.731-.62c-2.506 0-3.89 1.354-3.89 3.741 0 2.35 1.403 3.704 3.962 3.704a6.2 6.2 0 002.641-.527l.075.057v2.766c-.823.282-2.021.47-3.161.47-3.818-.003-6.66-2.333-6.66-6.32zm12.101-6.374h3.049v12.465h-3.049V7.206zm5.258 6.224c0-4.06 2.805-6.506 6.526-6.506 3.386 0 6.547 2.182 6.547 6.505 0 4.043-2.824 6.467-6.547 6.467-3.386 0-6.526-2.142-6.526-6.467zm9.912 0c0-2.332-1.328-3.742-3.386-3.742s-3.365 1.41-3.365 3.741c0 2.312 1.308 3.723 3.365 3.723 2.057 0 3.379-1.41 3.379-3.723h.007zm-5.873-8.348l3.852-2.481 1.346 2.256-.148.3-4.467 1.37-.583-1.445zm11.219 2.124h1.328l6.621 6.693h.056V7.206h2.917v12.465h-1.327l-6.64-6.825h-.054v6.825h-2.899l-.002-12.465z" fill="#0090D7"/></g><defs><clipPath id="clip0_691_4250"><path fill="#fff" d="M0 0h139.102v30.332H0z"/></clipPath></defs></svg>