<svg width="88" height="88" fill="none" xmlns="http://www.w3.org/2000/svg"><path fill-rule="evenodd" clip-rule="evenodd" d="M36.948 11c-2.241 0-4.39.886-5.975 2.464a8.395 8.395 0 00-2.475 5.95v5.636H15.783c-4.667 0-8.45 3.767-8.45 8.414v35.122c0 4.647 3.783 8.414 8.45 8.414h56.434c4.666 0 8.45-3.767 8.45-8.414V33.464c0-4.647-3.784-8.414-8.45-8.414H59.506v-5.636c0-2.232-.89-4.372-2.475-5.95A8.468 8.468 0 0051.056 11H36.948zm19.767 14.05v-5.636a5.623 5.623 0 00-1.657-3.985 5.671 5.671 0 00-4.002-1.65H36.948c-1.501 0-2.94.594-4.002 1.65a5.623 5.623 0 00-1.657 3.985v5.636h25.426zM31.29 27.83h25.426v46.39H31.29V27.83zm-2.79 0H15.782c-3.126 0-5.66 2.522-5.66 5.634v35.122c0 3.112 2.534 5.635 5.66 5.635h12.715V27.83zm31.005 46.39V27.83h12.71c3.126 0 5.66 2.523 5.66 5.635v35.122c0 3.112-2.534 5.635-5.66 5.635h-12.71z" fill="#000"/></svg>