<svg width="48" height="48" fill="none" xmlns="http://www.w3.org/2000/svg"><circle cx="24" cy="24" r="24" fill="#326295"/><path d="M13.95 31V20.34l-3.24 1.44h-.1V19.9l4.82-2.34h.38V31h-1.86zm4.469 2.38l6.26-17.34h1.7l-6.26 17.34h-1.7zm13.76-2.08c-1.76 0-2.74-.26-4-.82v-1.82h.04c1.46.74 2.54.96 3.78.96 1.88 0 3.02-.94 3.02-2.72 0-1.44-.98-2.6-3.1-2.6-1.12 0-2.2.1-3.46.46l-.04-.04.46-6.98h7.44v1.62h-5.84l-.22 3.46c.52-.12 1.18-.18 1.92-.18 3 0 4.78 1.5 4.78 4.12 0 3.26-2.46 4.54-4.78 4.54z" fill="#fff"/></svg>