<svg width="48" height="48" fill="none" xmlns="http://www.w3.org/2000/svg"><circle cx="24" cy="24" r="24" fill="#326295"/><path d="M14.025 31V20.34l-3.24 1.44h-.1V19.9l4.82-2.34h.38V31h-1.86zm4.469 2.38l6.26-17.34h1.7l-6.26 17.34h-1.7zm18.26-6.2c.06 2.5-1.94 4.12-4.74 4.12-1.96 0-3-.38-3.92-.9v-1.8l.04-.02c.84.66 2.06 1.14 3.64 1.14 1.78 0 3.18-.9 3.18-2.58 0-1.56-1.2-2.24-3.72-2.26l-1.04-.02v-1.6h1.04c1.9 0 3.14-.7 3.14-2.1 0-1.26-.96-2.06-2.64-2.06-1.36 0-2.52.36-3.26.9l-.02-.02V18.4c.84-.48 1.94-.92 3.54-.92 2.36 0 4.2 1.12 4.2 3.4 0 1.34-.68 2.32-1.72 2.94 1.36.48 2.24 1.48 2.28 3.36z" fill="#fff"/></svg>