<svg width="48" height="48" fill="none" xmlns="http://www.w3.org/2000/svg"><circle cx="24" cy="24" r="24" fill="#326295"/><path d="M9.368 31c-.04-2.1 1.48-4.06 3.88-6.02 2.1-1.72 2.92-2.58 2.92-3.72 0-1.3-.9-2.1-2.72-2.1-1.84 0-3.2.86-3.74 1.38l-.04-.02-.02-1.64c.94-.86 2.32-1.38 4.04-1.38 2.38 0 4.34 1.26 4.34 3.62 0 1.86-1.02 2.92-3.28 4.86-1.82 1.44-2.94 2.66-3.06 3.36h6.72V31h-9.04zm10.673 2.38l6.26-17.34H28l-6.26 17.34h-1.7zM33.8 31.3c-1.76 0-2.74-.26-4-.82v-1.82h.04c1.46.74 2.54.96 3.78.96 1.88 0 3.02-.94 3.02-2.72 0-1.44-.98-2.6-3.1-2.6-1.12 0-2.2.1-3.46.46l-.04-.04.46-6.98h7.44v1.62H32.1l-.22 3.46c.52-.12 1.18-.18 1.92-.18 3 0 4.78 1.5 4.78 4.12 0 3.26-2.46 4.54-4.78 4.54z" fill="#fff"/></svg>