<svg width="48" height="48" fill="none" xmlns="http://www.w3.org/2000/svg"><circle cx="24" cy="24" r="24" fill="#326295"/><path d="M9.443 31c-.04-2.1 1.48-4.06 3.88-6.02 2.1-1.72 2.92-2.58 2.92-3.72 0-1.3-.9-2.1-2.72-2.1-1.84 0-3.2.86-3.74 1.38l-.04-.02-.02-1.64c.94-.86 2.32-1.38 4.04-1.38 2.38 0 4.34 1.26 4.34 3.62 0 1.86-1.02 2.92-3.28 4.86-1.82 1.44-2.94 2.66-3.06 3.36h6.72V31h-9.04zm10.673 2.38l6.26-17.34h1.7l-6.26 17.34h-1.7zm18.26-6.2c.06 2.5-1.94 4.12-4.74 4.12-1.96 0-3-.38-3.92-.9v-1.8l.04-.02c.84.66 2.06 1.14 3.64 1.14 1.78 0 3.18-.9 3.18-2.58 0-1.56-1.2-2.24-3.72-2.26l-1.04-.02v-1.6h1.04c1.9 0 3.14-.7 3.14-2.1 0-1.26-.96-2.06-2.64-2.06-1.36 0-2.52.36-3.26.9l-.02-.02V18.4c.84-.48 1.94-.92 3.54-.92 2.36 0 4.2 1.12 4.2 3.4 0 1.34-.68 2.32-1.72 2.94 1.36.48 2.24 1.48 2.28 3.36z" fill="#fff"/></svg>