<svg width="48" height="48" fill="none" xmlns="http://www.w3.org/2000/svg"><circle cx="24" cy="24" r="24" fill="#326295"/><path d="M18.31 27.18c.06 2.5-1.94 4.12-4.74 4.12-1.96 0-3-.38-3.92-.9v-1.8l.04-.02c.84.66 2.06 1.14 3.64 1.14 1.78 0 3.18-.9 3.18-2.58 0-1.56-1.2-2.24-3.72-2.26l-1.04-.02v-1.6h1.04c1.9 0 3.14-.7 3.14-2.1 0-1.26-.96-2.06-2.64-2.06-1.36 0-2.52.36-3.26.9l-.02-.02V18.4c.84-.48 1.94-.92 3.54-.92 2.36 0 4.2 1.12 4.2 3.4 0 1.34-.68 2.32-1.72 2.94 1.36.48 2.24 1.48 2.28 3.36zm1.57 6.2l6.26-17.34h1.7l-6.26 17.34h-1.7zm13.76-2.08c-1.76 0-2.74-.26-4-.82v-1.82h.04c1.46.74 2.54.96 3.78.96 1.88 0 3.02-.94 3.02-2.72 0-1.44-.98-2.6-3.1-2.6-1.12 0-2.2.1-3.46.46l-.04-.04.46-6.98h7.44v1.62h-5.84l-.22 3.46c.52-.12 1.18-.18 1.92-.18 3 0 4.78 1.5 4.78 4.12 0 3.26-2.46 4.54-4.78 4.54z" fill="#fff"/></svg>