<svg width="48" height="48" fill="none" xmlns="http://www.w3.org/2000/svg"><circle cx="24" cy="24" r="24" fill="#326295"/><path d="M19.44 26.743v1.603h-2.12V31h-1.642v-2.654H9.054v-.763l6.872-9.374h1.394v8.534h2.12zm-8 0h4.238V20.92l-4.238 5.823zm9.283 6.529L26.7 16.72h1.622l-5.975 16.552h-1.623zm13.135-1.986c-1.68 0-2.616-.248-3.819-.782v-1.738h.039c1.393.707 2.424.917 3.608.917 1.794 0 2.883-.898 2.883-2.597 0-1.374-.936-2.481-2.96-2.481-1.069 0-2.1.095-3.302.439l-.038-.038.439-6.663h7.101v1.546h-5.574l-.21 3.303c.496-.115 1.126-.172 1.833-.172 2.863 0 4.562 1.432 4.562 3.933 0 3.111-2.348 4.333-4.562 4.333z" fill="#fff"/></svg>