<svg width="48" height="13" fill="none" xmlns="http://www.w3.org/2000/svg"><path d="M6.562 12.196C3.158 12.18.835 10.053.835 6.682c0-3.486 2.34-5.695 5.727-5.695 1.194 0 2.176.213 3.043.573V3l-.049.016c-.769-.392-1.701-.638-2.798-.638-2.667 0-4.336 1.637-4.336 4.238 0 2.537 1.57 4.173 4.353 4.173 1.112 0 1.898-.196 2.781-.622l.05.017v1.39c-.835.393-1.85.622-3.044.622zm8.423-8.836c2.356 0 3.764 1.49 3.78 4.09 0 .246 0 .46-.016.688H12.48c.164 1.8 1.473 2.716 3.159 2.716.883 0 1.652-.18 2.585-.621l.05.016v1.276c-.966.54-1.932.688-2.914.688-2.258 0-4.467-1.31-4.467-4.451 0-2.635 1.8-4.402 4.091-4.402zm0 1.31c-1.227 0-2.176.785-2.438 2.225h4.696c-.18-1.408-.982-2.226-2.258-2.226zm9.58-1.294c.377 0 .672.05.933.148v1.39l-.049.017c-.163-.066-.442-.147-.883-.147-.966 0-1.964.409-2.226 2.241V12h-1.554V3.556h1.26l.147 1.13c.524-.917 1.456-1.31 2.373-1.31zm6.364 0c.376 0 .67.05.933.148v1.39l-.05.017c-.163-.066-.441-.147-.883-.147-.965 0-1.964.409-2.226 2.241V12H27.15V3.556h1.26l.147 1.13c.524-.917 1.457-1.31 2.373-1.31zm9.857 7.119l.05.016v1.325c-.295.164-.688.262-1.13.262-1.03 0-1.424-.54-1.505-1.276-.688.85-1.637 1.374-2.979 1.374-1.57 0-2.749-.932-2.749-2.454 0-1.98 1.768-2.717 3.388-2.717.916 0 1.702.148 2.209.328v-.344c0-1.636-.95-2.34-2.438-2.34-.933 0-1.817.213-2.324.556l-.05-.016V3.965c.443-.278 1.392-.605 2.635-.605 2.488 0 3.715 1.293 3.715 3.584v2.929c0 .572.213.802.622.802.229 0 .409-.05.556-.18zm-5.269.425c1.08 0 2.013-.524 2.553-1.407v-.966c-.475-.196-1.162-.31-1.898-.31-1.179 0-2.144.425-2.144 1.407 0 .883.704 1.276 1.489 1.276zm10.74-7.544c.376 0 .671.05.933.148v1.39l-.05.017c-.163-.066-.441-.147-.883-.147-.965 0-1.964.409-2.225 2.241V12h-1.555V3.556h1.26l.147 1.13c.524-.917 1.457-1.31 2.373-1.31z" fill="#0076A9"/></svg>