<svg width="335" height="260" fill="none" xmlns="http://www.w3.org/2000/svg"><path d="M167.33 0C74.92 0 0 74.92 0 167.33v91.77h334.67v-91.77C334.67 74.92 259.75 0 167.33 0z" fill="#D6EFFF"/><path d="M55.53 126c1.14 0 2.22.27 3.18.75.77-6.54 6.31-11.61 13.06-11.61 5.78 0 10.67 3.73 12.44 8.9.4-.06.8-.09 1.22-.09 4.83 0 8.75 3.92 8.75 8.75H48.34c.27-3.75 3.38-6.7 7.19-6.7zm190.85-32.31c-1.14 0-2.22.27-3.18.75-.77-6.54-6.31-11.61-13.06-11.61-5.78 0-10.67 3.73-12.44 8.9-.4-.06-.8-.09-1.22-.09-4.83 0-8.75 3.92-8.75 8.75h45.84c-.27-3.74-3.38-6.7-7.19-6.7z" fill="#fff"/><path d="M35.93 116.95H28.2v65.01h7.73v-65.01z" fill="#C2C2C2"/><path d="M34.71 116.95h-3.24v65.01h3.24v-65.01z" fill="#D1D1D1"/><path opacity=".1" d="M28.2 132.84l.33.33c1.95 1.95 5.12 1.95 7.08 0l.33-.33v-15.9H28.2v15.9z" fill="#000"/><path d="M28.53 129.92L5.01 106.4c-1.95-1.95-1.95-5.12 0-7.08L28.53 75.8c1.95-1.95 5.12-1.95 7.08 0l23.52 23.52c1.95 1.95 1.95 5.12 0 7.08l-23.52 23.52c-1.96 1.95-5.13 1.95-7.08 0z" fill="#FFD800"/><path d="M29.16 125.07l-19.3-19.31c-1.6-1.6-1.6-4.21 0-5.81l19.31-19.31c1.6-1.6 4.21-1.6 5.81 0l19.31 19.31c1.6 1.6 1.6 4.21 0 5.81l-19.31 19.31a4.11 4.11 0 01-5.82 0z" stroke="#424242" stroke-miterlimit="10"/><path d="M35.16 106.64h-6.14l-.73-13.58a3.804 3.804 0 013.8-4.01c2.18 0 3.92 1.83 3.8 4.01l-.73 13.58zm-7.02 6.51c0-1.13.33-2.01 1-2.63.67-.63 1.64-.94 2.92-.94 1.26 0 2.22.31 2.87.94.65.63.98 1.5.98 2.63 0 1.12-.34 1.99-1.01 2.61-.68.63-1.62.94-2.84.94-1.23 0-2.19-.31-2.88-.94-.69-.62-1.04-1.49-1.04-2.61z" fill="#424242"/><path d="M45.055 176.951c1.168-7.168-3.696-13.926-10.864-15.093-7.169-1.168-13.926 3.696-15.094 10.864-1.168 7.168 3.696 13.926 10.864 15.094 7.169 1.168 13.926-3.697 15.094-10.865z" fill="#00AC65"/><path d="M18.41 188a8.75 8.75 0 100-17.5 8.75 8.75 0 000 17.5zm32.67 0a8.75 8.75 0 100-17.5 8.75 8.75 0 000 17.5z" fill="#00AC65"/><path d="M62.33 188a6 6 0 100-12 6 6 0 000 12z" fill="#00AC65"/><path d="M90.35 92.05h26.729V81.5h-26.73c-.91 0-1.65.74-1.65 1.65v7.25c.01.91.74 1.65 1.65 1.65z" fill="#B9845A"/><path d="M115.519 92.05h28.75c.91 0 1.65-.74 1.65-1.65v-7.25c0-.91-.74-1.65-1.65-1.65h-28.75c-.98 0-1.77.79-1.77 1.77v7c0 .98.79 1.78 1.77 1.78z" fill="#A76531"/><path opacity=".2" d="M88.698 87.337h57.21v-1h-57.21v1z" fill="#000"/><path d="M117.548 81.505h27.12v-10.55h-27.12v10.55z" fill="#D1D1D1"/><path d="M117.55 70.95H95.88V81.5h21.67V70.95zm23.74 0h3.38v3.38h-1.44v-1.94h-1.94v-1.44zm3.38 7.18v3.37h-3.38v-1.44h1.94v-1.93h1.44z" fill="#C2C2C2"/><path d="M114.17 70.95h3.38v3.38h-1.44v-1.94h-1.94v-1.44zm3.38 7.18v3.37h-3.38v-1.44h1.94v-1.93h1.44z" fill="#888"/><path d="M120.97 70.95h-3.38v3.38h1.44v-1.94h1.94v-1.44zm-3.38 7.18v3.37h3.38v-1.44h-1.94v-1.93h-1.44z" fill="#C2C2C2"/><path d="M99.26 70.95h-3.38v3.38h1.44v-1.94h1.94v-1.44zm-3.38 7.18v3.37h3.38v-1.44h-1.94v-1.93h-1.44z" fill="#888"/><path opacity=".2" d="M95.882 76.786h48.79v-1h-48.79v1z" fill="#000"/><path d="M91.41 93.83l11.75-22.88m-4.05 22.88l11.749-22.88" stroke="#424242" stroke-miterlimit="10" stroke-linecap="round"/><path d="M148.33 146.84h-12.97c-9.7 0-17.56 7.86-17.56 17.56s7.86 17.56 17.56 17.56h12.97c9.7 0 17.56-7.86 17.56-17.56s-7.87-17.56-17.56-17.56zm60.49 0h-12.97c-9.7 0-17.56 7.86-17.56 17.56s7.86 17.56 17.56 17.56h12.97c9.7 0 17.56-7.86 17.56-17.56s-7.86-17.56-17.56-17.56z" fill="#292929"/><path d="M112.14 146.84H99.17v5.73a17.471 17.471 0 00-4.58 11.83c0 4.56 1.74 8.71 4.58 11.83v5.73h12.97c9.7 0 17.56-7.86 17.56-17.56s-7.86-17.56-17.56-17.56zm60.49 0h-12.97v5.73a17.471 17.471 0 00-4.58 11.83c0 4.56 1.74 8.71 4.58 11.83v5.73h12.97c9.7 0 17.56-7.86 17.56-17.56s-7.86-17.56-17.56-17.56z" fill="#323232"/><path d="M230.99 172.03H117.46v-39.99l5.66-33.62c.62-3.68 3.8-6.37 7.53-6.37h75.46c3.42 0 6.56 1.9 8.14 4.94l18.27 35.05-1.53 39.99z" fill="#85CEFF"/><path d="M214.25 96.98a9.19 9.19 0 00-8.14-4.94h-61.44v42.65h39.47l6.31 1.49a27.1 27.1 0 0119.49 17.78l1.84 5.51 1.39-5.51c2.25-8.9 7.82-15.63 14.72-17.78l4.53-1.49.1-2.66-18.27-35.05z" fill="#D1D1D1"/><path d="M182.71 172.03H86.58l-17.41-8.73v-31.26l5.66-33.62c.62-3.68 3.8-6.37 7.53-6.37h75.46c3.42 0 6.56 1.9 8.14 4.94l18.27 35.05-1.52 39.99z" fill="#5CBEFF"/><path d="M157.83 92.05H82.36c-3.73 0-6.92 2.69-7.53 6.37l-5.66 33.62v2.66h114.97l.1-2.66-18.27-35.05a9.17 9.17 0 00-8.14-4.94z" fill="#fff"/><path d="M179.49 132.04l-17.07-32.51a4.522 4.522 0 00-4-2.41H131.3v34.92h48.19zm-105.2 0l5.18-31.71c.3-1.85 1.9-3.21 3.77-3.21h40.5v34.92H74.29z" fill="#1A5780"/><path d="M75.43 125.1h38.92c2.34 0 4.37-1.64 4.85-3.93l3.64-17.11c.38-1.76-.97-3.42-2.77-3.42H79.42l-3.99 24.46zm44.469 6.94h3.85v-23.52l-3.85 23.52z" fill="#053F64"/><path d="M120.84 116.24h-15.66v15.8h18.57v-14.61a4.148 4.148 0 00-2.91-1.19z" fill="#032338"/><path d="M109.36 132.04H101v-11.62c0-2.31 1.87-4.18 4.18-4.18 2.31 0 4.18 1.87 4.18 4.18v11.62z" fill="#042F4B"/><path d="M101.52 132.04H81.68v-15.8h15.66c2.31 0 4.18 1.87 4.18 4.18v11.62z" fill="#032338"/><path d="M85.86 132.04H77.5v-11.62c0-2.31 1.87-4.18 4.18-4.18 2.31 0 4.18 1.87 4.18 4.18v11.62z" fill="#042F4B"/><path d="M188.169 132.04l-17.01-32.74c-.52-.99.21-2.18 1.33-2.18h36.97c1 0 1.91.56 2.36 1.45l16.83 33.47h-40.48z" fill="#1A5780"/><path d="M204.04 97.12h-27.12v13.25l11.26 21.67h36.93l-17.07-32.51a4.545 4.545 0 00-4-2.41z" fill="#053F64"/><path d="M183.76 116.24h-3.79l7.97 15.35v-11.17c0-2.31-1.87-4.18-4.18-4.18z" fill="#032338"/><path d="M225.81 126.4h-20.64c-1.82 0-3.56-.72-4.84-2.01a6.868 6.868 0 00-4.84-2.01h-12.07l4.76 9.65h40.47l-2.84-5.63z" fill="#042F4B"/><path d="M162.42 99.53a4.522 4.522 0 00-4-2.41H131.3v34.92h38.05v-19.3l-6.93-13.21z" fill="#053F64"/><path d="M174.68 122.87c-3.3 0-6.35 1.74-8.04 4.58l-2.72 4.59h15.58l-4.82-9.17z" fill="#042F4B"/><path d="M201.15 146.84c0 3.35-2.42 6.07-5.41 6.07s-5.41-2.72-5.41-6.07 2.42-6.07 5.41-6.07c2.98 0 5.41 2.72 5.41 6.07z" fill="#D1D1D1"/><path d="M199.67 146.84c0 2.44-1.76 4.42-3.94 4.42-2.18 0-3.94-1.98-3.94-4.42s1.76-4.42 3.94-4.42c2.18 0 3.94 1.98 3.94 4.42z" fill="#fff"/><path d="M230.12 146.84c0 3.35-2.42 6.07-5.41 6.07s-5.41-2.72-5.41-6.07 2.42-6.07 5.41-6.07c2.98 0 5.41 2.72 5.41 6.07z" fill="#D1D1D1"/><path d="M228.64 146.84c0 2.44-1.76 4.42-3.94 4.42-2.18 0-3.94-1.98-3.94-4.42s1.76-4.42 3.94-4.42c2.18 0 3.94 1.98 3.94 4.42z" fill="#fff"/><path d="M235.77 165.4h-53.06v6.63h53.06v-6.63z" fill="#C2C2C2"/><path d="M75.82 157.76h-9.14v6.63h9.14v-6.63zm106.889 7.64h-7.72v6.63h7.72v-6.63z" fill="#888"/><path d="M166.314 180.664c8.976-3.672 13.277-13.926 9.605-22.902-3.672-8.977-13.925-13.277-22.902-9.606-8.976 3.672-13.277 13.926-9.605 22.902 3.672 8.977 13.925 13.277 22.902 9.606z" fill="#424242"/><path d="M169.056 166.628c1.231-5.191-1.979-10.397-7.17-11.628-5.191-1.231-10.397 1.98-11.628 7.171-1.231 5.191 1.979 10.397 7.17 11.627 5.191 1.231 10.397-1.979 11.628-7.17z" fill="#C2C2C2"/><path d="M159.66 172.45a8.05 8.05 0 100-16.1 8.05 8.05 0 000 16.1z" fill="#888"/><path d="M165.32 164.4c0 2.72-2.21 4.93-4.93 4.93-2.72 0-4.93-2.21-4.93-4.93 0-2.72 2.21-4.93 4.93-4.93 2.72 0 4.93 2.21 4.93 4.93z" fill="#656565"/><path d="M164.589 164.4c0 2.72-2.209 4.93-4.929 4.93a4.934 4.934 0 01-4.931-4.93c0-2.72 2.211-4.93 4.931-4.93s4.929 2.21 4.929 4.93z" fill="#C2C2C2"/><path d="M153.22 164.4c0-4.17 3.18-7.6 7.24-8.01a8.051 8.051 0 10-.8 16.06c.27 0 .54-.01.8-.04-4.06-.41-7.24-3.84-7.24-8.01z" fill="#656565"/><path d="M116.289 168.315c2.164-9.453-3.746-18.871-13.2-21.035-9.453-2.163-18.871 3.746-21.035 13.2-2.163 9.454 3.746 18.872 13.2 21.035 9.454 2.164 18.872-3.746 21.035-13.2z" fill="#424242"/><path d="M108.564 166.623c1.231-5.191-1.98-10.397-7.171-11.628-5.19-1.231-10.397 1.98-11.627 7.171-1.231 5.191 1.98 10.397 7.17 11.628 5.191 1.23 10.397-1.98 11.628-7.171z" fill="#C2C2C2"/><path d="M99.17 172.45a8.05 8.05 0 10-.001-16.101 8.05 8.05 0 00.001 16.101z" fill="#888"/><path d="M92.73 164.4c0-4.17 3.18-7.6 7.24-8.01a8.051 8.051 0 10-.8 16.06c.27 0 .54-.01.8-.04a8.052 8.052 0 01-7.24-8.01z" fill="#656565"/><path d="M104.82 164.4c0 2.72-2.21 4.93-4.93 4.93-2.72 0-4.93-2.21-4.93-4.93 0-2.72 2.21-4.93 4.93-4.93 2.73 0 4.93 2.21 4.93 4.93z" fill="#656565"/><path d="M104.089 164.4c0 2.72-2.21 4.93-4.93 4.93-2.72 0-4.93-2.21-4.93-4.93 0-2.72 2.21-4.93 4.93-4.93 2.73 0 4.93 2.21 4.93 4.93z" fill="#C2C2C2"/><path d="M194.55 158.72a2.981 2.981 0 01-5.96 0 2.981 2.981 0 015.96 0zm36.099 0c0 1.64-1.33 2.98-2.97 2.98a2.981 2.981 0 010-5.96c1.64 0 2.97 1.33 2.97 2.98z" fill="#E9662C"/><path opacity=".1" d="M85.93 97.12l-7.09 7.08-4.55 27.84h7.87l34.92-34.92H85.93zm37.82 26.68v-23.16l-31.41 31.4h23.17l8.24-8.24zm26.68-26.68h-19.12v19.12l19.12-19.12zm62.15 2.97l-.11-.21-.66-1.31a2.64 2.64 0 00-2.36-1.45h-25.49l-9.17 9.17 4.19 8.07 6.61 12.71 26.99-26.98zm11.32 22.5l-7.86-15.63-25.08 25.08h23.49l9.45-9.45z" fill="#fff"/><path d="M155.329 132.04h-19.84v-15.8h15.66c2.31 0 4.18 1.87 4.18 4.18v11.62z" fill="#032338"/><path d="M139.67 132.04h-8.36v-11.62c0-2.31 1.87-4.18 4.18-4.18 2.31 0 4.18 1.87 4.18 4.18v11.62z" fill="#042F4B"/><path d="M168.1 116.24v15.8h11.39l-8.29-15.8h-3.1z" fill="#032338"/><path d="M172.28 132.04h-8.36v-11.62c0-2.31 1.87-4.18 4.18-4.18 2.31 0 4.18 1.87 4.18 4.18v11.62z" fill="#042F4B"/><path opacity=".1" d="M162.42 99.53a4.5 4.5 0 00-3.37-2.37l-27.75 27.75v7.13h24.02l15.84-15.84-8.74-16.67zm12.26 23.34l-9.17 9.17h13.98l-4.81-9.17z" fill="#fff"/><path d="M216.16 181.95H0v16.71h216.16v-16.71z" fill="#A4C639"/><path d="M314.66 181.95h-98.5v16.71h98.5v-16.71z" fill="#00AC65"/><path d="M303.16 181.95h-75.5v16.71h75.5v-16.71z" fill="#424242"/><path d="M314.66 198.67h-98.5v60.43h98.5v-60.43z" fill="#7D4C25"/><path d="M216.16 198.67H0v60.43h216.16v-60.43z" fill="#A76531"/><path opacity=".1" d="M229.58 242.54c-2.07 0-3.75-1.68-3.75-3.75v-26.25c0-2.07 1.68-3.75 3.75-3.75 2.07 0 3.75 1.68 3.75 3.75v26.25c0 2.07-1.68 3.75-3.75 3.75zm54.88-16.87a2.29 2.29 0 01-2.29-2.29v-15.96a2.29 2.29 0 114.58 0v15.96c0 1.26-1.03 2.29-2.29 2.29zm-35.04 31.88a2.29 2.29 0 01-2.29-2.29v-21.52a2.29 2.29 0 114.58 0v21.52a2.29 2.29 0 01-2.29 2.29zm-194.96-23.5a2.29 2.29 0 01-2.29-2.29v-21.52a2.29 2.29 0 114.58 0v21.52a2.29 2.29 0 01-2.29 2.29zm91.11 13.51c-1.71 0-3.09-1.38-3.09-3.09v-26.51c0-1.71 1.38-3.09 3.09-3.09s3.09 1.38 3.09 3.09v26.51a3.08 3.08 0 01-3.09 3.09zm-58.56 5.19a2.29 2.29 0 01-2.29-2.29V214.7a2.29 2.29 0 114.58 0v35.76c0 1.26-1.03 2.29-2.29 2.29zm-69.84-2.78c-2.07 0-3.75-1.68-3.75-3.75v-27.29c0-2.07 1.68-3.75 3.75-3.75 2.07 0 3.75 1.68 3.75 3.75v27.29c0 2.08-1.68 3.75-3.75 3.75zm157.6-6.91c-2.07 0-3.75-1.68-3.75-3.75v-27.29c0-2.07 1.68-3.75 3.75-3.75 2.07 0 3.75 1.68 3.75 3.75v27.29c0 2.07-1.67 3.75-3.75 3.75zm-47.78-30.57a5.17 5.17 0 11-5.17-5.17c2.86 0 5.17 2.31 5.17 5.17zm4.98 26.51c0 1.33-1.08 2.41-2.41 2.41s-2.41-1.08-2.41-2.41 1.08-2.41 2.41-2.41 2.41 1.08 2.41 2.41zm55.24 10.97c0 1.33-1.08 2.41-2.41 2.41s-2.41-1.08-2.41-2.41 1.08-2.41 2.41-2.41c1.32 0 2.41 1.08 2.41 2.41zM68.33 214.9a2.41 2.41 0 100-4.82 2.41 2.41 0 000 4.82zm-23.75 15.27a2.25 2.25 0 100-4.5 2.25 2.25 0 000 4.5zm28.93 25.53a2.95 2.95 0 100-5.9 2.95 2.95 0 000 5.9zM198.78 219c0 1.56-1.27 2.83-2.83 2.83s-2.83-1.27-2.83-2.83 1.27-2.83 2.83-2.83 2.83 1.27 2.83 2.83zm-88.29 13.58c0 .92-.75 1.67-1.67 1.67-.92 0-1.67-.75-1.67-1.67 0-.92.75-1.67 1.67-1.67.92 0 1.67.75 1.67 1.67zM163 207.32c0 .92-.75 1.67-1.67 1.67-.92 0-1.67-.75-1.67-1.67 0-.92.75-1.67 1.67-1.67.92 0 1.67.75 1.67 1.67zm-147.92-.53c0 .92-.75 1.67-1.67 1.67-.92 0-1.67-.75-1.67-1.67 0-.92.75-1.67 1.67-1.67.93.01 1.67.75 1.67 1.67zm150.2 44.26c0 2.18-1.77 3.95-3.95 3.95s-3.95-1.77-3.95-3.95 1.77-3.95 3.95-3.95 3.95 1.77 3.95 3.95zm105.48-34.35a4.3 4.3 0 11-8.6 0 4.3 4.3 0 018.6 0zm38.83 19.09c0 1.77-1.44 3.21-3.21 3.21s-3.21-1.44-3.21-3.21 1.44-3.21 3.21-3.21 3.21 1.44 3.21 3.21zm-76.07 17.96c0 1.12-.91 2.03-2.03 2.03-1.12 0-2.03-.91-2.03-2.03 0-1.12.91-2.03 2.03-2.03 1.12.01 2.03.91 2.03 2.03zm11.31-40.46a1.91 1.91 0 11-3.82 0 1.91 1.91 0 013.82 0zm35.69 19.29a1.91 1.91 0 11-1.91-1.91c1.06-.01 1.91.85 1.91 1.91zm-253.08 21.5a4.11 4.11 0 100-8.22 4.11 4.11 0 000 8.22z" fill="#000"/><path d="M307.85 212.49a4.22 4.22 0 11-8.442-.002 4.22 4.22 0 018.442.002zm-18.89 37a6.8 6.8 0 11-13.601-.001 6.8 6.8 0 0113.601.001zm42.13-13.7c0 1.77-1.44 3.21-3.21 3.21s-3.21-1.44-3.21-3.21 1.44-3.21 3.21-3.21 3.21 1.44 3.21 3.21z" fill="#A76531"/><path d="M285.03 198.67c0 1.77-1.44 3.21-3.21 3.21s-3.21-1.44-3.21-3.21 1.44-3.21 3.21-3.21 3.21 1.43 3.21 3.21zm5.31-9.03a1.27 1.27 0 100-2.54 1.27 1.27 0 000 2.54zm.28 20.18c0 .86-.7 1.55-1.55 1.55-.85 0-1.55-.7-1.55-1.55 0-.85.7-1.55 1.55-1.55.85 0 1.55.7 1.55 1.55z" fill="#292929"/><path d="M269.67 239c0 1.77-1.44 3.21-3.21 3.21s-3.21-1.44-3.21-3.21 1.44-3.21 3.21-3.21c1.78 0 3.21 1.44 3.21 3.21z" fill="#A76531"/><path d="M277.01 153.55h-8.51v14.01h8.51v-14.01z" fill="#FFAD91"/><path d="M277.01 167.55h-8.51v5.99h8.51v-5.99z" fill="#fff"/><path d="M280.88 180.33h-13.05v-6.79h9.45c1.99 0 3.6 1.61 3.6 3.6v3.19z" fill="#B5292A"/><path d="M274.09 180.33h6.79v-3.39c0-1.87-1.52-3.39-3.39-3.39s-3.39 1.52-3.39 3.39v3.39h-.01z" fill="#fff"/><path d="M280.88 180.33h-13.05v1.63h13.05v-1.63z" fill="#C7C7C7"/><path d="M270.97 177.55c0 1.02-.55 1.84-1.24 1.84-.68 0-1.24-.83-1.24-1.84 0-1.02.55-1.84 1.24-1.84.69-.01 1.24.82 1.24 1.84z" fill="#fff"/><path d="M278.041 134.91h-19.52v18.64h19.52v-18.64z" fill="#2C97DE"/><path d="M271.981 134.91h-13.46v18.64h13.46v-18.64z" fill="#33AEFF"/><path d="M288.94 121.07l-15.97-1.67.78-6.57 15.98 1.66-.79 6.58z" fill="#E69C83"/><path d="M285.98 100.2l5.72 16.44c.62 1.72-.28 3.62-2 4.23-1.72.62-3.62-.28-4.23-2l-5.72-16.44 6.23-2.23z" fill="#FFAD91"/><path d="M285.271 98.12l1.45 4.05-7.89 2.83-2.23-6.22 5.72-2.05c1.2-.44 2.52.19 2.95 1.39z" fill="#FFAD91"/><path d="M278.54 139.95h-20.18l.02-16.7-1.76-6.22c0-3.83 3.11-6.94 6.94-6.94h9.1c3.52 0 6.38 2.86 6.38 6.38v4.11l-.85 3.63.35 15.74z" fill="#B5292A"/><path d="M270.941 114.6h-1.56c-2 0-3.61-1.62-3.61-3.61v-8.13h8.79v8.13c-.01 2-1.63 3.61-3.62 3.61z" fill="#E69C83"/><path d="M282.061 102.86l-8.5-2.23 2.57-9.81 4.44 1.16c2.24.59 3.58 2.88 3 5.13l-1.51 5.75z" fill="#4D352C"/><path d="M262.7 100.32l14.49 3.8 2.44-9.31c.52-1.97-.66-3.98-2.63-4.49l-3.25-.85c-4.24-1.11-8.59 1.43-9.7 5.67l-1.35 5.18z" fill="#4D352C"/><path d="M280.821 101.37l-.94-.25-1.11 4.22.94.25c1.16.31 2.36-.39 2.66-1.56.31-1.17-.38-2.36-1.55-2.66z" fill="#E69C83"/><path d="M265.33 94.7l10.31 2.7c1.71.45 3.46-.57 3.9-2.28l-13.4-3.51-.81 3.09z" fill="#4D352C"/><path d="M279.54 95.13a3.191 3.191 0 01-3.9 2.27l-9.87-2.68-1.87 5.84c-1.21 4.62 1.55 9.35 6.17 10.56l2.5.65c3.17.83 6.42-1.07 7.25-4.24l2.14-8.15c.49-1.83-.59-3.72-2.42-4.25z" fill="#FFAD91"/><path d="M263.76 101.4l.94.25 1.11-4.22-.94-.25c-1.16-.31-2.36.39-2.66 1.56a2.17 2.17 0 001.55 2.66z" fill="#FFAD91"/><path d="M263.76 101.25c-.79 4.4 1.92 8.73 6.31 9.88l2.5.65c3.17.83 6.42-1.07 7.25-4.24l.51-1.95-16.57-4.34z" fill="#4D352C"/><path d="M263.911 100.57c-.08.32-.14.64-.19.97l2.19.57 1.92-7.33-2.25-.59-1.67 6.38zm8.269-1.22c-.16.6-.78.97-1.38.81-.6-.16-.97-.78-.81-1.38.16-.6.78-.97 1.38-.81.61.16.97.78.81 1.38zm6.95 1.82c-.16.6-.78.97-1.38.81-.6-.16-.96-.78-.81-1.38.16-.6.78-.97 1.38-.81.61.16.97.78.81 1.38z" fill="#4D352C"/><path d="M276.718 100.284l-2.408-.631-1.068 4.072 2.409.631 1.067-4.072z" fill="#E69C83"/><path d="M270.16 96.05s2.68.74 4.06 1.06m3.91.38s2.85-1.06 3.11.25m-7.98 9.02s-2.21-1.75-4.4-1.15" stroke="#271B16" stroke-width=".775" stroke-miterlimit="10" stroke-linecap="round"/><path d="M261.89 118.22l-8.62 7.15c-1.69 1.4-4.02 1.37-5.18-.07-1.14-1.41-.72-3.64.93-5.01l8.62-7.15c1.69-1.4 4.02-1.37 5.18.07 1.14 1.41.73 3.64-.93 5.01z" fill="#FFAD91"/><path d="M253.951 122.57l4.79 9.25c.94 1.81.35 3.97-1.3 4.8-1.62.81-3.65.04-4.57-1.74l-4.79-9.25c-.94-1.81-.35-3.97 1.3-4.8 1.62-.81 3.65-.03 4.57 1.74z" fill="#FFAD91"/><path d="M253.49 133.54l3.75-3.61c.47-.45 1.22-.44 1.67.03l2.56 2.66c1 1.04.97 2.7-.07 3.7l-2.07 1.99c-1.04 1-2.7.97-3.7-.07l-2.19-2.28c-.66-.68-.63-1.76.05-2.42z" fill="#FFAD91"/><path d="M261.891 136.61l-2.06-1.98c-.51-.49-.53-1.31-.03-1.82.49-.51 1.31-.53 1.82-.03l2.06 1.98c.51.49.53 1.31.03 1.82-.49.51-1.31.53-1.82.03z" fill="#FFAD91"/><path d="M260.61 138.89l-2.06-1.98c-.51-.49-.53-1.31-.03-1.82.49-.51 1.31-.53 1.82-.03l2.06 1.98c.51.49.53 1.31.03 1.82-.49.51-1.31.53-1.82.03zm6.6 14.66h-8.51v14.01h8.51v-14.01z" fill="#FFAD91"/><path d="M267.21 167.55h-8.51v5.99h8.51v-5.99z" fill="#fff"/><path d="M271.08 180.33h-13.05v-6.79h9.45c1.99 0 3.6 1.61 3.6 3.6v3.19z" fill="#B5292A"/><path d="M264.29 180.33h6.79v-3.39c0-1.87-1.52-3.39-3.39-3.39s-3.39 1.52-3.39 3.39v3.39h-.01z" fill="#fff"/><path d="M271.08 180.33h-13.05v1.63h13.05v-1.63z" fill="#D1D1D1"/><path d="M261.17 177.55c0 1.02-.55 1.84-1.24 1.84-.68 0-1.24-.83-1.24-1.84 0-1.02.55-1.84 1.24-1.84.69-.01 1.24.82 1.24 1.84z" fill="#fff"/><path opacity=".1" d="M137.05 259.1v-3.08c0-2.07-1.68-3.75-3.75-3.75-2.07 0-3.75 1.68-3.75 3.75v3.08h7.5zm63.48 0v-7.32a2.29 2.29 0 10-4.58 0v7.32h4.58zm-140.03 0v-12.29c0-2.07-1.68-3.75-3.75-3.75-2.07 0-3.75 1.68-3.75 3.75v12.29h7.5zm52.17 0v-9.7c0-2.07-1.68-3.75-3.75-3.75-2.07 0-3.75 1.68-3.75 3.75v9.7h7.5zm161.08 0v-7.35c0-2.07-1.68-3.75-3.75-3.75-2.07 0-3.75 1.68-3.75 3.75v7.35h7.5zm29.42 0v-12.35c0-2.07-1.68-3.75-3.75-3.75-2.07 0-3.75 1.68-3.75 3.75v12.35h7.5z" fill="#000"/><path d="M245.45 40.05c1.14 0 2.22.27 3.18.75.77-6.54 6.31-11.61 13.06-11.61 5.78 0 10.67 3.73 12.44 8.9.4-.06.8-.09 1.22-.09 4.83 0 8.75 3.92 8.75 8.75h-45.84c.27-3.74 3.38-6.7 7.19-6.7zM89.23 53.61c-1.14 0-2.22.27-3.18.75-.76-6.54-6.31-11.61-13.05-11.61-5.78 0-10.67 3.73-12.44 8.9-.4-.06-.8-.09-1.22-.09-4.83 0-8.75 3.92-8.75 8.75h45.84c-.27-3.74-3.39-6.7-7.2-6.7z" fill="#fff"/></svg>