<svg version="1.1" id="Layer_1" xmlns="http://www.w3.org/2000/svg" xmlns:xlink="http://www.w3.org/1999/xlink" x="0" y="0" viewBox="0 0 1026.6 1109.9" xml:space="preserve"><style>.st2{fill:#e2b897}.st3{fill:#f8bd8c}.st4{fill:#31185e}.st5{fill:#2a1656}.st6{fill:#1d1647}.st7{fill:#eab186}.st8{fill:#1a1a1a}.st9{fill:#fcfcfc}.st11{fill:#0b0635}.st12{fill:#8d48f9}</style><path d="M993 908.6c-29 70.1-96.7 103.4-139.9 124.6-170.5 83.7-462.7 77-648.9-75.3-43.6-35.6-225-225.2-174.8-478.3 44.4-223.7 267-353.7 454.4-371.1 155.3-14.4 357.9 41.9 429.5 178.3 45 85.8-9.2 113.1 27.5 307.5 31.9 168.2 87.6 228.5 52.2 314.3z" fill="#fcb70d"/><defs><path id="SVGID_1_" d="M993 908.6c-29 70.1-96.7 103.4-139.9 124.6-170.5 83.7-462.7 77-648.9-75.3-43.6-35.6-225-225.2-174.8-478.3 44.4-223.7 267-353.7 454.4-371.1 155.3-14.4 357.9 41.9 429.5 178.3 45 85.8-9.2 113.1 27.5 307.5 31.9 168.2 87.6 228.5 52.2 314.3z"/></defs><clipPath id="SVGID_2_"><use xlink:href="#SVGID_1_" overflow="visible"/></clipPath><g clip-path="url(#SVGID_2_)"><path class="st2" d="M567.2 1083.1h-394l7-193.3.2-5.8v-1.2l324-14.8 46.5-2.1 1.4 18 5.9 79.4v.1l2.2 28.8.9 12.5 5.9 78.4z"/><path class="st2" d="M379.4 1083.1H173.1l3.7-196.5.1-3.9 3.5 1.2 37.8 13 93.8 32.2h.2l62.1 21.3 5.1 132.7z"/><path class="st3" d="M419.9 373l-113.2 13.3-2.8-76.3-.2-5.2-.4-10 92.7-10.9 6-.7 5.1 25.4z"/><path class="st4" d="M289.2 361.3s-132 55-135.6 66c-3.7 11-18.3 42.2-18.3 42.2s64.1 155.8 47.7 208.9c-16.5 53.2-5.5 141.1-5.5 168.6s-11 38.5 9.2 45.8c20.2 7.3 86.1 3.7 122.8 0s111.8 1.1 128.3 4.2c16.5 3.1 115.5-13.4 115.5-13.4s12.8-69.6 9.2-104.5c-3.7-34.8 1.3-117.3.7-130.1-.7-12.8 6.3-18.3.1-49.5C556.8 568.4 588 398 588 398l-152.1-55.4-146.7 18.7z"/><path class="st5" d="M358.1 354.9l-19 63.6-83.7-42.2 20.3-21.4z"/><path class="st6" d="M340 420.7l-87.1-44 22.1-23.3h85.1L340 420.7zm-82.2-44.9l80.3 40.5 17.9-60h-79.8l-18.4 19.5z"/><path class="st5" d="M341.8 354.9l25.7 63.6 95.5-67.2-22.8-24.6z"/><path class="st6" d="M366.8 420.8l-27-66.9L440.6 325l24.6 26.5-98.4 69.3zm-23-64.9l24.3 60.3 92.6-65.2-21-22.7-95.9 27.6z"/><path class="st4" d="M200.6 400.2S257 422 251.8 643.1L457.2 596l25.2 104.1S257 797.6 198.5 796c-58.5-1.6-96.4-268.3-84.3-297.5 12-29.3 15.4-70.9 84.2-97l2.2-1.3z"/><path class="st3" d="M468 601.3l53-19.8-13.2 79.9-41.3 2.1-9.1-56.6 10.6-5.6zm-164.9 33.1l-43.3 10-1.7-10.5-2.9-17.4 3 1.1 44.9 16.8z"/><path class="st4" d="M540 411.7l-33.9 241.2L290.9 624l-25.4 106.1s291.5 70.7 349.1 51.5c57.6-19.3 30.5-284.6 15.3-318.3-15.3-33.8-25.6-60.2-45.9-66.6-20.4-6.6-44 15-44 15z"/><path class="st7" d="M407.1 308.6c-4.5 10.4-12.4 20-24.6 24.4-26.9 9.7-60.6-10.5-78.6-23l-.2-5.2c1.6.2 3.3.5 5.3.6 11.9 1 29.6.7 51.8-4.9 15.9-4 27.3-10.4 35.2-16.6l6-.7 5.1 25.4z"/><path class="st3" d="M420.2 184.8c4.9 62.5-24.6 115.9-70.5 119.5-45.9 3.6-87.1-44.1-92-106.5-4.9-62.5 28.2-116.1 74.1-119.7 45.9-3.7 83.4 44.2 88.4 106.7z"/><path class="st8" d="M357.5 321.8c-43.9 6.5-86.9-38.9-96.2-101.2-.9-6-1.4-11.9-1.7-17.8 10.3 60.6 52.6 104.2 95.7 97.9 39.6-5.9 66.3-51.9 64.4-106.7.2 1 .4 2.1.5 3.1 9.3 62.3-18.8 118.2-62.7 124.7zM292.3 46.7s-.5 46.4 11 53.1c11.6 6.7 24.8-5.5 35.3-7.3 10.5-1.8 31.7-3.6 46.6 9.3 14.9 13 27.7 50.8 27.7 50.8l3.3 12.7s8.7 2.2 9.6-9.7c.9-11.9-1.5-61.9 0-66.7 1.5-4.9.9-9.8-4.6-15.3s-12.5-14.1-10.4-17.7c2.1-3.7 11.3-13.1 2.4-21.4-8.9-8.2-51.6-13.4-59.6-6.1-7.9 7.3-37.5-20.8-61.3 18.3z"/><path class="st8" d="M284.2 50.2s-41.7 4.6-42.6 41.2c0 0-5 8.2-15.1 21.5s1.8 35.7 4.6 49c2.7 13.3 8.4 24.3 8.1 28.3-.3 4 7.3 11.6 14.2 8.6 6.9-3.1 8.4-11.2 8.4-11.2s.6-51.7 8.2-60.9c7.6-9.2 20.6-18.2 28.1-22 7.5-3.8 9.2-11 9.2-11.9 0-.9-9.5-51-9.5-51l-13.6 8.4z"/><path class="st3" d="M275 207.2c5.7 11.8 3.6 24.7-4.7 28.7-8.3 4.1-19.8-2.2-25.5-14-5.7-11.8-3.6-24.7 4.7-28.7 8.3-4.1 19.8 2.2 25.5 14zm161.9-16.1c-1.5 13-10.2 22.8-19.4 21.7-9.2-1.1-15.5-12.5-14-25.5s10.2-22.8 19.4-21.7c9.2 1 15.5 12.4 14 25.5z"/><path class="st8" d="M311.1 167.5c-5.7.4-11.7 1.1-17.4 2.3-5.7 1.2-11.3 2.9-15.6 5.5l-.2.1c-2.2 1.4-5.2.7-6.6-1.5-1.4-2.2-.7-5.1 1.4-6.5 6.1-4 12.4-5.9 18.7-7.4 6.3-1.5 12.4-2.5 18.9-3.1 2.9-.3 5.5 1.9 5.8 4.8.3 2.9-1.9 5.5-4.8 5.8h-.2zm-4.9 22.6c.7 4.6-1.9 8.7-5.7 9.3-3.8.6-7.5-2.7-8.2-7.2-.7-4.6 1.9-8.7 5.7-9.3 3.9-.5 7.6 2.7 8.2 7.2zm53.3-28.4c5.6-.9 11.7-1.6 17.5-1.7 5.8-.1 11.7.2 16.4 1.8l.2.1c2.5.8 5.2-.5 6-3 .8-2.5-.5-5.1-2.9-6-6.9-2.5-13.4-2.9-19.9-3-6.5 0-12.7.4-19.2 1.3-2.9.4-5 3.1-4.6 6 .4 2.9 3.1 5 6 4.6h.1l.4-.1zm9.9 21c.4 4.6 3.8 8 7.7 7.7 3.9-.3 6.7-4.3 6.3-8.9-.4-4.6-3.8-8-7.7-7.7-3.9.3-6.7 4.3-6.3 8.9zm-52.7 110.6c2.4 1.6 10.8-.4 13.5-1 4.6-1 9.9-2.7 12.8-6.7 3.3-4.6 1.8-11.5 1.4-16.7-.1-1.5.1-5.6-1.1-6.8 0 0 12.1-1.8 12.2-1.8-1.1.2 2.2 17.2 2.7 18.6 1.4 3.7 5.1 5.8 8.8 6.7 3.8 1 8 1.1 12 .8 1-.1 10.4-.9 10.5-1.9-.1.8-.7 1.5-1.3 2.1-6.2 6.3-13 12-19.8 17.6 0 0-32.4 2.7-33.3 1.8-1-.9-18.4-12.7-18.4-12.7z"/><path class="st9" d="M377 248.3c-4.3 7.6-13.3 13.9-24.6 16.1-15.1 2.9-29.2-2.2-34.6-11.7 0-.1.1-.3.3-.4 1.9-1.6 3.9-3 6-4.2l44.4-5.3c3.4.6 6.5 2 8.5 5.5z"/><path class="st8" d="M313.8 299.3c-1-9.2-3.6-38.8.3-47.6v-.6l1.3-1.5c2.4-2.1 4.6-3.6 6.9-4.8 7.2-4.2 16.2-6.6 25.8-7 5.3-.2 10.6-.1 15.6.5l1.2.2c1.4.2 2.8.3 4.2.6 3.6.8 8 2.3 11 7.3 3 5.2 4.3 10.8 5.6 16.3.3 1.4.7 2.8 1 4.2 2.1 8.5 2.8 15.6 2.1 22.5l-7.3-.7c.6-6 0-12.4-1.9-20-.4-1.4-.7-2.9-1-4.3-1.2-5.1-2.3-10-4.8-14.2-1.2-2.1-2.9-3.1-6.2-3.8-1.2-.3-2.4-.4-3.5-.5l-1.3-.2c-4.6-.5-9.5-.7-14.4-.5-8.5.3-16.3 2.4-22.5 6-1.8 1-3.5 2.1-5.1 3.5l-.1.1c-2.1 3.3-1.5 25.3.4 43.8l-7.3.7zm21-77.2c-.4 0-.7-.2-.9-.5-.3-.5-.1-1.1.4-1.4l7.9-4.2c2.5-1.3 3.9-3.7 3.6-6.2l-4-27.8c-.1-.5.3-1.1.8-1.1.5-.1 1.1.3 1.1.8l4 27.8c.5 3.2-1.3 6.5-4.6 8.2l-7.9 4.2c-.1.2-.3.2-.4.2z"/><path d="M379.8 1046.5c-1.1 0-2-.9-2-2-.8-33.1-2.8-86.9-5-92.7-7.3-4.3-43.2-15.5-61.4-20.9-1.1-.3-1.7-1.4-1.4-2.5.3-1.1 1.4-1.7 2.5-1.4 2.2.7 54.3 16.1 62.8 21.6 1.3.9 3 1.9 4.9 49.5 1 23 1.5 46 1.5 46.2.1 1.3-.8 2.2-1.9 2.2zm-7.1-94.8z" fill="#666b6d"/><path class="st6" d="M257.2 646.4c-.4 0-.8-.1-1.2-.4-.5-.4-.8-.9-.8-1.5-.3-6-8.3-100.9-8.4-101.9-.1-1.1.7-2.1 1.8-2.2 1.1-.1 2.1.7 2.2 1.8.3 3.6 7.1 83.6 8.2 99.6 11.2-3 59.4-15.8 78.6-19.6 1.1-.2 2.1.5 2.4 1.6.2 1.1-.5 2.1-1.6 2.3-21.6 4.3-80.1 20-80.7 20.2-.1.1-.3.1-.5.1zm-52.4 147.5c-6.3 0-12.1-.7-16.9-2.2-28.7-9.4-48.3-86.5-49.1-89.8-.3-1.1.4-2.2 1.5-2.4 1.1-.3 2.2.4 2.4 1.5.2.8 19.9 78.2 46.5 87 27 8.8 92.1-14.2 92.8-14.5 1-.4 2.2.2 2.6 1.2.4 1-.2 2.2-1.2 2.6-2.4.8-47.2 16.6-78.6 16.6zm156.8-45.2c-.7 0-1.4-.4-1.8-1.1-.5-1-.1-2.2.9-2.7l60.9-30.5c1-.5 2.2-.1 2.7.9s.1 2.2-.9 2.7l-60.9 30.5c-.3.1-.6.2-.9.2zm142.5-94.8h-.3c-1.1-.2-1.8-1.2-1.7-2.3l16.9-105c.2-1.1 1.2-1.8 2.3-1.7 1.1.2 1.8 1.2 1.7 2.3l-16.8 104.9c-.2 1.1-1.1 1.8-2.1 1.8zm29.6 129.5h-.3l-100.8-15.6c-1.1-.2-1.8-1.2-1.7-2.3.2-1.1 1.2-1.8 2.3-1.7L534 779.4c1.1.2 1.8 1.2 1.7 2.3-.2 1-1 1.7-2 1.7z"/><path class="st11" d="M736.8 204.1s24.8-9.2 47.2 2.3c23.8 12.2 36 24.4 41.4 126.7 5.5 102.4 4.9 153.6 5.5 161.5.6 7.9-195 5.5-195 5.5V245.4l100.9-41.3z"/><path class="st12" d="M638 495.6s-99.6 10.8-97.7 182.5c1.9 171.6-34.7 159.6-4.8 281.8 0 0 67.7 13.7 106.4-14L638 608.4V495.6z"/><path d="M880.8 1084.2l.1-1.2H561.5c3.2-19.1 10.5-47.3 19.5-78.4.8-2.9 1.7-5.8 2.5-8.7v-.2c3.2-10.8 6.5-21.8 9.9-32.9l.2-.5c15.5-50.4 32.4-101 41.7-128.3 2.2-6.4 3.9-11.5 5.2-15.1 1.2-3.5 1.9-5.4 1.9-5.4h207.8c.6 1.7 1.7 6.2 3.1 12.8.4 1.6.7 3.4 1.1 5.3 4.1 19.8 10.4 52.8 17.1 88.6.5 2.8 1 5.5 1.6 8.4 3 16.1 6 32.5 8.9 48.3.3 1.9.7 3.7 1 5.5.7 4 1.5 7.9 2.2 11.8.1.3.1.7.2 1 .7 3.6 1.3 7.2 2 10.8.6 3.4 1.2 6.7 1.8 10 6.4 35.4 11.3 62.4 12.1 67 .1.5.1.7.1.7l-20.6.5z" fill="#ff7c90"/><path class="st12" d="M642.6 499.6s-45.2 13.1-39.1 108c6.1 94.9-45.1 212.6 28.6 226.3l203.2-2.5c19.2-.2 34.6-15.8 34.6-35v-299l-42.6-7.4-184.7 9.6z"/><path class="st3" d="M766.9 465.3l-73.5 2.3 2.5-63.2h67.3z"/><path class="st12" d="M687 456h93.9c6.1 0 11.3 4.5 12.5 10.8l5.3 27.1-129.1 5 4.8-31.5c1-6.6 6.3-11.4 12.6-11.4z"/><path class="st7" d="M764.6 427.3c-4.2 8.9-11.8 17.7-22.7 18.9-18.7 2.1-37-18.7-46-30.2-1.8-2.3-2.7-4.2-3.7-5.5 1.5.9 3.9 2.5 8.3 4.1 7.2 2.7 18.3 5.5 33 5.5 10.7 0 18.8-2.6 24.7-5.5l5.7-.1.7 12.8z"/><path class="st3" d="M796.2 330.2c1.6 50.8-28.7 92.9-67.6 94.1-38.9 1.2-71.7-38.9-73.3-89.7-1.6-50.8 28.7-92.9 67.6-94.1 38.9-1.2 71.7 39 73.3 89.7z"/><path class="st3" d="M812.3 335.8c0 10.5-9.1 20.7-16.6 20.7-7.5 0-13.6-8.5-13.6-19s10-19 17.5-19c7.4-.1 12.7 6.8 12.7 17.3z"/><path d="M770.3 303c-.6 0-1.1-.1-1.7-.3-15.1-5-25.1-.5-25.5-.3-2.7 1.3-6 .1-7.3-2.6-1.3-2.7-.2-6 2.5-7.3.6-.3 14.1-6.7 33.7-.3 2.9.9 4.4 4 3.5 6.9-.8 2.4-2.9 3.9-5.2 3.9zm-105.1 8.6c-1.8 0-3.5-.8-4.5-2.4-1.7-2.5-1.1-5.9 1.4-7.6.5-.4 12.9-8.8 33.2-5.4 3 .5 5 3.3 4.5 6.3s-3.3 5-6.3 4.5c-15.7-2.6-24.9 3.4-25.2 3.6-1 .7-2.1 1-3.1 1zm60.3 43.3H720c-.5 0-.9-.4-.9-.9v-20.6c0-.5.4-.9.9-.9s.9.4.9.9v19.7h4.6c.5 0 .9.4.9.9s-.4.9-.9.9zM690.7 329c0 4.2-2.7 7.7-6.1 7.7-3.4 0-6.1-3.4-6.1-7.7 0-4.2 2.7-7.7 6.1-7.7 3.4 0 6.1 3.4 6.1 7.7zm70.9-7.7c0 4.2-2.7 7.7-6.1 7.7-3.4 0-6.1-3.4-6.1-7.7 0-4.2 2.7-7.7 6.1-7.7 3.3.1 6.1 3.5 6.1 7.7z"/><path class="st9" d="M703.6 380.3c2.1 9.4 13.1 15.5 25.4 13.8 10.6-1.5 18.8-8.5 20.3-16.6l-45.7 2.8z"/><path class="st11" d="M734.9 202.1c19.1 38.4-27 52.1-44.5 72.9-19.1 22.7-32.3 67.5-31.3 97.3 2.8 81.4 30.3 146.6-23.3 221.1 11.1-45.2-5.8-79.8-19.9-120.8-15.5-45.1-15.2-91.4-9.9-138.3 4-35.3 5.3-92.5 31.9-119.2 15.3-15.4 84.8-37.4 97-13z"/><path class="st11" d="M730.5 240.8s8.6 15 27.7 24.3c27.1 13.1 32.9 56.2 32.9 56.2l11-6-21.3-80.2-50.3 5.7z"/><path class="st3" d="M887.5 995l-13.5-4.4s-1.7-2.4.2-5.4c1.9-3.1 6.3-3 8.4-2.7 2.2.2 6.6 1.9 6.6 1.9s5.3-6.1 10.7-8.8c0 0-1.4-7.4 1.1-12.3 0 0-5.6-5.7-4.9-14 0 0-.6-1-1.4-2.6-.7.3-2.1.9-3 1.4-1.2.7-1.3 4.7-.9 7.1.5 2.4 1 10.1.3 14.5-.8 4.4-4.1 7.4-9.1 7.2-5-.2-5.2-5.1-6.1-9.4-1-4.3-.6-8.4-.2-16.2.3-7.8-1.7-11.7-3.2-19.1-1.5-7.4-.9-13.3-.9-13.3.7-6.2 3.1-13.6 3.8-15.5-.7-4.5-.7-8.6.8-11.7 2.5-5.6-5.7-46.4-5.7-46.4l41.7 4.7-3.9 46.2s13.1 27.3 17.4 39.6c4.3 12.3 7.5 18.8 6.9 24.9 0 0-6.3 24.6-12.8 30-6.7 5.6-21.5 15.3-25.8 15.6-4.7.4-17.1-1.3-17.1-1.3s-2.8-.1-4.8-1.3c0 0-2 0-.5-4.1 1.4-4.3 5.7-3.2 15.9-4.6z"/><path class="st12" d="M847 493.2s58.4-4.2 78.9 77.7c20.6 81.9 18.4 112.6 17.3 164.7-1.1 52.1 59.7 155.1 4.5 221.4 0 0-46.7-23.3-90-32.1 0 0-7.6-8.3-3.2-94.3 4.3-86.1-7.5-337.4-7.5-337.4z"/><path class="st7" d="M593.6 962.2s-17.3 1.1-20.7 1c0 0 .2 24.2 10.4 32.4l.2.2 10.1-33.6z"/><path class="st6" d="M622.1 789c-1 0-1.9-.8-2-1.8-.1-.8-2-20 2.4-40.1 2.2-10.3.7-16.2-1.6-25.2-2.1-8-4.6-17.9-5.7-34.7-2.3-36.2 11.2-56.6 11.8-57.5.6-.9 1.9-1.2 2.8-.5.9.6 1.2 1.9.5 2.8-.2.3-13.3 20.3-11.1 55 1 16.4 3.5 26.2 5.5 34 2.4 9.2 4.1 15.8 1.6 27.1-4.2 19.5-2.3 38.7-2.3 38.9.1 1.1-.7 2.1-1.8 2.2 0-.2-.1-.2-.1-.2zm226.5 30.8h-.2c-1.1-.1-1.9-1.1-1.8-2.2 1.6-15.8 2.9-30 1.4-44-.8-7.4-1.7-14.7-2.6-21.9-2-15.9-4-32.3-4.4-48.9 0-1.1.8-2 1.9-2.1 1.1-.1 2 .8 2.1 1.9.4 16.5 2.3 32 4.4 48.5.9 7.2 1.8 14.6 2.6 22 1.5 14.4.2 28.8-1.4 44.8-.1 1.1-1 1.9-2 1.9z"/><path d="M752.8 835.9H632.1c-1.1 0-2-.9-2-2s.9-2 2-2h120.6c1.1 0 2 .9 2 2s-.8 2-1.9 2z" fill="#dc4070"/></g><path class="st3" d="M420.2 184.8c4.9 62.5-24.6 115.9-70.5 119.5-45.9 3.6-87.1-44.1-92-106.5-4.9-62.5 28.2-116.1 74.1-119.7 45.9-3.7 83.4 44.2 88.4 106.7z"/><path class="st8" d="M357.5 321.8c-43.9 6.5-86.9-38.9-96.2-101.2-.9-6-1.4-11.9-1.7-17.8 10.3 60.6 52.6 104.2 95.7 97.9 39.6-5.9 66.3-51.9 64.4-106.7.2 1 .4 2.1.5 3.1 9.3 62.3-18.8 118.2-62.7 124.7zM292.3 46.7s-.5 46.4 11 53.1c11.6 6.7 24.8-5.5 35.3-7.3 10.5-1.8 31.7-3.6 46.6 9.3 14.9 13 27.7 50.8 27.7 50.8l3.3 12.7s8.7 2.2 9.6-9.7c.9-11.9-1.5-61.9 0-66.7 1.5-4.9.9-9.8-4.6-15.3s-12.5-14.1-10.4-17.7c2.1-3.7 11.3-13.1 2.4-21.4-8.9-8.2-51.6-13.4-59.6-6.1-7.9 7.3-37.5-20.8-61.3 18.3z"/><path class="st8" d="M284.2 50.2s-41.7 4.6-42.6 41.2c0 0-5 8.2-15.1 21.5s1.8 35.7 4.6 49c2.7 13.3 8.4 24.3 8.1 28.3-.3 4 7.3 11.6 14.2 8.6 6.9-3.1 8.4-11.2 8.4-11.2s.6-51.7 8.2-60.9c7.6-9.2 20.6-18.2 28.1-22 7.5-3.8 9.2-11 9.2-11.9 0-.9-9.5-51-9.5-51l-13.6 8.4z"/><path class="st3" d="M275 207.2c5.7 11.8 3.6 24.7-4.7 28.7-8.3 4.1-19.8-2.2-25.5-14-5.7-11.8-3.6-24.7 4.7-28.7 8.3-4.1 19.8 2.2 25.5 14zm161.9-16.1c-1.5 13-10.2 22.8-19.4 21.7-9.2-1.1-15.5-12.5-14-25.5s10.2-22.8 19.4-21.7c9.2 1 15.5 12.4 14 25.5z"/><path class="st8" d="M311.1 167.5c-5.7.4-11.7 1.1-17.4 2.3-5.7 1.2-11.3 2.9-15.6 5.5l-.2.1c-2.2 1.4-5.2.7-6.6-1.5-1.4-2.2-.7-5.1 1.4-6.5 6.1-4 12.4-5.9 18.7-7.4 6.3-1.5 12.4-2.5 18.9-3.1 2.9-.3 5.5 1.9 5.8 4.8.3 2.9-1.9 5.5-4.8 5.8h-.2zm-4.9 22.6c.7 4.6-1.9 8.7-5.7 9.3-3.8.6-7.5-2.7-8.2-7.2-.7-4.6 1.9-8.7 5.7-9.3 3.9-.5 7.6 2.7 8.2 7.2zm53.3-28.4c5.6-.9 11.7-1.6 17.5-1.7 5.8-.1 11.7.2 16.4 1.8l.2.1c2.5.8 5.2-.5 6-3 .8-2.5-.5-5.1-2.9-6-6.9-2.5-13.4-2.9-19.9-3-6.5 0-12.7.4-19.2 1.3-2.9.4-5 3.1-4.6 6 .4 2.9 3.1 5 6 4.6h.1l.4-.1zm9.9 21c.4 4.6 3.8 8 7.7 7.7 3.9-.3 6.7-4.3 6.3-8.9-.4-4.6-3.8-8-7.7-7.7-3.9.3-6.7 4.3-6.3 8.9zm-52.7 110.6c2.4 1.6 10.8-.4 13.5-1 4.6-1 9.9-2.7 12.8-6.7 3.3-4.6 1.8-11.5 1.4-16.7-.1-1.5.1-5.6-1.1-6.8 0 0 12.1-1.8 12.2-1.8-1.1.2 2.2 17.2 2.7 18.6 1.4 3.7 5.1 5.8 8.8 6.7 3.8 1 8 1.1 12 .8 1-.1 10.4-.9 10.5-1.9-.1.8-.7 1.5-1.3 2.1-6.2 6.3-13 12-19.8 17.6 0 0-32.4 2.7-33.3 1.8-1-.9-18.4-12.7-18.4-12.7z"/><path class="st9" d="M377 248.3c-4.3 7.6-13.3 13.9-24.6 16.1-15.1 2.9-29.2-2.2-34.6-11.7 0-.1.1-.3.3-.4 1.9-1.6 3.9-3 6-4.2l44.4-5.3c3.4.6 6.5 2 8.5 5.5z"/><path class="st8" d="M313.8 299.3c-1-9.2-3.6-38.8.3-47.6v-.6l1.3-1.5c2.4-2.1 4.6-3.6 6.9-4.8 7.2-4.2 16.2-6.6 25.8-7 5.3-.2 10.6-.1 15.6.5l1.2.2c1.4.2 2.8.3 4.2.6 3.6.8 8 2.3 11 7.3 3 5.2 4.3 10.8 5.6 16.3.3 1.4.7 2.8 1 4.2 2.1 8.5 2.8 15.6 2.1 22.5l-7.3-.7c.6-6 0-12.4-1.9-20-.4-1.4-.7-2.9-1-4.3-1.2-5.1-2.3-10-4.8-14.2-1.2-2.1-2.9-3.1-6.2-3.8-1.2-.3-2.4-.4-3.5-.5l-1.3-.2c-4.6-.5-9.5-.7-14.4-.5-8.5.3-16.3 2.4-22.5 6-1.8 1-3.5 2.1-5.1 3.5l-.1.1c-2.1 3.3-1.5 25.3.4 43.8l-7.3.7zm21-77.2c-.4 0-.7-.2-.9-.5-.3-.5-.1-1.1.4-1.4l7.9-4.2c2.5-1.3 3.9-3.7 3.6-6.2l-4-27.8c-.1-.5.3-1.1.8-1.1.5-.1 1.1.3 1.1.8l4 27.8c.5 3.2-1.3 6.5-4.6 8.2l-7.9 4.2c-.1.2-.3.2-.4.2z"/></svg>