<svg version="1.1" id="Layer_1" xmlns="http://www.w3.org/2000/svg" x="0" y="0" viewBox="0 0 1026.6 1109.9" xml:space="preserve"><style>.st0{fill:none}.st1{fill:#fcb70d}.st2{fill:#e2b897}.st3{fill:#f8bd8c}.st4{fill:#31185e}.st5{fill:#2a1656}.st6{fill:#1d1647}.st7{fill:#eab186}.st8{fill:#1a1a1a}.st9{fill:#fcfcfc}.st10{fill:#666b6d}.st11{fill:#0b0635}.st12{fill:#8d48f9}.st13{fill:#ff7c90}.st14{fill:#dc4070}</style><path class="st0" d="M267.2 132.7c.8-1.9 1.6-3.7 2.4-5.5-.9 1.3-1.7 3.2-2.4 5.5z"/><path class="st1" d="M572.9 963.3h.7c-5.5 0-10.7-.2-15.3-.6v.5l2.2 28.8.9 12.5 4.3 57.7c3.8-16.6 9.1-36.5 15.3-57.7.8-2.9 1.7-5.8 2.5-8.7l-.2-.2c-10.1-8.2-10.4-32.3-10.4-32.3zm20.7-1.1l-.1.5.1-.5zm-416.8-75.6c-5.6-7.5.7-18.8.7-39.6 0-12.4-2.2-37-3.2-65.1-21.1-23.5-34.8-77.2-35.5-79.9-.3-1.1.4-2.1 1.4-2.4-22.5-80-33.3-183.5-26-201.1 8.6-20.9 12.8-48.2 39.7-71.6.9-1.6 4-3.9 8.7-6.8 9.4-6.7 21-12.9 35.6-18.5.1-.1.3-.1.4-.2l2-1.2s.1 0 .2.1c17.1-8.1 36.2-16.6 52.2-23.5l-.1-.1 22.1-23.3h30.4l-1.6-43.3-.2-5.2v-.8c-17.6-15.2-31.8-38.7-39-66.8-7.3-.1-15.3-6-19.9-15.3-4.3-8.8-4.2-18.3-.4-24.2-2.4-1.5-4.3-3.8-5-5.7-101.5 63.1-184.7 160.1-210 287.6-42.6 214.4 81.2 383.3 146.5 451.5l1-44.6zM900 975.5s-1.4-7.4 1.1-12.3c0 0-5.6-5.7-4.9-14 0 0-.6-1-1.4-2.6-.7.3-2.1.9-3 1.4-1.2.7-1.3 4.7-.9 7.1.5 2.4 1 10.1.3 14.5-.8 4.4-4.1 7.4-9.1 7.2.3 1.9.7 3.7 1 5.5 2.3.4 6.2 1.8 6.2 1.8s5.3-5.9 10.7-8.6zm-45.3-150.2c-.5.3-.9.6-1.4.9.4 1.6.7 3.4 1.1 5.3v-1c.2-1.6.2-3.4.3-5.2zm30.5 168.9c.1.3.1.7.2 1l2.1-.3-2.3-.7z"/><path class="st1" d="M940.9 594.3c-36.7-194.4 17.5-221.7-27.5-307.5-71.6-136.4-274.3-192.7-429.5-178.3-19.2 1.8-38.7 4.7-58.4 8.9.3 15.2.8 31.9.3 38.2-.7 8.9-5.7 9.9-8.2 9.9 0 .2.1.4.1.6 1.7-.5 3.5-.7 5.2-.5 9.2 1.1 15.5 12.5 14 25.5-1.3 11-7.6 19.6-15.1 21.4 1.5 29.9-5.4 57.3-18.4 77.3l3.7 18.8 4.9 24.6 28.7-8.2 24.6 26.5-1.6 1.2L588 398v.2c6 2.9 11.1 7.6 15.7 13.9-2-25.7-.6-51.7 2.3-77.8 4-35.3 5.3-92.5 31.9-119.2 15.3-15.3 84.8-37.4 97-12.9.4.8.7 1.6 1.1 2.3l.8-.3s24.8-9.2 47.2 2.3c23.8 12.2 36 24.4 41.4 126.7 4.9 91.6 4.9 142.2 5.3 157.5l16.2 2.8v-.3s58.4-4.2 78.9 77.7c20.6 81.9 18.4 112.6 17.3 164.7-1.1 52.1 59.7 155.1 4.5 221.4 0 0-6.7-3.3-17.3-7.9 1.5 4.6 2.4 8.1 2 11.5 0 0-6.3 24.6-12.8 30-6.7 5.6-21.5 15.3-25.8 15.6-1.5.1-3.9 0-6.4-.2.5 2.9 1.1 5.8 1.6 8.6 38.7-21.6 82.2-53.4 104-106.1 35.5-85.7-20.2-146-52-314.2zm-379.4 488.8h-37.1c48.9 5 97.6 4.8 144 0H561.5z"/><path class="st2" d="M377.5 1033.4c-.5-17.4-1.2-37.7-2.1-53.8l2.1 53.8z"/><path class="st2" d="M565.7 1062.4l-4.3-57.7-.9-12.5-2.2-28.8v-.5c-13.5-1-22.7-2.8-22.7-2.8-7.5-30.6-10.8-52.9-11.6-71.6-30.6 4.6-75.6 10.8-86.3 8.8-16.5-3.1-91.6-7.9-128.3-4.2-24.8 2.5-62.9 4.9-91.2 4l91.9 31.6c.3-1 1.4-1.6 2.5-1.3 2.2.7 54.3 16.1 62.8 21.6 1.3.9 3 1.9 4.9 49.5 1 23 1.5 46 1.5 46.2 0 1.1-.8 2-2 2-.8 0-1.5-.5-1.8-1.2l.3 6.6c47.6 15.9 97 26.1 146.2 31.1h37.1c.9-6.2 2.3-13.2 4.1-20.8zM178.6 933.9c-.9-.9-1.8-1.8-2.7-2.8m4.3-41.4c-1.4-1-2.6-2-3.4-3.2l-.8 44.6c.9.9 1.8 1.9 2.7 2.8l1.5-44.2z"/><path class="st2" d="M180.2 889.7l-1.6 44.2c10.6 10.9 19.5 19 25.6 24 51.5 42.1 111.1 73.1 174 94.1l-.3-6.6c-.1-.2-.2-.5-.2-.8-.1-3.5-.2-7.3-.3-11.2l-2.1-53.8c-.8-14.3-1.7-25.2-2.6-27.7-7.3-4.3-43.2-15.5-61.4-20.9-1.1-.3-1.7-1.4-1.4-2.5v-.1L218 896.8c-13.6-.4-25-1.7-31.6-4-2.5-1-4.6-2-6.2-3.1z"/><path class="st3" d="M303.6 303.9v.8c.4.1.8.1 1.2.2-.4-.3-.8-.6-1.2-1zm78.8 29.1c-26.9 9.7-60.6-10.5-78.6-23l1.6 43.3h36.1l70.4-20.2-4.9-24.6c-4.5 10.5-12.4 20.2-24.6 24.5z"/><path class="st4" d="M258.8 638.2c.1 1.3.2 2.4.2 3.3l.3-.1-.5-3.2zm-7 4.9l3.3-.8c-.4-5.7-1.6-20.7-3-37.5.1 12.2 0 24.9-.3 38.3zm-98-216.3c2.7-2.3 5.5-4.6 8.7-6.8-4.7 2.9-7.8 5.2-8.7 6.8zm44.7-25.4c-.1.1-.3.1-.4.2.1 0 .2-.1.2-.1l.2-.1zm-18.1 482.5v-1.2l324-14.8 19.6-.9c1.5-25.7 7.3-48.2 11.6-85.2-.2 1-1 1.6-2 1.6h-.3l-100.8-15.6c-1.1-.2-1.8-1.2-1.7-2.3v-.1c-25.7-4.8-51.1-9.9-73.9-14.7-24.3 9.2-49.4 18.2-72.7 25.7-.2.4-.6.7-1 .9-1.5.6-22.8 8.1-46.2 12.9-16 3.9-29.4 6.1-38.7 5.9-5.2-.1-10.2-2.4-15-6.3-3.2-1.9-6.3-4.5-9.2-7.8.9 28.2 3.2 52.7 3.2 65.1 0 20.8-6.3 32.1-.7 39.6l.1-3.9 3.7 1.1zm171-501.3l-11.4 38-87-43.9c-16 7-35.1 15.5-52.2 23.5 3.1 1.4 37.8 20.1 48.3 140.1.9.1 1.6.9 1.7 1.8.2 2.6 3.8 45.6 6.3 75l1.1.4 31.4 11.7 1.3-5.4 24.7 3.3c8.7-2.1 16.6-4 22.2-5.1.8-.2 1.5.2 2 .8l117.5-27 2.4 9.7 8.5-4.5 44.9-16.8 6.1-37.9c.2-1.1 1.2-1.8 2.3-1.7L540 411.7s23.6-21.6 43.9-15.2c1.4.4 2.7 1 4 1.6v-.2l-124.3-45.3-96.8 68.2-15.4-38.2z"/><path class="st4" d="M524.1 866.9l-19.6.9-324 14.8v1.2l37.8 13c28.4.9 66.5-1.6 91.2-4 36.7-3.7 111.8 1.1 128.3 4.2 10.7 2 55.7-4.2 86.3-8.8-.5-7.5-.4-14.5 0-21.3zm-347.3 15.7l-.1 3.9c.8 1.1 2 2.2 3.4 3.1l.2-5.8-3.5-1.2zm3.4 7.1c1.7 1.1 3.8 2.1 6.4 3.1 6.5 2.4 17.9 3.6 31.6 4l-37.8-13-.2 5.9z"/><path class="st5" d="M305.7 359.2l-.1-2.8h-29.3l-16.6 17.5c17.2-7.4 29.5-12.6 29.5-12.6l16.5-2.1z"/><path class="st5" d="M327.7 356.4h-22.1l.1 2.8zm-22 2.8l-16.4 2.1s-12.3 5.1-29.5 12.6l-1.9 2 80.3 40.5 10.5-35-42 4.9-1-27.1z"/><path class="st5" d="M327.7 356.4l-22 2.8 1 27.1 41.9-4.9 1-3.2-8.8-21.8z"/><path class="st6" d="M275.7 354.9h29.9l-.1-1.5H275l-22.1 23.3.1.1c1.1-.5 2.1-.9 3.2-1.4l19.5-20.5z"/><path class="st6" d="M339.4 354.9l.7-.1-.3-.9 1.8-.5h-36.1v1.5zm12 27.7l-.6-1.5-.5.1-11.2 37.3-83.7-42.3.8-.9c-1 .5-2.1.9-3.2 1.4l87 43.9 11.4-38z"/><path class="st6" d="M350.3 381.2l.5-.1-.3-.7zm-10.2-26.4l-.7.1h.8zm-63.8 1.6h29.3l-.1-1.5h-29.9l-19.5 20.5c1.2-.5 2.4-1 3.5-1.5l16.7-17.5z"/><path class="st6" d="M327.7 356.4l11.7-1.5h-33.9l.1 1.5zm10.5 60l-80.3-40.5 1.9-2c-1.2.5-2.3 1-3.5 1.5l-.8.9 83.7 42.3 11.2-37.3-1.6.2-10.6 34.9z"/><path class="st6" d="M349.6 378.2l-1 3.2 1.7-.2.2-.8zm-8.8-21.8l-.6-1.5h-.8l-11.7 1.5z"/><path class="st5" d="M435.8 342.5l24.4 8.9.5-.4-21-22.6-27.1 7.7 1.8 9.2z"/><path class="st5" d="M412.6 336.1l-59 17 60.8-7.8z"/><path class="st5" d="M414.4 345.3l5.5 27.7-66 7.8 14.2 35.4 92.1-64.8-24.4-8.9z"/><path class="st5" d="M360.1 353.4l-7.3 24.6 1.1 2.8 66-7.8-5.5-27.7-60.8 7.8-1.1.3z"/><path class="st5" d="M344 356.4l7 17.2 5.1-17.2z"/><path class="st5" d="M352.5 353.4l-5.3 1.5h10.9l-6.2 20.9.9 2.2 7.3-24.6z"/><path class="st5" d="M344 356.4h12.1l-5.1 17.2.9 2.2 6.2-20.9h-10.9l-3.4 1z"/><path class="st6" d="M440.2 326.7l22.8 24.6-1.1.7 1.7.6 1.7-1.1-24.7-26.5-28.6 8.2.3 1.5z"/><path class="st6" d="M347 353.4l65.3-18.7-.3-1.5-70.4 20.2zm20.5 65.1l-15.2-37.6-.4.1-.5 1.6 15.4 38.2 96.8-68.2-1.7-.6z"/><path class="st6" d="M351.9 381l.4-.1-.2-.6zm-9.5-24.6h-1.6l8.8 21.8.7-2.3zm-2.3-1.6l3.6-.5 3.3-.9h-5.4l-1.8.5zm11.3 27.8l.5-1.6-1.1.1z"/><path class="st6" d="M351.2 378.1l-.7 2.3.3.7 1.1-.1.2-.7zm-9.4-23.2l1.9-.6-3.6.5.1.1zm7.8 23.3l.9 2.2.7-2.3-.9-2.2zm-7.8-23.3h-1.6l.6 1.5h1.6zm97.9-26.5l21 22.6-.5.4 1.7.6 1.1-.7-22.8-24.6-27.9 8 .3 1.4zm-86.1 24.7l59-17-.3-1.4-65.3 18.7h4.1z"/><path class="st6" d="M368.1 416.2l-14.2-35.4-1.6.1 15.2 37.6 94.4-66.5-1.7-.6z"/><path class="st6" d="M352.8 378l-.7 2.3.2.6 1.6-.1zm.8-24.9l-2.5.3h1.4zm-11.2 3.3l7.9 19.5.7-2.3-7-17.2zm8.7-3H347l-3.3.9zm.1 24.7l.9 2.2.7-2.3-.9-2.2z"/><path class="st6" d="M347.2 354.9l5.3-1.5h-1.4l-7.4.9-1.9.6zm3.8 18.7l-.7 2.3.9 2.2.7-2.3zm-7-17.2l-.2-.5 3.4-1h-5.4l.6 1.5z"/><path class="st4" d="M200.6 400.2l-2 1.2c.8-.4 1.5-.7 2.3-1.1-.2-.1-.3-.1-.3-.1zM142.7 701c.2.6 12.8 50.2 31.4 74.5-.8-32.9.3-69.7 8.9-97.1 16.5-53.1-47.7-208.9-47.7-208.9s14.7-31.2 18.3-42.2c0-.1.1-.3.2-.4-26.9 23.4-31 50.7-39.7 71.6-7.2 17.6 3.6 121.1 26 201.1h.1c1.1-.4 2.2.3 2.5 1.4zm19.8-281c8.1-5 21.1-11.5 35.6-18.5-14.6 5.6-26.2 11.9-35.6 18.5zm176 206.1c-3.2.6-7.3 1.5-11.9 2.6l137.3 18.5-6.5-40.3 2.1-1.1-2.4-9.7-117.5 27c.2.2.3.5.4.8.2 1-.5 2-1.5 2.2z"/><path class="st4" d="M135.3 469.4s64.1 155.8 47.7 208.9c-8.5 27.5-9.7 64.2-8.9 97.1 4.7 6.1 9.8 10.7 15.1 12.4 27 8.8 92.1-14.2 92.8-14.5 1-.4 2.2.2 2.6 1.2.2.6.1 1.2-.2 1.7 23.3-7.6 48.4-16.6 72.7-25.7-52.4-11.1-91.6-20.6-91.6-20.6l21.9-91.6c-16.1 4.2-29.4 7.7-29.6 7.8-.2 0-.3.1-.5.1-.4 0-.8-.1-1.2-.4-.5-.4-.8-.9-.8-1.5 0-.4-.1-1.1-.1-2.1l-3.3.8c.3-13.5.4-26.2.3-38.2-2.4-28.4-5.2-61.8-5.2-62.3-.1-1.1.7-2.1 1.8-2.2h.5C238.8 420.2 204 401.6 201 400.2c-.8.4-1.5.7-2.3 1.1l-.2.1c-.1 0-.2.1-.2.1-14.6 6.9-27.5 13.5-35.6 18.5-3.1 2.2-6 4.5-8.7 6.8-.1.2-.2.3-.2.4-3.9 11.1-18.5 42.2-18.5 42.2z"/><path class="st4" d="M187.9 791.7c-1.5-.5-3-1.2-4.5-2.1 4.8 3.9 9.8 6.2 15 6.3 9.2.3 22.6-2 38.7-5.9-10.9 2.2-22.3 3.8-32.3 3.8-6.3.1-12.1-.5-16.9-2.1zm71.5-150l-.1-.3-.3.1v.3c.2 0 .3 0 .4-.1z"/><path class="st3" d="M502.2 652.4c-.1-.2-.1-.5 0-.8l10.8-67.1-45 16.8-8.5 4.5 10.2 42.2 32.5 4.4zm4.4-2.9l-.4 2.7c0 .2-.1.5-.2.6h.2l.4-3.3z"/><path class="st3" d="M463.9 647.2l5.9.8-10.3-42.2-2.1 1.1zm-204.6-5.8l9.2-2.1c5.5-1.4 12.4-3.3 19.9-5.2l1.1-4.7-31.4-11.7-1.1-.4c.7 8.6 1.3 16 1.7 21l.6 3.1zm9.3-2.1l-9.2 2.1.1.3c1.9-.5 5.1-1.4 9.1-2.4z"/><path class="st4" d="M625.3 498.9c-3.1-8.6-6.3-17.3-9.4-26.4-6.9-20-10.6-40.1-12.2-60.5-4.7-6.3-9.8-11-15.7-13.9-.9 4.8-17.8 98-23.7 157.5 19.2-36.7 45.6-51.2 61-56.7zM315.5 627.3l-24.7-3.3-1.3 5.4 7 2.6c6.5-1.6 12.9-3.3 19-4.7z"/><path class="st4" d="M540 411.7L521.2 545c1.1.2 1.8 1.2 1.7 2.3l-5.7 35.6 3.7-1.4-13.1 79.9-34.4 1.7 8.9 37s-59.5 25.8-125.3 50.6c22.8 4.8 48.2 10 73.9 14.7.2-1.1 1.2-1.8 2.3-1.6L534 779.4c1.1.2 1.8 1.1 1.7 2.2 2.9-25.6 5.1-58.1 4.6-103.6-.6-56.4 9.7-95.4 23.9-122.4 5.9-59.5 22.8-152.7 23.7-157.5-1.3-.6-2.6-1.2-4-1.6-20.3-6.4-43.9 15.2-43.9 15.2z"/><path class="st4" d="M463.9 647.2l-137.3-18.5c-11.5 2.7-26.3 6.4-39.1 9.8l-21.9 91.6s39.1 9.5 91.6 20.6c65.8-24.8 125.3-50.6 125.3-50.6l-8.9-37-6.9.3-2.8-16.2zM423.4 718l-60.9 30.5c-.3.1-.6.2-.9.2-.7 0-1.4-.4-1.8-1.1-.5-1-.1-2.2.9-2.7l60.9-30.5c1-.5 2.2-.1 2.7.9s.1 2.2-.9 2.7zm82.7-65.1h-.2c-.3.6-1 1-1.7 1h-.3c-.8-.1-1.4-.7-1.6-1.5l-32.4-4.4 3.7 15.1 34.4-1.7 13.1-79.9-3.7 1.4-10.7 66.6-.6 3.4z"/><path class="st4" d="M463.9 647.2l2.6 16.3 6.9-.4-3.6-15.1zM296.6 632l-7-2.6-1.1 4.7c2.6-.7 5.3-1.4 8.1-2.1z"/><path class="st7" d="M357.5 321.8c-18.5 2.8-36.9-3.7-52.6-16.8-.4-.1-.8-.1-1.2-.2l.2 5.2c18 12.5 51.6 32.7 78.6 23 12.2-4.4 20.1-14 24.6-24.4l-3.7-18.8c-11.4 17.5-27.2 29.2-45.9 32z"/><path class="st3" d="M271.3 173.6c-1.2-2.2-.5-4.9 1.5-6.3 6.1-4 12.4-5.9 18.7-7.4 4-1 8-1.7 12-2.3 31.7-14.5 64.3-26 96.8-34.4-4.4-8.4-9.6-16.6-15.1-21.4-14.9-13-36.1-11.2-46.6-9.3-10.3 1.8-23.3 13.7-34.8 7.6-1.4 1.7-3.2 3.3-5.7 4.6-7.5 3.8-20.5 12.8-28.1 22-.1.1-.2.3-.4.5-.8 1.8-1.6 3.6-2.4 5.5-3.5 11.5-4.8 33.7-5.2 46 3-1.7 6.1-3.4 9.3-5.1z"/><path class="st3" d="M412.9 152.6s-5.1-15-12.5-29.3c-32.5 8.4-65.1 19.9-96.8 34.4 2.3-.3 4.6-.6 6.9-.8 2.9-.3 5.5 1.9 5.8 4.8.3 2.9-1.9 5.5-4.8 5.8h-.3c-5.7.4-11.7 1.1-17.4 2.3-5.7 1.2-11.3 2.9-15.6 5.5l-.2.1c-2.2 1.4-5.2.7-6.6-1.5 0-.1-.1-.1-.1-.2l-9.3 5.1c-.2 5.4-.2 8.9-.2 8.9s-.5 2.4-2 5.1c5.9 1.9 11.7 7.1 15.3 14.5 5.7 11.8 3.6 24.7-4.7 28.7-.4.2-.7.3-1.1.5 10.1 24.4 25.8 43.8 43.9 54.8-1-12.6-2-32.5 1-39.5v-.6l1.3-1.5c2.4-2.1 4.6-3.6 6.9-4.8 7.2-4.2 16.2-6.6 25.8-7 5.3-.2 10.6-.1 15.6.5l1.2.2c1.4.2 2.8.3 4.2.6 3.6.8 8 2.3 11 7.3 3 5.2 4.3 10.8 5.6 16.3.3 1.4.7 2.8 1 4.2 1.5 6.1 2.3 11.4 2.3 16.5 16.6-16 27.5-41.3 30.1-70.6-.6 0-1.2 0-1.7-.1-9.2-1.1-15.5-12.5-14-25.5 1.2-10.5 7.1-18.9 14.2-21.2 0-.2-.1-.4-.1-.6-.8 0-1.4-.2-1.4-.2l-3.3-12.7zm-112.4 46.8c-3.8.6-7.5-2.7-8.2-7.2-.7-4.6 1.9-8.7 5.7-9.3 3.8-.6 7.5 2.7 8.2 7.2.7 4.6-1.9 8.7-5.7 9.3zm42.6 18.4l-7.9 4.2c-.1.1-.3.1-.5.1-.4 0-.7-.2-.9-.5-.3-.5-.1-1.1.4-1.4l7.9-4.2c2.5-1.3 3.9-3.7 3.6-6.2l-4-27.8c-.1-.5.3-1.1.8-1.1.5-.1 1.1.3 1.1.8l4 27.8c.6 3.4-1.2 6.6-4.5 8.3zm34-27.4c-3.9.3-7.3-3.1-7.7-7.7-.4-4.6 2.5-8.6 6.3-8.9 3.9-.3 7.3 3.1 7.7 7.7.4 4.6-2.5 8.6-6.3 8.9zm22.6-31.5c-.8 2.5-3.5 3.8-6 3l-.2-.1c-4.7-1.6-10.6-2-16.4-1.8-5.8.1-11.8.8-17.5 1.7h-.3c-2.9.4-5.6-1.6-6-4.6-.4-2.9 1.6-5.6 4.6-6 6.5-.9 12.7-1.3 19.2-1.3 6.4.1 13 .5 19.9 3 2.2 1 3.5 3.6 2.7 6.1z"/><path class="st3" d="M355.5 263.6c.6 5.1 2.3 14.2 2.7 15.2 1.4 3.7 5.1 5.8 8.8 6.7 2.3.6 4.7.8 7.1.9l7.7-.9c.2-5.1-.5-10.6-2.1-16.9-.4-1.4-.7-2.9-1-4.3-1-4.5-2-8.8-4-12.7-4.3 5.4-11 9.8-19.2 12zm-12.5 22c3.3-4.6 1.8-11.5 1.4-16.7-.1-.8 0-2.3-.1-3.7-10 .1-18.8-3.4-24-9.1-1.3 5.2-1 21.3.3 36.7l14.1-1.7c3.2-1.1 6.3-2.8 8.3-5.5zm-3.5-39.5l8.3-1c-2.9.2-5.6.5-8.3 1z"/><path class="st3" d="M330.2 292.3c1.5-.3 3-.7 4.5-1.2l-14.1 1.7c0 .4.1.8.1 1.1 3.4-.2 7.7-1.2 9.5-1.6zm48.7-5.9c.3 0 1.4-.1 2.8-.3v-.5l-7.7.9c1.7 0 3.3 0 4.9-.1z"/><path class="st8" d="M390.5 284.5l5.5-.6 6-.7 1.3 6.7c13-20 20-47.5 18.4-77.3-.6.1-1.1.2-1.7.3-2.6 29.4-13.2 55-29.5 71.6zm-81 9.5c-18.7-11.5-34.2-31.7-43.3-56.9-.5.1-1 .1-1.5.1 7.2 28.1 21.4 51.6 39 66.8l-.3-9.2 6.1-.8z"/><path class="st8" d="M389.1 286c0 1-.1 1.9-.2 2.9 2.6-1.6 5-3.3 7.1-5l-5.5.6c-.5.5-.9 1-1.4 1.5zM309 305.4c6.6.5 15 .7 25-.2-.8-.6-1.9-1.4-3.3-2.3-4.1-.9-8.1-2.3-12.1-4l-4.8.5c-.1-.8-.2-1.8-.3-3-1.4-.7-2.7-1.5-4-2.3l-6.2.7.3 9.2c.4.3.8.7 1.2 1 1.3.1 2.7.3 4.2.4zm72.5-12.4c2.4-1.2 4.6-2.4 6.6-3.7l-2.5-.3c-1.3 1.4-2.7 2.7-4.1 4z"/><path class="st8" d="M396 283.9c-2.1 1.7-4.5 3.3-7.1 5v.6l-.7-.1c-2.1 1.3-4.3 2.5-6.6 3.7-4.3 3.9-8.7 7.5-13.2 11.2 0 0-32.4 2.7-33.3 1.8-.1-.1-.5-.4-1.1-.8-10 .9-18.4.8-25 .2-1.5-.1-2.9-.3-4.1-.4 15.7 13.1 34.1 19.6 52.6 16.8 18.7-2.8 34.6-14.5 45.9-31.9l-1.3-6.7-6.1.6zM309.5 294l3.8-.4c-.1-.8-.1-1.6-.2-2.4-18.1-11-33.8-30.3-43.9-54.8-1 .4-2 .6-3 .7 9.1 25.2 24.6 45.5 43.3 56.9zm79.6-9.3h.2c.1-.1.2-.1.2-.2v.2l1.1-.1c16.3-16.6 26.9-42.2 29.6-71.7-.3 0-.6 0-.9.1-2.6 29.2-13.5 54.6-30.1 70.6-.1.2-.1.7-.1 1.1z"/><path class="st8" d="M389.3 284.7h-.2v.1c.1-.1.1-.1.2-.1zm-79.8 9.3c1.3.8 2.7 1.6 4 2.3-.1-.8-.2-1.8-.3-2.8l-3.7.5zm11.6 4.6l-2.5.3c3.9 1.7 7.9 3.1 12.1 4-3-2.1-6.9-4.7-9.8-6.7.1.7.1 1.6.2 2.4zm68-13.2v.5c.5-.5 1-.9 1.4-1.4l-1.1.1c-.1.3-.2.6-.3.8zM306 85.9c8-4.4 16.6-7.1 25.8-7.9 28.7-2.3 54.2 15.7 70.4 44.7 7.8-2 15.5-3.8 23.2-5.4-.3-13.8-.5-26.2.3-28.6 1.5-4.9.9-9.8-4.6-15.3s-12.5-14.1-10.4-17.7c2.1-3.7 11.3-13.1 2.4-21.4-8.9-8.2-51.6-13.4-59.6-6.1-7.8 7.2-36.3-19.5-59.8 15.9l3.9-2.4c.2.1 5.9 30.3 8.4 44.2z"/><path class="st8" d="M417.5 165.5c2.5 0 7.5-1 8.2-9.9.5-6.3 0-23-.3-38.2-7.7 1.6-15.5 3.4-23.2 5.4 7 12.4 12.2 26.9 15.3 42.7zm-113.7-65.4c11.4 6.1 24.4-5.8 34.8-7.6 10.5-1.8 31.7-3.6 46.6 9.3 5.5 4.8 10.7 13 15.1 21.4.6-.2 1.3-.3 1.9-.5-16.2-29.1-41.7-47-70.4-44.7-9.2.7-17.9 3.5-25.8 7.9.7 4 1.2 6.7 1.2 6.9 0 .6-.7 4-3.4 7.3z"/><path class="st8" d="M400.3 123.3c7.5 14.3 12.5 29.3 12.5 29.3l3.3 12.7s.6.1 1.4.2c-3.1-15.8-8.3-30.2-15.3-42.7-.6.1-1.2.3-1.9.5zm-155.9 74.5c1.3-2 3-3.5 5.1-4.6 2.4-1.2 5.2-1.5 7.9-1-.2-3.6-.2-7.2-.1-10.8-6 3.4-12 7-17.9 10.7.7 1.9 2.6 4.1 5 5.7zm53.7-93.1c2.5-1.3 4.4-3 5.7-4.6-.2-.1-.3-.2-.5-.3-2.4-1.4-4.2-4.4-5.7-8.4-11.5 8.6-21.1 21-28 35.8.1-.2.2-.3.4-.5 7.6-9.2 20.6-18.2 28.1-22zm-30.9 28c-5.9 14.5-9.4 31-9.9 48.6 1.5-.9 3.1-1.8 4.7-2.6.4-12.3 1.7-34.5 5.2-46z"/><path class="st8" d="M261.7 187.6s0-3.5.2-8.9c-1.6.9-3.1 1.7-4.7 2.6-.1 3.6-.1 7.2.1 10.8.8.1 1.6.3 2.3.6 1.7-2.7 2.1-5.1 2.1-5.1zm35.9-96.2c2.7-2 5.5-3.9 8.4-5.5-2.6-13.9-8.3-44.1-8.3-44.1l-3.9 2.4c-.5.8-1.1 1.6-1.6 2.5.1 0-.3 29.3 5.4 44.7z"/><path class="st8" d="M303.3 99.8c.2.1.3.2.5.3 2.7-3.3 3.4-6.7 3.4-7.3 0-.2-.5-2.9-1.2-6.9-2.9 1.6-5.7 3.4-8.4 5.5 1.5 4 3.3 7 5.7 8.4z"/><path class="st3" d="M257.7 197.7c-.1-.7-.1-1.4-.1-2-1.1 1.2-2.5 2.3-4.3 3.1-3.1 1.4-6.3.6-8.9-1-3.8 5.9-3.9 15.3.4 24.2 4.5 9.3 12.6 15.2 19.9 15.3-1.4-5.3-2.5-10.7-3.3-16.3-1.8-7.6-3-15.3-3.7-23.3z"/><path class="st3" d="M257.7 197.7c.6 8 1.9 15.7 3.6 23.1v-.3c-.9-6-1.4-11.9-1.7-17.8 2 12 5.3 23.3 9.6 33.7.4-.1.7-.3 1.1-.5 8.3-4.1 10.5-16.9 4.7-28.7-3.6-7.4-9.4-12.6-15.3-14.5-.6 1-1.3 2-2.1 3 0 .7.1 1.4.1 2zm3.6 23.2c.8 5.6 1.9 11 3.3 16.3.5 0 1 0 1.5-.1-1.8-5.2-3.4-10.6-4.8-16.2z"/><path class="st3" d="M261.3 220.5v.3c1.3 5.6 2.9 11 4.8 16.3 1-.1 2.1-.3 3-.7-4.3-10.4-7.6-21.7-9.6-33.7.4 5.9.9 11.8 1.8 17.8zm-8-21.7c1.7-.8 3.2-1.9 4.3-3.1-.1-1.2-.1-2.4-.2-3.5-2.8-.5-5.5-.2-7.9 1-2.1 1-3.8 2.6-5.1 4.6 2.6 1.6 5.8 2.4 8.9 1z"/><path class="st3" d="M259.7 192.7c-.8-.2-1.6-.4-2.3-.6.1 1.2.1 2.3.2 3.5.9-.9 1.6-1.9 2.1-2.9zm161 7.8c.5 4 .9 8 1.1 12 7.5-1.8 13.8-10.4 15.1-21.4 1.5-13-4.8-24.5-14-25.5-1.8-.2-3.5 0-5.2.5 1.2 6.1 2 12.3 2.5 18.7.4 5.3.6 10.6.5 15.7z"/><path class="st3" d="M403.5 187.2c-1.5 13 4.8 24.5 14 25.5.6.1 1.2.1 1.7.1.5-6.2.7-12.5.5-18.9.2 1 .4 2.1.5 3.1.2 1.2.3 2.4.5 3.5.1-5.2-.1-10.4-.5-15.8-.5-6.4-1.4-12.6-2.5-18.7-7.1 2.4-13 10.7-14.2 21.2zm16.6 25.6c.6-.1 1.1-.2 1.7-.3-.2-4-.6-7.9-1.1-12-.1 4.2-.3 8.3-.6 12.3z"/><path class="st3" d="M420.7 200.5c-.1-1.2-.3-2.3-.5-3.5-.1-1-.3-2.1-.5-3.1.2 6.4 0 12.8-.5 18.9.3 0 .6 0 .9-.1.3-3.9.5-8 .6-12.2z"/><path class="st8" d="M272.8 167.4c-2.1 1.4-2.7 4.1-1.5 6.3 10.6-5.7 21.4-11 32.2-16-4 .6-8 1.3-12 2.3-6.3 1.5-12.6 3.3-18.7 7.4z"/><path class="st8" d="M271.4 173.9c1.4 2.2 4.3 2.9 6.6 1.5l.2-.1c4.2-2.6 9.9-4.3 15.6-5.5 5.7-1.2 11.7-1.9 17.4-2.3h.3c2.9-.3 5.1-2.9 4.8-5.8-.3-2.9-2.9-5.1-5.8-4.8-2.3.2-4.6.5-6.9.8-10.9 5-21.6 10.3-32.2 16-.1 0-.1.1 0 .2zm26.7 9c-3.8.6-6.4 4.7-5.7 9.3.7 4.6 4.3 7.8 8.2 7.2 3.8-.6 6.4-4.7 5.7-9.3-.7-4.5-4.4-7.7-8.2-7.2zm98.7-30c-6.9-2.5-13.4-2.9-19.9-3-6.5 0-12.7.4-19.2 1.3-2.9.4-5 3.1-4.6 6 .4 2.9 3.1 5 6 4.6h.3c5.6-.9 11.7-1.6 17.5-1.7 5.8-.1 11.7.2 16.4 1.8l.2.1c2.5.8 5.2-.5 6-3 1-2.6-.3-5.2-2.7-6.1zm-21.1 20.9c-3.9.3-6.7 4.3-6.3 8.9.4 4.6 3.8 8 7.7 7.7 3.9-.3 6.7-4.3 6.3-8.9-.4-4.6-3.8-8-7.7-7.7zM367 285.6c-3.7-.9-7.4-3-8.8-6.7-.4-1-2.2-10.1-2.7-15.2-1 .3-2 .5-3.1.7-2.8.5-5.5.8-8.1.8.1 1.4.1 2.9.1 3.7.4 5.2 1.9 12.1-1.4 16.7-2 2.7-5.1 4.4-8.3 5.5l39.4-4.6c-2.5-.1-4.9-.4-7.1-.9z"/><path class="st8" d="M381.7 286.1c-1.4.1-2.5.2-2.8.3-1.6.1-3.2.2-4.9.1l-39.4 4.6c-1.5.5-3 .9-4.5 1.2-1.8.4-6.1 1.4-9.5 1.6 0 .5.1 1 .1 1.4 11 5.1 22.8 7.1 34.5 5.3 10.1-1.5 19.3-5.6 27.5-11.8l-1.3-.1c.3-.9.3-1.7.3-2.6zm-51 16.7c1.3.9 2.5 1.7 3.3 2.3 2.3-.2 4.6-.5 7-.8-3.5-.2-7-.7-10.3-1.5zm54.9-13.7c-2.3 1.9-4.6 3.7-7.1 5.3 1-.5 2-.9 2.9-1.4 1.5-1.3 2.9-2.6 4.2-3.9z"/><path class="st8" d="M349.7 304.3c-2.9.2-5.9.3-8.8.1-2.4.3-4.8.6-7 .8.6.4 1 .7 1.1.8.9.9 33.3-1.8 33.3-1.8 4.4-3.6 8.9-7.3 13.2-11.2-1 .5-1.9.9-2.9 1.4-8.7 5.6-18.3 9-28.9 9.9zm39.7-19.8c0 .1-.1.1-.2.2h.1c.1-.1.1-.2.1-.2z"/><path class="st8" d="M360.8 300.5c6.7-1.7 12.6-3.8 17.7-6.1 2.5-1.6 4.8-3.4 7.1-5.3l-2.8-.3c-8.2 6.2-17.4 10.3-27.5 11.8-11.8 1.7-23.5-.3-34.5-5.3 0 .3.1.5.1.8 2.9 2 6.8 4.7 9.8 6.7 3.4.8 6.8 1.3 10.3 1.5 6.1-.8 12.7-2 19.8-3.8zm28.3-15.1c.1-.2.2-.5.3-.7h-.1s-.1.1-.2.1v.6z"/><path class="st8" d="M341 304.4c2.9.2 5.8.2 8.8-.1 10.5-.8 20.2-4.3 28.8-9.9-5.2 2.3-11 4.5-17.7 6.1-7.2 1.8-13.8 3-19.9 3.9z"/><path class="st9" d="M344.2 265.1c-.1-1.3-.4-2.5-.9-3.1 0 0 12.1-1.8 12.2-1.8-.3 0-.3 1.4 0 3.4 8.2-2.2 15-6.6 19.2-11.9-.3-.5-.5-1-.8-1.6-1.2-2.1-2.9-3.1-6.2-3.8-1.2-.3-2.4-.4-3.5-.5l-1.3-.2c-4.6-.5-9.5-.7-14.4-.5h-.6l-8.3 1c-5 1-9.6 2.7-13.6 5-1.8 1-3.5 2.1-5.1 3.5l-.1.1c-.2.3-.4.7-.5 1.3 5.1 5.8 14 9.2 23.9 9.1z"/><path class="st9" d="M355.5 263.6c-.2-2-.3-3.4 0-3.4-.1 0-12.2 1.8-12.2 1.8.6.6.8 1.8.9 3.1 2.6 0 5.4-.3 8.1-.8 1.1-.2 2.1-.4 3.2-.7z"/><path class="st8" d="M320.6 292.7c-1.3-15.4-1.7-31.5-.3-36.7-1-1.1-1.8-2.2-2.5-3.4 0-.1.1-.3.3-.4 1.9-1.6 3.9-3 6-4.2l15.4-1.8c2.7-.5 5.4-.9 8.3-1l20.6-2.5c3.4.7 6.5 2.1 8.6 5.6-.7 1.2-1.4 2.3-2.3 3.4 1.9 3.9 2.9 8.2 4 12.7.3 1.5.7 2.9 1 4.3 1.6 6.3 2.2 11.8 2.1 16.9l5.8-.7c.5-.5 1.1-1 1.6-1.5-.1-5.1-.8-10.5-2.3-16.5-.4-1.4-.7-2.8-1-4.2-1.3-5.4-2.6-11.1-5.6-16.3-2.9-5-7.4-6.6-11-7.3-1.4-.3-2.8-.5-4.2-.6l-1.2-.2c-5-.6-10.3-.8-15.6-.5-9.7.3-18.6 2.8-25.8 7-2.3 1.3-4.4 2.8-6.9 4.8l-1.3 1.5v.6c-3.1 7-2 26.9-1 39.5 1.2.7 2.3 1.4 3.5 2l3.8-.5zm.1 1.2c0-.4-.1-.8-.1-1.1l-4 .5c.2.1.3.2.5.3.8.2 2.1.3 3.6.3z"/><path class="st8" d="M387 285.4c.2-.2.4-.3.5-.5l-5.8.7v.5c1.7-.2 3.7-.4 5.3-.7zm-1.2 3.5l-.2.2 2.5.3c.3-.2.5-.3.8-.5.1-1 .1-1.9.2-2.9-1.1 1-2.2 2-3.3 2.9zm-72 10.4l4.8-.5c-1.7-.8-3.4-1.6-5.1-2.5.1 1.2.2 2.2.3 3z"/><path class="st8" d="M388.9 289.4v-.6c-.3.2-.5.3-.8.5l.8.1zm-72.3 3.8c-1.2-.6-2.4-1.3-3.5-2 .1.8.1 1.6.2 2.4l3.3-.4zm72.5-8.5v-1.3c-.5.5-1 1-1.6 1.5l1.6-.2zm-3.3 4.2c1.1-.9 2.2-1.9 3.2-2.9v-.5c-.2.4-.6.8-.9 1.2-.7.7-1.5 1.4-2.3 2.2zm3.3-4.1c0-.1 0-.1 0 0l-1.6.1-.5.5c1-.2 1.7-.4 2.1-.6z"/><path class="st8" d="M320.9 296.1c-2.4-1.7-4.2-2.8-4.2-2.9.1.1.3.1.4.2-.2-.1-.3-.2-.5-.3l-3.3.4c.1 1 .2 1.9.3 2.8 1.7.9 3.4 1.7 5.1 2.5l2.5-.3c-.2-.7-.2-1.6-.3-2.4zm60.8-10c0 .9-.1 1.7-.2 2.6l1.3.1c1.4-1.1 2.8-2.2 4.2-3.4-1.6.3-3.6.5-5.3.7z"/><path class="st8" d="M317.1 293.5c1.2.6 2.5 1.3 3.7 1.8 0-.5-.1-.9-.1-1.4-1.5 0-2.8-.1-3.6-.4zm68.6-4.4l.2-.2c-.1.1-.2.1-.2.2z"/><path class="st8" d="M316.7 293.3s1.8 1.2 4.2 2.9c0-.3-.1-.5-.1-.8-1.2-.6-2.5-1.2-3.7-1.8-.1-.2-.3-.3-.4-.3zm70.3-7.9c-1.4 1.2-2.7 2.3-4.2 3.4l2.8.3.2-.2 2.3-2.3c.3-.4.7-.7.9-1.2v-.6c-.3.2-1 .4-2 .6zm-24.2-39.8l1.3.2c1.2.1 2.4.3 3.5.5 3.2.7 5 1.8 6.2 3.8.3.5.6 1 .8 1.6.9-1.1 1.7-2.2 2.3-3.4-2.1-3.5-5.1-4.8-8.6-5.6l-20.6 2.5h.6c5.1-.3 9.9-.1 14.5.4zm-42 9c1.7-1.4 3.3-2.5 5.1-3.5 4-2.3 8.6-4 13.6-5l-15.4 1.8c-2.1 1.2-4.1 2.6-6 4.2-.1.1-.3.3-.3.4.7 1.2 1.5 2.4 2.5 3.4.1-.4.3-.9.5-1.3zm22.9-72.7c-.1-.5-.6-.9-1.1-.8-.5.1-.9.6-.8 1.1l4 27.8c.3 2.4-1 4.8-3.6 6.2l-7.9 4.2c-.5.3-.7.9-.4 1.4.2.3.5.5.9.5.2 0 .3 0 .5-.1l7.9-4.2c3.3-1.7 5.1-5 4.6-8.2l-4.1-27.9z"/><path class="st10" d="M312.1 929.1l62.1 21.3 1.1 29.1c.9 16.1 1.6 36.4 2.1 53.8l.5 12c.3.7 1 1.2 1.8 1.2 1.1 0 2-.9 2-2 0-.2-.6-23.3-1.5-46.2-2-47.5-3.6-48.6-4.9-49.5-8.5-5.5-60.6-21-62.8-21.6-1-.3-2.1.3-2.5 1.3l1.9.6h.2z"/><path class="st10" d="M377.8 1044.6c0 .3.1.5.2.8l-.5-12c.1 3.9.2 7.6.3 11.2zM311.4 931c18.3 5.4 54.2 16.6 61.4 20.9.9 2.4 1.8 13.3 2.6 27.7l-1.1-29.1-62.1-21.3h-.2l-1.9-.6v.1c-.4.9.2 2 1.3 2.3z"/><path class="st6" d="M255.1 642.4l3.9-.9c-.1-.9-.2-2-.2-3.3l-.7-4.3-2.9-17.4 1.9.7c-2.4-29.4-6-72.3-6.3-75-.1-.9-.8-1.7-1.7-1.8 1.7 18.9 2.7 40.3 2.9 64.5 1.5 16.8 2.7 31.8 3.1 37.5zm84.6-19.4c-.4-.6-1.2-.9-2-.8-5.5 1.1-13.4 2.9-22.2 5.1l3.5.5 20.7-4.8zm-79.9 21.4l-.4-2.6c-.1 0-.2.1-.3.1v-.3l-3.9.9c.1 1 .1 1.7.1 2.1 0 .6.3 1.2.8 1.5.3.3.8.4 1.2.4.2 0 .3 0 .5-.1.3-.1 13.5-3.6 29.6-7.8l.1-.5-27.7 6.3z"/><path class="st6" d="M326.5 628.7c4.6-1.1 8.7-2 11.9-2.6 1.1-.2 1.8-1.3 1.6-2.3-.1-.3-.2-.6-.4-.8l-20.7 4.7 7.6 1zm-79.6-86.1c0 .6 2.9 33.9 5.2 62.3-.2-24.2-1.3-45.6-2.9-64.5h-.5c-1.1.1-1.9 1.1-1.8 2.2zm11.2 91.3l.7 4.3c-.4-4.9-1-12.4-1.7-21l-1.9-.7 2.9 17.4zm30.4.2c-7.5 1.9-14.4 3.8-19.9 5.2l19.7-4.5.2-.7z"/><path class="st6" d="M259.8 644.4l27.7-6.4.8-3.2-19.7 4.5c-4 1-7.1 1.9-9.2 2.4l.4 2.7zm38.2-11.9l21-4.8-3.5-.5c-6.1 1.5-12.6 3.1-18.9 4.7l1.4.6z"/><path class="st6" d="M319 627.7l-21 4.8 5 1.9-15.5 3.6-.1.5c12.9-3.3 27.6-7.1 39.1-9.8l-7.5-1z"/><path class="st6" d="M298 632.5l-1.4-.5c-2.8.7-5.5 1.4-8.1 2.1l-.2.7 9.7-2.3z"/><path class="st6" d="M287.5 638l15.6-3.6-5.1-1.9-9.7 2.3zm-147.3 61.5c-1 .3-1.7 1.4-1.4 2.4.7 2.7 14.4 56.5 35.5 79.9 0-.7 0-1.4-.1-2.1-13.1-17.2-24.6-46.6-34-80.2z"/><path class="st6" d="M183.4 789.7c-3.2-2.6-6.2-5.9-9.2-9.9 0 .7 0 1.4.1 2.1 2.9 3.2 5.9 5.9 9.1 7.8zm99.9-12.5c.5-.2.8-.5 1-.9-17.1 5.5-33.1 10.3-47.2 13.7 23.3-4.7 44.6-12.2 46.2-12.8zm-109.2-1.7c-18.6-24.4-31.2-73.9-31.4-74.5-.3-1.1-1.4-1.7-2.4-1.5h-.1c9.4 33.6 20.9 63 34 80.3-.1-1.4-.1-2.9-.1-4.3z"/><path class="st6" d="M284.5 774.7c-.4-1-1.5-1.6-2.6-1.2-.7.2-65.7 23.3-92.8 14.5-5.4-1.8-10.4-6.3-15.1-12.4 0 1.4.1 2.9.1 4.3 3 4 6.1 7.3 9.2 9.9 1.5.9 3 1.6 4.5 2.1 4.8 1.6 10.6 2.2 16.9 2.2 10 0 21.4-1.6 32.3-3.8 14.1-3.4 30.1-8.2 47.2-13.7.4-.7.5-1.3.3-1.9zm137.1-60.3l-60.9 30.5c-1 .5-1.4 1.7-.9 2.7.4.7 1.1 1.1 1.8 1.1.3 0 .6-.1.9-.2l60.9-30.5c1-.5 1.4-1.7.9-2.7-.5-1-1.7-1.4-2.7-.9zM521.2 545c-1.1-.2-2.1.6-2.3 1.7l-6.1 37.9 2.9-1.1 5.5-38.5zm-19 107.4l3.7.5c.1-.2.2-.4.2-.6l.4-2.7 9.3-66.1-2.9 1.1-10.8 67.1c0 .1 0 .4.1.7zm15-69.5l5.7-35.6c.2-1.1-.6-2.1-1.7-2.3l-5.4 38.4 1.4-.5zm-13.4 71h.3c.7 0 1.4-.4 1.7-1l-3.7-.5c.3.7.9 1.3 1.7 1.5z"/><path class="st6" d="M506.6 649.5l10.6-66.6-1.4.5zm-74 118.2l100.8 15.6h.3c1 0 1.8-.7 2-1.6v-.1c-31.7-3.5-68.6-9.5-104.8-16.2v.1c-.2 1 .6 2 1.7 2.2zm103.1 13.9c.1-1.1-.6-2-1.7-2.2l-100.8-15.6c-1.1-.2-2.1.6-2.3 1.6 36.1 6.7 73 12.7 104.8 16.2z"/><path class="st11" d="M674.4 467.4c1-6.6 6.3-11.4 12.6-11.4h6.8l1.6-40.6c-.3-.4-.5-.7-.8-1.1-16.3-10.8-29.2-29.6-35.4-52.5-.2 3.6-.3 7.1-.2 10.5 1.6 45.6 10.9 86.1 9.4 126l1.2-.1 4.8-30.8zm56.1-226.6l50.3-5.7 21.3 80.2-6.8 3.7v.1c1.4-.5 2.8-.8 4.2-.8 7.5 0 12.7 6.9 12.7 17.4 0 10.5-9.1 20.7-16.6 20.7-.5 0-1 0-1.5-.1-4.4 22.9-15.5 42.3-30.5 54.5l1 16.3v.1l1.7 28.8h14.5c6.1 0 11.3 4.5 12.5 10.8l4.9 24.8 29.1-1.5 3.4.6c-.4-15.3-.4-65.9-5.3-157.5-5.5-102.4-17.6-114.6-41.4-126.7-22.4-11.4-47.2-2.3-47.2-2.3l-.8.3c6.9 15.4 2.8 26.8-5.5 36.3z"/><path class="st12" d="M634.6 835.9h-2.5c-1.1 0-2-.9-2-2v-.4c-25.1-5.5-35-23.5-37.6-48.8-8.6.3-18.7.1-29.9-.7 2.1 36-9.6 99.6-9.6 99.6s-.3 0-.8.1l5.9 78.9c4.7.3 9.8.6 15.3.6 4.5-.1 19.9-1 20-1 15.4-49.1 31.8-98.5 41.2-126.3z"/><path class="st12" d="M523.9 888.2c.8 18.8 4.1 41 11.6 71.6 0 0 9.2 1.9 22.7 2.8l-5.9-78.9c-2.9.6-14.1 2.4-28.4 4.5z"/><path class="st12" d="M535.7 781.7c-4.3 37.1-10.1 59.5-11.6 85.3l26.9-1.2 1.4 18c.5-.1.8-.1.8-.1s11.7-63.6 9.6-99.6c-8.5-.6-17.6-1.4-27.1-2.4 0-.1 0 0 0 0z"/><path class="st12" d="M552.3 883.8l-1.4-18L524 867c-.4 6.8-.5 13.8-.2 21.3 14.4-2.2 25.6-4 28.5-4.5zM563 599.6c6.2 31.2-.7 36.7-.1 49.5.7 12.8-4.3 95.3-.7 130.1.2 1.6.3 3.2.4 4.9 11.2.7 21.3 1 29.9.7-4.8-46.2 14.8-116.3 10.9-177.1-3.8-59.4 12.5-86.8 25.2-99-1.1-3.2-2.2-6.5-3.4-9.8-15.4 5.5-41.8 20-61.1 56.7-1.9 20.1-2.6 36.3-1.1 44z"/><path class="st12" d="M562.7 784c-.1-1.7-.2-3.3-.4-4.9-3.7-34.8 1.3-117.3.7-130.1-.7-12.8 6.3-18.3.1-49.5-1.5-7.7-.8-23.9 1.2-43.9-14.2 27-24.5 66-23.9 122.4.5 45.4-1.7 78-4.6 103.6 9.4 1.1 18.5 1.9 26.9 2.4zm-27-2.4c0 .1 0 0 0 0zm0 0z"/><path class="st13" d="M887.4 1006c-5.1-.4-10.7-1.1-10.7-1.1s-2.8-.1-4.8-1.3c0 0-2 0-.5-4.1 1.4-3.9 5.2-3.3 14-4.2-.1-.3-.1-.7-.2-1l-11.2-3.7s-1.7-2.4.2-5.4c1.9-3.1 6.3-3 8.4-2.7.1 0 .3 0 .4.1-.3-1.8-.7-3.7-1-5.5-5-.2-5.1-5.1-6.1-9.4-1-4.3-.6-8.4-.2-16.2.3-7.8-1.7-11.7-3.2-19.1-.3-1.4-.5-2.7-.6-3.9-4.7-1.3-9.5-2.4-14.2-3.4 0 0-7.5-8.2-3.3-93.3-.4-1.9-.8-3.7-1.1-5.3-5.2 3.2-11.4 5.1-17.9 5.2l-81.3 1c.4.4.7.9.7 1.5 0 1.1-.9 2-2 2H640.7l1.3 110c-13.9 9.9-31.5 14.5-48.4 16.3l-.1.4-10 33.2c-.9 2.9-1.7 5.9-2.5 8.7-6.1 21.3-11.5 41.2-15.3 57.7l1.5 20.7h101.2c68.6-7.1 132.3-24.2 184.6-49.9 10.8-5.3 23.1-11.3 35.9-18.5-.4-3-1-5.8-1.5-8.8z"/><path class="st13" d="M567.2 1083.1l-1.5-20.7c-1.8 7.7-3.2 14.6-4.2 20.7h5.7zm26.4-120.9c16.9-1.8 34.5-6.4 48.4-16.3l-1.3-110h-6c-9.5 27.8-25.9 77.2-41.1 126.3z"/><path class="st12" d="M668.4 500.3c-1.2 25-6.8 49.9-21.4 75.6 4.3 59.2 4.3 127.2-7.4 168.5l.9 74.4c1.2-3.5 1.9-5.4 1.9-5.4H847c1.4-14.1 2.3-27 1-39.8-.8-7.4-1.7-14.7-2.6-21.9-2-15.9-4-32.3-4.4-48.9 0-1.1.8-2 1.9-2.1 1.1-.1 2 .8 2.1 1.9.4 16.5 2.3 32 4.4 48.5.9 7.2 1.8 14.6 2.6 22 1.4 13.6.4 27.3-1.2 42.3.6 2.3 1.4 6 2.5 10.7.5-.3.9-.6 1.4-.9 3.5-88.7-7.3-322.4-7.7-331.8l-16.2-2.8c0 1.8.1 3.1.2 4 .3 5.9-107 6-162.6 5.7z"/><path class="st12" d="M638 608.4l1.6 136c11.6-41.3 11.7-109.3 7.4-168.5-2.7 4.7-5.7 9.5-9 14.2v18.3zm0-62.8v36.3c2-12.7 1.7-24.7 0-36.3zm160.3-54l.5 2.4-129.1 5 .1-.8-1.2.1c0 .7-.1 1.4-.1 2.1 55.6.3 162.9.1 162.5-5.8-.1-.8-.1-2.2-.2-4l-3.4-.6-29.1 1.6z"/><path class="st12" d="M623.6 775.8c0 6.6.4 10.9.5 10.9.1 1.1-.7 2.1-1.8 2.2h-.2c-1 0-1.9-.8-2-1.8 0-.3-.3-3.4-.5-8.2-1.6 1.1-3.3 1.9-5.1 2.5-5.4 1.8-12.9 2.8-21.9 3.2 2.6 25.3 12.5 43.4 37.6 48.8.2-.9 1-1.6 2-1.6h3.9c1.9-5.5 3.4-10 4.5-13.1l-.9-74.4c-4 14.1-9.3 25-16.1 31.5z"/><path class="st12" d="M638 590.1c-.7 1.1-1.5 2.1-2.2 3.2 1-3.9 1.7-7.7 2.2-11.4v-36.3c-1.8-12.6-5.2-24.7-9.4-37-12.7 12.2-29 39.5-25.2 99 3.9 60.8-15.7 130.9-10.9 177.1 9.1-.4 16.5-1.4 21.9-3.2 1.8-.6 3.5-1.4 5.1-2.5-.2-7.6.1-19.6 2.8-31.9 2.2-10.3.7-16.2-1.6-25.2-2.1-8-4.6-17.9-5.7-34.7-2.3-36.2 11.2-56.6 11.8-57.5.6-.9 1.9-1.2 2.8-.5.9.6 1.2 1.9.5 2.8-.2.3-13.3 20.3-11.1 55 1 16.4 3.5 26.2 5.5 34 2.4 9.2 4.1 15.8 1.6 27.1-2.2 10.3-2.8 20.5-2.7 27.9 6.8-6.5 12.1-17.4 16-31.4l-1.6-136v-18.5zm215.3 236.1c-1-4.8-1.9-8.4-2.5-10.7-.1.8-.2 1.7-.3 2.5-.1 1-1 1.8-2 1.8h-.2c-1.1-.1-1.9-1.1-1.8-2.2.1-1.4.3-2.8.4-4.2H642.4s-.7 1.9-1.9 5.4l.2 13.1h112.1c.5 0 .9.2 1.3.5l81.3-1c6.5-.1 12.7-2 17.9-5.2zm-212.8-7.4c-1.1 3.2-2.6 7.6-4.5 13.1h4.6l-.1-13.1z"/><path class="st3" d="M763.8 414.5l.8 12.7-1-16.3c-1.6 1.3-3.3 2.6-5.1 3.7l5.3-.1z"/><path class="st3" d="M741.9 446.1c-18.7 2.1-37-18.7-46-30.2-.1-.2-.3-.4-.4-.6l-1.6 40.6h72.5l-1.7-28.8c-4.3 9-11.9 17.8-22.8 19z"/><path class="st12" d="M693.4 467.6l.5-11.5H687c-6.3 0-11.6 4.8-12.6 11.4l-4.7 30.8 128.6-6.6-4.9-24.8c-1.2-6.3-6.5-10.8-12.5-10.8h-14.5l.6 9.3-73.6 2.2z"/><path class="st12" d="M669.6 498.9l129.1-5-.4-2.3-128.6 6.6zm23.8-31.3l73.5-2.3-.6-9.3h-72.5z"/><path class="st7" d="M694.7 414.3c.2.4.5.7.8 1.1v-.6c-.3-.1-.6-.3-.8-.5zm69.9 13v-.2.2zm-6-12.7c-9 6-19.1 9.5-29.9 9.8-11.9.4-23.1-3.1-33.2-9.5v.6c.1.2.3.4.4.6 9 11.5 27.3 32.3 46 30.2 10.9-1.2 18.6-10 22.7-18.9v-.1l-.8-12.7h-5.2z"/><path class="st3" d="M795.3 319.2v-.1l-.9.5c.4-.2.6-.3.9-.4zm-100.6 95.1c-1.1-1.6-1.7-2.9-2.5-3.9.8.5 1.9 1.2 3.4 1.9l.3-8h67.4l.4 6.4c15-12.2 26.1-31.6 30.5-54.5-6.8-1-12.2-9.1-12.2-18.9 0-6.8 4.2-12.8 9.2-16.1 0 0-5.8-43.1-32.9-56.2-19.1-9.2-27.7-24.3-27.7-24.3-11.2 12.9-30.2 22.4-40.1 34.1-4.9 5.8-9.4 13.1-13.4 21.2 5-.9 11.1-1.1 18.3.1 3 .5 5 3.3 4.5 6.3s-3.3 5-6.3 4.5c-10.6-1.7-18.2.4-22.1 2-6.7 17.2-11 36.3-12 52.7 6 23.1 18.9 41.9 35.2 52.7zm60.8-85.3c-3.4 0-6.1-3.4-6.1-7.7 0-4.2 2.7-7.7 6.1-7.7 3.4 0 6.1 3.4 6.1 7.7 0 4.2-2.8 7.7-6.1 7.7zm-17.2-36.5c.6-.3 14.1-6.7 33.7-.3 2.9.9 4.4 4 3.5 6.9-.8 2.3-2.9 3.8-5.2 3.8-.6 0-1.1-.1-1.7-.3-15.1-5-25.1-.5-25.5-.3-2.7 1.3-6 .1-7.3-2.6-1.3-2.6-.2-5.8 2.5-7.2zm-19.2 40.9c0-.5.4-.9.9-.9s.9.4.9.9v19.7h4.6c.5 0 .9.4.9.9s-.4.9-.9.9H720c-.5 0-.9-.4-.9-.9v-20.6zm30.1 44.1c-1.5 8.1-9.6 15.1-20.3 16.6-12.2 1.8-23.3-4.4-25.4-13.8l45.7-2.8zM678.5 329c0-4.2 2.7-7.7 6.1-7.7 3.4 0 6.1 3.4 6.1 7.7 0 4.2-2.7 7.7-6.1 7.7-3.3-.1-6.1-3.5-6.1-7.7z"/><path class="st3" d="M695.9 404.4l-.3 8c1.3.7 2.9 1.4 4.9 2.2 7.2 2.7 18.3 5.5 33 5.5 10.7 0 18.8-2.6 24.7-5.5h.4c1.7-1.2 3.4-2.4 5.1-3.7l-.4-6.4h-67.4zm-.3 8c-1.5-.8-2.5-1.5-3.4-1.9.7 1 1.4 2.3 2.5 3.9.3.2.5.3.8.5l.1-2.5z"/><path class="st3" d="M728.6 424.4c10.8-.3 21-3.8 29.9-9.8h-.4c-5.9 3-14 5.5-24.7 5.5-14.7 0-25.8-2.8-33-5.5-2-.8-3.6-1.5-4.9-2.2l-.1 2.4c10.1 6.5 21.4 9.9 33.2 9.6zm65.6-68.1c.5.1 1 .1 1.5.1 7.5 0 16.6-10.1 16.6-20.7 0-10.5-5.2-17.4-12.7-17.4-1.3 0-2.7.3-4.2.8.4 3.6.7 7.3.9 11.1.2 9.1-.5 17.8-2.1 26.1z"/><path class="st3" d="M791.2 321.3c-5 3.4-9.2 9.3-9.2 16.1 0 9.8 5.3 17.9 12.2 18.9 1.6-8.3 2.3-17.1 2-26.1-.1-3.8-.4-7.4-.9-11.1l-.9.3-3.2 1.9z"/><path d="M743.1 302.4c.4-.2 10.4-4.7 25.5.3.6.2 1.1.3 1.7.3 2.3 0 4.5-1.5 5.2-3.8.9-2.9-.6-6-3.5-6.9-19.6-6.4-33.1 0-33.7.3-2.7 1.3-3.8 4.6-2.5 7.3 1.3 2.6 4.5 3.8 7.3 2.5zm-49.6 4.7c3 .5 5.8-1.5 6.3-4.5s-1.5-5.8-4.5-6.3c-7.1-1.2-13.3-.9-18.3-.1-2 4.1-3.9 8.5-5.6 12.9 3.9-1.6 11.5-3.7 22.1-2zm26.5 47.8h5.5c.5 0 .9-.4.9-.9s-.4-.9-.9-.9h-4.6v-19.7c0-.5-.4-.9-.9-.9s-.9.4-.9.9V354c0 .5.4.9.9.9z"/><ellipse cx="684.6" cy="329" rx="6.1" ry="7.7"/><path d="M755.5 313.7c-3.4 0-6.1 3.4-6.1 7.7 0 4.2 2.7 7.7 6.1 7.7 3.4 0 6.1-3.4 6.1-7.7 0-4.3-2.8-7.7-6.1-7.7z"/><path class="st9" d="M728.9 394.1c10.6-1.5 18.8-8.5 20.3-16.6l-45.6 2.8c2 9.4 13.1 15.6 25.3 13.8z"/><path class="st11" d="M641.1 500.1h-2.6c.1.4.1.8.2 1.2.9-.5 1.7-.9 2.4-1.2zm-5.2-14.2V245.4l100.1-41c-.3-.8-.7-1.5-1.1-2.3-12.2-24.4-81.7-2.4-97 12.9-26.6 26.7-27.9 83.8-31.9 119.2-3 26.2-4.4 52.1-2.3 77.8 9.2 12.3 16.7 30.3 26.1 51.1 1.9 4.3 4 12.2 6.1 22.8z"/><path class="st11" d="M625.3 498.9c4.7-1.7 8.4-2.6 10.6-3v-10c-2.1-10.6-4.2-18.5-6.1-22.8-9.4-20.8-16.9-38.9-26.1-51.1 1.6 20.4 5.4 40.5 12.2 60.5 3.1 9.1 6.4 17.8 9.4 26.4zm12.7 2.7l.6-.3c-.1-.4-.1-.8-.2-1.2h-.4v1.5zm-2.1-15.7c.6 3 1.2 6.3 1.8 9.7h.4v2.2c.1.8.3 1.6.4 2.3h2.6l1.5-.6 25.9-1.3c1.5-39.9-7.8-80.4-9.4-126-.1-3.3 0-6.8.2-10.5-2.3-8.5-3.7-17.7-4-27.1-1.6-50.8 28.7-92.9 67.6-94.1 2.6-.1 5.1 0 7.6.3 8.3-9.5 12.4-20.9 5.5-36.4l-100.1 41v240.5z"/><path class="st11" d="M635.9 485.9v10c.8-.2 1.4-.3 1.8-.3-.6-3.4-1.2-6.6-1.8-9.7zm2.5 14.2c-.1-.8-.3-1.6-.4-2.3v2.3h.4zm-.4 1.5v-1.5h-2.1v-4.2c-2.2.4-5.9 1.3-10.6 3 1.2 3.3 2.3 6.5 3.4 9.8 3.6-3.5 6.9-5.7 9.3-7.1z"/><path class="st11" d="M638 495.6h-.4c.1.7.2 1.4.4 2.1v-2.1z"/><path class="st11" d="M638 500.1v-2.3c-.1-.7-.2-1.4-.4-2.1-.4 0-1 .1-1.8.3v4.2c.1-.1.8-.1 2.2-.1zm9 75.8c14.6-25.7 20.2-50.5 21.4-75.6-12.1-.1-21.8-.2-27.3-.2-.6.3-1.5.7-2.4 1.2 3.2 20.4 6.2 46.5 8.3 74.6z"/><path class="st11" d="M638 501.6v44c1.7 11.6 1.9 23.6 0 36.3v8.2c3.3-4.8 6.3-9.5 9-14.2-2.1-28.1-5.1-54.3-8.4-74.6l-.6.3zm30.5-3.4l-25.9 1.3-1.5.6c5.5.1 15.2.1 27.3.2 0-.7.1-1.4.1-2.1zm-30.5 3.4c-2.5 1.4-5.8 3.6-9.4 7 4.1 12.3 7.6 24.4 9.4 37v-44zm0 88.5v-8.2c-.6 3.7-1.3 7.5-2.2 11.4.8-1 1.5-2.1 2.2-3.2zm30.2-279.4c-.9.6-2 .9-3.1.9-1.8 0-3.5-.8-4.5-2.4-1.7-2.5-1.1-5.9 1.4-7.6.3-.2 5.7-3.9 15-5.4 4-8.1 8.5-15.4 13.4-21.2 9.9-11.7 28.9-21.2 40.1-34.1-2.5-.3-5.1-.4-7.6-.3-38.9 1.2-69.2 43.4-67.6 94.1.3 9.5 1.7 18.6 4 27.1 1-16.4 5.4-35.5 12-52.7-1.9.8-2.9 1.5-3.1 1.6z"/><path class="st11" d="M660.6 309.2c1.1 1.6 2.8 2.4 4.5 2.4 1.1 0 2.1-.3 3.1-.9.1-.1 1.2-.8 3.1-1.6 1.7-4.5 3.6-8.8 5.6-12.9-9.3 1.6-14.6 5.2-15 5.4-2.3 1.8-3 5.2-1.3 7.6zm134.7 9.8l6.8-3.7-21.3-80.2-50.3 5.7c32.6 3.6 59.6 36.1 64.8 78.2z"/><path class="st11" d="M758.2 265.1c27.1 13.1 32.9 56.2 32.9 56.2 1.1-.7 2.2-1.3 3.3-1.8l.9-.5c-5.3-42.1-32.2-74.7-64.8-78.2 0 .1 8.6 15.1 27.7 24.3z"/><path class="st11" d="M791.2 321.3l3.3-1.8c-1.2.5-2.3 1.1-3.3 1.8z"/><path class="st3" d="M882.1 976.9c5 .2 8.4-2.8 9.1-7.2.8-4.4.2-12-.3-14.5-.5-2.4-.4-6.4.9-7.1.9-.5 2.3-1.1 3-1.4.8 1.6 1.4 2.6 1.4 2.6-.6 8.4 4.9 14 4.9 14-2.5 4.8-1.1 12.3-1.1 12.3-5.4 2.7-10.7 8.8-10.7 8.8s-3.9-1.5-6.2-1.8c.7 4 1.5 7.9 2.2 11.8l2.3.8-2.1.3c.7 3.6 1.3 7.2 2 10.8 2.5.2 4.9.3 6.4.2 4.3-.3 19.2-10.1 25.8-15.6 6.5-5.4 12.8-30 12.8-30 .3-3.4-.5-6.9-2-11.5-14.2-6.1-35.4-14.6-57.3-20.5 2.9 15.7 5.9 32.1 8.9 48z"/><path class="st3" d="M885.4 995.2c-8.8 1-12.6.4-14 4.2-1.5 4.2.5 4.1.5 4.1 2.1 1.1 4.8 1.3 4.8 1.3s5.6.7 10.7 1.1c-.6-3.4-1.3-7-2-10.7zm-2.3-12.8c-.1 0-.3 0-.4-.1-2.2-.2-6.6-.3-8.4 2.7-1.9 3.1-.2 5.4-.2 5.4l11.2 3.7c-.8-3.7-1.5-7.7-2.2-11.7zm-11.2-54.2c.2 1.2.4 2.6.6 3.9 1.5 7.4 3.5 11.3 3.2 19.1-.3 7.8-.8 11.9.2 16.2 1 4.3 1.1 9.2 6.1 9.4-2.9-15.9-6-32.3-8.9-48.3l-1.2-.3z"/><path class="st12" d="M869.9 796.4c0 12-6 22.6-15.2 28.9-.1 1.8-.2 3.6-.2 5.3v1c4.1 19.8 10.4 52.8 17.1 88.6 0-.9.1-1.4.1-1.4.7-6.2 3.1-13.6 3.8-15.5-.7-4.5-.7-8.6.8-11.7 2.5-5.6-5.7-46.4-5.7-46.4l41.7 4.7-3.9 46.2s13.1 27.3 17.4 39.6c1.9 5.4 3.6 9.7 4.8 13.4 10.6 4.6 17.3 7.9 17.3 7.9 55.2-66.3-5.6-169.3-4.5-221.4 1.1-52.1 3.2-82.8-17.3-164.7-20.8-81.9-79.1-77.7-79.1-77.7v.3l23 4v298.9z"/><path class="st12" d="M871.6 920.2c-.1 0-.1 0 0 0-6.7-35.8-13-68.9-17.1-88.7-4.2 85.1 3.3 93.3 3.3 93.3 4.7 1 9.5 2.1 14.2 3.4-.5-3.5-.5-6.4-.4-8zm-16.9-94.9c9.2-6.3 15.2-16.9 15.2-28.9v-299l-23-4c.5 9.5 11.4 243.2 7.8 331.9z"/><path class="st12" d="M908.3 896.1l3.9-46.2-41.7-4.7s8.3 40.8 5.7 46.4c-1.4 3.1-1.5 7.3-.8 11.7-.7 1.9-3.1 9.4-3.8 15.5 0 0 0 .5-.1 1.4.5 2.8 1 5.5 1.6 8.3 21.9 5.9 43.2 14.4 57.3 20.5-1.2-3.6-2.9-7.9-4.8-13.4-4.3-12.2-17.3-39.5-17.3-39.5z"/><path class="st12" d="M873.1 928.6c-.5-2.8-1-5.6-1.6-8.3-.1 1.6-.1 4.5.4 8 .4 0 .8.1 1.2.3z"/><path class="st7" d="M593.6 962.2c-6.9.7-13.7 1-20 1h-.7s.2 24.2 10.4 32.4l.2.2v-.2c3.2-10.8 6.5-21.8 9.9-32.9v-.1l.2-.4z"/><path class="st7" d="M593.6 962.2c-.1 0-15.6 1-20 1 6.3.1 13.1-.2 20-1zm-10.1 33.5v.2l10-33.2v.1c-3.5 11.1-6.8 22.1-10 32.9z"/><path class="st6" d="M622.1 789h.2c1.1-.1 1.9-1.1 1.8-2.2 0-.1-.4-4.4-.5-10.9-1.3 1.2-2.6 2.3-4 3.2.1 4.8.4 7.9.5 8.2.1.9.9 1.7 2 1.7zm4.2-41.1c2.4-11.2.7-17.9-1.6-27.1-2-7.8-4.5-17.5-5.5-34-2.2-34.7 10.9-54.7 11.1-55 .6-.9.4-2.2-.5-2.8-.9-.6-2.2-.4-2.8.5-.6.9-14 21.3-11.8 57.5 1 16.8 3.6 26.7 5.7 34.7 2.3 9 3.8 14.9 1.6 25.2-2.7 12.3-3 24.3-2.8 31.9 1.4-.9 2.7-2 4-3.2-.1-7.1.4-17.4 2.6-27.7zm224.5 67.6c1.5-15 2.6-28.7 1.2-42.3-.8-7.4-1.7-14.8-2.6-22-2-16.5-4-32.1-4.4-48.5 0-1.1-1-2-2.1-1.9-1.1 0-2 .9-1.9 2.1.4 16.7 2.4 33.1 4.4 48.9.9 7.1 1.8 14.5 2.6 21.9 1.3 12.8.4 25.7-1 39.8h3.2c.2.4.4 1.1.6 2z"/><path class="st6" d="M848.4 819.8h.2c1 0 1.9-.8 2-1.8.1-.8.2-1.7.3-2.5-.2-.9-.4-1.6-.6-2.1H847c-.1 1.4-.3 2.8-.4 4.2-.1 1.1.7 2.1 1.8 2.2z"/><path class="st14" d="M630.2 833.5v.4c0 1.1.9 2 2 2h2.5c.2-.7.5-1.3.7-2h-3.2c-.7-.1-1.4-.2-2-.4zm10.5 2.4h112.1c1.1 0 2-.9 2-2 0-.6-.3-1.1-.7-1.5l-113.4 1.4v2.1z"/><path class="st14" d="M635.3 833.9c-.2.7-.5 1.4-.7 2h6v-2.1l-5.3.1z"/><path class="st14" d="M632.1 831.9c-1 0-1.8.7-2 1.6.6.1 1.3.3 2 .4h3.2c.2-.7.4-1.3.7-2h-3.9zm8.5 0v1.9l113.4-1.4c-.3-.3-.8-.5-1.3-.5H640.6z"/><path class="st14" d="M635.3 833.9l5.3-.1v-1.9H636c-.2.7-.4 1.3-.7 2z"/><path class="st0" d="M993 908.6c-29 70.1-96.7 103.4-139.9 124.6-170.5 83.7-462.7 77-648.9-75.3-43.6-35.6-225-225.2-174.8-478.3 44.4-223.7 267-353.7 454.4-371.1 155.3-14.4 357.9 41.9 429.5 178.3 45 85.8-9.2 113.1 27.5 307.5 31.9 168.2 87.6 228.5 52.2 314.3z"/><path class="st3" d="M420.2 184.8c4.9 62.5-24.6 115.9-70.5 119.5-45.9 3.6-87.1-44.1-92-106.5-4.9-62.5 28.2-116.1 74.1-119.7 45.9-3.7 83.4 44.2 88.4 106.7z"/><path class="st8" d="M357.5 321.8c-43.9 6.5-86.9-38.9-96.2-101.2-.9-6-1.4-11.9-1.7-17.8 10.3 60.6 52.6 104.2 95.7 97.9 39.6-5.9 66.3-51.9 64.4-106.7.2 1 .4 2.1.5 3.1 9.3 62.3-18.8 118.2-62.7 124.7zm68.3-233c1.5-4.9.9-9.8-4.6-15.3s-12.5-14.1-10.4-17.7c2.1-3.7 11.3-13.1 2.4-21.4-8.9-8.2-51.6-13.4-59.6-6.1-7.8 7.2-36.3-19.5-59.8 15.9l-9.7 6s-41.7 4.6-42.6 41.2c0 0-5 8.2-15.1 21.5s1.8 35.7 4.6 49c2.7 13.3 8.4 24.3 8.1 28.3 0 .5.1 1.1.3 1.8 5.9-3.7 11.9-7.2 17.9-10.7.5-17.6 4-34.2 9.9-48.6.7-2.3 1.5-4.2 2.4-5.5 6.9-14.8 16.5-27.2 28-35.8 1.5 4 3.3 7.1 5.7 8.4 11.6 6.7 24.8-5.5 35.3-7.3 10.5-1.8 31.7-3.6 46.6 9.3 14.9 13 27.7 50.8 27.7 50.8l3.3 12.7s8.7 2.2 9.6-9.7c.9-11.9-1.6-61.9 0-66.8zM293.1 45.3c-.3.5-.6.9-.9 1.4.4-.5.6-1 .9-1.4zm.5 27.1c0-.1 0-.1 0 0 0-.1 0-.1 0 0zm-.5-5.6zm-.3-3.5s0-.1 0 0c0-.1 0 0 0 0zm-.2-3.4zm-.1-1.6zm-.1-3zm-.1-2.6zm0-1.2zm0-2v-.1.1zm0-2.1zm0-.4zm0 1zm4.8 41.9zm-3-13.9s0 .1 0 0c0 .1 0 0 0 0zm.6 3.7zm.3 1.8s0 .1 0 0c0 .1 0 0 0 0zm.7 3.5v.1c.1 0 0-.1 0-.1zm.9 3.3z"/><path class="st3" d="M275 207.2c5.7 11.8 3.6 24.7-4.7 28.7-8.3 4.1-19.8-2.2-25.5-14-5.7-11.8-3.6-24.7 4.7-28.7 8.3-4.1 19.8 2.2 25.5 14zm161.9-16.1c-1.5 13-10.2 22.8-19.4 21.7-9.2-1.1-15.5-12.5-14-25.5s10.2-22.8 19.4-21.7c9.2 1 15.5 12.4 14 25.5z"/><path class="st8" d="M311.1 167.5c-5.7.4-11.7 1.1-17.4 2.3-5.7 1.2-11.3 2.9-15.6 5.5l-.2.1c-2.2 1.4-5.2.7-6.6-1.5-1.4-2.2-.7-5.1 1.4-6.5 6.1-4 12.4-5.9 18.7-7.4 6.3-1.5 12.4-2.5 18.9-3.1 2.9-.3 5.5 1.9 5.8 4.8.3 2.9-1.9 5.5-4.8 5.8h-.2zm-4.9 22.6c.7 4.6-1.9 8.7-5.7 9.3-3.8.6-7.5-2.7-8.2-7.2-.7-4.6 1.9-8.7 5.7-9.3 3.9-.5 7.6 2.7 8.2 7.2zm53.3-28.4c5.6-.9 11.7-1.6 17.5-1.7 5.8-.1 11.7.2 16.4 1.8l.2.1c2.5.8 5.2-.5 6-3 .8-2.5-.5-5.1-2.9-6-6.9-2.5-13.4-2.9-19.9-3-6.5 0-12.7.4-19.2 1.3-2.9.4-5 3.1-4.6 6 .4 2.9 3.1 5 6 4.6h.1l.4-.1zm9.9 21c.4 4.6 3.8 8 7.7 7.7 3.9-.3 6.7-4.3 6.3-8.9-.4-4.6-3.8-8-7.7-7.7-3.9.3-6.7 4.3-6.3 8.9zm-52.7 110.6c2.4 1.6 10.8-.4 13.5-1 4.6-1 9.9-2.7 12.8-6.7 3.3-4.6 1.8-11.5 1.4-16.7-.1-1.5.1-5.6-1.1-6.8 0 0 12.1-1.8 12.2-1.8-1.1.2 2.2 17.2 2.7 18.6 1.4 3.7 5.1 5.8 8.8 6.7 3.8 1 8 1.1 12 .8 1-.1 10.4-.9 10.5-1.9-.1.8-.7 1.5-1.3 2.1-6.2 6.3-13 12-19.8 17.6 0 0-32.4 2.7-33.3 1.8-1-.9-18.4-12.7-18.4-12.7z"/><path class="st9" d="M377 248.3c-4.3 7.6-13.3 13.9-24.6 16.1-15.1 2.9-29.2-2.2-34.6-11.7 0-.1.1-.3.3-.4 1.9-1.6 3.9-3 6-4.2l44.4-5.3c3.4.6 6.5 2 8.5 5.5z"/><path class="st8" d="M313.8 299.3c-1-9.2-3.6-38.8.3-47.6v-.6l1.3-1.5c2.4-2.1 4.6-3.6 6.9-4.8 7.2-4.2 16.2-6.6 25.8-7 5.3-.2 10.6-.1 15.6.5l1.2.2c1.4.2 2.8.3 4.2.6 3.6.8 8 2.3 11 7.3 3 5.2 4.3 10.8 5.6 16.3.3 1.4.7 2.8 1 4.2 2.1 8.5 2.8 15.6 2.1 22.5l-7.3-.7c.6-6 0-12.4-1.9-20-.4-1.4-.7-2.9-1-4.3-1.2-5.1-2.3-10-4.8-14.2-1.2-2.1-2.9-3.1-6.2-3.8-1.2-.3-2.4-.4-3.5-.5l-1.3-.2c-4.6-.5-9.5-.7-14.4-.5-8.5.3-16.3 2.4-22.5 6-1.8 1-3.5 2.1-5.1 3.5l-.1.1c-2.1 3.3-1.5 25.3.4 43.8l-7.3.7zm21-77.2c-.4 0-.7-.2-.9-.5-.3-.5-.1-1.1.4-1.4l7.9-4.2c2.5-1.3 3.9-3.7 3.6-6.2l-4-27.8c-.1-.5.3-1.1.8-1.1.5-.1 1.1.3 1.1.8l4 27.8c.5 3.2-1.3 6.5-4.6 8.2l-7.9 4.2c-.1.2-.3.2-.4.2z"/></svg>