<svg width="88" height="88" fill="none" xmlns="http://www.w3.org/2000/svg"><path d="M79.75 18.19c0-1.4-.387-2.503-1.162-3.278-.775-.775-1.877-1.162-3.263-1.162-4.335 0-11.322 3.873-13.929 6.48l-7.36 7.36-33.907-6.004-.447-.044c-.7 0-1.355.268-1.847.76l-3.307 3.322a2.596 2.596 0 00-.745 2.264 2.64 2.64 0 001.415 1.922l25.296 12.648-9.534 12.216-9.192-1.624-.432-.044c-.7 0-1.37.268-1.847.76L17 56.252c-.581.581-.85 1.416-.745 2.25.134.82.64 1.52 1.34 1.892l6.898 3.71-1.37 2.755c-.507.999-.298 2.22.506 3.025.79.774 2.056.968 3.01.476l2.756-1.37 3.71 6.897a2.624 2.624 0 001.936 1.341l.357.03c.7 0 1.356-.268 1.848-.76l2.473-2.473c.61-.596.879-1.46.73-2.309l-1.624-9.177 12.201-9.534 12.648 25.31c.373.746 1.088 1.267 1.788 1.371l.566.075c.686 0 1.341-.268 1.847-.76l3.308-3.307a2.66 2.66 0 00.73-2.294l-5.99-33.908 7.36-7.36c2.607-2.621 6.466-9.623 6.466-13.944zM62.096 38.257l6.227 35.248-2.01 2.026-14.02-28.023L34.968 61.05l1.907 10.801-1.221 1.222-4.768-8.805-3.277 1.639 1.639-3.277-8.82-4.753 1.222-1.221 10.8 1.906 13.543-17.326-28.008-14.003 2.026-2.027 35.248 6.228 8.67-8.67c2.31-2.325 8.373-5.438 11.397-5.438.552 0 .745.119.745.119.969 1.28-2.145 8.998-5.303 12.156l-8.67 8.656z" fill="#000"/></svg>